<svg width="64" height="64" viewBox="0 0 64 64" fill="none" xmlns="http://www.w3.org/2000/svg">
<path d="M18.6665 33.3333C18.6665 31.4477 18.6665 30.5049 19.2523 29.9191C19.8381 29.3333 20.7809 29.3333 22.6665 29.3333H41.3332C43.2188 29.3333 44.1616 29.3333 44.7474 29.9191C45.3332 30.5049 45.3332 31.4477 45.3332 33.3333V48C45.3332 51.7712 45.3332 53.6569 44.1616 54.8284C42.99 56 41.1044 56 37.3332 56H26.6665C22.8953 56 21.0096 56 19.8381 54.8284C18.6665 53.6569 18.6665 51.7712 18.6665 48V33.3333Z" stroke="white" stroke-width="2"/>
<path d="M24 20C24 18.1144 24 17.1716 24.5858 16.5858C25.1716 16 26.1144 16 28 16H36C37.8856 16 38.8284 16 39.4142 16.5858C40 17.1716 40 18.1144 40 20V29.3333H24V20Z" stroke="white" stroke-width="2"/>
<path d="M32 29.3333V40" stroke="white" stroke-width="2"/>
<path d="M40 8L34.6667 16" stroke="white" stroke-width="2"/>
<path d="M24 8L29.3333 16" stroke="white" stroke-width="2"/>
<path d="M18.6665 42.6667H5.33317" stroke="white" stroke-width="2"/>
<path d="M58.6665 42.6667H45.3332" stroke="white" stroke-width="2"/>
<path d="M53.3335 24V28.6667C53.3335 31.4951 53.3335 32.9093 52.4548 33.788C51.5761 34.6667 50.1619 34.6667 47.3335 34.6667H45.3335" stroke="white" stroke-width="2"/>
<path d="M53.3335 58.6667V56.6667C53.3335 53.8382 53.3335 52.424 52.4548 51.5453C51.5761 50.6667 50.1619 50.6667 47.3335 50.6667H45.3335" stroke="white" stroke-width="2"/>
<path d="M10.6665 24V28.6667C10.6665 31.4951 10.6665 32.9093 11.5452 33.788C12.4239 34.6667 13.8381 34.6667 16.6665 34.6667H18.6665" stroke="white" stroke-width="2"/>
<path d="M10.6665 58.6667V56.6667C10.6665 53.8382 10.6665 52.424 11.5452 51.5453C12.4239 50.6667 13.8381 50.6667 16.6665 50.6667H18.6665" stroke="white" stroke-width="2"/>
</svg>
