<svg width="27" height="24" viewBox="0 0 27 24" fill="none" xmlns="http://www.w3.org/2000/svg">
<path d="M12.2888 19H4.46868C3.87611 19 3.3078 18.7893 2.88879 18.4142C2.46977 18.0391 2.23438 17.5304 2.23438 17V7C2.23437 6.46957 2.46977 5.96086 2.88879 5.58579C3.3078 5.21071 3.87611 5 4.46868 5H10.0545" stroke="black" stroke-width="1.9" stroke-linecap="round" stroke-linejoin="round"/>
<path d="M14.5229 5H22.343C22.9356 5 23.5039 5.21071 23.9229 5.58579C24.3419 5.96086 24.5773 6.46957 24.5773 7V17C24.5773 17.5304 24.3419 18.0391 23.9229 18.4142C23.5039 18.7893 22.9356 19 22.343 19H16.7573" stroke="black" stroke-width="1.9" stroke-linecap="round" stroke-linejoin="round"/>
<path d="M13.4059 15C15.2569 15 16.7574 13.6569 16.7574 12C16.7574 10.3431 15.2569 9 13.4059 9C11.5549 9 10.0544 10.3431 10.0544 12C10.0544 13.6569 11.5549 15 13.4059 15Z" stroke="black" stroke-width="1.9" stroke-linecap="round" stroke-linejoin="round"/>
<path d="M20.1088 22L16.7573 19L20.1088 16" stroke="black" stroke-width="1.9" stroke-linecap="round" stroke-linejoin="round"/>
<path d="M6.70288 2L10.0543 5L6.70288 8" stroke="black" stroke-width="1.9" stroke-linecap="round" stroke-linejoin="round"/>
</svg>
