<svg width="30" height="30" viewBox="0 0 30 30" fill="none" xmlns="http://www.w3.org/2000/svg">
<path d="M29.1116 0.888833L28.7589 1.2416L29.1116 0.888832C28.682 0.459257 27.9856 0.459257 27.556 0.888832L27.9095 1.24239L27.556 0.888833L0.889321 27.5555L1.24196 27.9081L0.88932 27.5555C0.459745 27.9851 0.459745 28.6816 0.88932 29.1111L1.24208 28.7584L0.889322 29.1111C1.3189 29.5407 2.01538 29.5407 2.44496 29.1111L29.1116 2.44447C29.5412 2.01489 29.5412 1.31841 29.1116 0.888833Z" fill="black" stroke="black" stroke-linecap="round" stroke-linejoin="round"/>
<path d="M0.888622 0.888833L1.24138 1.2416L0.888624 0.888832C1.3182 0.459257 2.01468 0.459257 2.44426 0.888832L2.09071 1.24239L2.44426 0.888833L29.1109 27.5555L28.7583 27.9081L29.1109 27.5555C29.5405 27.9851 29.5405 28.6816 29.1109 29.1111L28.7582 28.7584L29.1109 29.1111C28.6813 29.5407 27.9849 29.5407 27.5553 29.1111L0.888622 2.44447C0.459047 2.01489 0.459047 1.31841 0.888622 0.888833Z" fill="black" stroke="black" stroke-linecap="round" stroke-linejoin="round"/>
</svg>
