<svg width="42" height="41" viewBox="0 0 42 41" fill="none" xmlns="http://www.w3.org/2000/svg">
<path d="M41 20.5C41 31.5457 32.0457 40.5 21 40.5C9.95431 40.5 1 31.5457 1 20.5C1 9.45431 9.95431 0.5 21 0.5C32.0457 0.5 41 9.45431 41 20.5Z" fill="white" fill-opacity="0.8" stroke="black" stroke-opacity="0.31"/>
<path d="M13.5738 26.7797L13.8566 27.0625L13.5738 26.7797C13.2971 27.0563 13.2971 27.5049 13.5738 27.7815C13.8504 28.0582 14.299 28.0582 14.5756 27.7815L28.2822 14.0749C28.5588 13.7983 28.5588 13.3498 28.2822 13.0731C28.0055 12.7965 27.557 12.7965 27.2804 13.0731L27.5632 13.356L27.2804 13.0731L13.5738 26.7797Z" fill="black" stroke="black" stroke-width="0.8" stroke-linecap="round" stroke-linejoin="round"/>
<path d="M14.5753 13.0731L14.2937 13.3547L14.5753 13.0731L28.2819 26.7797L27.9991 27.0625L28.2819 26.7797C28.5586 27.0563 28.5586 27.5049 28.2819 27.7815C28.0053 28.0582 27.5568 28.0582 27.2801 27.7815L13.5735 14.0749C13.2969 13.7983 13.2969 13.3498 13.5735 13.0731C13.8502 12.7965 14.2987 12.7965 14.5753 13.0731Z" fill="black" stroke="black" stroke-width="0.8" stroke-linecap="round" stroke-linejoin="round"/>
</svg>
