<svg width="170" height="170" viewBox="0 0 170 170" fill="none" xmlns="http://www.w3.org/2000/svg">
<path d="M85 170C131.944 170 170 131.944 170 85C170 38.0558 131.944 0 85 0C38.0558 0 0 38.0558 0 85C0 131.944 38.0558 170 85 170Z" fill="#69D5DD"/>
<path d="M85 170C131.944 170 170 131.944 170 85C170 38.0558 131.944 0 85 0C38.0558 0 0 38.0558 0 85C0 131.944 38.0558 170 85 170Z" fill="white" fill-opacity="0.7"/>
<path d="M94.0728 29.3538C94.0728 37.1077 93.567 48.4513 92.5554 63.3846C91.5437 77.7436 91.0379 88.7282 91.0379 96.3385C91.0379 98.3487 91.2065 102.513 91.5438 108.831C91.3751 111.272 90.3635 113.138 88.5088 114.431C86.6542 115.579 84.4623 116.154 81.9332 116.154C79.2355 116.154 76.7908 115.579 74.5989 114.431C72.407 113.282 71.0582 111.774 70.5524 109.908C68.5291 98.1333 67.5175 84.0615 67.5175 67.6923L67.7704 34.0923C67.7704 28.7795 68.5291 24.4718 70.0465 21.1692C71.7326 17.7231 75.2733 16 80.6687 16C85.221 16 88.5932 17.2923 90.785 19.8769C92.9769 22.3179 94.0728 25.4769 94.0728 29.3538ZM80.6687 127.354C92.1339 127.354 97.8665 131.015 97.8665 138.338C97.8665 142.072 96.4333 145.518 93.567 148.677C90.8693 151.692 87.4129 153.2 83.1978 153.2C78.1396 153.2 74.0088 151.908 70.8053 149.323C67.6018 146.595 66 143.436 66 139.846C66 136.687 67.3488 133.815 70.0465 131.231C72.9128 128.646 76.4535 127.354 80.6687 127.354Z" fill="#931602"/>
<path d="M100.317 29.3538C100.317 37.1077 99.8117 48.4513 98.8 63.3846C97.7884 77.7436 97.2826 88.7282 97.2826 96.3385C97.2826 98.3487 97.4512 102.513 97.7884 108.831C97.6198 111.272 96.6082 113.138 94.7535 114.431C92.8988 115.579 90.707 116.154 88.1779 116.154C85.4802 116.154 83.0354 115.579 80.8435 114.431C78.6517 113.282 77.3028 111.774 76.797 109.908C74.7737 98.1333 73.7621 84.0615 73.7621 67.6923L74.015 34.0923C74.015 28.7795 74.7737 24.4718 76.2912 21.1692C77.9772 17.7231 81.518 16 86.9133 16C91.4657 16 94.8378 17.2923 97.0297 19.8769C99.2215 22.3179 100.317 25.4769 100.317 29.3538ZM86.9133 127.354C98.3785 127.354 104.111 131.015 104.111 138.338C104.111 142.072 102.678 145.518 99.8117 148.677C97.114 151.692 93.6576 153.2 89.4424 153.2C84.3843 153.2 80.2534 151.908 77.0499 149.323C73.8464 146.595 72.2447 143.436 72.2447 139.846C72.2447 136.687 73.5935 133.815 76.2912 131.231C79.1575 128.646 82.6982 127.354 86.9133 127.354Z" fill="#CE341B"/>
</svg>
