<svg width="24" height="24" viewBox="0 0 24 24" fill="none" xmlns="http://www.w3.org/2000/svg">
<path d="M4 21C4 20.4477 4.44772 20 5 20H19C19.5523 20 20 20.4477 20 21C20 21.5523 19.5523 22 19 22H5C4.44772 22 4 21.5523 4 21Z" fill="#0B3D63"/>
<path fill-rule="evenodd" clip-rule="evenodd" d="M16.6545 4.58835C15.8734 3.8073 14.6071 3.8073 13.826 4.58835L6.91994 11.4944L6.00214 15.9981L10.5057 15.0802L17.4118 8.17414C18.1929 7.39309 18.1929 6.12675 17.4118 5.3457L16.6545 4.58835ZM12.4118 3.17413C13.9739 1.61204 16.5066 1.61204 18.0687 3.17413L18.826 3.93149C20.3881 5.49359 20.3881 8.02626 18.826 9.58835L11.9199 16.4944C11.6425 16.7718 11.2896 16.9615 10.9051 17.0399L6.40157 17.9578C4.99701 18.2441 3.75618 17.0033 4.04242 15.5987L4.96022 11.095C5.03857 10.7106 5.22829 10.3576 5.50573 10.0802L12.4118 3.17413Z" fill="#0B3D63"/>
</svg>
