<svg width="18" height="19" viewBox="0 0 18 19" fill="none" xmlns="http://www.w3.org/2000/svg">
<path d="M2.99988 16.2499C2.99988 15.8357 3.33566 15.4999 3.74988 15.4999H14.2499C14.6641 15.4999 14.9999 15.8357 14.9999 16.2499C14.9999 16.6641 14.6641 16.9999 14.2499 16.9999H3.74988C3.33566 16.9999 2.99988 16.6641 2.99988 16.2499Z" fill="black"/>
<path fill-rule="evenodd" clip-rule="evenodd" d="M12.49 3.94117C11.9042 3.35539 10.9545 3.35538 10.3687 3.94117L5.1891 9.1207L4.50075 12.4985L7.87844 11.8101L13.058 6.63051C13.6438 6.04472 13.6438 5.09497 13.058 4.50919L12.49 3.94117ZM9.30801 2.8805C10.4796 1.70894 12.3791 1.70894 13.5506 2.88051L14.1187 3.44853C15.2902 4.6201 15.2902 6.5196 14.1187 7.69117L8.93909 12.8707C8.73102 13.0788 8.46634 13.2211 8.17801 13.2798L4.80032 13.9683C3.7469 14.183 2.81628 13.2524 3.03096 12.199L3.71931 8.82118C3.77808 8.53282 3.92036 8.26813 4.12845 8.06004L9.30801 2.8805Z" fill="black"/>
</svg>
