<svg width="9" height="12" viewBox="0 0 9 12" fill="none" xmlns="http://www.w3.org/2000/svg">
<mask id="path-1-outside-1_387_134" maskUnits="userSpaceOnUse" x="0" y="0" width="9" height="12" fill="black">
<rect fill="white" width="9" height="12"/>
<path d="M2.55469 5.75L7.95312 7.9375V9.46875L1.5625 6.50781V5.60938L2.55469 5.75ZM7.95312 3.95312L2.5625 6.17188L1.5625 6.28125V5.375L7.95312 2.42188V3.95312Z"/>
</mask>
<path d="M2.55469 5.75L7.95312 7.9375V9.46875L1.5625 6.50781V5.60938L2.55469 5.75ZM7.95312 3.95312L2.5625 6.17188L1.5625 6.28125V5.375L7.95312 2.42188V3.95312Z" fill="#931602"/>
<path d="M2.55469 5.75L2.93024 4.8232L2.81651 4.77711L2.69502 4.7599L2.55469 5.75ZM7.95312 7.9375H8.95312V7.26373L8.32867 7.0107L7.95312 7.9375ZM7.95312 9.46875L7.53273 10.3761L8.95312 11.0342V9.46875H7.95312ZM1.5625 6.50781H0.5625V7.14661L1.14211 7.41515L1.5625 6.50781ZM1.5625 5.60938L1.70283 4.61927L0.5625 4.45765V5.60938H1.5625ZM7.95312 3.95312L8.33374 4.87786L8.95312 4.62292V3.95312H7.95312ZM2.5625 6.17188L2.67123 7.16595L2.81208 7.15054L2.94311 7.09661L2.5625 6.17188ZM1.5625 6.28125H0.5625V7.39659L1.67123 7.27532L1.5625 6.28125ZM1.5625 5.375L1.14302 4.46724L0.5625 4.7355V5.375H1.5625ZM7.95312 2.42188H8.95312V0.858165L7.53364 1.51411L7.95312 2.42188ZM2.55469 5.75L2.17914 6.6768L7.57758 8.8643L7.95312 7.9375L8.32867 7.0107L2.93024 4.8232L2.55469 5.75ZM7.95312 7.9375H6.95312V9.46875H7.95312H8.95312V7.9375H7.95312ZM7.95312 9.46875L8.37352 8.56141L1.98289 5.60047L1.5625 6.50781L1.14211 7.41515L7.53273 10.3761L7.95312 9.46875ZM1.5625 6.50781H2.5625V5.60938H1.5625H0.5625V6.50781H1.5625ZM1.5625 5.60938L1.42217 6.59948L2.41436 6.7401L2.55469 5.75L2.69502 4.7599L1.70283 4.61927L1.5625 5.60938ZM7.95312 3.95312L7.57251 3.02839L2.18189 5.24714L2.5625 6.17188L2.94311 7.09661L8.33374 4.87786L7.95312 3.95312ZM2.5625 6.17188L2.45377 5.1778L1.45377 5.28718L1.5625 6.28125L1.67123 7.27532L2.67123 7.16595L2.5625 6.17188ZM1.5625 6.28125H2.5625V5.375H1.5625H0.5625V6.28125H1.5625ZM1.5625 5.375L1.98198 6.28276L8.37261 3.32964L7.95312 2.42188L7.53364 1.51411L1.14302 4.46724L1.5625 5.375ZM7.95312 2.42188H6.95312V3.95312H7.95312H8.95312V2.42188H7.95312Z" fill="#931602" mask="url(#path-1-outside-1_387_134)"/>
</svg>
