<svg width="19" height="19" viewBox="0 0 19 19" fill="none" xmlns="http://www.w3.org/2000/svg">
<g id="fluent:ios-arrow-24-filled">
<path id="Vector" d="M16.0813 8.9244C16.1568 8.85298 16.2457 8.79714 16.3429 8.76008C16.4401 8.72301 16.5436 8.70545 16.6475 8.70839C16.7515 8.71133 16.8538 8.73472 16.9487 8.77721C17.0436 8.81971 17.1292 8.88048 17.2007 8.95606C17.2721 9.03165 17.3279 9.12056 17.365 9.21772C17.4021 9.31488 17.4196 9.41838 17.4167 9.52233C17.4137 9.62628 17.3903 9.72863 17.3479 9.82354C17.3054 9.91845 17.2446 10.0041 17.169 10.0755L10.044 16.8046C9.89702 16.9436 9.70241 17.021 9.50013 17.021C9.29785 17.021 9.10324 16.9436 8.95625 16.8046L1.83046 10.0755C1.75323 10.0045 1.69086 9.91894 1.64698 9.82368C1.6031 9.72842 1.57859 9.62539 1.57487 9.52058C1.57114 9.41577 1.58828 9.31126 1.62529 9.21313C1.6623 9.115 1.71843 9.02519 1.79044 8.94894C1.86244 8.87269 1.94888 8.8115 2.04474 8.76894C2.14059 8.72637 2.24394 8.70328 2.3488 8.70099C2.45365 8.69871 2.55791 8.71728 2.65553 8.75563C2.75314 8.79399 2.84216 8.85135 2.91742 8.9244L9.50013 15.1406L16.0813 8.9244Z" fill="black"/>
</g>
</svg>
