<svg width="184" height="191" viewBox="0 0 184 191" fill="none" xmlns="http://www.w3.org/2000/svg">
<path d="M118.674 54.7493C120.87 57.693 120.265 61.8602 117.322 64.0568C114.377 66.2533 110.211 65.6483 108.013 62.7046C105.817 59.7609 106.423 55.5928 109.366 53.3971C112.31 51.1996 116.477 51.8056 118.674 54.7493ZM99.5178 83.9436C106.316 93.0523 117.909 96.4661 128.184 93.3037L160.324 136.374C160.621 136.773 161.077 137.023 161.573 137.06L170.907 137.752C171.76 137.815 172.529 137.24 172.711 136.404L174.707 127.261C174.812 126.774 174.703 126.267 174.405 125.868L170.436 120.547C170.163 120.183 169.757 119.94 169.306 119.876L164.99 119.248C164.052 119.112 163.401 118.239 163.538 117.302L163.981 114.255C164.117 113.317 163.467 112.445 162.527 112.309L159.482 111.866C158.543 111.729 157.893 110.858 158.029 109.919L158.656 105.603C158.722 105.153 158.606 104.695 158.334 104.329L155.698 100.797C155.426 100.432 155.019 100.19 154.568 100.125L150.253 99.4983C149.315 99.3611 148.663 98.4896 148.801 97.5503L149.53 92.5319L149.5 92.4924L153.107 89.8011C153.993 89.1399 154.032 87.8257 153.187 87.1127L144.14 79.4744C148.13 71.0091 147.44 60.6755 141.452 52.6519C137.039 46.7368 130.603 43.2215 123.818 42.3494C117.321 41.5141 110.505 43.1031 104.84 47.33C93.2596 55.9714 90.8773 72.3636 99.5178 83.9436Z" fill="#90CBD2"/>
<circle cx="92.3164" cy="32.4331" r="2.5" fill="#C4C4C4"/>
<path d="M123.998 60.4994L123.998 41.9999C100.498 39.4999 93.998 61 92.498 68.4991L115.998 68.4994C120.416 68.4995 123.998 64.9177 123.998 60.4994Z" fill="white"/>
<path d="M97.54 69.4521C98.5812 72.975 96.5701 76.6745 93.0473 77.7148C89.5253 78.756 85.8258 76.745 84.7846 73.223C83.7434 69.7002 85.7554 66.0007 89.2773 64.9603C92.7993 63.9182 96.4988 65.9293 97.54 69.4521ZM69.4593 90.2054C72.6811 101.104 82.3749 108.322 93.1092 108.914L108.342 160.45C108.484 160.928 108.824 161.32 109.277 161.527L117.794 165.407C118.572 165.762 119.493 165.49 119.953 164.769L124.992 156.882C125.259 156.463 125.332 155.948 125.191 155.47L123.31 149.105C123.181 148.668 122.883 148.3 122.483 148.083L118.652 146C117.818 145.546 117.511 144.504 117.964 143.671L119.434 140.967C119.886 140.133 119.578 139.091 118.745 138.638L116.041 137.168C115.207 136.714 114.9 135.671 115.353 134.838L117.436 131.006C117.653 130.606 117.703 130.137 117.574 129.699L116.325 125.473C116.196 125.036 115.898 124.669 115.498 124.451L111.667 122.368C110.833 121.915 110.525 120.872 110.978 120.039L113.401 115.583L113.387 115.535L117.702 114.26C118.763 113.946 119.255 112.727 118.71 111.765L112.866 101.466C119.543 94.9078 122.473 84.9754 119.635 75.3738C115.539 61.5173 100.987 53.6055 87.1316 57.7015C73.2761 61.7957 65.3633 76.3489 69.4593 90.2054Z" fill="#3DA7B4"/>
<path d="M74.6278 79.3287C71.1908 78.0326 69.4557 74.1961 70.7518 70.7591C72.0478 67.3221 75.8844 65.587 79.3205 66.8834C82.7583 68.1792 84.4937 72.0165 83.1973 75.4527C81.9004 78.8899 78.0639 80.625 74.6278 79.3287ZM110.831 87.545L83.8191 56.2815C83.6025 56.0297 83.2728 55.9066 82.9443 55.951L42.0138 61.5914C41.6585 61.6403 41.3578 61.8805 41.2309 62.2161L20.5644 117.015C20.3731 117.521 20.6294 118.086 21.1358 118.278L42.8755 126.476C43.3819 126.667 43.9468 126.411 44.1372 125.905L57.4338 90.6504C57.6242 90.1443 58.1894 89.8888 58.6955 90.0792L79.4926 97.9224C79.9991 98.1137 80.2545 98.6788 80.0633 99.1852L66.7678 134.44C66.5763 134.946 66.832 135.512 67.339 135.702L89.0778 143.901C89.5851 144.092 90.1494 143.837 90.3404 143.33L111.008 88.5304C111.135 88.1948 111.067 87.8162 110.831 87.545Z" fill="#CDCDCD"/>
<path d="M84.8729 73.4828C83.0997 73.2008 81.4143 72.7047 79.8392 72.022C77.0117 70.7983 74.5407 68.9789 72.555 66.7446C68.5462 62.233 66.5162 56.0268 67.537 49.6012C69.3455 38.2184 80.0374 30.4577 91.4194 32.2653" stroke="#868686" stroke-width="2.68733" stroke-miterlimit="10"/>
</svg>
