<svg width="100" height="100" viewBox="0 0 100 100" fill="none" xmlns="http://www.w3.org/2000/svg">
<circle cx="50" cy="50" r="50" fill="#931602"/>
<circle cx="50" cy="50" r="50" fill="#931602"/>
<path fill-rule="evenodd" clip-rule="evenodd" d="M54.8477 58.1155C53.3589 58.9952 51.6223 59.5 49.7678 59.5C44.2449 59.5 39.7678 55.0229 39.7678 49.5V43.0355L23 26.2678L26.5355 22.7322L76.5355 72.7322L73 76.2678L62.0319 65.2996C59.2656 67.45 55.9195 68.8899 52.2678 69.3453V72H59.7678V77H39.7678V72H47.2678V69.3453C37.402 68.115 29.7678 59.699 29.7678 49.5V44.5H34.7678V49.5C34.7678 57.7843 41.4835 64.5 49.7678 64.5C53.0073 64.5 56.0071 63.473 58.4591 61.7269L54.8477 58.1155ZM44.7678 48.0355V49.5C44.7678 52.2614 47.0063 54.5 49.7678 54.5C50.2157 54.5 50.6498 54.4411 51.0629 54.3306L44.7678 48.0355ZM59.7678 48.9645L54.7678 43.9645V32C54.7678 29.2386 52.5292 27 49.7678 27C47.0063 27 44.7678 29.2386 44.7678 32V33.9645L40.1293 29.326C41.2987 25.1015 45.1711 22 49.7678 22C55.2906 22 59.7678 26.4772 59.7678 32V48.9645ZM64.2446 53.4413C64.5857 52.1854 64.7678 50.8639 64.7678 49.5V44.5H69.7678V49.5C69.7678 52.2906 69.1963 54.9476 68.1639 57.3606L64.2446 53.4413Z" fill="#F1F1F1"/>
</svg>
