<svg width="56" height="56" viewBox="0 0 56 56" fill="none" xmlns="http://www.w3.org/2000/svg">
<path d="M28 49C25.2422 49 22.5115 48.4568 19.9636 47.4015C17.4158 46.3461 15.1008 44.7993 13.1508 42.8492C11.2007 40.8992 9.65388 38.5842 8.59853 36.0364C7.54318 33.4885 7 30.7578 7 28C7 25.2422 7.54318 22.5115 8.59853 19.9636C9.65388 17.4158 11.2007 15.1008 13.1508 13.1508C15.1008 11.2007 17.4158 9.65388 19.9637 8.59853C22.5115 7.54318 25.2422 7 28 7C30.7578 7 33.4885 7.54318 36.0364 8.59853C38.5842 9.65388 40.8992 11.2007 42.8492 13.1508C44.7993 15.1008 46.3461 17.4158 47.4015 19.9637C48.4568 22.5115 49 25.2422 49 28C49 30.7578 48.4568 33.4885 47.4015 36.0364C46.3461 38.5842 44.7993 40.8992 42.8492 42.8492C40.8992 44.7993 38.5842 46.3461 36.0363 47.4015C33.4885 48.4568 30.7578 49 28 49L28 49Z" stroke="black" stroke-width="2" stroke-linecap="round"/>
<path d="M21 21L35 35" stroke="black" stroke-width="2" stroke-linecap="round"/>
<path d="M35 21L21 35" stroke="black" stroke-width="2" stroke-linecap="round"/>
</svg>
