<svg width="24" height="26" viewBox="0 0 24 26" fill="none" xmlns="http://www.w3.org/2000/svg">
<path d="M20 14V12.2596C20 11.8612 19.6434 11.5574 19.2501 11.6208C18.9365 11.6713 18.7059 11.9419 18.7059 12.2596V14.3881C18.706 14.625 18.7999 14.8522 18.9669 15.0196L21.3782 17.4377V18.8543H1.78152V17.4377L4.1928 15.0196C4.35986 14.8522 4.45374 14.625 4.45379 14.3881V10.8151C4.45131 9.55994 4.77919 8.32632 5.40431 7.23886C6.02943 6.15141 6.92966 5.24864 8.01406 4.62173C9.09847 3.99483 10.3286 3.66599 11.5803 3.66844C12.3453 3.66993 13.1018 3.79513 13.8214 4.03633C14.4323 4.24112 15.1429 3.82644 15.1429 3.18206C15.1429 2.852 14.9497 2.54951 14.6403 2.43442C13.942 2.17462 13.213 2.00435 12.4706 1.92824V0.0961914H10.6891V1.92734C8.493 2.15149 6.45779 3.18424 4.977 4.82591C3.49621 6.46757 2.67504 8.60153 2.67228 10.8151V14.0183L0.260994 16.4363C0.0939323 16.6038 5.17914e-05 16.831 1.3411e-06 17.0679V19.7476C1.3411e-06 19.9845 0.0938488 20.2117 0.260898 20.3792C0.427948 20.5467 0.654516 20.6408 0.89076 20.6408H7.12607V21.5341C7.12607 22.7186 7.59531 23.8546 8.43056 24.6922C9.2658 25.5298 10.3986 26.0003 11.5799 26.0003C12.7611 26.0003 13.8939 25.5298 14.7292 24.6922C15.5644 23.8546 16.0337 22.7186 16.0337 21.5341V20.6408H22.269C22.5052 20.6408 22.7318 20.5467 22.8988 20.3792C23.0659 20.2117 23.1597 19.9845 23.1597 19.7476V17.0679C23.1597 16.831 23.0658 16.6038 22.8987 16.4363L20 14ZM14.2521 21.5341C14.2521 22.2448 13.9706 22.9264 13.4694 23.4289C12.9683 23.9315 12.2886 24.2138 11.5799 24.2138C10.8711 24.2138 10.1914 23.9315 9.69028 23.4289C9.18913 22.9264 8.90759 22.2448 8.90759 21.5341V20.6408H14.2521V21.5341Z" fill="black"/>
<path d="M2.65385 13.9737V12.5398C2.65385 12.0512 3.0499 11.6552 3.53846 11.6552C4.02702 11.6552 4.42308 12.0512 4.42308 12.5398V14.3448C4.42303 14.5826 4.32979 14.8106 4.16389 14.9787L1.76923 17.4057V18.8276H21.2308V17.4057L18.8361 14.9787C18.6702 14.8106 18.577 14.5826 18.5769 14.3448V10.7586C18.5794 9.49878 18.2538 8.26059 17.633 7.16911C17.0122 6.07763 16.1181 5.17152 15.0412 4.54229C13.9643 3.91307 12.7426 3.58302 11.4995 3.58547C10.7454 3.58696 9.99959 3.7108 9.28966 3.94943C8.67665 4.15548 7.96154 3.74017 7.96154 3.09345C7.96154 2.76428 8.15354 2.46232 8.46167 2.3465C9.15484 2.08595 9.87847 1.91519 10.6154 1.83883V0H12.3846V1.83793C14.5656 2.0629 16.5868 3.09948 18.0573 4.74723C19.5279 6.39497 20.3434 8.53682 20.3462 10.7586V13.9737L22.7408 16.4006C22.9067 16.5687 23 16.7967 23 17.0345V19.7241C23 19.9619 22.9068 20.19 22.7409 20.3581C22.575 20.5262 22.35 20.6207 22.1154 20.6207H15.9231V21.5172C15.9231 22.7061 15.4571 23.8463 14.6276 24.687C13.7981 25.5277 12.6731 26 11.5 26C10.3269 26 9.2019 25.5277 8.37241 24.687C7.54293 23.8463 7.07692 22.7061 7.07692 21.5172V20.6207H0.884615C0.650001 20.6207 0.424995 20.5262 0.259097 20.3581C0.0931996 20.19 0 19.9619 0 19.7241V17.0345C5.01023e-05 16.7967 0.0932826 16.5687 0.259192 16.4006L2.65385 13.9737ZM8.84615 21.5172C8.84615 22.2306 9.12575 22.9147 9.62345 23.4191C10.1211 23.9235 10.7962 24.2069 11.5 24.2069C12.2038 24.2069 12.8789 23.9235 13.3766 23.4191C13.8742 22.9147 14.1538 22.2306 14.1538 21.5172V20.6207H8.84615V21.5172Z" fill="black"/>
</svg>
