<svg width="100" height="100" viewBox="0 0 100 100" fill="none" xmlns="http://www.w3.org/2000/svg">
<circle cx="50" cy="50" r="50" fill="#E5E5E5"/>
<circle cx="50" cy="50" r="50" fill="#DBDBDB"/>
<path fill-rule="evenodd" clip-rule="evenodd" d="M52.4999 69.8453V72.5H59.9999V77.5H39.9999V72.5H47.4999V69.8453C37.6342 68.615 29.9999 60.199 29.9999 50V45H34.9999V50C34.9999 58.2843 41.7157 65 49.9999 65C58.2842 65 64.9999 58.2843 64.9999 50V45H69.9999V50C69.9999 60.199 62.3657 68.615 52.4999 69.8453ZM49.9999 22.5C55.5228 22.5 59.9999 26.9772 59.9999 32.5V50C59.9999 55.5229 55.5228 60 49.9999 60C44.4771 60 39.9999 55.5229 39.9999 50V32.5C39.9999 26.9772 44.4771 22.5 49.9999 22.5ZM49.9999 27.5C47.2385 27.5 44.9999 29.7386 44.9999 32.5V50C44.9999 52.7614 47.2385 55 49.9999 55C52.7614 55 54.9999 52.7614 54.9999 50V32.5C54.9999 29.7386 52.7614 27.5 49.9999 27.5Z" fill="black"/>
</svg>
