<svg width="22" height="29" viewBox="0 0 22 29" fill="none" xmlns="http://www.w3.org/2000/svg">
<path d="M10.7778 0.941284C5.37751 0.941284 0.99617 4.8856 0.99617 9.74355C0.99617 15.3333 7.51723 24.1915 9.91168 27.2511C10.0111 27.3802 10.1413 27.4853 10.2919 27.5578C10.4424 27.6302 10.6089 27.668 10.7778 27.668C10.9467 27.668 11.1131 27.6302 11.2637 27.5578C11.4142 27.4853 11.5444 27.3802 11.6438 27.2511C14.0383 24.1927 20.5594 15.3378 20.5594 9.74355C20.5594 4.8856 16.178 0.941284 10.7778 0.941284Z" fill="#018191" fill-opacity="0.15" stroke="#018191" stroke-width="1.23533" stroke-linecap="round" stroke-linejoin="round"/>
<path d="M10.3489 4.00047C11.2741 3.98997 12.018 4.1559 12.9056 4.40366C12.3089 5.10496 11.6407 5.75848 11.0115 6.42844L7.32173 10.3487C6.63969 11.0731 5.94013 11.7864 5.28088 12.5338C5.9923 13.0551 6.62369 13.3405 7.49465 13.0182C7.75346 12.9225 8.00164 12.7169 8.20829 12.5282C8.78336 12.0031 9.30818 11.3712 9.84526 10.8004L13.0071 7.44209C13.4035 7.01845 13.9397 6.34053 14.391 6.02715C14.5219 5.93634 14.666 5.88894 14.8225 5.88658C15.1325 5.88196 15.3779 6.06648 15.5877 6.29131C16.8511 7.64456 17.4993 9.55215 17.5 11.4355C17.5007 13.2969 16.8986 14.9776 15.7492 16.3828C15.2322 17.0149 14.6354 17.5934 14.0775 18.1859L11.2119 21.2313C10.9722 21.4847 10.7294 21.7355 10.5005 22C10.3451 21.7674 10.1558 21.5604 10.0021 21.3256C9.58452 20.6886 9.35508 19.8763 9.33148 19.1042C9.30636 18.2827 9.48424 17.4849 9.87596 16.7746C10.3593 15.8983 11.1776 15.1924 11.8491 14.4771L14.2457 11.9287C14.7396 11.405 15.2451 10.889 15.7222 10.3482C15.072 9.83027 14.3828 9.52753 13.5684 9.83361C13.3232 9.92582 13.0867 10.0926 12.8878 10.2681C12.2938 10.7924 11.7408 11.4604 11.1909 12.0449L7.93853 15.4985C7.56971 15.8893 7.19045 16.3984 6.76085 16.7107C6.59897 16.8284 6.4219 16.9023 6.22478 16.9125C5.91886 16.9284 5.65133 16.7873 5.43141 16.5713C4.26284 15.4236 3.55629 13.4275 3.50432 11.763C3.44101 9.73957 4.08131 7.81243 5.39535 6.33032C6.70625 4.85197 8.44594 4.05875 10.3489 4.00047Z" fill="url(#paint0_linear_3415_1803)"/>
<defs>
<linearGradient id="paint0_linear_3415_1803" x1="10.5" y1="4" x2="10.5" y2="22" gradientUnits="userSpaceOnUse">
<stop offset="0.473512" stop-color="#018191"/>
<stop offset="1" stop-color="#004F59"/>
</linearGradient>
</defs>
</svg>
