<svg width="12" height="17" viewBox="0 0 12 17" fill="none" xmlns="http://www.w3.org/2000/svg">
<path d="M5.86642 1.17603C2.86893 1.17603 0.437012 3.36537 0.437012 6.06184C0.437012 9.16452 4.05662 14.0814 5.38569 15.7796C5.44086 15.8513 5.51317 15.9097 5.59671 15.9499C5.68026 15.9901 5.77268 16.0111 5.86642 16.0111C5.96016 16.0111 6.05258 15.9901 6.13613 15.9499C6.21967 15.9097 6.29198 15.8513 6.34715 15.7796C7.67622 14.0821 11.2958 9.16702 11.2958 6.06184C11.2958 3.36537 8.86391 1.17603 5.86642 1.17603Z" fill="#931602" fill-opacity="0.15" stroke="#931602" stroke-width="0.685689" stroke-linecap="round" stroke-linejoin="round"/>
<path d="M5.90966 3.04347C6.3865 3.03784 6.76994 3.12672 7.22741 3.25943C6.91989 3.63506 6.57545 3.9851 6.25117 4.34395L4.3494 6.44375C3.99787 6.83173 3.6373 7.21383 3.29751 7.61413C3.66419 7.89337 3.98962 8.04626 4.43852 7.87362C4.57192 7.82233 4.69984 7.71221 4.80635 7.61113C5.10275 7.32988 5.37325 6.99141 5.65007 6.68569L7.27972 4.88689C7.48402 4.65997 7.76042 4.29686 7.99302 4.12901C8.06048 4.08037 8.13477 4.05498 8.21544 4.05371C8.3752 4.05124 8.50166 4.15008 8.60984 4.2705C9.26101 4.99534 9.59511 6.01709 9.59547 7.02589C9.59578 8.02289 9.2855 8.92312 8.69306 9.67576C8.42658 10.0143 8.11901 10.3242 7.83143 10.6416L6.35444 12.2727C6.23091 12.4085 6.10577 12.5428 5.98777 12.6845C5.90768 12.5599 5.81015 12.4491 5.73089 12.3233C5.51568 11.982 5.39742 11.547 5.38526 11.1334C5.37231 10.6934 5.46399 10.2661 5.66589 9.88564C5.91499 9.41627 6.3368 9.03813 6.6829 8.65505L7.91815 7.29004C8.17268 7.00954 8.43321 6.73312 8.67912 6.44346C8.34403 6.16606 7.98879 6.00391 7.56902 6.16785C7.44267 6.21724 7.32076 6.30657 7.21827 6.40058C6.91211 6.68143 6.62704 7.03918 6.34364 7.35227L4.66731 9.20213C4.47721 9.41143 4.28173 9.68411 4.06031 9.85139C3.97688 9.91442 3.88561 9.95402 3.78401 9.95949C3.62633 9.96801 3.48845 9.89243 3.3751 9.77673C2.7728 9.16201 2.40863 8.09282 2.38184 7.20128C2.34921 6.11748 2.67923 5.08525 3.35651 4.29139C4.03217 3.49955 4.92883 3.07468 5.90966 3.04347Z" fill="url(#paint0_linear_5385_5399)"/>
<defs>
<linearGradient id="paint0_linear_5385_5399" x1="5.98756" y1="3.04321" x2="5.98756" y2="12.6845" gradientUnits="userSpaceOnUse">
<stop offset="0.473512" stop-color="#931602"/>
<stop offset="1" stop-color="#460B01"/>
</linearGradient>
</defs>
</svg>
