<svg width="238" height="60" viewBox="0 0 238 60" fill="none" xmlns="http://www.w3.org/2000/svg">
<path d="M70.5592 36.8264C70.5592 36.2525 70.4699 35.7424 70.2913 35.296C70.1255 34.8497 69.8258 34.4416 69.3922 34.0717C68.9586 33.7019 68.3465 33.3448 67.5558 33.0005C66.7779 32.6434 65.7831 32.2799 64.5716 31.9101C63.2453 31.502 62.021 31.0492 60.8987 30.5519C59.7892 30.0418 58.8199 29.4551 57.991 28.7919C57.162 28.116 56.518 27.3445 56.0589 26.4773C55.5998 25.5973 55.3702 24.5834 55.3702 23.4357C55.3702 22.3006 55.6062 21.2676 56.078 20.3367C56.5626 19.4057 57.2449 18.6022 58.1249 17.9263C59.0176 17.2377 60.0697 16.7084 61.2813 16.3386C62.4928 15.956 63.8319 15.7647 65.2985 15.7647C67.3645 15.7647 69.1436 16.1473 70.6357 16.9125C72.1405 17.6776 73.2947 18.7043 74.0981 19.9923C74.9143 21.2804 75.3224 22.7024 75.3224 24.2582H70.5592C70.5592 23.34 70.3615 22.5302 69.9661 21.8288C69.5835 21.1146 68.9969 20.5535 68.2062 20.1454C67.4283 19.7373 66.4399 19.5332 65.2411 19.5332C64.1061 19.5332 63.1624 19.7054 62.4099 20.0497C61.6575 20.394 61.0964 20.8595 60.7265 21.4462C60.3567 22.0328 60.1718 22.696 60.1718 23.4357C60.1718 23.9585 60.2929 24.4368 60.5352 24.8704C60.7775 25.2912 61.1474 25.6866 61.6447 26.0564C62.1421 26.4135 62.767 26.7515 63.5195 27.0703C64.2719 27.3891 65.1582 27.6952 66.1785 27.9885C67.7216 28.4476 69.067 28.9577 70.2148 29.5189C71.3626 30.0673 72.3191 30.6922 73.0843 31.3936C73.8494 32.095 74.4233 32.8921 74.8059 33.7848C75.1885 34.6647 75.3798 35.6659 75.3798 36.7881C75.3798 37.9614 75.1439 39.0199 74.672 39.9636C74.2002 40.8946 73.5242 41.6917 72.6443 42.3549C71.7771 43.0053 70.7313 43.509 69.507 43.8661C68.2955 44.2104 66.9437 44.3826 65.4515 44.3826C64.1125 44.3826 62.7925 44.204 61.4917 43.847C60.2036 43.4899 59.0304 42.9479 57.9719 42.2209C56.9134 41.4813 56.0717 40.563 55.4467 39.4663C54.8218 38.3568 54.5094 37.0623 54.5094 35.583H59.3109C59.3109 36.4884 59.464 37.26 59.77 37.8977C60.0889 38.5353 60.5289 39.0582 61.09 39.4663C61.6511 39.8616 62.3015 40.1549 63.0412 40.3462C63.7936 40.5375 64.5971 40.6332 65.4515 40.6332C66.5738 40.6332 67.5112 40.4738 68.2636 40.1549C69.0288 39.8361 69.6027 39.3898 69.9853 38.8159C70.3679 38.242 70.5592 37.5788 70.5592 36.8264ZM91.6209 39.1219V23.3017H96.2502V44H91.8887L91.6209 39.1219ZM92.2713 34.8178L93.8208 34.7795C93.8208 36.1696 93.6677 37.4513 93.3617 38.6246C93.0556 39.7851 92.5837 40.799 91.9461 41.6662C91.3084 42.5206 90.4922 43.1902 89.4975 43.6748C88.5027 44.1467 87.3103 44.3826 85.9202 44.3826C84.9127 44.3826 83.9881 44.2359 83.1464 43.9426C82.3047 43.6493 81.5778 43.1966 80.9657 42.5844C80.3663 41.9723 79.9008 41.1752 79.5692 40.1932C79.2376 39.2112 79.0718 38.0379 79.0718 36.6734V23.3017H83.6821V36.7116C83.6821 37.464 83.7713 38.0953 83.9499 38.6054C84.1284 39.1028 84.3707 39.5045 84.6768 39.8106C84.9829 40.1167 85.34 40.3335 85.7481 40.461C86.1562 40.5886 86.5898 40.6523 87.0489 40.6523C88.3625 40.6523 89.3955 40.3973 90.1479 39.8871C90.9131 39.3643 91.4551 38.6628 91.7739 37.7829C92.1055 36.9029 92.2713 35.9145 92.2713 34.8178ZM105.605 27.2807V51.9579H100.994V23.3017H105.241L105.605 27.2807ZM119.091 33.4596V33.8613C119.091 35.3662 118.912 36.7626 118.555 38.0507C118.211 39.326 117.695 40.4419 117.006 41.3984C116.33 42.3421 115.495 43.0754 114.5 43.5983C113.505 44.1212 112.357 44.3826 111.057 44.3826C109.769 44.3826 108.64 44.1467 107.671 43.6748C106.714 43.1902 105.904 42.5079 105.241 41.6279C104.578 40.748 104.042 39.715 103.634 38.5289C103.239 37.3301 102.958 36.0166 102.793 34.5882V33.0387C102.958 31.5211 103.239 30.1438 103.634 28.9067C104.042 27.6697 104.578 26.6048 105.241 25.7121C105.904 24.8194 106.714 24.1307 107.671 23.6461C108.627 23.1615 109.743 22.9192 111.018 22.9192C112.319 22.9192 113.473 23.1742 114.481 23.6843C115.488 24.1817 116.336 24.8959 117.025 25.8269C117.714 26.7451 118.23 27.8546 118.575 29.1554C118.919 30.4435 119.091 31.8782 119.091 33.4596ZM114.481 33.8613V33.4596C114.481 32.5031 114.391 31.6168 114.213 30.8006C114.034 29.9716 113.754 29.2447 113.371 28.6198C112.989 27.9949 112.498 27.5103 111.898 27.1659C111.312 26.8088 110.604 26.6303 109.775 26.6303C108.959 26.6303 108.257 26.7706 107.671 27.0512C107.084 27.319 106.593 27.6952 106.198 28.1798C105.802 28.6644 105.496 29.2319 105.279 29.8823C105.063 30.52 104.91 31.215 104.82 31.9675V35.6786C104.973 36.5968 105.235 37.4385 105.605 38.2037C105.974 38.9689 106.497 39.5811 107.173 40.0402C107.862 40.4865 108.742 40.7097 109.813 40.7097C110.642 40.7097 111.35 40.5312 111.937 40.1741C112.523 39.817 113.001 39.326 113.371 38.7011C113.754 38.0634 114.034 37.3301 114.213 36.5012C114.391 35.6722 114.481 34.7923 114.481 33.8613ZM132.137 44.3826C130.607 44.3826 129.223 44.1339 127.986 43.6365C126.762 43.1264 125.716 42.4186 124.849 41.5131C123.995 40.6077 123.338 39.5428 122.879 38.3185C122.42 37.0942 122.19 35.7743 122.19 34.3587V33.5935C122.19 31.9738 122.426 30.5072 122.898 29.1937C123.37 27.8801 124.026 26.7578 124.868 25.8269C125.71 24.8831 126.705 24.1626 127.852 23.6652C129 23.1678 130.244 22.9192 131.583 22.9192C133.062 22.9192 134.356 23.1678 135.466 23.6652C136.575 24.1626 137.494 24.864 138.221 25.7695C138.96 26.6622 139.509 27.7271 139.866 28.9641C140.236 30.2012 140.421 31.5657 140.421 33.0579V35.0282H124.428V31.7188H135.868V31.3553C135.842 30.5264 135.676 29.7484 135.37 29.0215C135.077 28.2946 134.624 27.7079 134.012 27.2616C133.4 26.8152 132.584 26.592 131.564 26.592C130.798 26.592 130.116 26.7578 129.517 27.0894C128.93 27.4082 128.439 27.8737 128.044 28.4859C127.648 29.098 127.342 29.8377 127.125 30.7049C126.921 31.5594 126.819 32.5222 126.819 33.5935V34.3587C126.819 35.2641 126.941 36.1058 127.183 36.8838C127.438 37.649 127.808 38.3185 128.292 38.8924C128.777 39.4663 129.364 39.919 130.052 40.2506C130.741 40.5694 131.525 40.7288 132.405 40.7288C133.515 40.7288 134.503 40.5057 135.37 40.0593C136.238 39.6129 136.99 38.9817 137.628 38.1655L140.057 40.5184C139.611 41.1688 139.03 41.7937 138.316 42.3931C137.602 42.9798 136.729 43.458 135.696 43.8278C134.675 44.1977 133.489 44.3826 132.137 44.3826ZM148.646 27.2425V44H144.036V23.3017H148.436L148.646 27.2425ZM154.978 23.1678L154.94 27.4529C154.659 27.4019 154.353 27.3636 154.022 27.3381C153.703 27.3126 153.384 27.2998 153.065 27.2998C152.275 27.2998 151.579 27.4146 150.98 27.6442C150.381 27.861 149.877 28.1798 149.469 28.6007C149.073 29.0088 148.767 29.5061 148.551 30.0928C148.334 30.6794 148.206 31.3362 148.168 32.0631L147.116 32.1396C147.116 30.8388 147.243 29.6337 147.498 28.5241C147.754 27.4146 148.136 26.439 148.646 25.5973C149.169 24.7556 149.82 24.0988 150.597 23.627C151.388 23.1551 152.3 22.9192 153.333 22.9192C153.614 22.9192 153.913 22.9447 154.232 22.9957C154.564 23.0467 154.812 23.1041 154.978 23.1678ZM169.172 19.8584L160.851 44H155.82L166.303 16.1473H169.517L169.172 19.8584ZM176.136 44L167.795 19.8584L167.432 16.1473H170.664L181.186 44H176.136ZM175.734 33.67V37.4768H160.583V33.67H175.734ZM188.474 27.2425V44H183.864V23.3017H188.264L188.474 27.2425ZM194.806 23.1678L194.768 27.4529C194.487 27.4019 194.181 27.3636 193.85 27.3381C193.531 27.3126 193.212 27.2998 192.893 27.2998C192.102 27.2998 191.407 27.4146 190.808 27.6442C190.209 27.861 189.705 28.1798 189.297 28.6007C188.901 29.0088 188.595 29.5061 188.378 30.0928C188.162 30.6794 188.034 31.3362 187.996 32.0631L186.944 32.1396C186.944 30.8388 187.071 29.6337 187.326 28.5241C187.581 27.4146 187.964 26.439 188.474 25.5973C188.997 24.7556 189.647 24.0988 190.425 23.627C191.216 23.1551 192.128 22.9192 193.161 22.9192C193.441 22.9192 193.741 22.9447 194.06 22.9957C194.392 23.0467 194.64 23.1041 194.806 23.1678ZM206.437 44.3826C204.906 44.3826 203.523 44.1339 202.286 43.6365C201.061 43.1264 200.016 42.4186 199.148 41.5131C198.294 40.6077 197.637 39.5428 197.178 38.3185C196.719 37.0942 196.489 35.7743 196.489 34.3587V33.5935C196.489 31.9738 196.725 30.5072 197.197 29.1937C197.669 27.8801 198.326 26.7578 199.168 25.8269C200.009 24.8831 201.004 24.1626 202.152 23.6652C203.3 23.1678 204.543 22.9192 205.882 22.9192C207.361 22.9192 208.656 23.1678 209.765 23.6652C210.875 24.1626 211.793 24.864 212.52 25.7695C213.26 26.6622 213.808 27.7271 214.165 28.9641C214.535 30.2012 214.72 31.5657 214.72 33.0579V35.0282H198.728V31.7188H210.167V31.3553C210.142 30.5264 209.976 29.7484 209.67 29.0215C209.376 28.2946 208.924 27.7079 208.312 27.2616C207.699 26.8152 206.883 26.592 205.863 26.592C205.098 26.592 204.415 26.7578 203.816 27.0894C203.229 27.4082 202.738 27.8737 202.343 28.4859C201.948 29.098 201.642 29.8377 201.425 30.7049C201.221 31.5594 201.119 32.5222 201.119 33.5935V34.3587C201.119 35.2641 201.24 36.1058 201.482 36.8838C201.737 37.649 202.107 38.3185 202.592 38.8924C203.076 39.4663 203.663 39.919 204.352 40.2506C205.04 40.5694 205.825 40.7288 206.705 40.7288C207.814 40.7288 208.803 40.5057 209.67 40.0593C210.537 39.6129 211.289 38.9817 211.927 38.1655L214.357 40.5184C213.91 41.1688 213.33 41.7937 212.616 42.3931C211.902 42.9798 211.028 43.458 209.995 43.8278C208.975 44.1977 207.789 44.3826 206.437 44.3826ZM229.985 39.8489V29.978C229.985 29.2383 229.852 28.6007 229.584 28.065C229.316 27.5294 228.908 27.1149 228.359 26.8216C227.824 26.5283 227.148 26.3816 226.332 26.3816C225.579 26.3816 224.929 26.5091 224.38 26.7642C223.832 27.0193 223.405 27.3636 223.099 27.7972C222.793 28.2308 222.64 28.7218 222.64 29.2702H218.049C218.049 28.454 218.246 27.6633 218.642 26.8981C219.037 26.1329 219.611 25.4506 220.363 24.8512C221.116 24.2519 222.015 23.78 223.061 23.4357C224.106 23.0913 225.28 22.9192 226.58 22.9192C228.136 22.9192 229.514 23.1806 230.712 23.7035C231.924 24.2263 232.874 25.017 233.563 26.0755C234.264 27.1213 234.615 28.4349 234.615 30.0162V39.2176C234.615 40.1613 234.679 41.0094 234.806 41.7618C234.946 42.5015 235.144 43.1455 235.399 43.6939V44H230.674C230.457 43.5026 230.285 42.8714 230.158 42.1062C230.043 41.3282 229.985 40.5758 229.985 39.8489ZM230.655 31.4127L230.693 34.263H227.384C226.529 34.263 225.777 34.3459 225.127 34.5117C224.476 34.6647 223.934 34.8943 223.5 35.2004C223.067 35.5064 222.742 35.8763 222.525 36.3099C222.308 36.7435 222.2 37.2345 222.2 37.7829C222.2 38.3313 222.327 38.835 222.582 39.2941C222.837 39.7405 223.207 40.0912 223.692 40.3462C224.189 40.6013 224.789 40.7288 225.49 40.7288C226.434 40.7288 227.256 40.5375 227.958 40.1549C228.672 39.7596 229.233 39.2814 229.641 38.7202C230.049 38.1463 230.266 37.6043 230.292 37.0942L231.784 39.1411C231.631 39.664 231.369 40.2251 230.999 40.8245C230.629 41.4239 230.145 41.9978 229.545 42.5461C228.959 43.0818 228.251 43.5218 227.422 43.8661C226.606 44.2104 225.662 44.3826 224.591 44.3826C223.239 44.3826 222.034 44.1148 220.975 43.5791C219.917 43.0308 219.088 42.2975 218.489 41.3792C217.889 40.4483 217.589 39.3961 217.589 38.2229C217.589 37.1261 217.793 36.1569 218.202 35.3152C218.622 34.4607 219.235 33.7465 220.038 33.1726C220.854 32.5987 221.849 32.1651 223.022 31.8718C224.196 31.5657 225.535 31.4127 227.039 31.4127H230.655Z" fill="#FDFDFD"/>
<path fill-rule="evenodd" clip-rule="evenodd" d="M37.8615 20.1504C37.8872 20.1675 37.8929 20.2002 37.8744 20.2244L34.1399 25.0498C34.1214 25.0741 34.0858 25.0783 34.0616 25.0612C34.036 25.0441 34.0303 25.0114 34.0488 24.9872L37.7832 20.1618C37.8017 20.1375 37.8373 20.1333 37.8615 20.1504Z" fill="#FDFDFD" stroke="#FDFDFD" stroke-width="0.569707" stroke-miterlimit="10" stroke-linecap="square"/>
<path fill-rule="evenodd" clip-rule="evenodd" d="M36.5868 18.6848C36.6125 18.7019 36.6182 18.7346 36.5996 18.7588L32.8652 23.5843C32.8467 23.6085 32.8111 23.6128 32.7869 23.5957C32.7612 23.5786 32.7555 23.5458 32.7741 23.5216L36.5085 18.6962C36.527 18.672 36.5626 18.6677 36.5868 18.6848Z" fill="#FDFDFD" stroke="#FDFDFD" stroke-width="0.569707" stroke-miterlimit="10" stroke-linecap="square"/>
<path fill-rule="evenodd" clip-rule="evenodd" d="M31.8754 3.80266C30.4725 2.9481 29.0026 2.28866 27.4972 1.82577C20.4741 -0.337688 12.6677 1.75029 7.16005 8.08543C4.99801 10.5722 3.40568 13.4663 2.38163 16.5541L7.63433 22.5959L15.8922 32.0943C18.483 35.0739 22.3285 35.7347 25.4747 34.0755L14.1689 21.0719L9.81346 16.0613C10.349 15.1199 10.9771 14.2269 11.6963 13.3994C12.4156 12.5719 13.1918 11.8512 14.0094 11.2345C18.5642 7.80342 24.435 7.63678 29.1194 10.7317C30.2018 11.4467 31.2202 12.3369 32.1445 13.3994L43.0587 25.9529C43.2125 20.2857 41.6458 14.5673 38.3572 9.92558C37.9071 9.29036 37.4243 8.67508 36.9101 8.084C36.396 7.49293 35.8605 6.93747 35.3093 6.42046C32.6416 4.13309 32.099 4.0576 31.8768 3.80123L31.8754 3.80266ZM1.00579 24.624C0.891847 30.2299 2.45997 35.8729 5.71299 40.4619C6.16306 41.0971 6.68434 41.7124 7.1985 42.3035C8.96317 44.3345 10.0883 45.5992 11.5397 47.3411L14.5876 50.8476L22.0351 59.4132L36.9101 42.3035C39.0394 39.8537 40.6161 37.0095 41.6416 33.9758L36.208 27.7261L27.9487 18.2276C25.3579 15.2481 21.5124 14.5872 18.3662 16.2465L29.672 29.25L34.0274 34.2592C33.4919 35.2006 32.8638 36.0936 32.1445 36.9211C31.4253 37.7486 30.6491 38.4693 29.8315 39.086C24.2242 43.309 16.6229 42.5869 11.6963 36.9211L1.00579 24.624Z" fill="#FDFDFD" stroke="#FDFDFD" stroke-width="0.770529" stroke-miterlimit="10"/>
<path fill-rule="evenodd" clip-rule="evenodd" d="M32.4949 24.5001L37.3075 18.2646L38.4455 18.8728L33.2826 25.5412L32.4949 24.5001Z" fill="#FDFDFD"/>
</svg>
