<svg width="229" height="58" viewBox="0 0 229 58" fill="none" xmlns="http://www.w3.org/2000/svg">
<g clip-path="url(#clip0_455_12)">
<path d="M67.69 35.3288C67.69 34.7782 67.6043 34.2889 67.433 33.8606C67.2739 33.4325 66.9864 33.041 66.5704 32.6861C66.1545 32.3313 65.5673 31.9888 64.8087 31.6585C64.0625 31.3159 63.1081 30.9672 61.9459 30.6124C60.6735 30.2209 59.499 29.7865 58.4223 29.3094C57.3579 28.8201 56.4281 28.2572 55.6329 27.621C54.8376 26.9726 54.2198 26.2324 53.7793 25.4005C53.3389 24.5563 53.1186 23.5836 53.1186 22.4826C53.1186 21.3937 53.345 20.4027 53.7977 19.5096C54.2626 18.6165 54.9171 17.8456 55.7613 17.1972C56.6177 16.5366 57.627 16.0289 58.7894 15.6741C59.9516 15.3071 61.2363 15.1235 62.6432 15.1235C64.6252 15.1235 66.332 15.4906 67.7634 16.2247C69.207 16.9586 70.3143 17.9436 71.085 19.1792C71.868 20.4149 72.2595 21.7791 72.2595 23.2717H67.69C67.69 22.3908 67.5003 21.6139 67.121 20.941C66.754 20.2559 66.1912 19.7176 65.4327 19.3261C64.6864 18.9346 63.7382 18.7388 62.5881 18.7388C61.4993 18.7388 60.594 18.904 59.8721 19.2343C59.1503 19.5646 58.612 20.0112 58.2571 20.574C57.9024 21.1367 57.725 21.773 57.725 22.4826C57.725 22.9841 57.8412 23.443 58.0736 23.859C58.3061 24.2626 58.6609 24.642 59.138 24.9967C59.6152 25.3393 60.2147 25.6636 60.9366 25.9694C61.6584 26.2752 62.5086 26.5689 63.4874 26.8503C64.9678 27.2907 66.2585 27.78 67.3596 28.3184C68.4607 28.8445 69.3783 29.444 70.1124 30.1169C70.8464 30.7898 71.397 31.5545 71.764 32.4109C72.131 33.255 72.3146 34.2155 72.3146 35.292C72.3146 36.4176 72.0883 37.4331 71.6355 38.3384C71.1829 39.2315 70.5344 39.9962 69.6903 40.6325C68.8584 41.2564 67.8551 41.7396 66.6806 42.0822C65.5183 42.4125 64.2215 42.5777 62.79 42.5777C61.5054 42.5777 60.2391 42.4064 58.9912 42.0639C57.7555 41.7213 56.63 41.2013 55.6145 40.5039C54.5991 39.7944 53.7916 38.9134 53.192 37.8613C52.5925 36.7969 52.2928 35.5551 52.2928 34.1359H56.8991C56.8991 35.0045 57.046 35.7447 57.3395 36.3565C57.6455 36.9682 58.0676 37.4698 58.6059 37.8613C59.1441 38.2405 59.7681 38.5219 60.4777 38.7054C61.1995 38.889 61.9703 38.9808 62.79 38.9808C63.8667 38.9808 64.7659 38.8279 65.4877 38.5219C66.2218 38.2161 66.7724 37.7879 67.1394 37.2374C67.5065 36.6868 67.69 36.0506 67.69 35.3288ZM87.8952 37.5309V22.354H92.3363V42.2107H88.1521L87.8952 37.5309ZM88.5192 33.4018L90.0057 33.3651C90.0057 34.6987 89.8588 35.9283 89.5652 37.0539C89.2716 38.1672 88.8189 39.1398 88.2072 39.9718C87.5954 40.7914 86.8124 41.4338 85.8582 41.8987C84.9038 42.3514 83.7599 42.5777 82.4263 42.5777C81.4598 42.5777 80.5728 42.437 79.7653 42.1556C78.9579 41.8742 78.2605 41.4399 77.6733 40.8526C77.0983 40.2654 76.6517 39.5007 76.3336 38.5587C76.0155 37.6166 75.8564 36.491 75.8564 35.182V22.354H80.2793V35.2186C80.2793 35.9404 80.3648 36.5461 80.5362 37.0354C80.7074 37.5126 80.9399 37.898 81.2335 38.1916C81.5272 38.4853 81.8697 38.6933 82.2612 38.8156C82.6528 38.938 83.0687 38.9991 83.5091 38.9991C84.7693 38.9991 85.7603 38.7545 86.4821 38.265C87.2162 37.7635 87.7362 37.0905 88.042 36.2464C88.3601 35.4022 88.5192 34.454 88.5192 33.4018ZM101.311 26.1712V49.845H96.8872V22.354H100.961L101.311 26.1712ZM114.248 32.0989V32.4842C114.248 33.928 114.077 35.2676 113.734 36.5033C113.404 37.7267 112.909 38.7973 112.248 39.7149C111.6 40.6202 110.799 41.3237 109.844 41.8253C108.889 42.3269 107.788 42.5777 106.541 42.5777C105.305 42.5777 104.222 42.3514 103.293 41.8987C102.375 41.4338 101.598 40.7792 100.961 39.935C100.325 39.0909 99.8112 38.0999 99.4198 36.962C99.0409 35.812 98.7713 34.5519 98.613 33.1816V31.6951C98.7713 30.2392 99.0409 28.9179 99.4198 27.7311C99.8112 26.5444 100.325 25.5228 100.961 24.6664C101.598 23.81 102.375 23.1493 103.293 22.6844C104.21 22.2195 105.28 21.9871 106.504 21.9871C107.752 21.9871 108.859 22.2317 109.826 22.7211C110.792 23.1983 111.605 23.8834 112.266 24.7766C112.927 25.6574 113.422 26.7218 113.753 27.9697C114.083 29.2054 114.248 30.5818 114.248 32.0989ZM109.826 32.4842V32.0989C109.826 31.1813 109.739 30.331 109.569 29.548C109.397 28.7527 109.128 28.0554 108.761 27.4559C108.394 26.8564 107.923 26.3915 107.348 26.0611C106.786 25.7185 106.106 25.5473 105.311 25.5473C104.528 25.5473 103.855 25.6819 103.293 25.9511C102.73 26.208 102.258 26.5689 101.88 27.0338C101.5 27.4987 101.206 28.0431 100.998 28.6671C100.791 29.2788 100.644 29.9456 100.558 30.6675V34.2276C100.704 35.1085 100.956 35.916 101.311 36.6501C101.665 37.3842 102.166 37.9715 102.815 38.4119C103.476 38.84 104.32 39.0542 105.348 39.0542C106.143 39.0542 106.822 38.8829 107.385 38.5403C107.947 38.1978 108.406 37.7267 108.761 37.1272C109.128 36.5155 109.397 35.812 109.569 35.0168C109.739 34.2215 109.826 33.3774 109.826 32.4842ZM126.764 42.5777C125.296 42.5777 123.968 42.3391 122.782 41.8619C121.607 41.3726 120.604 40.6936 119.772 39.8249C118.953 38.9563 118.323 37.9347 117.882 36.7602C117.442 35.5857 117.221 34.3195 117.221 32.9614V32.2273C117.221 30.6735 117.448 29.2665 117.9 28.0065C118.353 26.7463 118.983 25.6696 119.79 24.7766C120.598 23.8711 121.553 23.1799 122.653 22.7028C123.754 22.2256 124.948 21.9871 126.232 21.9871C127.651 21.9871 128.893 22.2256 129.957 22.7028C131.021 23.1799 131.903 23.8528 132.6 24.7215C133.309 25.5779 133.836 26.5995 134.178 27.7862C134.533 28.973 134.711 30.282 134.711 31.7135V33.6037H119.368V30.4289H130.343V30.0802C130.318 29.285 130.159 28.5386 129.865 27.8413C129.584 27.1439 129.15 26.5811 128.563 26.1529C127.975 25.7247 127.193 25.5105 126.214 25.5105C125.479 25.5105 124.825 25.6696 124.25 25.9877C123.687 26.2936 123.216 26.7401 122.837 27.3274C122.457 27.9146 122.164 28.6243 121.956 29.4562C121.76 30.276 121.662 31.1996 121.662 32.2273V32.9614C121.662 33.83 121.779 34.6375 122.011 35.3838C122.256 36.1179 122.611 36.7602 123.075 37.3108C123.54 37.8613 124.104 38.2956 124.764 38.6137C125.425 38.9196 126.177 39.0725 127.021 39.0725C128.086 39.0725 129.034 38.8585 129.865 38.4302C130.698 38.002 131.419 37.3964 132.031 36.6134L134.362 38.8706C133.934 39.4946 133.376 40.0941 132.691 40.6691C132.007 41.2319 131.169 41.6907 130.178 42.0455C129.199 42.4003 128.061 42.5777 126.764 42.5777ZM142.601 26.1346V42.2107H138.179V22.354H142.4L142.601 26.1346ZM148.676 22.2256L148.64 26.3364C148.37 26.2875 148.076 26.2508 147.759 26.2263C147.453 26.2018 147.147 26.1896 146.841 26.1896C146.083 26.1896 145.415 26.2997 144.841 26.52C144.266 26.7279 143.782 27.0338 143.391 27.4376C143.011 27.8291 142.718 28.3061 142.51 28.869C142.302 29.4317 142.179 30.0618 142.143 30.7592L141.134 30.8326C141.134 29.5847 141.255 28.4286 141.5 27.3641C141.746 26.2997 142.112 25.3638 142.601 24.5563C143.103 23.7488 143.728 23.1187 144.473 22.6661C145.232 22.2134 146.107 21.9871 147.098 21.9871C147.367 21.9871 147.654 22.0116 147.96 22.0605C148.279 22.1094 148.517 22.1645 148.676 22.2256ZM162.293 19.0508L154.31 42.2107H149.484L159.54 15.4906H162.624L162.293 19.0508ZM168.974 42.2107L160.972 19.0508L160.624 15.4906H163.724L173.818 42.2107H168.974ZM168.588 32.3007V35.9527H154.053V32.3007H168.588ZM180.81 26.1346V42.2107H176.387V22.354H180.608L180.81 26.1346ZM186.884 22.2256L186.848 26.3364C186.578 26.2875 186.285 26.2508 185.967 26.2263C185.661 26.2018 185.355 26.1896 185.049 26.1896C184.29 26.1896 183.624 26.2997 183.049 26.52C182.474 26.7279 181.991 27.0338 181.599 27.4376C181.219 27.8291 180.926 28.3061 180.718 28.869C180.511 29.4317 180.388 30.0618 180.351 30.7592L179.342 30.8326C179.342 29.5847 179.464 28.4286 179.709 27.3641C179.953 26.2997 180.321 25.3638 180.81 24.5563C181.312 23.7488 181.935 23.1187 182.682 22.6661C183.44 22.2134 184.315 21.9871 185.306 21.9871C185.575 21.9871 185.863 22.0116 186.169 22.0605C186.487 22.1094 186.725 22.1645 186.884 22.2256ZM198.042 42.5777C196.574 42.5777 195.247 42.3391 194.06 41.8619C192.885 41.3726 191.883 40.6936 191.05 39.8249C190.231 38.9563 189.6 37.9347 189.16 36.7602C188.72 35.5857 188.499 34.3195 188.499 32.9614V32.2273C188.499 30.6735 188.725 29.2665 189.178 28.0065C189.631 26.7463 190.261 25.6696 191.069 24.7766C191.876 23.8711 192.83 23.1799 193.932 22.7028C195.033 22.2256 196.225 21.9871 197.51 21.9871C198.929 21.9871 200.171 22.2256 201.235 22.7028C202.3 23.1799 203.181 23.8528 203.878 24.7215C204.588 25.5779 205.114 26.5995 205.456 27.7862C205.811 28.973 205.989 30.282 205.989 31.7135V33.6037H190.647V30.4289H201.621V30.0802C201.597 29.285 201.438 28.5386 201.144 27.8413C200.862 27.1439 200.428 26.5811 199.841 26.1529C199.253 25.7247 198.47 25.5105 197.492 25.5105C196.758 25.5105 196.103 25.6696 195.528 25.9877C194.965 26.2936 194.494 26.7401 194.115 27.3274C193.736 27.9146 193.442 28.6243 193.234 29.4562C193.039 30.276 192.941 31.1996 192.941 32.2273V32.9614C192.941 33.83 193.057 34.6375 193.289 35.3838C193.534 36.1179 193.888 36.7602 194.354 37.3108C194.818 37.8613 195.381 38.2956 196.042 38.6137C196.702 38.9196 197.455 39.0725 198.3 39.0725C199.363 39.0725 200.312 38.8585 201.144 38.4302C201.976 38.002 202.697 37.3964 203.309 36.6134L205.64 38.8706C205.212 39.4946 204.655 40.0941 203.97 40.6691C203.285 41.2319 202.447 41.6907 201.456 42.0455C200.477 42.4003 199.339 42.5777 198.042 42.5777ZM220.633 38.2284V28.7589C220.633 28.0492 220.505 27.4376 220.248 26.9237C219.991 26.4098 219.6 26.0122 219.073 25.7308C218.56 25.4494 217.911 25.3087 217.128 25.3087C216.406 25.3087 215.782 25.431 215.256 25.6757C214.73 25.9205 214.32 26.2508 214.027 26.6667C213.733 27.0827 213.587 27.5537 213.587 28.0798H209.182C209.182 27.2968 209.371 26.5383 209.751 25.8042C210.13 25.0701 210.681 24.4156 211.402 23.8405C212.124 23.2656 212.987 22.8129 213.99 22.4826C214.993 22.1522 216.119 21.9871 217.366 21.9871C218.859 21.9871 220.181 22.2379 221.33 22.7395C222.493 23.241 223.404 23.9996 224.065 25.0151C224.738 26.0183 225.075 27.2785 225.075 28.7955V37.6227C225.075 38.5281 225.136 39.3417 225.258 40.0635C225.392 40.7731 225.582 41.3909 225.827 41.917V42.2107H221.294C221.086 41.7335 220.921 41.128 220.799 40.3939C220.688 39.6475 220.633 38.9257 220.633 38.2284ZM221.276 30.1352L221.312 32.8696H218.138C217.317 32.8696 216.596 32.9491 215.972 33.1082C215.348 33.255 214.828 33.4752 214.412 33.7689C213.996 34.0625 213.684 34.4173 213.476 34.8333C213.268 35.2492 213.164 35.7203 213.164 36.2464C213.164 36.7725 213.286 37.2557 213.531 37.6961C213.776 38.1244 214.13 38.4608 214.596 38.7054C215.073 38.9502 215.648 39.0725 216.321 39.0725C217.226 39.0725 218.015 38.889 218.688 38.5219C219.373 38.1427 219.911 37.6839 220.303 37.1456C220.694 36.595 220.902 36.075 220.927 35.5857L222.359 37.5493C222.212 38.051 221.961 38.5893 221.606 39.1643C221.251 39.7393 220.786 40.2899 220.211 40.8159C219.649 41.3298 218.969 41.7519 218.174 42.0822C217.391 42.4125 216.486 42.5777 215.458 42.5777C214.161 42.5777 213.005 42.3208 211.989 41.8069C210.974 41.2809 210.179 40.5774 209.604 39.6964C209.029 38.8034 208.741 37.794 208.741 36.6685C208.741 35.6163 208.937 34.6865 209.329 33.879C209.732 33.0593 210.32 32.3741 211.09 31.8236C211.873 31.273 212.828 30.857 213.953 30.5756C215.079 30.282 216.364 30.1352 217.807 30.1352H221.276Z" fill="#931602"/>
<path fill-rule="evenodd" clip-rule="evenodd" d="M36.3219 19.3312C36.3465 19.3476 36.352 19.379 36.3343 19.4022L32.7516 24.0314C32.7339 24.0547 32.6997 24.0588 32.6765 24.0423C32.6519 24.0259 32.6465 23.9946 32.6642 23.9714L36.2468 19.3422C36.2645 19.3189 36.2987 19.3148 36.3219 19.3312Z" fill="#0F0F0F" stroke="#0F0F0F" stroke-width="0.54654" stroke-miterlimit="10" stroke-linecap="square"/>
<path fill-rule="evenodd" clip-rule="evenodd" d="M35.0991 17.925C35.1237 17.9414 35.1292 17.9727 35.1113 17.996L31.5288 22.6252C31.511 22.6484 31.4769 22.6526 31.4537 22.6362C31.429 22.6198 31.4236 22.5883 31.4414 22.5651L35.0239 17.9359C35.0417 17.9127 35.0758 17.9086 35.0991 17.925Z" fill="#0F0F0F" stroke="#0F0F0F" stroke-width="0.54654" stroke-miterlimit="10" stroke-linecap="square"/>
<path fill-rule="evenodd" clip-rule="evenodd" d="M30.5792 3.64817C29.2334 2.82836 27.8232 2.19573 26.3791 1.75166C19.6415 -0.323818 12.1526 1.67925 6.86891 7.75678C4.79478 10.1424 3.2672 12.9188 2.2848 15.8811L7.3239 21.6772L15.246 30.7893C17.7314 33.6478 21.4205 34.2817 24.4388 32.69L13.5927 20.2152L9.41442 15.4083C9.92818 14.5052 10.5307 13.6485 11.2207 12.8547C11.9107 12.0608 12.6554 11.3694 13.4397 10.7778C17.8093 7.48624 23.4414 7.32637 27.9353 10.2954C28.9737 10.9814 29.9507 11.8354 30.8374 12.8547L41.3078 24.8977C41.4553 19.4609 39.9523 13.9751 36.7974 9.5221C36.3657 8.91271 35.9025 8.32245 35.4092 7.75541C34.916 7.18837 34.4023 6.6555 33.8735 6.15951C31.3143 3.96516 30.7937 3.89274 30.5806 3.64679L30.5792 3.64817ZM0.964904 23.6228C0.855594 29.0008 2.35995 34.4143 5.48069 38.8167C5.91246 39.426 6.41254 40.0163 6.90579 40.5834C8.5987 42.5318 9.67808 43.7451 11.0705 45.4161L13.9944 48.78L21.1391 56.9973L35.4092 40.5834C37.4519 38.2332 38.9645 35.5047 39.9483 32.5943L34.7356 26.5988L26.8122 17.4865C24.3268 14.6282 20.6376 13.9942 17.6194 15.586L28.4654 28.0607L32.6437 32.8662C32.13 33.7693 31.5274 34.626 30.8374 35.4199C30.1474 36.2137 29.4028 36.9051 28.6184 37.4967C23.2392 41.548 15.947 40.8553 11.2207 35.4199L0.964904 23.6228Z" fill="#931602" stroke="#0F0F0F" stroke-width="0.739196" stroke-miterlimit="10"/>
<path fill-rule="evenodd" clip-rule="evenodd" d="M31.1735 23.5039L35.7904 17.522L36.8821 18.1054L31.9291 24.5027L31.1735 23.5039Z" fill="#931602"/>
</g>
<defs>
<clipPath id="clip0_455_12">
<rect width="228.322" height="57.5601" fill="white"/>
</clipPath>
</defs>
</svg>
