<svg width="20" height="26" viewBox="0 0 20 26" fill="none" xmlns="http://www.w3.org/2000/svg">
<path d="M0.530559 11.599V4.97367L9.90377 0.580571L19.277 4.97367V11.599C19.277 17.7861 15.2456 23.5236 9.90376 24.9755C4.56193 23.5236 0.530559 17.7861 0.530559 11.599Z" fill="#F0D7D3" stroke="#931602" stroke-width="1.06112"/>
<path fill-rule="evenodd" clip-rule="evenodd" d="M14.5146 10.4625C14.5219 10.4674 14.5236 10.4768 14.5183 10.4837L13.4531 11.8601C13.4478 11.867 13.4376 11.8682 13.4307 11.8634C13.4234 11.8585 13.4218 11.8491 13.4271 11.8422L14.4923 10.4658C14.4976 10.4589 14.5077 10.4577 14.5146 10.4625Z" fill="#0F0F0F" stroke="#0F0F0F" stroke-width="0.162506" stroke-miterlimit="10" stroke-linecap="square"/>
<path fill-rule="evenodd" clip-rule="evenodd" d="M14.151 10.0445C14.1583 10.0493 14.1599 10.0587 14.1546 10.0656L13.0894 11.442C13.0841 11.4489 13.074 11.4501 13.0671 11.4453C13.0597 11.4404 13.0581 11.431 13.0634 11.4241L14.1286 10.0477C14.1339 10.0408 14.1441 10.0396 14.151 10.0445Z" fill="#0F0F0F" stroke="#0F0F0F" stroke-width="0.162506" stroke-miterlimit="10" stroke-linecap="square"/>
<path fill-rule="evenodd" clip-rule="evenodd" d="M12.8071 5.79945C12.4069 5.55569 11.9876 5.36758 11.5582 5.23555C9.5549 4.61843 7.32816 5.21402 5.75713 7.02109C5.14041 7.73043 4.68621 8.55596 4.3941 9.43674L5.89241 11.1601L8.24794 13.8695C8.98694 14.7194 10.0839 14.9079 10.9813 14.4346L7.75636 10.7254L6.514 9.29618C6.66676 9.02763 6.84592 8.77291 7.05108 8.53687C7.25625 8.30082 7.47766 8.09525 7.71086 7.91934C9.0101 6.94065 10.6847 6.89311 12.0209 7.77593C12.3297 7.97987 12.6202 8.23379 12.8838 8.53687L15.9971 12.1177C16.0409 10.5012 15.594 8.87 14.656 7.54598C14.5276 7.36479 14.3899 7.18928 14.2432 7.02068C14.0965 6.85208 13.9438 6.69364 13.7866 6.54616C13.0256 5.8937 12.8708 5.87217 12.8075 5.79904L12.8071 5.79945ZM4.00165 11.7386C3.96915 13.3377 4.41645 14.9473 5.34436 16.2563C5.47274 16.4375 5.62143 16.613 5.7681 16.7816C6.27146 17.361 6.59241 17.7217 7.00639 18.2186L7.8758 19.2188L10.0002 21.6621L14.2432 16.7816C14.8506 16.0828 15.3003 15.2715 15.5928 14.4062L14.0429 12.6235L11.687 9.91411C10.948 9.0642 9.85107 8.87569 8.95363 9.34899L12.1786 13.0582L13.4209 14.487C13.2682 14.7556 13.089 15.0103 12.8838 15.2463C12.6787 15.4824 12.4573 15.688 12.2241 15.8639C10.6246 17.0684 8.45636 16.8625 7.05108 15.2463L4.00165 11.7386Z" fill="#931602" stroke="#0F0F0F" stroke-width="0.21979" stroke-miterlimit="10"/>
<path fill-rule="evenodd" clip-rule="evenodd" d="M12.9838 11.7033L14.3565 9.92468L14.6811 10.0982L13.2084 12.0003L12.9838 11.7033Z" fill="#931602"/>
</svg>
