<svg width="441" height="414" viewBox="0 0 441 414" fill="none" xmlns="http://www.w3.org/2000/svg">
<path d="M220.5 63.1645C220.064 63.1645 219.71 62.8451 219.71 62.4517V0.71274C219.71 0.319344 220.064 0 220.5 0C220.936 0 221.289 0.319344 221.289 0.71274V62.4517C221.289 62.8451 220.936 63.1645 220.5 63.1645Z" fill="#2D3962"/>
<path d="M260.716 87.8694C260.716 67.8201 242.711 51.5669 220.5 51.5669C198.289 51.5669 180.284 67.8201 180.284 87.8694H260.716Z" fill="#F4B04E"/>
<mask id="mask0_76_709" style="mask-type:luminance" maskUnits="userSpaceOnUse" x="180" y="51" width="81" height="37">
<path d="M260.716 87.8694C260.716 67.8201 242.711 51.5669 220.5 51.5669C198.289 51.5669 180.284 67.8201 180.284 87.8694H260.716Z" fill="white"/>
</mask>
<g mask="url(#mask0_76_709)">
<g opacity="0.47">
<path d="M249.578 54.0996C243.094 58.6926 234.015 60.1162 226.195 57.766C224.186 57.1625 222.222 56.3211 220.109 56.1961C215.133 55.9018 210.903 59.5719 205.97 60.2273C200.298 60.9817 195.037 57.6938 190.462 54.5753C190.462 54.5753 206.045 41.1684 221.784 43.9407C237.522 46.713 249.578 54.0996 249.578 54.0996Z" fill="white"/>
</g>
</g>
<mask id="mask1_76_709" style="mask-type:luminance" maskUnits="userSpaceOnUse" x="180" y="51" width="81" height="37">
<path d="M260.716 87.8694C260.716 67.8201 242.711 51.5669 220.5 51.5669C198.289 51.5669 180.284 67.8201 180.284 87.8694H260.716Z" fill="white"/>
</mask>
<g mask="url(#mask1_76_709)">
<g opacity="0.52">
<path d="M174.473 75.4423C183.448 71.8129 194.005 71.4972 203.228 74.5824C208.299 76.2791 213.176 78.9921 218.586 78.9792C223.422 78.9671 227.896 76.7586 232.645 75.9366C236.795 75.2183 241.17 75.5886 245.099 76.9909C246.792 77.5953 248.421 78.3905 250.21 78.6987C253.041 79.1874 255.932 78.4062 258.811 78.2923C263.418 78.11 268.079 79.7317 271.357 82.6604L270.105 98.1148L173.688 92.9415L174.473 75.4423Z" fill="#D89741"/>
</g>
</g>
<g opacity="0.15">
<path d="M179.922 88.113L57.8014 413.702H389.311L260.354 88.113H179.922Z" fill="#F4CE2C"/>
</g>
<path d="M146.892 327.544C150.188 327.555 153.001 325.382 153.482 322.437C155.142 312.263 154.545 275.918 145.163 271.141C127.617 262.207 115.019 268.705 104.222 261.801C93.4238 254.896 97.3164 222.636 79.0268 218.752C48.4332 212.254 20.358 221.067 20.358 221.067L18.4948 262.627L41.6848 327.187L146.892 327.544Z" fill="#56B2A1"/>
<path d="M94.9117 242.229C94.9117 242.229 90.4388 285.426 102.018 288.844C114.335 292.479 150.702 286.016 153.68 302.529C153.68 302.529 157.064 280.632 149.869 273.876C136.11 260.958 112.11 267.316 106.579 262.708C101.049 258.099 94.9117 242.229 94.9117 242.229Z" fill="#2D3962"/>
<path d="M148.821 412.233L89.3754 382.843V334.012H129.787C134.552 334.012 138.416 330.525 138.416 326.223H42.135C42.135 330.525 45.9977 334.012 50.7639 334.012H84.4257V383.2L25.7035 412.233L35.804 412.04L84.4257 398.266V412.141H89.3744V398.062L138.719 412.04L148.821 412.233Z" fill="#2D3962"/>
<path d="M210.774 388.584L201.669 375.766L189.052 383.417L199.862 397.644L210.774 388.584Z" fill="#FFCEAB"/>
<path d="M207.172 382.709L194.364 390.467L198.61 396.155L210.48 387.919L207.172 382.709Z" fill="white"/>
<path d="M238.036 383.767C229.504 386.552 215.932 391.232 215.932 391.232L211.576 386.639L197.141 395.644C197.141 395.644 204.926 408.686 205.771 409.857C206.616 411.028 208.468 414.023 210.732 412.785C216.503 409.626 249.307 389.561 254.376 384.995C255.655 383.844 253.353 381.059 249.331 380.805C245.615 380.571 240.399 382.995 238.036 383.767Z" fill="#459687"/>
<path d="M217.205 399.709C216.455 399.709 215.81 399.325 215.367 398.606C214.67 397.472 214.408 391.799 214.526 390.531C214.545 390.319 214.701 390.134 214.925 390.062C215.146 389.991 215.397 390.041 215.564 390.194C216.8 391.328 219.518 395.367 219.359 397.768C219.287 398.859 218.63 399.541 217.51 399.69C217.406 399.703 217.305 399.709 217.205 399.709ZM215.717 392.164C215.777 394.296 216.077 397.502 216.428 398.073C216.799 398.675 217.174 398.625 217.333 398.604C217.727 398.551 218.1 398.406 218.147 397.701C218.243 396.241 216.871 393.745 215.717 392.164Z" fill="#2D3962"/>
<path d="M221.587 396.992C221.268 396.992 220.901 396.924 220.485 396.747C219.184 396.194 215.301 391.727 214.578 390.637C214.456 390.454 214.464 390.222 214.598 390.046C214.732 389.87 214.967 389.785 215.202 389.814C216.94 390.083 221.757 391.928 223.182 393.961C223.83 394.884 223.738 395.784 222.925 396.494C222.677 396.713 222.232 396.992 221.587 396.992ZM216.601 391.335C218.029 393.034 220.347 395.478 221 395.756C221.693 396.049 221.964 395.812 222.078 395.709C222.364 395.458 222.572 395.144 222.155 394.548C221.289 393.312 218.56 392.009 216.601 391.335Z" fill="#2D3962"/>
<path d="M207.501 412.13C207.308 412.13 207.118 412.048 207 411.894C206.81 411.645 206.879 411.303 207.155 411.132L253.303 382.393C253.58 382.219 253.957 382.284 254.146 382.532C254.337 382.781 254.267 383.123 253.992 383.294L207.845 412.033C207.74 412.099 207.62 412.13 207.501 412.13Z" fill="#2D3962"/>
<path d="M229.729 390.15C229.398 390.15 229.127 389.911 229.122 389.611C229.075 386.681 229.805 385.481 229.888 385.354C230.059 385.094 230.429 385.007 230.72 385.161C231.006 385.315 231.102 385.647 230.936 385.907C230.92 385.933 230.293 386.993 230.335 389.594C230.34 389.897 230.073 390.146 229.737 390.15C229.734 390.15 229.732 390.15 229.729 390.15Z" fill="#2D3962"/>
<path d="M226.171 391.432C225.84 391.432 225.569 391.193 225.564 390.893C225.517 387.961 226.247 386.762 226.331 386.636C226.501 386.376 226.871 386.287 227.162 386.444C227.448 386.597 227.545 386.929 227.379 387.19C227.36 387.219 226.736 388.279 226.778 390.877C226.783 391.18 226.515 391.429 226.18 391.432C226.177 391.432 226.174 391.432 226.171 391.432Z" fill="#2D3962"/>
<path d="M222.872 392.452C222.541 392.452 222.27 392.213 222.265 391.913C222.217 388.983 222.947 387.783 223.03 387.656C223.201 387.396 223.571 387.309 223.861 387.463C224.147 387.617 224.244 387.949 224.078 388.209C224.064 388.231 223.435 389.29 223.478 391.896C223.483 392.199 223.215 392.448 222.88 392.452C222.878 392.452 222.875 392.452 222.872 392.452Z" fill="#2D3962"/>
<path d="M105.69 269.019C125.793 285.753 147.706 296.422 166.643 317.186C185.581 337.95 193.746 356.653 206.801 377.366C201.16 381.151 190.134 389.323 185.854 388.298C183.132 387.646 151.983 352.839 132.921 334.92C122.729 325.341 93.7569 322.195 77.5367 315.053C64.2163 309.187 56.8927 298.395 62.0363 264.469" fill="#AACBF2"/>
<path d="M211.211 284.408L202.467 282.009L179.355 413.001L185.812 413.221L211.211 284.408Z" fill="#2D3962"/>
<path d="M215.628 282.972H197.242V289.611H215.628V282.972Z" fill="#468E80"/>
<path d="M363.212 284.408L371.956 282.009L395.068 413.001L388.611 413.221L363.212 284.408Z" fill="#2D3962"/>
<path d="M358.794 289.611H377.18V282.972H358.794V289.611Z" fill="#468E80"/>
<path d="M379.731 277.21H194.128V286.068H379.731V277.21Z" fill="#56B2A1"/>
<path d="M210.251 261.521C210.251 261.521 216.688 252.787 214.9 245.792C213.96 242.113 210.695 239.553 207.798 237.064C204.165 233.942 203.084 232.164 202.925 227.498C202.858 225.506 202.686 223.441 201.62 221.696C200.554 219.951 198.352 218.618 196.191 219.027C194.234 219.397 192.842 221.1 192.468 222.873C192.093 224.647 192.55 226.475 193.152 228.196C194.442 231.887 196.45 235.438 199.315 238.338C201.906 240.96 206.312 242.842 208.109 245.999C212.216 253.216 210.251 261.521 210.251 261.521Z" fill="white"/>
<path d="M198.64 244.818C200.25 244.225 202.205 245.167 203.569 246.141C204.932 247.117 205.493 249.17 204.231 250.25C203.273 251.069 201.718 250.988 200.508 250.514C199.108 249.966 197.883 248.875 197.642 247.514C197.401 246.154 197.911 245.086 198.64 244.818Z" fill="white"/>
<path d="M208.973 229.647C210.627 228.865 213.86 229.801 213.559 231.818C213.442 232.596 212.762 233.259 211.936 233.502C211.109 233.746 210.174 233.596 209.436 233.182C208.758 232.801 208.223 232.185 208.08 231.477C207.896 230.559 208.306 229.962 208.973 229.647Z" fill="white"/>
<path d="M223.098 261.875C223.086 261.875 223.073 261.875 223.059 261.875C222.709 261.878 222.367 261.914 222.035 261.976L222.49 258.595L200.019 258.642L202.316 277.085C205.473 278.389 219.939 277.534 219.939 277.534L220.827 270.94C221.529 271.244 222.295 271.421 223.096 271.421C223.11 271.421 223.124 271.421 223.137 271.421C224.55 271.412 225.874 270.907 226.866 269.999C227.856 269.091 228.397 267.888 228.387 266.613C228.366 263.993 225.997 261.875 223.098 261.875ZM225.253 268.563C224.687 269.083 223.929 269.371 223.121 269.377C223.113 269.377 223.106 269.377 223.096 269.377C222.364 269.377 221.678 269.133 221.129 268.703L221.731 264.229C222.138 264.041 222.59 263.923 223.076 263.92C223.084 263.92 223.091 263.92 223.099 263.92C224.755 263.92 226.11 265.131 226.122 266.629C226.129 267.356 225.82 268.044 225.253 268.563Z" fill="#F4B04E"/>
<mask id="mask2_76_709" style="mask-type:luminance" maskUnits="userSpaceOnUse" x="200" y="258" width="29" height="20">
<path d="M223.098 261.875C223.086 261.875 223.073 261.875 223.059 261.875C222.709 261.878 222.367 261.914 222.035 261.976L222.49 258.595L200.019 258.642L202.316 277.085C205.473 278.389 219.939 277.534 219.939 277.534L220.827 270.94C221.529 271.244 222.295 271.421 223.096 271.421C223.11 271.421 223.124 271.421 223.137 271.421C224.55 271.412 225.874 270.907 226.866 269.999C227.856 269.091 228.397 267.888 228.387 266.613C228.366 263.993 225.997 261.875 223.098 261.875ZM225.253 268.563C224.687 269.083 223.929 269.371 223.121 269.377C223.113 269.377 223.106 269.377 223.096 269.377C222.364 269.377 221.678 269.133 221.129 268.703L221.731 264.229C222.138 264.041 222.59 263.923 223.076 263.92C223.084 263.92 223.091 263.92 223.099 263.92C224.755 263.92 226.11 265.131 226.122 266.629C226.129 267.356 225.82 268.044 225.253 268.563Z" fill="white"/>
</mask>
<g mask="url(#mask2_76_709)">
<g opacity="0.52">
<path d="M226.308 268.609C223.922 267.717 221.193 268.298 218.757 269.072C216.321 269.846 213.854 270.818 211.277 270.676C209.721 270.591 208.209 270.099 206.651 270.1C203.682 270.101 201.108 271.848 198.782 273.513C198.574 273.662 198.996 273.932 198.731 273.923L199.198 280.745L225.53 278.091L226.308 268.609Z" fill="#D89741"/>
</g>
</g>
<mask id="mask3_76_709" style="mask-type:luminance" maskUnits="userSpaceOnUse" x="200" y="258" width="29" height="20">
<path d="M223.098 261.875C223.086 261.875 223.073 261.875 223.059 261.875C222.709 261.878 222.367 261.914 222.035 261.976L222.49 258.595L200.019 258.642L202.316 277.085C205.473 278.389 219.939 277.534 219.939 277.534L220.827 270.94C221.529 271.244 222.295 271.421 223.096 271.421C223.11 271.421 223.124 271.421 223.137 271.421C224.55 271.412 225.874 270.907 226.866 269.999C227.856 269.091 228.397 267.888 228.387 266.613C228.366 263.993 225.997 261.875 223.098 261.875ZM225.253 268.563C224.687 269.083 223.929 269.371 223.121 269.377C223.113 269.377 223.106 269.377 223.096 269.377C222.364 269.377 221.678 269.133 221.129 268.703L221.731 264.229C222.138 264.041 222.59 263.923 223.076 263.92C223.084 263.92 223.091 263.92 223.099 263.92C224.755 263.92 226.11 265.131 226.122 266.629C226.129 267.356 225.82 268.044 225.253 268.563Z" fill="white"/>
</mask>
<g mask="url(#mask3_76_709)">
<g opacity="0.47">
<path d="M196.583 262.071C198.545 262.468 200.318 263.394 202.183 264.077C204.047 264.759 206.162 265.198 208.054 264.581C210.031 263.938 211.511 262.224 213.59 261.943C214.462 261.826 215.347 261.979 216.226 262.045C219.328 262.277 222.517 261.363 224.901 259.556L223.989 254.51L197.246 255.114L196.583 262.071Z" fill="white"/>
</g>
</g>
<path d="M318.244 258.49L323.924 277.164H270.782L290.254 272.405L284.98 258.855L318.244 258.49Z" fill="#2D3962"/>
<path d="M248.889 261.135H360.723C367.37 261.135 373.024 255.94 374.044 248.897L381.728 195.795C382.996 187.034 376.677 179.125 368.408 179.125H256.573C249.927 179.125 244.272 184.32 243.253 191.363L235.569 244.465C234.301 253.226 240.621 261.135 248.889 261.135Z" fill="#56B2A1"/>
<path d="M235.57 244.466C234.302 253.227 240.621 261.135 248.89 261.135H360.724C367.371 261.135 373.025 255.941 374.044 248.898L374.653 245.009L235.57 244.466Z" fill="#2D3962"/>
<path d="M274.987 234.514H332.645C336.072 234.514 338.987 231.836 339.512 228.204L343.474 200.827C344.128 196.31 340.87 192.232 336.607 192.232H278.949C275.522 192.232 272.607 194.91 272.082 198.542L268.12 225.919C267.465 230.436 270.724 234.514 274.987 234.514Z" fill="white"/>
<path d="M287.139 226.176H322.056C324.131 226.176 325.896 224.554 326.215 222.354L328.614 205.775C329.01 203.04 327.037 200.571 324.455 200.571H289.538C287.463 200.571 285.698 202.192 285.379 204.392L282.98 220.971C282.585 223.706 284.558 226.176 287.139 226.176Z" fill="#E8E8E8"/>
<path d="M328.575 205.322C328.971 202.587 327.036 200.571 324.455 200.571H289.538C287.462 200.571 285.775 201.913 285.216 205.196L328.575 205.322Z" fill="#56B2A1"/>
<mask id="mask4_76_709" style="mask-type:luminance" maskUnits="userSpaceOnUse" x="282" y="200" width="47" height="27">
<path d="M287.139 226.176H322.056C324.131 226.176 325.896 224.554 326.215 222.354L328.614 205.775C329.01 203.04 327.037 200.571 324.455 200.571H289.538C287.463 200.571 285.698 202.192 285.379 204.392L282.98 220.971C282.585 223.706 284.558 226.176 287.139 226.176Z" fill="white"/>
</mask>
<g mask="url(#mask4_76_709)">
<path d="M303.768 212.241C305.94 210.523 309.243 210.719 311.146 212.679C313.049 214.64 312.832 217.621 310.661 219.339C308.489 221.057 305.186 220.861 303.283 218.901C301.379 216.941 301.596 213.959 303.768 212.241Z" fill="#F4B04E"/>
</g>
<mask id="mask5_76_709" style="mask-type:luminance" maskUnits="userSpaceOnUse" x="282" y="200" width="47" height="27">
<path d="M287.139 226.176H322.056C324.131 226.176 325.896 224.554 326.215 222.354L328.614 205.775C329.01 203.04 327.037 200.571 324.455 200.571H289.538C287.463 200.571 285.698 202.192 285.379 204.392L282.98 220.971C282.585 223.706 284.558 226.176 287.139 226.176Z" fill="white"/>
</mask>
<g mask="url(#mask5_76_709)">
<path d="M324.037 227.376C322.937 222.652 317.614 211.503 316.618 210.459C313.034 213.617 310.584 215.894 307.173 219.043C305.353 217.085 298.559 207.854 298.347 207.888C298.082 207.929 285.15 226.024 284.716 227.185L324.037 227.376Z" fill="#2D3962"/>
</g>
<path d="M278.81 195.114C279.212 195.114 279.538 194.82 279.538 194.457C279.538 194.094 279.212 193.8 278.81 193.8C278.408 193.8 278.082 194.094 278.082 194.457C278.082 194.82 278.408 195.114 278.81 195.114Z" fill="#F4B04E"/>
<path d="M282.242 194.457C282.242 194.82 281.916 195.114 281.514 195.114C281.112 195.114 280.786 194.82 280.786 194.457C280.786 194.094 281.112 193.8 281.514 193.8C281.916 193.8 282.242 194.094 282.242 194.457Z" fill="#56B2A1"/>
<path d="M290.109 202.257C290.109 202.62 289.783 202.914 289.381 202.914C288.979 202.914 288.653 202.62 288.653 202.257C288.653 201.894 288.979 201.6 289.381 201.6C289.784 201.601 290.109 201.894 290.109 202.257Z" fill="#F4B04E"/>
<path d="M292.814 202.257C292.814 202.62 292.488 202.914 292.086 202.914C291.684 202.914 291.358 202.62 291.358 202.257C291.358 201.894 291.684 201.6 292.086 201.6C292.488 201.6 292.814 201.894 292.814 202.257Z" fill="white"/>
<path d="M308.04 254.499H294.799C293.949 254.499 293.26 253.877 293.26 253.11C293.26 252.343 293.949 251.721 294.799 251.721H308.04C308.89 251.721 309.579 252.343 309.579 253.11C309.58 253.877 308.89 254.499 308.04 254.499Z" fill="#56B2A1"/>
<path d="M20.8891 220.782C20.8891 220.782 18.5778 258.145 35.685 261.8C52.7922 265.456 77.7594 261.394 84.6943 275.608C91.6293 289.822 90.7054 327.592 90.7054 327.592L42.62 327.185C42.62 327.185 9.69757 328.888 9.33047 295.508C9.05155 270.277 2.39447 230.935 20.8891 220.782Z" fill="#2D3962"/>
<path d="M303.073 74.6024C302.726 74.6024 302.446 74.3488 302.446 74.0359V68.1331C302.446 67.8203 302.726 67.5667 303.073 67.5667C303.419 67.5667 303.699 67.8203 303.699 68.1331V74.0359C303.699 74.3488 303.419 74.6024 303.073 74.6024Z" fill="#2D3962"/>
<path d="M306.343 71.6506H299.804C299.457 71.6506 299.177 71.3969 299.177 71.0841C299.177 70.7712 299.457 70.5176 299.804 70.5176H306.343C306.689 70.5176 306.969 70.7712 306.969 71.0841C306.969 71.3969 306.688 71.6506 306.343 71.6506Z" fill="#2D3962"/>
<path d="M118.969 108.223C117.674 108.223 116.621 107.272 116.621 106.103C116.621 104.934 117.675 103.983 118.969 103.983C120.263 103.983 121.318 104.934 121.318 106.103C121.318 107.272 120.264 108.223 118.969 108.223ZM118.969 105.115C118.366 105.115 117.875 105.558 117.875 106.103C117.875 106.647 118.366 107.09 118.969 107.09C119.572 107.09 120.063 106.647 120.063 106.103C120.063 105.558 119.573 105.115 118.969 105.115Z" fill="#2D3962"/>
<path d="M215.618 114.586C215.271 114.586 214.99 114.333 214.99 114.02V108.117C214.99 107.804 215.271 107.551 215.618 107.551C215.964 107.551 216.245 107.804 216.245 108.117V114.02C216.245 114.333 215.964 114.586 215.618 114.586Z" fill="#2D3962"/>
<path d="M218.888 111.635H212.349C212.002 111.635 211.721 111.381 211.721 111.068C211.721 110.756 212.002 110.502 212.349 110.502H218.888C219.235 110.502 219.516 110.756 219.516 111.068C219.516 111.381 219.235 111.635 218.888 111.635Z" fill="#2D3962"/>
<path d="M229.109 163.426C227.814 163.426 226.761 162.474 226.761 161.306C226.761 160.138 227.814 159.186 229.109 159.186C230.405 159.186 231.458 160.137 231.458 161.306C231.458 162.475 230.405 163.426 229.109 163.426ZM229.109 160.318C228.505 160.318 228.015 160.761 228.015 161.305C228.015 161.849 228.505 162.293 229.109 162.293C229.713 162.293 230.204 161.849 230.204 161.305C230.205 160.761 229.713 160.318 229.109 160.318Z" fill="#2D3962"/>
<path d="M176.434 170.462C176.088 170.462 175.807 170.208 175.807 169.895V163.992C175.807 163.679 176.088 163.426 176.434 163.426C176.781 163.426 177.062 163.679 177.062 163.992V169.895C177.062 170.208 176.781 170.462 176.434 170.462Z" fill="#2D3962"/>
<path d="M179.703 167.51H173.164C172.818 167.51 172.537 167.256 172.537 166.943C172.537 166.631 172.818 166.377 173.164 166.377H179.703C180.05 166.377 180.331 166.631 180.331 166.943C180.331 167.256 180.05 167.51 179.703 167.51Z" fill="#2D3962"/>
<path d="M163.242 235.317C161.947 235.317 160.893 234.367 160.893 233.198C160.893 232.029 161.947 231.078 163.242 231.078C164.537 231.078 165.59 232.029 165.59 233.198C165.59 234.366 164.536 235.317 163.242 235.317ZM163.242 232.21C162.639 232.21 162.148 232.653 162.148 233.198C162.148 233.743 162.639 234.185 163.242 234.185C163.845 234.185 164.335 233.742 164.335 233.198C164.335 232.652 163.845 232.21 163.242 232.21Z" fill="#2D3962"/>
<path d="M144.172 66.6925C143.825 66.6925 143.544 66.4389 143.544 66.126V60.2232C143.544 59.9104 143.825 59.6567 144.172 59.6567C144.519 59.6567 144.8 59.9104 144.8 60.2232V66.126C144.8 66.4389 144.519 66.6925 144.172 66.6925Z" fill="#2D3962"/>
<path d="M147.442 63.7402H140.903C140.557 63.7402 140.276 63.4865 140.276 63.1737C140.276 62.8608 140.557 62.6072 140.903 62.6072H147.442C147.789 62.6072 148.07 62.8608 148.07 63.1737C148.07 63.4865 147.788 63.7402 147.442 63.7402Z" fill="#2D3962"/>
<path d="M379.617 113.702C378.322 113.702 377.269 112.75 377.269 111.581C377.269 110.412 378.322 109.461 379.617 109.461C380.912 109.461 381.964 110.412 381.964 111.581C381.965 112.75 380.912 113.702 379.617 113.702ZM379.617 110.594C379.013 110.594 378.523 111.037 378.523 111.581C378.523 112.125 379.014 112.569 379.617 112.569C380.22 112.569 380.71 112.125 380.71 111.581C380.711 111.037 380.22 110.594 379.617 110.594Z" fill="#2D3962"/>
<path d="M182.971 377.628L184.015 362.432L168.829 361.874L168.238 379.119L182.971 377.628Z" fill="#FFCEAB"/>
<path d="M183.911 370.968L168.5 370.395L168.203 377.248L183.168 376.936L183.911 370.968Z" fill="white"/>
<path d="M208.118 388.284C199.412 385.98 185.399 382.517 185.399 382.517L184.891 376.488L167.352 376.053C167.352 376.053 165.095 390.727 165.01 392.123C164.925 393.518 164.458 396.922 167.096 397.13C173.819 397.661 213.418 398.971 220.497 397.99C222.282 397.743 222.248 394.268 219.169 391.919C216.324 389.748 210.531 388.922 208.118 388.284Z" fill="#56B2A1"/>
<path d="M182.188 390.433C181.847 390.433 181.493 390.349 181.136 390.179C180.35 389.806 179.988 389.089 180.117 388.162C180.296 386.876 183.798 382.16 184.723 381.201C184.879 381.04 185.127 380.978 185.351 381.034C185.579 381.094 185.747 381.269 185.781 381.48C186.036 383.056 185.585 387.763 183.885 389.616C183.389 390.157 182.806 390.433 182.188 390.433ZM184.614 383.155C183.267 384.905 181.412 387.652 181.321 388.3C181.226 388.983 181.56 389.143 181.703 389.21C182.059 389.379 182.453 389.461 182.951 388.918C183.985 387.79 184.512 385.045 184.614 383.155Z" fill="#2D3962"/>
<path d="M187.307 390.511C186.548 390.511 185.901 390.121 185.461 389.393C184.775 388.254 184.565 382.579 184.695 381.313C184.717 381.1 184.875 380.918 185.098 380.846C185.32 380.776 185.571 380.828 185.736 380.982C186.962 382.126 189.642 386.185 189.46 388.586C189.377 389.675 188.715 390.352 187.593 390.493C187.497 390.505 187.401 390.511 187.307 390.511ZM185.871 382.956C185.911 385.088 186.182 388.296 186.528 388.869C186.893 389.474 187.267 389.427 187.427 389.407C187.822 389.358 188.195 389.215 188.248 388.511C188.359 387.051 187.011 384.545 185.871 382.956Z" fill="#2D3962"/>
<path d="M221.317 396.412C221.311 396.412 221.305 396.412 221.3 396.412L165.258 394.984C164.923 394.976 164.658 394.724 164.669 394.421C164.678 394.119 164.999 393.886 165.292 393.889L221.334 395.317C221.669 395.326 221.933 395.578 221.924 395.88C221.914 396.177 221.645 396.412 221.317 396.412Z" fill="#2D3962"/>
<path d="M197.596 389.109C197.474 389.109 197.352 389.076 197.245 389.008C196.972 388.834 196.908 388.49 197.102 388.244C198.981 385.854 200.356 385.276 200.507 385.217C200.816 385.098 201.173 385.229 201.304 385.507C201.435 385.784 201.295 386.104 200.99 386.223C200.953 386.239 199.756 386.763 198.092 388.878C197.973 389.028 197.787 389.109 197.596 389.109Z" fill="#2D3962"/>
<path d="M193.886 388.246C193.764 388.246 193.642 388.213 193.535 388.145C193.262 387.97 193.198 387.627 193.392 387.381C195.271 384.991 196.646 384.413 196.797 384.356C197.106 384.236 197.462 384.368 197.593 384.646C197.723 384.923 197.583 385.243 197.279 385.362C197.245 385.377 196.048 385.898 194.381 388.016C194.263 388.165 194.076 388.246 193.886 388.246Z" fill="#2D3962"/>
<path d="M190.556 387.308C190.434 387.308 190.312 387.276 190.205 387.207C189.932 387.032 189.868 386.69 190.062 386.443C191.942 384.053 193.317 383.476 193.467 383.417C193.775 383.296 194.132 383.429 194.264 383.706C194.394 383.983 194.255 384.303 193.95 384.423C193.914 384.439 192.717 384.961 191.053 387.077C190.934 387.227 190.746 387.308 190.556 387.308Z" fill="#2D3962"/>
<path d="M106.225 270.001C107.926 270.989 124.656 272.496 148.281 276.611C170.831 280.54 183.771 281.657 193.777 291.253C200.107 297.324 194.675 347.05 187.949 366.692C176.804 365.462 175.835 365.815 164.607 365.977C164.74 348.547 166.16 315.039 164.106 312.68C162.025 310.29 162.813 311.535 159.671 310.441L106.225 270.001Z" fill="#9BBBEA"/>
<path d="M165.366 328.116C165.074 328.116 164.838 327.905 164.836 327.642L164.631 306.983C164.629 306.718 164.864 306.502 165.158 306.5H165.162C165.453 306.5 165.69 306.711 165.693 306.975L165.897 327.633C165.9 327.898 165.664 328.115 165.371 328.116C165.369 328.116 165.368 328.116 165.366 328.116Z" fill="#2D3962"/>
<path d="M399.058 366.236C394.193 367.571 388.619 367.342 383.833 365.711C364.828 359.235 363.27 340.354 366.444 325.925C368.572 316.25 372.323 306.79 373.17 296.982C374.468 281.954 369.174 265.633 378.15 252.524C380.039 249.764 382.707 247.163 386.343 246.154C391.692 244.669 397.768 247.173 400.992 251.003C404.217 254.832 405.119 259.669 405.331 264.333C405.808 274.806 403.257 285.281 404.135 295.737C405.26 309.141 413.009 321.756 413.936 335.173C414.56 344.225 414.211 356.654 405.389 363.23C403.55 364.602 401.386 365.598 399.058 366.236Z" fill="#97DDCF"/>
<path d="M389.619 372.859C389.226 372.859 388.906 372.573 388.902 372.219L387.993 282.214C387.989 281.855 388.307 281.564 388.702 281.56C388.705 281.56 388.707 281.56 388.709 281.56C389.102 281.56 389.422 281.846 389.426 282.201L390.336 372.206C390.339 372.564 390.021 372.856 389.626 372.859C389.623 372.859 389.621 372.859 389.619 372.859Z" fill="#2D3962"/>
<path d="M402.608 368.293C398.316 368.509 393.847 367.463 390.374 365.508C376.58 357.743 380.114 343.591 386.36 333.464C390.547 326.674 395.999 320.297 399.179 313.207C404.053 302.344 403.9 289.49 414.524 281.248C416.761 279.513 419.588 278.018 422.798 277.848C427.521 277.597 431.819 280.399 433.466 283.728C435.112 287.056 434.617 290.762 433.604 294.229C431.329 302.018 426.595 309.331 424.651 317.17C422.158 327.22 425.246 337.732 422.589 347.76C420.796 354.525 417.354 363.624 408.515 367.078C406.673 367.798 404.661 368.19 402.608 368.293Z" fill="#56B2A1"/>
<path d="M394.723 374.144C394.702 374.144 394.682 374.143 394.661 374.141C394.266 374.111 393.974 373.798 394.008 373.442C395.977 352.767 417.643 295.88 417.861 295.308C417.989 294.97 418.397 294.791 418.773 294.906C419.147 295.023 419.347 295.391 419.218 295.729C418.999 296.3 397.391 353.036 395.437 373.552C395.404 373.889 395.09 374.144 394.723 374.144Z" fill="#2D3962"/>
<path d="M378.58 374.568L368.362 413.238H415.502L406.321 374.841C406.035 373.643 404.868 372.783 403.51 372.77L381.44 372.553C380.082 372.539 378.895 373.376 378.58 374.568Z" fill="#F4B04E"/>
<mask id="mask6_76_709" style="mask-type:luminance" maskUnits="userSpaceOnUse" x="368" y="372" width="48" height="42">
<path d="M378.58 374.568L368.362 413.238H415.502L406.321 374.841C406.035 373.643 404.868 372.783 403.51 372.77L381.44 372.553C380.082 372.539 378.895 373.376 378.58 374.568Z" fill="white"/>
</mask>
<g mask="url(#mask6_76_709)">
<g opacity="0.47">
<path d="M412.881 371.943C413.075 373.378 412.016 374.679 411.014 375.806C409.523 377.486 407.962 379.217 405.825 380.174C404.53 380.752 403.095 381.012 401.732 381.446C397.707 382.728 394.369 385.511 390.23 386.448C386.936 387.194 383.319 386.721 380.231 387.993C376.221 389.646 374.062 393.846 370.04 395.473L372.427 369.413L412.881 371.943Z" fill="white"/>
</g>
</g>
<mask id="mask7_76_709" style="mask-type:luminance" maskUnits="userSpaceOnUse" x="368" y="372" width="48" height="42">
<path d="M378.58 374.568L368.362 413.238H415.502L406.321 374.841C406.035 373.643 404.868 372.783 403.51 372.77L381.44 372.553C380.082 372.539 378.895 373.376 378.58 374.568Z" fill="white"/>
</mask>
<g mask="url(#mask7_76_709)">
<g opacity="0.52">
<path d="M365.867 412.896C368.736 410.566 371.647 408.21 375.078 406.615C378.51 405.021 382.577 404.245 386.27 405.258C387.196 405.511 388.095 405.875 389.058 405.965C391.948 406.235 394.302 404.08 396.597 402.472C402.785 398.138 410.978 397.13 418.752 396.271L419.261 416.17L366.169 415.975L365.867 412.896Z" fill="#D89741"/>
</g>
</g>
<path d="M308.821 399.426C308.821 399.426 298.438 378.804 328.204 369.119L333.713 344.311C333.943 343.273 335.21 343.22 336.078 343.932C337.883 345.409 342.534 350.73 342.534 350.73L351.945 350.451C351.945 350.451 356.724 345.07 358.797 343.709C359.337 343.354 361.34 343.029 361.672 345.076C363.286 355.042 368.098 409.344 365.586 411.612C362.817 414.111 306.744 411.612 306.744 411.612L308.821 399.426Z" fill="#FFD194"/>
<path d="M309.756 394.834C309.756 394.834 298.002 404.265 303.748 411.339C306.015 414.129 317.555 413.191 330.348 413.181C349.995 413.164 372.996 412.923 372.996 412.923C372.996 412.923 377.014 406.561 372.312 404.438C367.61 402.316 311.584 402.851 311.584 402.851" fill="#FFD194"/>
<path d="M372.825 413.403C372.653 413.403 372.483 413.327 372.38 413.186C372.22 412.965 372.289 412.668 372.534 412.523C373.565 411.915 374.641 410.106 374.602 408.382C374.579 407.345 374.144 405.891 372.21 404.85C369.858 403.583 362.582 404.195 354.163 404.904C350.217 405.235 345.746 405.612 341.237 405.843C326.98 406.576 312.92 405.238 312.779 405.224C312.488 405.196 312.278 404.959 312.309 404.696C312.34 404.434 312.588 404.239 312.893 404.271C313.033 404.285 327.011 405.615 341.177 404.887C345.666 404.656 350.128 404.281 354.062 403.949C363.024 403.197 370.101 402.6 372.754 404.028C375.104 405.293 375.633 407.084 375.662 408.364C375.711 410.5 374.405 412.564 373.115 413.326C373.027 413.377 372.926 413.403 372.825 413.403Z" fill="#2D3962"/>
<path d="M303.748 411.818C303.585 411.818 303.424 411.75 303.321 411.622C300.832 408.559 301.118 404.604 304.146 400.182C306.383 396.918 309.283 394.573 309.405 394.476C309.624 394.3 309.958 394.318 310.153 394.516C310.348 394.713 310.329 395.017 310.109 395.192C309.996 395.283 298.783 404.417 304.176 411.056C304.35 411.269 304.299 411.569 304.062 411.725C303.968 411.788 303.858 411.818 303.748 411.818Z" fill="#2D3962"/>
<path d="M345.823 358.466C345.823 359.232 345.134 359.854 344.285 359.854C343.436 359.854 342.746 359.232 342.746 358.466C342.746 357.699 343.436 357.077 344.285 357.077C345.134 357.077 345.823 357.698 345.823 358.466Z" fill="#2D3962"/>
<path d="M351.011 359.854C351.861 359.854 352.55 359.233 352.55 358.466C352.55 357.699 351.861 357.077 351.011 357.077C350.162 357.077 349.473 357.699 349.473 358.466C349.473 359.233 350.162 359.854 351.011 359.854Z" fill="#2D3962"/>
<path d="M341.207 405.843C340.954 405.843 340.73 405.679 340.685 405.445L337.354 387.957C337.304 387.696 337.498 387.448 337.787 387.404C338.079 387.351 338.35 387.533 338.4 387.795L341.731 405.282C341.782 405.543 341.587 405.791 341.299 405.835C341.268 405.842 341.238 405.843 341.207 405.843Z" fill="#2D3962"/>
<path d="M355.438 404.538C355.409 404.538 355.378 404.536 355.347 404.531C355.059 404.486 354.864 404.239 354.914 403.977L358.245 386.489C358.294 386.228 358.564 386.048 358.858 386.098C359.146 386.143 359.341 386.391 359.291 386.652L355.96 404.14C355.916 404.373 355.692 404.538 355.438 404.538Z" fill="#2D3962"/>
<path d="M348.62 404.579C348.336 404.579 348.1 404.376 348.089 404.119L347.47 389.759C347.458 389.494 347.687 389.272 347.979 389.261C348.268 389.262 348.52 389.457 348.531 389.721L349.151 404.081C349.162 404.345 348.934 404.568 348.642 404.579C348.634 404.579 348.627 404.579 348.62 404.579Z" fill="#2D3962"/>
<path d="M348.21 390.09C346.716 390.09 345.276 389.868 345.012 389.825C344.724 389.778 344.532 389.529 344.583 389.268C344.635 389.007 344.913 388.838 345.2 388.881C346.801 389.142 349.697 389.328 350.643 388.725C350.882 388.573 351.216 388.624 351.384 388.84C351.553 389.057 351.496 389.356 351.257 389.508C350.55 389.958 349.364 390.09 348.21 390.09Z" fill="#2D3962"/>
<path d="M347.717 362.97C347.579 362.97 347.443 362.922 347.342 362.831L345.704 361.352C345.563 361.225 345.513 361.038 345.574 360.866C345.635 360.695 345.796 360.57 345.992 360.54C346.888 360.405 349.05 360.127 349.747 360.443C349.983 360.55 350.132 360.75 350.143 360.978C350.153 361.173 350.177 361.691 347.994 362.899C347.909 362.947 347.812 362.97 347.717 362.97ZM347.206 361.353L347.791 361.88C348.154 361.663 348.494 361.437 348.737 361.251C348.34 361.252 347.785 361.291 347.206 361.353Z" fill="#2D3962"/>
<path d="M341.244 351.498C340.968 351.498 340.736 351.305 340.715 351.053C340.695 350.789 340.914 350.56 341.207 350.541C341.613 350.516 351.185 349.905 353.769 350.12C354.061 350.144 354.275 350.377 354.25 350.641C354.223 350.905 353.964 351.091 353.672 351.075C351.173 350.869 341.381 351.491 341.281 351.498C341.27 351.498 341.257 351.498 341.244 351.498Z" fill="#2D3962"/>
<g opacity="0.47">
<path d="M334.115 343.453C332.232 344.134 332.232 351.106 332.232 351.106C332.232 351.106 338.368 351.451 338.638 349.746C338.724 349.2 337.832 348.014 337.036 346.6C336.099 344.932 335.159 343.077 334.115 343.453Z" fill="white"/>
</g>
<g opacity="0.47">
<path d="M360.499 343.453C362.383 344.134 362.383 351.106 362.383 351.106C362.383 351.106 356.246 351.451 355.977 349.746C355.891 349.2 356.783 348.014 357.578 346.6C358.516 344.932 359.455 343.077 360.499 343.453Z" fill="white"/>
</g>
<path d="M327.126 372.701C326.964 372.701 326.807 372.634 326.708 372.519C326.497 372.278 326.44 372.214 328.899 362.814C328.967 362.557 329.251 362.394 329.538 362.457C329.823 362.518 329.999 362.777 329.933 363.034C329.088 366.266 327.743 371.52 327.655 372.177C327.656 372.192 327.657 372.207 327.657 372.223C327.657 372.488 327.419 372.701 327.126 372.701Z" fill="#2D3962"/>
<path d="M323.132 371.135C323.5 372.471 323.545 374.244 323.531 375.621C323.517 376.998 323.075 378.425 322.014 379.415C321.269 380.112 320.225 380.6 319.794 381.488C319.574 381.943 319.545 382.451 319.449 382.94C319.028 385.086 317.163 386.945 314.84 387.537C312.516 388.127 309.448 387.088 307.848 385.456C307.848 385.456 310.031 379.105 314.823 375.321C318.864 372.13 323.132 371.135 323.132 371.135Z" fill="#D89741"/>
<path d="M323.446 388.018C323.514 388.018 323.499 387.924 323.432 387.924C323.364 387.924 323.379 388.018 323.446 388.018Z" fill="#56B2A1"/>
<path d="M324.789 384.452C324.625 384.326 324.447 384.235 324.257 384.189C322.875 383.855 321.291 384.376 320.729 385.622C320.396 386.357 320.512 387.25 321.044 387.882C321.41 388.317 321.947 388.618 322.516 388.801C323.635 389.16 325.097 388.979 325.686 388.048C326.239 387.176 325.765 385.202 324.789 384.452Z" fill="#D89741"/>
<path d="M439.975 414H1.02543C0.459392 414 0 413.586 0 413.074C0 412.562 0.459392 412.149 1.02543 412.149H439.975C440.542 412.149 441 412.562 441 413.074C441 413.586 440.542 414 439.975 414Z" fill="#2D3962"/>
<path d="M385.357 142.046H339.98C338.324 142.046 336.981 143.257 336.981 144.752V166.747C336.981 168.242 338.324 169.454 339.98 169.454H342.942V173.912C342.942 174.546 343.809 174.845 344.277 174.373L349.169 169.454H385.357C387.013 169.454 388.355 168.242 388.355 166.747V144.752C388.355 143.257 387.013 142.046 385.357 142.046Z" fill="#F4B04E"/>
<path d="M380.505 149.322H344.639C344.287 149.322 344.001 149.064 344.001 148.745C344.001 148.427 344.287 148.169 344.639 148.169H380.505C380.858 148.169 381.144 148.427 381.144 148.745C381.144 149.064 380.858 149.322 380.505 149.322Z" fill="white"/>
<path d="M380.505 156.466H344.639C344.287 156.466 344.001 156.208 344.001 155.889C344.001 155.571 344.287 155.312 344.639 155.312H380.505C380.858 155.312 381.144 155.571 381.144 155.889C381.144 156.209 380.858 156.466 380.505 156.466Z" fill="white"/>
<path d="M372.974 163.572H344.639C344.287 163.572 344.001 163.314 344.001 162.995C344.001 162.677 344.287 162.419 344.639 162.419H372.974C373.327 162.419 373.613 162.677 373.613 162.995C373.613 163.314 373.327 163.572 372.974 163.572Z" fill="white"/>
<path d="M341.779 126.518C341.779 127.585 340.82 128.451 339.638 128.451H310.52C309.338 128.451 308.379 127.585 308.379 126.518V110.283C308.379 109.216 309.338 108.351 310.52 108.351H339.638C340.82 108.351 341.779 109.216 341.779 110.283V126.518Z" fill="#FFD194"/>
<mask id="mask8_76_709" style="mask-type:luminance" maskUnits="userSpaceOnUse" x="308" y="108" width="34" height="21">
<path d="M341.779 126.518C341.779 127.585 340.82 128.451 339.638 128.451H310.52C309.338 128.451 308.379 127.585 308.379 126.518V110.283C308.379 109.216 309.338 108.351 310.52 108.351H339.638C340.82 108.351 341.779 109.216 341.779 110.283V126.518Z" fill="white"/>
</mask>
<g mask="url(#mask8_76_709)">
<path d="M340.735 129.971L328.769 118.072L340.713 107.319L339.866 106.388L324.748 119.999L310.031 105.365L309.139 106.251L321.106 118.15L309.161 128.904L310.008 129.834L321.999 119.039L324.705 121.731L327.832 118.915L339.843 130.858L340.735 129.971Z" fill="white"/>
</g>
<path d="M338.463 115.319C342.576 115.319 345.911 112.309 345.911 108.596C345.911 104.883 342.576 101.873 338.463 101.873C334.35 101.873 331.015 104.883 331.015 108.596C331.015 112.309 334.35 115.319 338.463 115.319Z" fill="#56B2A1"/>
<path d="M333.574 109.896H334.615V107.518H333.568V107.022C333.762 107.003 333.999 106.948 334.28 106.859C334.562 106.769 334.816 106.667 335.039 106.55H335.498V109.896H336.447V110.55H333.573L333.574 109.896Z" fill="white"/>
<path d="M337.575 110.436C337.352 110.314 337.182 110.101 337.064 109.798C336.946 109.495 336.887 109.079 336.887 108.551C336.887 108.022 336.946 107.606 337.064 107.303C337.182 107 337.352 106.787 337.575 106.665C337.797 106.543 338.075 106.482 338.411 106.482C338.746 106.482 339.026 106.544 339.246 106.669C339.468 106.793 339.638 107.006 339.757 107.307C339.875 107.608 339.935 108.022 339.935 108.552C339.935 109.08 339.875 109.495 339.757 109.797C339.638 110.097 339.468 110.31 339.246 110.434C339.025 110.558 338.746 110.621 338.411 110.621C338.076 110.62 337.797 110.558 337.575 110.436ZM338.796 109.842C338.884 109.759 338.945 109.631 338.977 109.46C339.009 109.288 339.026 109.053 339.026 108.754V108.346C339.026 108.047 339.009 107.812 338.977 107.641C338.945 107.47 338.884 107.343 338.796 107.259C338.707 107.175 338.58 107.133 338.412 107.133C338.244 107.133 338.115 107.174 338.027 107.259C337.939 107.342 337.879 107.47 337.847 107.641C337.814 107.812 337.798 108.046 337.798 108.346V108.754C337.798 109.053 337.814 109.289 337.847 109.46C337.879 109.631 337.939 109.758 338.027 109.842C338.115 109.925 338.244 109.967 338.412 109.967C338.58 109.967 338.707 109.925 338.796 109.842Z" fill="white"/>
<path d="M340.484 110.341C340.484 110.12 340.539 109.92 340.646 109.743C340.753 109.566 340.885 109.412 341.043 109.279C341.2 109.147 341.406 108.998 341.661 108.83C341.88 108.678 342.053 108.553 342.18 108.452C342.308 108.351 342.414 108.24 342.501 108.119C342.608 107.969 342.662 107.797 342.662 107.607C342.662 107.483 342.611 107.372 342.511 107.277C342.409 107.182 342.265 107.135 342.075 107.135C341.648 107.135 341.435 107.32 341.435 107.689V107.928H340.557C340.553 107.916 340.548 107.889 340.541 107.846C340.535 107.804 340.531 107.753 340.531 107.695C340.531 107.291 340.68 106.988 340.98 106.786C341.278 106.583 341.656 106.482 342.113 106.482C342.513 106.482 342.82 106.552 343.036 106.692C343.251 106.832 343.392 106.989 343.458 107.164C343.525 107.339 343.559 107.502 343.559 107.654C343.559 107.922 343.492 108.16 343.359 108.367C343.225 108.576 343.067 108.751 342.884 108.892C342.7 109.034 342.474 109.188 342.203 109.356C341.996 109.485 341.842 109.589 341.737 109.671C341.665 109.729 341.611 109.786 341.576 109.84H343.585V110.552H340.485V110.341H340.484Z" fill="white"/>
<path d="M283.422 171.47H255.871C254.736 171.47 253.816 170.64 253.816 169.616V148.001C253.816 146.976 254.736 146.146 255.871 146.146H283.422C284.557 146.146 285.477 146.976 285.477 148.001V169.616C285.477 170.639 284.557 171.47 283.422 171.47Z" fill="#FFD194"/>
<path d="M279.369 153.101H263.597C263.194 153.101 262.867 152.805 262.867 152.442C262.867 152.078 263.194 151.782 263.597 151.782H279.369C279.772 151.782 280.099 152.078 280.099 152.442C280.1 152.805 279.773 153.101 279.369 153.101Z" fill="white"/>
<path d="M260.464 152.44C260.464 152.975 259.983 153.409 259.39 153.409C258.798 153.409 258.317 152.975 258.317 152.44C258.317 151.905 258.798 151.471 259.39 151.471C259.983 151.471 260.464 151.905 260.464 152.44Z" fill="white"/>
<path d="M279.369 159.676H263.597C263.194 159.676 262.867 159.381 262.867 159.017C262.867 158.653 263.194 158.358 263.597 158.358H279.369C279.772 158.358 280.099 158.653 280.099 159.017C280.1 159.381 279.773 159.676 279.369 159.676Z" fill="white"/>
<path d="M260.464 159.017C260.464 159.552 259.983 159.986 259.39 159.986C258.798 159.986 258.317 159.552 258.317 159.017C258.317 158.482 258.798 158.048 259.39 158.048C259.983 158.048 260.464 158.482 260.464 159.017Z" fill="white"/>
<path d="M279.369 166.253H263.597C263.194 166.253 262.867 165.958 262.867 165.594C262.867 165.23 263.194 164.935 263.597 164.935H279.369C279.772 164.935 280.099 165.23 280.099 165.594C280.1 165.958 279.773 166.253 279.369 166.253Z" fill="white"/>
<path d="M260.464 165.593C260.464 166.128 259.983 166.563 259.39 166.563C258.798 166.563 258.317 166.128 258.317 165.593C258.317 165.058 258.798 164.624 259.39 164.624C259.983 164.624 260.464 165.057 260.464 165.593Z" fill="white"/>
<path d="M328.206 162.909H294.202C292.886 162.909 291.818 161.946 291.818 160.757V136.058C291.818 134.869 292.886 133.906 294.202 133.906H328.206C329.522 133.906 330.59 134.869 330.59 136.058V160.757C330.59 161.946 329.522 162.909 328.206 162.909Z" fill="#97DDCF"/>
<path d="M330.59 142.22V136.058C330.59 134.869 329.522 133.906 328.206 133.906H294.202C292.886 133.906 291.818 134.869 291.818 136.058V142.22C291.818 142.22 329.947 142.22 330.59 142.22Z" fill="#56B2A1"/>
<path d="M304.263 154.259H306.636V148.831H304.249V147.701C304.692 147.656 305.234 147.532 305.877 147.328C306.521 147.124 307.097 146.889 307.608 146.623H308.655V154.259H310.822V155.748H304.263V154.259Z" fill="white"/>
<path d="M312.7 155.103C312.056 154.566 311.735 153.837 311.735 152.915H313.813C313.813 153.385 313.943 153.753 314.203 154.019C314.464 154.285 314.824 154.418 315.286 154.418C315.737 154.418 316.094 154.278 316.355 153.999C316.615 153.719 316.745 153.309 316.745 152.768C316.745 152.272 316.613 151.895 316.348 151.637C316.082 151.38 315.733 151.251 315.301 151.251C315.006 151.251 314.756 151.309 314.55 151.424C314.344 151.539 314.156 151.694 313.989 151.889L312.074 151.676L312.473 146.622H318.323V148.244H314.255L314.122 150.267C314.357 150.133 314.614 150.025 314.888 149.941C315.164 149.857 315.498 149.814 315.891 149.814C316.756 149.814 317.46 150.065 318.006 150.566C318.551 151.067 318.824 151.801 318.824 152.767C318.824 153.76 318.509 154.532 317.881 155.082C317.252 155.632 316.388 155.907 315.287 155.907C314.206 155.908 313.343 155.64 312.7 155.103Z" fill="white"/>
<path d="M301.573 136.793C301.227 136.793 300.947 136.539 300.947 136.226V133.359C300.947 133.047 301.227 132.793 301.573 132.793C301.92 132.793 302.2 133.047 302.2 133.359V136.226C302.2 136.539 301.92 136.793 301.573 136.793Z" fill="#2D3962"/>
<path d="M311.204 136.793C310.857 136.793 310.577 136.539 310.577 136.226V133.359C310.577 133.047 310.857 132.793 311.204 132.793C311.551 132.793 311.83 133.047 311.83 133.359V136.226C311.83 136.539 311.551 136.793 311.204 136.793Z" fill="#2D3962"/>
<path d="M320.835 136.793C320.488 136.793 320.208 136.539 320.208 136.226V133.359C320.208 133.047 320.488 132.793 320.835 132.793C321.181 132.793 321.461 133.047 321.461 133.359V136.226C321.462 136.539 321.181 136.793 320.835 136.793Z" fill="#2D3962"/>
<path d="M286.335 128.214C290.87 119.651 286.857 109.392 277.371 105.298C267.885 101.205 256.52 104.828 251.985 113.391C247.45 121.953 251.464 132.213 260.95 136.306C270.435 140.399 281.801 136.776 286.335 128.214Z" fill="white"/>
<path d="M269.161 139.182C257.933 139.182 248.798 130.936 248.798 120.8C248.798 110.664 257.933 102.418 269.161 102.418C280.39 102.418 289.526 110.664 289.526 120.8C289.526 130.936 280.39 139.182 269.161 139.182ZM269.161 104.814C259.395 104.814 251.45 111.985 251.45 120.8C251.45 129.616 259.395 136.787 269.161 136.787C278.927 136.787 286.872 129.615 286.872 120.8C286.873 111.984 278.928 104.814 269.161 104.814Z" fill="#56B2A1"/>
<path d="M277.367 122.551H268.541C268.093 122.551 267.73 122.222 267.73 121.819V110.09C267.73 109.685 268.093 109.358 268.541 109.358C268.989 109.358 269.352 109.685 269.352 110.09V121.086H277.367C277.815 121.086 278.178 121.415 278.178 121.819C278.178 122.222 277.815 122.551 277.367 122.551Z" fill="#2D3962"/>
<path d="M40.3649 269.327C40.3649 269.327 26.1874 192.994 40.932 174.167C46.5073 167.047 71.8179 172.175 71.8179 172.175C83.9139 183.222 90.1095 194.675 94.5465 209.682C98.9836 224.69 107.08 257.147 108.591 272.62C94.6655 272.651 40.3649 269.327 40.3649 269.327Z" fill="#F4B04E"/>
<path d="M90.7833 260.536C90.7833 260.536 104.604 265.349 104.965 270.142C105.281 274.342 89.4031 270.784 89.4031 270.784L90.7833 260.536Z" fill="#FFCEAB"/>
<path d="M104.729 270.877C104.601 270.877 104.473 270.835 104.37 270.751C102.912 269.542 99.437 268.429 99.4022 268.419C99.1253 268.331 98.9797 268.057 99.0781 267.808C99.1766 267.559 99.4801 267.428 99.7549 267.515C99.9057 267.563 103.471 268.707 105.088 270.045C105.304 270.224 105.319 270.528 105.12 270.722C105.015 270.824 104.872 270.877 104.729 270.877Z" fill="#2D3962"/>
<path d="M102.242 272.336C102.125 272.336 102.006 272.301 101.907 272.228C100.627 271.284 97.87 270.411 97.8423 270.403C97.5655 270.316 97.4188 270.042 97.5152 269.793C97.6116 269.542 97.9151 269.41 98.191 269.497C98.312 269.535 101.155 270.436 102.579 271.486C102.805 271.654 102.839 271.956 102.654 272.16C102.549 272.277 102.396 272.336 102.242 272.336Z" fill="#2D3962"/>
<path d="M56.7185 205.527C49.8512 227.831 52.2261 227.853 44.9466 249.363C59.4472 253.496 80.8684 253.98 93.9467 260.985C93.6165 263.429 92.6834 270.151 91.9923 270.781C90.8909 271.784 34.1263 276.532 20.1989 263.324C8.94278 252.649 17.1298 189.443 41.9841 173.123C49.8287 167.97 56.7185 205.527 56.7185 205.527Z" fill="#F4B04E"/>
<path d="M74.398 273.122C74.1047 273.122 73.8668 272.908 73.8668 272.642C73.8668 272.378 74.1037 272.164 74.398 272.164C77.2661 272.164 88.8227 271.257 91.1115 271.074L93.3079 261.372C84.7681 258.101 74.4154 256.096 64.397 254.155C57.3441 252.789 50.6829 251.5 44.7877 249.818C44.5098 249.739 44.355 249.473 44.4401 249.221C48.2926 237.836 49.4534 232.402 50.6819 226.648C51.8109 221.359 52.9788 215.891 56.21 205.398C56.2879 205.143 56.5801 204.99 56.8632 205.065C57.1451 205.136 57.3113 205.4 57.2323 205.655C54.0135 216.11 52.8496 221.56 51.7247 226.83C50.5076 232.532 49.357 237.922 45.6101 249.046C51.3351 250.645 57.7942 251.896 64.6215 253.218C74.8451 255.198 85.4172 257.245 94.1272 260.644C94.358 260.735 94.4872 260.958 94.4369 261.18L92.0754 271.616C92.0282 271.824 91.8364 271.979 91.6026 271.997C91.0304 272.043 77.6168 273.122 74.398 273.122Z" fill="#2D3962"/>
<path d="M136.024 159.504C133.33 159.34 132.545 161.862 132.452 156.336C132.402 153.429 130.893 150.114 130.61 147.665C130.465 146.417 131.11 145.829 131.52 145.608C132.201 145.24 132.905 145.594 132.905 145.594C133.131 144.608 134.739 144.739 135.074 144.783C135.723 144.867 136.119 145.432 136.119 145.432C136.119 145.432 136.409 144.673 137.868 144.707C138.751 144.727 139.247 144.957 139.513 145.467C139.513 145.467 141.189 145.078 141.717 146.227C141.977 146.791 143.376 150.263 143.512 156.557C143.596 160.434 141.898 159.828 139.311 159.67L136.024 159.504Z" fill="#FFCEAB"/>
<path d="M140.294 152.532C139.968 152.532 139.698 152.297 139.689 152.001C139.599 149.343 139.095 145.964 139.091 145.933C139.044 145.637 139.267 145.361 139.593 145.313C139.923 145.268 140.227 145.461 140.287 145.753C140.291 145.776 140.807 149.207 140.901 151.968C140.911 152.27 140.649 152.522 140.314 152.532C140.307 152.532 140.3 152.532 140.294 152.532Z" fill="#2D3962"/>
<path d="M137.307 152.407C136.981 152.407 136.711 152.173 136.702 151.877C136.611 149.214 135.854 145.703 135.847 145.668C135.782 145.372 135.995 145.084 136.322 145.025C136.65 144.964 136.968 145.156 137.035 145.453C137.043 145.487 137.82 149.093 137.914 151.843C137.924 152.145 137.662 152.398 137.327 152.407C137.32 152.406 137.314 152.407 137.307 152.407Z" fill="#2D3962"/>
<path d="M134.26 152.448C133.934 152.448 133.665 152.214 133.655 151.918C133.563 149.189 132.814 145.709 132.782 145.563C132.719 145.273 132.919 144.984 133.237 144.918C133.556 144.849 133.872 145.015 133.958 145.299C133.962 145.315 133.968 145.337 133.971 145.353C134.004 145.503 134.771 149.069 134.867 151.886C134.877 152.187 134.613 152.44 134.279 152.449C134.273 152.448 134.267 152.448 134.26 152.448Z" fill="#2D3962"/>
<path d="M128.125 151.256C126.944 152.081 128.543 154.191 130.081 155.91C130.809 156.725 131.675 157.877 132.415 158.177C133.505 158.62 133.128 154.603 133.128 154.603C133.128 154.603 130.498 149.6 128.125 151.256Z" fill="#FFCEAB"/>
<path d="M132.066 154.057C131.841 154.057 131.625 153.944 131.521 153.75C131.512 153.735 130.73 152.303 129.606 151.537C129.338 151.355 129.286 151.012 129.487 150.77C129.689 150.53 130.07 150.48 130.336 150.663C131.697 151.589 132.575 153.202 132.611 153.27C132.757 153.542 132.631 153.868 132.331 154.001C132.245 154.04 132.155 154.057 132.066 154.057Z" fill="#2D3962"/>
<path d="M129.623 159.061C129.934 165.812 124.746 196.668 121.046 196.668C112.542 196.668 89.2543 181.411 74.1508 174.594L80.2644 209.652C87.5008 212.439 118.738 226.386 130.905 221.59C153.79 212.57 145.553 156.856 145.553 156.856L129.623 159.061Z" fill="#F4B04E"/>
<path d="M98.4772 227.71C98.2106 227.71 97.9809 227.528 97.9501 227.284C93.8371 193.869 73.9715 175.113 73.7715 174.928C73.5664 174.739 73.5716 174.435 73.7807 174.251C73.9899 174.066 74.3263 174.069 74.5314 174.259C74.7344 174.447 94.8492 193.419 99.0053 227.178C99.0371 227.441 98.8279 227.677 98.5356 227.707C98.5161 227.709 98.4967 227.71 98.4772 227.71Z" fill="#2D3962"/>
<path d="M44.9559 156.456C44.9559 156.456 38.6393 156.267 38.3501 148.336C38.3501 148.336 42.8035 149.658 44.6442 149.624C44.6442 149.624 44.8339 156.732 44.9559 156.456Z" fill="#2D3962"/>
<path d="M89.0389 121.303C89.9156 124.604 91.6178 130.534 92.1551 133.889C93.1744 140.245 93.9025 144.506 93.0873 150.918C92.6299 154.519 91.3328 158.128 88.7805 161.128C83.9015 166.863 70.2756 166.053 70.2756 166.053L70.817 173.246C70.817 173.246 58.3642 177.882 46.2313 172.867L44.365 150.916C44.365 150.916 39.281 150.924 36.0991 148.805C32.9869 146.733 33.6996 138.543 40.9237 138.553C47.6126 138.562 48.3683 139.331 48.3683 139.331L55.1741 123.131L89.0389 121.303Z" fill="#FFCEAB"/>
<path d="M39.3991 144.652C39.2555 144.652 39.113 144.6 39.0074 144.496C38.8095 144.302 38.8238 143.998 39.0402 143.82C40.8255 142.342 44.2483 141.944 44.3929 141.928C44.6913 141.893 44.9497 142.081 44.9856 142.344C45.0215 142.607 44.8154 142.846 44.5242 142.879C44.4924 142.883 41.292 143.257 39.757 144.527C39.6565 144.61 39.5273 144.652 39.3991 144.652Z" fill="#2D3962"/>
<path d="M42.7493 146.718C42.5463 146.718 42.3524 146.613 42.2643 146.435C41.8223 145.544 41.4501 144.418 41.1589 143.084C41.1025 142.824 41.2891 142.572 41.5772 142.521C41.8643 142.469 42.1443 142.64 42.2007 142.899C42.5442 144.472 42.9513 145.476 43.2323 146.042C43.3522 146.284 43.2323 146.567 42.9657 146.676C42.8959 146.705 42.8221 146.718 42.7493 146.718Z" fill="#2D3962"/>
<path d="M72.8844 139.311C72.9603 140.157 73.8155 140.784 74.7958 140.714C75.7761 140.644 76.5083 139.9 76.4334 139.054C76.3575 138.208 75.5023 137.581 74.522 137.651C73.5417 137.722 72.8096 138.465 72.8844 139.311Z" fill="#2D3962"/>
<path d="M84.6736 139.538C85.4202 140.086 86.544 140.006 87.1829 139.358C87.8217 138.71 87.7356 137.74 86.9891 137.192C86.2425 136.644 85.1187 136.724 84.4798 137.373C83.84 138.02 83.9271 138.989 84.6736 139.538Z" fill="#2D3962"/>
<path d="M79.2677 149.487C78.716 149.487 78.1531 149.425 77.6004 149.299C76.4683 149.042 75.4726 148.55 74.722 147.878C74.5138 147.692 74.5118 147.389 74.7179 147.201C74.924 147.013 75.2603 147.011 75.4685 147.198C76.0756 147.741 76.9246 148.158 77.8588 148.37C78.8863 148.603 79.9465 148.58 80.8458 148.305C81.1217 148.222 81.4252 148.354 81.5185 148.605C81.6129 148.855 81.4642 149.127 81.1863 149.212C80.5895 149.395 79.9363 149.487 79.2677 149.487Z" fill="#2D3962"/>
<path d="M70.328 168.676L58.3572 165.994C58.3572 165.994 58.5397 164.616 58.9099 164.743C62.3615 165.926 70.1773 166.083 70.1773 166.083L70.328 168.676Z" fill="#2D3962"/>
<path d="M76.4345 132.894C75.2256 132.081 72.0539 132.918 71.1649 133.341C71.1649 133.341 70.5527 134.149 71.332 134.874C72.2395 135.719 75.1968 134.998 76.3012 134.863C76.3915 134.852 76.4848 134.84 76.5576 134.794C76.6468 134.737 76.6899 134.642 76.7247 134.552C76.858 134.21 76.9596 133.842 76.8673 133.491C76.8006 133.234 76.6489 133.039 76.4345 132.894Z" fill="#2D3962"/>
<path d="M88.2586 132.165C87.0691 131.331 83.879 132.111 82.9797 132.52C82.9797 132.52 82.3491 133.316 83.111 134.056C83.999 134.917 86.9717 134.248 88.0792 134.132C88.1694 134.123 88.2627 134.113 88.3376 134.067C88.4288 134.013 88.4729 133.918 88.5109 133.828C88.6524 133.489 88.7621 133.123 88.678 132.77C88.6165 132.511 88.4688 132.313 88.2586 132.165Z" fill="#2D3962"/>
<path d="M37.8568 116.932C32.8835 124.177 33.8402 134.487 36.1197 140.187C36.1197 140.187 43.3993 137.111 49.0442 140.285C50.9003 141.329 50.2091 146.331 55.5075 145.83C60.3978 145.367 58.4956 134.875 57.9675 126.527C57.9675 126.527 83.8124 127.448 88.8268 121.325C90.568 119.199 90.7618 115.08 85.4705 111.347C77.5491 105.759 41.8088 111.174 37.8568 116.932Z" fill="#2D3962"/>
<path d="M58.3869 176.225C55.8828 176.225 53.7448 175.925 52.0364 175.54C47.4927 174.519 44.963 172.746 44.8574 172.671C44.6266 172.507 44.5877 172.206 44.7692 171.998C44.9497 171.79 45.2839 171.755 45.5147 171.917C45.6121 171.987 55.4531 178.753 70.8828 172.82C71.1545 172.715 71.4652 172.829 71.579 173.073C71.6939 173.316 71.5688 173.598 71.2991 173.701C66.3616 175.601 61.9943 176.225 58.3869 176.225Z" fill="#2D3962"/>
</svg>
