<svg width="53" height="50" viewBox="0 0 53 50" fill="none" xmlns="http://www.w3.org/2000/svg">
<path fill-rule="evenodd" clip-rule="evenodd" d="M48.2931 46.7492C48.2079 46.7494 48.1235 46.7327 48.0447 46.7002C47.9659 46.6677 47.8943 46.6199 47.8341 46.5596C47.7738 46.4994 47.726 46.4278 47.6935 46.349C47.661 46.2702 47.6443 46.1858 47.6445 46.1006V20.2191C47.6445 20.047 47.7128 19.8821 47.8345 19.7604C47.9561 19.6388 48.1211 19.5704 48.2931 19.5704C48.4651 19.5704 48.6301 19.6388 48.7518 19.7604C48.8734 19.8821 48.9417 20.047 48.9417 20.2191V46.1076C48.9413 46.1923 48.9241 46.2761 48.8913 46.3542C48.8584 46.4323 48.8105 46.5032 48.7503 46.5627C48.6901 46.6223 48.6187 46.6694 48.5403 46.7014C48.4618 46.7334 48.3778 46.7497 48.2931 46.7492ZM5.42047 46.7492C5.33524 46.7494 5.25082 46.7327 5.17204 46.7002C5.09327 46.6677 5.02168 46.6199 4.96141 46.5596C4.90115 46.4994 4.85339 46.4278 4.82086 46.349C4.78833 46.2702 4.77167 46.1858 4.77185 46.1006V20.2191C4.77185 20.047 4.84019 19.8821 4.96183 19.7604C5.08347 19.6388 5.24845 19.5704 5.42047 19.5704C5.5925 19.5704 5.75748 19.6388 5.87912 19.7604C6.00076 19.8821 6.06911 20.047 6.06911 20.2191V46.1076C6.06563 46.2779 5.99596 46.4401 5.87487 46.5599C5.75378 46.6797 5.59078 46.7476 5.42047 46.7492Z" fill="#DF2624" stroke="#DF2624" stroke-width="0.3"/>
<path fill-rule="evenodd" clip-rule="evenodd" d="M36.2302 46.7491C36.1449 46.7493 36.0605 46.7327 35.9817 46.7001C35.903 46.6676 35.8314 46.6198 35.7711 46.5596C35.7108 46.4993 35.6631 46.4277 35.6306 46.3489C35.598 46.2702 35.5814 46.1857 35.5816 46.1005V32.8531L26.8604 22.2424L18.1392 32.8531V46.1005C18.1392 46.2725 18.0709 46.4375 17.9492 46.5592C17.8276 46.6808 17.6626 46.7491 17.4906 46.7491C17.3186 46.7491 17.1536 46.6808 17.0319 46.5592C16.9103 46.4375 16.842 46.2725 16.842 46.1005V32.6204C16.8404 32.4707 16.893 32.3255 16.99 32.2115L26.3598 20.8183C26.4206 20.7446 26.4971 20.6854 26.5837 20.6451C26.6703 20.6049 26.7649 20.5845 26.8604 20.5856C26.9557 20.586 27.0497 20.6071 27.1361 20.6472C27.2225 20.6874 27.2992 20.7457 27.361 20.8183L36.7307 32.2115C36.8278 32.3255 36.8803 32.4707 36.8788 32.6204V46.1005C36.8768 46.2719 36.8078 46.4357 36.6866 46.5569C36.5654 46.6781 36.4016 46.7471 36.2302 46.7491Z" fill="#DF2624" stroke="#DF2624" stroke-width="0.3"/>
<path fill-rule="evenodd" clip-rule="evenodd" d="M33.1915 29.5818C33.1063 29.582 33.0218 29.5653 32.943 29.5328C32.8643 29.5003 32.7927 29.4525 32.7324 29.3922C32.6722 29.3319 32.6244 29.2604 32.5919 29.1816C32.5593 29.1028 32.5427 29.0184 32.5429 28.9332V12.217C32.5429 12.045 32.6112 11.88 32.7328 11.7583C32.8545 11.6367 33.0195 11.5684 33.1915 11.5684C33.3635 11.5684 33.5285 11.6367 33.6501 11.7583C33.7718 11.88 33.8401 12.045 33.8401 12.217V28.9332C33.8403 29.0184 33.8237 29.1028 33.7911 29.1816C33.7586 29.2604 33.7108 29.3319 33.6505 29.3922C33.5903 29.4525 33.5187 29.5003 33.4399 29.5328C33.3611 29.5653 33.2767 29.582 33.1915 29.5818ZM20.5222 29.5818C20.4369 29.582 20.3525 29.5653 20.2737 29.5328C20.1949 29.5003 20.1234 29.4525 20.0631 29.3922C20.0028 29.3319 19.9551 29.2604 19.9225 29.1816C19.89 29.1028 19.8734 29.0184 19.8735 28.9332V12.217C19.8735 12.045 19.9419 11.88 20.0635 11.7583C20.1852 11.6367 20.3501 11.5684 20.5222 11.5684C20.6942 11.5684 20.8592 11.6367 20.9808 11.7583C21.1025 11.88 21.1708 12.045 21.1708 12.217V28.9332C21.1688 29.1046 21.0998 29.2684 20.9786 29.3896C20.8574 29.5108 20.6936 29.5798 20.5222 29.5818Z" fill="#DF2624" stroke="#DF2624" stroke-width="0.3"/>
<path fill-rule="evenodd" clip-rule="evenodd" d="M18.2943 14.3532C17.8204 14.3534 17.3571 14.2132 16.9629 13.9503C16.5687 13.6874 16.2613 13.3135 16.0795 12.8759C15.8977 12.4383 15.8496 11.9567 15.9414 11.4918C16.0332 11.0269 16.2607 10.5997 16.5951 10.2641L25.1612 1.70504C26.1483 0.767352 27.5654 0.767351 28.5453 1.69094L28.5595 1.70504L37.1185 10.2641C37.5691 10.7147 37.8223 11.3259 37.8223 11.9632C37.8223 12.6005 37.5691 13.2116 37.1185 13.6623C36.6678 14.1129 36.0566 14.3661 35.4193 14.3661C34.7821 14.3661 34.1709 14.1129 33.7202 13.6623L26.8603 6.80237L20.0004 13.6623C19.5437 14.1064 18.9314 14.3544 18.2943 14.3532ZM26.8533 2.29726C26.5551 2.30165 26.27 2.42024 26.0566 2.62862L17.5117 11.1735C17.3099 11.3823 17.1982 11.6619 17.2006 11.9523C17.203 12.2426 17.3195 12.5203 17.5248 12.7256C17.7301 12.9309 18.0078 13.0473 18.2981 13.0498C18.5884 13.0522 18.8681 12.9405 19.0769 12.7387L26.4021 5.42053C26.5267 5.30497 26.6904 5.24076 26.8603 5.24076C27.0303 5.24076 27.194 5.30497 27.3186 5.42053L34.6368 12.7387C34.7391 12.8421 34.861 12.9241 34.9954 12.9798C35.1297 13.0355 35.2739 13.0638 35.4193 13.063C35.5649 13.0644 35.7093 13.0364 35.8437 12.9807C35.9782 12.925 36.1001 12.8427 36.2019 12.7387C36.3054 12.6364 36.3873 12.5145 36.443 12.3801C36.4987 12.2457 36.527 12.1016 36.5263 11.9561C36.5277 11.8106 36.4997 11.6662 36.444 11.5317C36.3882 11.3973 36.3059 11.2754 36.2019 11.1735L27.65 2.62157C27.4353 2.41614 27.1504 2.30018 26.8533 2.29726Z" fill="#DF2624" stroke="#DF2624" stroke-width="0.3"/>
<path fill-rule="evenodd" clip-rule="evenodd" d="M20.5222 20.8606H3.7355C3.01 20.8606 2.31422 20.5724 1.80121 20.0594C1.2882 19.5464 1 18.8506 1 18.1251C1 17.3996 1.2882 16.7038 1.80121 16.1908C2.31422 15.6778 3.01 15.3896 3.7355 15.3896H20.5222C20.6942 15.3896 20.8592 15.4579 20.9808 15.5796C21.1025 15.7012 21.1708 15.8662 21.1708 16.0382C21.1708 16.2102 21.1025 16.3752 20.9808 16.4969C20.8592 16.6185 20.6942 16.6868 20.5222 16.6868H3.7355C3.35219 16.6868 2.98457 16.8391 2.71353 17.1102C2.44248 17.3812 2.2902 17.7488 2.2902 18.1321C2.2902 18.5155 2.44248 18.8831 2.71353 19.1541C2.98457 19.4252 3.35219 19.5774 3.7355 19.5774H20.5222C20.6923 19.5774 20.8555 19.645 20.9758 19.7654C21.0962 19.8857 21.1637 20.0489 21.1637 20.219C21.1637 20.3892 21.0962 20.5524 20.9758 20.6727C20.8555 20.793 20.6923 20.8606 20.5222 20.8606Z" fill="#DF2624" stroke="#DF2624" stroke-width="0.3"/>
<path fill-rule="evenodd" clip-rule="evenodd" d="M49.8794 20.8606H33.1915C33.0194 20.8606 32.8545 20.7923 32.7328 20.6706C32.6112 20.549 32.5428 20.384 32.5428 20.212C32.5428 20.0399 32.6112 19.875 32.7328 19.7533C32.8545 19.6317 33.0194 19.5633 33.1915 19.5633H49.8794C50.2628 19.5633 50.6304 19.4111 50.9014 19.14C51.1725 18.869 51.3247 18.5014 51.3247 18.118C51.3247 17.7347 51.1725 17.3671 50.9014 17.0961C50.6304 16.825 50.2628 16.6727 49.8794 16.6727H33.1915C33.0194 16.6727 32.8545 16.6044 32.7328 16.4828C32.6112 16.3611 32.5428 16.1961 32.5428 16.0241C32.5428 15.8521 32.6112 15.6871 32.7328 15.5655C32.8545 15.4438 33.0194 15.3755 33.1915 15.3755H49.8794C50.6068 15.3755 51.3044 15.6644 51.8187 16.1788C52.333 16.6931 52.622 17.3907 52.622 18.118C52.622 18.8454 52.333 19.543 51.8187 20.0573C51.3044 20.5716 50.6068 20.8606 49.8794 20.8606Z" fill="#DF2624" stroke="#DF2624" stroke-width="0.3"/>
<path fill-rule="evenodd" clip-rule="evenodd" d="M26.8534 19.3801C26.0753 19.3801 25.3147 19.1493 24.6677 18.7171C24.0208 18.2848 23.5165 17.6704 23.2188 16.9515C22.921 16.2327 22.8431 15.4416 22.9949 14.6785C23.1467 13.9154 23.5214 13.2144 24.0716 12.6642C24.6218 12.114 25.3227 11.7394 26.0859 11.5876C26.849 11.4358 27.64 11.5137 28.3589 11.8114C29.0777 12.1092 29.6921 12.6134 30.1244 13.2604C30.5567 13.9073 30.7874 14.6679 30.7874 15.446C30.787 16.4893 30.3724 17.4897 29.6347 18.2274C28.897 18.9651 27.8966 19.3797 26.8534 19.3801ZM26.8534 12.8022C26.3305 12.8022 25.8193 12.9572 25.3845 13.2477C24.9497 13.5382 24.6109 13.9512 24.4108 14.4343C24.2107 14.9174 24.1583 15.4489 24.2603 15.9618C24.3623 16.4747 24.6141 16.9457 24.9839 17.3155C25.3536 17.6852 25.8247 17.937 26.3376 18.0391C26.8504 18.1411 27.382 18.0887 27.8651 17.8886C28.3482 17.6885 28.7611 17.3496 29.0516 16.9149C29.3422 16.4801 29.4972 15.9689 29.4972 15.446C29.497 14.7449 29.2184 14.0725 28.7226 13.5767C28.2269 13.081 27.5545 12.8024 26.8534 12.8022Z" fill="#DF2624" stroke="#DF2624" stroke-width="0.3"/>
<path fill-rule="evenodd" clip-rule="evenodd" d="M31.443 46.7492C31.3578 46.7494 31.2734 46.7327 31.1946 46.7002C31.1158 46.6677 31.0443 46.6199 30.984 46.5596C30.9237 46.4994 30.8759 46.4278 30.8434 46.349C30.8109 46.2702 30.7942 46.1858 30.7944 46.1006V39.565C30.7944 38.5197 30.3792 37.5173 29.6401 36.7782C28.901 36.0391 27.8986 35.6239 26.8533 35.6239C25.8081 35.6239 24.8057 36.0391 24.0666 36.7782C23.3275 37.5173 22.9122 38.5197 22.9122 39.565V46.1076C22.9122 46.2796 22.8439 46.4446 22.7223 46.5663C22.6006 46.6879 22.4356 46.7562 22.2636 46.7562C22.0916 46.7562 21.9266 46.6879 21.805 46.5663C21.6833 46.4446 21.615 46.2796 21.615 46.1076V39.565C21.615 38.1775 22.1661 36.8469 23.1472 35.8659C24.1283 34.8848 25.4589 34.3337 26.8463 34.3337C28.2337 34.3337 29.5643 34.8848 30.5454 35.8659C31.5264 36.8469 32.0776 38.1775 32.0776 39.565V46.1076C32.0785 46.1915 32.0628 46.2748 32.0313 46.3526C31.9998 46.4304 31.9533 46.5012 31.8942 46.5609C31.8352 46.6205 31.7649 46.6679 31.6875 46.7002C31.6101 46.7325 31.527 46.7492 31.443 46.7492Z" fill="#DF2624" stroke="#DF2624" stroke-width="0.3"/>
<path fill-rule="evenodd" clip-rule="evenodd" d="M26.8533 33.8684C26.5163 33.8684 26.1826 33.802 25.8712 33.673C25.5598 33.5441 25.2769 33.355 25.0386 33.1167C24.8003 32.8784 24.6113 32.5955 24.4823 32.2842C24.3534 31.9728 24.287 31.6391 24.287 31.3021V29.4126C24.287 28.732 24.5574 28.0792 25.0386 27.598C25.5199 27.1167 26.1727 26.8463 26.8533 26.8463C27.5339 26.8463 28.1867 27.1167 28.6679 27.598C29.1492 28.0792 29.4196 28.732 29.4196 29.4126V31.3021C29.4201 31.6393 29.3541 31.9732 29.2254 32.2848C29.0966 32.5964 28.9076 32.8796 28.6692 33.118C28.4308 33.3564 28.1476 33.5454 27.836 33.6742C27.5244 33.8029 27.1904 33.8689 26.8533 33.8684ZM26.8533 28.1436C26.5148 28.1436 26.1903 28.278 25.9509 28.5173C25.7116 28.7566 25.5772 29.0812 25.5772 29.4197V31.3091C25.5772 31.6476 25.7116 31.9722 25.9509 32.2115C26.1903 32.4508 26.5148 32.5852 26.8533 32.5852C27.1917 32.5852 27.5163 32.4508 27.7556 32.2115C27.9949 31.9722 28.1294 31.6476 28.1294 31.3091V29.4197C28.1294 29.0812 27.9949 28.7566 27.7556 28.5173C27.5163 28.278 27.1917 28.1436 26.8533 28.1436Z" fill="#DF2624" stroke="#DF2624" stroke-width="0.3"/>
<path fill-rule="evenodd" clip-rule="evenodd" d="M26.8533 46.7492C26.7681 46.7494 26.6837 46.7327 26.6049 46.7002C26.5261 46.6676 26.4545 46.6199 26.3943 46.5596C26.334 46.4993 26.2862 46.4278 26.2537 46.349C26.2212 46.2702 26.2045 46.1858 26.2047 46.1005V34.9752C26.2047 34.8032 26.273 34.6382 26.3947 34.5166C26.5163 34.3949 26.6813 34.3266 26.8533 34.3266C27.0254 34.3266 27.1903 34.3949 27.312 34.5166C27.4336 34.6382 27.502 34.8032 27.502 34.9752V46.1005C27.5022 46.1858 27.4855 46.2702 27.453 46.349C27.4204 46.4278 27.3727 46.4993 27.3124 46.5596C27.2521 46.6199 27.1806 46.6676 27.1018 46.7002C27.023 46.7327 26.9386 46.7494 26.8533 46.7492Z" fill="#DF2624" stroke="#DF2624" stroke-width="0.3"/>
<path fill-rule="evenodd" clip-rule="evenodd" d="M12.0361 31H9.96391C9.4433 30.999 8.94425 30.7496 8.57612 30.3065C8.20799 29.8634 8.00082 29.2626 8 28.636V24.364C8.00082 23.7373 8.20799 23.1366 8.57612 22.6935C8.94425 22.2504 9.4433 22.001 9.96391 22H12.0361C12.5567 22.001 13.0557 22.2504 13.4239 22.6935C13.792 23.1366 13.9992 23.7373 14 24.364V28.636C14.0009 28.9467 13.9507 29.2546 13.8524 29.5419C13.754 29.8293 13.6094 30.0903 13.4268 30.3101C13.2443 30.5298 13.0274 30.7039 12.7887 30.8223C12.55 30.9407 12.2942 31.0011 12.0361 31ZM9.97165 23.7032C9.82624 23.7039 9.68696 23.7738 9.58415 23.8976C9.48133 24.0213 9.42328 24.189 9.42267 24.364V28.636C9.42328 28.811 9.48133 28.9787 9.58415 29.1024C9.68696 29.2262 9.82624 29.296 9.97165 29.2968H12.0438C12.1892 29.296 12.3285 29.2262 12.4313 29.1024C12.5341 28.9787 12.5922 28.811 12.5928 28.636V24.364C12.5922 24.189 12.5341 24.0213 12.4313 23.8976C12.3285 23.7738 12.1892 23.7039 12.0438 23.7032H9.97165Z" fill="#DF2624" stroke="#DF2624" stroke-width="0.3"/>
<path fill-rule="evenodd" clip-rule="evenodd" d="M12.0361 44H9.96391C9.4433 43.9991 8.94425 43.7774 8.57612 43.3836C8.20799 42.9897 8.00082 42.4557 8 41.8986V38.1013C8.00082 37.5443 8.20799 37.0103 8.57612 36.6164C8.94425 36.2225 9.4433 36.0009 9.96391 36H12.0361C12.5567 36.0009 13.0557 36.2225 13.4239 36.6164C13.792 37.0103 13.9992 37.5443 14 38.1013V41.8986C14.0009 42.1749 13.9507 42.4486 13.8524 42.704C13.754 42.9593 13.6094 43.1914 13.4268 43.3867C13.2443 43.582 13.0274 43.7368 12.7887 43.842C12.55 43.9473 12.2942 44.001 12.0361 44ZM9.97165 37.514C9.82624 37.5146 9.68696 37.5767 9.58415 37.6867C9.48133 37.7967 9.42328 37.9458 9.42267 38.1013V41.8986C9.42328 42.0542 9.48133 42.2033 9.58415 42.3133C9.68696 42.4233 9.82624 42.4854 9.97165 42.486H12.0438C12.1892 42.4854 12.3285 42.4233 12.4313 42.3133C12.5341 42.2033 12.5922 42.0542 12.5928 41.8986V38.1013C12.5922 37.9458 12.5341 37.7967 12.4313 37.6867C12.3285 37.5767 12.1892 37.5146 12.0438 37.514H9.97165Z" fill="#DF2624" stroke="#DF2624" stroke-width="0.3"/>
<path fill-rule="evenodd" clip-rule="evenodd" d="M44.0361 31H41.9639C41.4433 30.999 40.9443 30.7496 40.5761 30.3065C40.208 29.8634 40.0008 29.2627 40 28.636V24.364C40.0008 23.7373 40.208 23.1366 40.5761 22.6935C40.9443 22.2504 41.4433 22.001 41.9639 22H44.0361C44.5567 22.001 45.0557 22.2504 45.4239 22.6935C45.792 23.1366 45.9992 23.7373 46 24.364V28.636C45.9992 29.2627 45.792 29.8634 45.4239 30.3065C45.0557 30.7496 44.5567 30.999 44.0361 31ZM41.9639 23.7032C41.8185 23.7039 41.6792 23.7738 41.5764 23.8976C41.4736 24.0213 41.4155 24.189 41.4149 24.364V28.636C41.4155 28.811 41.4736 28.9787 41.5764 29.1024C41.6792 29.2262 41.8185 29.2961 41.9639 29.2968H44.0361C44.1815 29.2961 44.3208 29.2262 44.4236 29.1024C44.5264 28.9787 44.5844 28.811 44.585 28.636V24.364C44.5844 24.189 44.5264 24.0213 44.4236 23.8976C44.3208 23.7738 44.1815 23.7039 44.0361 23.7032H41.9639Z" fill="#DF2624" stroke="#DF2624" stroke-width="0.3"/>
<path fill-rule="evenodd" clip-rule="evenodd" d="M44.0361 44H41.9639C41.4433 43.9991 40.9443 43.7775 40.5761 43.3836C40.208 42.9897 40.0008 42.4557 40 41.8987V38.1013C40.0008 37.5443 40.208 37.0103 40.5761 36.6164C40.9443 36.2225 41.4433 36.0009 41.9639 36H44.0361C44.5567 36.0009 45.0557 36.2225 45.4239 36.6164C45.792 37.0103 45.9992 37.5443 46 38.1013V41.8987C45.9992 42.4557 45.792 42.9897 45.4239 43.3836C45.0557 43.7775 44.5567 43.9991 44.0361 44ZM41.9639 37.514C41.8185 37.5146 41.6792 37.5767 41.5764 37.6867C41.4736 37.7967 41.4155 37.9458 41.4149 38.1013V41.8987C41.4155 42.0542 41.4736 42.2033 41.5764 42.3133C41.6792 42.4233 41.8185 42.4854 41.9639 42.486H44.0361C44.1815 42.4854 44.3208 42.4233 44.4236 42.3133C44.5264 42.2033 44.5844 42.0542 44.585 41.8987V38.1013C44.5844 37.9458 44.5264 37.7967 44.4236 37.6867C44.3208 37.5767 44.1815 37.5146 44.0361 37.514H41.9639Z" fill="#DF2624" stroke="#DF2624" stroke-width="0.3"/>
<path fill-rule="evenodd" clip-rule="evenodd" d="M50.2249 49.1956H3.48868C2.99317 49.1956 2.51796 48.9988 2.16758 48.6484C1.8172 48.298 1.62036 47.8228 1.62036 47.3273C1.62036 46.8318 1.8172 46.3566 2.16758 46.0062C2.51796 45.6558 2.99317 45.459 3.48868 45.459H50.2249C50.7204 45.459 51.1956 45.6558 51.546 46.0062C51.8964 46.3566 52.0932 46.8318 52.0932 47.3273C52.0932 47.8228 51.8964 48.298 51.546 48.6484C51.1956 48.9988 50.7204 49.1956 50.2249 49.1956ZM3.48868 46.7492C3.33535 46.7492 3.1883 46.8101 3.07988 46.9185C2.97146 47.0269 2.91056 47.174 2.91056 47.3273C2.91056 47.4806 2.97146 47.6277 3.07988 47.7361C3.1883 47.8445 3.33535 47.9054 3.48868 47.9054H50.2249C50.3782 47.9054 50.5252 47.8445 50.6337 47.7361C50.7421 47.6277 50.803 47.4806 50.803 47.3273C50.803 47.174 50.7421 47.0269 50.6337 46.9185C50.5252 46.8101 50.3782 46.7492 50.2249 46.7492H3.48868Z" fill="#DF2624" stroke="#DF2624" stroke-width="0.3"/>
</svg>
