<svg width="62" height="62" viewBox="0 0 62 62" fill="none" xmlns="http://www.w3.org/2000/svg">
<g clip-path="url(#clip0_5440_20791)">
<path d="M42.28 51.41H19.72L21.22 45.41H40.78L42.28 51.41ZM22.28 49.41H39.72L39.22 47.41H22.78L22.28 49.41Z" fill="#DF2624"/>
<path d="M24 50.41H22V60.41H24V50.41Z" fill="#DF2624"/>
<path d="M40 50.41H38V60.41H40V50.41Z" fill="#DF2624"/>
<path d="M35 60.41H33V55.41H29V60.41H27V53.41H35V60.41Z" fill="#DF2624"/>
<path d="M46 43.41H16V37.41H46V43.41ZM18 41.41H44V39.41H18V41.41Z" fill="#DF2624"/>
<path d="M17 35.41H1V37.41H17V35.41Z" fill="#DF2624"/>
<path d="M12 32.41H10V30.41C10 30.1448 9.89464 29.8904 9.70711 29.7029C9.51957 29.5153 9.26522 29.41 9 29.41C8.73478 29.41 8.48043 29.5153 8.29289 29.7029C8.10536 29.8904 8 30.1448 8 30.41V32.41H6V30.41C6 29.6143 6.31607 28.8513 6.87868 28.2887C7.44129 27.726 8.20435 27.41 9 27.41C9.79565 27.41 10.5587 27.726 11.1213 28.2887C11.6839 28.8513 12 29.6143 12 30.41V32.41Z" fill="#DF2624"/>
<path d="M18 32.41H16V30.41C16 30.1448 15.8946 29.8904 15.7071 29.7029C15.5196 29.5153 15.2652 29.41 15 29.41C14.7348 29.41 14.4804 29.5153 14.2929 29.7029C14.1054 29.8904 14 30.1448 14 30.41V32.41H12V30.41C12 29.6143 12.3161 28.8513 12.8787 28.2887C13.4413 27.726 14.2044 27.41 15 27.41C15.7956 27.41 16.5587 27.726 17.1213 28.2887C17.6839 28.8513 18 29.6143 18 30.41V32.41Z" fill="#DF2624"/>
<path d="M6 32.41H4V30.41C4 30.1448 3.89464 29.8904 3.70711 29.7029C3.51957 29.5153 3.26522 29.41 3 29.41C2.73478 29.41 2.48043 29.5153 2.29289 29.7029C2.10536 29.8904 2 30.1448 2 30.41V32.41H0V30.41C0 29.6143 0.316068 28.8513 0.878677 28.2887C1.44129 27.726 2.20435 27.41 3 27.41C3.79565 27.41 4.55871 27.726 5.12132 28.2887C5.68393 28.8513 6 29.6143 6 30.41V32.41Z" fill="#DF2624"/>
<path d="M18 6.40997H16V60.41H18V6.40997Z" fill="#DF2624"/>
<path d="M62 61.41H0V31.41H17V33.41H2V59.41H60V33.41H45V31.41H62V61.41Z" fill="#DF2624"/>
<path d="M46 6.40997H44V60.41H46V6.40997Z" fill="#DF2624"/>
<path d="M17 7.41C16.2044 7.41 15.4413 7.09394 14.8787 6.53133C14.3161 5.96872 14 5.20565 14 4.41V4.24001C14.0007 3.44462 14.3172 2.68207 14.88 2.12L17 0L19.12 2.12C19.6828 2.68207 19.9993 3.44462 20 4.24001V4.41C20 5.20565 19.6839 5.96872 19.1213 6.53133C18.5587 7.09394 17.7956 7.41 17 7.41ZM17 2.82001L16.29 3.53001C16.1073 3.72164 16.0037 3.97524 16 4.24001V4.41C16 4.67522 16.1054 4.92957 16.2929 5.11711C16.4804 5.30465 16.7348 5.41 17 5.41C17.2652 5.41 17.5196 5.30465 17.7071 5.11711C17.8946 4.92957 18 4.67522 18 4.41V4.24001C17.9963 3.97524 17.8927 3.72164 17.71 3.53001L17 2.82001Z" fill="#DF2624"/>
<path d="M20 9.40997H14V11.41H20V9.40997Z" fill="#DF2624"/>
<path d="M45 7.41C44.2044 7.41 43.4413 7.09394 42.8787 6.53133C42.3161 5.96872 42 5.20565 42 4.41V4.24001C42.0007 3.44462 42.3172 2.68207 42.88 2.12L45 0L47.12 2.12C47.6828 2.68207 47.9993 3.44462 48 4.24001V4.41C48 5.20565 47.6839 5.96872 47.1213 6.53133C46.5587 7.09394 45.7956 7.41 45 7.41ZM45 2.82001L44.29 3.53001C44.1073 3.72164 44.0037 3.97524 44 4.24001V4.41C44 4.67522 44.1054 4.92957 44.2929 5.11711C44.4804 5.30465 44.7348 5.41 45 5.41C45.2652 5.41 45.5196 5.30465 45.7071 5.11711C45.8946 4.92957 46 4.67522 46 4.41V4.24001C45.9963 3.97524 45.8927 3.72164 45.71 3.53001L45 2.82001Z" fill="#DF2624"/>
<path d="M48 9.40997H42V11.41H48V9.40997Z" fill="#DF2624"/>
<path d="M61 35.41H45V37.41H61V35.41Z" fill="#DF2624"/>
<path d="M62 32.41H60V30.41C60 30.1448 59.8946 29.8904 59.7071 29.7029C59.5196 29.5153 59.2652 29.41 59 29.41C58.7348 29.41 58.4804 29.5153 58.2929 29.7029C58.1054 29.8904 58 30.1448 58 30.41V32.41H56V30.41C56 29.6143 56.3161 28.8513 56.8787 28.2887C57.4413 27.726 58.2044 27.41 59 27.41C59.7956 27.41 60.5587 27.726 61.1213 28.2887C61.6839 28.8513 62 29.6143 62 30.41V32.41Z" fill="#DF2624"/>
<path d="M56 32.41H54V30.41C54 30.1448 53.8946 29.8904 53.7071 29.7029C53.5196 29.5153 53.2652 29.41 53 29.41C52.7348 29.41 52.4804 29.5153 52.2929 29.7029C52.1054 29.8904 52 30.1448 52 30.41V32.41H50V30.41C50 29.6143 50.3161 28.8513 50.8787 28.2887C51.4413 27.726 52.2044 27.41 53 27.41C53.7956 27.41 54.5587 27.726 55.1213 28.2887C55.6839 28.8513 56 29.6143 56 30.41V32.41Z" fill="#DF2624"/>
<path d="M50 32.41H48V30.41C48 30.1448 47.8946 29.8904 47.7071 29.7029C47.5196 29.5153 47.2652 29.41 47 29.41C46.7348 29.41 46.4804 29.5153 46.2929 29.7029C46.1054 29.8904 46 30.1448 46 30.41V32.41H44V30.41C44 29.6143 44.3161 28.8513 44.8787 28.2887C45.4413 27.726 46.2044 27.41 47 27.41C47.7956 27.41 48.5587 27.726 49.1213 28.2887C49.6839 28.8513 50 29.6143 50 30.41V32.41Z" fill="#DF2624"/>
<path d="M12 50.41H4V44.41C4 43.3491 4.42142 42.3317 5.17157 41.5815C5.92172 40.8314 6.93913 40.41 8 40.41C9.06087 40.41 10.0783 40.8314 10.8284 41.5815C11.5786 42.3317 12 43.3491 12 44.41V50.41ZM6 48.41H10V44.41C10 43.8795 9.78929 43.3708 9.41422 42.9958C9.03914 42.6207 8.53043 42.41 8 42.41C7.46957 42.41 6.96086 42.6207 6.58578 42.9958C6.21071 43.3708 6 43.8795 6 44.41V48.41Z" fill="#DF2624"/>
<path d="M58 50.41H50V44.41C50 43.3491 50.4214 42.3317 51.1716 41.5815C51.9217 40.8314 52.9391 40.41 54 40.41C55.0609 40.41 56.0783 40.8314 56.8284 41.5815C57.5786 42.3317 58 43.3491 58 44.41V50.41ZM52 48.41H56V44.41C56 43.8795 55.7893 43.3708 55.4142 42.9958C55.0391 42.6207 54.5304 42.41 54 42.41C53.4696 42.41 52.9609 42.6207 52.5858 42.9958C52.2107 43.3708 52 43.8795 52 44.41V48.41Z" fill="#DF2624"/>
<path d="M22 18.41H20V16.41C20 16.1448 19.8946 15.8904 19.7071 15.7029C19.5196 15.5153 19.2652 15.41 19 15.41C18.7348 15.41 18.4804 15.5153 18.2929 15.7029C18.1054 15.8904 18 16.1448 18 16.41V18.41H16V16.41C16 15.6143 16.3161 14.8513 16.8787 14.2887C17.4413 13.726 18.2044 13.41 19 13.41C19.7956 13.41 20.5587 13.726 21.1213 14.2887C21.6839 14.8513 22 15.6143 22 16.41V18.41Z" fill="#DF2624"/>
<path d="M30 18.41H28V16.41C28 16.1448 27.8946 15.8904 27.7071 15.7029C27.5196 15.5153 27.2652 15.41 27 15.41C26.7348 15.41 26.4804 15.5153 26.2929 15.7029C26.1054 15.8904 26 16.1448 26 16.41V18.41H24V16.41C24 15.6143 24.3161 14.8513 24.8787 14.2887C25.4413 13.726 26.2044 13.41 27 13.41C27.7956 13.41 28.5587 13.726 29.1213 14.2887C29.6839 14.8513 30 15.6143 30 16.41V18.41Z" fill="#DF2624"/>
<path d="M38 18.41H36V16.41C36 16.1448 35.8946 15.8904 35.7071 15.7029C35.5196 15.5153 35.2652 15.41 35 15.41C34.7348 15.41 34.4804 15.5153 34.2929 15.7029C34.1054 15.8904 34 16.1448 34 16.41V18.41H32V16.41C32 15.6143 32.3161 14.8513 32.8787 14.2887C33.4413 13.726 34.2044 13.41 35 13.41C35.7956 13.41 36.5587 13.726 37.1213 14.2887C37.6839 14.8513 38 15.6143 38 16.41V18.41Z" fill="#DF2624"/>
<path d="M46 18.41H44V16.41C44 16.1448 43.8946 15.8904 43.7071 15.7029C43.5196 15.5153 43.2652 15.41 43 15.41C42.7348 15.41 42.4804 15.5153 42.2929 15.7029C42.1054 15.8904 42 16.1448 42 16.41V18.41H40V16.41C40 15.6143 40.3161 14.8513 40.8787 14.2887C41.4413 13.726 42.2044 13.41 43 13.41C43.7956 13.41 44.5587 13.726 45.1213 14.2887C45.6839 14.8513 46 15.6143 46 16.41V18.41Z" fill="#DF2624"/>
<path d="M42 29.41H40V31.41H42V29.41Z" fill="#DF2624"/>
<path d="M38 29.41H36V31.41H38V29.41Z" fill="#DF2624"/>
<path d="M34 29.41H32V31.41H34V29.41Z" fill="#DF2624"/>
<path d="M30 29.41H28V31.41H30V29.41Z" fill="#DF2624"/>
<path d="M26 29.41H24V31.41H26V29.41Z" fill="#DF2624"/>
<path d="M22 29.41H20V31.41H22V29.41Z" fill="#DF2624"/>
<path d="M45 17.41H17V19.41H45V17.41Z" fill="#DF2624"/>
<path d="M45 21.41H17V23.41H45V21.41Z" fill="#DF2624"/>
</g>
<defs>
<clipPath id="clip0_5440_20791">
<rect width="62" height="61.41" fill="white"/>
</clipPath>
</defs>
</svg>
