<svg width="69" height="62" viewBox="0 0 69 62" fill="none" xmlns="http://www.w3.org/2000/svg">
<path fill-rule="evenodd" clip-rule="evenodd" d="M14.2191 57.6313H18.2786V1.49661C18.2783 1.2667 18.331 1.03982 18.4327 0.833613C18.5344 0.627408 18.6822 0.447428 18.8648 0.307698C19.0474 0.167967 19.2597 0.0722492 19.4854 0.0279744C19.711 -0.0163005 19.9437 -0.00792805 20.1656 0.0524359L44.1225 6.5623C44.4388 6.646 44.7183 6.83243 44.9171 7.09228C45.116 7.35213 45.2229 7.67068 45.221 7.99787V16.4378C45.2998 16.4001 45.3822 16.3704 45.467 16.3493L64.9031 11.0707C65.1236 11.0082 65.3557 10.9989 65.5805 11.0436C65.8053 11.0883 66.0162 11.1857 66.196 11.3278C66.3806 11.4631 66.5301 11.6408 66.6318 11.8459C66.7334 12.0509 66.7844 12.2774 66.7803 12.5063V57.6313H67.0546C67.4492 57.632 67.8274 57.789 68.1064 58.068C68.3854 58.347 68.5424 58.7252 68.5431 59.1198V60.5098C68.5424 60.9044 68.3854 61.2826 68.1064 61.5616C67.8274 61.8406 67.4492 61.9977 67.0546 61.9983H1.48846C1.0939 61.9977 0.715679 61.8406 0.436679 61.5616C0.157679 61.2826 0.000650562 60.9044 0 60.5098V59.1198C0.000650562 58.7252 0.157679 58.347 0.436679 58.068C0.715679 57.789 1.0939 57.632 1.48846 57.6313H10.1068V49.2886C8.78219 48.8048 7.6703 47.8699 6.96623 46.6481C6.26217 45.4262 6.01091 43.9955 6.25656 42.6068C6.50222 41.2182 7.22908 39.9605 8.30959 39.0543C9.3901 38.1482 10.7552 37.6515 12.1654 37.6515C13.5756 37.6515 14.9407 38.1482 16.0212 39.0543C17.1017 39.9605 17.8286 41.2182 18.0743 42.6068C18.3199 43.9955 18.0687 45.4262 17.3646 46.6481C16.6605 47.8699 15.5486 48.8048 14.224 49.2886L14.2191 57.6313ZM54.2969 57.6313H56.8482V51.0243H54.2969V57.6313ZM29.8258 48.6329V57.6313H33.67V48.6329H29.8258ZM32.6551 13.3379H35.1609V15.8449H32.6515L32.6551 13.3379ZM12.7319 59.1198V48.1285C13.8716 47.9843 14.9136 47.4112 15.6457 46.5259C16.3778 45.6406 16.7452 44.5097 16.6729 43.3631C16.6007 42.2166 16.0943 41.1406 15.2568 40.3543C14.4193 39.5679 13.3136 39.1302 12.1648 39.1302C11.016 39.1302 9.91033 39.5679 9.07284 40.3543C8.23534 41.1406 7.72895 42.2166 7.65669 43.3631C7.58443 44.5097 7.95175 45.6406 8.68389 46.5259C9.41603 47.4112 10.458 47.9843 11.5977 48.1285V59.1198H1.48354V60.5098H67.0497V59.1198H65.2881V12.5063L45.852 17.7848V59.1173H43.7214V7.99541L19.7732 1.49415V59.1198H12.7319ZM32.6515 23.0018H35.1572V25.5076H32.6515V23.0018ZM36.9729 15.8449V13.3379H39.4799V15.8449H36.9729ZM49.3013 45.6129H51.3274V47.65H49.3013V45.6129ZM52.8035 59.1198V49.537H58.3391V59.1198H52.8035ZM59.8091 22.1161H61.8462V24.152H59.8067L59.8091 22.1161ZM56.3106 22.1161H58.3391V24.152H56.3082L56.3106 22.1161ZM52.8035 22.1161H54.8406V24.152H52.8035V22.1161ZM49.3038 22.1161H51.3274V24.152H49.3013L49.3038 22.1161ZM59.8091 29.9447H61.8462V31.983H59.8067L59.8091 29.9447ZM56.3106 29.9447H58.3391V31.983H56.3082L56.3106 29.9447ZM52.8035 29.9447H54.8406V31.983H52.8035V29.9447ZM59.8091 37.7831H61.8462V39.8202H59.8067L59.8091 37.7831ZM56.3106 37.7831H58.3391V39.8202H56.3082L56.3106 37.7831ZM49.3013 29.9471H51.3274V31.983H49.3013V29.9471ZM59.8116 45.6154H61.8487V47.6525H59.8067L59.8116 45.6154ZM52.8035 39.8202V37.7831H54.8406V39.8202H52.8035ZM56.3106 45.6129H58.3391V47.65H56.3082L56.3106 45.6129ZM49.3038 37.7856H51.3274V39.8227H49.3013L49.3038 37.7856ZM52.8035 45.6129H54.8406V47.65H52.8035V45.6129ZM32.6539 32.6547H35.1597V35.1617H32.6515L32.6539 32.6547ZM32.6539 42.3088H35.1597V44.8158H32.6515L32.6539 42.3088ZM28.3398 47.1358H35.1597V59.1198H28.3374L28.3398 47.1358ZM24.0184 13.3379H26.5242V15.8449H24.0184V13.3379ZM28.3398 13.3379H30.8468V15.8449H28.3374L28.3398 13.3379ZM24.0184 23.003H26.5242V25.5088H24.0184V23.003ZM28.3374 23.003H30.8444V25.5088H28.3374V23.003ZM24.0184 32.6547H26.5242V35.1617H24.0184V32.6547ZM24.0184 42.3088H26.5242V44.8158H24.0184V42.3088ZM28.3398 32.6547H30.8468V35.1617H28.3374L28.3398 32.6547ZM28.3398 42.3088H30.8468V44.8158H28.3374L28.3398 42.3088ZM36.9754 22.9957H39.4824V25.5015H36.9729L36.9754 22.9957ZM36.9754 32.6485H39.4824V35.1555H36.9729L36.9754 32.6485ZM36.9754 42.3026H39.4824V44.8096H36.9729L36.9754 42.3026Z" fill="#DF2624" stroke="#DF2624" stroke-width="0.4"/>
</svg>
