<svg width="232" height="185" viewBox="0 0 232 185" fill="none" xmlns="http://www.w3.org/2000/svg">
<path d="M226.958 30.2084V145.688C226.958 148.351 225.9 150.905 224.017 152.788C222.134 154.671 219.58 155.729 216.917 155.729H36.1667C33.5035 155.729 30.9493 154.671 29.0661 152.788C27.183 150.905 26.125 148.351 26.125 145.688V15.1459C26.125 12.4827 27.183 9.92852 29.0661 8.04534C30.9493 6.16216 33.5035 5.1042 36.1667 5.1042H88.8352C90.5961 5.10601 92.3256 5.57085 93.8502 6.4521C95.3748 7.33335 96.6408 8.60002 97.5212 10.125H206.875C212.201 10.125 217.31 12.241 221.076 16.0073C224.842 19.7737 226.958 24.8819 226.958 30.2084Z" fill="#BEC6C6"/>
<path d="M196.833 50.2917V140.667C196.833 144.662 198.42 148.493 201.245 151.317C204.07 154.142 207.901 155.729 211.896 155.729H36.1667C33.5035 155.729 30.9493 154.671 29.0661 152.788C27.183 150.905 26.125 148.351 26.125 145.688V15.1459C26.125 12.4827 27.183 9.92852 29.0661 8.04534C30.9493 6.16216 33.5035 5.1042 36.1667 5.1042H88.8352C90.5961 5.10601 92.3256 5.57085 93.8502 6.4521C95.3748 7.33335 96.6408 8.60002 97.5212 10.125L106.458 40.25H186.792C189.455 40.25 192.009 41.308 193.892 43.1912C195.775 45.0744 196.833 47.6285 196.833 50.2917Z" fill="#F8F9F9"/>
<path d="M206.875 5.10418H100.032C98.6222 3.5284 96.8969 2.26697 94.9679 1.40193C93.0388 0.536894 90.9493 0.0876235 88.8352 0.0833435H36.1667C32.1718 0.0833435 28.3406 1.67028 25.5159 4.49505C22.6911 7.31981 21.1042 11.151 21.1042 15.1458V145.688C21.1042 149.682 22.6911 153.514 25.5159 156.338C28.3406 159.163 32.1718 160.75 36.1667 160.75H211.896C217.222 160.75 222.331 158.634 226.097 154.868C229.863 151.101 231.979 145.993 231.979 140.667V30.2083C231.979 23.5503 229.334 17.165 224.626 12.457C219.918 7.74907 213.533 5.10418 206.875 5.10418ZM36.1667 150.708C34.835 150.708 33.558 150.179 32.6164 149.238C31.6748 148.296 31.1458 147.019 31.1458 145.688V15.1458C31.1458 13.8142 31.6748 12.5372 32.6164 11.5956C33.558 10.654 34.835 10.125 36.1667 10.125H88.8352C89.9621 10.0833 91.0702 10.4223 91.9811 11.0872C92.8919 11.752 93.5523 12.7042 93.856 13.7902L101.437 41.6558C101.751 42.7325 102.415 43.6734 103.325 44.3286C104.235 44.9837 105.338 45.3154 106.458 45.2708H186.792C188.123 45.2708 189.4 45.7998 190.342 46.7414C191.284 47.683 191.812 48.9601 191.812 50.2917C191.812 146.491 190.758 144.282 194.524 150.708H36.1667ZM221.937 140.667C221.937 143.33 220.88 145.884 218.996 147.767C217.113 149.65 214.559 150.708 211.896 150.708C209.233 150.708 206.678 149.65 204.795 147.767C202.912 145.884 201.854 143.33 201.854 140.667V50.2917C201.854 46.2969 200.267 42.4656 197.442 39.6409C194.618 36.8161 190.786 35.2292 186.792 35.2292H110.224L104.5 15.1458H206.875C210.87 15.1458 214.701 16.7328 217.526 19.5575C220.351 22.3823 221.937 26.2135 221.937 30.2083V140.667Z" fill="#6F6F6F"/>
<path d="M166.708 135.646H146.625C143.962 135.646 141.408 134.588 139.525 132.705C137.641 130.822 136.583 128.267 136.583 125.604C136.583 122.941 137.641 120.387 139.525 118.504C141.408 116.62 143.962 115.562 146.625 115.562H166.708C169.372 115.562 171.926 116.62 173.809 118.504C175.692 120.387 176.75 122.941 176.75 125.604C176.75 128.267 175.692 130.822 173.809 132.705C171.926 134.588 169.372 135.646 166.708 135.646Z" fill="#BEC6C6"/>
<circle cx="55" cy="130" r="50" fill="white" stroke="#6F6F6F" stroke-width="10"/>
<line x1="80.2829" y1="91.5801" x2="30.2829" y2="174.58" stroke="#6F6F6F" stroke-width="10"/>
</svg>
