<svg width="27" height="27" viewBox="0 0 27 27" fill="none" xmlns="http://www.w3.org/2000/svg">
<path fill-rule="evenodd" clip-rule="evenodd" d="M8.4375 7.17188V10.5469C8.4375 11.7118 9.3819 12.6562 10.5469 12.6562H16.4531C17.6181 12.6562 18.5625 11.7119 18.5625 10.5469V7.17188C18.5625 6.0069 17.6181 5.0625 16.4531 5.0625H10.5469C9.3819 5.0625 8.4375 6.0069 8.4375 7.17188ZM10.125 7.17188C10.125 6.93888 10.3139 6.75 10.5469 6.75H16.4531C16.6861 6.75 16.875 6.93888 16.875 7.17188V10.5469C16.875 10.7799 16.6861 10.9688 16.4531 10.9688H10.5469C10.3139 10.9688 10.125 10.7799 10.125 10.5469V7.17188Z" fill="#C88E20"/>
<path fill-rule="evenodd" clip-rule="evenodd" d="M20.25 1.6875H6.75C5.35203 1.6875 4.21875 2.82078 4.21875 4.21875V22.7812C4.21875 24.1792 5.35203 25.3125 6.75 25.3125H20.25C21.648 25.3125 22.7812 24.1792 22.7812 22.7812V4.21875C22.7812 2.82078 21.648 1.6875 20.25 1.6875ZM6.75 3.375H20.25C20.716 3.375 21.0938 3.75276 21.0938 4.21875V22.7812C21.0938 23.2472 20.716 23.625 20.25 23.625H6.75C6.28401 23.625 5.90625 23.2472 5.90625 22.7812V4.21875C5.90625 3.75276 6.28401 3.375 6.75 3.375Z" fill="#C88E20"/>
<path d="M10.2757 20.6562L10.0476 19.3979H8.97012L8.75776 20.6562H7.63307L8.70271 15.2058H10.3465L11.4004 20.6562H10.2757ZM9.13528 18.399H9.87459L9.49707 16.2912L9.13528 18.399ZM14.6428 15.2058V16.2283H13.6597V20.6562H12.4642V16.2283H11.4811V15.2058H14.6428ZM19.4334 15.2058V20.6562H18.293V18.7608C18.293 18.2155 18.3428 17.6781 18.4424 17.1485L17.6874 19.272H16.775L16.02 17.1485C16.1196 17.6361 16.1694 18.1735 16.1694 18.7608V20.6562H15.0369V15.2058H16.2481L17.2312 17.99L18.2143 15.2058H19.4334Z" fill="#C88E20"/>
</svg>
