<svg width="37" height="46" viewBox="0 0 37 46" fill="none" xmlns="http://www.w3.org/2000/svg">
<path d="M18.386 0C13.5115 0.0056496 8.83832 1.91054 5.39151 5.29681C1.94471 8.68307 0.00577016 13.2742 1.95609e-05 18.0631C-0.00581866 21.9766 1.29537 25.7839 3.70397 28.901C3.70397 28.901 4.20541 29.5496 4.28731 29.6432L18.386 45.9789L32.4915 29.635C32.565 29.548 33.0681 28.901 33.0681 28.901L33.0698 28.8961C35.4772 25.7804 36.7778 21.9748 36.7721 18.0631C36.7663 13.2742 34.8274 8.68307 31.3806 5.29681C27.9338 1.91054 23.2606 0.0056496 18.386 0ZM18.386 24.6315C17.0637 24.6315 15.7711 24.2463 14.6716 23.5246C13.5721 22.8028 12.7152 21.777 12.2091 20.5767C11.7031 19.3765 11.5707 18.0558 11.8287 16.7817C12.0867 15.5075 12.7234 14.3372 13.6585 13.4186C14.5935 12.4999 15.7848 11.8744 17.0817 11.6209C18.3786 11.3675 19.7229 11.4976 20.9446 11.9947C22.1663 12.4919 23.2105 13.3337 23.9451 14.4139C24.6798 15.4941 25.0719 16.764 25.0719 18.0631C25.0697 19.8045 24.3646 21.4739 23.1112 22.7053C21.8578 23.9366 20.1586 24.6294 18.386 24.6315Z" fill="#69A1CF"/>
<ellipse cx="18.3861" cy="18.0188" rx="15.1786" ry="14.9121" fill="white"/>
<path d="M17.025 12.5C16.6453 12.5 16.3375 12.8078 16.3375 13.1875C16.3375 13.5672 16.6453 13.875 17.025 13.875H19.775C20.1547 13.875 20.4625 13.5672 20.4625 13.1875C20.4625 12.8078 20.1547 12.5 19.775 12.5H17.025Z" fill="#69A1CF"/>
<path fill-rule="evenodd" clip-rule="evenodd" d="M10.5793 17.3125H10.8375V26.25H9.46252C9.08283 26.25 8.77502 26.5578 8.77502 26.9375C8.77502 27.3172 9.08283 27.625 9.46252 27.625L27.3375 27.625C27.7172 27.625 28.025 27.3172 28.025 26.9375C28.025 26.5578 27.7172 26.25 27.3375 26.25H25.9625V17.3125H26.2208C27.2172 17.3125 28.025 16.5047 28.025 15.5083C28.025 14.8923 27.7108 14.3189 27.1916 13.9875L19.5098 9.08351C18.833 8.65144 17.967 8.65144 17.2902 9.08351L9.60841 13.9875C9.08924 14.3189 8.77502 14.8923 8.77502 15.5083C8.77502 16.5047 9.58281 17.3125 10.5793 17.3125ZM10.5793 15.9375H26.2208C26.4578 15.9375 26.65 15.7453 26.65 15.5083C26.65 15.3617 26.5753 15.2253 26.4518 15.1465L18.77 10.2425C18.5444 10.0985 18.2557 10.0985 18.0301 10.2425L10.3483 15.1465C10.2248 15.2253 10.15 15.3617 10.15 15.5083C10.15 15.7453 10.3422 15.9375 10.5793 15.9375ZM12.2125 26.25V17.3125H14.9625V26.25H12.2125ZM16.3375 26.25V17.3125H20.4625V26.25L16.3375 26.25ZM21.8375 26.25V17.3125H24.5875V26.25H21.8375Z" fill="#69A1CF"/>
</svg>
