<svg width="37" height="46" viewBox="0 0 37 46" fill="none" xmlns="http://www.w3.org/2000/svg">
<path d="M18.386 0C13.5115 0.0056496 8.83832 1.91054 5.39151 5.29681C1.94471 8.68307 0.00577016 13.2742 1.95609e-05 18.0631C-0.00581866 21.9766 1.29537 25.7839 3.70397 28.901C3.70397 28.901 4.20541 29.5496 4.28731 29.6432L18.386 45.9789L32.4915 29.635C32.565 29.548 33.0681 28.901 33.0681 28.901L33.0698 28.8961C35.4772 25.7804 36.7778 21.9748 36.7721 18.0631C36.7663 13.2742 34.8274 8.68307 31.3806 5.29681C27.9338 1.91054 23.2606 0.0056496 18.386 0ZM18.386 24.6315C17.0637 24.6315 15.7711 24.2463 14.6716 23.5246C13.5721 22.8028 12.7152 21.777 12.2091 20.5767C11.7031 19.3765 11.5707 18.0558 11.8287 16.7817C12.0867 15.5075 12.7234 14.3372 13.6585 13.4186C14.5935 12.4999 15.7848 11.8744 17.0817 11.6209C18.3786 11.3675 19.7229 11.4976 20.9446 11.9947C22.1663 12.4919 23.2105 13.3337 23.9451 14.4139C24.6798 15.4941 25.0719 16.764 25.0719 18.0631C25.0697 19.8045 24.3646 21.4739 23.1112 22.7053C21.8578 23.9366 20.1586 24.6294 18.386 24.6315Z" fill="#C06422"/>
<ellipse cx="18.3861" cy="18.0188" rx="15.1786" ry="14.9121" fill="white"/>
<g clip-path="url(#clip0_918_11375)">
<path d="M10.5846 23.1549H9.48104C9.18247 23.1549 8.94491 22.9174 8.94491 22.6299V12.6199C8.94491 12.3326 9.18256 12.0949 9.48104 12.0949H27.519C27.8175 12.0949 28.0549 12.3324 28.0549 12.6199V22.6299C28.0549 22.9176 27.8176 23.1549 27.519 23.1549H26.6446C26.3546 23.1549 26.1196 23.39 26.1196 23.6799C26.1196 23.9699 26.3546 24.2049 26.6446 24.2049H27.519C28.3933 24.2049 29.1049 23.5017 29.1049 22.6299V12.6199C29.1049 11.7482 28.3932 11.0449 27.519 11.0449H9.48104C8.60701 11.0449 7.89491 11.7483 7.89491 12.6199V22.6299C7.89491 23.5017 8.60695 24.2049 9.48104 24.2049H10.5846C10.8745 24.2049 11.1096 23.9699 11.1096 23.6799C11.1096 23.39 10.8745 23.1549 10.5846 23.1549Z" fill="#C06422" stroke="#C06422" stroke-width="0.21"/>
<path d="M22.2275 23.2599H14.867C14.6351 23.2599 14.447 23.448 14.447 23.6799C14.447 23.9119 14.6351 24.0999 14.867 24.0999H22.2275C22.4595 24.0999 22.6475 23.9119 22.6475 23.6799C22.6475 23.448 22.4595 23.2599 22.2275 23.2599ZM28.37 17.5942H26.3641C26.0163 17.5942 25.7341 17.312 25.7341 16.9642V11.9689C25.7341 11.7369 25.5461 11.5489 25.3141 11.5489C25.0821 11.5489 24.8941 11.7369 24.8941 11.9689V16.9642C24.8941 17.7759 25.5523 18.4342 26.3641 18.4342H28.37C28.602 18.4342 28.79 18.2461 28.79 18.0142C28.79 17.7822 28.602 17.5942 28.37 17.5942Z" fill="#C06422"/>
<path d="M24.4598 22.1049C25.3296 22.1049 26.0348 22.8102 26.0348 23.6799C26.0348 24.5498 25.3297 25.2549 24.4598 25.2549C23.59 25.2549 22.8848 24.5497 22.8848 23.6799C22.8848 22.8103 23.5901 22.1049 24.4598 22.1049ZM24.4598 26.3049C25.9095 26.3049 27.0848 25.1297 27.0848 23.6799C27.0848 22.2303 25.9095 21.0549 24.4598 21.0549C23.0102 21.0549 21.8348 22.2304 21.8348 23.6799C21.8348 25.1297 23.0101 26.3049 24.4598 26.3049ZM12.767 22.1049C13.6367 22.1049 14.342 22.8103 14.342 23.6799C14.342 24.5497 13.6368 25.2549 12.767 25.2549C11.8972 25.2549 11.192 24.5498 11.192 23.6799C11.192 22.8102 11.8972 22.1049 12.767 22.1049ZM12.767 26.3049C14.2167 26.3049 15.392 25.1297 15.392 23.6799C15.392 22.2304 14.2166 21.0549 12.767 21.0549C11.3173 21.0549 10.142 22.2303 10.142 23.6799C10.142 25.1297 11.3173 26.3049 12.767 26.3049Z" fill="#C06422" stroke="#C06422" stroke-width="0.21"/>
<path d="M22.3151 23.2966H14.867C14.635 23.2966 14.447 23.4847 14.447 23.7166C14.447 23.9486 14.635 24.1366 14.867 24.1366H22.3151C22.547 24.1366 22.7351 23.9486 22.7351 23.7166C22.7351 23.4847 22.547 23.2966 22.3151 23.2966ZM28.58 20.096H26.842C26.6101 20.096 26.422 20.284 26.422 20.516C26.422 20.748 26.6101 20.936 26.842 20.936H28.58C28.812 20.936 29 20.748 29 20.516C29 20.284 28.812 20.096 28.58 20.096ZM22.8838 17.5994V14.0013H20.7837V17.5994H22.8838ZM22.8838 18.4394H20.7837C20.3199 18.4394 19.9438 18.0632 19.9438 17.5994V14.0013C19.9438 13.5373 20.3199 13.1613 20.7837 13.1613H22.8838C23.3476 13.1613 23.7237 13.5373 23.7237 14.0013V17.5994C23.7237 18.0632 23.3476 18.4394 22.8838 18.4394ZM17.8834 17.5994V14.0013H15.7834V17.5994H17.8834ZM17.8834 18.4394H15.7834C15.3196 18.4394 14.9434 18.0632 14.9434 17.5994V14.0013C14.9434 13.5373 15.3196 13.1613 15.7834 13.1613H17.8834C18.3473 13.1613 18.7234 13.5373 18.7234 14.0013V17.5994C18.7234 18.0632 18.3472 18.4394 17.8834 18.4394ZM12.8831 17.5994V14.0013H10.7831V17.5994H12.8831ZM12.8831 18.4394H10.7831C10.3193 18.4394 9.94312 18.0632 9.94312 17.5994V14.0013C9.94312 13.5373 10.3193 13.1613 10.7831 13.1613H12.8831C13.347 13.1613 13.7231 13.5373 13.7231 14.0013V17.5994C13.7231 18.0632 13.3469 18.4394 12.8831 18.4394Z" fill="#C06422"/>
</g>
<defs>
<clipPath id="clip0_918_11375">
<rect width="21" height="21" fill="white" transform="translate(8 8)"/>
</clipPath>
</defs>
</svg>
