<svg width="37" height="37" viewBox="0 0 37 37" fill="none" xmlns="http://www.w3.org/2000/svg">
<g clip-path="url(#clip0_920_11539)">
<path d="M11.5846 23.1549H10.481C10.1825 23.1549 9.94491 22.9174 9.94491 22.6299V12.6199C9.94491 12.3326 10.1826 12.0949 10.481 12.0949H28.519C28.8175 12.0949 29.0549 12.3324 29.0549 12.6199V22.6299C29.0549 22.9176 28.8176 23.1549 28.519 23.1549H27.6446C27.3546 23.1549 27.1196 23.39 27.1196 23.6799C27.1196 23.9699 27.3546 24.2049 27.6446 24.2049H28.519C29.3933 24.2049 30.1049 23.5017 30.1049 22.6299V12.6199C30.1049 11.7482 29.3932 11.0449 28.519 11.0449H10.481C9.60701 11.0449 8.89491 11.7483 8.89491 12.6199V22.6299C8.89491 23.5017 9.60695 24.2049 10.481 24.2049H11.5846C11.8745 24.2049 12.1096 23.9699 12.1096 23.6799C12.1096 23.39 11.8745 23.1549 11.5846 23.1549Z" fill="#C06422" stroke="#C06422" stroke-width="0.21"/>
<path d="M23.2275 23.2599H15.867C15.6351 23.2599 15.447 23.448 15.447 23.6799C15.447 23.9119 15.6351 24.0999 15.867 24.0999H23.2275C23.4595 24.0999 23.6475 23.9119 23.6475 23.6799C23.6475 23.448 23.4595 23.2599 23.2275 23.2599ZM29.37 17.5942H27.3641C27.0163 17.5942 26.7341 17.312 26.7341 16.9642V11.9689C26.7341 11.7369 26.5461 11.5489 26.3141 11.5489C26.0821 11.5489 25.8941 11.7369 25.8941 11.9689V16.9642C25.8941 17.7759 26.5523 18.4342 27.3641 18.4342H29.37C29.602 18.4342 29.79 18.2461 29.79 18.0142C29.79 17.7822 29.602 17.5942 29.37 17.5942Z" fill="#C06422"/>
<path d="M25.4598 22.1049C26.3296 22.1049 27.0348 22.8102 27.0348 23.6799C27.0348 24.5498 26.3297 25.2549 25.4598 25.2549C24.59 25.2549 23.8848 24.5497 23.8848 23.6799C23.8848 22.8103 24.5901 22.1049 25.4598 22.1049ZM25.4598 26.3049C26.9095 26.3049 28.0848 25.1297 28.0848 23.6799C28.0848 22.2303 26.9095 21.0549 25.4598 21.0549C24.0102 21.0549 22.8348 22.2304 22.8348 23.6799C22.8348 25.1297 24.0101 26.3049 25.4598 26.3049ZM13.767 22.1049C14.6367 22.1049 15.342 22.8103 15.342 23.6799C15.342 24.5497 14.6368 25.2549 13.767 25.2549C12.8972 25.2549 12.192 24.5498 12.192 23.6799C12.192 22.8102 12.8972 22.1049 13.767 22.1049ZM13.767 26.3049C15.2167 26.3049 16.392 25.1297 16.392 23.6799C16.392 22.2304 15.2166 21.0549 13.767 21.0549C12.3173 21.0549 11.142 22.2303 11.142 23.6799C11.142 25.1297 12.3173 26.3049 13.767 26.3049Z" fill="#C06422" stroke="#C06422" stroke-width="0.21"/>
<path d="M23.3151 23.2966H15.867C15.635 23.2966 15.447 23.4847 15.447 23.7166C15.447 23.9486 15.635 24.1366 15.867 24.1366H23.3151C23.547 24.1366 23.7351 23.9486 23.7351 23.7166C23.7351 23.4847 23.547 23.2966 23.3151 23.2966ZM29.58 20.096H27.842C27.6101 20.096 27.422 20.284 27.422 20.516C27.422 20.748 27.6101 20.936 27.842 20.936H29.58C29.812 20.936 30 20.748 30 20.516C30 20.284 29.812 20.096 29.58 20.096ZM23.8838 17.5994V14.0013H21.7837V17.5994H23.8838ZM23.8838 18.4394H21.7837C21.3199 18.4394 20.9438 18.0632 20.9438 17.5994V14.0013C20.9438 13.5373 21.3199 13.1613 21.7837 13.1613H23.8838C24.3476 13.1613 24.7237 13.5373 24.7237 14.0013V17.5994C24.7237 18.0632 24.3476 18.4394 23.8838 18.4394ZM18.8834 17.5994V14.0013H16.7834V17.5994H18.8834ZM18.8834 18.4394H16.7834C16.3196 18.4394 15.9434 18.0632 15.9434 17.5994V14.0013C15.9434 13.5373 16.3196 13.1613 16.7834 13.1613H18.8834C19.3473 13.1613 19.7234 13.5373 19.7234 14.0013V17.5994C19.7234 18.0632 19.3472 18.4394 18.8834 18.4394ZM13.8831 17.5994V14.0013H11.7831V17.5994H13.8831ZM13.8831 18.4394H11.7831C11.3193 18.4394 10.9431 18.0632 10.9431 17.5994V14.0013C10.9431 13.5373 11.3193 13.1613 11.7831 13.1613H13.8831C14.347 13.1613 14.7231 13.5373 14.7231 14.0013V17.5994C14.7231 18.0632 14.3469 18.4394 13.8831 18.4394Z" fill="#C06422"/>
</g>
<defs>
<clipPath id="clip0_920_11539">
<rect width="21" height="21" fill="white" transform="translate(9 8)"/>
</clipPath>
</defs>
</svg>
