<svg width="361" height="482" viewBox="0 0 361 482" fill="none" xmlns="http://www.w3.org/2000/svg">
<path d="M176.17 0.0125948C199.968 -0.268076 219.104 4.1675 241.934 10.7904C226.587 29.5367 209.398 47.0061 193.214 64.915L98.3035 169.708C80.7598 189.071 62.7652 208.14 45.8077 228.118C64.1071 242.053 80.3481 249.683 102.751 241.068C109.409 238.508 115.793 233.013 121.108 227.968C135.9 213.932 149.4 197.04 163.215 181.782L244.545 92.011C254.741 80.6865 268.535 62.5651 280.143 54.188C283.51 51.7605 287.218 50.4936 291.243 50.4304C299.217 50.3069 305.527 55.2395 310.926 61.2493C343.424 97.4233 360.097 148.415 360.116 198.761C360.131 248.517 344.646 293.445 315.08 331.006C301.781 347.904 286.431 363.368 272.079 379.206L198.368 460.612C192.203 467.386 185.957 474.091 180.069 481.16C176.071 474.944 171.204 469.411 167.249 463.134C156.508 446.104 150.607 424.392 149.999 403.753C149.353 381.794 153.929 360.466 164.005 341.48C176.436 318.056 197.487 299.184 214.76 280.066L276.407 211.944C289.109 197.945 302.112 184.15 314.384 169.694C297.661 155.85 279.932 147.757 258.983 155.939C252.677 158.404 246.593 162.862 241.478 167.554C226.199 181.57 211.972 199.424 197.829 215.049L114.169 307.369C104.682 317.814 94.9266 331.423 83.8761 339.771C79.7123 342.917 75.1576 344.893 70.0871 345.166C62.218 345.591 55.3365 341.819 49.6797 336.045C19.621 305.367 1.44666 252.008 0.109971 207.514C-1.51855 153.425 14.9517 101.911 48.7521 62.2921C82.4717 22.7742 127.221 1.5705 176.17 0.0125948Z" fill="#931602"/>
</svg>
