<svg width="37" height="37" viewBox="0 0 37 37" fill="none" xmlns="http://www.w3.org/2000/svg">
<path d="M29.0284 14.1707C29.2443 14.2077 29.4632 14.2265 29.679 14.2265C29.9363 14.2265 30.1449 14.0359 30.1449 13.8009C30.1449 13.5659 29.9363 13.3753 29.679 13.3753C29.5207 13.3753 29.3596 13.3615 29.2002 13.3342C28.9473 13.2909 28.7038 13.443 28.6564 13.6739C28.6089 13.9049 28.7755 14.1273 29.0284 14.1707Z" fill="#AC6BFF"/>
<path d="M29.72 14.6854H27.2763V13.4476C27.3692 13.5096 27.4635 13.5696 27.5601 13.6256C27.6376 13.6706 27.724 13.692 27.8094 13.692C27.9636 13.692 28.1144 13.6222 28.2032 13.4945C28.3412 13.2961 28.2769 13.0331 28.0596 12.9072C26.3899 11.9386 25.2683 9.78102 25.2683 8.37349C25.2683 8.36527 25.2674 8.35727 25.2669 8.34923V8.33608C25.2669 8.10104 25.0583 7.91052 24.801 7.91052H23.3693C23.112 7.91052 22.9034 8.10104 22.9034 8.33608V8.34966C22.9029 8.35761 22.9021 8.36544 22.9021 8.37353C22.9021 10.2441 20.9234 11.7659 18.4913 11.7659C16.0591 11.7659 14.0805 10.2441 14.0805 8.37353C14.0805 8.36549 14.0796 8.35761 14.0792 8.34966V8.33608C14.0792 8.10104 13.8706 7.91052 13.6132 7.91052H12.1816C11.9242 7.91052 11.7156 8.10104 11.7156 8.33608V8.34923C11.7151 8.35732 11.7143 8.36532 11.7143 8.37349C11.7143 9.34244 11.1893 10.6189 10.3768 11.6254C9.84923 12.279 8.74844 13.3754 7.30348 13.3754C7.04615 13.3754 6.83755 13.5659 6.83755 13.8009C6.83755 14.036 7.04615 14.2265 7.30348 14.2265C8.14335 14.2265 8.97684 13.9481 9.7472 13.4235V14.6855H7.26252C7.00519 14.6855 6.7966 14.876 6.7966 15.111V16.6082C6.7966 16.8432 7.00519 17.0338 7.26252 17.0338H11.7156V20.239C11.7156 20.474 11.9242 20.6645 12.1816 20.6645H13.6132C13.8706 20.6645 14.0792 20.474 14.0792 20.239V17.0338H22.9034V20.239C22.9034 20.474 23.112 20.6645 23.3693 20.6645H24.801C25.0584 20.6645 25.2669 20.474 25.2669 20.239V17.0338H29.72C29.9773 17.0338 30.1859 16.8432 30.1859 16.6082V15.111C30.1859 14.8759 29.9773 14.6854 29.72 14.6854ZM26.3444 12.678V14.6854H25.2669V11.2861C25.5635 11.7808 25.9251 12.2569 26.3444 12.678ZM24.3351 8.76155V14.6854H23.8352V8.76155H24.3351ZM22.9034 10.7637V14.6854H21.8053V11.6994C22.2277 11.4334 22.5984 11.1177 22.9034 10.7637ZM18.9455 12.6014V13.8768C18.9455 14.1118 19.1541 14.3024 19.4115 14.3024C19.6688 14.3024 19.8774 14.1118 19.8774 13.8768V12.4718C20.2246 12.3977 20.5579 12.2964 20.8735 12.1709V14.6854H17.9932V12.5983C18.1572 12.6104 18.3233 12.6169 18.4913 12.6169C18.6443 12.6169 18.7957 12.6115 18.9455 12.6014ZM17.0613 12.4624V14.6854H16.109V13.0534C16.109 12.8183 15.9005 12.6278 15.6431 12.6278C15.3858 12.6278 15.1772 12.8183 15.1772 13.0534V14.6854H14.0792V10.7637C14.7818 11.5793 15.8332 12.1911 17.0613 12.4624ZM13.1473 8.76155V14.6854H12.6475V8.76155H13.1473ZM10.6788 12.6358C10.8324 12.4782 10.9821 12.3098 11.1269 12.1304C11.343 11.8626 11.54 11.5799 11.7156 11.2893V14.6854H10.6791V12.6405L10.6788 12.6358ZM13.1473 19.8134H12.6475V17.0337H13.1473V19.8134ZM24.3351 19.8134H23.8352V17.0337H24.3351V19.8134ZM29.2541 16.1826H7.72845V15.5365H29.2541V16.1826Z" fill="#AC6BFF"/>
</svg>
