<svg width="37" height="46" viewBox="0 0 37 46" fill="none" xmlns="http://www.w3.org/2000/svg">
<path d="M18.386 0C13.5115 0.0056496 8.83832 1.91054 5.39151 5.29681C1.94471 8.68307 0.00577016 13.2742 1.95609e-05 18.0631C-0.00581866 21.9766 1.29537 25.7839 3.70397 28.901C3.70397 28.901 4.20541 29.5496 4.28731 29.6432L18.386 45.9789L32.4915 29.635C32.565 29.548 33.0681 28.901 33.0681 28.901L33.0698 28.8961C35.4772 25.7804 36.7778 21.9748 36.7721 18.0631C36.7663 13.2742 34.8274 8.68307 31.3806 5.29681C27.9338 1.91054 23.2606 0.0056496 18.386 0ZM18.386 24.6315C17.0637 24.6315 15.7711 24.2463 14.6716 23.5246C13.5721 22.8028 12.7152 21.777 12.2091 20.5767C11.7031 19.3765 11.5707 18.0558 11.8287 16.7817C12.0867 15.5075 12.7234 14.3372 13.6585 13.4186C14.5935 12.4999 15.7848 11.8744 17.0817 11.6209C18.3786 11.3675 19.7229 11.4976 20.9446 11.9947C22.1663 12.4919 23.2105 13.3337 23.9451 14.4139C24.6798 15.4941 25.0719 16.764 25.0719 18.0631C25.0697 19.8045 24.3646 21.4739 23.1112 22.7053C21.8578 23.9366 20.1586 24.6294 18.386 24.6315Z" fill="#AC6BFF"/>
<ellipse cx="18.3861" cy="18.0188" rx="15.1786" ry="14.9121" fill="white"/>
<path d="M13.5294 10.359H12.1065V18.778H13.5294V10.359Z" fill="white"/>
<path d="M13.5294 20.6385H12.1065V25.1504H13.5294V20.6385Z" fill="white"/>
<path d="M24.6482 20.6385H23.2254V25.1504H24.6482V20.6385Z" fill="white"/>
<path d="M24.6482 10.359H23.2254V18.778H24.6482V10.359Z" fill="white"/>
<path d="M24.6482 18.7779H23.2254H13.5294H12.1065H7.2178V20.6385H12.1065H13.5294H23.2254H24.6482H29.537V18.7779H24.6482Z" fill="white"/>
<path d="M28.8496 17.6095C29.0641 17.6555 29.2817 17.6788 29.4962 17.6788C29.752 17.6788 29.9593 17.442 29.9593 17.15C29.9593 16.8579 29.752 16.6211 29.4962 16.6211C29.3389 16.6211 29.1787 16.6039 29.0204 16.57C28.769 16.5162 28.527 16.7052 28.4799 16.9922C28.4327 17.2793 28.5983 17.5556 28.8496 17.6095Z" fill="#AC6BFF"/>
<path d="M29.5369 18.2491H27.1083V16.711C27.2007 16.788 27.2943 16.8626 27.3903 16.9322C27.4673 16.988 27.5532 17.0147 27.6381 17.0147C27.7913 17.0147 27.9413 16.9279 28.0295 16.7693C28.1666 16.5227 28.1027 16.1959 27.8868 16.0394C26.2274 14.8358 25.1126 12.1546 25.1126 10.4055C25.1126 10.3953 25.1118 10.3853 25.1113 10.3754V10.359C25.1113 10.0669 24.904 9.83018 24.6482 9.83018H23.2253C22.9696 9.83018 22.7623 10.0669 22.7623 10.359V10.3759C22.7618 10.3858 22.761 10.3955 22.761 10.4056C22.761 12.73 20.7945 14.6211 18.3774 14.6211C15.9602 14.6211 13.9937 12.73 13.9937 10.4056C13.9937 10.3956 13.9929 10.3858 13.9924 10.3759V10.359C13.9924 10.0669 13.7851 9.83018 13.5294 9.83018H12.1065C11.8508 9.83018 11.6435 10.0669 11.6435 10.359V10.3754C11.643 10.3854 11.6421 10.3953 11.6421 10.4055C11.6421 11.6096 11.1203 13.1958 10.3129 14.4465C9.78856 15.2587 8.69455 16.6212 7.25849 16.6212C7.00274 16.6212 6.79543 16.858 6.79543 17.15C6.79543 17.4421 7.00274 17.6789 7.25849 17.6789C8.09319 17.6789 8.92154 17.3329 9.68715 16.6811V18.2492H7.21778C6.96204 18.2492 6.75473 18.486 6.75473 18.778V20.6386C6.75473 20.9306 6.96204 21.1674 7.21778 21.1674H11.6435V25.1504C11.6435 25.4425 11.8508 25.6792 12.1065 25.6792H13.5294C13.7851 25.6792 13.9924 25.4425 13.9924 25.1504V21.1674H22.7623V25.1504C22.7623 25.4425 22.9696 25.6792 23.2254 25.6792H24.6483C24.904 25.6792 25.1113 25.4425 25.1113 25.1504V21.1674H29.5369C29.7927 21.1674 30 20.9306 30 20.6386V18.778C30 18.4859 29.7927 18.2491 29.5369 18.2491ZM26.1822 15.7546V18.2491H25.1113V14.0249C25.406 14.6396 25.7654 15.2313 26.1822 15.7546ZM24.1852 10.8877V18.2491H23.6884V10.8877H24.1852ZM22.7623 13.3757V18.2491H21.671V14.5386C22.0908 14.2079 22.4592 13.8157 22.7623 13.3757ZM18.8288 15.6594V17.2443C18.8288 17.5364 19.0361 17.7731 19.2919 17.7731C19.5476 17.7731 19.7549 17.5364 19.7549 17.2443V15.4983C20.1 15.4062 20.4313 15.2804 20.745 15.1245V18.2491H17.8824V15.6556C18.0454 15.6706 18.2104 15.6787 18.3774 15.6787C18.5294 15.6787 18.6799 15.6719 18.8288 15.6594ZM16.9563 15.4866V18.2491H16.0098V16.221C16.0098 15.929 15.8025 15.6922 15.5468 15.6922C15.291 15.6922 15.0837 15.929 15.0837 16.221V18.2491H13.9924V13.3757C14.6908 14.3893 15.7356 15.1495 16.9563 15.4866ZM13.0663 10.8877V18.2491H12.5696V10.8877H13.0663ZM10.613 15.7022C10.7657 15.5063 10.9144 15.2971 11.0583 15.0741C11.2732 14.7413 11.4689 14.39 11.6435 14.0289V18.2491H10.6133V15.708L10.613 15.7022ZM13.0663 24.6215H12.5696V21.1673H13.0663V24.6215ZM24.1852 24.6215H23.6884V21.1673H24.1852V24.6215ZM29.0739 20.1097H7.68084V19.3068H29.0739V20.1097Z" fill="#AC6BFF"/>
</svg>
