<svg width="37" height="46" viewBox="0 0 37 46" fill="none" xmlns="http://www.w3.org/2000/svg">
<path d="M18.386 0C13.5115 0.0056496 8.83832 1.91054 5.39151 5.29681C1.94471 8.68307 0.00577016 13.2742 1.95609e-05 18.0631C-0.00581866 21.9766 1.29537 25.7839 3.70397 28.901C3.70397 28.901 4.20541 29.5496 4.28731 29.6432L18.386 45.9789L32.4915 29.635C32.565 29.548 33.0681 28.901 33.0681 28.901L33.0698 28.8961C35.4772 25.7804 36.7778 21.9748 36.7721 18.0631C36.7663 13.2742 34.8274 8.68307 31.3806 5.29681C27.9338 1.91054 23.2606 0.0056496 18.386 0ZM18.386 24.6315C17.0637 24.6315 15.7711 24.2463 14.6716 23.5246C13.5721 22.8028 12.7152 21.777 12.2091 20.5767C11.7031 19.3765 11.5707 18.0558 11.8287 16.7817C12.0867 15.5075 12.7234 14.3372 13.6585 13.4186C14.5935 12.4999 15.7848 11.8744 17.0817 11.6209C18.3786 11.3675 19.7229 11.4976 20.9446 11.9947C22.1663 12.4919 23.2105 13.3337 23.9451 14.4139C24.6798 15.4941 25.0719 16.764 25.0719 18.0631C25.0697 19.8045 24.3646 21.4739 23.1112 22.7053C21.8578 23.9366 20.1586 24.6294 18.386 24.6315Z" fill="#C7A97E"/>
<ellipse cx="18.3861" cy="18.0188" rx="15.1786" ry="14.9121" fill="white"/>
<g clip-path="url(#clip0_1292_11729)">
<path d="M27.75 23.625H10.25V24.875H11.5V26.125H12.75V24.875H15.875V26.125H17.125V24.875H20.25V26.125H21.5V24.875H24.625V26.125H25.875V24.875H27.75V23.625Z" fill="#C7A97E"/>
<path d="M14 18H10.25V16.75H14V15.5H10.25V14.25H14C14.3314 14.2503 14.6492 14.3822 14.8835 14.6165C15.1178 14.8508 15.2497 15.1686 15.25 15.5V16.75C15.2497 17.0814 15.1178 17.3992 14.8835 17.6335C14.6492 17.8678 14.3314 17.9997 14 18Z" fill="#C7A97E"/>
<path d="M26.8437 16.8941L21.4812 11.9786C20.4445 11.0264 19.0878 10.4986 17.6801 10.5H10.25V11.75H16.5V14.25C16.5004 14.5814 16.6322 14.8991 16.8665 15.1335C17.1009 15.3678 17.4186 15.4996 17.75 15.5H23.4728L25.9989 17.8157C26.2284 18.0261 26.389 18.3009 26.4597 18.6041C26.5304 18.9074 26.5078 19.2249 26.3949 19.5151C26.282 19.8052 26.0841 20.0545 25.8271 20.2303C25.57 20.406 25.2659 20.5001 24.9546 20.5H10.25V21.75H24.9546C25.5179 21.7501 26.068 21.58 26.533 21.262C26.9979 20.944 27.356 20.493 27.5602 19.968C27.7644 19.4431 27.8053 18.8687 27.6774 18.3201C27.5495 17.7715 27.259 17.2746 26.8437 16.8941ZM17.75 14.25V11.7534C18.8202 11.7684 19.8476 12.1765 20.6364 12.9L22.1091 14.25H17.75Z" fill="#C7A97E"/>
</g>
<defs>
<clipPath id="clip0_1292_11729">
<rect width="20" height="20" fill="white" transform="translate(9 8)"/>
</clipPath>
</defs>
</svg>
