<svg width="20" height="20" viewBox="0 0 20 20" fill="none" xmlns="http://www.w3.org/2000/svg">
<g clip-path="url(#clip0_1292_11723)">
<path d="M18.75 15.625H1.25V16.875H2.5V18.125H3.75V16.875H6.875V18.125H8.125V16.875H11.25V18.125H12.5V16.875H15.625V18.125H16.875V16.875H18.75V15.625Z" fill="#C7A97E"/>
<path d="M5 10H1.25V8.75H5V7.5H1.25V6.25H5C5.33141 6.25035 5.64915 6.38215 5.8835 6.6165C6.11785 6.85085 6.24965 7.16859 6.25 7.5V8.75C6.24965 9.08141 6.11785 9.39915 5.8835 9.6335C5.64915 9.86785 5.33141 9.99965 5 10Z" fill="#C7A97E"/>
<path d="M17.8437 8.89407L12.4812 3.97857C11.4445 3.02635 10.0878 2.4986 8.68012 2.5H1.25V3.75H7.5V6.25C7.50038 6.58141 7.6322 6.89913 7.86654 7.13347C8.10088 7.3678 8.4186 7.49962 8.75 7.5H14.4728L16.9989 9.81569C17.2284 10.0261 17.389 10.3009 17.4597 10.6041C17.5304 10.9074 17.5078 11.2249 17.3949 11.5151C17.282 11.8052 17.0841 12.0545 16.8271 12.2303C16.57 12.406 16.2659 12.5001 15.9546 12.5H1.25V13.75H15.9546C16.5179 13.7501 17.068 13.58 17.533 13.262C17.9979 12.944 18.356 12.493 18.5602 11.968C18.7644 11.4431 18.8053 10.8687 18.6774 10.3201C18.5495 9.77148 18.259 9.27464 17.8437 8.89407ZM8.75 6.25V3.75338C9.82024 3.76842 10.8476 4.17653 11.6364 4.9L13.1091 6.25H8.75Z" fill="#C7A97E"/>
</g>
<defs>
<clipPath id="clip0_1292_11723">
<rect width="20" height="20" fill="white"/>
</clipPath>
</defs>
</svg>
