<svg width="37" height="37" viewBox="0 0 37 37" fill="none" xmlns="http://www.w3.org/2000/svg">
<mask id="path-1-inside-1_920_11549" fill="white">
<path d="M26.9 25.2H22.7V19.6H26.9C27.0281 19.6 27.1537 19.5648 27.2632 19.4983C27.3726 19.4318 27.4618 19.3365 27.5209 19.2229C27.5799 19.1092 27.6067 18.9816 27.5982 18.8538C27.5898 18.726 27.5464 18.6029 27.4729 18.4981L24.324 14H25.5C25.633 13.9999 25.7632 13.9619 25.8754 13.8905C25.9876 13.8191 26.0771 13.7172 26.1334 13.5967C26.1898 13.4763 26.2107 13.3423 26.1937 13.2104C26.1767 13.0785 26.1224 12.9542 26.0373 12.852L22.5373 8.652C22.4696 8.57652 22.3868 8.51614 22.2942 8.47481C22.2016 8.43347 22.1014 8.41211 22 8.41211C21.8986 8.41211 21.7984 8.43347 21.7058 8.47481C21.6132 8.51614 21.5304 8.57652 21.4627 8.652L17.9627 12.852C17.8776 12.9542 17.8233 13.0785 17.8063 13.2104C17.7893 13.3423 17.8102 13.4763 17.8665 13.5967C17.9229 13.7172 18.0124 13.8191 18.1246 13.8905C18.2368 13.9619 18.367 13.9999 18.5 14H19.676L16.5271 18.4981C16.4536 18.6029 16.4102 18.726 16.4017 18.8538C16.3933 18.9816 16.4201 19.1092 16.4791 19.2229C16.5382 19.3365 16.6273 19.4318 16.7368 19.4983C16.8463 19.5648 16.9719 19.6 17.1 19.6H21.3V25.2H13.6V22.4H15.7C15.8856 22.4 16.0637 22.3263 16.195 22.195C16.3262 22.0637 16.4 21.8857 16.4 21.7C16.4 21.5144 16.3262 21.3363 16.195 21.205C16.0637 21.0738 15.8856 21 15.7 21H10.1C9.91434 21 9.73629 21.0738 9.60502 21.205C9.47374 21.3363 9.39999 21.5144 9.39999 21.7C9.39999 21.8857 9.47374 22.0637 9.60502 22.195C9.73629 22.3263 9.91434 22.4 10.1 22.4H12.2V25.2H10.1C9.91434 25.2 9.73629 25.2738 9.60502 25.405C9.47374 25.5363 9.39999 25.7143 9.39999 25.9C9.39999 26.0857 9.47374 26.2637 9.60502 26.395C9.73629 26.5263 9.91434 26.6 10.1 26.6H26.9C27.0856 26.6 27.2637 26.5263 27.395 26.395C27.5262 26.2637 27.6 26.0857 27.6 25.9C27.6 25.7143 27.5262 25.5363 27.395 25.405C27.2637 25.2738 27.0856 25.2 26.9 25.2Z"/>
</mask>
<path d="M26.9 25.2H22.7V19.6H26.9C27.0281 19.6 27.1537 19.5648 27.2632 19.4983C27.3726 19.4318 27.4618 19.3365 27.5209 19.2229C27.5799 19.1092 27.6067 18.9816 27.5982 18.8538C27.5898 18.726 27.5464 18.6029 27.4729 18.4981L24.324 14H25.5C25.633 13.9999 25.7632 13.9619 25.8754 13.8905C25.9876 13.8191 26.0771 13.7172 26.1334 13.5967C26.1898 13.4763 26.2107 13.3423 26.1937 13.2104C26.1767 13.0785 26.1224 12.9542 26.0373 12.852L22.5373 8.652C22.4696 8.57652 22.3868 8.51614 22.2942 8.47481C22.2016 8.43347 22.1014 8.41211 22 8.41211C21.8986 8.41211 21.7984 8.43347 21.7058 8.47481C21.6132 8.51614 21.5304 8.57652 21.4627 8.652L17.9627 12.852C17.8776 12.9542 17.8233 13.0785 17.8063 13.2104C17.7893 13.3423 17.8102 13.4763 17.8665 13.5967C17.9229 13.7172 18.0124 13.8191 18.1246 13.8905C18.2368 13.9619 18.367 13.9999 18.5 14H19.676L16.5271 18.4981C16.4536 18.6029 16.4102 18.726 16.4017 18.8538C16.3933 18.9816 16.4201 19.1092 16.4791 19.2229C16.5382 19.3365 16.6273 19.4318 16.7368 19.4983C16.8463 19.5648 16.9719 19.6 17.1 19.6H21.3V25.2H13.6V22.4H15.7C15.8856 22.4 16.0637 22.3263 16.195 22.195C16.3262 22.0637 16.4 21.8857 16.4 21.7C16.4 21.5144 16.3262 21.3363 16.195 21.205C16.0637 21.0738 15.8856 21 15.7 21H10.1C9.91434 21 9.73629 21.0738 9.60502 21.205C9.47374 21.3363 9.39999 21.5144 9.39999 21.7C9.39999 21.8857 9.47374 22.0637 9.60502 22.195C9.73629 22.3263 9.91434 22.4 10.1 22.4H12.2V25.2H10.1C9.91434 25.2 9.73629 25.2738 9.60502 25.405C9.47374 25.5363 9.39999 25.7143 9.39999 25.9C9.39999 26.0857 9.47374 26.2637 9.60502 26.395C9.73629 26.5263 9.91434 26.6 10.1 26.6H26.9C27.0856 26.6 27.2637 26.5263 27.395 26.395C27.5262 26.2637 27.6 26.0857 27.6 25.9C27.6 25.7143 27.5262 25.5363 27.395 25.405C27.2637 25.2738 27.0856 25.2 26.9 25.2Z" stroke="#448847" stroke-width="2.8" mask="url(#path-1-inside-1_920_11549)"/>
</svg>
