<svg width="37" height="46" viewBox="0 0 37 46" fill="none" xmlns="http://www.w3.org/2000/svg">
<path d="M18.386 0C13.5115 0.0056496 8.83832 1.91054 5.39151 5.29681C1.94471 8.68307 0.00577016 13.2742 1.95609e-05 18.0631C-0.00581866 21.9766 1.29537 25.7839 3.70397 28.901C3.70397 28.901 4.20541 29.5496 4.28731 29.6432L18.386 45.9789L32.4915 29.635C32.565 29.548 33.0681 28.901 33.0681 28.901L33.0698 28.8961C35.4772 25.7804 36.7778 21.9748 36.7721 18.0631C36.7663 13.2742 34.8274 8.68307 31.3806 5.29681C27.9338 1.91054 23.2606 0.0056496 18.386 0ZM18.386 24.6315C17.0637 24.6315 15.7711 24.2463 14.6716 23.5246C13.5721 22.8028 12.7152 21.777 12.2091 20.5767C11.7031 19.3765 11.5707 18.0558 11.8287 16.7817C12.0867 15.5075 12.7234 14.3372 13.6585 13.4186C14.5935 12.4999 15.7848 11.8744 17.0817 11.6209C18.3786 11.3675 19.7229 11.4976 20.9446 11.9947C22.1663 12.4918 23.2105 13.3337 23.9451 14.4139C24.6798 15.4941 25.0719 16.764 25.0719 18.0631C25.0697 19.8045 24.3646 21.4739 23.1112 22.7053C21.8578 23.9366 20.1586 24.6294 18.386 24.6315Z" fill="#448847"/>
<ellipse cx="18.3861" cy="18.0188" rx="15.1786" ry="14.9121" fill="white"/>
<mask id="path-3-inside-1_918_11385" fill="white">
<path d="M26.9 25.2H22.7V19.6H26.9C27.0281 19.6 27.1537 19.5648 27.2632 19.4983C27.3726 19.4318 27.4618 19.3365 27.5209 19.2229C27.5799 19.1092 27.6067 18.9816 27.5982 18.8538C27.5898 18.726 27.5464 18.6029 27.4729 18.4981L24.324 14H25.5C25.633 13.9999 25.7632 13.9619 25.8754 13.8905C25.9876 13.8191 26.0771 13.7172 26.1334 13.5967C26.1898 13.4763 26.2107 13.3423 26.1937 13.2104C26.1767 13.0785 26.1224 12.9542 26.0373 12.852L22.5373 8.652C22.4696 8.57652 22.3868 8.51614 22.2942 8.47481C22.2016 8.43347 22.1014 8.41211 22 8.41211C21.8986 8.41211 21.7984 8.43347 21.7058 8.47481C21.6132 8.51614 21.5304 8.57652 21.4627 8.652L17.9627 12.852C17.8776 12.9542 17.8233 13.0785 17.8063 13.2104C17.7893 13.3423 17.8102 13.4763 17.8665 13.5967C17.9229 13.7172 18.0124 13.8191 18.1246 13.8905C18.2368 13.9619 18.367 13.9999 18.5 14H19.676L16.5271 18.4981C16.4536 18.6029 16.4102 18.726 16.4017 18.8538C16.3933 18.9816 16.4201 19.1092 16.4791 19.2229C16.5382 19.3365 16.6273 19.4318 16.7368 19.4983C16.8463 19.5648 16.9719 19.6 17.1 19.6H21.3V25.2H13.6V22.4H15.7C15.8856 22.4 16.0637 22.3263 16.195 22.195C16.3262 22.0637 16.4 21.8857 16.4 21.7C16.4 21.5144 16.3262 21.3363 16.195 21.205C16.0637 21.0738 15.8856 21 15.7 21H10.1C9.91434 21 9.73629 21.0738 9.60502 21.205C9.47374 21.3363 9.39999 21.5144 9.39999 21.7C9.39999 21.8857 9.47374 22.0637 9.60502 22.195C9.73629 22.3263 9.91434 22.4 10.1 22.4H12.2V25.2H10.1C9.91434 25.2 9.73629 25.2738 9.60502 25.405C9.47374 25.5363 9.39999 25.7143 9.39999 25.9C9.39999 26.0857 9.47374 26.2637 9.60502 26.395C9.73629 26.5263 9.91434 26.6 10.1 26.6H26.9C27.0856 26.6 27.2637 26.5263 27.395 26.395C27.5262 26.2637 27.6 26.0857 27.6 25.9C27.6 25.7143 27.5262 25.5363 27.395 25.405C27.2637 25.2738 27.0856 25.2 26.9 25.2Z"/>
</mask>
<path d="M26.9 25.2H22.7V19.6H26.9C27.0281 19.6 27.1537 19.5648 27.2632 19.4983C27.3726 19.4318 27.4618 19.3365 27.5209 19.2229C27.5799 19.1092 27.6067 18.9816 27.5982 18.8538C27.5898 18.726 27.5464 18.6029 27.4729 18.4981L24.324 14H25.5C25.633 13.9999 25.7632 13.9619 25.8754 13.8905C25.9876 13.8191 26.0771 13.7172 26.1334 13.5967C26.1898 13.4763 26.2107 13.3423 26.1937 13.2104C26.1767 13.0785 26.1224 12.9542 26.0373 12.852L22.5373 8.652C22.4696 8.57652 22.3868 8.51614 22.2942 8.47481C22.2016 8.43347 22.1014 8.41211 22 8.41211C21.8986 8.41211 21.7984 8.43347 21.7058 8.47481C21.6132 8.51614 21.5304 8.57652 21.4627 8.652L17.9627 12.852C17.8776 12.9542 17.8233 13.0785 17.8063 13.2104C17.7893 13.3423 17.8102 13.4763 17.8665 13.5967C17.9229 13.7172 18.0124 13.8191 18.1246 13.8905C18.2368 13.9619 18.367 13.9999 18.5 14H19.676L16.5271 18.4981C16.4536 18.6029 16.4102 18.726 16.4017 18.8538C16.3933 18.9816 16.4201 19.1092 16.4791 19.2229C16.5382 19.3365 16.6273 19.4318 16.7368 19.4983C16.8463 19.5648 16.9719 19.6 17.1 19.6H21.3V25.2H13.6V22.4H15.7C15.8856 22.4 16.0637 22.3263 16.195 22.195C16.3262 22.0637 16.4 21.8857 16.4 21.7C16.4 21.5144 16.3262 21.3363 16.195 21.205C16.0637 21.0738 15.8856 21 15.7 21H10.1C9.91434 21 9.73629 21.0738 9.60502 21.205C9.47374 21.3363 9.39999 21.5144 9.39999 21.7C9.39999 21.8857 9.47374 22.0637 9.60502 22.195C9.73629 22.3263 9.91434 22.4 10.1 22.4H12.2V25.2H10.1C9.91434 25.2 9.73629 25.2738 9.60502 25.405C9.47374 25.5363 9.39999 25.7143 9.39999 25.9C9.39999 26.0857 9.47374 26.2637 9.60502 26.395C9.73629 26.5263 9.91434 26.6 10.1 26.6H26.9C27.0856 26.6 27.2637 26.5263 27.395 26.395C27.5262 26.2637 27.6 26.0857 27.6 25.9C27.6 25.7143 27.5262 25.5363 27.395 25.405C27.2637 25.2738 27.0856 25.2 26.9 25.2Z" stroke="#448847" stroke-width="2.8" mask="url(#path-3-inside-1_918_11385)"/>
</svg>
