<svg width="37" height="37" viewBox="0 0 37 37" fill="none" xmlns="http://www.w3.org/2000/svg">
<path d="M19.3463 25.8274C19.3463 26.1184 19.125 26.3421 18.8668 26.3421H11.4105C11.1523 26.3421 10.931 26.1184 10.931 25.8274V10.4926C10.931 10.2017 11.1523 9.97792 11.4105 9.97792H18.8668C19.125 9.97792 19.3463 10.2017 19.3463 10.4926V25.8274ZM11.4105 27.4451H18.8668C19.7213 27.4451 20.4023 26.714 20.4023 25.8274V10.4926C20.4023 9.60608 19.7213 8.875 18.8668 8.875H11.4105C10.556 8.875 9.875 9.60608 9.875 10.4926V25.8274C9.875 26.714 10.556 27.4451 11.4105 27.4451ZM26.3891 13.2009V23.618C26.3891 24.5847 25.6503 25.356 24.7535 25.356C23.8562 25.356 23.1174 24.5846 23.1174 23.618C23.1174 23.3202 22.8876 23.0666 22.5894 23.0666C22.2912 23.0666 22.0614 23.3202 22.0614 23.618C22.0614 25.1803 23.2598 26.4589 24.7529 26.4589C26.2466 26.4589 27.4451 25.1803 27.4451 23.618V13.2009C27.4451 12.9031 27.2153 12.6494 26.9171 12.6494C26.6189 12.6494 26.3891 12.9031 26.3891 13.2009Z" fill="#C01BA5" stroke="#C01BA5" stroke-width="0.25"/>
<path d="M23.1174 23.7378V15.1839C23.1174 14.8861 22.8875 14.6324 22.5893 14.6324C22.2912 14.6324 22.0613 14.8861 22.0613 15.1839V23.7378C22.0613 24.0356 22.2912 24.2893 22.5893 24.2893C22.8875 24.2893 23.1174 24.0356 23.1174 23.7378Z" fill="#C01BA5" stroke="#C01BA5" stroke-width="0.25"/>
<path d="M13.0278 12.1086H13.0278H17.2251C17.2608 12.1086 17.3016 12.1413 17.3016 12.1968V13.1564C17.3016 13.2119 17.2608 13.2446 17.2251 13.2446H13.0278C12.9921 13.2446 12.9513 13.2119 12.9513 13.1564V12.1968V12.1968C12.9513 12.1843 12.9536 12.172 12.958 12.1608C12.9624 12.1495 12.9687 12.1398 12.9761 12.1319C12.9836 12.124 12.992 12.1182 13.0008 12.1143C13.0096 12.1105 13.0187 12.1086 13.0278 12.1086ZM23.1178 15.1186V14.4002C23.1178 13.309 22.2803 12.4122 21.2323 12.4122C20.1843 12.4122 19.3465 13.309 19.3465 14.4002V15.1186C19.3465 15.4164 19.5764 15.6701 19.8745 15.6701C20.1727 15.6701 20.4026 15.4164 20.4026 15.1186V14.4002C20.4026 13.9047 20.7806 13.5151 21.2323 13.5151C21.6839 13.5151 22.0618 13.9046 22.0618 14.4002V15.1186C22.0618 15.4164 22.2916 15.6701 22.5898 15.6701C22.888 15.6701 23.1178 15.4164 23.1178 15.1186ZM27.227 12.7311L23.789 9.09298C23.5823 8.87424 23.244 8.87424 23.0373 9.09298C22.8344 9.3077 22.8344 9.65306 23.0373 9.86779L26.4754 13.5059C26.6821 13.7247 27.0203 13.7247 27.227 13.5059C27.4299 13.2912 27.4299 12.9458 27.227 12.7311ZM13.0278 14.3475H17.2251C17.8572 14.3475 18.3576 13.8075 18.3576 13.1564V12.1968C18.3576 11.5457 17.8572 11.0057 17.2251 11.0057H13.0278C12.3957 11.0057 11.8953 11.5457 11.8953 12.1968V13.1564C11.8953 13.8075 12.3957 14.3475 13.0278 14.3475Z" fill="#C01BA5" stroke="#C01BA5" stroke-width="0.25"/>
<path d="M26.87 14.8545H25.9062C25.7592 14.8545 25.6282 14.7262 25.6282 14.553V11.4865C25.6282 11.1887 25.3983 10.9351 25.1002 10.9351C24.802 10.9351 24.5721 11.1887 24.5721 11.4865V14.553C24.5721 15.3218 25.1629 15.9574 25.9062 15.9574H26.87C27.1681 15.9574 27.398 15.7037 27.398 15.4059C27.398 15.1081 27.1681 14.8545 26.87 14.8545Z" fill="#C01BA5" stroke="#C01BA5" stroke-width="0.25"/>
</svg>
