<svg width="37" height="46" viewBox="0 0 37 46" fill="none" xmlns="http://www.w3.org/2000/svg">
<path d="M18.386 0C13.5115 0.0056496 8.83832 1.91054 5.39151 5.29681C1.94471 8.68307 0.00577016 13.2742 1.95609e-05 18.0631C-0.00581866 21.9766 1.29537 25.7839 3.70397 28.901C3.70397 28.901 4.20541 29.5496 4.28731 29.6432L18.386 45.9789L32.4915 29.635C32.565 29.548 33.0681 28.901 33.0681 28.901L33.0698 28.8961C35.4772 25.7804 36.7778 21.9748 36.7721 18.0631C36.7663 13.2742 34.8274 8.68307 31.3806 5.29681C27.9338 1.91054 23.2606 0.0056496 18.386 0ZM18.386 24.6315C17.0637 24.6315 15.7711 24.2463 14.6716 23.5246C13.5721 22.8028 12.7152 21.777 12.2091 20.5767C11.7031 19.3765 11.5707 18.0558 11.8287 16.7817C12.0867 15.5075 12.7234 14.3372 13.6585 13.4186C14.5935 12.4999 15.7848 11.8744 17.0817 11.6209C18.3786 11.3675 19.7229 11.4976 20.9446 11.9947C22.1663 12.4919 23.2105 13.3337 23.9451 14.4139C24.6798 15.4941 25.0719 16.764 25.0719 18.0631C25.0697 19.8045 24.3646 21.4739 23.1112 22.7053C21.8578 23.9366 20.1586 24.6294 18.386 24.6315Z" fill="#C01BA5"/>
<ellipse cx="18.3861" cy="18.0188" rx="15.1786" ry="14.9121" fill="white"/>
<path d="M19.3463 25.8274C19.3463 26.1184 19.125 26.3421 18.8668 26.3421H11.4105C11.1523 26.3421 10.931 26.1184 10.931 25.8274V10.4926C10.931 10.2017 11.1523 9.97792 11.4105 9.97792H18.8668C19.125 9.97792 19.3463 10.2017 19.3463 10.4926V25.8274ZM11.4105 27.4451H18.8668C19.7213 27.4451 20.4023 26.714 20.4023 25.8274V10.4926C20.4023 9.60608 19.7213 8.875 18.8668 8.875H11.4105C10.556 8.875 9.875 9.60608 9.875 10.4926V25.8274C9.875 26.714 10.556 27.4451 11.4105 27.4451ZM26.3891 13.2009V23.618C26.3891 24.5847 25.6503 25.356 24.7535 25.356C23.8562 25.356 23.1174 24.5846 23.1174 23.618C23.1174 23.3202 22.8876 23.0666 22.5894 23.0666C22.2912 23.0666 22.0614 23.3202 22.0614 23.618C22.0614 25.1803 23.2598 26.4589 24.7529 26.4589C26.2466 26.4589 27.4451 25.1803 27.4451 23.618V13.2009C27.4451 12.9031 27.2153 12.6494 26.9171 12.6494C26.6189 12.6494 26.3891 12.9031 26.3891 13.2009Z" fill="#C01BA5" stroke="#C01BA5" stroke-width="0.25"/>
<path d="M23.1174 23.7378V15.1839C23.1174 14.8861 22.8875 14.6324 22.5893 14.6324C22.2912 14.6324 22.0613 14.8861 22.0613 15.1839V23.7378C22.0613 24.0356 22.2912 24.2893 22.5893 24.2893C22.8875 24.2893 23.1174 24.0356 23.1174 23.7378Z" fill="#C01BA5" stroke="#C01BA5" stroke-width="0.25"/>
<path d="M13.0278 12.1086H13.0278H17.2251C17.2608 12.1086 17.3016 12.1413 17.3016 12.1968V13.1564C17.3016 13.2119 17.2608 13.2446 17.2251 13.2446H13.0278C12.9921 13.2446 12.9513 13.2119 12.9513 13.1564V12.1968V12.1968C12.9513 12.1843 12.9536 12.172 12.958 12.1608C12.9624 12.1496 12.9687 12.1398 12.9761 12.1319C12.9836 12.124 12.992 12.1182 13.0008 12.1143C13.0096 12.1105 13.0187 12.1086 13.0278 12.1086ZM23.1178 15.1186V14.4002C23.1178 13.309 22.2803 12.4122 21.2323 12.4122C20.1843 12.4122 19.3465 13.309 19.3465 14.4002V15.1186C19.3465 15.4164 19.5764 15.6701 19.8745 15.6701C20.1727 15.6701 20.4026 15.4164 20.4026 15.1186V14.4002C20.4026 13.9047 20.7806 13.5151 21.2323 13.5151C21.6839 13.5151 22.0618 13.9046 22.0618 14.4002V15.1186C22.0618 15.4164 22.2916 15.6701 22.5898 15.6701C22.888 15.6701 23.1178 15.4164 23.1178 15.1186ZM27.227 12.7311L23.789 9.09299C23.5823 8.87425 23.244 8.87425 23.0373 9.09299C22.8344 9.30771 22.8344 9.65307 23.0373 9.8678L26.4754 13.5059C26.6821 13.7247 27.0203 13.7247 27.227 13.5059C27.4299 13.2912 27.4299 12.9458 27.227 12.7311ZM13.0278 14.3475H17.2251C17.8572 14.3475 18.3576 13.8075 18.3576 13.1564V12.1968C18.3576 11.5457 17.8572 11.0057 17.2251 11.0057H13.0278C12.3957 11.0057 11.8953 11.5457 11.8953 12.1968V13.1564C11.8953 13.8075 12.3957 14.3475 13.0278 14.3475Z" fill="#C01BA5" stroke="#C01BA5" stroke-width="0.25"/>
<path d="M26.87 14.8545H25.9062C25.7592 14.8545 25.6282 14.7262 25.6282 14.553V11.4866C25.6282 11.1888 25.3983 10.9351 25.1002 10.9351C24.802 10.9351 24.5721 11.1888 24.5721 11.4866V14.553C24.5721 15.3218 25.1629 15.9574 25.9062 15.9574H26.87C27.1681 15.9574 27.398 15.7037 27.398 15.4059C27.398 15.1081 27.1681 14.8545 26.87 14.8545Z" fill="#C01BA5" stroke="#C01BA5" stroke-width="0.25"/>
</svg>
