<svg width="37" height="37" viewBox="0 0 37 37" fill="none" xmlns="http://www.w3.org/2000/svg">
<g clip-path="url(#clip0_920_11435)">
<path d="M13.0006 18.1936H8.96411C8.74837 18.1936 8.57349 18.0187 8.57349 17.803V14.3525C8.57349 13.0243 9.65411 11.9436 10.9824 11.9436C12.3106 11.9436 13.3912 13.0243 13.3912 14.3525V17.803C13.3912 18.0187 13.2163 18.1936 13.0006 18.1936ZM9.35474 17.4124H12.6099V14.3525C12.6099 13.455 11.8798 12.7249 10.9823 12.7249C10.0848 12.7249 9.3547 13.455 9.3547 14.3525L9.35474 17.4124Z" fill="#44E9C2" stroke="#44E9C2" stroke-width="0.25"/>
<path d="M10.9824 23.6624C9.65411 23.6624 8.57349 22.5817 8.57349 21.2535V17.803C8.57349 17.5872 8.74837 17.4124 8.96411 17.4124H13.0006C13.2163 17.4124 13.3912 17.5872 13.3912 17.803V21.2535C13.3912 22.5817 12.3106 23.6624 10.9824 23.6624ZM9.35474 18.1936V21.2535C9.35474 22.151 10.0849 22.8811 10.9824 22.8811C11.8798 22.8811 12.61 22.151 12.61 21.2535V18.1936H9.35474Z" fill="#44E9C2" stroke="#44E9C2" stroke-width="0.25"/>
<path d="M17.8736 24.5485C17.77 24.5485 17.6706 24.5073 17.5974 24.4341L15.1684 22.005C14.7134 21.55 14.4628 20.9451 14.4628 20.3017C14.4628 19.6582 14.7134 19.0534 15.1684 18.5984C15.6233 18.1435 16.2283 17.8929 16.8717 17.8929C17.5151 17.8929 18.12 18.1434 18.5749 18.5984L21.004 21.0274C21.0772 21.1007 21.1184 21.2 21.1184 21.3036C21.1184 21.4072 21.0772 21.5066 21.004 21.5798L18.1498 24.4341C18.0765 24.5073 17.9772 24.5485 17.8736 24.5485ZM16.8717 18.6741C16.4369 18.6741 16.0282 18.8434 15.7208 19.1508C15.4133 19.4582 15.244 19.867 15.244 20.3017C15.244 20.7364 15.4133 21.1452 15.7208 21.4526L17.8736 23.6054L20.1753 21.3036L18.0225 19.1508C17.7151 18.8434 17.3064 18.6741 16.8717 18.6741Z" fill="#44E9C2" stroke="#44E9C2" stroke-width="0.25"/>
<path d="M21.7296 27.5686C21.0862 27.5686 20.4813 27.318 20.0264 26.8631L17.5973 24.434C17.4448 24.2815 17.4448 24.0341 17.5973 23.8816L20.4515 21.0273C20.5248 20.9541 20.6241 20.9129 20.7277 20.9129C20.8313 20.9129 20.9307 20.9541 21.0039 21.0273L23.433 23.4564C23.8879 23.9114 24.1385 24.5163 24.1385 25.1597C24.1385 25.8032 23.8879 26.4081 23.433 26.863C22.978 27.318 22.3731 27.5686 21.7296 27.5686ZM18.426 24.1579L20.5788 26.3106C20.8862 26.6181 21.2949 26.7873 21.7296 26.7873C22.1644 26.7873 22.5732 26.6181 22.8805 26.3106C23.188 26.0032 23.3573 25.5945 23.3573 25.1597C23.3573 24.725 23.188 24.3163 22.8805 24.0089L20.7278 21.8561L18.426 24.1579Z" fill="#44E9C2" stroke="#44E9C2" stroke-width="0.25"/>
<path d="M24.093 15.0335C23.993 15.0335 23.8931 14.9954 23.8168 14.9191L20.9626 12.0649C20.8893 11.9916 20.8482 11.8923 20.8482 11.7887C20.8482 11.6851 20.8893 11.5857 20.9626 11.5125L23.3415 9.13356C23.7965 8.67859 24.4014 8.42801 25.0448 8.42801C25.6883 8.42801 26.2931 8.67859 26.7481 9.13356C27.6873 10.0727 27.6873 11.601 26.7481 12.5402L24.3692 14.9191C24.293 14.9953 24.193 15.0335 24.093 15.0335ZM21.7913 11.7886L24.0931 14.0904L26.1957 11.9877C26.8303 11.3531 26.8303 10.3205 26.1957 9.68594C25.8883 9.37852 25.4796 9.20922 25.0449 9.20922C24.6101 9.20922 24.2013 9.37852 23.894 9.68594L21.7913 11.7886Z" fill="#44E9C2" stroke="#44E9C2" stroke-width="0.25"/>
<path d="M20.287 18.0035C19.6436 18.0035 19.0387 17.7529 18.5837 17.2979C17.6445 16.3588 17.6445 14.8305 18.5837 13.8913L20.9626 11.5124C21.1152 11.3599 21.3624 11.3599 21.515 11.5124L24.3693 14.3666C24.4425 14.4399 24.4837 14.5392 24.4837 14.6428C24.4837 14.7464 24.4425 14.8458 24.3693 14.919L21.9904 17.2979C21.5354 17.7529 20.9305 18.0035 20.287 18.0035ZM21.2388 12.3411L19.1361 14.4437C18.5015 15.0783 18.5015 16.1109 19.1361 16.7455C19.4435 17.0529 19.8523 17.2222 20.287 17.2222C20.7218 17.2222 21.1305 17.0529 21.4379 16.7455L23.5406 14.6428L21.2388 12.3411Z" fill="#44E9C2" stroke="#44E9C2" stroke-width="0.25"/>
</g>
<defs>
<clipPath id="clip0_920_11435">
<rect width="20" height="20" fill="white" transform="translate(8 8)"/>
</clipPath>
</defs>
</svg>
