<svg width="37" height="37" viewBox="0 0 37 37" fill="none" xmlns="http://www.w3.org/2000/svg">
<g clip-path="url(#clip0_920_11488)">
<path d="M26.9577 21.7699H25.521V17.268C25.521 13.1196 22.1471 9.74457 18 9.74457C13.8529 9.74457 10.4789 13.1196 10.4789 17.268V21.7699H9.04217C8.59894 21.7699 8.2395 22.1293 8.2395 22.5726V25.9331C8.2395 26.3764 8.59886 26.7358 9.04217 26.7358H26.9577C27.401 26.7358 27.7604 26.3765 27.7604 25.9331V22.5726C27.7604 22.1294 27.401 21.7699 26.9577 21.7699ZM12.0843 17.268C12.0843 14.0047 14.738 11.35 18 11.35C21.262 11.35 23.9157 14.0048 23.9157 17.268V21.7699H12.0843V17.268ZM26.1551 25.1304H9.84492V23.3753H26.1551V25.1304Z" fill="#EAB600"/>
<path d="M9.84485 17.268C9.84485 16.8247 9.48549 16.4652 9.0421 16.4652H6.80275C6.35943 16.4652 6 16.8246 6 17.268C6 17.7112 6.35935 18.0706 6.80275 18.0706H9.04218C9.48549 18.0706 9.84485 17.7113 9.84485 17.268Z" fill="#EAB600"/>
<path d="M10.7139 11.1148C10.8705 11.2716 11.076 11.35 11.2814 11.35C11.4869 11.35 11.6923 11.2716 11.849 11.1149C12.1625 10.8015 12.1625 10.2933 11.849 9.97981L10.7293 8.85989C10.4161 8.54643 9.90779 8.54643 9.59417 8.85981C9.28064 9.17326 9.28064 9.68146 9.59409 9.99492L10.7139 11.1148Z" fill="#EAB600"/>
<path d="M24.7185 11.35C24.9239 11.35 25.1294 11.2716 25.286 11.1148L26.4057 9.99492C26.7192 9.68146 26.7192 9.17326 26.4057 8.85981C26.0922 8.54627 25.5839 8.54635 25.2705 8.85989L24.1508 9.97981C23.8373 10.2933 23.8373 10.8015 24.1509 11.1149C24.3076 11.2716 24.513 11.35 24.7185 11.35Z" fill="#EAB600"/>
<path d="M29.1973 16.4653H26.9577C26.5144 16.4653 26.155 16.8247 26.155 17.268C26.155 17.7113 26.5144 18.0707 26.9577 18.0707H29.1973C29.6406 18.0707 30 17.7114 30 17.268C30 16.8247 29.6407 16.4653 29.1973 16.4653Z" fill="#EAB600"/>
<path d="M17.9999 9.10982C18.4432 9.10982 18.8027 8.75046 18.8027 8.30707V6.06691C18.8027 5.62359 18.4432 5.26416 17.9999 5.26416C17.5567 5.26416 17.1973 5.62351 17.1973 6.06691V8.30715C17.1973 8.75046 17.5567 9.10982 17.9999 9.10982Z" fill="#EAB600"/>
</g>
<defs>
<clipPath id="clip0_920_11488">
<rect width="24" height="24" fill="white" transform="translate(6 4)"/>
</clipPath>
</defs>
</svg>
