<svg width="37" height="46" viewBox="0 0 37 46" fill="none" xmlns="http://www.w3.org/2000/svg">
<path d="M18.386 0C13.5115 0.0056496 8.83832 1.91054 5.39151 5.29681C1.94471 8.68307 0.00577016 13.2742 1.95609e-05 18.0631C-0.00581866 21.9766 1.29537 25.7839 3.70397 28.901C3.70397 28.901 4.20541 29.5496 4.28731 29.6432L18.386 45.9789L32.4915 29.635C32.565 29.548 33.0681 28.901 33.0681 28.901L33.0698 28.8961C35.4772 25.7804 36.7778 21.9748 36.7721 18.0631C36.7663 13.2742 34.8274 8.68307 31.3806 5.29681C27.9338 1.91054 23.2606 0.0056496 18.386 0ZM18.386 24.6315C17.0637 24.6315 15.7711 24.2463 14.6716 23.5246C13.5721 22.8028 12.7152 21.777 12.2091 20.5767C11.7031 19.3765 11.5707 18.0558 11.8287 16.7817C12.0867 15.5075 12.7234 14.3372 13.6585 13.4186C14.5935 12.4999 15.7848 11.8744 17.0817 11.6209C18.3786 11.3675 19.7229 11.4976 20.9446 11.9947C22.1663 12.4919 23.2105 13.3337 23.9451 14.4139C24.6798 15.4941 25.0719 16.764 25.0719 18.0631C25.0697 19.8045 24.3646 21.4739 23.1112 22.7053C21.8578 23.9366 20.1586 24.6294 18.386 24.6315Z" fill="#EAB600"/>
<ellipse cx="18.3861" cy="18.0188" rx="15.1786" ry="14.9121" fill="white"/>
<g clip-path="url(#clip0_851_27303)">
<path d="M26.9577 21.7699H25.521V17.268C25.521 13.1196 22.1471 9.74457 18 9.74457C13.8529 9.74457 10.4789 13.1196 10.4789 17.268V21.7699H9.04217C8.59894 21.7699 8.2395 22.1293 8.2395 22.5726V25.9331C8.2395 26.3764 8.59886 26.7358 9.04217 26.7358H26.9577C27.401 26.7358 27.7604 26.3765 27.7604 25.9331V22.5726C27.7604 22.1294 27.401 21.7699 26.9577 21.7699ZM12.0843 17.268C12.0843 14.0047 14.738 11.35 18 11.35C21.262 11.35 23.9157 14.0048 23.9157 17.268V21.7699H12.0843V17.268ZM26.1551 25.1304H9.84492V23.3753H26.1551V25.1304Z" fill="#EAB600"/>
<path d="M9.84485 17.268C9.84485 16.8247 9.48549 16.4652 9.0421 16.4652H6.80275C6.35943 16.4652 6 16.8246 6 17.268C6 17.7112 6.35935 18.0706 6.80275 18.0706H9.04218C9.48549 18.0706 9.84485 17.7113 9.84485 17.268Z" fill="#EAB600"/>
<path d="M10.7139 11.1148C10.8705 11.2716 11.076 11.35 11.2814 11.35C11.4869 11.35 11.6923 11.2716 11.849 11.1149C12.1625 10.8015 12.1625 10.2933 11.849 9.9798L10.7293 8.85988C10.4161 8.54643 9.90779 8.54643 9.59417 8.8598C9.28064 9.17325 9.28064 9.68146 9.59409 9.99491L10.7139 11.1148Z" fill="#EAB600"/>
<path d="M24.7185 11.35C24.9239 11.35 25.1294 11.2716 25.286 11.1148L26.4057 9.99491C26.7192 9.68145 26.7192 9.17325 26.4057 8.8598C26.0922 8.54626 25.5839 8.54634 25.2705 8.85988L24.1508 9.9798C23.8373 10.2933 23.8373 10.8015 24.1509 11.1149C24.3076 11.2716 24.513 11.35 24.7185 11.35Z" fill="#EAB600"/>
<path d="M29.1973 16.4653H26.9577C26.5144 16.4653 26.155 16.8247 26.155 17.268C26.155 17.7113 26.5144 18.0707 26.9577 18.0707H29.1973C29.6406 18.0707 30 17.7114 30 17.268C30 16.8247 29.6407 16.4653 29.1973 16.4653Z" fill="#EAB600"/>
<path d="M17.9999 9.10982C18.4432 9.10982 18.8027 8.75046 18.8027 8.30707V6.06691C18.8027 5.62359 18.4432 5.26416 17.9999 5.26416C17.5567 5.26416 17.1973 5.62351 17.1973 6.06691V8.30715C17.1973 8.75046 17.5567 9.10982 17.9999 9.10982Z" fill="#EAB600"/>
</g>
<defs>
<clipPath id="clip0_851_27303">
<rect width="24" height="24" fill="white" transform="translate(6 4)"/>
</clipPath>
</defs>
</svg>
