<svg width="37" height="37" viewBox="0 0 37 37" fill="none" xmlns="http://www.w3.org/2000/svg">
<path d="M10.0238 9.63242L24.8271 24.4357C25.108 24.7166 25.2658 25.0976 25.2658 25.4948C25.2658 25.8921 25.108 26.273 24.8271 26.5539C24.5461 26.8347 24.1652 26.9925 23.768 26.9925C23.3708 26.9925 22.9898 26.8347 22.7088 26.5539L19.0927 22.8755C18.8561 22.6352 18.7233 22.3116 18.7231 21.9743V21.7521C18.7231 21.5818 18.6893 21.4132 18.6236 21.2561C18.558 21.099 18.4617 20.9565 18.3405 20.8368L17.8737 20.4057C17.7152 20.2595 17.5224 20.1554 17.3132 20.1032C17.104 20.051 16.885 20.0522 16.6763 20.1068C16.3473 20.1926 16.0016 20.191 15.6734 20.102C15.3453 20.0129 15.0461 19.8397 14.8056 19.5993L11.373 16.1664C9.33676 14.1301 8.58741 11.0552 10.0238 9.63242Z" stroke="#A3A3A3" stroke-width="1.25" stroke-linejoin="round"/>
<path d="M23.7857 9L20.6818 12.1039C20.443 12.3426 20.2535 12.6262 20.1242 12.9382C19.995 13.2502 19.9285 13.5846 19.9285 13.9224V14.5194C19.9285 14.6039 19.9118 14.6876 19.8795 14.7656C19.8472 14.8436 19.7998 14.9146 19.74 14.9743L19.2856 15.4287" stroke="#A3A3A3" stroke-width="1.25" stroke-linecap="round" stroke-linejoin="round"/>
<path d="M20.5713 16.7144L21.0257 16.26C21.0854 16.2003 21.1563 16.1529 21.2344 16.1205C21.3124 16.0882 21.3961 16.0716 21.4805 16.0716H22.0776C22.4154 16.0716 22.7498 16.005 23.0618 15.8758C23.3738 15.7465 23.6573 15.5571 23.8961 15.3182L27 12.2144" stroke="#A3A3A3" stroke-width="1.25" stroke-linecap="round" stroke-linejoin="round"/>
<path d="M25.3928 10.6072L22.1785 13.8215" stroke="#A3A3A3" stroke-width="1.25" stroke-linecap="round" stroke-linejoin="round"/>
<path d="M15.7498 22.5003L11.7431 26.5295C11.4417 26.8308 11.033 27 10.6068 27C10.1807 27 9.77195 26.8308 9.47056 26.5295C9.16926 26.2281 9 25.8193 9 25.3932C9 24.967 9.16926 24.5583 9.47056 24.2569L12.8569 20.8931" stroke="#A3A3A3" stroke-width="1.25" stroke-linecap="round" stroke-linejoin="round"/>
</svg>
