<svg width="37" height="46" viewBox="0 0 37 46" fill="none" xmlns="http://www.w3.org/2000/svg">
<path d="M18.386 0C13.5115 0.0056496 8.83832 1.91054 5.39151 5.29681C1.94471 8.68307 0.00577016 13.2742 1.95609e-05 18.0631C-0.00581866 21.9766 1.29537 25.7839 3.70397 28.901C3.70397 28.901 4.20541 29.5496 4.28731 29.6432L18.386 45.9789L32.4915 29.635C32.565 29.548 33.0681 28.901 33.0681 28.901L33.0698 28.8961C35.4772 25.7804 36.7778 21.9748 36.7721 18.0631C36.7663 13.2742 34.8274 8.68307 31.3806 5.29681C27.9338 1.91054 23.2606 0.0056496 18.386 0ZM18.386 24.6315C17.0637 24.6315 15.7711 24.2463 14.6716 23.5246C13.5721 22.8028 12.7152 21.777 12.2091 20.5767C11.7031 19.3765 11.5707 18.0558 11.8287 16.7817C12.0867 15.5075 12.7234 14.3372 13.6585 13.4186C14.5935 12.4999 15.7848 11.8744 17.0817 11.6209C18.3786 11.3675 19.7229 11.4976 20.9446 11.9947C22.1663 12.4919 23.2105 13.3337 23.9451 14.4139C24.6798 15.4941 25.0719 16.764 25.0719 18.0631C25.0697 19.8045 24.3646 21.4739 23.1112 22.7053C21.8578 23.9366 20.1586 24.6294 18.386 24.6315Z" fill="#6921C5"/>
<ellipse cx="18.3861" cy="18.0188" rx="15.1786" ry="14.9121" fill="white"/>
<path d="M27 15L18 10L9 15L12 16.6667M27 15L24 16.6667M27 15C27.6129 15.3064 28 15.9328 28 16.618V21.9998M12 16.6667L18 20L24 16.6667M12 16.6667V22.6667L18 26L24 22.6667V16.6667" stroke="#6921C5" stroke-width="1.5" stroke-linecap="round" stroke-linejoin="round"/>
</svg>
