<svg width="37" height="37" viewBox="0 0 37 37" fill="none" xmlns="http://www.w3.org/2000/svg">
<path d="M20.8958 26.25V21.75C20.8958 21.1977 20.4481 20.75 19.8958 20.75H17.1042C16.5519 20.75 16.1042 21.1977 16.1042 21.75V26.25" stroke="#018191" stroke-width="1.8" stroke-linecap="round" stroke-linejoin="round"/>
<path d="M11.7917 17.0833V22.25C11.7917 24.1356 11.7917 25.0784 12.3774 25.6642C12.9632 26.25 13.906 26.25 15.7917 26.25H21.2083C23.0939 26.25 24.0368 26.25 24.6225 25.6642C25.2083 25.0784 25.2083 24.1356 25.2083 22.25V17.0833" stroke="#018191" stroke-width="1.8"/>
<path d="M11.4011 11.2443C11.5888 10.5261 11.6827 10.167 11.9527 9.95852C12.2227 9.75 12.5939 9.75 13.3361 9.75H23.6639C24.4061 9.75 24.7773 9.75 25.0473 9.95852C25.3173 10.167 25.4112 10.5261 25.5989 11.2443L26.7033 15.4699C26.7884 15.7955 26.831 15.9584 26.83 16.0905C26.8268 16.5401 26.524 16.9322 26.0899 17.049C25.9622 17.0833 25.7939 17.0833 25.4573 17.0833H25.3728C24.9955 17.0833 24.8068 17.0833 24.6426 17.0558C23.9246 16.9354 23.3287 16.4344 23.0869 15.7477C23.0316 15.5907 22.9992 15.4048 22.9344 15.0331V15.0331C22.9169 14.9325 22.9081 14.8822 22.9 14.8675C22.862 14.7987 22.763 14.7987 22.725 14.8675C22.7169 14.8822 22.7081 14.9325 22.6906 15.0331L22.6212 15.4311C22.4548 16.3862 21.6257 17.0833 20.6562 17.0833V17.0833C19.6868 17.0833 18.8577 16.3862 18.6913 15.4311L18.6219 15.0331C18.6044 14.9325 18.5956 14.8822 18.5875 14.8675C18.5495 14.7987 18.4505 14.7987 18.4125 14.8675C18.4044 14.8822 18.3956 14.9325 18.3781 15.0331L18.3087 15.4311C18.1423 16.3862 17.3132 17.0833 16.3437 17.0833V17.0833C15.3743 17.0833 14.5452 16.3862 14.3788 15.4311L14.3094 15.0331C14.2919 14.9325 14.2831 14.8822 14.275 14.8675C14.237 14.7987 14.138 14.7987 14.1 14.8675C14.0919 14.8822 14.0831 14.9325 14.0656 15.0331V15.0331C14.0008 15.4048 13.9684 15.5907 13.9131 15.7477C13.6713 16.4344 13.0754 16.9354 12.3574 17.0558C12.1932 17.0833 12.0045 17.0833 11.6272 17.0833H11.5427C11.2061 17.0833 11.0378 17.0833 10.9101 17.049C10.476 16.9322 10.1732 16.5401 10.17 16.0905C10.169 15.9584 10.2116 15.7955 10.2967 15.4699L11.4011 11.2443Z" stroke="#018191" stroke-width="1.8"/>
</svg>
