<svg width="50" height="50" viewBox="0 0 37 37" fill="none" xmlns="http://www.w3.org/2000/svg">
<path d="M22.259 15.0684C22.2433 15.037 22.2244 15.0072 22.2028 14.9795C22.1865 14.8984 22.1645 14.8185 22.137 14.7404L22.1252 14.7129L20.5783 11.15C20.5345 11.0496 20.4624 10.9643 20.3707 10.9043C20.2791 10.8444 20.172 10.8124 20.0625 10.8125H9.93748C9.82799 10.8124 9.72086 10.8444 9.62923 10.9043C9.53761 10.9643 9.46547 11.0496 9.42167 11.15L7.86355 14.7393C7.7152 15.1158 7.7152 15.5345 7.86355 15.911C8.00686 16.2386 8.21448 16.5341 8.47411 16.78C8.73373 17.0259 9.04007 17.2172 9.37498 17.3426V23.1875C9.37498 23.3367 9.43425 23.4798 9.53974 23.5852C9.64523 23.6907 9.7883 23.75 9.93748 23.75H20.0625C20.2117 23.75 20.3547 23.6907 20.4602 23.5852C20.5657 23.4798 20.625 23.3367 20.625 23.1875V17.3426C20.96 17.2174 21.2664 17.0262 21.5261 16.7804C21.7858 16.5346 21.9936 16.2391 22.137 15.9116C22.1834 15.7932 22.2142 15.6694 22.2287 15.5431C22.2661 15.4703 22.2882 15.3906 22.2934 15.3089C22.2986 15.2272 22.2869 15.1453 22.259 15.0684ZM19.5 22.625H10.5V17.5625C10.9261 17.5678 11.3483 17.48 11.737 17.3051C12.1256 17.1302 12.4714 16.8725 12.75 16.55C13.0318 16.8688 13.3781 17.124 13.766 17.2988C14.1539 17.4737 14.5745 17.5641 15 17.5641C15.4255 17.5641 15.8461 17.4737 16.234 17.2988C16.6219 17.124 16.9682 16.8688 17.25 16.55C17.5286 16.8725 17.8744 17.1302 18.263 17.3051C18.6517 17.48 19.0738 17.5678 19.5 17.5625V22.625ZM21.0964 15.4813C20.9524 15.7788 20.7246 16.0279 20.441 16.1978C20.1574 16.3677 19.8303 16.451 19.5 16.4375C19.0906 16.4708 18.6845 16.3421 18.3689 16.0792C18.0534 15.8162 17.8536 15.4399 17.8125 15.0312C17.8125 14.8821 17.7532 14.739 17.6477 14.6335C17.5422 14.528 17.3992 14.4688 17.25 14.4688C17.1008 14.4688 16.9577 14.528 16.8522 14.6335C16.7467 14.739 16.6875 14.8821 16.6875 15.0312C16.6464 15.4399 16.4466 15.8162 16.1311 16.0792C15.8155 16.3421 15.4094 16.4708 15 16.4375C14.5906 16.4708 14.1845 16.3421 13.8689 16.0792C13.5534 15.8162 13.3536 15.4399 13.3125 15.0312C13.3125 14.8821 13.2532 14.739 13.1477 14.6335C13.0422 14.528 12.8992 14.4688 12.75 14.4688C12.6008 14.4688 12.4577 14.528 12.3522 14.6335C12.2467 14.739 12.1875 14.8821 12.1875 15.0312C12.1464 15.4399 11.9466 15.8162 11.6311 16.0792C11.3155 16.3421 10.9094 16.4708 10.5 16.4375C10.1697 16.451 9.8426 16.3677 9.55899 16.1978C9.27538 16.0279 9.04759 15.7788 8.90361 15.4813C8.86591 15.3775 8.86591 15.2638 8.90361 15.1601L10.3065 11.9375H19.6935L21.0874 15.1437C21.131 15.2515 21.1342 15.3714 21.0964 15.4813ZM15.2728 17.8893C15.0923 17.8605 14.9083 17.8605 14.7277 17.8893C14.4875 17.9291 14.2602 18.0254 14.0646 18.1703C13.869 18.3153 13.7107 18.5047 13.6027 18.7229C13.4821 18.9604 13.4187 19.2229 13.4177 19.4892C13.4168 19.7556 13.4782 20.0185 13.5971 20.2569L14.4971 22.0569C14.5438 22.1505 14.6156 22.2292 14.7045 22.2843C14.7934 22.3393 14.896 22.3685 15.0005 22.3685C15.1051 22.3685 15.2076 22.3393 15.2966 22.2843C15.3855 22.2292 15.4573 22.1505 15.504 22.0569L16.404 20.2569C16.523 20.0185 16.5845 19.7556 16.5835 19.4892C16.5825 19.2228 16.5191 18.9604 16.3984 18.7229C16.2904 18.5046 16.1321 18.3151 15.9363 18.1701C15.7406 18.0251 15.5131 17.9289 15.2728 17.8893ZM15.396 19.7518L15 20.5437L14.6062 19.7523C14.5665 19.6718 14.5458 19.5831 14.5458 19.4933C14.5458 19.4034 14.5665 19.3148 14.6062 19.2343C14.6341 19.1739 14.6761 19.1212 14.7287 19.0806C14.7813 19.0399 14.8429 19.0126 14.9083 19.0008C14.9386 18.9955 14.9692 18.9927 15 18.9924C15.0303 18.9924 15.0606 18.9949 15.0905 18.9997C15.1561 19.0113 15.2179 19.0387 15.2706 19.0795C15.3233 19.1202 15.3654 19.1731 15.3932 19.2337C15.4332 19.3141 15.4541 19.4028 15.4542 19.4927C15.4543 19.5825 15.4336 19.6712 15.3937 19.7518H15.396Z" fill="#019177"/>
<path d="M29.6619 19.1677C29.652 19.1481 29.6402 19.1295 29.6267 19.1122C29.6165 19.0615 29.6028 19.0116 29.5856 18.9628L29.5782 18.9455L28.6114 16.7188C28.584 16.656 28.5389 16.6027 28.4817 16.5652C28.4244 16.5277 28.3575 16.5078 28.289 16.5078H21.9609C21.8925 16.5078 21.8255 16.5277 21.7682 16.5652C21.711 16.6027 21.6659 16.656 21.6385 16.7188L20.6647 18.9621C20.572 19.1974 20.572 19.4591 20.6647 19.6944C20.7543 19.8991 20.884 20.0838 21.0463 20.2375C21.2086 20.3912 21.4 20.5108 21.6093 20.5891V24.2422C21.6093 24.3354 21.6464 24.4248 21.7123 24.4908C21.7782 24.5567 21.8677 24.5938 21.9609 24.5938H28.289C28.3823 24.5938 28.4717 24.5567 28.5376 24.4908C28.6035 24.4248 28.6406 24.3354 28.6406 24.2422V20.5891C28.8499 20.5109 29.0415 20.3914 29.2038 20.2378C29.3661 20.0841 29.496 19.8995 29.5856 19.6947C29.6146 19.6208 29.6338 19.5434 29.6429 19.4645C29.6663 19.419 29.6801 19.3691 29.6834 19.3181C29.6866 19.267 29.6793 19.2158 29.6619 19.1677ZM27.9375 23.8906H22.3125V20.7266C22.5788 20.7299 22.8427 20.675 23.0856 20.5657C23.3285 20.4564 23.5446 20.2953 23.7187 20.0937C23.8948 20.293 24.1113 20.4525 24.3537 20.5618C24.5962 20.671 24.859 20.7275 25.125 20.7275C25.3909 20.7275 25.6538 20.671 25.8962 20.5618C26.1386 20.4525 26.3551 20.293 26.5312 20.0937C26.7054 20.2953 26.9214 20.4564 27.1643 20.5657C27.4073 20.675 27.6711 20.7299 27.9375 20.7266V23.8906ZM28.9352 19.4258C28.8452 19.6118 28.7028 19.7674 28.5256 19.8736C28.3483 19.9798 28.1439 20.0319 27.9375 20.0234C27.6816 20.0442 27.4278 19.9638 27.2305 19.7995C27.0333 19.6351 26.9085 19.4 26.8828 19.1445C26.8828 19.0513 26.8457 18.9619 26.7798 18.8959C26.7139 18.83 26.6245 18.793 26.5312 18.793C26.438 18.793 26.3486 18.83 26.2826 18.8959C26.2167 18.9619 26.1797 19.0513 26.1797 19.1445C26.154 19.4 26.0291 19.6351 25.8319 19.7995C25.6347 19.9638 25.3808 20.0442 25.125 20.0234C24.8691 20.0442 24.6153 19.9638 24.418 19.7995C24.2208 19.6351 24.096 19.4 24.0703 19.1445C24.0703 19.0513 24.0332 18.9619 23.9673 18.8959C23.9014 18.83 23.812 18.793 23.7187 18.793C23.6255 18.793 23.5361 18.83 23.4701 18.8959C23.4042 18.9619 23.3672 19.0513 23.3672 19.1445C23.3415 19.4 23.2166 19.6351 23.0194 19.7995C22.8222 19.9638 22.5683 20.0442 22.3125 20.0234C22.106 20.0319 21.9016 19.9798 21.7243 19.8736C21.5471 19.7674 21.4047 19.6118 21.3147 19.4258C21.2912 19.3609 21.2912 19.2899 21.3147 19.225L22.1915 17.2109H28.0584L28.9296 19.2148C28.9568 19.2822 28.9588 19.3571 28.9352 19.4258ZM25.2955 20.9308C25.1826 20.9128 25.0676 20.9128 24.9548 20.9308C24.8047 20.9557 24.6626 21.0159 24.5404 21.1065C24.4181 21.1971 24.3191 21.3154 24.2517 21.4518C24.1763 21.6003 24.1367 21.7643 24.1361 21.9308C24.1354 22.0973 24.1738 22.2616 24.2482 22.4105L24.8107 23.5355C24.8398 23.594 24.8847 23.6433 24.9403 23.6777C24.9959 23.7121 25.0599 23.7303 25.1253 23.7303C25.1907 23.7303 25.2548 23.7121 25.3103 23.6777C25.3659 23.6433 25.4108 23.594 25.44 23.5355L26.0025 22.4105C26.0768 22.2616 26.1153 22.0973 26.1147 21.9308C26.114 21.7643 26.0744 21.6002 25.9989 21.4518C25.9315 21.3154 25.8325 21.1969 25.7102 21.1063C25.5878 21.0157 25.4457 20.9555 25.2955 20.9308ZM25.3725 22.0948L25.125 22.5898L24.8789 22.0952C24.854 22.0448 24.8411 21.9895 24.8411 21.9333C24.8411 21.8771 24.854 21.8218 24.8789 21.7714C24.8963 21.7337 24.9226 21.7008 24.9554 21.6754C24.9883 21.65 25.0268 21.6329 25.0677 21.6255C25.0866 21.6222 25.1057 21.6204 25.125 21.6202C25.1439 21.6203 25.1628 21.6218 25.1816 21.6248C25.2226 21.6321 25.2612 21.6492 25.2941 21.6747C25.3271 21.7001 25.3533 21.7332 25.3707 21.7711C25.3957 21.8213 25.4088 21.8767 25.4088 21.9329C25.4089 21.9891 25.396 22.0445 25.3711 22.0948H25.3725Z" fill="#019177"/>
</svg>
