<svg width="17" height="19" viewBox="0 0 17 19" fill="none" xmlns="http://www.w3.org/2000/svg">
<path d="M16.0425 6.39375C15.1237 2.35125 11.5975 0.53125 8.49996 0.53125C8.49996 0.53125 8.49996 0.53125 8.49121 0.53125C5.40246 0.53125 1.86746 2.3425 0.948711 6.385C-0.0750386 10.9 2.68996 14.7237 5.19246 17.13C6.11996 18.0225 7.30996 18.4688 8.49996 18.4688C9.68996 18.4688 10.88 18.0225 11.7987 17.13C14.3012 14.7237 17.0662 10.9087 16.0425 6.39375ZM8.49996 10.7775C6.97746 10.7775 5.74371 9.54375 5.74371 8.02125C5.74371 6.49875 6.97746 5.265 8.49996 5.265C10.0225 5.265 11.2562 6.49875 11.2562 8.02125C11.2562 9.54375 10.0225 10.7775 8.49996 10.7775Z" fill="black"/>
</svg>
