<svg width="64" height="64" viewBox="0 0 64 64" fill="none" xmlns="http://www.w3.org/2000/svg">
<g clip-path="url(#clip0_1306_191)">
<path d="M56.147 27.1456C56.2407 27.052 56.3677 26.9994 56.5001 26.9994C56.6325 26.9994 56.7595 27.052 56.8531 27.1456C56.9458 27.2389 57.056 27.3129 57.1774 27.3636C57.2989 27.4142 57.4291 27.4404 57.5606 27.4406C57.6921 27.4409 57.8224 27.4151 57.944 27.3649C58.0656 27.3147 58.1761 27.2411 58.2692 27.1481C58.3622 27.0551 58.436 26.9447 58.4863 26.8232C58.5367 26.7016 58.5625 26.5714 58.5624 26.4398C58.5623 26.3083 58.5363 26.1781 58.4858 26.0566C58.4353 25.9352 58.3613 25.8249 58.2681 25.732C58.036 25.4998 57.7603 25.3155 57.457 25.1898C57.1536 25.0641 56.8284 24.9994 56.5 24.9994C56.1717 24.9994 55.8465 25.0641 55.5431 25.1898C55.2398 25.3155 54.9641 25.4998 54.732 25.732C54.6392 25.8249 54.5656 25.9352 54.5154 26.0566C54.4652 26.1779 54.4394 26.308 54.4395 26.4393C54.4395 26.5707 54.4655 26.7007 54.5158 26.822C54.5661 26.9433 54.6398 27.0535 54.7327 27.1463C54.8257 27.2391 54.9359 27.3127 55.0573 27.3629C55.1787 27.4131 55.3087 27.4389 55.44 27.4389C55.5714 27.4388 55.7014 27.4128 55.8227 27.3625C55.944 27.3122 56.0542 27.2385 56.147 27.1456Z" fill="#931602"/>
<path d="M53.15 46.4008C52.7572 46.1582 52.3085 46.0209 51.8472 46.0022C51.3858 45.9835 50.9275 46.0839 50.5163 46.2938L37.7231 52.8644C37.4394 52.1552 36.9013 51.5773 36.2141 51.2437L26.7924 46.7753C26.2208 46.501 25.5732 46.4281 24.955 46.5682L16.2437 48.5392C16.0729 48.2254 15.821 47.9634 15.5142 47.7803C15.2075 47.5973 14.8572 47.5001 14.5 47.4989H11.5C10.9697 47.4994 10.4614 47.7103 10.0864 48.0853C9.71146 48.4602 9.50057 48.9686 9.5 49.4988V58.4986C9.50057 59.0289 9.71147 59.5373 10.0864 59.9122C10.4614 60.2871 10.9697 60.498 11.5 60.4986H14.5C14.9066 60.4975 15.3032 60.3724 15.6369 60.1399C15.9705 59.9074 16.2253 59.5787 16.3671 59.1976H18.3456C18.8492 59.1974 19.3499 59.2721 19.8315 59.4193L31.5774 63.8528C31.6156 63.8671 31.6546 63.8792 31.6942 63.8889C32.2108 64.0157 32.7481 64.0342 33.2722 63.9431C33.7963 63.8521 34.2959 63.6536 34.7395 63.3601L53.2838 51.2754C53.3004 51.2647 53.3165 51.2534 53.3322 51.2417C53.7101 50.954 54.0132 50.5796 54.2161 50.1501C54.4189 49.7206 54.5155 49.2486 54.4976 48.774C54.4798 48.2993 54.348 47.8359 54.1135 47.4229C53.8789 47.0099 53.5485 46.6593 53.15 46.4008ZM11.5 58.4986V49.4988H14.5L14.5014 58.4986H11.5ZM52.1623 49.619L33.6478 61.6843C33.4399 61.8224 33.2067 61.9177 32.9617 61.9647C32.7166 62.0116 32.4647 62.0093 32.2205 61.9578L20.5092 57.5375C20.4911 57.5306 20.4726 57.5243 20.454 57.5184C19.7715 57.3054 19.0606 57.1973 18.3456 57.1976H16.4999V50.5317L25.3959 48.5189C25.5778 48.4789 25.7678 48.5013 25.9354 48.5824L35.3572 53.0508C35.4939 53.1226 35.6145 53.2216 35.7116 53.3417C35.8088 53.4617 35.8804 53.6003 35.9221 53.749C35.9869 53.9474 36.0114 54.1568 35.9941 54.3649C35.9768 54.5729 35.9182 54.7754 35.8216 54.9604C35.7406 55.1635 35.5834 55.3269 35.3837 55.4159C35.184 55.5049 34.9574 55.5123 34.7523 55.4367L26.08 51.6761C25.9594 51.6234 25.8297 51.595 25.6981 51.5926C25.5666 51.5901 25.4359 51.6137 25.3135 51.6618C25.191 51.71 25.0793 51.7818 24.9847 51.8732C24.8901 51.9646 24.8145 52.0738 24.7621 52.1945C24.7098 52.3152 24.6817 52.445 24.6796 52.5766C24.6776 52.7081 24.7014 52.8387 24.7499 52.961C24.7984 53.0833 24.8705 53.1949 24.9622 53.2892C25.0538 53.3836 25.1632 53.4589 25.284 53.511L33.9563 57.2716C34.301 57.4224 34.6729 57.5006 35.0491 57.5014C35.5757 57.4915 36.0896 57.3383 36.5357 57.0583C36.9817 56.7783 37.3431 56.382 37.5808 55.912C37.7316 55.6302 37.8426 55.3288 37.9107 55.0165L51.4303 48.0731C51.5338 48.02 51.6493 47.9945 51.7655 47.9991C51.8817 48.0036 51.9948 48.038 52.0939 48.099C52.2166 48.1806 52.3176 48.291 52.3881 48.4204C52.4586 48.5498 52.4966 48.6945 52.4987 48.8419C52.5081 48.9888 52.4825 49.1358 52.424 49.2709C52.3656 49.406 52.2758 49.5253 52.1623 49.619Z" fill="#931602"/>
<path d="M14.0732 29.8773C14.148 30.0617 14.2762 30.2197 14.4413 30.3309C14.6064 30.4421 14.8009 30.5015 15 30.5015H19V43.999C19 44.2642 19.1053 44.5186 19.2929 44.7061C19.4804 44.8936 19.7347 44.999 19.9999 44.999H43.9997C44.2649 44.999 44.5193 44.8936 44.7068 44.7061C44.8944 44.5186 44.9997 44.2642 44.9997 43.999V30.5015H48.9997C49.1988 30.5016 49.3933 30.4422 49.5584 30.331C49.7235 30.2198 49.8517 30.0618 49.9264 29.8773C50.0012 29.6929 50.0193 29.4903 49.9782 29.2955C49.9371 29.1007 49.8389 28.9226 49.696 28.784L32.6961 12.2822C32.5096 12.1012 32.2598 11.9999 31.9998 11.9999C31.7399 11.9999 31.4901 12.1012 31.3035 12.2822L14.3037 28.784C14.1608 28.9226 14.0626 29.1007 14.0215 29.2955C13.9804 29.4902 13.9985 29.6928 14.0732 29.8773ZM34.4998 42.999H29.4999V33.9992H34.4998V42.999ZM31.9998 14.3932L46.5339 28.5016H43.9997C43.7345 28.5016 43.4802 28.6069 43.2926 28.7945C43.1051 28.982 42.9998 29.2363 42.9997 29.5016V42.999H36.4998V32.9993C36.4998 32.7341 36.3944 32.4797 36.2069 32.2922C36.0194 32.1047 35.765 31.9993 35.4998 31.9993H28.4999C28.2347 31.9993 27.9803 32.1047 27.7928 32.2922C27.6053 32.4797 27.4999 32.7341 27.4999 32.9993V42.999H20.9999V29.5015C20.9999 29.2363 20.8945 28.982 20.707 28.7944C20.5195 28.6069 20.2651 28.5015 19.9999 28.5015H17.4658L31.9998 14.3932Z" fill="#931602"/>
<path d="M49.2552 20.3323C49.0782 20.5298 48.987 20.7895 49.0015 21.0543C49.016 21.319 49.1351 21.5672 49.3326 21.7442C49.5301 21.9211 49.7898 22.0124 50.0545 21.9978C50.3193 21.9833 50.5675 21.8642 50.7444 21.6667C51.4525 20.8309 52.3342 20.1594 53.3281 19.6988C54.322 19.2382 55.4043 18.9996 56.4997 18.9996C57.5952 18.9996 58.6775 19.2382 59.6714 19.6988C60.6653 20.1594 61.547 20.8309 62.2551 21.6667C62.3426 21.7648 62.4486 21.8447 62.5671 21.9017C62.6855 21.9588 62.814 21.9919 62.9453 21.9992C63.0765 22.0066 63.2079 21.9879 63.332 21.9444C63.456 21.9009 63.5703 21.8333 63.6682 21.7456C63.7661 21.6579 63.8457 21.5517 63.9026 21.4332C63.9594 21.3146 63.9923 21.186 63.9993 21.0548C64.0064 20.9235 63.9875 20.7921 63.9438 20.6682C63.9 20.5442 63.8322 20.4301 63.7443 20.3323C62.8487 19.2871 61.7375 18.448 60.4869 17.8728C59.2364 17.2975 57.8762 16.9996 56.4998 16.9996C55.1233 16.9996 53.7631 17.2975 52.5126 17.8728C51.2621 18.448 50.1508 19.2871 49.2552 20.3323Z" fill="#931602"/>
<path d="M60.3895 24.6103C60.5872 24.6102 60.7805 24.5516 60.945 24.4417C61.1094 24.3318 61.2375 24.1757 61.3132 23.993C61.3889 23.8103 61.4087 23.6092 61.3701 23.4153C61.3315 23.2213 61.2363 23.0431 61.0965 22.9033C59.8765 21.6862 58.2236 21.0027 56.5003 21.0027C54.7771 21.0027 53.1242 21.6862 51.9042 22.9033C51.8113 22.9961 51.7377 23.1064 51.6874 23.2277C51.6372 23.349 51.6113 23.479 51.6113 23.6103C51.6113 23.7416 51.6372 23.8717 51.6874 23.993C51.7377 24.1143 51.8113 24.2245 51.9042 24.3173C51.997 24.4102 52.1073 24.4838 52.2286 24.5341C52.3499 24.5843 52.4799 24.6102 52.6112 24.6102C52.7425 24.6102 52.8726 24.5843 52.9939 24.5341C53.1152 24.4838 53.2254 24.4102 53.3182 24.3173C54.1629 23.4747 55.3073 23.0016 56.5003 23.0016C57.6934 23.0016 58.8378 23.4747 59.6824 24.3173C59.7752 24.4103 59.8854 24.4841 60.0067 24.5344C60.1281 24.5846 60.2581 24.6104 60.3895 24.6103Z" fill="#931602"/>
<path d="M44.4999 15.9996C46.0821 15.9996 47.6288 15.5304 48.9444 14.6514C50.2599 13.7723 51.2852 12.5229 51.8907 11.0611C52.4962 9.59935 52.6546 7.99086 52.3459 6.43906C52.0372 4.88725 51.2753 3.46183 50.1565 2.34305C49.0377 1.22427 47.6123 0.462374 46.0605 0.153709C44.5087 -0.154956 42.9002 0.00347382 41.4384 0.608964C39.9766 1.21445 38.7272 2.23981 37.8482 3.55537C36.9692 4.87093 36.5 6.41761 36.5 7.99981C36.5024 10.1208 37.3461 12.1542 38.8458 13.6539C40.3456 15.1536 42.379 15.9972 44.4999 15.9996ZM44.4999 1.99994C45.6866 1.99995 46.8466 2.35185 47.8333 3.01113C48.8199 3.67042 49.5889 4.60747 50.043 5.7038C50.4971 6.80014 50.616 8.00651 50.3844 9.17036C50.1529 10.3342 49.5815 11.4033 48.7424 12.2424C47.9033 13.0815 46.8342 13.6529 45.6704 13.8844C44.5065 14.1159 43.3001 13.9971 42.2038 13.543C41.1075 13.0888 40.1704 12.3198 39.5112 11.3331C38.8519 10.3465 38.5 9.18647 38.5 7.99981C38.5018 6.40908 39.1345 4.88402 40.2593 3.75921C41.3841 2.6344 42.9092 2.00171 44.4999 1.99994Z" fill="#931602"/>
<path d="M19.4999 15.9996C21.0821 15.9996 22.6288 15.5304 23.9444 14.6514C25.2599 13.7723 26.2852 12.5229 26.8907 11.0611C27.4962 9.59936 27.6546 7.99086 27.3459 6.43906C27.0372 4.88726 26.2753 3.46184 25.1565 2.34305C24.0377 1.22427 22.6123 0.462375 21.0605 0.15371C19.5087 -0.154956 17.9002 0.00347346 16.4384 0.608963C14.9766 1.21445 13.7272 2.23981 12.8482 3.55537C11.9692 4.87093 11.5 6.4176 11.5 7.99981C11.5024 10.1208 12.3461 12.1541 13.8458 13.6539C15.3456 15.1536 17.379 15.9972 19.4999 15.9996ZM19.4999 1.99994C20.6866 1.99996 21.8466 2.35186 22.8333 3.01115C23.8199 3.67043 24.5889 4.60749 25.043 5.70382C25.4971 6.80016 25.6159 8.00653 25.3844 9.17038C25.1529 10.3342 24.5814 11.4033 23.7423 12.2424C22.9032 13.0815 21.8342 13.6529 20.6703 13.8844C19.5065 14.1159 18.3001 13.9971 17.2038 13.5429C16.1074 13.0888 15.1704 12.3198 14.5111 11.3331C13.8519 10.3465 13.5 9.18647 13.5 7.99981C13.5018 6.40908 14.1345 4.88401 15.2593 3.7592C16.3841 2.63439 17.9092 2.0017 19.4999 1.99994Z" fill="#931602"/>
<path d="M42.5821 8.89091H44.2685L44.1741 9.35859L42.857 11.2485C42.7814 11.3562 42.7279 11.4778 42.6994 11.6062C42.6709 11.7347 42.668 11.8675 42.691 11.997C42.7139 12.1266 42.7622 12.2503 42.833 12.3612C42.9038 12.4721 42.9959 12.5679 43.1038 12.6431C43.2117 12.7183 43.3335 12.7715 43.462 12.7996C43.5905 12.8277 43.7233 12.8302 43.8528 12.8068C43.9823 12.7835 44.1059 12.7349 44.2166 12.6637C44.3272 12.5925 44.4227 12.5002 44.4976 12.392L47.2364 8.46266C47.3409 8.31276 47.4024 8.13706 47.4141 7.95466C47.4258 7.77226 47.3873 7.59015 47.3027 7.42812C47.2181 7.26609 47.0908 7.13034 46.9344 7.03564C46.7781 6.94093 46.5988 6.89089 46.4161 6.89095H44.672L44.7326 6.5905L46.0342 4.75841C46.186 4.54208 46.246 4.27447 46.2011 4.01405C46.1562 3.75362 46.0101 3.52156 45.7946 3.36854C45.5791 3.21553 45.3119 3.15401 45.0512 3.19743C44.7905 3.24085 44.5576 3.38567 44.4034 3.60026L41.7667 7.31184C41.6605 7.46147 41.5974 7.63744 41.5845 7.82051C41.5716 8.00357 41.6093 8.18665 41.6935 8.34971C41.7777 8.51277 41.9052 8.64951 42.0619 8.74497C42.2186 8.84043 42.3986 8.89092 42.5821 8.89091Z" fill="#931602"/>
<path d="M16.3011 10.4998C16.3011 10.765 16.4065 11.0193 16.594 11.2069C16.7816 11.3944 17.0359 11.4998 17.3011 11.4998C17.5663 11.4998 17.8207 11.3944 18.0082 11.2069C18.1958 11.0193 18.3011 10.765 18.3011 10.4998C18.2943 10.359 18.3297 10.2194 18.4027 10.0989C18.5992 9.70559 18.7015 9.27196 18.7015 8.83231C18.7015 8.39265 18.5992 7.95903 18.4027 7.56574C18.336 7.44299 18.3011 7.30553 18.3011 7.16585C18.3011 7.02617 18.336 6.88871 18.4027 6.76596C18.6057 6.37522 18.7084 5.94015 18.7015 5.49988C18.7015 5.23466 18.5962 4.98031 18.4086 4.79277C18.2211 4.60523 17.9667 4.49988 17.7015 4.49988C17.4363 4.49988 17.182 4.60523 16.9944 4.79277C16.8069 4.98031 16.7015 5.23466 16.7015 5.49988C16.7082 5.64008 16.6729 5.77908 16.6 5.89902C16.3969 6.28956 16.2942 6.72449 16.3011 7.16461C16.294 7.60515 16.3967 8.04053 16.6 8.43143C16.6666 8.55453 16.7015 8.69232 16.7015 8.83231C16.7015 8.9723 16.6666 9.11008 16.6 9.23319C16.3967 9.62401 16.294 10.0593 16.3011 10.4998Z" fill="#931602"/>
<path d="M20.3011 10.4998C20.3011 10.765 20.4065 11.0193 20.594 11.2069C20.7816 11.3944 21.0359 11.4998 21.3011 11.4998C21.5663 11.4998 21.8207 11.3944 22.0082 11.2069C22.1958 11.0193 22.3011 10.765 22.3011 10.4998C22.2943 10.359 22.3297 10.2194 22.4027 10.0989C22.5992 9.70559 22.7015 9.27196 22.7015 8.83231C22.7015 8.39265 22.5992 7.95903 22.4027 7.56574C22.336 7.44299 22.3011 7.30553 22.3011 7.16585C22.3011 7.02617 22.336 6.88871 22.4027 6.76596C22.6057 6.37522 22.7084 5.94015 22.7015 5.49988C22.7015 5.23466 22.5962 4.98031 22.4086 4.79277C22.2211 4.60523 21.9667 4.49988 21.7015 4.49988C21.4363 4.49988 21.182 4.60523 20.9944 4.79277C20.8069 4.98031 20.7015 5.23466 20.7015 5.49988C20.7082 5.64008 20.6729 5.77908 20.6 5.89902C20.3969 6.28956 20.2942 6.72449 20.3011 7.16461C20.294 7.60515 20.3967 8.04053 20.6 8.43143C20.6666 8.55453 20.7015 8.69232 20.7015 8.83231C20.7015 8.9723 20.6666 9.11008 20.6 9.23319C20.3967 9.62401 20.294 10.0593 20.3011 10.4998Z" fill="#931602"/>
<path d="M5.96972 30.5889C6.12011 30.6741 6.29002 30.719 6.46289 30.719H6.53808C6.71095 30.719 6.88086 30.6741 7.03124 30.5889C13.394 26.9801 13.081 20.1018 12.9536 18.7596C12.93 18.5118 12.815 18.2818 12.6309 18.1143C12.4468 17.9469 12.2068 17.8541 11.958 17.8541H11.9438C10.1755 17.8795 8.46762 17.211 7.1865 15.9918C7.00094 15.8168 6.75552 15.7194 6.50046 15.7194C6.24541 15.7194 5.99999 15.8168 5.81443 15.9918C4.55513 17.1884 2.88417 17.8554 1.14701 17.8548C1.11136 17.8551 1.07377 17.8543 1.04301 17.8541C0.794147 17.8541 0.554227 17.9469 0.370121 18.1143C0.186014 18.2818 0.0709493 18.5118 0.0474047 18.7596C-0.0800003 20.1018 -0.393 26.9801 5.96972 30.5889ZM6.5005 18.033C7.80331 19.0388 9.364 19.6557 11.0024 19.8125C11.0122 21.7751 10.5273 26.0145 6.5005 28.5755C2.47366 26.0145 1.9888 21.7751 1.99856 19.8125C3.63694 19.6555 5.19758 19.0386 6.5005 18.033Z" fill="#931602"/>
</g>
<defs>
<clipPath id="clip0_1306_191">
<rect width="64" height="64" fill="white"/>
</clipPath>
</defs>
</svg>
