<svg width="54" height="54" viewBox="0 0 54 54" fill="none" xmlns="http://www.w3.org/2000/svg">
<g clip-path="url(#clip0_1294_514)">
<path d="M27 0C12.0885 0 0 12.0885 0 27C0 41.9115 12.0885 54 27 54C41.9115 54 54 41.9115 54 27C53.9833 12.0955 41.9045 0.0166993 27 0ZM27 52.2C13.0825 52.2 1.8 40.9175 1.8 27C1.8 13.0825 13.0825 1.8 27 1.8C40.9175 1.8 52.2 13.0825 52.2 27C52.1842 40.9109 40.9109 52.1842 27 52.2Z" fill="#931602"/>
<path d="M27 4.5C14.5736 4.5 4.5 14.5736 4.5 27C4.5 39.4264 14.5736 49.5 27 49.5C39.4264 49.5 49.5 39.4264 49.5 27C49.4859 14.5793 39.4207 4.51406 27 4.5ZM27 47.7C15.5676 47.7 6.3 38.4324 6.3 27C6.3 15.5676 15.5676 6.3 27 6.3C38.4324 6.3 47.7 15.5676 47.7 27C47.6873 38.4271 38.4271 47.6873 27 47.7Z" fill="#931602"/>
<path d="M40.256 13.7447C39.9695 13.4591 39.5278 13.3998 39.1758 13.5997L23.1081 22.7698C23.0984 22.7764 23.094 22.7869 23.0839 22.7926C22.9811 22.881 22.8848 22.9772 22.7961 23.0805C22.7904 23.0902 22.7798 23.095 22.7737 23.1047L13.6005 39.1724C13.3997 39.5248 13.4594 39.9678 13.746 40.2548C14.0329 40.5413 14.4759 40.601 14.8283 40.4002L30.8934 31.2302C30.9031 31.2236 30.9075 31.213 30.9176 31.2073C31.0204 31.119 31.1167 31.0227 31.2054 30.9195C31.2112 30.9098 31.2217 30.905 31.2279 30.8953L40.401 14.8302C40.6036 14.4773 40.5443 14.0322 40.256 13.7447ZM16.7984 37.2023L23.7519 25.0246L28.9809 30.2489L16.7984 37.2023ZM30.2496 28.9802L25.0298 23.7599L37.2075 16.8064L30.2496 28.9802Z" fill="#931602"/>
<path d="M12.5996 26.1H8.99961C8.50259 26.1 8.09961 26.503 8.09961 27C8.09961 27.4971 8.50259 27.9 8.99961 27.9H12.5996C13.0966 27.9 13.4996 27.4971 13.4996 27C13.4996 26.503 13.0966 26.1 12.5996 26.1Z" fill="#931602"/>
<path d="M45 26.1H41.4C40.903 26.1 40.5 26.503 40.5 27C40.5 27.4971 40.903 27.9 41.4 27.9H45C45.497 27.9 45.9 27.4971 45.9 27C45.9 26.503 45.497 26.1 45 26.1Z" fill="#931602"/>
<path d="M26.9996 13.5C27.4966 13.5 27.8996 13.097 27.8996 12.6V8.99998C27.8996 8.50295 27.4966 8.09998 26.9996 8.09998C26.5026 8.09998 26.0996 8.50295 26.0996 8.99998V12.6C26.0996 13.097 26.5026 13.5 26.9996 13.5Z" fill="#931602"/>
<path d="M26.9996 40.5C26.5026 40.5 26.0996 40.903 26.0996 41.4V45C26.0996 45.497 26.5026 45.9 26.9996 45.9C27.4966 45.9 27.8996 45.497 27.8996 45V41.4C27.8996 40.903 27.4966 40.5 26.9996 40.5Z" fill="#931602"/>
</g>
<defs>
<clipPath id="clip0_1294_514">
<rect width="54" height="54" fill="white"/>
</clipPath>
</defs>
</svg>
