<svg width="37" height="35" viewBox="0 0 37 35" fill="none" xmlns="http://www.w3.org/2000/svg">
<path fill-rule="evenodd" clip-rule="evenodd" d="M18.6882 0.420898L19.2741 0.718634L35.8352 9.13369C36.5403 9.49205 36.8444 10.4028 36.5143 11.168C36.1843 11.9334 35.3453 12.2635 34.6402 11.9051L18.665 3.78778L2.34076 11.7614C1.63087 12.1081 0.796448 11.7645 0.47702 10.994C0.157592 10.2233 0.474117 9.31766 1.184 8.97078L18.0982 0.709075L18.6882 0.420898ZM18.6874 6.54262L19.2706 6.83657L29.1371 11.8092C29.8431 12.165 30.1497 13.0748 29.8219 13.8412C29.4942 14.6077 28.6561 14.9406 27.9499 14.5846L18.6669 9.90608L9.0348 14.593C8.32452 14.9387 7.49052 14.5938 7.1721 13.8228C6.85367 13.0516 7.17138 12.1463 7.88172 11.8008L18.1005 6.82817L18.6874 6.54262ZM18.8431 24.1825L33.8288 17.7435V31.5576H19.7338V28.4975C19.7338 27.6525 19.1027 26.9675 18.3243 26.9675C17.5458 26.9675 16.9148 27.6525 16.9148 28.4975V33.0876V34.6175H18.3243H35.2383H36.6476V33.0876V16.0552C36.6476 14.705 35.3939 13.78 34.2373 14.2768L18.3298 21.1121L2.77552 14.2864C1.61736 13.7781 0.353333 14.7035 0.353333 16.0595V33.0876C0.353333 33.9327 0.984378 34.6175 1.76283 34.6175C2.54126 34.6175 3.17231 33.9327 3.17231 33.0876V17.7612L17.7961 24.1784L18.3188 24.4079L18.8431 24.1825Z" fill="#018191"/>
<path d="M18.6881 0.420865L18.8375 0.0744301L18.6911 0L18.5435 0.0720483L18.6881 0.420865ZM18.6649 3.78775L18.8143 3.44138L18.6677 3.36687L18.5204 3.43899L18.6649 3.78775ZM18.6873 6.54258L18.8356 6.1957L18.6898 6.12222L18.5431 6.19348L18.6873 6.54258ZM18.6668 9.90604L18.8151 9.55916L18.6693 9.48567L18.5226 9.55693L18.6668 9.90604ZM33.8287 17.7435H34.181V17.1806L33.699 17.3879L33.8287 17.7435ZM33.8287 31.5576V31.9401H34.181V31.5576H33.8287ZM19.7337 31.5576H19.3813V31.9401H19.7337V31.5576ZM16.9147 34.6175H16.5623V35H16.9147V34.6175ZM36.6475 34.6175V35H36.9999V34.6175H36.6475ZM18.3297 21.1121L18.1976 21.4667L18.3283 21.5241L18.4594 21.4677L18.3297 21.1121ZM3.17222 17.7611L3.30429 17.4065L2.81986 17.194V17.7611H3.17222ZM18.3187 24.4079L18.1866 24.7625L18.3174 24.8199L18.4484 24.7635L18.3187 24.4079ZM19.4235 0.372165L18.8375 0.0744301L18.5388 0.767301L19.1247 1.06502L19.4235 0.372165ZM35.9846 8.78729L19.4235 0.372165L19.1247 1.06502L35.6859 9.48019L35.9846 8.78729ZM36.8334 11.3302C37.2459 10.3735 36.8659 9.23506 35.9846 8.78729L35.6859 9.48019C36.2147 9.74879 36.4425 10.4319 36.1951 11.006L36.8334 11.3302ZM34.4908 12.2516C35.372 12.6994 36.4209 12.2869 36.8334 11.3302L36.1951 11.006C35.9475 11.58 35.3183 11.8273 34.7895 11.5587L34.4908 12.2516ZM18.5155 4.13412L34.4908 12.2516L34.7895 11.5587L18.8143 3.44138L18.5155 4.13412ZM2.48527 12.1101L18.8095 4.13652L18.5204 3.43899L2.19608 11.4126L2.48527 12.1101ZM0.155598 11.1509C0.554891 12.1141 1.59792 12.5435 2.48527 12.1101L2.19608 11.4126C1.66367 11.6727 1.03785 11.4148 0.798273 10.8371L0.155598 11.1509ZM1.03934 8.62198C0.151968 9.05537 -0.24368 10.1877 0.155598 11.1509L0.798273 10.8371C0.55871 10.2591 0.796095 9.57972 1.32851 9.31968L1.03934 8.62198ZM17.9535 0.360225L1.03934 8.62198L1.32851 9.31968L18.2428 1.05786L17.9535 0.360225ZM18.5435 0.0720483L17.9535 0.360225L18.2428 1.05786L18.8326 0.769683L18.5435 0.0720483ZM19.4189 6.48965L18.8356 6.1957L18.5388 6.88946L19.1222 7.18358L19.4189 6.48965ZM29.2853 11.4621L19.4189 6.48965L19.1222 7.18358L28.9886 12.1561L29.2853 11.4621ZM30.1414 14.0023C30.5512 13.0442 30.1679 11.907 29.2853 11.4621L28.9886 12.1561C29.5181 12.4229 29.7482 13.1052 29.5023 13.6801L30.1414 14.0023ZM27.8015 14.9316C28.6841 15.3763 29.7317 14.9602 30.1414 14.0023L29.5023 13.6801C29.2564 14.255 28.6277 14.5046 28.0983 14.2377L27.8015 14.9316ZM18.5183 10.2529L27.8015 14.9316L28.0983 14.2377L18.8151 9.55916L18.5183 10.2529ZM9.17895 14.9421L18.8109 10.255L18.5226 9.55693L8.89064 14.244L9.17895 14.9421ZM6.85048 13.9792C7.24851 14.9431 8.29098 15.3741 9.17895 14.9421L8.89064 14.244C8.35789 14.5032 7.73238 14.2445 7.49356 13.6662L6.85048 13.9792ZM7.7375 11.4517C6.84958 11.8837 6.45245 13.0153 6.85048 13.9792L7.49356 13.6662C7.25474 13.0879 7.49303 12.4091 8.02577 12.1497L7.7375 11.4517ZM17.9564 6.47903L7.7375 11.4517L8.02577 12.1497L18.2445 7.17725L17.9564 6.47903ZM18.5431 6.19348L17.9564 6.47903L18.2445 7.17725L18.8314 6.89169L18.5431 6.19348ZM33.699 17.3879L18.7133 23.8268L18.9726 24.5382L33.9584 18.0991L33.699 17.3879ZM34.181 31.5576V17.7435H33.4763V31.5576H34.181ZM19.7337 31.9401H33.8287V31.1751H19.7337V31.9401ZM19.3813 28.4975V31.5576H20.0861V28.4975H19.3813ZM18.3242 27.35C18.9081 27.35 19.3813 27.8637 19.3813 28.4975H20.0861C20.0861 27.4413 19.2972 26.5849 18.3242 26.5849V27.35ZM17.2671 28.4975C17.2671 27.8637 17.7405 27.35 18.3242 27.35V26.5849C17.3512 26.5849 16.5623 27.4413 16.5623 28.4975H17.2671ZM17.2671 33.0876V28.4975H16.5623V33.0876H17.2671ZM17.2671 34.6175V33.0876H16.5623V34.6175H17.2671ZM18.3242 34.2352H16.9147V35H18.3242V34.2352ZM35.2382 34.2352H18.3242V35H35.2382V34.2352ZM36.6475 34.2352H35.2382V35H36.6475V34.2352ZM36.2953 33.0876V34.6175H36.9999V33.0876H36.2953ZM36.2953 16.0552V33.0876H36.9999V16.0552H36.2953ZM34.3669 14.6325C35.2921 14.2349 36.2953 14.975 36.2953 16.0552H36.9999C36.9999 14.435 35.4954 13.3248 34.1077 13.9211L34.3669 14.6325ZM18.4594 21.4677L34.3669 14.6325L34.1077 13.9211L18.2 20.7563L18.4594 21.4677ZM2.64337 14.6411L18.1976 21.4667L18.4618 20.7573L2.90751 13.9317L2.64337 14.6411ZM0.705626 16.0595C0.705626 14.9746 1.71684 14.2344 2.64337 14.6411L2.90751 13.9317C1.5177 13.3219 0.000870848 14.4323 0.000870848 16.0595H0.705626ZM0.705626 33.0876V16.0595H0.000870848V33.0876H0.705626ZM1.76274 34.2352C1.17891 34.2352 0.705626 33.7212 0.705626 33.0876H0.000870848C0.000870848 34.1438 0.789689 35 1.76274 35V34.2352ZM2.81986 33.0876C2.81986 33.7212 2.34657 34.2352 1.76274 34.2352V35C2.73578 35 3.5246 34.1438 3.5246 33.0876H2.81986ZM2.81986 17.7611V33.0876H3.5246V17.7611H2.81986ZM17.9281 23.8238L3.30429 17.4065L3.04016 18.1157L17.6639 24.5331L17.9281 23.8238ZM18.4508 24.0531L17.9281 23.8238L17.6639 24.5331L18.1866 24.7625L18.4508 24.0531ZM18.7133 23.8268L18.1891 24.0521L18.4484 24.7635L18.9726 24.5382L18.7133 23.8268Z" fill="#018191"/>
</svg>
