<svg width="64" height="64" viewBox="0 0 64 64" fill="none" xmlns="http://www.w3.org/2000/svg">
<g clip-path="url(#clip0_1306_204)">
<path d="M14.9344 13.8667H29.8677C30.7164 13.8667 31.5303 13.5295 32.1305 12.9294C32.7306 12.3293 33.0677 11.5154 33.0677 10.6667C33.0677 9.81798 32.7306 9.00405 32.1305 8.40393C31.5303 7.80382 30.7164 7.46667 29.8677 7.46667H14.9344C14.0857 7.46667 13.2717 7.80382 12.6716 8.40393C12.0715 9.00405 11.7344 9.81798 11.7344 10.6667C11.7344 11.5154 12.0715 12.3293 12.6716 12.9294C13.2717 13.5295 14.0857 13.8667 14.9344 13.8667ZM14.9344 9.60001H29.8677C30.1506 9.60001 30.4219 9.71239 30.622 9.91243C30.822 10.1125 30.9344 10.3838 30.9344 10.6667C30.9344 10.9496 30.822 11.2209 30.622 11.4209C30.4219 11.621 30.1506 11.7333 29.8677 11.7333H14.9344C14.6515 11.7333 14.3802 11.621 14.1801 11.4209C13.9801 11.2209 13.8677 10.9496 13.8677 10.6667C13.8677 10.3838 13.9801 10.1125 14.1801 9.91243C14.3802 9.71239 14.6515 9.60001 14.9344 9.60001Z" fill="#931602"/>
<path d="M63.0816 35.679C63.1914 34.8877 63.088 34.0814 62.7822 33.3434C62.4764 32.6053 61.9792 31.9623 61.3419 31.4806C60.9179 31.161 60.6148 30.7071 60.4821 30.1931C60.2796 29.4215 59.8752 28.7177 59.3106 28.1542C58.7459 27.5907 58.0413 27.1877 57.2693 26.9867C56.7586 26.8511 56.308 26.5484 55.9893 26.127C55.5088 25.4878 54.8656 24.9892 54.1268 24.6832C53.3879 24.3772 52.5806 24.275 51.7888 24.3872C51.2628 24.4581 50.7281 24.3511 50.2699 24.0832C49.5813 23.6809 48.7981 23.4688 48.0005 23.4688C47.203 23.4688 46.4198 23.6809 45.7312 24.0832C45.4463 24.247 45.1301 24.3491 44.8032 24.383V8.97068C44.8039 8.69107 44.749 8.41411 44.6417 8.1559C44.5344 7.8977 44.3768 7.66342 44.1781 7.46668L37.3333 0.621884C37.1363 0.423767 36.9019 0.26677 36.6437 0.160014C36.3856 0.0532592 36.1087 -0.00112623 35.8293 1.76769e-05H3.2C2.35131 1.76769e-05 1.53737 0.33716 0.937258 0.937276C0.337142 1.53739 0 2.35133 0 3.20002L0 56.5334C0 57.382 0.337142 58.196 0.937258 58.7961C1.53737 59.3962 2.35131 59.7334 3.2 59.7334H34.7573C34.8537 60.2937 35.1466 60.8013 35.5836 61.1651C36.0205 61.529 36.5728 61.7251 37.1413 61.7184H39.9317L41.5019 63.2907C41.9641 63.7449 42.5861 63.9996 43.2341 64C43.3876 63.9995 43.5408 63.9853 43.6917 63.9574C44.0796 63.8841 44.444 63.7183 44.7542 63.4741C45.0643 63.23 45.3109 62.9145 45.4731 62.5547L48 56.9835L50.5248 62.5483C50.6864 62.9096 50.933 63.2265 51.2435 63.4718C51.5541 63.7172 51.9194 63.8838 52.3083 63.9574C52.7013 64.0293 53.1059 64.0057 53.488 63.8886C53.87 63.7715 54.2183 63.5642 54.5035 63.2843L56.0683 61.7184H58.8587C59.2627 61.7185 59.6604 61.6183 60.0163 61.4269C60.3721 61.2354 60.6748 60.9587 60.8975 60.6215C61.1201 60.2844 61.2556 59.8972 61.2918 59.4948C61.328 59.0924 61.2639 58.6873 61.1051 58.3158L58.1728 51.5957C58.7377 51.3093 59.2354 50.9062 59.6331 50.4133C60.0308 49.9204 60.3194 49.3487 60.48 48.736C60.6156 48.2253 60.9183 47.7747 61.3397 47.456C61.9771 46.9739 62.4744 46.3304 62.7802 45.5921C63.086 44.8537 63.1893 44.0471 63.0795 43.2555C63.0106 42.7293 63.1171 42.1951 63.3824 41.7355C63.7853 41.0471 63.9977 40.2638 63.9977 39.4662C63.9977 38.6685 63.7853 37.8852 63.3824 37.1968C63.1151 36.7388 63.0092 36.2043 63.0816 35.679ZM37.3333 3.64055L41.1616 7.46668H38.4C38.1171 7.46668 37.8458 7.3543 37.6458 7.15427C37.4457 6.95423 37.3333 6.68292 37.3333 6.40002V3.64055ZM35.2064 57.6H3.2C2.9171 57.6 2.64579 57.4876 2.44575 57.2876C2.24571 57.0876 2.13333 56.8162 2.13333 56.5334V3.20002C2.13333 2.91712 2.24571 2.64581 2.44575 2.44577C2.64579 2.24573 2.9171 2.13335 3.2 2.13335H35.2V6.40002C35.2 7.24871 35.5371 8.06264 36.1373 8.66276C36.7374 9.26288 37.5513 9.60002 38.4 9.60002H42.6667V24.4491C41.6096 24.6702 40.6677 25.2652 40.0139 26.1248C39.6943 26.5488 39.2405 26.8519 38.7264 26.9846C37.9548 27.1871 37.251 27.5915 36.6875 28.1561C36.124 28.7208 35.721 29.4253 35.52 30.1974C35.3844 30.7081 35.0817 31.1587 34.6603 31.4774C34.0229 31.9595 33.5257 32.6029 33.2198 33.3413C32.914 34.0797 32.8107 34.8863 32.9205 35.6779C32.9928 36.204 32.8857 36.7391 32.6165 37.1968C32.2136 37.8852 32.0013 38.6685 32.0013 39.4662C32.0013 40.2638 32.2136 41.0471 32.6165 41.7355C32.883 42.193 32.9886 42.7267 32.9163 43.2512C32.8065 44.0425 32.9099 44.8488 33.2157 45.5868C33.5215 46.3248 34.0187 46.9679 34.656 47.4496C35.08 47.7692 35.383 48.223 35.5157 48.7371C35.6767 49.3495 35.9656 49.9208 36.3635 50.4133C36.7614 50.9059 37.2592 51.3085 37.824 51.5947L35.2064 57.6ZM43.5264 61.679C43.5061 61.7261 43.4742 61.7674 43.4338 61.7991C43.3933 61.8308 43.3456 61.8518 43.2949 61.8603C43.2432 61.8709 43.1897 61.8688 43.1389 61.8541C43.0882 61.8395 43.0418 61.8126 43.0037 61.776L41.3952 60.1664C41.0215 59.7944 40.5156 59.5854 39.9883 59.5851H37.1413C37.0896 59.5853 37.0387 59.5726 36.9932 59.548C36.9477 59.5233 36.9092 59.4877 36.8811 59.4443C36.8531 59.4048 36.8356 59.3588 36.8302 59.3107C36.8248 59.2625 36.8317 59.2138 36.8501 59.1691L39.7504 52.5152C39.8465 52.6053 39.9346 52.7034 40.0139 52.8086C40.4943 53.4479 41.1375 53.9466 41.8763 54.2526C42.6152 54.5586 43.4226 54.6607 44.2144 54.5483C44.7405 54.4764 45.2755 54.5835 45.7333 54.8523C45.9689 54.9861 46.2159 55.0985 46.4715 55.1883L43.5264 61.679ZM59.1445 59.1595C59.1649 59.2053 59.1731 59.2555 59.1684 59.3054C59.1638 59.3552 59.1463 59.4031 59.1179 59.4443C59.0898 59.4877 59.0512 59.5233 59.0057 59.548C58.9603 59.5726 58.9093 59.5853 58.8576 59.5851H56.0107C55.4843 59.5852 54.9794 59.7934 54.6059 60.1643L53.0059 61.7643C52.9677 61.8026 52.9207 61.831 52.869 61.8468C52.8172 61.8626 52.7624 61.8654 52.7093 61.8549C52.6576 61.8461 52.6091 61.8242 52.5682 61.7914C52.5273 61.7585 52.4955 61.7158 52.4757 61.6672L49.5339 55.1819C49.7925 55.0917 50.0424 54.9781 50.2805 54.8427C50.7386 54.5776 51.2718 54.4722 51.7963 54.5429C52.5876 54.6537 53.3942 54.5509 54.1324 54.245C54.8707 53.9391 55.5136 53.4413 55.9947 52.8032C56.0735 52.699 56.1609 52.6016 56.256 52.512L59.1445 59.1595ZM61.5467 40.6539V40.6635C61.0408 41.5331 60.84 42.5467 60.976 43.5435C61.0332 43.9586 60.9788 44.3816 60.8183 44.7687C60.6579 45.1559 60.3971 45.4932 60.0629 45.7462C59.2573 46.3572 58.6803 47.2212 58.4245 48.1995C58.3182 48.6045 58.1061 48.9739 57.81 49.2699C57.5138 49.5658 57.1443 49.7777 56.7392 49.8838C55.7603 50.1375 54.8958 50.7145 54.2859 51.5211C54.0311 51.8531 53.6934 52.1121 53.3067 52.2722C52.9201 52.4323 52.4981 52.4878 52.0832 52.4331C51.0814 52.2959 50.0626 52.4984 49.1893 53.008C48.8282 53.221 48.4166 53.3333 47.9973 53.3333C47.5781 53.3333 47.1665 53.221 46.8053 53.008C46.1157 52.606 45.3316 52.3943 44.5333 52.3947C44.3282 52.3951 44.1233 52.4093 43.92 52.4374C43.5049 52.4929 43.0826 52.4377 42.6957 52.2774C42.3089 52.117 41.9714 51.8572 41.7173 51.5243C41.1063 50.7186 40.2423 50.1416 39.264 49.8859C38.859 49.7796 38.4896 49.5675 38.1936 49.2713C37.8977 48.9752 37.6858 48.6056 37.5797 48.2006C37.326 47.2216 36.749 46.3571 35.9424 45.7472C35.6082 45.4944 35.3474 45.157 35.1871 44.7698C35.0268 44.3826 34.9727 43.9596 35.0304 43.5446C35.1676 42.5428 34.9652 41.5239 34.4555 40.6507C34.2425 40.2895 34.1302 39.8779 34.1302 39.4587C34.1302 39.0394 34.2425 38.6278 34.4555 38.2667C34.9613 37.3971 35.1621 36.3835 35.0261 35.3867C34.9689 34.9715 35.0233 34.5486 35.1838 34.1615C35.3443 33.7743 35.605 33.4369 35.9392 33.184C36.7449 32.573 37.3219 31.709 37.5776 30.7307C37.6839 30.3257 37.896 29.9563 38.1922 29.6603C38.4883 29.3643 38.8579 29.1525 39.2629 29.0464C40.2418 28.7927 41.1063 28.2157 41.7163 27.4091C41.9709 27.077 42.3086 26.8178 42.6953 26.6577C43.082 26.4976 43.504 26.4422 43.9189 26.4971C44.9207 26.6336 45.9393 26.4312 46.8128 25.9222C47.1739 25.7092 47.5855 25.5969 48.0048 25.5969C48.4241 25.5969 48.8357 25.7092 49.1968 25.9222C50.0662 26.4285 51.08 26.6294 52.0768 26.4928C52.4919 26.4367 52.9144 26.4916 53.3014 26.652C53.6883 26.8124 54.0258 27.0726 54.2795 27.4059C54.8905 28.2116 55.7545 28.7886 56.7328 29.0443C57.1378 29.1506 57.5072 29.3627 57.8032 29.6589C58.0991 29.955 58.311 30.3246 58.4171 30.7296C58.6708 31.7085 59.2478 32.573 60.0544 33.183C60.3886 33.4358 60.6494 33.7732 60.8097 34.1604C60.97 34.5476 61.0241 34.9705 60.9664 35.3856C60.8292 36.3874 61.0316 37.4063 61.5413 38.2795C61.7533 38.639 61.8655 39.0486 61.8665 39.466C61.8674 39.8833 61.757 40.2934 61.5467 40.6539Z" fill="#931602"/>
<path d="M48.0007 28.8C45.891 28.8 43.8287 29.4256 42.0746 30.5976C40.3205 31.7697 38.9533 33.4356 38.1459 35.3847C37.3386 37.3338 37.1274 39.4785 37.5389 41.5476C37.9505 43.6168 38.9664 45.5174 40.4582 47.0091C41.9499 48.5009 43.8506 49.5168 45.9197 49.9284C47.9888 50.3399 50.1335 50.1287 52.0826 49.3214C54.0317 48.514 55.6976 47.1469 56.8697 45.3927C58.0417 43.6386 58.6673 41.5763 58.6673 39.4667C58.6642 36.6386 57.5394 33.9273 55.5397 31.9276C53.54 29.9279 50.8287 28.8031 48.0007 28.8ZM48.0007 48C46.3129 48 44.6631 47.4995 43.2598 46.5619C41.8565 45.6242 40.7628 44.2915 40.1169 42.7322C39.471 41.173 39.302 39.4572 39.6313 37.8019C39.9605 36.1466 40.7733 34.6261 41.9667 33.4327C43.1601 32.2393 44.6806 31.4265 46.3359 31.0973C47.9912 30.768 49.707 30.937 51.2662 31.5829C52.8255 32.2287 54.1582 33.3225 55.0959 34.7258C56.0335 36.1291 56.534 37.7789 56.534 39.4667C56.5315 41.7291 55.6316 43.8981 54.0318 45.4978C52.4321 47.0976 50.2631 47.9974 48.0007 48Z" fill="#931602"/>
<path d="M7.46706 20.2666H37.3337C37.6166 20.2666 37.8879 20.1543 38.088 19.9542C38.288 19.7542 38.4004 19.4829 38.4004 19.2C38.4004 18.9171 38.288 18.6458 38.088 18.4457C37.8879 18.2457 37.6166 18.1333 37.3337 18.1333H7.46706C7.18416 18.1333 6.91285 18.2457 6.71281 18.4457C6.51277 18.6458 6.40039 18.9171 6.40039 19.2C6.40039 19.4829 6.51277 19.7542 6.71281 19.9542C6.91285 20.1543 7.18416 20.2666 7.46706 20.2666Z" fill="#931602"/>
<path d="M7.46706 25.6H35.2004C35.4833 25.6 35.7546 25.4876 35.9546 25.2876C36.1547 25.0876 36.2671 24.8162 36.2671 24.5333C36.2671 24.2504 36.1547 23.9791 35.9546 23.7791C35.7546 23.5791 35.4833 23.4667 35.2004 23.4667H7.46706C7.18416 23.4667 6.91285 23.5791 6.71281 23.7791C6.51277 23.9791 6.40039 24.2504 6.40039 24.5333C6.40039 24.8162 6.51277 25.0876 6.71281 25.2876C6.91285 25.4876 7.18416 25.6 7.46706 25.6Z" fill="#931602"/>
<path d="M30.9337 28.8H23.4671C23.1842 28.8 22.9128 28.9124 22.7128 29.1124C22.5128 29.3124 22.4004 29.5838 22.4004 29.8667C22.4004 30.1496 22.5128 30.4209 22.7128 30.6209C22.9128 30.8209 23.1842 30.9333 23.4671 30.9333H30.9337C31.2166 30.9333 31.4879 30.8209 31.688 30.6209C31.888 30.4209 32.0004 30.1496 32.0004 29.8667C32.0004 29.5838 31.888 29.3124 31.688 29.1124C31.4879 28.9124 31.2166 28.8 30.9337 28.8Z" fill="#931602"/>
<path d="M7.46706 30.9333H19.2004C19.4833 30.9333 19.7546 30.8209 19.9546 30.6209C20.1547 30.4209 20.2671 30.1496 20.2671 29.8667C20.2671 29.5838 20.1547 29.3124 19.9546 29.1124C19.7546 28.9124 19.4833 28.8 19.2004 28.8H7.46706C7.18416 28.8 6.91285 28.9124 6.71281 29.1124C6.51277 29.3124 6.40039 29.5838 6.40039 29.8667C6.40039 30.1496 6.51277 30.4209 6.71281 30.6209C6.91285 30.8209 7.18416 30.9333 7.46706 30.9333Z" fill="#931602"/>
<path d="M13.8672 35.2C13.8672 35.4829 13.9796 35.7542 14.1796 35.9542C14.3796 36.1543 14.651 36.2666 14.9339 36.2666H28.8005C29.0834 36.2666 29.3547 36.1543 29.5548 35.9542C29.7548 35.7542 29.8672 35.4829 29.8672 35.2C29.8672 34.9171 29.7548 34.6458 29.5548 34.4457C29.3547 34.2457 29.0834 34.1333 28.8005 34.1333H14.9339C14.651 34.1333 14.3796 34.2457 14.1796 34.4457C13.9796 34.6458 13.8672 34.9171 13.8672 35.2Z" fill="#931602"/>
<path d="M7.46706 36.2666H10.6671C10.95 36.2666 11.2213 36.1543 11.4213 35.9542C11.6213 35.7542 11.7337 35.4829 11.7337 35.2C11.7337 34.9171 11.6213 34.6458 11.4213 34.4457C11.2213 34.2457 10.95 34.1333 10.6671 34.1333H7.46706C7.18416 34.1333 6.91285 34.2457 6.71281 34.4457C6.51277 34.6458 6.40039 34.9171 6.40039 35.2C6.40039 35.4829 6.51277 35.7542 6.71281 35.9542C6.91285 36.1543 7.18416 36.2666 7.46706 36.2666Z" fill="#931602"/>
<path d="M7.46706 41.6H28.8004C29.0833 41.6 29.3546 41.4876 29.5546 41.2876C29.7547 41.0876 29.8671 40.8162 29.8671 40.5333C29.8671 40.2504 29.7547 39.9791 29.5546 39.7791C29.3546 39.5791 29.0833 39.4667 28.8004 39.4667H7.46706C7.18416 39.4667 6.91285 39.5791 6.71281 39.7791C6.51277 39.9791 6.40039 40.2504 6.40039 40.5333C6.40039 40.8162 6.51277 41.0876 6.71281 41.2876C6.91285 41.4876 7.18416 41.6 7.46706 41.6Z" fill="#931602"/>
<path d="M29.8671 44.8H7.46706C7.18416 44.8 6.91285 44.9124 6.71281 45.1124C6.51277 45.3124 6.40039 45.5838 6.40039 45.8667C6.40039 46.1496 6.51277 46.4209 6.71281 46.6209C6.91285 46.8209 7.18416 46.9333 7.46706 46.9333H29.8671C30.15 46.9333 30.4213 46.8209 30.6213 46.6209C30.8213 46.4209 30.9337 46.1496 30.9337 45.8667C30.9337 45.5838 30.8213 45.3124 30.6213 45.1124C30.4213 44.9124 30.15 44.8 29.8671 44.8Z" fill="#931602"/>
<path d="M19.2004 50.1333H7.46706C7.18416 50.1333 6.91285 50.2457 6.71281 50.4457C6.51277 50.6458 6.40039 50.9171 6.40039 51.2C6.40039 51.4829 6.51277 51.7542 6.71281 51.9542C6.91285 52.1543 7.18416 52.2666 7.46706 52.2666H19.2004C19.4833 52.2666 19.7546 52.1543 19.9546 51.9542C20.1547 51.7542 20.2671 51.4829 20.2671 51.2C20.2671 50.9171 20.1547 50.6458 19.9546 50.4457C19.7546 50.2457 19.4833 50.1333 19.2004 50.1333Z" fill="#931602"/>
<path d="M50.4455 36.5792L45.8663 41.1584L45.5538 40.8459C45.3526 40.6516 45.0832 40.5441 44.8035 40.5465C44.5238 40.5489 44.2563 40.6611 44.0585 40.8589C43.8607 41.0566 43.7486 41.3242 43.7461 41.6038C43.7437 41.8835 43.8512 42.153 44.0455 42.3541L45.1122 43.4208C45.3122 43.6208 45.5835 43.7331 45.8663 43.7331C46.1492 43.7331 46.4204 43.6208 46.6205 43.4208L51.9538 38.0875C52.1481 37.8863 52.2556 37.6169 52.2532 37.3372C52.2507 37.0575 52.1386 36.79 51.9408 36.5922C51.743 36.3944 51.4755 36.2823 51.1958 36.2798C50.9161 36.2774 50.6467 36.3849 50.4455 36.5792Z" fill="#931602"/>
</g>
<defs>
<clipPath id="clip0_1306_204">
<rect width="64" height="64" fill="white"/>
</clipPath>
</defs>
</svg>
