<svg width="23" height="22" viewBox="0 0 23 22" fill="none" xmlns="http://www.w3.org/2000/svg">
<path fill-rule="evenodd" clip-rule="evenodd" d="M11.5633 0.263428L11.9259 0.45015L22.1729 5.72759C22.6092 5.95233 22.7973 6.52353 22.5931 7.00342C22.3889 7.48341 21.8698 7.69043 21.4335 7.46569L11.549 2.37495L1.44846 7.37555C1.00922 7.59299 0.492927 7.37749 0.295284 6.89427C0.0976396 6.41095 0.293487 5.84297 0.732723 5.62543L11.1982 0.444156L11.5633 0.263428ZM11.5628 4.10262L11.9237 4.28697L18.0285 7.40553C18.4653 7.62866 18.655 8.19921 18.4522 8.67985C18.2494 9.1606 17.7309 9.36933 17.2939 9.14609L11.5501 6.21199L5.59035 9.15136C5.15087 9.36815 4.63484 9.15189 4.43782 8.66836C4.24079 8.18471 4.43737 7.61695 4.87689 7.40026L11.1997 4.2817L11.5628 4.10262ZM11.6592 15.1653L20.9314 11.1272V19.7906H12.2103V17.8715C12.2103 17.3415 11.8198 16.9119 11.3382 16.9119C10.8565 16.9119 10.466 17.3415 10.466 17.8715V20.7501V21.7096H11.3382H21.8036H22.6756V20.7501V10.0684C22.6756 9.22161 21.8998 8.6415 21.1842 8.95304L11.3416 13.2398L1.71747 8.95906C1.00086 8.64032 0.218753 9.22065 0.218753 10.0711V20.7501C0.218753 21.2801 0.609208 21.7096 1.09087 21.7096C1.57252 21.7096 1.96297 21.2801 1.96297 20.7501V11.1383L11.0114 15.1628L11.3347 15.3067L11.6592 15.1653Z" fill="#121212"/>
<path d="M11.5631 0.263943L11.6556 0.0466783L11.565 0L11.4737 0.0451845L11.5631 0.263943ZM11.5488 2.37546L11.6412 2.15824L11.5505 2.11151L11.4593 2.15674L11.5488 2.37546ZM11.5626 4.10313L11.6544 3.88559L11.5642 3.8395L11.4734 3.88419L11.5626 4.10313ZM11.5499 6.2125L11.6417 5.99496L11.5515 5.94887L11.4607 5.99356L11.5499 6.2125ZM20.9312 11.1277H21.1493V10.7747L20.851 10.9047L20.9312 11.1277ZM20.9312 19.7911V20.031H21.1493V19.7911H20.9312ZM12.2101 19.7911H11.9921V20.031H12.2101V19.7911ZM10.4658 21.7101H10.2478V21.95H10.4658V21.7101ZM22.6754 21.7101V21.95H22.8934V21.7101H22.6754ZM11.3414 13.2403L11.2597 13.4627L11.3405 13.4987L11.4216 13.4633L11.3414 13.2403ZM1.96279 11.1388L2.04451 10.9164L1.74477 10.7831V11.1388H1.96279ZM11.3346 15.3072L11.2528 15.5296L11.3338 15.5656L11.4148 15.5303L11.3346 15.3072ZM12.0181 0.233401L11.6556 0.0466783L11.4708 0.481207L11.8333 0.66792L12.0181 0.233401ZM22.2652 5.51089L12.0181 0.233401L11.8333 0.66792L22.0804 5.94544L22.2652 5.51089ZM22.7904 7.10567C23.0457 6.50568 22.8105 5.7917 22.2652 5.51089L22.0804 5.94544C22.4076 6.11388 22.5486 6.54231 22.3955 6.90231L22.7904 7.10567ZM21.3409 7.68353C21.8862 7.96435 22.5352 7.70566 22.7904 7.10567L22.3955 6.90231C22.2423 7.2623 21.853 7.41743 21.5258 7.24898L21.3409 7.68353ZM11.4563 2.59268L21.3409 7.68353L21.5258 7.24898L11.6412 2.15824L11.4563 2.59268ZM1.53774 7.59479L11.6382 2.59419L11.4593 2.15674L1.35881 7.15734L1.53774 7.59479ZM0.096275 6.99319C0.343335 7.59726 0.9887 7.86659 1.53774 7.59479L1.35881 7.15734C1.02939 7.32042 0.642164 7.15874 0.493926 6.79638L0.096275 6.99319ZM0.643081 5.40722C0.0940293 5.67901 -0.150775 6.38912 0.096275 6.99319L0.493926 6.79638C0.345698 6.43392 0.492578 6.00785 0.822008 5.84477L0.643081 5.40722ZM11.1086 0.225913L0.643081 5.40722L0.822008 5.84477L11.2876 0.663428L11.1086 0.225913ZM11.4737 0.0451845L11.1086 0.225913L11.2876 0.663428L11.6526 0.482701L11.4737 0.0451845ZM12.0153 4.06994L11.6544 3.88559L11.4708 4.32068L11.8317 4.50513L12.0153 4.06994ZM18.1201 7.18839L12.0153 4.06994L11.8317 4.50513L17.9365 7.62359L18.1201 7.18839ZM18.6498 8.78145C18.9034 8.1806 18.6662 7.46738 18.1201 7.18839L17.9365 7.62359C18.2641 7.79096 18.4065 8.21885 18.2543 8.57938L18.6498 8.78145ZM17.202 9.36426C17.7481 9.64314 18.3963 9.3822 18.6498 8.78145L18.2543 8.57938C18.1022 8.93991 17.7132 9.09644 17.3856 8.92906L17.202 9.36426ZM11.4581 6.43005L17.202 9.36426L17.3856 8.92906L11.6417 5.99496L11.4581 6.43005ZM5.67941 9.37081L11.6391 6.43134L11.4607 5.99356L5.50102 8.93304L5.67941 9.37081ZM4.23868 8.76695C4.48496 9.37146 5.12999 9.64175 5.67941 9.37081L5.50102 8.93304C5.17138 9.09558 4.78436 8.93336 4.63659 8.57068L4.23868 8.76695ZM4.78752 7.18184C4.23813 7.45277 3.9924 8.16245 4.23868 8.76695L4.63659 8.57068C4.48882 8.208 4.63626 7.78226 4.96589 7.61961L4.78752 7.18184ZM11.1104 4.06328L4.78752 7.18184L4.96589 7.61961L11.2887 4.50116L11.1104 4.06328ZM11.4734 3.88419L11.1104 4.06328L11.2887 4.50116L11.6518 4.32208L11.4734 3.88419ZM20.851 10.9047L11.5788 14.9428L11.7392 15.389L21.0115 11.3507L20.851 10.9047ZM21.1493 19.7911V11.1277H20.7132V19.7911H21.1493ZM12.2101 20.031H20.9312V19.5512H12.2101V20.031ZM11.9921 17.872V19.7911H12.4281V17.872H11.9921ZM11.338 17.1523C11.6992 17.1523 11.9921 17.4745 11.9921 17.872H12.4281C12.4281 17.2096 11.94 16.6725 11.338 16.6725V17.1523ZM10.6839 17.872C10.6839 17.4745 10.9768 17.1523 11.338 17.1523V16.6725C10.7359 16.6725 10.2478 17.2096 10.2478 17.872H10.6839ZM10.6839 20.7507V17.872H10.2478V20.7507H10.6839ZM10.6839 21.7101V20.7507H10.2478V21.7101H10.6839ZM11.338 21.4703H10.4658V21.95H11.338V21.4703ZM21.8034 21.4703H11.338V21.95H21.8034V21.4703ZM22.6754 21.4703H21.8034V21.95H22.6754V21.4703ZM22.4575 20.7507V21.7101H22.8934V20.7507H22.4575ZM22.4575 10.0689V20.7507H22.8934V10.0689H22.4575ZM21.2643 9.17669C21.8368 8.92734 22.4575 9.39144 22.4575 10.0689H22.8934C22.8934 9.05282 21.9625 8.35657 21.1039 8.73053L21.2643 9.17669ZM11.4216 13.4633L21.2643 9.17669L21.1039 8.73053L11.2611 13.0172L11.4216 13.4633ZM1.63557 9.18206L11.2597 13.4627L11.4231 13.0178L1.799 8.73719L1.63557 9.18206ZM0.436601 10.0716C0.436601 9.39122 1.06228 8.92702 1.63557 9.18206L1.799 8.73719C0.939069 8.35475 0.000538831 9.0511 0.000538831 10.0716H0.436601ZM0.436601 20.7507V10.0716H0.000538831V20.7507H0.436601ZM1.09069 21.4703C0.729445 21.4703 0.436601 21.148 0.436601 20.7507H0.000538831C0.000538831 21.4131 0.488614 21.95 1.09069 21.95V21.4703ZM1.74477 20.7507C1.74477 21.148 1.45193 21.4703 1.09069 21.4703V21.95C1.69275 21.95 2.18082 21.4131 2.18082 20.7507H1.74477ZM1.74477 11.1388V20.7507H2.18082V11.1388H1.74477ZM11.0929 14.9409L2.04451 10.9164L1.88108 11.3611L10.9294 15.3858L11.0929 14.9409ZM11.4163 15.0847L11.0929 14.9409L10.9294 15.3858L11.2528 15.5296L11.4163 15.0847ZM11.5788 14.9428L11.2544 15.0841L11.4148 15.5303L11.7392 15.389L11.5788 14.9428Z" fill="#121212"/>
</svg>
