<svg width="74" height="74" viewBox="0 0 74 74" fill="none" xmlns="http://www.w3.org/2000/svg">
<path d="M12.3333 47.7499C13.6168 47.7499 14.41 46.7457 14.8248 46.0439C15.2989 45.2418 15.6739 44.1809 15.9688 43.0014C16.5643 40.6193 16.9167 37.408 16.9167 33.9166C16.9167 30.4251 16.5643 27.2138 15.9688 24.8318C15.6739 23.6523 15.2989 22.5914 14.8248 21.7892C14.41 21.0875 13.6168 20.0833 12.3333 20.0833C11.0499 20.0833 10.2566 21.0875 9.84186 21.7892C9.36772 22.5914 8.99275 23.6523 8.69787 24.8318C8.10236 27.2138 7.75 30.4251 7.75 33.9166C7.75 37.408 8.10236 40.6193 8.69787 43.0014C8.99275 44.1809 9.36772 45.2418 9.84186 46.0439C10.2566 46.7457 11.0499 47.7499 12.3333 47.7499Z" stroke="#9DACA1" stroke-width="3"/>
<path d="M61.6668 47.7499C62.9161 47.7499 63.7057 46.7908 64.131 46.0862C64.6113 45.2905 64.9963 44.2253 65.3023 43.0014C65.919 40.5347 66.2502 37.2683 66.2502 33.9166C66.2502 30.5649 65.919 27.2985 65.3023 24.8318C64.9963 23.6079 64.6113 22.5427 64.131 21.747C63.7057 21.0423 62.9161 20.0833 61.6668 20.0833" stroke="#9DACA1" stroke-width="3" stroke-linecap="round"/>
<path d="M61.6668 20.0417C61.6668 20.0417 50.8752 23.1251 37.0002 23.1251C23.1252 23.1251 12.3335 20.0417 12.3335 20.0417" stroke="#9DACA1" stroke-width="3" stroke-linecap="round"/>
<path d="M12.3332 47.7917C12.3332 47.7917 20.0551 45.5855 30.8332 44.9055M61.6665 47.7917C61.6665 47.7917 53.9446 45.5855 43.1665 44.9055" stroke="#9DACA1" stroke-width="3" stroke-linecap="round"/>
<path d="M32.375 23.125V33.9167M41.625 23.125V33.9167" stroke="#9DACA1" stroke-width="3" stroke-linecap="round"/>
<circle cx="37.0002" cy="40.0834" r="7.66667" stroke="#9DACA1" stroke-width="3"/>
<path d="M30.8333 44.7083L23.125 50.8749L27.75 52.4166L30.8333 57.0416L37 47.7916L43.1667 57.0416L46.25 52.4166L50.875 50.8749L43.1667 44.7083" stroke="#9DACA1" stroke-width="3" stroke-linecap="round" stroke-linejoin="round"/>
</svg>
