<svg width="64" height="64" viewBox="0 0 64 64" fill="none" xmlns="http://www.w3.org/2000/svg">
<g clip-path="url(#clip0_1302_124)">
<path d="M48.1887 35.1052C48.0416 34.6527 47.6503 34.3231 47.1794 34.2547L37.4647 32.8457L33.1178 24.0442C32.9072 23.6177 32.4728 23.3477 31.9971 23.3477H31.9967C31.5208 23.3478 31.0865 23.6181 30.876 24.0448L26.534 32.8487L16.82 34.2628C16.3492 34.3313 15.9581 34.6613 15.8111 35.1138C15.6642 35.5664 15.7869 36.0632 16.1277 36.3952L23.159 43.2453L21.5021 52.9209C21.4217 53.3898 21.6146 53.8638 21.9996 54.1433C22.2174 54.3013 22.4751 54.3818 22.7342 54.3818C22.9333 54.3818 23.1332 54.3343 23.3161 54.238L32.0037 49.6677L40.6938 54.2333C41.1151 54.4545 41.6252 54.4175 42.0102 54.1378C42.3952 53.858 42.5878 53.384 42.5072 52.915L40.8452 43.2404L47.8728 36.3867C48.2133 36.0544 48.3358 35.5577 48.1887 35.1052ZM38.6292 41.9096C38.3348 42.1968 38.2003 42.6107 38.2701 43.0162L39.6146 50.8423L32.585 47.1489C32.2208 46.9577 31.7858 46.9578 31.4215 47.1493L24.3937 50.8463L25.7341 43.0194C25.8036 42.6138 25.669 42.2002 25.3743 41.9131L19.6865 36.3718L27.5445 35.2279C27.9516 35.1687 28.3035 34.9128 28.4855 34.5438L31.9978 27.4221L35.5142 34.5418C35.6963 34.9107 36.0483 35.1663 36.4555 35.2254L44.3141 36.3653L38.6292 41.9096Z" fill="#931602"/>
<path d="M17.4388 43.9253C17.2916 43.4728 16.9005 43.143 16.4296 43.0748L11.8973 42.4175L9.86934 38.3113C9.65872 37.8848 9.22435 37.6148 8.7486 37.6148H8.74822C8.27247 37.6149 7.83797 37.8852 7.62747 38.3119L5.60173 42.419L1.06999 43.0788C0.599238 43.1473 0.208113 43.4773 0.0611135 43.9298C-0.0857612 44.3824 0.0368636 44.8792 0.377738 45.2112L3.65811 48.4069L2.88511 52.9209C2.80473 53.3898 2.99761 53.8638 3.38261 54.1433C3.60036 54.3013 3.85811 54.3818 4.11723 54.3818C4.31636 54.3818 4.5161 54.3343 4.69898 54.2383L8.7521 52.106L12.8062 54.2359C13.2275 54.4571 13.7378 54.4201 14.1226 54.1404C14.5076 53.8606 14.7002 53.3867 14.6196 52.9177L13.8443 48.4043L17.123 45.2068C17.4635 44.8745 17.586 44.3778 17.4388 43.9253ZM11.6282 47.0733C11.3338 47.3605 11.1993 47.7744 11.2691 48.1799L11.7268 50.8448L9.33322 49.5872C8.9691 49.3959 8.53397 49.3962 8.16985 49.5874L5.77673 50.8464L6.2331 48.181C6.3026 47.7754 6.16798 47.3618 5.87335 47.0747L3.93661 45.1878L6.61235 44.7983C7.01947 44.739 7.37135 44.4832 7.55335 44.1142L8.74935 41.6892L9.94672 44.1137C10.1288 44.4825 10.4808 44.7382 10.888 44.7973L13.564 45.1853L11.6282 47.0733Z" fill="#931602"/>
<path d="M63.939 43.9297C63.7922 43.4772 63.401 43.1472 62.9302 43.0787L58.3984 42.4189L56.3727 38.3118C56.1622 37.8851 55.7277 37.6148 55.2519 37.6147H55.2516C54.7758 37.6147 54.3414 37.8847 54.1308 38.3112L52.1028 42.4174L47.5706 43.0747C47.0998 43.1429 46.7086 43.4727 46.5613 43.9252C46.4142 44.3777 46.5366 44.8744 46.8772 45.2067L50.1558 48.4042L49.3806 52.9175C49.3001 53.3865 49.4927 53.8604 49.8776 54.1403C50.2624 54.4202 50.7727 54.4572 51.1939 54.2358L55.2481 52.1059L59.3012 54.2382C59.484 54.3343 59.6838 54.3818 59.8829 54.3818C60.1419 54.3818 60.3998 54.3014 60.6177 54.143C61.0027 53.8635 61.1955 53.3895 61.1152 52.9207L60.3422 48.4067L63.6224 45.211C63.9632 44.879 64.0859 44.3823 63.939 43.9297ZM58.1269 47.0745C57.8323 47.3617 57.6977 47.7754 57.7672 48.1809L58.2236 50.8463L55.8303 49.5873C55.6482 49.4915 55.4484 49.4437 55.2484 49.4437C55.0487 49.4437 54.8489 49.4915 54.6672 49.587L52.2736 50.8447L52.7313 48.1798C52.8011 47.7742 52.6666 47.3604 52.3722 47.0732L50.4364 45.1852L53.1124 44.7972C53.5196 44.738 53.8716 44.4824 54.0537 44.1135L55.2511 41.6891L56.4471 44.114C56.6291 44.483 56.9809 44.7389 57.3881 44.7982L60.0637 45.1877L58.1269 47.0745Z" fill="#931602"/>
<path d="M48.884 21.9807C48.3956 21.4927 47.6043 21.4927 47.1161 21.9807L42.9911 26.1057C42.503 26.5939 42.503 27.3854 42.9911 27.8735C43.2352 28.1175 43.555 28.2397 43.875 28.2397C44.195 28.2397 44.5148 28.1177 44.759 27.8735L48.884 23.7486C49.3721 23.2603 49.3721 22.4688 48.884 21.9807Z" fill="#931602"/>
<path d="M51.8381 19.0274C51.6044 18.7948 51.2831 18.6612 50.9531 18.6612C50.6244 18.6612 50.302 18.7949 50.0694 19.0274C49.8367 19.2599 49.7031 19.5824 49.7031 19.9112C49.7031 20.2411 49.8369 20.5624 50.0694 20.7948C50.3019 21.0286 50.6244 21.1612 50.9531 21.1612C51.283 21.1612 51.6044 21.0287 51.8381 20.7948C52.0705 20.5624 52.2031 20.2412 52.2031 19.9112C52.2031 19.5824 52.0705 19.2599 51.8381 19.0274Z" fill="#931602"/>
<path d="M13.9319 19.0274C13.6981 18.7948 13.3769 18.6612 13.0469 18.6612C12.7181 18.6612 12.3969 18.7949 12.1631 19.0274C11.9305 19.2599 11.7969 19.5824 11.7969 19.9112C11.7969 20.2411 11.9306 20.5624 12.1631 20.7948C12.3969 21.0286 12.7194 21.1612 13.0469 21.1612C13.3755 21.1612 13.6981 21.0287 13.9319 20.7948C14.1644 20.5624 14.2981 20.2399 14.2981 19.9112C14.2981 19.5824 14.1642 19.2599 13.9319 19.0274Z" fill="#931602"/>
<path d="M20.8406 25.9373L16.884 21.9808C16.3956 21.4928 15.6043 21.4928 15.1161 21.9808C14.628 22.4691 14.628 23.2606 15.1161 23.7487L19.0727 27.7052C19.3168 27.9492 19.6366 28.0713 19.9566 28.0713C20.2765 28.0713 20.5963 27.9492 20.8406 27.7052C21.3287 27.2169 21.3287 26.4254 20.8406 25.9373Z" fill="#931602"/>
<path d="M32 9.61823C31.3097 9.61823 30.75 10.178 30.75 10.8682V19.352C30.75 20.0422 31.3097 20.602 32 20.602C32.6904 20.602 33.25 20.0422 33.25 19.352V10.8682C33.25 10.178 32.6902 9.61823 32 9.61823Z" fill="#931602"/>
</g>
<defs>
<clipPath id="clip0_1302_124">
<rect width="64" height="64" fill="white"/>
</clipPath>
</defs>
</svg>
