<svg width="64" height="64" viewBox="0 0 64 64" fill="none" xmlns="http://www.w3.org/2000/svg">
<path fill-rule="evenodd" clip-rule="evenodd" d="M37.1463 18.4657C36.4127 18.0188 35.644 17.6739 34.8567 17.4318C31.184 16.3005 27.1016 17.3924 24.2214 20.7053C23.0908 22.0058 22.2581 23.5193 21.7225 25.134L24.4694 28.2936L28.7879 33.2608C30.1427 34.819 32.1537 35.1645 33.7991 34.2968L27.8867 27.4966L25.609 24.8763C25.8891 24.384 26.2175 23.917 26.5936 23.4843C26.9698 23.0515 27.3757 22.6746 27.8033 22.3521C30.1852 20.5579 33.2553 20.4707 35.705 22.0892C36.2711 22.4631 36.8037 22.9286 37.287 23.4843L42.9946 30.0491C43.075 27.0855 42.2557 24.095 40.536 21.6676C40.3006 21.3354 40.0481 21.0137 39.7792 20.7046C39.5103 20.3955 39.2303 20.105 38.9421 19.8346C37.547 18.6385 37.2632 18.599 37.147 18.4649L37.1463 18.4657ZM21.003 29.3542C20.9434 32.2858 21.7635 35.2368 23.4647 37.6366C23.7 37.9688 23.9726 38.2906 24.2415 38.5997C25.1643 39.6618 25.7527 40.3232 26.5117 41.2341L28.1056 43.0678L32.0003 47.5472L39.7792 38.5997C40.8927 37.3186 41.7173 35.8312 42.2535 34.2447L39.412 30.9764L35.0928 26.0092C33.738 24.451 31.727 24.1054 30.0817 24.9732L35.994 31.7733L38.2717 34.3929C37.9916 34.8852 37.6632 35.3522 37.287 35.7849C36.9109 36.2177 36.505 36.5946 36.0774 36.9171C33.1451 39.1255 29.17 38.7479 26.5936 35.7849L21.003 29.3542Z" fill="#931602"/>
<path fill-rule="evenodd" clip-rule="evenodd" d="M37.4707 29.2894L39.9875 26.0285L40.5826 26.3466L37.8826 29.8338L37.4707 29.2894Z" fill="#931602"/>
<path fill-rule="evenodd" clip-rule="evenodd" d="M19.0506 6.89911C23.1899 5.74993 27.1931 4.15738 30.9906 2.14911C31.1689 2.05254 31.3682 2.00133 31.5709 2.00003C31.7737 1.99872 31.9736 2.04734 32.1531 2.14161C35.954 4.15447 39.9615 5.75042 44.1056 6.90161C48.2918 8.05787 52.5871 8.77466 56.9219 9.04036C57.0844 9.03954 57.2456 9.07089 57.396 9.13262C57.5464 9.19434 57.6831 9.28522 57.7983 9.40002C57.9134 9.51481 58.0047 9.65126 58.0669 9.80149C58.1291 9.95172 58.1609 10.1128 58.1606 10.2754V25.5891V25.5979C58.0694 35.0054 55.8643 42.6191 51.5031 48.6291C47.1419 54.6391 40.6444 59.0129 31.9744 61.9266C31.7206 62.0123 31.4457 62.0123 31.1919 61.9266C22.5219 59.0129 16.0281 54.6429 11.6631 48.6291C7.31435 42.6441 5.1106 35.0679 5.00185 25.7154C4.99938 25.6737 4.99938 25.632 5.00185 25.5904V10.2754C5.00193 9.96097 5.12202 9.65846 5.33761 9.42963C5.5532 9.2008 5.84802 9.06291 6.16185 9.04411C10.5212 8.78134 14.8411 8.06242 19.0506 6.89911ZM31.5781 4.61911C39.1219 8.51036 47.2431 10.7529 55.6894 11.4216V25.5891C55.6006 34.4541 53.5494 41.5891 49.4944 47.1804C45.5043 52.6804 39.5444 56.7129 31.5731 59.4566C23.6019 56.7129 17.6419 52.6779 13.6519 47.1804C9.6156 41.6116 7.5656 34.5041 7.4631 25.6816C7.4631 25.6516 7.4631 25.6204 7.4631 25.5891V11.4241C15.9131 10.7554 24.0344 8.51286 31.5781 4.61911Z" fill="#931602"/>
</svg>
