<svg width="24" height="24" viewBox="0 0 24 24" fill="none" xmlns="http://www.w3.org/2000/svg">
<g id="fluent-mdl2:completed-solid" clip-path="url(#clip0_2902_13830)">
<path id="Vector" d="M17.6191 8.48145L9.8396 16.261L6.27881 12.7002L6.81836 12.1606L9.0441 14.3864C9.48344 14.8257 10.1958 14.8257 10.6351 14.3864L17.0796 7.9419L17.6191 8.48145ZM9.6805 16.4201C9.68059 16.42 9.68068 16.4199 9.68078 16.4198L9.6805 16.4201ZM9.99842 16.4198C9.99851 16.4199 9.99861 16.42 9.9987 16.4201L9.99842 16.4198Z" stroke="#018191" stroke-width="1.35"/>
<path id="Ellipse 11486" d="M20.5313 18.8144C20.7158 18.9566 20.7508 19.2221 20.6018 19.4012C18.875 21.477 16.4553 22.8665 13.7819 23.3069C10.9695 23.7702 8.08602 23.1488 5.71416 21.568C3.3423 19.9873 1.65887 17.5652 1.00404 14.7911C0.349204 12.017 0.771779 9.09778 2.18638 6.62324C3.60098 4.14871 5.90214 2.30339 8.62488 1.46013C11.3476 0.61688 14.289 0.83857 16.8545 2.08041C19.4201 3.32225 21.4187 5.49165 22.4464 8.15026C23.4233 10.6775 23.4538 13.4676 22.5411 16.0087C22.4624 16.228 22.2159 16.3326 21.9997 16.2457C21.7835 16.1588 21.6796 15.9133 21.7577 15.6938C22.591 13.3512 22.5593 10.7823 21.6595 8.45447C20.7088 5.99524 18.8601 3.98854 16.487 2.83983C14.1138 1.69113 11.393 1.48606 8.87449 2.26607C6.35594 3.04609 4.22736 4.75302 2.91885 7.04197C1.61034 9.33092 1.21945 12.0312 1.82518 14.5973C2.4309 17.1633 3.98808 19.4038 6.18206 20.866C8.37604 22.3281 11.0432 22.903 13.6447 22.4744C16.1072 22.0687 18.337 20.7926 19.9329 18.886C20.0824 18.7073 20.3467 18.6723 20.5313 18.8144Z" fill="#018191"/>
</g>
<defs>
<clipPath id="clip0_2902_13830">
<rect width="22.5" height="22.5" fill="white" transform="translate(0.703125 0.956543)"/>
</clipPath>
</defs>
</svg>
