<svg width="64" height="64" viewBox="0 0 64 64" fill="none" xmlns="http://www.w3.org/2000/svg">
<g clip-path="url(#clip0_1305_165)">
<path d="M61.575 43.9719C61.9688 42.8037 61.8494 41.4997 61.2015 40.4087C59.9917 38.3708 57.3496 37.6971 55.3119 38.9068L46.9713 43.8579C46.6813 44.0301 46.4133 44.2396 46.1687 44.4801L45.2065 44.5469C45.4113 43.2917 45.1132 41.7091 43.3496 40.5078C36.4021 35.7749 35.2057 34.7576 33.0711 34.2843C30.7376 33.7751 29.1096 33.4263 27.7907 33.2273C27.2789 33.1501 26.8011 33.5023 26.7238 34.0144C26.6466 34.5264 26.9989 35.0041 27.5109 35.0813C29.2726 35.3472 32.1982 36.0213 32.6541 36.1126C34.4429 36.5391 35.2152 37.2354 42.2942 42.0576C43.9407 43.1791 43.3011 44.6486 43.0868 45.0416C42.5127 45.7287 41.5726 45.9852 40.727 45.6782L33.8861 43.1922C33.3989 43.0151 32.8616 43.2666 32.6848 43.7531C32.5079 44.2397 32.7591 44.7776 33.2457 44.9543L40.0866 47.4405C41.5725 47.9801 43.2133 47.5961 44.3038 46.4893C60.5899 45.3566 59.5144 45.3812 60.0916 45.4739C62.6271 45.8805 63.1113 49.4452 59.7192 50.3593C59.6775 50.3677 40.3196 54.2558 40.2785 54.2665C37.664 54.9495 35.4854 53.8758 34.6514 53.3681C28.0717 48.885 27.7443 48.397 24.9846 47.8726C22.8583 47.4688 21.3979 47.9848 19.7995 48.6522L15.1662 37.3998C18.1828 36.2512 21.2492 35.4476 23.4302 35.0831C23.9409 34.9978 24.2858 34.5148 24.2006 34.0041C24.1153 33.4934 23.6335 33.1484 23.1215 33.2336C20.8154 33.6184 17.6232 34.4564 14.4525 35.6672L14.1293 34.8821C13.6507 33.7193 12.3214 33.1652 11.1585 33.6443L1.43813 37.6469C0.564751 38.0073 0 38.8504 0 39.7954V59.2986C0 60.6944 1.41913 61.653 2.71676 61.12L19.6152 54.1807C20.7754 53.703 21.3307 52.3703 20.8529 51.21L20.5137 50.3863C21.9679 49.7783 23.028 49.4095 24.6347 49.7148C26.5182 50.0727 26.8628 50.2877 30.8163 53.0112C30.9353 53.0932 33.5298 54.8796 33.6529 54.9553C35.6872 56.2028 38.2535 56.7218 40.7252 56.0878L60.1167 52.1921C60.1342 52.1886 60.1516 52.1845 60.169 52.18C65.2819 50.8443 64.7789 45.4075 61.575 43.9719ZM59.7294 43.5544C59.4314 43.5403 51.6181 44.1013 50.0515 44.2102L56.2691 40.5193C57.4185 39.8372 58.9077 40.2174 59.5894 41.3661C59.9879 42.0372 60.0309 42.8519 59.7294 43.5544ZM18.9024 52.4468L2.00463 59.3855C1.99188 59.3907 1.95813 59.4045 1.91663 59.3766C1.875 59.3487 1.875 59.3122 1.875 59.2986V39.7954C1.875 39.6132 1.98388 39.4506 2.1525 39.3812L11.8729 35.3786C12.0783 35.2938 12.3119 35.3928 12.396 35.5966C12.5869 36.0601 18.9063 51.4068 19.1193 51.9241C19.2035 52.1285 19.1058 52.3631 18.9024 52.4468Z" fill="#931602"/>
<path d="M58.6328 11.0967H57.6255C57.4669 10.5579 57.2527 10.0401 56.9839 9.54723L57.6961 8.83511C58.2284 8.30273 58.2286 7.43623 57.6959 6.9036L56.4232 5.63085C55.8892 5.09685 55.0253 5.09685 54.4914 5.63072L53.7794 6.34273C53.2867 6.0741 52.7689 5.85973 52.2299 5.70122V4.69397C52.2299 3.94085 51.6173 3.32809 50.864 3.32809H49.0642C48.311 3.32809 47.6983 3.94085 47.6983 4.69397V5.70122C47.1593 5.85973 46.6417 6.0741 46.1488 6.34285L45.4368 5.63085C44.9028 5.09685 44.0389 5.09685 43.505 5.63072L42.5113 6.6246C42.2094 6.51998 41.9041 6.42585 41.5959 6.34573V4.34372C41.5959 3.4541 40.8721 2.73047 39.9826 2.73047H37.1421C36.2526 2.73047 35.5289 3.45422 35.5289 4.34372V6.3451C34.446 6.62473 33.4155 7.05173 32.4511 7.62035L31.0361 6.20498C30.4057 5.57435 29.385 5.57422 28.7544 6.20498L26.746 8.21335C26.1171 8.84236 26.1171 9.86586 26.746 10.495L28.1614 11.9104C27.5926 12.875 27.1657 13.9052 26.8862 14.9881H24.8849C23.9952 14.9881 23.2715 15.7119 23.2715 16.6014V19.4416C23.2715 20.3313 23.9952 21.055 24.8849 21.055H26.8861C27.1657 22.1379 27.5927 23.1683 28.1614 24.1326L26.746 25.5481C26.1171 26.1771 26.1171 27.2006 26.746 27.8298L28.7544 29.8382C29.3834 30.4672 30.4069 30.4673 31.0361 29.8382L32.4515 28.4228C33.4159 28.9914 34.4464 29.4184 35.5293 29.698V31.6993C35.5293 32.5889 36.253 33.3127 37.1425 33.3127H39.983C40.8725 33.3127 41.5963 32.5889 41.5963 31.6993V29.698C42.6791 29.4184 43.7096 28.9914 44.674 28.4228L46.0893 29.838C46.7199 30.4688 47.7403 30.4687 48.371 29.8382L50.3794 27.8296C51.0083 27.2005 51.0083 26.177 50.3794 25.5481L48.9633 24.132C49.104 23.8924 49.2362 23.6469 49.3604 23.397H50.8645C51.6177 23.397 52.2304 22.7843 52.2304 22.0311V21.0239C52.7693 20.8653 53.287 20.651 53.7799 20.3823L54.4918 21.0941C55.025 21.6274 55.8895 21.6284 56.4236 21.0943L57.6966 19.8213C58.2291 19.2888 58.2291 18.4222 57.6966 17.8897L56.9844 17.1776C57.2531 16.6847 57.4674 16.167 57.6261 15.6281H58.6333C59.3864 15.6281 59.9992 15.0155 59.9992 14.2624V12.4625C59.9987 11.7094 59.3861 11.0967 58.6328 11.0967ZM47.23 28.3271L45.4692 26.5664C45.1509 26.2481 44.6517 26.2011 44.2794 26.4539C43.1266 27.237 41.8493 27.7663 40.4829 28.0269C40.0409 28.1111 39.721 28.4978 39.721 28.9478V31.4375H37.4041V28.9478C37.4041 28.4976 37.0843 28.1111 36.6423 28.0269C35.2758 27.7663 33.9984 27.237 32.8458 26.4539C32.4736 26.2011 31.9741 26.2481 31.6559 26.5664L29.8951 28.3271L28.2567 26.6888L30.0176 24.9279C30.3357 24.6098 30.383 24.1103 30.1301 23.7381C29.3467 22.5853 28.8176 21.308 28.5571 19.9418C28.4729 19.4996 28.0862 19.1798 27.6362 19.1798H25.1464V16.8627H27.6362C28.0864 16.8627 28.4729 16.5429 28.5571 16.1007C28.8176 14.7345 29.3467 13.4571 30.1301 12.3044C30.3829 11.9321 30.3357 11.4327 30.0176 11.1146L28.2567 9.35386L29.8951 7.71548L31.6559 9.47636C31.9743 9.79461 32.4738 9.84173 32.8458 9.58886C33.9985 8.80561 35.2758 8.27635 36.6423 8.01585C37.0843 7.9316 37.4041 7.54498 37.4041 7.09498V4.60535H39.7211V7.0951C39.7211 7.54523 40.041 7.93173 40.4831 8.01598C40.9763 8.10998 41.4655 8.24235 41.9434 8.41048C42.0084 8.56061 42.1059 8.70848 42.2325 8.83498L42.9446 9.54711C42.6879 10.0181 42.4634 10.5514 42.303 11.0966H41.36C40.4695 10.7359 39.5295 10.5531 38.5626 10.5531C34.4448 10.5531 31.0944 13.9032 31.0944 18.0214C31.0944 22.1395 34.4446 25.4898 38.5626 25.4898C41.4761 25.4898 44.096 23.8144 45.3245 21.1945C45.3247 21.1944 45.3247 21.1944 45.3248 21.1943C45.3634 21.1633 45.401 21.1303 45.4369 21.0944L46.1489 20.3824C46.6417 20.651 47.1595 20.8655 47.6984 21.024V22.0313C47.6984 22.1568 47.7242 22.3165 47.7534 22.4164C47.5329 22.8778 47.2788 23.3209 46.9952 23.7385C46.7423 24.1108 46.7894 24.6101 47.1075 24.9283L48.8684 26.6891L47.23 28.3271ZM42.2325 19.8215L43.3415 20.9306C42.3369 22.5843 40.5401 23.6149 38.5629 23.6149C35.4786 23.6149 32.9696 21.1056 32.9696 18.0215C32.9696 14.9372 35.4788 12.4282 38.5629 12.4282C39.0286 12.4282 39.4856 12.4861 39.9301 12.5984V14.2627C39.9301 15.0159 40.5428 15.6286 41.296 15.6286H42.3034C42.462 16.1676 42.6763 16.6854 42.945 17.1781L42.2331 17.89C41.699 18.4231 41.6983 19.2876 42.2325 19.8215ZM58.1237 13.7535H56.8888C56.4387 13.7535 56.0523 14.0732 55.9679 14.5152C55.8113 15.3364 55.4939 16.1027 55.0248 16.793C54.7719 17.1652 54.819 17.6646 55.1372 17.9829L56.0102 18.8559L55.4573 19.4086L54.5844 18.5356C54.2663 18.2174 53.7667 18.1702 53.3944 18.4233C52.7043 18.8924 51.9379 19.2098 51.1167 19.3664C50.6747 19.4508 50.3549 19.8373 50.3549 20.2873V21.5221H49.573V20.2873C49.573 19.8368 49.2524 19.4506 48.8113 19.3664C47.9902 19.2098 47.2239 18.8924 46.5335 18.4233C46.1614 18.1704 45.6619 18.2175 45.3435 18.5358L44.4705 19.4088L43.9178 18.8559L44.7908 17.9829C45.109 17.6646 45.1562 17.1651 44.9032 16.7929C44.434 16.1029 44.1168 15.3366 43.9599 14.5151C43.8754 14.0731 43.4889 13.7535 43.039 13.7535H41.8041V12.9717H43.039C43.489 12.9717 43.8754 12.652 43.9599 12.2101C44.111 11.4181 44.4312 10.6265 44.9032 9.93236C45.156 9.56011 45.1089 9.06061 44.7908 8.74236L43.9178 7.86935L44.4705 7.3166L45.3437 8.1896C45.6619 8.50785 46.1615 8.55498 46.5335 8.30198C47.2237 7.83298 47.9899 7.5156 48.8113 7.35885C49.2533 7.27448 49.573 6.88785 49.573 6.43798V5.2031H50.3549V6.43798C50.3549 6.88798 50.6747 7.27448 51.1167 7.35885C51.9379 7.5156 52.7042 7.83285 53.3944 8.30198C53.7664 8.55486 54.2662 8.50798 54.5844 8.1896L55.4573 7.3166L56.0102 7.86935L55.1372 8.74236C54.819 9.06061 54.7718 9.56011 55.0248 9.93223C55.4939 10.6225 55.8113 11.3889 55.9679 12.21C56.0523 12.652 56.4389 12.9717 56.8888 12.9717H58.1237V13.7535Z" fill="#931602"/>
<path d="M54.0848 14.3819C53.6224 14.1496 53.0587 14.3361 52.8263 14.7989C52.6722 15.1058 52.4712 15.3843 52.2291 15.6265C50.2188 17.6368 46.7636 16.2056 46.7636 13.3626C46.7636 10.5213 50.2176 9.08737 52.2288 11.0986C52.3241 11.1939 52.4172 11.3006 52.5058 11.4159C52.8211 11.8265 53.4094 11.9038 53.8204 11.5883C54.2309 11.2729 54.3081 10.6843 53.9927 10.2736C53.8548 10.0941 53.7076 9.92575 53.5549 9.773C50.3626 6.58074 44.8887 8.86037 44.8887 13.3626C44.8887 17.8716 50.3674 20.1394 53.5549 16.9521C53.9391 16.568 54.2577 16.1266 54.5019 15.6403C54.7343 15.1776 54.5476 14.6143 54.0848 14.3819Z" fill="#931602"/>
</g>
<defs>
<clipPath id="clip0_1305_165">
<rect width="64" height="64" fill="white"/>
</clipPath>
</defs>
</svg>
