<svg width="112" height="112" viewBox="0 0 112 112" fill="none" xmlns="http://www.w3.org/2000/svg">
<path d="M0.1875 88.3238C0.1875 92.29 3.4175 95.5438 7.4075 95.5438H54.1237C59.2775 105.21 69.4662 111.836 81.175 111.836C98.0612 111.836 111.812 98.085 111.812 81.1988C111.812 64.3125 98.0612 50.5612 81.175 50.5612C77.5412 50.5612 74.0738 51.2262 70.8438 52.39V7.4075C70.8438 3.44125 67.6137 0.1875 63.6475 0.1875H7.4075C3.4175 0.1875 0.1875 3.4175 0.1875 7.4075V88.3238ZM107.062 81.175C107.062 95.4487 95.4487 107.062 81.175 107.062C66.9012 107.062 55.2875 95.4487 55.2875 81.175C55.2875 66.9012 66.9012 55.2875 81.175 55.2875C95.4487 55.2875 107.062 66.9012 107.062 81.175ZM4.9375 7.4075C4.9375 6.05375 6.03 4.9375 7.4075 4.9375H63.6475C65.0013 4.9375 66.0938 6.03 66.0938 7.4075V54.5275C62.4837 56.57 59.3725 59.325 56.855 62.6025V60.6075H48.2812V65.3575H54.9787C53.435 67.9225 52.2475 70.725 51.4875 73.6937H48.2812V78.4437H50.6562C50.585 79.3463 50.5138 80.2487 50.5138 81.175C50.5138 84.5237 51.0838 87.7537 52.0812 90.77H7.4075C6.05375 90.77 4.9375 89.6775 4.9375 88.3V7.4075Z" fill="#931602"/>
<path d="M59.23 12.1338H11.8013V35.9788H59.23V12.1338ZM54.48 31.2288H16.5513V16.8838H54.48V31.2288Z" fill="#931602"/>
<path d="M14.1763 47.5215H22.75V52.2715H14.1763V47.5215Z" fill="#931602"/>
<path d="M31.2288 47.5215H39.8025V52.2715H31.2288V47.5215Z" fill="#931602"/>
<path d="M48.2812 47.5215H56.855V52.2715H48.2812V47.5215Z" fill="#931602"/>
<path d="M14.1763 60.6074H22.75V65.3574H14.1763V60.6074Z" fill="#931602"/>
<path d="M31.2288 60.6074H39.8025V65.3574H31.2288V60.6074Z" fill="#931602"/>
<path d="M14.1763 73.6938H22.75V78.4438H14.1763V73.6938Z" fill="#931602"/>
<path d="M31.2288 73.6938H39.8025V78.4438H31.2288V73.6938Z" fill="#931602"/>
<path d="M83.265 81.8162H69.585V86.5662H71.39L88.2763 103.832L91.6725 100.507L78.04 86.5425H83.2888C89.8438 86.5425 95.1638 81.2225 95.1638 74.6675C95.1638 71.9837 94.2375 69.5375 92.7413 67.5425H94.5225V62.7925H83.2888H69.6087H67.875V67.5425H69.6087H83.2888C86.3763 67.5425 88.9887 69.5375 89.9625 72.2925H67.875V77.0425H89.9625C88.965 79.8212 86.3525 81.8162 83.265 81.8162Z" fill="#931602"/>
</svg>
