<svg width="176" height="52" viewBox="0 0 176 52" fill="none" xmlns="http://www.w3.org/2000/svg">
<g clip-path="url(#clip0_745_14124)">
<path fill-rule="evenodd" clip-rule="evenodd" d="M14.0235 -0.0742165H161.984C162.513 -0.0742165 163.05 -0.074386 163.579 -0.0717786C163.945 -0.0697034 164.318 -0.0642318 164.687 -0.058831C164.77 -0.0576154 164.852 -0.0564034 164.935 -0.0552346C165.92 -0.0455249 166.904 0.0315175 167.876 0.175208C168.852 0.322423 169.798 0.597931 170.683 0.99263C172.452 1.79794 173.891 3.07448 174.799 4.64274C175.243 5.42416 175.55 6.26085 175.71 7.12411C175.874 7.98689 175.965 8.85931 175.983 9.73412C175.989 10.1339 175.989 10.5349 175.989 10.9347C176 11.407 176 11.8806 176 12.3581V39.6429C176 40.1242 176 40.5952 175.989 41.0688C175.989 41.4736 175.989 41.8658 175.983 42.2707C175.965 43.1455 175.874 44.0179 175.71 44.8806C175.55 45.7444 175.243 46.5815 174.799 47.3633C174.348 48.1412 173.762 48.8515 173.061 49.4678C172.366 50.0895 171.563 50.6083 170.683 51.0045C169.798 51.4003 168.853 51.6774 167.876 51.8269C166.904 51.9694 165.92 52.0465 164.935 52.0574C164.487 52.0662 164.027 52.0713 163.579 52.0713C163.05 52.0739 162.513 52.0739 161.984 52.0739H14.0235C13.4841 52.0739 12.9512 52.0739 12.4133 52.0713C11.9631 52.0713 11.5164 52.0662 11.0618 52.0574C10.0742 52.0458 9.08903 51.9688 8.11446 51.8269C7.14132 51.6784 6.19887 51.4012 5.31868 51.0045C4.43743 50.6085 3.63364 50.0897 2.93799 49.4678C2.23592 48.8539 1.6507 48.1431 1.20509 47.3633C0.757613 46.5821 0.447612 45.7449 0.285847 44.8806C0.122095 44.018 0.0339763 43.1454 0.0222824 42.2707C0.0129575 41.9941 0.0093306 41.7234 0.00567496 41.4506C0.00397982 41.3241 0.0022785 41.1971 0 41.0688V10.9347C0.0023055 10.8066 0.00402006 10.6783 0.00573523 10.5499C0.00937063 10.278 0.0130088 10.0058 0.0222824 9.73417C0.0339727 8.85944 0.122091 7.98682 0.285847 7.12416C0.44806 6.2604 0.758042 5.42364 1.20509 4.64279C1.6509 3.86038 2.23604 3.14676 2.93799 2.52937C3.63629 1.91024 4.43956 1.39176 5.31868 0.992748C6.19887 0.597081 7.14143 0.3215 8.11446 0.175325C9.08887 0.0322651 10.0742 -0.0447505 11.0618 -0.0550521C11.1561 -0.0563756 11.2502 -0.0577508 11.344 -0.0591225C11.702 -0.0643581 12.0565 -0.069543 12.4133 -0.0716091C12.9513 -0.0742165 13.4841 -0.0742165 14.0235 -0.0742165ZM10.9616 50.9232C11.407 50.932 11.845 50.9371 12.2939 50.9371L162.116 50.9397L163.713 50.9371C164.152 50.9371 164.604 50.932 165.035 50.9232C165.958 50.9132 166.879 50.8421 167.789 50.7105C168.645 50.5821 169.473 50.3404 170.247 49.9936C171.011 49.65 171.707 49.1998 172.309 48.6602C172.912 48.1313 173.417 47.5215 173.805 46.8533C174.195 46.1678 174.463 45.4334 174.601 44.6757C174.751 43.8765 174.835 43.0688 174.852 42.2588C174.858 41.859 174.858 41.4705 174.858 41.0465C174.87 40.5804 174.87 40.1181 174.87 39.6444V12.3539C174.87 11.8847 174.87 11.4192 174.858 10.9303C174.858 10.5355 174.858 10.1388 174.854 9.76953C174.836 8.94482 174.751 8.12234 174.598 7.30866C174.459 6.56085 174.193 5.83593 173.809 5.1585C173.024 3.80379 171.78 2.7004 170.251 2.00297C169.475 1.65804 168.645 1.41727 167.789 1.28859C166.884 1.15709 165.969 1.08622 165.051 1.07657L163.706 1.06001H12.2946L10.9652 1.07594C10.0394 1.08609 9.11573 1.1576 8.20198 1.28987C7.35446 1.41695 6.53333 1.65605 5.7661 1.99915C5.00286 2.34522 4.30569 2.79511 3.7 3.33243C3.09363 3.86468 2.58856 4.48027 2.20437 5.15532C1.8143 5.83745 1.54429 6.56834 1.40368 7.32266C1.25256 8.12972 1.17103 8.94579 1.1598 9.76379C1.15118 10.0287 1.13815 10.9303 1.13815 10.9303V41.0528C1.13815 41.0528 1.15038 41.9685 1.15972 42.2435C1.17146 43.0628 1.25346 43.8801 1.40503 44.6885C1.54539 45.4407 1.81519 46.1695 2.20505 46.8494C2.59066 47.5249 3.09855 48.14 3.70859 48.6704C4.30993 49.2071 5.00488 49.6547 5.76682 49.996C6.53582 50.3402 7.3585 50.581 8.20774 50.7105C9.1185 50.8414 10.039 50.9125 10.9616 50.9232Z" fill="#A6A6A6"/>
<path d="M12.2944 50.9372C11.8455 50.9372 11.4075 50.9321 10.9621 50.9232C10.0395 50.9126 9.11902 50.8415 8.20826 50.7105C7.35902 50.5811 6.53633 50.3403 5.76734 49.9961C5.0054 49.6547 4.31045 49.2071 3.70911 48.6705C3.09906 48.1401 2.59117 47.525 2.20556 46.8494C1.81571 46.1695 1.5459 45.4408 1.40555 44.6885C1.25398 43.8802 1.17198 43.0628 1.16024 42.2435C1.1509 41.9685 1.13867 41.0529 1.13867 41.0529V10.9303C1.13867 10.9303 1.1517 10.0287 1.16032 9.76384C1.17155 8.94583 1.25308 8.12977 1.40419 7.32271C1.54481 6.56838 1.81482 5.8375 2.20489 5.15537C2.58908 4.48031 3.09415 3.86473 3.70052 3.33247C4.30621 2.79516 5.00338 2.34526 5.76662 1.9992C6.53385 1.6561 7.35497 1.417 8.2025 1.28991C9.11625 1.15764 10.0399 1.08613 10.9657 1.07598L12.2951 1.06006H163.707L165.052 1.07662C165.969 1.08627 166.885 1.15714 167.79 1.28863C168.646 1.41732 169.476 1.65808 170.252 2.00302C171.781 2.70044 173.025 3.80384 173.81 5.15855C174.194 5.83597 174.459 6.56089 174.598 7.3087C174.751 8.12238 174.837 8.94486 174.854 9.76958C174.859 10.1389 174.859 10.5355 174.859 10.9303C174.87 11.4193 174.87 11.8847 174.87 12.354V39.6445C174.87 40.1182 174.87 40.5805 174.859 41.0465C174.859 41.4705 174.859 41.859 174.853 42.2588C174.836 43.0688 174.751 43.8766 174.601 44.6757C174.464 45.4334 174.195 46.1679 173.805 46.8534C173.417 47.5215 172.912 48.1313 172.309 48.6603C171.707 49.1998 171.011 49.6501 170.247 49.9936C169.474 50.3404 168.645 50.5821 167.79 50.7105C166.879 50.8422 165.959 50.9133 165.036 50.9232C164.604 50.9321 164.153 50.9372 163.714 50.9372L162.117 50.9398L12.2944 50.9372Z" fill="black"/>
<path d="M42.7581 26.392C42.7721 25.3038 43.0612 24.2369 43.5983 23.2905C44.1355 22.3441 44.9033 21.5489 45.8304 20.9789C45.2414 20.1378 44.4645 19.4456 43.5613 18.9573C42.658 18.469 41.6534 18.1981 40.6271 18.166C38.4378 17.9362 36.3155 19.476 35.1999 19.476C34.0627 19.476 32.3451 18.1888 30.4955 18.2268C29.2991 18.2655 28.1331 18.6134 27.1112 19.2366C26.0892 19.8599 25.2462 20.7372 24.6641 21.7832C22.1427 26.1485 24.0235 32.5641 26.4387 36.0927C27.6471 37.8206 29.0594 39.7507 30.9073 39.6822C32.7156 39.6072 33.391 38.5291 35.5738 38.5291C37.7363 38.5291 38.37 39.6822 40.2554 39.6387C42.1958 39.6072 43.4184 37.9031 44.5844 36.1589C45.4526 34.9278 46.1207 33.567 46.5639 32.1272C45.4366 31.6504 44.4746 30.8523 43.7978 29.8324C43.121 28.8125 42.7594 27.616 42.7581 26.392Z" fill="white"/>
<path d="M39.1954 15.8452C40.2534 14.5751 40.7747 12.9426 40.6484 11.2944C39.0321 11.4642 37.539 12.2367 36.4667 13.4581C35.9424 14.0547 35.5409 14.7489 35.2851 15.5008C35.0292 16.2527 34.9241 17.0477 34.9757 17.8403C35.7841 17.8487 36.584 17.6734 37.3149 17.3278C38.0458 16.9822 38.6888 16.4753 39.1954 15.8452Z" fill="white"/>
<path d="M65.6143 35.3076H59.4434L57.9614 39.6835H55.3477L61.1927 23.4941H63.9083L69.7533 39.6835H67.095L65.6143 35.3076ZM60.0825 33.2884H64.974L62.5626 26.1868H62.4952L60.0825 33.2884Z" fill="white"/>
<path d="M82.3766 33.7824C82.3766 37.4504 80.4134 39.8069 77.4508 39.8069C76.7003 39.8462 75.9539 39.6733 75.2971 39.3081C74.6403 38.9429 74.0997 38.4001 73.737 37.7419H73.681V43.5882H71.2581V27.8801H73.6033V29.8433H73.6479C74.0272 29.1882 74.577 28.6482 75.2388 28.2808C75.9006 27.9134 76.6497 27.7322 77.4062 27.7566C80.4019 27.7566 82.3766 30.1247 82.3766 33.7824ZM79.8863 33.7824C79.8863 31.3927 78.6513 29.8216 76.7671 29.8216C74.9159 29.8216 73.6708 31.4258 73.6708 33.7824C73.6708 36.1607 74.9159 37.7534 76.7671 37.7534C78.6514 37.7534 79.8863 36.1938 79.8863 33.7824Z" fill="white"/>
<path d="M95.3678 33.7824C95.3678 37.4504 93.4046 39.8069 90.442 39.8069C89.6915 39.8462 88.9451 39.6733 88.2883 39.3081C87.6315 38.9429 87.0909 38.4001 86.7282 37.7419H86.6722V43.5882H84.2494V27.8801H86.5945V29.8433H86.639C87.0184 29.1882 87.5682 28.6482 88.23 28.2808C88.8918 27.9134 89.6408 27.7322 90.3974 27.7566C93.3931 27.7566 95.3678 30.1247 95.3678 33.7824ZM92.8775 33.7824C92.8775 31.3927 91.6426 29.8216 89.7583 29.8216C87.9071 29.8216 86.662 31.4258 86.662 33.7824C86.662 36.1607 87.9071 37.7534 89.7583 37.7534C91.6426 37.7534 92.8775 36.1938 92.8775 33.7824Z" fill="white"/>
<path d="M103.954 35.1727C104.133 36.7781 105.693 37.8322 107.824 37.8322C109.866 37.8322 111.336 36.7781 111.336 35.3305C111.336 34.0739 110.45 33.3215 108.351 32.8058L106.253 32.3004C103.28 31.5823 101.9 30.1921 101.9 27.936C101.9 25.1428 104.335 23.2241 107.791 23.2241C111.212 23.2241 113.557 25.1428 113.636 27.936H111.19C111.044 26.3204 109.709 25.3452 107.757 25.3452C105.805 25.3452 104.47 26.3319 104.47 27.768C104.47 28.9126 105.323 29.5861 107.409 30.1016L109.193 30.5396C112.515 31.3251 113.895 32.6594 113.895 35.0274C113.895 38.0563 111.482 39.9532 107.645 39.9532C104.054 39.9532 101.63 38.1008 101.474 35.1726L103.954 35.1727Z" fill="white"/>
<path d="M119.123 25.0868V27.8801H121.368V29.7987H119.123V36.3058C119.123 37.3167 119.573 37.7877 120.56 37.7877C120.826 37.7831 121.092 37.7644 121.357 37.7317V39.6388C120.913 39.7217 120.462 39.7593 120.011 39.7509C117.621 39.7509 116.689 38.8533 116.689 36.5642V29.7987H114.973V27.8801H116.689V25.0868H119.123Z" fill="white"/>
<path d="M122.668 33.7824C122.668 30.0686 124.855 27.735 128.266 27.735C131.688 27.735 133.865 30.0686 133.865 33.7824C133.865 37.5064 131.7 39.8299 128.266 39.8299C124.834 39.8299 122.668 37.5064 122.668 33.7824ZM131.397 33.7824C131.397 31.2348 130.229 29.7313 128.266 29.7313C126.303 29.7313 125.137 31.2463 125.137 33.7824C125.137 36.3402 126.303 37.8323 128.266 37.8323C130.229 37.8323 131.397 36.3402 131.397 33.7824Z" fill="white"/>
<path d="M135.863 27.8801H138.174V29.8891H138.23C138.386 29.2616 138.754 28.7071 139.271 28.3188C139.788 27.9304 140.423 27.7319 141.069 27.7566C141.348 27.7556 141.626 27.7859 141.899 27.847V30.1132C141.546 30.0055 141.179 29.956 140.81 29.9668C140.458 29.9525 140.107 30.0146 139.782 30.1487C139.456 30.2828 139.163 30.4858 138.923 30.7438C138.683 31.0018 138.502 31.3087 138.392 31.6433C138.282 31.9779 138.246 32.3324 138.286 32.6824V39.6834H135.863L135.863 27.8801Z" fill="white"/>
<path d="M153.069 36.2167C152.743 38.3594 150.657 39.8299 147.987 39.8299C144.553 39.8299 142.422 37.5293 142.422 33.8384C142.422 30.1361 144.565 27.7349 147.885 27.7349C151.151 27.7349 153.204 29.9782 153.204 33.5571V34.3871H144.868V34.5336C144.829 34.968 144.884 35.4056 145.027 35.8173C145.171 36.2291 145.401 36.6056 145.701 36.9218C146.001 37.238 146.365 37.4867 146.769 37.6514C147.173 37.816 147.607 37.8929 148.043 37.8768C148.616 37.9305 149.19 37.7979 149.681 37.4988C150.172 37.1996 150.554 36.75 150.769 36.2167L153.069 36.2167ZM144.879 32.6939H150.78C150.802 32.3033 150.743 31.9124 150.606 31.5458C150.47 31.1792 150.259 30.8447 149.987 30.5634C149.715 30.2821 149.388 30.0601 149.027 29.9112C148.665 29.7623 148.276 29.6897 147.885 29.6981C147.491 29.6958 147.1 29.7716 146.734 29.9212C146.369 30.0708 146.037 30.2912 145.758 30.5697C145.479 30.8482 145.257 31.1793 145.106 31.5439C144.955 31.9085 144.878 32.2993 144.879 32.6939Z" fill="white"/>
<path d="M59.7786 11.3081C60.2865 11.2716 60.7962 11.3484 61.2709 11.5328C61.7456 11.7172 62.1735 12.0046 62.5236 12.3744C62.8738 12.7441 63.1375 13.187 63.2958 13.671C63.4541 14.155 63.5029 14.6682 63.4389 15.1734C63.4389 17.6586 62.0957 19.0871 59.7786 19.0871H56.9688V11.3081H59.7786ZM58.177 17.987H59.6436C60.0066 18.0087 60.3698 17.9492 60.7069 17.8128C61.0439 17.6764 61.3463 17.4665 61.5921 17.1986C61.8378 16.9306 62.0207 16.6111 62.1274 16.2635C62.2341 15.916 62.262 15.5489 62.209 15.1892C62.2582 14.8309 62.2275 14.4662 62.1191 14.1211C62.0108 13.7761 61.8274 13.4593 61.5822 13.1934C61.3371 12.9276 61.0361 12.7192 60.7009 12.5833C60.3658 12.4474 60.0047 12.3873 59.6436 12.4074H58.177V17.987Z" fill="white"/>
<path d="M64.8037 16.1492C64.7668 15.7634 64.8109 15.3742 64.9333 15.0064C65.0556 14.6387 65.2534 14.3006 65.5141 14.0138C65.7748 13.727 66.0925 13.4978 66.4469 13.341C66.8013 13.1842 67.1846 13.1032 67.5722 13.1032C67.9597 13.1032 68.343 13.1842 68.6974 13.341C69.0518 13.4978 69.3695 13.727 69.6302 14.0138C69.8909 14.3006 70.0887 14.6387 70.2111 15.0064C70.3334 15.3742 70.3775 15.7634 70.3406 16.1492C70.3782 16.5354 70.3346 16.9252 70.2126 17.2935C70.0906 17.6618 69.8929 18.0005 69.6321 18.2879C69.3714 18.5753 69.0534 18.8049 68.6987 18.962C68.3439 19.1192 67.9602 19.2003 67.5722 19.2003C67.1841 19.2003 66.8004 19.1192 66.4457 18.962C66.0909 18.8049 65.7729 18.5753 65.5122 18.2879C65.2515 18.0005 65.0537 17.6618 64.9317 17.2935C64.8097 16.9252 64.7661 16.5354 64.8037 16.1492ZM69.1489 16.1492C69.1489 14.8767 68.5773 14.1325 67.5741 14.1325C66.567 14.1325 66.0005 14.8767 66.0005 16.1492C66.0005 17.4319 66.567 18.1703 67.5741 18.1703C68.5773 18.1703 69.1489 17.4268 69.1489 16.1492Z" fill="white"/>
<path d="M77.7007 19.087H76.4988L75.2855 14.7634H75.1939L73.9857 19.087H72.7953L71.1771 13.2165H72.3522L73.4038 17.696H73.4904L74.6973 13.2165H75.8088L77.0157 17.696H77.1074L78.1539 13.2165H79.3125L77.7007 19.087Z" fill="white"/>
<path d="M80.6735 13.2165H81.7888V14.1491H81.8753C82.0222 13.8141 82.2699 13.5333 82.5839 13.3458C82.898 13.1584 83.2627 13.0735 83.6272 13.1032C83.9128 13.0817 84.1996 13.1248 84.4664 13.2292C84.7331 13.3336 84.9729 13.4967 85.1681 13.7064C85.3632 13.9161 85.5087 14.167 85.5937 14.4405C85.6787 14.7141 85.7011 15.0032 85.6591 15.2866V19.0869H84.5006V15.5775C84.5006 14.6341 84.0906 14.165 83.2338 14.165C83.0399 14.1559 82.8463 14.189 82.6663 14.2617C82.4863 14.3345 82.3242 14.4454 82.191 14.5867C82.0579 14.728 81.9569 14.8964 81.8949 15.0804C81.8329 15.2644 81.8115 15.4596 81.832 15.6526V19.087H80.6735L80.6735 13.2165Z" fill="white"/>
<path d="M87.5052 10.9248H88.6638V19.087H87.5052V10.9248Z" fill="white"/>
<path d="M90.2743 16.1492C90.2374 15.7634 90.2816 15.3741 90.4039 15.0064C90.5263 14.6386 90.7242 14.3005 90.9849 14.0137C91.2456 13.7269 91.5633 13.4977 91.9178 13.3409C92.2722 13.1841 92.6555 13.1031 93.0431 13.1031C93.4306 13.1031 93.8139 13.1841 94.1684 13.3409C94.5228 13.4977 94.8406 13.7269 95.1013 14.0137C95.362 14.3005 95.5598 14.6386 95.6822 15.0064C95.8046 15.3741 95.8487 15.7634 95.8118 16.1492C95.8494 16.5354 95.8058 16.9252 95.6837 17.2935C95.5617 17.6618 95.3639 18.0005 95.1031 18.2879C94.8424 18.5752 94.5244 18.8049 94.1696 18.962C93.8148 19.1191 93.4311 19.2003 93.0431 19.2003C92.655 19.2003 92.2713 19.1191 91.9165 18.962C91.5617 18.8049 91.2438 18.5752 90.983 18.2879C90.7222 18.0005 90.5245 17.6618 90.4024 17.2935C90.2804 16.9252 90.2367 16.5354 90.2743 16.1492ZM94.6195 16.1492C94.6195 14.8767 94.0479 14.1325 93.0447 14.1325C92.0376 14.1325 91.4711 14.8767 91.4711 16.1492C91.4711 17.4319 92.0376 18.1703 93.0447 18.1703C94.0479 18.1703 94.6195 17.4268 94.6195 16.1492Z" fill="white"/>
<path d="M97.0315 17.4268C97.0315 16.3701 97.8183 15.7609 99.215 15.6743L100.805 15.5826V15.0759C100.805 14.4559 100.395 14.1058 99.6033 14.1058C98.9565 14.1058 98.5084 14.3432 98.3798 14.7583H97.2582C97.3766 13.7499 98.3251 13.1032 99.6568 13.1032C101.129 13.1032 101.959 13.8359 101.959 15.0759V19.087H100.843V18.262H100.752C100.566 18.5579 100.304 18.7992 99.9946 18.9611C99.6848 19.123 99.3376 19.1998 98.9884 19.1837C98.7419 19.2093 98.4928 19.183 98.2572 19.1065C98.0215 19.03 97.8045 18.9049 97.6202 18.7394C97.4358 18.5739 97.2882 18.3715 97.1868 18.1455C97.0854 17.9194 97.0325 17.6746 97.0315 17.4268ZM100.805 16.9252V16.4344L99.3716 16.526C98.5631 16.5801 98.1965 16.8551 98.1965 17.3727C98.1965 17.901 98.6548 18.2085 99.285 18.2085C99.4697 18.2272 99.6562 18.2085 99.8336 18.1537C100.011 18.0988 100.175 18.0088 100.317 17.8891C100.459 17.7693 100.575 17.6223 100.659 17.4567C100.743 17.2911 100.793 17.1103 100.805 16.9252Z" fill="white"/>
<path d="M103.481 16.1492C103.481 14.2942 104.435 13.1191 105.918 13.1191C106.285 13.1022 106.649 13.1901 106.968 13.3724C107.287 13.5548 107.547 13.8242 107.718 14.149H107.805V10.9248H108.963V19.087H107.853V18.1595H107.762C107.577 18.4821 107.308 18.7481 106.983 18.9287C106.658 19.1092 106.29 19.1974 105.918 19.1837C104.425 19.1838 103.481 18.0086 103.481 16.1492ZM104.678 16.1492C104.678 17.3943 105.265 18.1436 106.247 18.1436C107.223 18.1436 107.827 17.3835 107.827 16.1543C107.827 14.9308 107.217 14.1599 106.247 14.1599C105.271 14.1599 104.678 14.9142 104.678 16.1492Z" fill="white"/>
<path d="M113.757 16.1492C113.72 15.7634 113.764 15.3742 113.886 15.0064C114.009 14.6387 114.207 14.3006 114.467 14.0138C114.728 13.727 115.046 13.4978 115.4 13.341C115.755 13.1842 116.138 13.1032 116.525 13.1032C116.913 13.1032 117.296 13.1842 117.651 13.341C118.005 13.4978 118.323 13.727 118.583 14.0138C118.844 14.3006 119.042 14.6387 119.164 15.0064C119.287 15.3742 119.331 15.7634 119.294 16.1492C119.331 16.5354 119.288 16.9252 119.166 17.2935C119.044 17.6618 118.846 18.0005 118.585 18.2879C118.325 18.5753 118.007 18.8049 117.652 18.962C117.297 19.1192 116.913 19.2003 116.525 19.2003C116.137 19.2003 115.754 19.1192 115.399 18.962C115.044 18.8049 114.726 18.5753 114.465 18.2879C114.205 18.0005 114.007 17.6618 113.885 17.2935C113.763 16.9252 113.719 16.5354 113.757 16.1492ZM118.102 16.1492C118.102 14.8767 117.53 14.1325 116.527 14.1325C115.52 14.1325 114.954 14.8767 114.954 16.1492C114.954 17.4319 115.52 18.1703 116.527 18.1703C117.53 18.1703 118.102 17.4268 118.102 16.1492Z" fill="white"/>
<path d="M120.848 13.2165H121.964V14.1491H122.05C122.197 13.8141 122.445 13.5333 122.759 13.3458C123.073 13.1584 123.437 13.0735 123.802 13.1032C124.088 13.0817 124.374 13.1248 124.641 13.2292C124.908 13.3336 125.148 13.4967 125.343 13.7064C125.538 13.9161 125.684 14.167 125.769 14.4405C125.854 14.7141 125.876 15.0032 125.834 15.2866V19.0869H124.675V15.5775C124.675 14.6341 124.265 14.165 123.409 14.165C123.215 14.1559 123.021 14.189 122.841 14.2617C122.661 14.3345 122.499 14.4454 122.366 14.5867C122.233 14.728 122.132 14.8964 122.07 15.0804C122.008 15.2644 121.986 15.4596 122.007 15.6526V19.087H120.848V13.2165Z" fill="white"/>
<path d="M132.38 11.7549V13.2432H133.652V14.2191H132.38V17.2377C132.38 17.8527 132.634 18.1219 133.211 18.1219C133.358 18.1215 133.506 18.1125 133.652 18.0952V19.0602C133.444 19.0975 133.234 19.1173 133.022 19.1194C131.734 19.1194 131.221 18.6662 131.221 17.5344V14.219H130.289V13.2432H131.221V11.7549H132.38Z" fill="white"/>
<path d="M135.235 10.9248H136.383V14.1599H136.475C136.629 13.8218 136.883 13.5394 137.204 13.3512C137.524 13.1631 137.895 13.0782 138.265 13.1083C138.549 13.0928 138.833 13.1402 139.097 13.2472C139.361 13.3542 139.597 13.518 139.791 13.727C139.984 13.9361 140.128 14.1851 140.214 14.4565C140.3 14.7278 140.325 15.0148 140.287 15.2968V19.087H139.127V15.5826C139.127 14.6449 138.69 14.17 137.872 14.17C137.673 14.1537 137.472 14.1811 137.285 14.2503C137.097 14.3194 136.927 14.4287 136.786 14.5705C136.646 14.7122 136.538 14.883 136.47 15.071C136.402 15.2589 136.376 15.4593 136.394 15.6584V19.0869H135.235L135.235 10.9248Z" fill="white"/>
<path d="M147.042 17.5019C146.885 18.0384 146.544 18.5025 146.079 18.813C145.614 19.1235 145.054 19.2606 144.498 19.2003C144.112 19.2105 143.727 19.1364 143.372 18.9832C143.017 18.83 142.699 18.6013 142.441 18.313C142.183 18.0247 141.991 17.6837 141.878 17.3137C141.765 16.9436 141.734 16.5535 141.787 16.1702C141.735 15.7857 141.767 15.3947 141.879 15.0236C141.992 14.6525 142.183 14.3099 142.44 14.0191C142.697 13.7283 143.013 13.496 143.367 13.338C143.721 13.1799 144.105 13.0999 144.493 13.1032C146.127 13.1032 147.112 14.2191 147.112 16.0626V16.4668H142.967V16.5318C142.949 16.7472 142.976 16.964 143.046 17.1684C143.117 17.3728 143.229 17.5601 143.376 17.7185C143.524 17.8768 143.702 18.0026 143.901 18.0879C144.1 18.1732 144.314 18.216 144.53 18.2136C144.807 18.2468 145.088 18.1969 145.337 18.0702C145.585 17.9435 145.791 17.7456 145.927 17.5019L147.042 17.5019ZM142.967 15.61H145.932C145.946 15.413 145.92 15.2151 145.853 15.029C145.787 14.843 145.682 14.6728 145.546 14.5296C145.41 14.3864 145.245 14.2732 145.063 14.1974C144.881 14.1215 144.684 14.0847 144.487 14.0892C144.286 14.0867 144.088 14.1243 143.902 14.1999C143.716 14.2754 143.548 14.3874 143.406 14.5291C143.264 14.6708 143.153 14.8395 143.077 15.0251C143.002 15.2108 142.964 15.4096 142.967 15.61Z" fill="white"/>
</g>
<defs>
<clipPath id="clip0_745_14124">
<rect width="176" height="52.1481" fill="white" transform="translate(0 -0.0742188)"/>
</clipPath>
</defs>
</svg>
