<svg width="82" height="10" viewBox="0 0 82 10" fill="none" xmlns="http://www.w3.org/2000/svg">
<path d="M1.5 2.64888C29.8991 2.64888 35.7608 2.95565 64.1587 2.64888C66.1026 2.62788 75.3882 2.53047 78.6667 2.44399C79.3589 2.42573 81.3818 2.33075 80.7199 2.12528C79.9 1.87072 79.0057 2.03088 78.1478 2.03422C72.7069 2.05542 67.2686 2.23987 61.8347 2.51229C47.8226 3.21478 33.9362 4.55288 20.1835 7.40677C19.7115 7.50472 14.3671 8.18078 17.9046 8.18078C24.6961 8.18078 31.4875 8.18078 38.279 8.18078C43.7407 8.18078 49.2683 7.94131 54.7274 8.18078C55.1663 8.20004 54.0002 8.6869 53.6895 9.00032" stroke="#931602" stroke-width="2" stroke-linecap="round"/>
</svg>
