<svg width="151" height="150" viewBox="0 0 151 150" fill="none" xmlns="http://www.w3.org/2000/svg">
<path d="M38.6363 66.4873C38.7348 66.4757 38.8338 66.4628 38.9329 66.4547C49.3162 65.5898 60.393 69.1774 68.3782 75.8409C68.9085 76.2764 69.4278 76.7249 69.936 77.1865C70.4442 77.6477 70.9409 78.1211 71.4261 78.6067C71.911 79.092 72.3838 79.5891 72.8446 80.098C73.305 80.607 73.7528 81.1268 74.1879 81.6575C74.623 82.1882 75.0448 82.7295 75.4531 83.2811C75.8618 83.8328 76.2566 84.3941 76.6373 84.9648C77.018 85.5359 77.3848 86.116 77.7376 86.7049C78.09 87.2939 78.4276 87.8911 78.7504 88.4964C79.0737 89.1021 79.3818 89.7152 79.6747 90.3356C79.9677 90.9565 80.2453 91.5839 80.5075 92.218C80.7694 92.8525 81.0157 93.4929 81.2465 94.1394C81.4773 94.7859 81.6919 95.4376 81.8904 96.0946C82.0894 96.7516 82.2718 97.4131 82.4377 98.079C82.6039 98.7449 82.7537 99.4143 82.887 100.087C83.0203 100.761 83.137 101.437 83.2372 102.116C83.3375 102.795 83.4208 103.476 83.4872 104.159C83.5541 104.853 83.6038 105.549 83.6364 106.246C83.6687 106.943 83.6834 107.64 83.6807 108.338C83.678 109.036 83.658 109.733 83.6207 110.43C83.5834 111.126 83.5288 111.822 83.4569 112.515C83.3847 113.209 83.2953 113.901 83.1889 114.591C83.082 115.28 82.9583 115.966 82.8176 116.65C82.6766 117.333 82.5187 118.012 82.3438 118.688C82.169 119.363 81.9775 120.034 81.7692 120.7C81.561 121.366 81.3362 122.026 81.0949 122.68C80.8537 123.335 80.5961 123.983 80.3222 124.625C80.0487 125.267 79.7592 125.901 79.4539 126.529C79.1485 127.156 78.8278 127.775 78.4917 128.387C78.1552 128.998 77.8038 129.6 77.4375 130.194C77.0715 130.788 76.6907 131.372 76.2952 131.947C75.8997 132.522 75.49 133.086 75.0661 133.641C74.6423 134.195 74.205 134.738 73.7543 135.271C73.3149 135.792 72.8627 136.303 72.3976 136.802C71.9329 137.301 71.4562 137.789 70.9675 138.265C70.4787 138.741 69.9785 139.204 69.4668 139.655C68.9552 140.106 68.4326 140.545 67.8992 140.97C67.3661 141.395 66.8228 141.807 66.2691 142.206C65.7155 142.604 65.1524 142.989 64.5797 143.36C64.0074 143.731 63.426 144.087 62.8354 144.429C62.2453 144.771 61.6472 145.099 61.0411 145.411C60.4346 145.724 59.8209 146.021 59.2001 146.304C58.5792 146.586 57.9516 146.852 57.3171 147.104C56.6831 147.355 56.0432 147.591 55.3975 147.811C54.7518 148.031 54.101 148.234 53.4452 148.422C52.7894 148.61 52.1293 148.781 51.4649 148.936C50.8005 149.091 50.1329 149.23 49.4619 149.352C48.7909 149.474 48.1173 149.58 47.4408 149.669C46.7644 149.758 46.0863 149.83 45.4064 149.885C34.2522 150.659 23.7104 147.523 15.0468 140.377C14.5191 139.939 14.0025 139.488 13.497 139.025C12.9916 138.562 12.498 138.086 12.0161 137.599C11.5342 137.111 11.0646 136.611 10.6075 136.1C10.1503 135.589 9.70604 135.068 9.27467 134.534C8.84333 134.001 8.42545 133.458 8.021 132.904C7.61659 132.351 7.22609 131.787 6.84951 131.214C6.47295 130.641 6.11082 130.059 5.7631 129.468C5.41533 128.877 5.08241 128.278 4.76434 127.671C4.44622 127.064 4.14335 126.449 3.85573 125.827C3.56807 125.204 3.29598 124.575 3.03944 123.939C2.78294 123.303 2.54233 122.661 2.31761 122.014C2.09286 121.366 1.88428 120.713 1.69189 120.055C1.49946 119.397 1.32344 118.734 1.16383 118.068C1.00419 117.4 0.861159 116.73 0.734736 116.056C0.608274 115.382 0.498578 114.706 0.405644 114.027C0.312672 113.347 0.236581 112.666 0.177371 111.983C-0.826984 101.359 2.46435 90.2267 9.27927 81.9944C16.8255 72.8792 26.8784 67.6068 38.6363 66.4873ZM39.0576 71.4403C28.7388 72.4567 19.8484 76.9376 13.2368 85.0044C6.80924 92.8474 4.27918 102.643 5.29 112.655C6.23083 121.972 11.4361 130.924 18.6671 136.786C25.8037 142.572 35.4823 145.851 44.6983 144.883C44.8137 144.872 44.9287 144.858 45.0433 144.841C45.6362 144.793 46.2273 144.731 46.8167 144.654C47.4065 144.577 47.9941 144.486 48.5796 144.38C49.1647 144.275 49.7469 144.155 50.3262 144.02C50.9054 143.886 51.4812 143.738 52.0535 143.576C52.6254 143.414 53.1932 143.238 53.757 143.048C54.3203 142.858 54.8788 142.654 55.4324 142.436C55.9861 142.219 56.5341 141.988 57.0765 141.744C57.6184 141.5 58.1544 141.243 58.6843 140.972C59.2139 140.702 59.7366 140.419 60.2526 140.123C60.7685 139.827 61.2769 139.519 61.7777 139.198C62.2785 138.878 62.7711 138.545 63.2556 138.2C63.7401 137.855 64.2158 137.499 64.6828 137.131C65.1498 136.762 65.6077 136.383 66.0564 135.993C66.5048 135.602 66.9434 135.201 67.3723 134.789C67.8013 134.377 68.2199 133.955 68.6282 133.523C69.0366 133.09 69.434 132.648 69.8206 132.196C70.213 131.739 70.5939 131.272 70.9634 130.795C71.3325 130.319 71.6899 129.834 72.0357 129.34C72.3815 128.846 72.7148 128.344 73.0358 127.834C73.3567 127.324 73.665 126.806 73.9606 126.28C74.2559 125.755 74.5383 125.223 74.808 124.683C75.0772 124.144 75.3332 123.599 75.5761 123.047C75.8185 122.495 76.0475 121.938 76.2632 121.375C76.4784 120.811 76.6797 120.243 76.8669 119.671C77.0546 119.098 77.2279 118.521 77.3868 117.939C77.546 117.358 77.6908 116.773 77.8209 116.184C77.9515 115.595 78.0674 115.004 78.1688 114.41C78.2702 113.816 78.3571 113.22 78.4293 112.621C78.5012 112.023 78.5585 111.423 78.6013 110.821C78.644 110.22 78.672 109.618 78.6852 109.015C78.6984 108.413 78.6968 107.81 78.6805 107.208C78.6638 106.605 78.6325 106.003 78.5867 105.402C78.5412 104.798 78.4806 104.195 78.4049 103.594C78.3295 102.992 78.2392 102.393 78.1339 101.796C78.0286 101.199 77.9085 100.606 77.7737 100.015C77.6389 99.424 77.4895 98.8368 77.3256 98.2532C77.1616 97.6697 76.9831 97.0906 76.79 96.516C76.5973 95.9414 76.3904 95.372 76.1693 94.8079C75.9483 94.2433 75.7134 93.6849 75.4648 93.1324C75.2157 92.5799 74.9533 92.0338 74.6774 91.4942C74.4016 90.9545 74.1123 90.4221 73.8097 89.8968C73.5074 89.3715 73.1921 88.8542 72.8638 88.3449C72.5355 87.8351 72.195 87.334 71.8422 86.8413C71.4891 86.3487 71.1239 85.8652 70.7466 85.3908C70.3698 84.9164 69.9812 84.4516 69.5811 83.9962C69.1809 83.5413 68.7696 83.0964 68.3473 82.6617C67.925 82.2269 67.4922 81.8028 67.0489 81.3895C66.6056 80.9765 66.1522 80.5745 65.6887 80.1837C65.2357 79.7936 64.7735 79.4148 64.3023 79.0473C63.8306 78.6801 63.3504 78.3246 62.8617 77.9808C62.3725 77.637 61.8754 77.3052 61.3703 76.9854C60.8653 76.6661 60.3524 76.3593 59.8318 76.0652C59.3116 75.7707 58.7846 75.4894 58.2507 75.2214C57.7165 74.9529 57.1761 74.6976 56.6295 74.4556C56.0828 74.2139 55.5307 73.9857 54.9732 73.7708C54.4153 73.556 53.8525 73.3549 53.2849 73.1677C52.7173 72.9804 52.1454 72.8073 51.5692 72.6484C50.9931 72.4891 50.4132 72.3442 49.8296 72.2137C49.2465 72.0831 48.6604 71.9669 48.0714 71.8652C47.4824 71.763 46.8913 71.6756 46.298 71.6029C45.7048 71.5299 45.1101 71.4716 44.5141 71.4281C43.9178 71.3842 43.3208 71.355 42.7233 71.3407C42.1257 71.3263 41.5282 71.3267 40.9307 71.3418C40.3331 71.3566 39.7364 71.3861 39.1404 71.4304C39.113 71.4327 39.085 71.4368 39.0576 71.4403Z" fill="#0168A2"/>
<path d="M58.9753 110.277C60.705 110.253 62.1013 110.8 63.5833 111.671C64.8876 112.436 67.0421 113.686 67.3801 115.271C67.5293 115.971 67.1942 116.544 66.8399 117.111C66.6755 117.251 66.5263 117.365 66.3305 117.46C64.4791 118.354 60.8443 115.151 58.9089 114.415C58.9054 113.033 58.9135 111.657 58.9753 110.277Z" fill="black" fill-opacity="0.8"/>
<path d="M23.2365 110.311C23.7189 110.281 24.2255 110.172 24.6394 110.463C25.322 111.359 24.9768 113.245 24.98 114.361C22.5344 115.004 20.7798 117.239 18.2902 117.717C17.9367 117.649 17.5379 117.588 17.2291 117.394C16.792 117.119 16.264 116.642 16.1631 116.123C16.0572 115.579 16.3272 114.945 16.628 114.496C17.6647 112.948 21.4215 110.683 23.2365 110.311Z" fill="black" fill-opacity="0.8"/>
<path d="M60.1202 91.4889C60.3854 91.493 60.6506 91.5017 60.9093 91.5658C61.4979 91.7103 62.1396 92.0664 62.4175 92.6282C63.0161 93.8351 62.9688 102.454 62.4799 103.786C62.118 104.772 60.65 105.313 59.7659 105.751L58.2828 106.254C58.0129 105.001 57.5193 103.527 57.5146 102.256C57.5141 102.041 57.721 101.84 57.8707 101.695C58.0386 101.533 58.2361 101.376 58.3043 101.144C58.9046 99.0941 57.9989 95.4815 58.6627 93.1539C58.9133 92.2745 59.3568 91.9143 60.1202 91.4889Z" fill="black" fill-opacity="0.8"/>
<path d="M22.821 91.4796C23.7858 91.5833 24.2593 91.9219 24.9897 92.5129C25.5777 95.1377 24.9215 97.7433 25.2746 100.177C25.395 101.007 26.1292 101.678 26.093 102.528C26.0599 103.306 25.9981 104.023 25.8072 104.781C25.6796 105.288 25.5854 105.874 25.1243 106.147L24.6141 105.982C23.6923 105.607 21.6674 104.971 21.2764 104.024C20.7537 102.757 20.655 93.8806 21.2051 92.6731C21.5029 92.0193 22.2009 91.7337 22.821 91.4796Z" fill="black" fill-opacity="0.8"/>
<path d="M57.8879 118.798C57.9118 118.802 57.9357 118.806 57.959 118.812C59.5686 119.254 61.8012 121.112 62.683 122.47C62.8042 124.863 63.148 130.387 62.5116 132.471C62.2727 133.253 61.8712 133.472 61.187 133.826C60.5739 133.89 59.8023 133.791 59.3099 133.404C57.6204 132.074 58.677 126.547 58.3355 124.373L58.3063 124.201C57.7813 123.818 56.8779 123.307 56.6588 122.68C56.2596 121.536 57.3925 119.834 57.8879 118.798Z" fill="black" fill-opacity="0.8"/>
<path d="M25.481 118.836C25.5942 118.884 25.7264 118.901 25.8208 118.98C26.188 119.287 27.2457 122.065 27.5103 122.658C26.8356 123.163 26.1285 123.632 25.4378 124.115C25.3054 126.238 25.9292 131.489 24.7162 133.084C24.2758 133.664 23.6512 133.717 22.985 133.812C22.4437 133.7 21.7546 133.622 21.4036 133.143C20.5355 131.955 20.8421 123.816 21.0963 122.061C22.4118 120.798 23.9609 119.829 25.481 118.836Z" fill="black" fill-opacity="0.8"/>
<path d="M54.1113 101.898C54.3759 102.042 54.4353 102.07 54.5641 102.34C55.0082 103.267 55.1976 104.436 55.4085 105.436C56.334 109.819 56.5514 114.537 54.9849 118.805C53.2126 123.632 49.5347 126.695 44.9838 128.805C44.5946 128.98 44.2239 129.155 43.7991 129.226C43.5543 129.266 43.5601 129.28 43.3643 129.14C43.2245 124.079 43.4337 118.943 43.5934 113.881C43.6569 111.869 43.4914 109.76 43.7746 107.769C48.4962 106.276 50.3565 105.086 54.1113 101.898Z" fill="black" fill-opacity="0.8"/>
<path d="M29.3187 102.011C30.1452 102.188 33.1335 104.948 34.2283 105.593C36.0492 106.666 38.005 107.311 40.04 107.842C40.4252 114.798 40.406 122.195 40.3996 129.171C40.0558 129.34 39.4677 129.077 39.0907 128.982C34.6884 127.209 30.9257 124.024 29.003 119.634C26.6984 114.373 27.2836 107.261 29.3187 102.011Z" fill="black" fill-opacity="0.8"/>
<path d="M34.7848 82.8376L34.9729 83.052C35.1148 84.5824 35.6222 86.1926 36.48 87.4759C36.9171 88.1297 37.4102 88.7003 38.2237 88.8436C39.3496 89.0424 40.5315 88.5453 41.6656 88.5453C42.8591 88.5447 44.0532 88.9625 45.2496 88.8745C45.6611 88.8442 46.0428 88.677 46.3715 88.4316C48.0435 87.1839 48.4934 84.6261 48.7976 82.6965C49.3122 83.2711 49.8781 83.8528 50.2394 84.541C51.1782 86.3301 51.1666 88.4654 50.0004 90.1578C49.5954 90.7458 48.9602 91.3251 48.7475 92.0087C49.2224 92.8193 49.7819 93.6649 50.1053 94.5479C50.9387 96.823 50.6496 97.7624 52.5361 99.6401C52.1006 100.05 51.6596 100.453 51.2132 100.851C48.568 103.139 45.5521 104.96 41.9459 105.032C37.6287 105.118 34.0268 102.674 31.0537 99.7998C33.2273 97.7088 33.3867 94.5175 35.0014 92.0052C33.8024 90.6648 32.8667 89.0826 32.8185 87.2404C32.7702 85.3901 33.5421 84.1296 34.7848 82.8376Z" fill="black" fill-opacity="0.8"/>
<path d="M127.893 0C129.112 0.133456 130.653 2.1544 131.431 3.00438C127.882 6.63041 124.288 10.2118 120.65 13.7486C118.889 15.4748 117.146 17.3926 115.222 18.9296C118.927 22.8436 122.845 26.5984 126.657 30.4117C128.244 31.9993 129.941 33.5378 131.408 35.236C133.104 33.132 135.235 31.2661 137.126 29.3233C140.489 25.8684 143.821 22.2158 147.384 18.9798C148.491 19.9338 149.533 21.0234 150.453 22.1583C150.148 23.9362 149.582 25.754 149.128 27.503C148.031 31.6267 146.904 35.7419 145.746 39.8487C144.808 43.262 144.204 47.1374 142.827 50.3858C142.538 51.0683 141.839 51.8754 141.187 52.2355C140.555 52.5846 139.503 52.6592 138.79 52.6994C136.821 52.8102 134.801 52.6849 132.826 52.682L120.614 52.6855C118.453 52.6866 114.343 52.2647 112.501 53.1033C110.908 53.8294 106.884 58.3687 105.441 59.818L97.9507 67.2834C96.3859 68.8371 94.8515 70.4508 93.1877 71.9001C97.2374 76.1631 101.474 80.2496 105.629 84.4088C107.286 86.068 110.58 89.7913 112.416 90.9359C113.724 91.7512 130.564 91.324 133.146 91.3194C135.281 91.3159 139.473 90.8805 141.285 91.88C142.097 92.3282 142.521 92.9779 142.884 93.8084C144.123 96.6366 144.686 100.043 145.486 103.044L150.464 121.507C149.654 122.944 148.559 124.027 147.407 125.187C143.736 121.322 139.89 117.6 136.154 113.794C134.578 112.187 132.774 110.598 131.412 108.82C126.049 114.241 120.572 119.559 115.247 125.015C117.402 127.123 131.16 140.212 131.249 141.204C130.471 142.303 129.151 143.241 128.119 144.104C123.459 142.431 100.8 137.643 98.7001 135.555C98.2217 135.079 97.9985 134.574 97.886 133.913C97.4075 131.098 97.6762 127.915 97.6768 125.064C97.7195 119.154 97.7195 113.242 97.6768 107.331C97.6581 107.085 97.6185 106.807 97.5486 106.568C96.7659 103.89 91.8962 101.6 90.6333 98.5295C89.589 95.9897 89.2434 92.9552 88.1088 90.1812C82.8061 77.2127 73.635 67.9408 60.8372 62.303C58.9548 61.4737 57.0154 60.8816 55.0363 60.3338C53.7553 59.9789 52.3374 59.6811 51.1241 59.1333C48.1088 57.7725 46.5557 53.3044 43.1727 52.8043C38.4994 52.1126 17.4102 53.5934 15.133 52.0462C14.3965 51.5461 13.8099 50.0851 13.5187 49.2797C12.9691 47.7587 12.6237 46.1275 12.2106 44.5645L10.3299 37.5817C8.97837 32.4291 7.47387 27.3227 6.28711 22.127C7.18849 20.9861 8.28038 19.9077 9.34639 18.9188C12.744 22.036 15.8972 25.5003 19.1309 28.7897C21.1471 30.8406 23.6005 32.9269 25.3092 35.2272C26.9517 33.3199 28.9661 31.5978 30.7567 29.814C34.3217 26.2109 37.9151 22.6362 41.5369 19.0899L30.6807 8.44232C28.897 6.68612 26.9012 4.94701 25.3386 2.99366C26.2565 1.73061 27.3924 0.732957 28.79 0.0314126C32.7785 1.02557 55.7502 6.75215 57.4699 8.0113C58.1739 8.52705 58.6693 9.21047 58.868 10.0644C59.3401 12.0892 59.1023 14.5744 59.0965 16.6472L59.0493 29.4489C59.0399 32.2354 58.861 35.1515 59.2847 37.9098C60.5307 39.4757 62.1444 40.8907 63.5576 42.3103L73.3267 52.1044C75.0272 53.7991 76.9341 55.4373 78.4592 57.2882C80.0076 55.4303 81.8148 53.7875 83.5177 52.0735C86.4879 49.0555 89.4791 46.0585 92.4912 43.0825C93.8683 41.7135 96.3253 39.7024 97.2321 38.1166C98.1249 36.5577 97.6966 32.5265 97.6873 30.687L97.6599 18.1518C97.6558 15.7589 97.5177 13.2755 97.7415 10.8966C97.7986 10.2847 97.8912 9.62454 98.2065 9.08553C98.5876 8.43329 99.2695 7.90546 99.9525 7.60458C102.792 6.35447 106.209 5.72868 109.216 4.91938L127.893 0Z" fill="black" fill-opacity="0.8"/>
</svg>
