<svg width="496" height="496" viewBox="0 0 496 496" fill="none" xmlns="http://www.w3.org/2000/svg">
<path d="M18.8639 301.676C20.5464 301.593 22.0173 301.78 23.6583 302.135C29.2442 303.344 34.8334 305.332 40.3218 306.943C45.5313 308.472 51.0532 309.723 56.0946 311.719C59.0319 312.882 60.8568 314.163 62.101 317.2C63.0508 319.518 63.1058 321.944 62.0859 324.25C60.2684 328.359 55.4608 330.436 51.5502 332.046C53.4913 335.587 55.0013 339.447 56.8045 343.072C60.1733 349.818 63.8905 356.366 67.956 362.717C68.8234 364.073 69.7059 365.419 70.6037 366.756C71.5015 368.092 72.4142 369.418 73.3419 370.734C74.2697 372.05 75.2121 373.355 76.1693 374.65C77.1265 375.944 78.0982 377.227 79.0844 378.5C80.0706 379.772 81.0711 381.034 82.0857 382.284C83.1004 383.534 84.129 384.772 85.1716 385.999C86.2143 387.225 87.2707 388.44 88.3407 389.643C89.4109 390.846 90.4944 392.037 91.5913 393.215C92.6885 394.393 93.7988 395.559 94.9221 396.713C96.0455 397.866 97.1815 399.006 98.3301 400.134C99.4795 401.262 100.641 402.376 101.815 403.478C102.989 404.579 104.176 405.667 105.375 406.742C106.574 407.816 107.784 408.877 109.007 409.925C110.23 410.972 111.464 412.005 112.71 413.025C113.957 414.044 115.214 415.049 116.483 416.04C117.752 417.031 119.031 418.008 120.322 418.97C121.613 419.932 122.915 420.879 124.227 421.812C125.539 422.744 126.862 423.662 128.195 424.565C129.528 425.467 130.871 426.355 132.224 427.228C133.577 428.1 134.94 428.957 136.312 429.799C137.685 430.641 139.066 431.467 140.457 432.277C141.848 433.087 143.249 433.882 144.658 434.661C146.067 435.44 147.484 436.203 148.91 436.95C150.337 437.696 151.771 438.427 153.214 439.142C154.657 439.856 156.107 440.554 157.566 441.236C159.025 441.917 160.491 442.582 161.964 443.231C163.437 443.879 164.918 444.511 166.406 445.127C167.894 445.742 169.389 446.34 170.89 446.922C172.391 447.503 173.899 448.067 175.413 448.615C176.927 449.162 178.447 449.692 179.973 450.205C181.499 450.717 183.031 451.213 184.568 451.692C186.105 452.17 187.648 452.631 189.195 453.075C197.011 455.328 204.932 457.119 212.957 458.449C216.082 458.983 219.22 459.423 222.371 459.769C227.566 460.333 233.333 460.318 238.13 462.582C242.184 464.496 245.289 467.806 246.754 472.068C248.264 476.459 248.007 481.529 245.926 485.685C243.683 490.165 240.076 492.902 235.394 494.471C229.773 495.705 224.028 494.737 218.383 494.056C213.097 493.426 207.837 492.626 202.603 491.658C197.368 490.69 192.171 489.554 187.01 488.251C181.849 486.947 176.735 485.479 171.668 483.847C166.601 482.214 161.592 480.42 156.641 478.466C155.122 477.866 153.609 477.251 152.102 476.622C150.595 475.992 149.094 475.347 147.6 474.688C146.106 474.028 144.618 473.354 143.137 472.666C141.656 471.977 140.182 471.274 138.715 470.556C137.248 469.838 135.789 469.105 134.336 468.359C132.883 467.612 131.438 466.851 130.001 466.076C128.564 465.3 127.134 464.511 125.712 463.708C124.29 462.904 122.876 462.086 121.471 461.255C120.065 460.423 118.668 459.578 117.279 458.719C115.89 457.859 114.509 456.986 113.137 456.1C111.766 455.214 110.403 454.314 109.049 453.401C107.695 452.487 106.35 451.561 105.015 450.621C103.679 449.681 102.353 448.727 101.036 447.761C99.7195 446.795 98.4125 445.816 97.1151 444.824C95.8171 443.832 94.5295 442.827 93.2521 441.81C91.9746 440.792 90.7072 439.762 89.45 438.72C88.1928 437.677 86.946 436.622 85.7096 435.555C84.4733 434.487 83.2476 433.408 82.0325 432.317C80.8175 431.225 79.6134 430.122 78.4202 429.007C77.227 427.891 76.045 426.764 74.874 425.626C73.7031 424.487 72.5435 423.337 71.3953 422.176C70.2471 421.014 69.1105 419.842 67.9855 418.658C66.8605 417.474 65.7473 416.279 64.6459 415.073C63.5446 413.867 62.4552 412.65 61.3778 411.423C60.3006 410.195 59.2355 408.956 58.1826 407.708C57.1298 406.459 56.0893 405.2 55.0613 403.932C54.0334 402.662 53.0181 401.383 52.0154 400.094C51.0128 398.804 50.0229 397.505 49.0459 396.197C48.0689 394.888 47.105 393.57 46.154 392.242C45.2031 390.914 44.2654 389.577 43.3408 388.231C42.4164 386.884 41.5053 385.528 40.6075 384.164C39.7098 382.8 38.8257 381.427 37.9551 380.045C31.6539 369.995 25.8615 359.385 21.2352 348.456C18.0518 350.074 14.777 352.316 11.277 353.139C8.90174 353.698 6.34344 353.108 4.31314 351.8C2.28874 350.495 0.744441 348.363 0.250141 345.995C-0.0667589 344.477 0.156801 343.018 0.490301 341.528C1.78164 335.757 4.11074 329.938 5.93624 324.292C7.58824 319.183 8.93024 313.87 10.8287 308.852C11.2448 307.753 11.7264 306.684 12.3998 305.714C14.1243 303.231 15.9598 302.223 18.8639 301.676Z" fill="#1A9767"/>
<path d="M262.558 0.181212C267.521 -0.514468 276.364 0.967702 281.433 1.67719C285.617 2.25439 289.782 2.93786 293.93 3.72759C298.078 4.51733 302.204 5.41229 306.306 6.41249C310.409 7.41269 314.483 8.51682 318.529 9.72489C322.576 10.933 326.589 12.2434 330.568 13.6561C334.548 15.0689 338.488 16.5822 342.39 18.196C346.292 19.8098 350.151 21.522 353.965 23.3327C357.781 25.1434 361.547 27.0501 365.264 29.0529C368.982 31.0557 372.646 33.152 376.256 35.3417C378.544 36.7322 380.808 38.1594 383.048 39.6232C385.289 41.087 387.506 42.5867 389.698 44.1222C391.89 45.6577 394.057 47.2284 396.198 48.8341C398.34 50.4398 400.455 52.0797 402.543 53.7538C404.631 55.428 406.692 57.1355 408.725 58.8764C410.759 60.6173 412.763 62.3906 414.738 64.1964C416.714 66.0021 418.66 67.8394 420.576 69.7081C422.492 71.5769 424.378 73.4762 426.232 75.4059C428.087 77.3357 429.91 79.295 431.701 81.2838C433.493 83.2727 435.251 85.29 436.977 87.3357C438.703 89.3814 440.396 91.4545 442.055 93.5549C443.714 95.6556 445.338 97.7826 446.928 99.9359C448.518 102.089 450.073 104.267 451.592 106.47C453.112 108.674 454.595 110.902 456.043 113.153C457.491 115.404 458.901 117.679 460.274 119.976C461.648 122.273 462.985 124.591 464.283 126.932C466.878 131.621 472.835 142.234 474.028 147.033C477.146 145.033 480.986 142.468 484.719 141.927C487.083 141.584 489.575 142.33 491.46 143.772C491.719 143.971 491.967 144.182 492.204 144.406C492.442 144.63 492.667 144.866 492.879 145.113C493.092 145.36 493.292 145.617 493.478 145.885C493.664 146.153 493.836 146.43 493.994 146.715C494.152 147 494.295 147.293 494.423 147.593C494.551 147.893 494.663 148.199 494.759 148.511C494.855 148.822 494.935 149.138 494.999 149.458C495.063 149.778 495.111 150.1 495.141 150.425C495.276 151.826 494.942 153.272 494.602 154.626C493.162 160.361 490.992 166.076 489.18 171.715C487.601 176.63 486.309 181.765 484.385 186.547C483.832 187.922 483.119 189.424 482.159 190.56C480.223 192.85 477.477 193.452 474.631 193.634C469.01 192.844 463.327 190.724 457.898 189.103C452.216 187.408 446.43 185.915 440.799 184.064C437.677 183.037 434.908 181.77 433.398 178.633C432.342 176.439 432.19 173.722 433.015 171.429C434.687 166.781 439.744 164.966 443.857 163.068C441.312 158.979 439.498 154.102 437.298 149.79C433.364 142.165 428.994 134.8 424.188 127.693C423.25 126.308 422.295 124.935 421.324 123.572C420.353 122.209 419.366 120.858 418.364 119.519C417.362 118.18 416.343 116.852 415.309 115.537C414.276 114.222 413.227 112.918 412.163 111.627C411.099 110.336 410.019 109.058 408.925 107.792C407.831 106.527 406.723 105.274 405.599 104.035C404.475 102.795 403.337 101.569 402.185 100.356C401.033 99.1426 399.866 97.9432 398.686 96.7579C397.506 95.5719 396.311 94.4002 395.103 93.2429C393.896 92.0854 392.675 90.9421 391.44 89.8131C390.206 88.6842 388.958 87.5698 387.696 86.4701C386.436 85.3704 385.162 84.2856 383.876 83.2157C382.59 82.1458 381.292 81.0912 379.98 80.0518C378.67 79.0124 377.347 77.9885 376.011 76.9801C374.677 75.9716 373.33 74.979 371.971 74.0022C370.613 73.0253 369.244 72.0646 367.863 71.1199C366.483 70.1752 365.091 69.2467 363.688 68.3346C362.286 67.4225 360.873 66.527 359.449 65.648C358.026 64.7691 356.592 63.9069 355.148 63.0615C353.705 62.2162 352.252 61.3878 350.788 60.5765C349.325 59.7652 347.852 58.9712 346.37 58.1945C344.889 57.4177 343.398 56.6584 341.898 55.9166C340.399 55.1747 338.891 54.4506 337.374 53.7441C335.858 53.0376 334.334 52.349 332.8 51.6783C331.268 51.0076 329.727 50.355 328.179 49.7203C326.632 49.0857 325.077 48.4693 323.514 47.8712C321.952 47.2731 320.382 46.6933 318.806 46.1319C317.23 45.5706 315.648 45.0278 314.059 44.5035C312.471 43.9792 310.876 43.4737 309.275 42.9868C307.675 42.4999 306.069 42.0319 304.457 41.5826C302.845 41.1334 301.229 40.7031 299.607 40.2918C297.985 39.8805 296.359 39.4882 294.728 39.115C287.403 37.4043 279.894 36.2318 272.434 35.3069C268.461 34.8145 264.228 34.8152 260.347 33.833C259.332 33.5683 258.348 33.2159 257.396 32.7758C256.444 32.3356 255.539 31.8146 254.679 31.2128C254.233 30.9038 253.803 30.5734 253.389 30.2215C252.975 29.8696 252.58 29.4981 252.203 29.1068C251.827 28.7155 251.471 28.3065 251.135 27.8798C250.799 27.4531 250.486 27.0107 250.194 26.5526C249.902 26.0946 249.634 25.6232 249.389 25.1384C249.145 24.6537 248.925 24.1579 248.729 23.6512C248.534 23.1445 248.364 22.6294 248.22 22.1058C248.076 21.5822 247.959 21.0527 247.867 20.5174C247.766 19.9269 247.694 19.3328 247.651 18.7352C247.608 18.1376 247.594 17.5393 247.61 16.9404C247.626 16.3415 247.671 15.7448 247.745 15.1503C247.82 14.5558 247.923 13.9663 248.055 13.3819C248.187 12.7975 248.348 12.221 248.536 11.6524C248.725 11.0837 248.941 10.5257 249.184 9.97819C249.428 9.43072 249.697 8.89649 249.993 8.37549C250.289 7.85449 250.61 7.34922 250.955 6.85969C253.809 2.89759 257.852 0.986392 262.558 0.181212Z" fill="#1A9767"/>
<path d="M476.061 247.687C478.903 247.466 481.73 247.774 484.402 248.796C484.924 248.998 485.434 249.225 485.933 249.478C486.433 249.73 486.918 250.006 487.39 250.306C487.862 250.607 488.318 250.929 488.758 251.274C489.199 251.619 489.622 251.984 490.026 252.371C490.43 252.757 490.815 253.162 491.179 253.586C491.544 254.011 491.887 254.452 492.208 254.909C492.53 255.367 492.828 255.84 493.103 256.327C493.378 256.814 493.628 257.313 493.854 257.825C496.482 263.828 494.908 271.509 494.104 277.777C493.46 283.098 492.642 288.391 491.648 293.657C490.655 298.924 489.489 304.152 488.151 309.341C486.814 314.53 485.307 319.67 483.629 324.761C481.953 329.851 480.11 334.88 478.102 339.849C454.598 398.801 407.066 448.817 348.636 474.005C350.287 478.63 354.652 482.827 353.109 488.165C352.398 490.624 350.729 492.906 348.414 494.058C346.864 494.829 345.153 495.111 343.432 494.979C339.017 494.639 327.127 490.203 322.313 488.577C318.123 487.519 313.793 486.143 309.719 484.696C306.794 483.658 303.752 482.038 302.417 479.077C301.706 477.499 301.5 475.668 301.701 473.958C302.349 468.449 304.691 462.618 306.261 457.276C307.986 451.405 309.432 445.162 311.632 439.462C312.699 436.697 313.865 434.527 316.737 433.327C319.282 432.263 322.001 432.295 324.525 433.387C328.643 435.168 330.589 440.025 332.167 443.909C336.901 441.035 342.283 438.867 347.208 436.292C355.29 431.997 363.089 427.241 370.607 422.023C371.982 421.054 373.345 420.07 374.696 419.07C376.048 418.069 377.387 417.053 378.714 416.021C380.042 414.988 381.357 413.941 382.659 412.878C383.962 411.815 385.252 410.736 386.528 409.643C387.806 408.55 389.07 407.441 390.321 406.318C391.573 405.195 392.81 404.057 394.034 402.904C395.259 401.752 396.47 400.585 397.666 399.404C398.863 398.223 400.046 397.029 401.214 395.82C402.383 394.611 403.537 393.388 404.677 392.152C405.817 390.916 406.942 389.667 408.052 388.405C409.163 387.142 410.258 385.867 411.338 384.578C412.419 383.29 413.484 381.989 414.534 380.676C415.584 379.362 416.618 378.036 417.636 376.699C418.655 375.361 419.658 374.011 420.644 372.65C421.631 371.289 422.601 369.916 423.555 368.531C424.51 367.147 425.448 365.752 426.369 364.345C427.291 362.939 428.195 361.522 429.083 360.094C429.971 358.666 430.842 357.228 431.696 355.78C432.551 354.332 433.388 352.874 434.207 351.406C435.027 349.938 435.83 348.46 436.614 346.973C437.4 345.486 438.167 343.991 438.917 342.486C439.667 340.981 440.398 339.467 441.112 337.945C441.826 336.423 442.522 334.893 443.2 333.354C443.879 331.815 444.539 330.269 445.18 328.715C445.822 327.16 446.445 325.599 447.049 324.03C447.655 322.461 448.241 320.886 448.808 319.303C449.376 317.72 449.925 316.131 450.455 314.535C450.985 312.94 451.497 311.338 451.989 309.731C452.482 308.123 452.955 306.51 453.409 304.891C453.864 303.272 454.299 301.648 454.715 300.019C455.131 298.39 455.528 296.757 455.906 295.118C456.284 293.479 456.643 291.837 456.981 290.19C458.04 284.976 458.964 279.684 459.58 274.397C460.116 269.788 460.222 264.844 461.405 260.36C462.026 258.01 463.044 255.786 464.532 253.856C467.432 250.094 471.445 248.289 476.061 247.687Z" fill="#1A9767"/>
<path d="M149.497 0.140222C150.832 0.0354419 152.108 0.121852 153.413 0.415222C159.56 1.79685 165.635 4.21825 171.643 6.13405C177.083 7.86835 184.157 9.40785 189.1 12.052C190.246 12.665 191.748 14.0539 192.395 15.1857C193.351 16.8577 193.777 19.0842 193.649 20.98C193.291 26.2907 190.282 33.7942 188.702 38.9992C187.217 43.8938 185.947 48.8592 184.464 53.7578C183.501 56.9357 182.053 60.1329 178.935 61.7067C176.656 62.8573 173.589 62.9583 171.203 62.0824C166.888 60.4986 165.044 55.4734 163.228 51.6462C142.395 60.0041 122.47 73.5122 105.662 88.2537C64.9468 123.964 38.1588 177.533 34.5983 231.665C34.366 233.116 34.1132 234.624 33.6347 236.018C33.4558 236.555 33.2504 237.083 33.0185 237.6C32.7867 238.117 32.5295 238.621 32.2471 239.112C31.9647 239.603 31.6584 240.078 31.3282 240.539C30.9981 240.999 30.6457 241.442 30.2711 241.867C29.8965 242.292 29.5016 242.697 29.0864 243.082C28.6712 243.467 28.2377 243.831 27.7859 244.173C27.3342 244.515 26.8665 244.833 26.3828 245.128C25.8992 245.423 25.4019 245.693 24.8911 245.938C20.5681 248.019 15.4739 248.108 10.9924 246.462C10.4823 246.275 9.98274 246.062 9.49374 245.825C9.00468 245.588 8.52861 245.327 8.06555 245.042C7.60241 244.758 7.15454 244.451 6.72194 244.122C6.28928 243.793 5.87398 243.444 5.47605 243.073C5.07818 242.703 4.69961 242.314 4.34034 241.906C3.98108 241.498 3.64291 241.073 3.32584 240.632C3.00878 240.191 2.71434 239.735 2.44254 239.264C2.17081 238.793 1.92304 238.31 1.69924 237.815C-1.35842 231.156 0.460484 223.073 1.39083 216.112C2.00144 211.376 2.74774 206.661 3.62975 201.968C4.51175 197.275 5.52801 192.611 6.67854 187.976C7.82901 183.341 9.11184 178.744 10.527 174.183C11.9422 169.622 13.4874 165.106 15.1625 160.634C15.7261 159.131 16.3042 157.633 16.8968 156.141C17.4895 154.648 18.0966 153.162 18.718 151.682C19.3396 150.201 19.9754 148.727 20.6254 147.259C21.2755 145.791 21.9397 144.329 22.6181 142.874C23.2966 141.419 23.9891 139.971 24.6956 138.529C25.4022 137.087 26.1226 135.652 26.8569 134.225C27.5913 132.797 28.3395 131.376 29.1013 129.963C29.8633 128.55 30.6388 127.145 31.428 125.746C32.2172 124.348 33.0199 122.958 33.836 121.575C34.6522 120.192 35.4817 118.818 36.3245 117.451C37.1674 116.084 38.0234 114.726 38.8925 113.377C39.7617 112.027 40.6439 110.685 41.5391 109.352C42.4343 108.019 43.3424 106.695 44.2632 105.38C45.1842 104.065 46.1177 102.759 47.0639 101.462C48.0101 100.165 48.9688 98.8768 49.94 97.5988C50.9112 96.3202 51.8948 95.0512 52.8906 93.7918C53.8864 92.5325 54.8944 91.2828 55.9144 90.0428C56.9345 88.803 57.9665 87.5731 59.0104 86.3533C60.0544 85.1335 61.11 83.9239 62.1774 82.7245C63.2448 81.5252 64.3237 80.3363 65.4141 79.1579C66.5046 77.9795 67.6064 76.8117 68.7195 75.6546C69.8326 74.4976 70.9568 73.3515 72.0921 72.2162C73.2275 71.081 74.3738 69.9568 75.5309 68.8438C76.6881 67.7308 77.8559 66.6292 79.0344 65.5388C80.213 64.4485 81.4019 63.3697 82.6013 62.3025C83.8008 61.2351 85.0105 60.1796 86.2304 59.1358C87.4504 58.092 88.6803 57.0601 89.9202 56.0401C91.1601 55.0201 92.4097 54.0123 93.669 53.0167C94.929 52.0209 96.198 51.0375 97.476 50.0665C98.7547 49.0953 100.043 48.1367 101.34 47.1907C102.637 46.2445 103.944 45.3111 105.259 44.3904C106.574 43.4696 107.898 42.5616 109.231 41.6666C121.209 33.7085 133.77 27.0703 146.836 21.1025C145.345 18.5626 143.733 15.9608 142.693 13.1967C141.709 10.5789 141.552 7.84615 142.794 5.27665C144.195 2.37565 146.613 1.15506 149.497 0.140222Z" fill="#1A9767"/>
<path d="M242.856 93.9669C248.24 93.8379 258.705 93.3859 263.466 95.3299C265.046 95.9749 266.275 96.9269 267.237 98.3389C269.199 101.223 270.242 105.022 271.522 108.265C273.717 113.831 275.872 119.433 278.232 124.93C290.319 128.136 302.227 132.631 312.804 139.389C313.005 139.288 313.207 139.191 313.411 139.097C318.553 136.708 335.165 128.991 339.936 128.137C341.232 127.905 342.423 128.114 343.639 128.599C348.878 130.688 364.673 146.349 366.681 151.613C367.149 152.84 367.374 154.078 367.127 155.377C366.43 159.043 364.432 162.754 362.963 166.187C360.66 171.621 358.309 177.034 355.91 182.426C362.672 193.24 367.056 204.975 370.404 217.23C370.433 217.239 370.462 217.247 370.491 217.257C375.123 218.867 379.644 220.839 384.209 222.63C388.137 224.172 392.873 225.512 396.398 227.818C397.881 228.788 399.096 230.006 399.879 231.612C402.089 236.147 401.904 257.983 400.193 262.866C399.634 264.46 398.715 265.836 397.356 266.852C394.796 268.765 391.409 269.796 388.458 270.958C382.611 273.258 376.457 275.289 370.797 277.995L370.497 278.141C369.259 281.87 368.291 285.677 366.982 289.386C364.065 297.649 360.275 305.29 355.981 312.911C359.256 320.386 362.476 327.885 365.643 335.407C366.788 338.202 367.814 341.045 366.514 343.972C364.193 349.201 348.732 364.783 343.272 366.747C342.375 367.07 341.384 367.301 340.428 367.17C335.958 366.556 318.104 358.284 313.047 355.919C308.946 358.059 305.016 360.392 300.808 362.346C293.46 365.757 285.987 368.041 278.256 370.366C275.496 376.409 269.696 394.552 266.033 398.323C262.856 401.594 255.825 401.063 251.578 401.215C246.703 401.404 237.262 401.654 232.776 400.244C231.181 399.742 229.695 398.892 228.638 397.578C226.9 395.416 226.073 392.57 225.052 390.03C223.634 386.541 222.24 383.042 220.869 379.534C219.715 376.55 218.639 373.403 217.101 370.591C217.059 370.514 217.015 370.438 216.972 370.361C204.416 366.621 193.863 362.532 182.497 355.907C179.392 357.527 175.959 358.781 172.733 360.164C168.298 362.065 163.876 364.106 159.377 365.846C156.561 366.935 153.972 367.774 151.079 366.41C145.871 363.954 130.315 348.464 128.44 343.067C128.067 341.993 127.962 341.084 128.179 339.971C128.96 335.977 131.118 332.018 132.716 328.28C134.931 323.098 137.045 317.846 139.499 312.772C134.712 305.498 130.984 297.089 128.187 288.859C126.972 285.284 126.184 281.5 124.698 278.03C119.026 275.267 112.812 273.161 106.916 270.893C104.382 269.918 101.507 269.079 99.197 267.653C97.69 266.722 96.4961 265.544 95.6771 263.962C93.2171 259.215 93.347 237.908 95.047 232.642C95.548 231.09 96.3741 229.642 97.6751 228.628C100.387 226.514 104.041 225.408 107.215 224.168C113.028 221.896 119.183 219.867 124.76 217.071C126.135 213.081 127.22 209.002 128.633 205.024C130.045 201.056 131.656 197.17 133.465 193.366C135.274 189.563 137.272 185.861 139.459 182.261C137.217 177.844 135.386 173.14 133.427 168.586C131.795 164.793 129.872 160.926 128.631 156.993C127.836 154.471 127.945 152.732 129.228 150.359C131.985 145.257 147.076 129.827 152.453 128.282C154.007 127.835 155.41 128.123 156.931 128.538C160.935 129.632 164.946 131.738 168.769 133.379C173.285 135.317 178.094 137.071 182.396 139.413C190.044 134.451 198.641 130.677 207.27 127.788C210.412 126.735 213.668 125.994 216.778 124.864L217.04 124.767C219.821 119.214 221.845 113.01 224.129 107.23C225.399 104.015 226.524 100.089 228.851 97.4519C232.217 93.6379 238.215 94.1979 242.856 93.9669Z" fill="#0168A2"/>
<path d="M289.415 196.401C291.794 196.286 293.932 196.927 295.775 198.466C297.58 199.973 298.768 202.175 298.878 204.538C298.985 206.854 298.127 208.369 296.888 210.22C293.296 215.588 288.709 220.632 284.67 225.68L260.756 255.564L239.204 282.514C235.662 286.944 232.213 291.939 228.268 296.004C226.646 297.676 224.403 298.864 222.032 298.834C216.806 298.768 209.978 290.318 206.265 286.562C202.856 283.19 196.585 278.468 196.497 273.37C196.459 271.151 197.411 268.995 198.958 267.424C200.628 265.728 202.931 264.727 205.323 264.797C205.656 264.805 205.987 264.834 206.315 264.884C206.645 264.934 206.969 265.005 207.289 265.096C207.609 265.187 207.922 265.298 208.227 265.429C208.533 265.56 208.83 265.709 209.117 265.877C212.884 268.047 218.155 274.224 221.305 277.511L263.627 224.602L276.789 208.097C279.228 205.037 281.595 201.651 284.368 198.898C285.847 197.428 287.437 196.865 289.415 196.401Z" fill="#FEFEFE"/>
</svg>
