<svg width="28" height="28" viewBox="0 0 28 28" fill="none" xmlns="http://www.w3.org/2000/svg">
<circle cx="14" cy="9.33301" r="2.625" stroke="#000000" stroke-width="1.75" stroke-linecap="round"/>
<path d="M16.3145 7.72884C16.5164 7.37914 16.8175 7.09716 17.1797 6.91856C17.5418 6.73996 17.9488 6.67277 18.3492 6.72547C18.7495 6.77818 19.1253 6.94842 19.4288 7.21467C19.7324 7.48091 19.9503 7.83121 20.0548 8.22125C20.1593 8.6113 20.1458 9.02357 20.016 9.40595C19.8862 9.78832 19.6459 10.1236 19.3256 10.3694C19.0052 10.6153 18.6192 10.7606 18.2162 10.787C17.8133 10.8134 17.4116 10.7197 17.0618 10.5178" stroke="#000000" stroke-width="1.75"/>
<path d="M11.6835 7.72884C11.4816 7.37914 11.1805 7.09716 10.8184 6.91856C10.4562 6.73996 10.0492 6.67277 9.64887 6.72547C9.24852 6.77818 8.8728 6.94842 8.5692 7.21467C8.2656 7.48091 8.04778 7.83121 7.94327 8.22125C7.83875 8.6113 7.85225 9.02357 7.98205 9.40595C8.11185 9.78832 8.35212 10.1236 8.67248 10.3694C8.99284 10.6153 9.37889 10.7606 9.78183 10.787C10.1848 10.8134 10.5865 10.7197 10.9362 10.5178" stroke="#000000" stroke-width="1.75"/>
<path d="M13.9987 14.583C18.8948 14.583 20.055 18.6585 20.33 20.59C20.4078 21.1368 19.9676 21.583 19.4154 21.583H8.58203C8.02975 21.583 7.58959 21.1368 7.66742 20.59C7.94236 18.6585 9.1026 14.583 13.9987 14.583Z" stroke="#000000" stroke-width="1.75" stroke-linecap="round"/>
<path d="M22.5551 18.1634L21.703 18.3622L21.703 18.3622L22.5551 18.1634ZM15.2676 14.6829L14.6214 14.0929L13.5357 15.2821L15.1241 15.5461L15.2676 14.6829ZM20.0442 19.2493L19.2036 19.4925L19.3864 20.1243H20.0442V19.2493ZM18.0826 14.291C19.2033 14.291 19.9843 14.8504 20.569 15.6665C21.1712 16.507 21.5171 17.5654 21.703 18.3622L23.4072 17.9647C23.1995 17.074 22.7879 15.7587 21.9916 14.6473C21.1779 13.5116 19.9194 12.541 18.0826 12.541V14.291ZM15.9138 15.2729C16.4522 14.6831 17.1407 14.291 18.0826 14.291V12.541C16.5669 12.541 15.4317 13.2055 14.6214 14.0929L15.9138 15.2729ZM15.1241 15.5461C17.6478 15.9655 18.7255 17.84 19.2036 19.4925L20.8847 19.0062C20.3207 17.0569 18.8962 14.3989 15.411 13.8197L15.1241 15.5461ZM21.6443 18.3743H20.0442V20.1243H21.6443V18.3743ZM21.703 18.3622C21.7041 18.3669 21.7038 18.3682 21.7038 18.3667C21.7039 18.3652 21.7041 18.3627 21.7048 18.3598C21.7064 18.3538 21.7084 18.352 21.7069 18.3538C21.7034 18.3578 21.6856 18.3743 21.6443 18.3743V20.1243C22.7298 20.1243 23.685 19.1555 23.4072 17.9647L21.703 18.3622Z" fill="#000000"/>
<path d="M12.7312 14.6829L12.8746 15.5461L14.4631 15.2821L13.3774 14.0929L12.7312 14.6829ZM5.44368 18.1634L6.29581 18.3622H6.29581L5.44368 18.1634ZM7.95462 19.2493V20.1243H8.61236L8.79515 19.4925L7.95462 19.2493ZM9.91615 14.291C10.8581 14.291 11.5466 14.6831 12.085 15.2729L13.3774 14.0929C12.5671 13.2055 11.4319 12.541 9.91615 12.541V14.291ZM6.29581 18.3622C6.48166 17.5654 6.82759 16.507 7.42975 15.6665C8.01451 14.8504 8.79546 14.291 9.91615 14.291V12.541C8.07943 12.541 6.82094 13.5116 6.00721 14.6473C5.21089 15.7587 4.7993 17.074 4.59155 17.9647L6.29581 18.3622ZM6.35447 18.3743C6.31315 18.3743 6.29532 18.3578 6.29187 18.3538C6.29031 18.352 6.29239 18.3538 6.29394 18.3598C6.29467 18.3627 6.29491 18.3652 6.29492 18.3667C6.29494 18.3683 6.29469 18.3669 6.29581 18.3622L4.59155 17.9647C4.3138 19.1555 5.26891 20.1243 6.35447 20.1243V18.3743ZM7.95462 18.3743H6.35447V20.1243H7.95462V18.3743ZM8.79515 19.4925C9.27324 17.84 10.351 15.9655 12.8746 15.5461L12.5878 13.8197C9.10262 14.3989 7.67805 17.0569 7.11409 19.0062L8.79515 19.4925Z" fill="#000000"/>
</svg>
