<svg width="24" height="24" viewBox="0 0 24 24" fill="none" xmlns="http://www.w3.org/2000/svg">
<g clip-path="url(#clip0_663_21614)">
<path d="M13.1275 21.0859C13.5649 20.4809 14.213 19.9535 15.0274 19.578C15.8415 19.2026 16.7775 19 17.7391 19C18.7008 19 19.6368 19.2026 20.4509 19.578C21.2653 19.9535 21.9134 20.4809 22.3508 21.0859" stroke="#018191" stroke-width="2" stroke-linecap="round"/>
<ellipse cx="17.7391" cy="13" rx="3.13043" ry="3" stroke="#018191" stroke-width="2" stroke-linecap="round"/>
<path d="M6.26074 6L10.4347 6" stroke="#018191" stroke-width="2" stroke-linecap="round"/>
<path d="M6.26074 14L9.39118 14" stroke="#018191" stroke-width="2" stroke-linecap="round"/>
<path d="M6.26074 10L12.5216 10" stroke="#018191" stroke-width="2" stroke-linecap="round"/>
<path d="M16.6956 6.5V6.5C16.6956 5.10218 16.6956 4.40326 16.4672 3.85195C16.1628 3.11687 15.5787 2.53284 14.8437 2.22836C14.2923 2 13.5934 2 12.1956 2H8.08691C5.25849 2 3.84427 2 2.96559 2.87868C2.08691 3.75736 2.08691 5.17157 2.08691 8V14C2.08691 16.8284 2.08691 18.2426 2.96559 19.1213C3.84427 20 5.25849 20 8.08691 20H9.39126" stroke="#018191" stroke-width="2"/>
</g>
<defs>
<clipPath id="clip0_663_21614">
<rect width="24" height="24" fill="white"/>
</clipPath>
</defs>
</svg>
