<svg width="21" height="21" viewBox="0 0 21 21" fill="none" xmlns="http://www.w3.org/2000/svg">
<path d="M16.625 12.25V6.5625L12.25 3.5L7.875 6.5625V7.875H6.125V5.6875L12.25 1.3125L18.375 5.6875V12.25H16.625ZM12.6875 7H13.5625V6.125H12.6875V7ZM10.9375 7H11.8125V6.125H10.9375V7ZM12.6875 8.75H13.5625V7.875H12.6875V8.75ZM10.9375 8.75H11.8125V7.875H10.9375V8.75ZM12.25 19.6875L6.125 17.9812V19.25H0.875V9.625H7.83125L13.2562 11.6375C13.7375 11.8125 14.1275 12.1188 14.4261 12.5563C14.7248 12.9938 14.8744 13.475 14.875 14H16.625C17.3542 14 17.974 14.2406 18.4844 14.7219C18.9948 15.2031 19.25 15.8375 19.25 16.625V17.5L12.25 19.6875ZM2.625 17.5H4.375V11.375H2.625V17.5ZM12.2063 17.85L17.4125 16.2312C17.3687 16.0708 17.2705 15.9504 17.1176 15.8699C16.9648 15.7894 16.8006 15.7494 16.625 15.75H12.425C11.9729 15.75 11.5646 15.7208 11.2 15.6625C10.8354 15.6042 10.4417 15.5021 10.0188 15.3562L8.50938 14.8313L9.0125 13.1687L10.7625 13.7375C11.025 13.825 11.3313 13.8906 11.6813 13.9344C12.0312 13.9781 12.5125 14 13.125 14C13.125 13.8396 13.0778 13.6865 12.9833 13.5406C12.8888 13.3948 12.7756 13.3 12.6438 13.2562L7.525 11.375H6.125V16.1875L12.2063 17.85Z" fill="#000000"/>
</svg>
