<svg width="20" height="21" viewBox="0 0 20 21" fill="none" xmlns="http://www.w3.org/2000/svg">
<path d="M2.32249 18.9137V2.32249H10.6599H10.7105V4.33092C10.7105 4.82992 11.1164 5.23592 11.6154 5.23592H13.6083V10.5559C13.7552 10.5268 13.9063 10.5108 14.0609 10.5108C14.3667 10.5108 14.6597 10.5706 14.9308 10.6794V4.84759C14.9308 4.76788 14.8992 4.69142 14.8428 4.63503L11.2959 1.08801C11.2394 1.03168 11.163 1 11.0833 1H1.90488C1.40594 1 1 1.40594 1 1.90494V19.3313C1 19.8303 1.40594 20.2362 1.90488 20.2362H8.63056C8.55506 19.8327 8.72097 19.4048 9.08496 19.1644C9.22568 19.0715 9.36701 18.9889 9.50779 18.9137H2.32249V18.9137Z" fill="#931602" stroke="#931602" stroke-width="0.2"/>
<path d="M18.7982 19.6659C18.0615 19.1795 17.2919 18.9793 16.7784 18.8968C17.1403 18.3146 17.3533 17.6075 17.3533 16.8452C17.3533 16.297 17.2437 15.7698 17.0423 15.2954C17.5365 15.191 18.1789 14.9843 18.7982 14.5753C19.006 14.438 19.0631 14.1584 18.926 13.9506C18.7887 13.7428 18.509 13.6857 18.3013 13.8228C17.6555 14.2493 16.965 14.4073 16.5519 14.4659C16.3439 14.2022 16.101 13.9701 15.8259 13.781C15.8775 13.5958 15.9037 13.4044 15.9037 13.2094C15.9037 12.1357 15.1185 11.2621 14.1534 11.2621C13.1882 11.2621 12.4032 12.1356 12.4032 13.2094C12.4032 13.4044 12.4293 13.5958 12.4809 13.781C12.2058 13.9701 11.9629 14.2022 11.755 14.4659C11.3418 14.4073 10.6514 14.2493 10.0056 13.8228C9.79781 13.6857 9.51816 13.7428 9.38086 13.9506C9.24368 14.1583 9.30085 14.438 9.50866 14.5753C10.1279 14.9842 10.7703 15.1909 11.2644 15.2954C11.063 15.7698 10.9534 16.2969 10.9534 16.8451C10.9534 17.6074 11.1664 18.3145 11.5282 18.8967C11.0148 18.9792 10.2452 19.1794 9.5086 19.6658C9.30085 19.8031 9.24362 20.0827 9.3808 20.2905C9.46749 20.4218 9.61103 20.493 9.75747 20.493C9.84277 20.493 9.92903 20.4688 10.0055 20.4183C11.0046 19.7586 12.1116 19.7409 12.1312 19.7407C12.1696 19.7406 12.2067 19.7351 12.2422 19.726C12.7759 20.1737 13.4375 20.439 14.1533 20.439C14.8691 20.439 15.5307 20.1736 16.0643 19.726C16.1003 19.7352 16.1377 19.7407 16.1765 19.7407C16.1875 19.7407 17.2885 19.7496 18.3012 20.4183C18.3777 20.4688 18.4639 20.493 18.5492 20.493C18.6956 20.493 18.8392 20.4218 18.9259 20.2905C19.0631 20.0828 19.0059 19.8031 18.7982 19.6659ZM14.6042 18.7937C14.6042 19.0427 14.4024 19.2446 14.1534 19.2446C13.9044 19.2446 13.7025 19.0427 13.7025 18.7937V14.8966C13.7025 14.6476 13.9044 14.4457 14.1534 14.4457C14.4024 14.4457 14.6042 14.6476 14.6042 14.8966V18.7937Z" fill="#931602" stroke="#931602" stroke-width="0.2"/>
<path d="M8.88688 3.98322H4.19807C3.93249 3.98322 3.71716 4.19854 3.71716 4.46412C3.71716 4.7297 3.93249 4.94502 4.19807 4.94502H8.88688C9.15246 4.94502 9.36778 4.7297 9.36778 4.46412C9.36778 4.19854 9.15246 3.98322 8.88688 3.98322Z" fill="#931602" stroke="#931602" stroke-width="0.2"/>
<path d="M8.88688 6.98883H4.19807C3.93249 6.98883 3.71716 7.20416 3.71716 7.46973C3.71716 7.73537 3.93249 7.95064 4.19807 7.95064H8.88688C9.15246 7.95064 9.36778 7.73537 9.36778 7.46973C9.36778 7.20416 9.15246 6.98883 8.88688 6.98883Z" fill="#931602" stroke="#931602" stroke-width="0.2"/>
<path d="M8.88688 9.99445H4.19807C3.93249 9.99445 3.71716 10.2098 3.71716 10.4753C3.71716 10.741 3.93249 10.9563 4.19807 10.9563H8.88688C9.15246 10.9563 9.36778 10.741 9.36778 10.4753C9.36778 10.2098 9.15246 9.99445 8.88688 9.99445Z" fill="#931602" stroke="#931602" stroke-width="0.2"/>
</svg>
