<svg width="24" height="24" viewBox="0 0 24 24" fill="none" xmlns="http://www.w3.org/2000/svg">
<path d="M15.7771 17.2018C15.9104 17.0685 15.7771 17.2018 15.3772 16.002C14.8713 14.4845 13.7775 13.6025 10.9781 13.6025C9.25956 13.6025 8.37309 13.995 7.81271 14.4186C7.5165 14.6425 7.37891 15.0109 7.37891 15.3822V19.7919C7.37891 20.3945 7.76226 20.934 8.34201 21.0983C10.1095 21.5995 12.8609 22.131 15.7771 21.6008C19.2963 20.961 20.4618 19.2013 20.976 18.0016C22.1757 15.2022 20.5761 14.1624 19.7762 14.8023C17.7767 16.4019 17.7767 17.2018 15.7771 17.2018ZM15.7771 17.2018H12.1779" stroke="#931602" stroke-width="1.5" stroke-linecap="round"/>
<path d="M2.58008 14.002C2.58008 13.1185 3.29627 12.4023 4.17973 12.4023H5.77939C6.66286 12.4023 7.37905 13.1185 7.37905 14.002V20.4006C7.37905 21.2841 6.66286 22.0003 5.77939 22.0003H4.17974C3.29627 22.0003 2.58008 21.2841 2.58008 20.4006V14.002Z" stroke="#931602" stroke-width="1.5"/>
<g clip-path="url(#clip0_4079_69080)">
<path d="M15.5833 1C14.3247 1 13.2917 2.03321 13.2917 3.2912C13.2917 3.9699 13.5927 4.58285 14.0673 5.00376C12.2756 5.66712 11 7.46959 11 9.55572C11 9.71775 11.0644 9.87314 11.1791 9.98771C11.2937 10.1023 11.4492 10.1667 11.6113 10.1667H14.5519C14.6721 9.72266 14.8645 9.30959 15.1182 8.94481H12.271C12.5413 7.22856 13.9312 5.95329 15.5833 5.95329C15.8123 5.95329 16.036 5.97861 16.2526 6.02537C16.327 5.27888 16.8562 4.65982 17.5565 4.45032C17.7585 4.10957 17.875 3.71312 17.875 3.2912C17.875 2.03321 16.8419 1 15.5833 1ZM15.5833 2.22185C16.1808 2.22185 16.6524 2.69317 16.6524 3.2912C16.6524 3.88923 16.1808 4.36062 15.5833 4.36062C14.9858 4.36062 14.5142 3.88923 14.5142 3.2912C14.5142 2.69317 14.9858 2.22185 15.5833 2.22185Z" fill="#931602"/>
<path d="M18.3327 4.66699C17.3258 4.66699 16.4993 5.49357 16.4993 6.49997C16.4993 7.04293 16.7402 7.53328 17.1199 7.87C15.6865 8.40069 14.666 9.84267 14.666 11.5116C14.666 11.6412 14.7176 11.7655 14.8093 11.8572C14.901 11.9488 15.0254 12.0003 15.155 12.0003H18.3327H21.5103C21.64 12.0003 21.7644 11.9488 21.8561 11.8572C21.9478 11.7655 21.9993 11.6412 21.9993 11.5116C21.9993 9.84268 20.9789 8.4007 19.5455 7.87C19.9252 7.53328 20.166 7.04293 20.166 6.49997C20.166 5.49357 19.3396 4.66699 18.3327 4.66699ZM18.3327 5.64448C18.8107 5.64448 19.1879 6.02154 19.1879 6.49997C19.1879 6.97839 18.8107 7.3555 18.3327 7.3555C17.8547 7.3555 17.4774 6.97839 17.4774 6.49997C17.4774 6.02154 17.8547 5.64448 18.3327 5.64448ZM18.3327 8.62962C19.6544 8.62962 20.7663 9.64983 20.9826 11.0228H18.3327H15.6828C15.8991 9.64983 17.011 8.62962 18.3327 8.62962Z" fill="#931602"/>
</g>
<defs>
<clipPath id="clip0_4079_69080">
<rect width="11" height="11" fill="white" transform="translate(11 1)"/>
</clipPath>
</defs>
</svg>
