<svg width="28" height="28" viewBox="0 0 28 28" fill="none" xmlns="http://www.w3.org/2000/svg">
<circle cx="14" cy="9.33325" r="2.75" stroke="#018191" stroke-width="1.5" stroke-linecap="round"/>
<path d="M16.207 7.66659C16.4213 7.29547 16.7408 6.99623 17.1251 6.80669C17.5095 6.61716 17.9414 6.54585 18.3662 6.60179C18.7911 6.65772 19.1898 6.83839 19.512 7.12093C19.8342 7.40348 20.0653 7.77522 20.1763 8.18914C20.2872 8.60307 20.2728 9.04059 20.1351 9.44637C19.9974 9.85216 19.7424 10.208 19.4024 10.4689C19.0624 10.7297 18.6527 10.8839 18.2251 10.9119C17.7975 10.94 17.3712 10.8406 17.0001 10.6263" stroke="#018191" stroke-width="1.5"/>
<path d="M11.7932 7.66659C11.579 7.29547 11.2595 6.99623 10.8751 6.80669C10.4908 6.61716 10.0589 6.54585 9.63402 6.60179C9.20916 6.65772 8.81043 6.83839 8.48825 7.12093C8.16606 7.40348 7.9349 7.77522 7.82399 8.18914C7.71308 8.60307 7.7274 9.04059 7.86515 9.44637C8.00289 9.85216 8.25787 10.208 8.59785 10.4689C8.93782 10.7297 9.34751 10.8839 9.77512 10.9119C10.2027 10.94 10.629 10.8406 11.0002 10.6263" stroke="#018191" stroke-width="1.5"/>
<path d="M14.0002 14.5833C18.8963 14.5833 20.0565 18.6587 20.3314 20.5903C20.4093 21.1371 19.9691 21.5833 19.4168 21.5833H8.58349C8.03121 21.5833 7.59105 21.1371 7.66888 20.5903C7.94383 18.6587 9.10406 14.5833 14.0002 14.5833Z" stroke="#018191" stroke-width="1.5" stroke-linecap="round"/>
<path d="M22.5561 18.1639L21.8257 18.3343V18.3343L22.5561 18.1639ZM15.2686 14.6834L14.7147 14.1777L13.784 15.197L15.1456 15.4233L15.2686 14.6834ZM20.0451 19.2498L19.3247 19.4583L19.4814 19.9998H20.0451V19.2498ZM18.0836 14.1665C19.2555 14.1665 20.0705 14.7553 20.6716 15.5942C21.2876 16.454 21.6383 17.5308 21.8257 18.3343L23.2865 17.9935C23.0803 17.1096 22.6734 15.8126 21.8909 14.7206C21.0936 13.6077 19.8692 12.6665 18.0836 12.6665V14.1665ZM15.8224 15.1891C16.3803 14.5781 17.1007 14.1665 18.0836 14.1665V12.6665C16.6089 12.6665 15.5056 13.3115 14.7147 14.1777L15.8224 15.1891ZM15.1456 15.4233C17.738 15.8541 18.8405 17.7846 19.3247 19.4583L20.7656 19.0414C20.2078 17.1133 18.808 14.5113 15.3915 13.9435L15.1456 15.4233ZM21.6453 18.4998H20.0451V19.9998H21.6453V18.4998ZM21.8257 18.3343C21.832 18.3614 21.83 18.3792 21.8269 18.3912C21.8235 18.4044 21.8164 18.4197 21.8029 18.4355C21.7756 18.4675 21.7229 18.4998 21.6453 18.4998V19.9998C22.6603 19.9998 23.5437 19.0966 23.2865 17.9935L21.8257 18.3343Z" fill="#018191"/>
<path d="M12.7319 14.6834L12.8549 15.4233L14.2164 15.197L13.2858 14.1777L12.7319 14.6834ZM5.44441 18.1639L6.17481 18.3343L5.44441 18.1639ZM7.95535 19.2498V19.9998H8.51913L8.67581 19.4583L7.95535 19.2498ZM9.91688 14.1665C10.8998 14.1665 11.6202 14.5781 12.1781 15.1891L13.2858 14.1777C12.4949 13.3115 11.3916 12.6665 9.91688 12.6665V14.1665ZM6.17481 18.3343C6.36222 17.5308 6.71285 16.454 7.32888 15.5942C7.92999 14.7553 8.74504 14.1665 9.91688 14.1665V12.6665C8.1313 12.6665 6.90692 13.6077 6.10955 14.7206C5.3271 15.8126 4.9202 17.1096 4.71402 17.9935L6.17481 18.3343ZM6.3552 18.4998C6.27752 18.4998 6.22491 18.4675 6.1976 18.4355C6.18408 18.4197 6.17692 18.4044 6.17355 18.3912C6.17049 18.3792 6.16848 18.3614 6.17481 18.3343L4.71402 17.9935C4.45674 19.0965 5.34021 19.9998 6.3552 19.9998V18.4998ZM7.95535 18.4998H6.3552V19.9998H7.95535V18.4998ZM8.67581 19.4583C9.16003 17.7846 10.2625 15.8541 12.8549 15.4233L12.609 13.9435C9.19252 14.5113 7.79272 17.1133 7.2349 19.0414L8.67581 19.4583Z" fill="#018191"/>
</svg>
