<svg width="36" height="38" viewBox="0 0 36 38" fill="none" xmlns="http://www.w3.org/2000/svg">
<path d="M19.2915 15.9804H21.3333C22.8568 15.9804 24.234 16.6113 25.2222 17.6282M12.4862 15.9804H10.4444C7.43756 15.9804 5 18.4384 5 21.4706V25.5882C5 27.1043 6.21878 28.3333 7.72222 28.3333H17.4444M22.1111 23.6667V29.8889L26.7778 33L31.4444 29.8889V23.6667C31.4444 23.6667 28.6988 22.1111 26.7778 22.1111C24.8568 22.1111 22.1111 23.6667 22.1111 23.6667ZM21.3333 11.5015C21.3333 15.0923 18.3086 17.3529 15.8889 17.3529C13.4691 17.3529 10.4444 15.0923 10.4444 11.5015C10.4444 7.91084 12.5479 5 15.8889 5C19.2299 5 21.3333 7.91084 21.3333 11.5015Z" stroke="#931602" stroke-width="3.11111" stroke-linecap="round" stroke-linejoin="round"/>
</svg>
