<svg width="20" height="20" viewBox="0 0 20 20" fill="none" xmlns="http://www.w3.org/2000/svg">
<path d="M13.0817 5.84954L12.9271 5.71413L12.796 5.8724C12.1776 6.61863 11.5724 7.37147 10.9682 8.12312C10.1177 9.18108 9.26905 10.2367 8.38838 11.2684C8.25341 11.1654 8.11787 11.0641 7.98289 10.9633C7.59089 10.6704 7.20366 10.3812 6.84903 10.0634L6.68333 9.91495L6.55329 10.0955L5.83772 11.0889L5.71543 11.2587L5.89054 11.3732C6.18385 11.565 6.46522 11.7738 6.75239 11.9869C6.77836 12.0061 6.80438 12.0255 6.83046 12.0448L6.83078 12.045C6.98087 12.1558 7.13198 12.2642 7.28239 12.3721C7.69382 12.6673 8.10001 12.9587 8.46592 13.2855L8.62124 13.4242L8.75356 13.2634C9.33003 12.5629 9.90199 11.8507 10.4746 11.1376C11.6318 9.69672 12.7917 8.25234 13.9974 6.89419L14.1334 6.74099L13.977 6.60871C13.8853 6.53118 13.7939 6.45447 13.7028 6.37805C13.4935 6.20254 13.2861 6.02853 13.0817 5.84954ZM8.44807 13.0051C8.11366 12.7223 7.75062 12.4618 7.39127 12.204C7.24264 12.0974 7.09465 11.9912 6.94957 11.8841L8.44807 13.0051Z" fill="#931602" stroke="#931602" stroke-width="0.4"/>
<path d="M15.6324 4.39566C16.0452 3.9849 16.0503 3.31161 15.5941 2.94963C14.0859 1.75292 12.225 1.06532 10.2822 1.00437C7.98625 0.93235 5.74966 1.74095 4.03058 3.26453C2.31149 4.78811 1.24004 6.91135 1.03569 9.19932C0.831351 11.4873 1.50958 13.7668 2.93146 15.5709C4.35334 17.375 6.41124 18.5672 8.68361 18.9032C10.956 19.2391 13.2708 18.6935 15.1539 17.3781C17.0371 16.0626 18.3459 14.0769 18.8125 11.8277C19.2072 9.92447 18.9735 7.95443 18.1624 6.20835C17.917 5.6802 17.2612 5.52778 16.7653 5.83317V5.83317C16.2695 6.13857 16.1236 6.78612 16.3498 7.32273C16.8893 8.60233 17.0329 10.0237 16.7475 11.3994C16.3903 13.1216 15.3881 14.642 13.9463 15.6492C12.5044 16.6564 10.732 17.0742 8.99207 16.8169C7.25217 16.5597 5.67649 15.6469 4.58778 14.2655C3.49908 12.8841 2.97977 11.1388 3.13624 9.38693C3.2927 7.63508 4.11309 6.00936 5.42935 4.84279C6.74561 3.67622 8.45812 3.05709 10.2161 3.11224C11.6204 3.15629 12.9689 3.62799 14.087 4.45159C14.5559 4.79697 15.2196 4.80642 15.6324 4.39566V4.39566Z" fill="#931602"/>
</svg>
