<svg width="24" height="24" viewBox="0 0 24 24" fill="none" xmlns="http://www.w3.org/2000/svg">
<path d="M13.0302 15.2114L6.93951 20.1694C6.06077 20.8883 4.78021 20.8245 3.97738 20.0216C3.17454 19.2188 3.11068 17.9382 3.82964 17.0595L8.78761 10.9688M10.3413 5.1724C12.1886 3.32513 14.9407 2.93419 17.171 3.9996L13.8769 7.29371C13.0958 8.07476 13.0958 9.34109 13.8769 10.1221C14.6579 10.9032 15.9243 10.9032 16.7053 10.1221L19.9994 6.82803C21.0648 9.05828 20.6739 11.8104 18.8266 13.6577C16.4835 16.0008 12.6845 16.0008 10.3413 13.6577C7.99819 11.3145 7.99819 7.51554 10.3413 5.1724Z" stroke="#931602" stroke-width="2" stroke-linejoin="round"/>
</svg>
