<svg width="50" height="50" viewBox="0 0 50 50" fill="none" xmlns="http://www.w3.org/2000/svg">
<path d="M24.9995 0C14.8148 0 6.5293 8.28553 6.5293 18.4702C6.5293 21.8231 8.03299 25.4292 8.09601 25.5813C8.58167 26.734 9.53994 28.5246 10.2309 29.5741L22.895 48.7625C23.4133 49.5491 24.1803 50 24.9995 50C25.8187 50 26.5858 49.5491 27.104 48.7636L39.7692 29.5741C40.4613 28.5246 41.4185 26.734 41.9041 25.5813C41.9671 25.4302 43.4698 21.8242 43.4698 18.4702C43.4698 8.28553 35.1842 0 24.9995 0ZM39.9007 24.7382C39.4671 25.7714 38.5751 27.437 37.9548 28.3779L25.2896 47.5674C25.0397 47.9465 24.9604 47.9465 24.7105 47.5674L12.0454 28.3779C11.425 27.437 10.533 25.7703 10.0995 24.7371C10.081 24.6925 8.70227 21.3733 8.70227 18.4702C8.70227 9.48392 16.0132 2.17297 24.9995 2.17297C33.9858 2.17297 41.2968 9.48392 41.2968 18.4702C41.2968 21.3777 39.9148 24.7056 39.9007 24.7382Z" fill="#931602"/>
<path fill-rule="evenodd" clip-rule="evenodd" d="M29.4177 10.7028C28.7878 10.3192 28.1278 10.0231 27.4519 9.81523C24.2985 8.84384 20.7935 9.78134 18.3205 12.6258C17.3498 13.7424 16.6348 15.0418 16.175 16.4282L18.5335 19.141L22.2413 23.4057C23.4045 24.7436 25.1311 25.0403 26.5438 24.2953L21.4675 18.4567L19.5119 16.2069C19.7524 15.7843 20.0344 15.3833 20.3573 15.0118C20.6803 14.6402 21.0288 14.3166 21.3959 14.0397C23.441 12.4992 26.0769 12.4244 28.1802 13.814C28.6662 14.135 29.1235 14.5347 29.5385 15.0118L34.4389 20.6483C34.508 18.1037 33.8046 15.5361 32.328 13.452C32.1259 13.1668 31.9091 12.8906 31.6782 12.6252C31.4474 12.3598 31.207 12.1104 30.9595 11.8782C29.7617 10.8512 29.5181 10.8173 29.4183 10.7022L29.4177 10.7028ZM15.5573 20.0516C15.5061 22.5686 16.2102 25.1023 17.6708 27.1628C17.8729 27.448 18.1069 27.7242 18.3378 27.9896C19.1301 28.9016 19.6353 29.4694 20.287 30.2515L21.6555 31.8259L24.9994 35.6719L31.6782 27.9896C32.6343 26.8897 33.3422 25.6126 33.8027 24.2505L31.363 21.4444L27.6546 17.1796C26.4913 15.8418 24.7647 15.5451 23.3521 16.2901L28.4283 22.1286L30.3839 24.3778C30.1435 24.8004 29.8615 25.2014 29.5385 25.573C29.2156 25.9445 28.8671 26.2681 28.5 26.545C25.9823 28.4411 22.5693 28.1169 20.3573 25.573L15.5573 20.0516Z" fill="#931602"/>
<path fill-rule="evenodd" clip-rule="evenodd" d="M29.6953 19.996L31.8562 17.1962L32.3671 17.4693L30.049 20.4634L29.6953 19.996Z" fill="#931602"/>
</svg>
