<svg width="453" height="358" viewBox="0 0 453 358" fill="none" xmlns="http://www.w3.org/2000/svg">
<path d="M90.1802 14.822C90.1802 13.326 90.5249 11.984 91.2142 10.796C91.9182 9.608 92.8642 8.684 94.0522 8.024C95.2549 7.34933 96.5675 7.012 97.9902 7.012C99.6182 7.012 101.063 7.41533 102.324 8.222C103.6 9.014 104.524 10.1433 105.096 11.61H102.082C101.686 10.8033 101.136 10.202 100.432 9.806C99.7282 9.41 98.9142 9.212 97.9902 9.212C96.9782 9.212 96.0762 9.43933 95.2842 9.894C94.4922 10.3487 93.8689 11.0013 93.4142 11.852C92.9742 12.7027 92.7542 13.6927 92.7542 14.822C92.7542 15.9513 92.9742 16.9413 93.4142 17.792C93.8689 18.6427 94.4922 19.3027 95.2842 19.772C96.0762 20.2267 96.9782 20.454 97.9902 20.454C98.9142 20.454 99.7282 20.256 100.432 19.86C101.136 19.464 101.686 18.8627 102.082 18.056H105.096C104.524 19.5227 103.6 20.652 102.324 21.444C101.063 22.236 99.6182 22.632 97.9902 22.632C96.5529 22.632 95.2402 22.302 94.0522 21.642C92.8642 20.9673 91.9182 20.036 91.2142 18.848C90.5249 17.66 90.1802 16.318 90.1802 14.822ZM107.196 16.384C107.196 15.1667 107.445 14.0887 107.944 13.15C108.457 12.2113 109.147 11.4853 110.012 10.972C110.892 10.444 111.86 10.18 112.916 10.18C113.869 10.18 114.698 10.3707 115.402 10.752C116.121 11.1187 116.693 11.5807 117.118 12.138V10.378H119.648V22.5H117.118V20.696C116.693 21.268 116.113 21.7447 115.38 22.126C114.647 22.5073 113.811 22.698 112.872 22.698C111.831 22.698 110.877 22.434 110.012 21.906C109.147 21.3633 108.457 20.6153 107.944 19.662C107.445 18.694 107.196 17.6013 107.196 16.384ZM117.118 16.428C117.118 15.592 116.942 14.866 116.59 14.25C116.253 13.634 115.805 13.1647 115.248 12.842C114.691 12.5193 114.089 12.358 113.444 12.358C112.799 12.358 112.197 12.5193 111.64 12.842C111.083 13.15 110.628 13.612 110.276 14.228C109.939 14.8293 109.77 15.548 109.77 16.384C109.77 17.22 109.939 17.9533 110.276 18.584C110.628 19.2147 111.083 19.6987 111.64 20.036C112.212 20.3587 112.813 20.52 113.444 20.52C114.089 20.52 114.691 20.3587 115.248 20.036C115.805 19.7133 116.253 19.244 116.59 18.628C116.942 17.9973 117.118 17.264 117.118 16.428ZM125.45 6.22V22.5H122.942V6.22H125.45ZM127.907 16.428C127.907 15.1813 128.156 14.0887 128.655 13.15C129.168 12.1967 129.872 11.4633 130.767 10.95C131.661 10.4367 132.688 10.18 133.847 10.18C135.313 10.18 136.523 10.532 137.477 11.236C138.445 11.9253 139.097 12.9153 139.435 14.206H136.729C136.509 13.6047 136.157 13.1353 135.673 12.798C135.189 12.4607 134.58 12.292 133.847 12.292C132.82 12.292 131.999 12.6587 131.383 13.392C130.781 14.1107 130.481 15.1227 130.481 16.428C130.481 17.7333 130.781 18.7527 131.383 19.486C131.999 20.2193 132.82 20.586 133.847 20.586C135.299 20.586 136.259 19.948 136.729 18.672H139.435C139.083 19.904 138.423 20.8867 137.455 21.62C136.487 22.3387 135.284 22.698 133.847 22.698C132.688 22.698 131.661 22.4413 130.767 21.928C129.872 21.4 129.168 20.6667 128.655 19.728C128.156 18.7747 127.907 17.6747 127.907 16.428ZM152.912 10.378V22.5H150.404V21.07C150.008 21.5687 149.488 21.9647 148.842 22.258C148.212 22.5367 147.537 22.676 146.818 22.676C145.865 22.676 145.007 22.478 144.244 22.082C143.496 21.686 142.902 21.0993 142.462 20.322C142.037 19.5447 141.824 18.606 141.824 17.506V10.378H144.31V17.132C144.31 18.2173 144.582 19.0533 145.124 19.64C145.667 20.212 146.408 20.498 147.346 20.498C148.285 20.498 149.026 20.212 149.568 19.64C150.126 19.0533 150.404 18.2173 150.404 17.132V10.378H152.912ZM158.729 6.22V22.5H156.221V6.22H158.729ZM161.186 16.384C161.186 15.1667 161.435 14.0887 161.934 13.15C162.447 12.2113 163.137 11.4853 164.002 10.972C164.882 10.444 165.85 10.18 166.906 10.18C167.859 10.18 168.688 10.3707 169.392 10.752C170.111 11.1187 170.683 11.5807 171.108 12.138V10.378H173.638V22.5H171.108V20.696C170.683 21.268 170.103 21.7447 169.37 22.126C168.637 22.5073 167.801 22.698 166.862 22.698C165.821 22.698 164.867 22.434 164.002 21.906C163.137 21.3633 162.447 20.6153 161.934 19.662C161.435 18.694 161.186 17.6013 161.186 16.384ZM171.108 16.428C171.108 15.592 170.932 14.866 170.58 14.25C170.243 13.634 169.795 13.1647 169.238 12.842C168.681 12.5193 168.079 12.358 167.434 12.358C166.789 12.358 166.187 12.5193 165.63 12.842C165.073 13.15 164.618 13.612 164.266 14.228C163.929 14.8293 163.76 15.548 163.76 16.384C163.76 17.22 163.929 17.9533 164.266 18.584C164.618 19.2147 165.073 19.6987 165.63 20.036C166.202 20.3587 166.803 20.52 167.434 20.52C168.079 20.52 168.681 20.3587 169.238 20.036C169.795 19.7133 170.243 19.244 170.58 18.628C170.932 17.9973 171.108 17.264 171.108 16.428ZM179.858 12.424V19.134C179.858 19.5887 179.961 19.9187 180.166 20.124C180.386 20.3147 180.753 20.41 181.266 20.41H182.806V22.5H180.826C179.697 22.5 178.832 22.236 178.23 21.708C177.629 21.18 177.328 20.322 177.328 19.134V12.424H175.898V10.378H177.328V7.364H179.858V10.378H182.806V12.424H179.858ZM186.394 8.772C185.939 8.772 185.558 8.618 185.25 8.31C184.942 8.002 184.788 7.62067 184.788 7.166C184.788 6.71133 184.942 6.33 185.25 6.022C185.558 5.714 185.939 5.56 186.394 5.56C186.834 5.56 187.208 5.714 187.516 6.022C187.824 6.33 187.978 6.71133 187.978 7.166C187.978 7.62067 187.824 8.002 187.516 8.31C187.208 8.618 186.834 8.772 186.394 8.772ZM187.626 10.378V22.5H185.118V10.378H187.626ZM196.177 22.698C195.033 22.698 193.999 22.4413 193.075 21.928C192.151 21.4 191.425 20.6667 190.897 19.728C190.369 18.7747 190.105 17.6747 190.105 16.428C190.105 15.196 190.376 14.1033 190.919 13.15C191.461 12.1967 192.202 11.4633 193.141 10.95C194.079 10.4367 195.128 10.18 196.287 10.18C197.445 10.18 198.494 10.4367 199.433 10.95C200.371 11.4633 201.112 12.1967 201.655 13.15C202.197 14.1033 202.469 15.196 202.469 16.428C202.469 17.66 202.19 18.7527 201.633 19.706C201.075 20.6593 200.313 21.4 199.345 21.928C198.391 22.4413 197.335 22.698 196.177 22.698ZM196.177 20.52C196.822 20.52 197.423 20.366 197.981 20.058C198.553 19.75 199.015 19.288 199.367 18.672C199.719 18.056 199.895 17.308 199.895 16.428C199.895 15.548 199.726 14.8073 199.389 14.206C199.051 13.59 198.604 13.128 198.047 12.82C197.489 12.512 196.888 12.358 196.243 12.358C195.597 12.358 194.996 12.512 194.439 12.82C193.896 13.128 193.463 13.59 193.141 14.206C192.818 14.8073 192.657 15.548 192.657 16.428C192.657 17.7333 192.987 18.7453 193.647 19.464C194.321 20.168 195.165 20.52 196.177 20.52ZM211.064 10.18C212.017 10.18 212.868 10.378 213.616 10.774C214.379 11.17 214.973 11.7567 215.398 12.534C215.823 13.3113 216.036 14.25 216.036 15.35V22.5H213.55V15.724C213.55 14.6387 213.279 13.81 212.736 13.238C212.193 12.6513 211.453 12.358 210.514 12.358C209.575 12.358 208.827 12.6513 208.27 13.238C207.727 13.81 207.456 14.6387 207.456 15.724V22.5H204.948V10.378H207.456V11.764C207.867 11.2653 208.387 10.8767 209.018 10.598C209.663 10.3193 210.345 10.18 211.064 10.18ZM230.208 22.698C229.064 22.698 228.03 22.4413 227.106 21.928C226.182 21.4 225.456 20.6667 224.928 19.728C224.4 18.7747 224.136 17.6747 224.136 16.428C224.136 15.196 224.407 14.1033 224.95 13.15C225.492 12.1967 226.233 11.4633 227.172 10.95C228.11 10.4367 229.159 10.18 230.318 10.18C231.476 10.18 232.525 10.4367 233.464 10.95C234.402 11.4633 235.143 12.1967 235.686 13.15C236.228 14.1033 236.5 15.196 236.5 16.428C236.5 17.66 236.221 18.7527 235.664 19.706C235.106 20.6593 234.344 21.4 233.376 21.928C232.422 22.4413 231.366 22.698 230.208 22.698ZM230.208 20.52C230.853 20.52 231.454 20.366 232.012 20.058C232.584 19.75 233.046 19.288 233.398 18.672C233.75 18.056 233.926 17.308 233.926 16.428C233.926 15.548 233.757 14.8073 233.42 14.206C233.082 13.59 232.635 13.128 232.078 12.82C231.52 12.512 230.919 12.358 230.274 12.358C229.628 12.358 229.027 12.512 228.47 12.82C227.927 13.128 227.494 13.59 227.172 14.206C226.849 14.8073 226.688 15.548 226.688 16.428C226.688 17.7333 227.018 18.7453 227.678 19.464C228.352 20.168 229.196 20.52 230.208 20.52ZM244.061 12.424H241.817V22.5H239.287V12.424H237.857V10.378H239.287V9.52C239.287 8.12667 239.654 7.11467 240.387 6.484C241.135 5.83867 242.301 5.516 243.885 5.516V7.606C243.122 7.606 242.587 7.75267 242.279 8.046C241.971 8.32467 241.817 8.816 241.817 9.52V10.378H244.061V12.424Z" fill="black"/>
<path d="M259.782 1.13672C254.381 1.13672 250 5.08103 250 9.93898C250 15.5287 256.521 24.3869 258.916 27.4465C259.015 27.5756 259.145 27.6807 259.296 27.7532C259.446 27.8257 259.613 27.8634 259.782 27.8634C259.95 27.8634 260.117 27.8257 260.267 27.7532C260.418 27.6807 260.548 27.5756 260.648 27.4465C263.042 24.3882 269.563 15.5332 269.563 9.93898C269.563 5.08103 265.182 1.13672 259.782 1.13672Z" fill="#018191" fill-opacity="0.15" stroke="#018191" stroke-width="1.23533" stroke-linecap="round" stroke-linejoin="round"/>
<path d="M259.353 4.19578C260.278 4.18528 261.022 4.35122 261.909 4.59898C261.313 5.30027 260.645 5.95379 260.015 6.62375L256.326 10.544C255.644 11.2684 254.944 11.9817 254.285 12.7291C254.996 13.2504 255.628 13.5359 256.499 13.2136C256.757 13.1178 257.006 12.9122 257.212 12.7235C257.787 12.1984 258.312 11.5665 258.849 10.9957L262.011 7.6374C262.407 7.21376 262.944 6.53584 263.395 6.22246C263.526 6.13165 263.67 6.08426 263.826 6.08189C264.136 6.07727 264.382 6.2618 264.592 6.48662C265.855 7.83988 266.503 9.74746 266.504 11.6309C266.505 13.4922 265.902 15.1729 264.753 16.5781C264.236 17.2102 263.639 17.7887 263.081 18.3812L260.216 21.4266C259.976 21.68 259.733 21.9308 259.504 22.1953C259.349 21.9627 259.16 21.7558 259.006 21.5209C258.588 20.8839 258.359 20.0716 258.335 19.2996C258.31 18.4781 258.488 17.6802 258.88 16.9699C259.363 16.0936 260.181 15.3877 260.853 14.6725L263.25 12.124C263.743 11.6003 264.249 11.0843 264.726 10.5435C264.076 10.0256 263.387 9.72285 262.572 10.0289C262.327 10.1211 262.091 10.2879 261.892 10.4634C261.298 10.9878 260.745 11.6557 260.195 12.2402L256.942 15.6938C256.574 16.0846 256.194 16.5937 255.765 16.906C255.603 17.0237 255.426 17.0976 255.229 17.1078C254.923 17.1237 254.655 16.9826 254.435 16.7666C253.267 15.6189 252.56 13.6228 252.508 11.9583C252.445 9.93488 253.085 8.00774 254.399 6.52563C255.71 5.04728 257.45 4.25406 259.353 4.19578Z" fill="url(#paint0_linear_873_25018)"/>
<path d="M285.943 15.3298C285.943 15.7353 285.917 16.1015 285.864 16.4285H277.604C277.67 17.2918 277.99 17.9851 278.566 18.5083C279.141 19.0315 279.848 19.2931 280.685 19.2931C281.888 19.2931 282.738 18.7895 283.235 17.7823H285.649C285.322 18.7764 284.726 19.5939 283.863 20.2348C283.013 20.8627 281.953 21.1766 280.685 21.1766C279.651 21.1766 278.723 20.9477 277.899 20.4899C277.088 20.019 276.447 19.365 275.976 18.5279C275.518 17.6777 275.289 16.6967 275.289 15.5849C275.289 14.4731 275.512 13.4986 275.956 12.6615C276.414 11.8113 277.048 11.1573 277.859 10.6995C278.683 10.2417 279.625 10.0128 280.685 10.0128C281.705 10.0128 282.614 10.2352 283.412 10.6799C284.21 11.1246 284.831 11.7524 285.276 12.5634C285.72 13.3613 285.943 14.2834 285.943 15.3298ZM283.608 14.6235C283.595 13.7995 283.301 13.1389 282.725 12.6419C282.15 12.1448 281.437 11.8963 280.587 11.8963C279.815 11.8963 279.154 12.1448 278.605 12.6419C278.056 13.1258 277.729 13.7864 277.624 14.6235H283.608ZM292.637 21.1373C291.721 21.1373 290.897 20.9804 290.165 20.6665C289.432 20.3395 288.857 19.8817 288.438 19.2931C288.02 18.7045 287.81 18.0178 287.81 17.233H290.204C290.256 17.8216 290.485 18.3055 290.891 18.6848C291.309 19.0642 291.891 19.2538 292.637 19.2538C293.409 19.2538 294.01 19.0707 294.442 18.7045C294.874 18.3251 295.089 17.8412 295.089 17.2526C295.089 16.7948 294.952 16.422 294.677 16.1342C294.416 15.8465 294.082 15.6241 293.677 15.4672C293.284 15.3102 292.735 15.1402 292.029 14.957C291.139 14.7216 290.413 14.4862 289.851 14.2507C289.302 14.0022 288.831 13.6229 288.438 13.1128C288.046 12.6026 287.85 11.9225 287.85 11.0723C287.85 10.2875 288.046 9.60078 288.438 9.01218C288.831 8.42358 289.38 7.97232 290.086 7.6584C290.793 7.34448 291.61 7.18752 292.539 7.18752C293.86 7.18752 294.939 7.52106 295.776 8.18814C296.626 8.84214 297.097 9.74466 297.189 10.8957H294.717C294.677 10.3987 294.442 9.97356 294.01 9.6204C293.579 9.26724 293.01 9.09066 292.303 9.09066C291.662 9.09066 291.139 9.25416 290.734 9.58116C290.328 9.90816 290.126 10.379 290.126 10.9938C290.126 11.4124 290.25 11.759 290.498 12.0337C290.76 12.2953 291.087 12.5045 291.479 12.6615C291.872 12.8185 292.408 12.9885 293.088 13.1716C293.991 13.4201 294.723 13.6687 295.286 13.9172C295.861 14.1657 296.345 14.5516 296.738 15.0748C297.143 15.5849 297.346 16.2716 297.346 17.1349C297.346 17.8281 297.156 18.4821 296.777 19.0969C296.411 19.7116 295.868 20.2087 295.148 20.588C294.442 20.9542 293.605 21.1373 292.637 21.1373ZM302.594 12.014V17.9981C302.594 18.4036 302.686 18.6979 302.869 18.881C303.065 19.0511 303.392 19.1361 303.85 19.1361H305.223V21H303.458C302.451 21 301.679 20.7646 301.143 20.2937C300.606 19.8228 300.338 19.0576 300.338 17.9981V12.014H299.063V10.1894H300.338V7.50144H302.594V10.1894H305.223V12.014H302.594ZM308.423 8.75712C308.017 8.75712 307.677 8.61978 307.403 8.3451C307.128 8.07042 306.991 7.73034 306.991 7.32486C306.991 6.91938 307.128 6.5793 307.403 6.30462C307.677 6.02994 308.017 5.8926 308.423 5.8926C308.815 5.8926 309.149 6.02994 309.424 6.30462C309.698 6.5793 309.836 6.91938 309.836 7.32486C309.836 7.73034 309.698 8.07042 309.424 8.3451C309.149 8.61978 308.815 8.75712 308.423 8.75712ZM309.522 10.1894V21H307.285V10.1894H309.522ZM325.545 10.0128C326.395 10.0128 327.154 10.1894 327.821 10.5425C328.501 10.8957 329.031 11.4189 329.41 12.1121C329.802 12.8054 329.998 13.6425 329.998 14.6235V21H327.781V14.957C327.781 13.9891 327.539 13.2501 327.055 12.74C326.572 12.2168 325.911 11.9552 325.074 11.9552C324.237 11.9552 323.57 12.2168 323.073 12.74C322.589 13.2501 322.347 13.9891 322.347 14.957V21H320.13V14.957C320.13 13.9891 319.888 13.2501 319.404 12.74C318.92 12.2168 318.259 11.9552 317.422 11.9552C316.585 11.9552 315.918 12.2168 315.421 12.74C314.937 13.2501 314.695 13.9891 314.695 14.957V21H312.458V10.1894H314.695V11.4254C315.061 10.9807 315.525 10.6341 316.088 10.3856C316.65 10.1371 317.252 10.0128 317.893 10.0128C318.756 10.0128 319.528 10.1959 320.208 10.5622C320.888 10.9284 321.411 11.4581 321.778 12.1514C322.105 11.4974 322.615 10.9807 323.308 10.6014C324.001 10.209 324.747 10.0128 325.545 10.0128ZM332.099 15.5456C332.099 14.46 332.321 13.4986 332.766 12.6615C333.224 11.8244 333.839 11.1769 334.61 10.7191C335.395 10.2482 336.258 10.0128 337.2 10.0128C338.05 10.0128 338.789 10.1828 339.417 10.5229C340.058 10.8499 340.568 11.2619 340.948 11.759V10.1894H343.204V21H340.948V19.3912C340.568 19.9013 340.052 20.3264 339.398 20.6665C338.744 21.0065 337.998 21.1766 337.161 21.1766C336.232 21.1766 335.382 20.9411 334.61 20.4703C333.839 19.9863 333.224 19.3192 332.766 18.469C332.321 17.6057 332.099 16.6313 332.099 15.5456ZM340.948 15.5849C340.948 14.8393 340.791 14.1919 340.477 13.6425C340.176 13.0931 339.777 12.6746 339.28 12.3868C338.783 12.0991 338.247 11.9552 337.671 11.9552C337.096 11.9552 336.559 12.0991 336.062 12.3868C335.565 12.6615 335.16 13.0735 334.846 13.6229C334.545 14.1592 334.395 14.8001 334.395 15.5456C334.395 16.2912 334.545 16.9452 334.846 17.5076C335.16 18.0701 335.565 18.5017 336.062 18.8026C336.572 19.0903 337.109 19.2342 337.671 19.2342C338.247 19.2342 338.783 19.0903 339.28 18.8026C339.777 18.5148 340.176 18.0962 340.477 17.5469C340.791 16.9844 340.948 16.3304 340.948 15.5849ZM348.751 12.014V17.9981C348.751 18.4036 348.843 18.6979 349.026 18.881C349.222 19.0511 349.549 19.1361 350.007 19.1361H351.38V21H349.614C348.607 21 347.836 20.7646 347.299 20.2937C346.763 19.8228 346.495 19.0576 346.495 17.9981V12.014H345.22V10.1894H346.495V7.50144H348.751V10.1894H351.38V12.014H348.751ZM363.35 15.3298C363.35 15.7353 363.324 16.1015 363.271 16.4285H355.011C355.077 17.2918 355.397 17.9851 355.973 18.5083C356.548 19.0315 357.255 19.2931 358.092 19.2931C359.295 19.2931 360.145 18.7895 360.642 17.7823H363.056C362.729 18.7764 362.133 19.5939 361.27 20.2348C360.42 20.8627 359.36 21.1766 358.092 21.1766C357.058 21.1766 356.13 20.9477 355.306 20.4899C354.495 20.019 353.854 19.365 353.383 18.5279C352.925 17.6777 352.696 16.6967 352.696 15.5849C352.696 14.4731 352.919 13.4986 353.363 12.6615C353.821 11.8113 354.455 11.1573 355.266 10.6995C356.09 10.2417 357.032 10.0128 358.092 10.0128C359.112 10.0128 360.021 10.2352 360.819 10.6799C361.617 11.1246 362.238 11.7524 362.683 12.5634C363.128 13.3613 363.35 14.2834 363.35 15.3298ZM361.015 14.6235C361.002 13.7995 360.708 13.1389 360.132 12.6419C359.557 12.1448 358.844 11.8963 357.994 11.8963C357.222 11.8963 356.561 12.1448 356.012 12.6419C355.463 13.1258 355.136 13.7864 355.031 14.6235H361.015Z" fill="#121212"/>
<rect x="3.5" y="161.5" width="185" height="77" rx="8.5" stroke="#8CB7B2" stroke-width="3"/>
<path d="M28.8889 179.666C30.5609 179.666 32.0056 179.981 33.2229 180.612C34.4549 181.228 35.3936 182.115 36.0389 183.274C36.6989 184.433 37.0289 185.797 37.0289 187.366C37.0289 188.935 36.6989 190.299 36.0389 191.458C35.3936 192.602 34.4549 193.482 33.2229 194.098C32.0056 194.699 30.5609 195 28.8889 195H24.1149V179.666H28.8889ZM28.8889 193.35C30.8689 193.35 32.3796 192.829 33.4209 191.788C34.4622 190.732 34.9829 189.258 34.9829 187.366C34.9829 185.459 34.4549 183.971 33.3989 182.9C32.3576 181.829 30.8542 181.294 28.8889 181.294H26.1169V193.35H28.8889ZM50.6696 188.51C50.6696 188.891 50.6476 189.295 50.6036 189.72H40.9676C41.0409 190.908 41.4443 191.839 42.1776 192.514C42.9256 193.174 43.8276 193.504 44.8836 193.504C45.7489 193.504 46.4676 193.306 47.0396 192.91C47.6263 192.499 48.0369 191.957 48.2716 191.282H50.4276C50.1049 192.441 49.4596 193.387 48.4916 194.12C47.5236 194.839 46.3209 195.198 44.8836 195.198C43.7396 195.198 42.7129 194.941 41.8036 194.428C40.9089 193.915 40.2049 193.189 39.6916 192.25C39.1783 191.297 38.9216 190.197 38.9216 188.95C38.9216 187.703 39.1709 186.611 39.6696 185.672C40.1683 184.733 40.8649 184.015 41.7596 183.516C42.6689 183.003 43.7103 182.746 44.8836 182.746C46.0276 182.746 47.0396 182.995 47.9196 183.494C48.7996 183.993 49.4743 184.682 49.9436 185.562C50.4276 186.427 50.6696 187.41 50.6696 188.51ZM48.6016 188.092C48.6016 187.329 48.4329 186.677 48.0956 186.134C47.7583 185.577 47.2963 185.159 46.7096 184.88C46.1376 184.587 45.4996 184.44 44.7956 184.44C43.7836 184.44 42.9183 184.763 42.1996 185.408C41.4956 186.053 41.0923 186.948 40.9896 188.092H48.6016ZM55.7542 184.594V191.7C55.7542 192.287 55.8788 192.705 56.1282 192.954C56.3775 193.189 56.8102 193.306 57.4262 193.306H58.9002V195H57.0962C55.9815 195 55.1455 194.743 54.5882 194.23C54.0308 193.717 53.7522 192.873 53.7522 191.7V184.594H52.1902V182.944H53.7522V179.908H55.7542V182.944H58.9002V184.594H55.7542ZM60.5778 188.928C60.5778 187.696 60.8272 186.618 61.3258 185.694C61.8245 184.755 62.5065 184.029 63.3718 183.516C64.2518 183.003 65.2272 182.746 66.2978 182.746C67.3538 182.746 68.2705 182.973 69.0478 183.428C69.8252 183.883 70.4045 184.455 70.7858 185.144V182.944H72.8098V195H70.7858V192.756C70.3898 193.46 69.7958 194.047 69.0038 194.516C68.2265 194.971 67.3172 195.198 66.2758 195.198C65.2052 195.198 64.2372 194.934 63.3718 194.406C62.5065 193.878 61.8245 193.137 61.3258 192.184C60.8272 191.231 60.5778 190.145 60.5778 188.928ZM70.7858 188.95C70.7858 188.041 70.6025 187.249 70.2358 186.574C69.8692 185.899 69.3705 185.386 68.7398 185.034C68.1238 184.667 67.4418 184.484 66.6938 184.484C65.9458 184.484 65.2638 184.66 64.6478 185.012C64.0318 185.364 63.5405 185.877 63.1738 186.552C62.8072 187.227 62.6238 188.019 62.6238 188.928C62.6238 189.852 62.8072 190.659 63.1738 191.348C63.5405 192.023 64.0318 192.543 64.6478 192.91C65.2638 193.262 65.9458 193.438 66.6938 193.438C67.4418 193.438 68.1238 193.262 68.7398 192.91C69.3705 192.543 69.8692 192.023 70.2358 191.348C70.6025 190.659 70.7858 189.859 70.7858 188.95ZM77.227 180.986C76.8457 180.986 76.523 180.854 76.259 180.59C75.995 180.326 75.863 180.003 75.863 179.622C75.863 179.241 75.995 178.918 76.259 178.654C76.523 178.39 76.8457 178.258 77.227 178.258C77.5937 178.258 77.9017 178.39 78.151 178.654C78.415 178.918 78.547 179.241 78.547 179.622C78.547 180.003 78.415 180.326 78.151 180.59C77.9017 180.854 77.5937 180.986 77.227 180.986ZM78.195 182.944V195H76.193V182.944H78.195ZM83.6091 178.72V195H81.6071V178.72H83.6091ZM91.2891 195.198C90.3651 195.198 89.5365 195.044 88.8031 194.736C88.0698 194.413 87.4905 193.973 87.0651 193.416C86.6398 192.844 86.4051 192.191 86.3611 191.458H88.4291C88.4878 192.059 88.7665 192.551 89.2651 192.932C89.7785 193.313 90.4458 193.504 91.2671 193.504C92.0298 193.504 92.6311 193.335 93.0711 192.998C93.5111 192.661 93.7311 192.235 93.7311 191.722C93.7311 191.194 93.4965 190.805 93.0271 190.556C92.5578 190.292 91.8318 190.035 90.8491 189.786C89.9545 189.551 89.2211 189.317 88.6491 189.082C88.0918 188.833 87.6078 188.473 87.1971 188.004C86.8011 187.52 86.6031 186.889 86.6031 186.112C86.6031 185.496 86.7865 184.931 87.1531 184.418C87.5198 183.905 88.0405 183.501 88.7151 183.208C89.3898 182.9 90.1598 182.746 91.0251 182.746C92.3598 182.746 93.4378 183.083 94.2591 183.758C95.0805 184.433 95.5205 185.357 95.5791 186.53H93.5771C93.5331 185.899 93.2765 185.393 92.8071 185.012C92.3525 184.631 91.7365 184.44 90.9591 184.44C90.2405 184.44 89.6685 184.594 89.2431 184.902C88.8178 185.21 88.6051 185.613 88.6051 186.112C88.6051 186.508 88.7298 186.838 88.9791 187.102C89.2431 187.351 89.5658 187.557 89.9471 187.718C90.3431 187.865 90.8858 188.033 91.5751 188.224C92.4405 188.459 93.1445 188.693 93.6871 188.928C94.2298 189.148 94.6918 189.485 95.0731 189.94C95.4691 190.395 95.6745 190.989 95.6891 191.722C95.6891 192.382 95.5058 192.976 95.1391 193.504C94.7725 194.032 94.2518 194.45 93.5771 194.758C92.9171 195.051 92.1545 195.198 91.2891 195.198ZM103.633 188.928C103.633 187.696 103.882 186.618 104.381 185.694C104.879 184.755 105.561 184.029 106.427 183.516C107.307 183.003 108.282 182.746 109.353 182.746C110.409 182.746 111.325 182.973 112.103 183.428C112.88 183.883 113.459 184.455 113.841 185.144V182.944H115.865V195H113.841V192.756C113.445 193.46 112.851 194.047 112.059 194.516C111.281 194.971 110.372 195.198 109.331 195.198C108.26 195.198 107.292 194.934 106.427 194.406C105.561 193.878 104.879 193.137 104.381 192.184C103.882 191.231 103.633 190.145 103.633 188.928ZM113.841 188.95C113.841 188.041 113.657 187.249 113.291 186.574C112.924 185.899 112.425 185.386 111.795 185.034C111.179 184.667 110.497 184.484 109.749 184.484C109.001 184.484 108.319 184.66 107.703 185.012C107.087 185.364 106.595 185.877 106.229 186.552C105.862 187.227 105.679 188.019 105.679 188.928C105.679 189.852 105.862 190.659 106.229 191.348C106.595 192.023 107.087 192.543 107.703 192.91C108.319 193.262 109.001 193.438 109.749 193.438C110.497 193.438 111.179 193.262 111.795 192.91C112.425 192.543 112.924 192.023 113.291 191.348C113.657 190.659 113.841 189.859 113.841 188.95ZM121.25 185.188C121.66 184.469 122.262 183.883 123.054 183.428C123.846 182.973 124.748 182.746 125.76 182.746C126.845 182.746 127.82 183.003 128.686 183.516C129.551 184.029 130.233 184.755 130.732 185.694C131.23 186.618 131.48 187.696 131.48 188.928C131.48 190.145 131.23 191.231 130.732 192.184C130.233 193.137 129.544 193.878 128.664 194.406C127.798 194.934 126.83 195.198 125.76 195.198C124.718 195.198 123.802 194.971 123.01 194.516C122.232 194.061 121.646 193.482 121.25 192.778V195H119.248V178.72H121.25V185.188ZM129.434 188.928C129.434 188.019 129.25 187.227 128.884 186.552C128.517 185.877 128.018 185.364 127.388 185.012C126.772 184.66 126.09 184.484 125.342 184.484C124.608 184.484 123.926 184.667 123.296 185.034C122.68 185.386 122.181 185.907 121.8 186.596C121.433 187.271 121.25 188.055 121.25 188.95C121.25 189.859 121.433 190.659 121.8 191.348C122.181 192.023 122.68 192.543 123.296 192.91C123.926 193.262 124.608 193.438 125.342 193.438C126.09 193.438 126.772 193.262 127.388 192.91C128.018 192.543 128.517 192.023 128.884 191.348C129.25 190.659 129.434 189.852 129.434 188.928ZM139.373 195.198C138.244 195.198 137.217 194.941 136.293 194.428C135.384 193.915 134.665 193.189 134.137 192.25C133.624 191.297 133.367 190.197 133.367 188.95C133.367 187.718 133.631 186.633 134.159 185.694C134.702 184.741 135.435 184.015 136.359 183.516C137.283 183.003 138.317 182.746 139.461 182.746C140.605 182.746 141.639 183.003 142.563 183.516C143.487 184.015 144.213 184.733 144.741 185.672C145.284 186.611 145.555 187.703 145.555 188.95C145.555 190.197 145.276 191.297 144.719 192.25C144.176 193.189 143.436 193.915 142.497 194.428C141.558 194.941 140.517 195.198 139.373 195.198ZM139.373 193.438C140.092 193.438 140.766 193.269 141.397 192.932C142.028 192.595 142.534 192.089 142.915 191.414C143.311 190.739 143.509 189.918 143.509 188.95C143.509 187.982 143.318 187.161 142.937 186.486C142.556 185.811 142.057 185.313 141.441 184.99C140.825 184.653 140.158 184.484 139.439 184.484C138.706 184.484 138.031 184.653 137.415 184.99C136.814 185.313 136.33 185.811 135.963 186.486C135.596 187.161 135.413 187.982 135.413 188.95C135.413 189.933 135.589 190.761 135.941 191.436C136.308 192.111 136.792 192.617 137.393 192.954C137.994 193.277 138.654 193.438 139.373 193.438ZM158.879 182.944V195H156.877V193.218C156.496 193.834 155.96 194.318 155.271 194.67C154.596 195.007 153.848 195.176 153.027 195.176C152.088 195.176 151.245 194.985 150.497 194.604C149.749 194.208 149.155 193.621 148.715 192.844C148.29 192.067 148.077 191.121 148.077 190.006V182.944H150.057V189.742C150.057 190.93 150.358 191.847 150.959 192.492C151.56 193.123 152.382 193.438 153.423 193.438C154.494 193.438 155.337 193.108 155.953 192.448C156.569 191.788 156.877 190.827 156.877 189.566V182.944H158.879ZM164.701 184.594V191.7C164.701 192.287 164.826 192.705 165.075 192.954C165.325 193.189 165.757 193.306 166.373 193.306H167.847V195H166.043C164.929 195 164.093 194.743 163.535 194.23C162.978 193.717 162.699 192.873 162.699 191.7V184.594H161.137V182.944H162.699V179.908H164.701V182.944H167.847V184.594H164.701ZM61.3728 210.154C61.3728 211.43 60.9328 212.493 60.0528 213.344C59.1874 214.18 57.8601 214.598 56.0708 214.598H53.1228V221H51.1208V205.666H56.0708C57.8014 205.666 59.1141 206.084 60.0088 206.92C60.9181 207.756 61.3728 208.834 61.3728 210.154ZM56.0708 212.948C57.1854 212.948 58.0068 212.706 58.5348 212.222C59.0628 211.738 59.3268 211.049 59.3268 210.154C59.3268 208.262 58.2414 207.316 56.0708 207.316H53.1228V212.948H56.0708ZM65.863 210.902C66.215 210.213 66.7137 209.677 67.359 209.296C68.019 208.915 68.8183 208.724 69.757 208.724V210.792H69.229C66.985 210.792 65.863 212.009 65.863 214.444V221H63.861V208.944H65.863V210.902ZM77.326 221.198C76.1967 221.198 75.17 220.941 74.246 220.428C73.3367 219.915 72.618 219.189 72.09 218.25C71.5767 217.297 71.32 216.197 71.32 214.95C71.32 213.718 71.584 212.633 72.112 211.694C72.6547 210.741 73.388 210.015 74.312 209.516C75.236 209.003 76.27 208.746 77.414 208.746C78.558 208.746 79.592 209.003 80.516 209.516C81.44 210.015 82.166 210.733 82.694 211.672C83.2367 212.611 83.508 213.703 83.508 214.95C83.508 216.197 83.2294 217.297 82.672 218.25C82.1294 219.189 81.3887 219.915 80.45 220.428C79.5114 220.941 78.47 221.198 77.326 221.198ZM77.326 219.438C78.0447 219.438 78.7194 219.269 79.35 218.932C79.9807 218.595 80.4867 218.089 80.868 217.414C81.264 216.739 81.462 215.918 81.462 214.95C81.462 213.982 81.2714 213.161 80.89 212.486C80.5087 211.811 80.01 211.313 79.394 210.99C78.778 210.653 78.1107 210.484 77.392 210.484C76.6587 210.484 75.984 210.653 75.368 210.99C74.7667 211.313 74.2827 211.811 73.916 212.486C73.5494 213.161 73.366 213.982 73.366 214.95C73.366 215.933 73.542 216.761 73.894 217.436C74.2607 218.111 74.7447 218.617 75.346 218.954C75.9474 219.277 76.6074 219.438 77.326 219.438ZM88.1423 211.166C88.5383 210.477 89.125 209.905 89.9023 209.45C90.6943 208.981 91.611 208.746 92.6523 208.746C93.723 208.746 94.691 209.003 95.5563 209.516C96.4363 210.029 97.1256 210.755 97.6243 211.694C98.123 212.618 98.3723 213.696 98.3723 214.928C98.3723 216.145 98.123 217.231 97.6243 218.184C97.1256 219.137 96.4363 219.878 95.5563 220.406C94.691 220.934 93.723 221.198 92.6523 221.198C91.6256 221.198 90.7163 220.971 89.9243 220.516C89.147 220.047 88.553 219.467 88.1423 218.778V226.72H86.1403V208.944H88.1423V211.166ZM96.3263 214.928C96.3263 214.019 96.143 213.227 95.7763 212.552C95.4096 211.877 94.911 211.364 94.2803 211.012C93.6643 210.66 92.9823 210.484 92.2343 210.484C91.501 210.484 90.819 210.667 90.1883 211.034C89.5723 211.386 89.0736 211.907 88.6923 212.596C88.3256 213.271 88.1423 214.055 88.1423 214.95C88.1423 215.859 88.3256 216.659 88.6923 217.348C89.0736 218.023 89.5723 218.543 90.1883 218.91C90.819 219.262 91.501 219.438 92.2343 219.438C92.9823 219.438 93.6643 219.262 94.2803 218.91C94.911 218.543 95.4096 218.023 95.7763 217.348C96.143 216.659 96.3263 215.852 96.3263 214.928ZM112.007 214.51C112.007 214.891 111.985 215.295 111.941 215.72H102.305C102.379 216.908 102.782 217.839 103.515 218.514C104.263 219.174 105.165 219.504 106.221 219.504C107.087 219.504 107.805 219.306 108.377 218.91C108.964 218.499 109.375 217.957 109.609 217.282H111.765C111.443 218.441 110.797 219.387 109.829 220.12C108.861 220.839 107.659 221.198 106.221 221.198C105.077 221.198 104.051 220.941 103.141 220.428C102.247 219.915 101.543 219.189 101.029 218.25C100.516 217.297 100.259 216.197 100.259 214.95C100.259 213.703 100.509 212.611 101.007 211.672C101.506 210.733 102.203 210.015 103.097 209.516C104.007 209.003 105.048 208.746 106.221 208.746C107.365 208.746 108.377 208.995 109.257 209.494C110.137 209.993 110.812 210.682 111.281 211.562C111.765 212.427 112.007 213.41 112.007 214.51ZM109.939 214.092C109.939 213.329 109.771 212.677 109.433 212.134C109.096 211.577 108.634 211.159 108.047 210.88C107.475 210.587 106.837 210.44 106.133 210.44C105.121 210.44 104.256 210.763 103.537 211.408C102.833 212.053 102.43 212.948 102.327 214.092H109.939ZM116.652 210.902C117.004 210.213 117.503 209.677 118.148 209.296C118.808 208.915 119.607 208.724 120.546 208.724V210.792H120.018C117.774 210.792 116.652 212.009 116.652 214.444V221H114.65V208.944H116.652V210.902ZM125.299 210.594V217.7C125.299 218.287 125.424 218.705 125.673 218.954C125.922 219.189 126.355 219.306 126.971 219.306H128.445V221H126.641C125.526 221 124.69 220.743 124.133 220.23C123.576 219.717 123.297 218.873 123.297 217.7V210.594H121.735V208.944H123.297V205.908H125.299V208.944H128.445V210.594H125.299ZM141.255 208.944L133.995 226.676H131.927L134.303 220.868L129.441 208.944H131.663L135.447 218.712L139.187 208.944H141.255Z" fill="black"/>
<rect x="266.5" y="161.5" width="185" height="77" rx="8.5" stroke="#AE3D2B" stroke-width="3"/>
<path d="M320.696 206.372H326.064V208H318.694V192.666H320.696V206.372ZM333.448 208.198C332.319 208.198 331.292 207.941 330.368 207.428C329.459 206.915 328.74 206.189 328.212 205.25C327.699 204.297 327.442 203.197 327.442 201.95C327.442 200.718 327.706 199.633 328.234 198.694C328.777 197.741 329.51 197.015 330.434 196.516C331.358 196.003 332.392 195.746 333.536 195.746C334.68 195.746 335.714 196.003 336.638 196.516C337.562 197.015 338.288 197.733 338.816 198.672C339.359 199.611 339.63 200.703 339.63 201.95C339.63 203.197 339.351 204.297 338.794 205.25C338.251 206.189 337.511 206.915 336.572 207.428C335.633 207.941 334.592 208.198 333.448 208.198ZM333.448 206.438C334.167 206.438 334.841 206.269 335.472 205.932C336.103 205.595 336.609 205.089 336.99 204.414C337.386 203.739 337.584 202.918 337.584 201.95C337.584 200.982 337.393 200.161 337.012 199.486C336.631 198.811 336.132 198.313 335.516 197.99C334.9 197.653 334.233 197.484 333.514 197.484C332.781 197.484 332.106 197.653 331.49 197.99C330.889 198.313 330.405 198.811 330.038 199.486C329.671 200.161 329.488 200.982 329.488 201.95C329.488 202.933 329.664 203.761 330.016 204.436C330.383 205.111 330.867 205.617 331.468 205.954C332.069 206.277 332.729 206.438 333.448 206.438ZM341.514 201.95C341.514 200.703 341.764 199.618 342.262 198.694C342.761 197.755 343.45 197.029 344.33 196.516C345.225 196.003 346.244 195.746 347.388 195.746C348.87 195.746 350.087 196.105 351.04 196.824C352.008 197.543 352.646 198.54 352.954 199.816H350.798C350.593 199.083 350.19 198.503 349.588 198.078C349.002 197.653 348.268 197.44 347.388 197.44C346.244 197.44 345.32 197.836 344.616 198.628C343.912 199.405 343.56 200.513 343.56 201.95C343.56 203.402 343.912 204.524 344.616 205.316C345.32 206.108 346.244 206.504 347.388 206.504C348.268 206.504 349.002 206.299 349.588 205.888C350.175 205.477 350.578 204.891 350.798 204.128H352.954C352.632 205.36 351.986 206.35 351.018 207.098C350.05 207.831 348.84 208.198 347.388 208.198C346.244 208.198 345.225 207.941 344.33 207.428C343.45 206.915 342.761 206.189 342.262 205.25C341.764 204.311 341.514 203.211 341.514 201.95ZM354.878 201.928C354.878 200.696 355.127 199.618 355.626 198.694C356.124 197.755 356.806 197.029 357.672 196.516C358.552 196.003 359.527 195.746 360.598 195.746C361.654 195.746 362.57 195.973 363.348 196.428C364.125 196.883 364.704 197.455 365.086 198.144V195.944H367.11V208H365.086V205.756C364.69 206.46 364.096 207.047 363.304 207.516C362.526 207.971 361.617 208.198 360.576 208.198C359.505 208.198 358.537 207.934 357.672 207.406C356.806 206.878 356.124 206.137 355.626 205.184C355.127 204.231 354.878 203.145 354.878 201.928ZM365.086 201.95C365.086 201.041 364.902 200.249 364.536 199.574C364.169 198.899 363.67 198.386 363.04 198.034C362.424 197.667 361.742 197.484 360.994 197.484C360.246 197.484 359.564 197.66 358.948 198.012C358.332 198.364 357.84 198.877 357.474 199.552C357.107 200.227 356.924 201.019 356.924 201.928C356.924 202.852 357.107 203.659 357.474 204.348C357.84 205.023 358.332 205.543 358.948 205.91C359.564 206.262 360.246 206.438 360.994 206.438C361.742 206.438 362.424 206.262 363.04 205.91C363.67 205.543 364.169 205.023 364.536 204.348C364.902 203.659 365.086 202.859 365.086 201.95ZM372.495 191.72V208H370.493V191.72H372.495ZM376.941 193.986C376.56 193.986 376.237 193.854 375.973 193.59C375.709 193.326 375.577 193.003 375.577 192.622C375.577 192.241 375.709 191.918 375.973 191.654C376.237 191.39 376.56 191.258 376.941 191.258C377.308 191.258 377.616 191.39 377.865 191.654C378.129 191.918 378.261 192.241 378.261 192.622C378.261 193.003 378.129 193.326 377.865 193.59C377.616 193.854 377.308 193.986 376.941 193.986ZM377.909 195.944V208H375.907V195.944H377.909ZM383.763 197.594V204.7C383.763 205.287 383.888 205.705 384.137 205.954C384.386 206.189 384.819 206.306 385.435 206.306H386.909V208H385.105C383.99 208 383.154 207.743 382.597 207.23C382.04 206.717 381.761 205.873 381.761 204.7V197.594H380.199V195.944H381.761V192.908H383.763V195.944H386.909V197.594H383.763ZM399.719 195.944L392.459 213.676H390.391L392.767 207.868L387.905 195.944H390.127L393.911 205.712L397.651 195.944H399.719Z" fill="black"/>
<rect x="130.5" y="272.5" width="209" height="84" rx="8.5" stroke="#018191" stroke-width="3"/>
<path d="M196.863 294.666V296.294H192.683V310H190.681V296.294H186.479V294.666H196.863ZM201.33 299.902C201.682 299.213 202.18 298.677 202.826 298.296C203.486 297.915 204.285 297.724 205.224 297.724V299.792H204.696C202.452 299.792 201.33 301.009 201.33 303.444V310H199.328V297.944H201.33V299.902ZM218.535 303.51C218.535 303.891 218.513 304.295 218.469 304.72H208.833C208.906 305.908 209.309 306.839 210.043 307.514C210.791 308.174 211.693 308.504 212.749 308.504C213.614 308.504 214.333 308.306 214.905 307.91C215.491 307.499 215.902 306.957 216.137 306.282H218.293C217.97 307.441 217.325 308.387 216.357 309.12C215.389 309.839 214.186 310.198 212.749 310.198C211.605 310.198 210.578 309.941 209.669 309.428C208.774 308.915 208.07 308.189 207.557 307.25C207.043 306.297 206.787 305.197 206.787 303.95C206.787 302.703 207.036 301.611 207.535 300.672C208.033 299.733 208.73 299.015 209.625 298.516C210.534 298.003 211.575 297.746 212.749 297.746C213.893 297.746 214.905 297.995 215.785 298.494C216.665 298.993 217.339 299.682 217.809 300.562C218.293 301.427 218.535 302.41 218.535 303.51ZM216.467 303.092C216.467 302.329 216.298 301.677 215.961 301.134C215.623 300.577 215.161 300.159 214.575 299.88C214.003 299.587 213.365 299.44 212.661 299.44C211.649 299.44 210.783 299.763 210.065 300.408C209.361 301.053 208.957 301.948 208.855 303.092H216.467ZM227.051 297.724C228.518 297.724 229.706 298.171 230.615 299.066C231.525 299.946 231.979 301.222 231.979 302.894V310H229.999V303.18C229.999 301.977 229.699 301.061 229.097 300.43C228.496 299.785 227.675 299.462 226.633 299.462C225.577 299.462 224.734 299.792 224.103 300.452C223.487 301.112 223.179 302.073 223.179 303.334V310H221.177V297.944H223.179V299.66C223.575 299.044 224.111 298.567 224.785 298.23C225.475 297.893 226.23 297.724 227.051 297.724ZM234.502 303.928C234.502 302.696 234.751 301.618 235.25 300.694C235.748 299.755 236.43 299.029 237.296 298.516C238.176 298.003 239.158 297.746 240.244 297.746C241.182 297.746 242.055 297.966 242.862 298.406C243.668 298.831 244.284 299.396 244.71 300.1V293.72H246.734V310H244.71V307.734C244.314 308.453 243.727 309.047 242.95 309.516C242.172 309.971 241.263 310.198 240.222 310.198C239.151 310.198 238.176 309.934 237.296 309.406C236.43 308.878 235.748 308.137 235.25 307.184C234.751 306.231 234.502 305.145 234.502 303.928ZM244.71 303.95C244.71 303.041 244.526 302.249 244.16 301.574C243.793 300.899 243.294 300.386 242.664 300.034C242.048 299.667 241.366 299.484 240.618 299.484C239.87 299.484 239.188 299.66 238.572 300.012C237.956 300.364 237.464 300.877 237.098 301.552C236.731 302.227 236.548 303.019 236.548 303.928C236.548 304.852 236.731 305.659 237.098 306.348C237.464 307.023 237.956 307.543 238.572 307.91C239.188 308.262 239.87 308.438 240.618 308.438C241.366 308.438 242.048 308.262 242.664 307.91C243.294 307.543 243.793 307.023 244.16 306.348C244.526 305.659 244.71 304.859 244.71 303.95ZM254.385 310.198C253.461 310.198 252.632 310.044 251.899 309.736C251.166 309.413 250.586 308.973 250.161 308.416C249.736 307.844 249.501 307.191 249.457 306.458H251.525C251.584 307.059 251.862 307.551 252.361 307.932C252.874 308.313 253.542 308.504 254.363 308.504C255.126 308.504 255.727 308.335 256.167 307.998C256.607 307.661 256.827 307.235 256.827 306.722C256.827 306.194 256.592 305.805 256.123 305.556C255.654 305.292 254.928 305.035 253.945 304.786C253.05 304.551 252.317 304.317 251.745 304.082C251.188 303.833 250.704 303.473 250.293 303.004C249.897 302.52 249.699 301.889 249.699 301.112C249.699 300.496 249.882 299.931 250.249 299.418C250.616 298.905 251.136 298.501 251.811 298.208C252.486 297.9 253.256 297.746 254.121 297.746C255.456 297.746 256.534 298.083 257.355 298.758C258.176 299.433 258.616 300.357 258.675 301.53H256.673C256.629 300.899 256.372 300.393 255.903 300.012C255.448 299.631 254.832 299.44 254.055 299.44C253.336 299.44 252.764 299.594 252.339 299.902C251.914 300.21 251.701 300.613 251.701 301.112C251.701 301.508 251.826 301.838 252.075 302.102C252.339 302.351 252.662 302.557 253.043 302.718C253.439 302.865 253.982 303.033 254.671 303.224C255.536 303.459 256.24 303.693 256.783 303.928C257.326 304.148 257.788 304.485 258.169 304.94C258.565 305.395 258.77 305.989 258.785 306.722C258.785 307.382 258.602 307.976 258.235 308.504C257.868 309.032 257.348 309.45 256.673 309.758C256.013 310.051 255.25 310.198 254.385 310.198ZM268.51 295.986C268.129 295.986 267.806 295.854 267.542 295.59C267.278 295.326 267.146 295.003 267.146 294.622C267.146 294.241 267.278 293.918 267.542 293.654C267.806 293.39 268.129 293.258 268.51 293.258C268.877 293.258 269.185 293.39 269.434 293.654C269.698 293.918 269.83 294.241 269.83 294.622C269.83 295.003 269.698 295.326 269.434 295.59C269.185 295.854 268.877 295.986 268.51 295.986ZM269.478 297.944V310H267.476V297.944H269.478ZM278.764 297.724C280.231 297.724 281.419 298.171 282.328 299.066C283.238 299.946 283.692 301.222 283.692 302.894V310H281.712V303.18C281.712 301.977 281.412 301.061 280.81 300.43C280.209 299.785 279.388 299.462 278.346 299.462C277.29 299.462 276.447 299.792 275.816 300.452C275.2 301.112 274.892 302.073 274.892 303.334V310H272.89V297.944H274.892V299.66C275.288 299.044 275.824 298.567 276.498 298.23C277.188 297.893 277.943 297.724 278.764 297.724ZM156.854 323.724C157.763 323.724 158.584 323.922 159.318 324.318C160.051 324.699 160.623 325.279 161.034 326.056C161.459 326.833 161.672 327.779 161.672 328.894V336H159.692V329.18C159.692 327.977 159.391 327.061 158.79 326.43C158.188 325.785 157.367 325.462 156.326 325.462C155.27 325.462 154.426 325.792 153.796 326.452C153.18 327.112 152.872 328.073 152.872 329.334V336H150.87V319.72H152.872V325.66C153.268 325.044 153.81 324.567 154.5 324.23C155.204 323.893 155.988 323.724 156.854 323.724ZM170.2 336.198C169.071 336.198 168.044 335.941 167.12 335.428C166.211 334.915 165.492 334.189 164.964 333.25C164.451 332.297 164.194 331.197 164.194 329.95C164.194 328.718 164.458 327.633 164.986 326.694C165.529 325.741 166.262 325.015 167.186 324.516C168.11 324.003 169.144 323.746 170.288 323.746C171.432 323.746 172.466 324.003 173.39 324.516C174.314 325.015 175.04 325.733 175.568 326.672C176.111 327.611 176.382 328.703 176.382 329.95C176.382 331.197 176.103 332.297 175.546 333.25C175.003 334.189 174.263 334.915 173.324 335.428C172.385 335.941 171.344 336.198 170.2 336.198ZM170.2 334.438C170.919 334.438 171.593 334.269 172.224 333.932C172.855 333.595 173.361 333.089 173.742 332.414C174.138 331.739 174.336 330.918 174.336 329.95C174.336 328.982 174.145 328.161 173.764 327.486C173.383 326.811 172.884 326.313 172.268 325.99C171.652 325.653 170.985 325.484 170.266 325.484C169.533 325.484 168.858 325.653 168.242 325.99C167.641 326.313 167.157 326.811 166.79 327.486C166.423 328.161 166.24 328.982 166.24 329.95C166.24 330.933 166.416 331.761 166.768 332.436C167.135 333.111 167.619 333.617 168.22 333.954C168.821 334.277 169.481 334.438 170.2 334.438ZM189.706 323.944V336H187.704V334.218C187.323 334.834 186.788 335.318 186.098 335.67C185.424 336.007 184.676 336.176 183.854 336.176C182.916 336.176 182.072 335.985 181.324 335.604C180.576 335.208 179.982 334.621 179.542 333.844C179.117 333.067 178.904 332.121 178.904 331.006V323.944H180.884V330.742C180.884 331.93 181.185 332.847 181.786 333.492C182.388 334.123 183.209 334.438 184.25 334.438C185.321 334.438 186.164 334.108 186.78 333.448C187.396 332.788 187.704 331.827 187.704 330.566V323.944H189.706ZM197.355 336.198C196.431 336.198 195.602 336.044 194.869 335.736C194.135 335.413 193.556 334.973 193.131 334.416C192.705 333.844 192.471 333.191 192.427 332.458H194.495C194.553 333.059 194.832 333.551 195.331 333.932C195.844 334.313 196.511 334.504 197.333 334.504C198.095 334.504 198.697 334.335 199.137 333.998C199.577 333.661 199.797 333.235 199.797 332.722C199.797 332.194 199.562 331.805 199.093 331.556C198.623 331.292 197.897 331.035 196.915 330.786C196.02 330.551 195.287 330.317 194.715 330.082C194.157 329.833 193.673 329.473 193.263 329.004C192.867 328.52 192.669 327.889 192.669 327.112C192.669 326.496 192.852 325.931 193.219 325.418C193.585 324.905 194.106 324.501 194.781 324.208C195.455 323.9 196.225 323.746 197.091 323.746C198.425 323.746 199.503 324.083 200.325 324.758C201.146 325.433 201.586 326.357 201.645 327.53H199.643C199.599 326.899 199.342 326.393 198.873 326.012C198.418 325.631 197.802 325.44 197.025 325.44C196.306 325.44 195.734 325.594 195.309 325.902C194.883 326.21 194.671 326.613 194.671 327.112C194.671 327.508 194.795 327.838 195.045 328.102C195.309 328.351 195.631 328.557 196.013 328.718C196.409 328.865 196.951 329.033 197.641 329.224C198.506 329.459 199.21 329.693 199.753 329.928C200.295 330.148 200.757 330.485 201.139 330.94C201.535 331.395 201.74 331.989 201.755 332.722C201.755 333.382 201.571 333.976 201.205 334.504C200.838 335.032 200.317 335.45 199.643 335.758C198.983 336.051 198.22 336.198 197.355 336.198ZM205.615 321.986C205.233 321.986 204.911 321.854 204.647 321.59C204.383 321.326 204.251 321.003 204.251 320.622C204.251 320.241 204.383 319.918 204.647 319.654C204.911 319.39 205.233 319.258 205.615 319.258C205.981 319.258 206.289 319.39 206.539 319.654C206.803 319.918 206.935 320.241 206.935 320.622C206.935 321.003 206.803 321.326 206.539 321.59C206.289 321.854 205.981 321.986 205.615 321.986ZM206.583 323.944V336H204.581V323.944H206.583ZM215.869 323.724C217.335 323.724 218.523 324.171 219.433 325.066C220.342 325.946 220.797 327.222 220.797 328.894V336H218.817V329.18C218.817 327.977 218.516 327.061 217.915 326.43C217.313 325.785 216.492 325.462 215.451 325.462C214.395 325.462 213.551 325.792 212.921 326.452C212.305 327.112 211.997 328.073 211.997 329.334V336H209.995V323.944H211.997V325.66C212.393 325.044 212.928 324.567 213.603 324.23C214.292 323.893 215.047 323.724 215.869 323.724ZM229.039 323.746C230.08 323.746 230.99 323.973 231.767 324.428C232.559 324.883 233.146 325.455 233.527 326.144V323.944H235.551V336.264C235.551 337.364 235.316 338.339 234.847 339.19C234.378 340.055 233.703 340.73 232.823 341.214C231.958 341.698 230.946 341.94 229.787 341.94C228.203 341.94 226.883 341.566 225.827 340.818C224.771 340.07 224.148 339.051 223.957 337.76H225.937C226.157 338.493 226.612 339.08 227.301 339.52C227.99 339.975 228.819 340.202 229.787 340.202C230.887 340.202 231.782 339.857 232.471 339.168C233.175 338.479 233.527 337.511 233.527 336.264V333.734C233.131 334.438 232.544 335.025 231.767 335.494C230.99 335.963 230.08 336.198 229.039 336.198C227.968 336.198 226.993 335.934 226.113 335.406C225.248 334.878 224.566 334.137 224.067 333.184C223.568 332.231 223.319 331.145 223.319 329.928C223.319 328.696 223.568 327.618 224.067 326.694C224.566 325.755 225.248 325.029 226.113 324.516C226.993 324.003 227.968 323.746 229.039 323.746ZM233.527 329.95C233.527 329.041 233.344 328.249 232.977 327.574C232.61 326.899 232.112 326.386 231.481 326.034C230.865 325.667 230.183 325.484 229.435 325.484C228.687 325.484 228.005 325.66 227.389 326.012C226.773 326.364 226.282 326.877 225.915 327.552C225.548 328.227 225.365 329.019 225.365 329.928C225.365 330.852 225.548 331.659 225.915 332.348C226.282 333.023 226.773 333.543 227.389 333.91C228.005 334.262 228.687 334.438 229.435 334.438C230.183 334.438 230.865 334.262 231.481 333.91C232.112 333.543 232.61 333.023 232.977 332.348C233.344 331.659 233.527 330.859 233.527 329.95ZM259.297 323.724C260.236 323.724 261.072 323.922 261.805 324.318C262.539 324.699 263.118 325.279 263.543 326.056C263.969 326.833 264.181 327.779 264.181 328.894V336H262.201V329.18C262.201 327.977 261.901 327.061 261.299 326.43C260.713 325.785 259.913 325.462 258.901 325.462C257.86 325.462 257.031 325.799 256.415 326.474C255.799 327.134 255.491 328.095 255.491 329.356V336H253.511V329.18C253.511 327.977 253.211 327.061 252.609 326.43C252.023 325.785 251.223 325.462 250.211 325.462C249.17 325.462 248.341 325.799 247.725 326.474C247.109 327.134 246.801 328.095 246.801 329.356V336H244.799V323.944H246.801V325.682C247.197 325.051 247.725 324.567 248.385 324.23C249.06 323.893 249.801 323.724 250.607 323.724C251.619 323.724 252.514 323.951 253.291 324.406C254.069 324.861 254.648 325.528 255.029 326.408C255.367 325.557 255.924 324.897 256.701 324.428C257.479 323.959 258.344 323.724 259.297 323.724ZM266.717 329.928C266.717 328.696 266.967 327.618 267.465 326.694C267.964 325.755 268.646 325.029 269.511 324.516C270.391 324.003 271.367 323.746 272.437 323.746C273.493 323.746 274.41 323.973 275.187 324.428C275.965 324.883 276.544 325.455 276.925 326.144V323.944H278.949V336H276.925V333.756C276.529 334.46 275.935 335.047 275.143 335.516C274.366 335.971 273.457 336.198 272.415 336.198C271.345 336.198 270.377 335.934 269.511 335.406C268.646 334.878 267.964 334.137 267.465 333.184C266.967 332.231 266.717 331.145 266.717 329.928ZM276.925 329.95C276.925 329.041 276.742 328.249 276.375 327.574C276.009 326.899 275.51 326.386 274.879 326.034C274.263 325.667 273.581 325.484 272.833 325.484C272.085 325.484 271.403 325.66 270.787 326.012C270.171 326.364 269.68 326.877 269.313 327.552C268.947 328.227 268.763 329.019 268.763 329.928C268.763 330.852 268.947 331.659 269.313 332.348C269.68 333.023 270.171 333.543 270.787 333.91C271.403 334.262 272.085 334.438 272.833 334.438C273.581 334.438 274.263 334.262 274.879 333.91C275.51 333.543 276.009 333.023 276.375 332.348C276.742 331.659 276.925 330.859 276.925 329.95ZM284.335 325.902C284.687 325.213 285.185 324.677 285.831 324.296C286.491 323.915 287.29 323.724 288.229 323.724V325.792H287.701C285.457 325.792 284.335 327.009 284.335 329.444V336H282.333V323.944H284.335V325.902ZM297.272 336L292.542 330.676V336H290.54V319.72H292.542V329.29L297.184 323.944H299.978L294.302 329.95L300 336H297.272ZM312.862 329.51C312.862 329.891 312.84 330.295 312.796 330.72H303.16C303.233 331.908 303.637 332.839 304.37 333.514C305.118 334.174 306.02 334.504 307.076 334.504C307.941 334.504 308.66 334.306 309.232 333.91C309.819 333.499 310.229 332.957 310.464 332.282H312.62C312.297 333.441 311.652 334.387 310.684 335.12C309.716 335.839 308.513 336.198 307.076 336.198C305.932 336.198 304.905 335.941 303.996 335.428C303.101 334.915 302.397 334.189 301.884 333.25C301.371 332.297 301.114 331.197 301.114 329.95C301.114 328.703 301.363 327.611 301.862 326.672C302.361 325.733 303.057 325.015 303.952 324.516C304.861 324.003 305.903 323.746 307.076 323.746C308.22 323.746 309.232 323.995 310.112 324.494C310.992 324.993 311.667 325.682 312.136 326.562C312.62 327.427 312.862 328.41 312.862 329.51ZM310.794 329.092C310.794 328.329 310.625 327.677 310.288 327.134C309.951 326.577 309.489 326.159 308.902 325.88C308.33 325.587 307.692 325.44 306.988 325.44C305.976 325.44 305.111 325.763 304.392 326.408C303.688 327.053 303.285 327.948 303.182 329.092H310.794ZM317.947 325.594V332.7C317.947 333.287 318.071 333.705 318.321 333.954C318.57 334.189 319.003 334.306 319.619 334.306H321.093V336H319.289C318.174 336 317.338 335.743 316.781 335.23C316.223 334.717 315.945 333.873 315.945 332.7V325.594H314.383V323.944H315.945V320.908H317.947V323.944H321.093V325.594H317.947Z" fill="black"/>
<path d="M223 262L228.774 252L217.227 252L223 262ZM222 44L222 253L224 253L224 44L222 44Z" fill="black"/>
<path d="M359 153L364.774 143L353.227 143L359 153ZM358 64L358 144L360 144L360 64L358 64Z" fill="black"/>
<path d="M84 153L89.7735 143L78.2265 143L84 153ZM83 64L83 144L85 144L85 64L83 64Z" fill="black"/>
<line x1="83" y1="65" x2="359" y2="65" stroke="black" stroke-width="2"/>
<defs>
<linearGradient id="paint0_linear_873_25018" x1="259.504" y1="4.19531" x2="259.504" y2="22.1953" gradientUnits="userSpaceOnUse">
<stop offset="0.473512" stop-color="#018191"/>
<stop offset="1" stop-color="#004F59"/>
</linearGradient>
</defs>
</svg>
