<svg xmlns="http://www.w3.org/2000/svg" width="250" height="250" viewBox="0 0 250 250" fill="none">
<path d="M125 20.833C67.6039 20.833 20.833 67.6039 20.833 125C20.833 182.396 67.6039 229.166 125 229.166C182.396 229.166 229.166 182.396 229.166 125C229.166 67.6039 182.396 20.833 125 20.833ZM174.791 101.041L115.729 160.104C114.271 161.562 112.291 162.396 110.208 162.396C108.125 162.396 106.146 161.562 104.687 160.104L75.208 130.625C72.1872 127.604 72.1872 122.604 75.208 119.583C78.2289 116.562 83.2289 116.562 86.2497 119.583L110.208 143.541L163.75 89.9997C166.771 86.9789 171.771 86.9789 174.791 89.9997C177.812 93.0205 177.812 97.9164 174.791 101.041Z" fill="#018191"/>
</svg>