<svg xmlns="http://www.w3.org/2000/svg" xmlns:xlink="http://www.w3.org/1999/xlink" viewBox="0 0 1600 1200" width="1600" height="1200" preserveAspectRatio="xMidYMid meet" style="width: 100%; height: 100%; transform: translate3d(0px, 0px, 0px); content-visibility: visible;"><defs><clipPath id="__lottie_element_3510"><rect width="1600" height="1200" x="0" y="0"></rect></clipPath><radialGradient id="__lottie_element_3514" spreadMethod="pad" gradientUnits="userSpaceOnUse" cx="0" cy="0" r="34" fx="0" fy="0"><stop offset="0%" stop-color="rgb(63,176,242)"></stop><stop offset="54%" stop-color="rgb(122,194,235)"></stop><stop offset="100%" stop-color="rgb(0,0,0)"></stop></radialGradient><radialGradient id="__lottie_element_3515" spreadMethod="pad" gradientUnits="userSpaceOnUse" cx="0" cy="0" r="34" fx="0" fy="0"><stop offset="0%" stop-color="rgb(63,176,242)"></stop><stop offset="54%" stop-color="rgb(122,194,235)"></stop><stop offset="100%" stop-color="rgb(0,0,0)"></stop></radialGradient><g id="__lottie_element_3516"><g transform="matrix(0.8999999761581421,0,0,0.8999999761581421,67.39935302734375,29.39984130859375)" opacity="1" style="display: block;"><g opacity="1" transform="matrix(1,0,0,1,818.2150268554688,638.6740112304688)"><path stroke-linecap="butt" stroke-linejoin="miter" fill-opacity="0" stroke-miterlimit="4" stroke-dasharray=" 15" stroke-dashoffset="0" stroke="rgb(241,244,245)" stroke-opacity="1" stroke-width="40" d=" M0,-340 C187.64599609375,-340 340,-187.64599609375 340,0 C340,187.64599609375 187.64599609375,340 0,340 C-187.64599609375,340 -340,187.64599609375 -340,0 C-340,-187.64599609375 -187.64599609375,-340 0,-340z"></path></g></g></g><radialGradient id="__lottie_element_3522" spreadMethod="pad" gradientUnits="userSpaceOnUse" cx="-360" cy="2.1080000400543213" r="360.04821297088534" fx="-360" fy="2.1080000400543213"><stop offset="0%" stop-color="rgb(115,200,250)" stop-opacity="1"></stop><stop offset="36%" stop-color="rgb(78,179,237)" stop-opacity="1"></stop><stop offset="100%" stop-color="rgb(235,236,237)" stop-opacity="0.9700000286102295"></stop></radialGradient><mask id="__lottie_element_3516_1" mask-type="alpha"><use xlink:href="#__lottie_element_3516"></use></mask><radialGradient id="__lottie_element_3527" spreadMethod="pad" gradientUnits="userSpaceOnUse" cx="3.3610000610351562" cy="6.7230000495910645" r="253.0704305811832" fx="3.3610000610351562" fy="6.7230000495910645"><stop offset="64%" stop-color="rgb(209,209,209)" stop-opacity="1"></stop><stop offset="77%" stop-color="rgb(226,232,235)" stop-opacity="0.9900000095367432"></stop><stop offset="87%" stop-color="rgb(228,232,234)" stop-opacity="0.9700000286102295"></stop><stop offset="93%" stop-color="rgb(223,224,226)" stop-opacity="1"></stop><stop offset="100%" stop-color="rgb(183,195,206)" stop-opacity="1"></stop></radialGradient><radialGradient id="__lottie_element_3530" spreadMethod="pad" gradientUnits="userSpaceOnUse" cx="-162.7030029296875" cy="2.86299991607666" r="352.5976063796027" fx="-159.1669076054629" fy="1.096866245765541"><stop offset="0%" stop-color="rgb(255,255,255)" stop-opacity="1"></stop><stop offset="47%" stop-color="rgb(236,250,255)" stop-opacity="0.9900000095367432"></stop><stop offset="100%" stop-color="rgb(230,232,235)" stop-opacity="0.9700000286102295"></stop></radialGradient></defs><g clip-path="url(#__lottie_element_3510)"><g transform="matrix(1.0081199407577515,0,0,1.0081199407577515,733.9217529296875,539.0046997070312)" opacity="1" style="display: block;"><g opacity="1" transform="matrix(1,0,0,1,65.5459976196289,60.50400161743164)"><path fill="url(#__lottie_element_3527)" fill-opacity="1" d=" M0,-250.4199981689453 C138.20680236816406,-250.4199981689453 250.4199981689453,-138.20680236816406 250.4199981689453,0 C250.4199981689453,138.20680236816406 138.20680236816406,250.4199981689453 0,250.4199981689453 C-138.20680236816406,250.4199981689453 -250.4199981689453,138.20680236816406 -250.4199981689453,0 C-250.4199981689453,-138.20680236816406 -138.20680236816406,-250.4199981689453 0,-250.4199981689453z"></path></g></g><g transform="matrix(0.7273585200309753,0,0,0.7273585200309753,752.3245239257812,555.9918823242188)" opacity="1" style="display: block;"><g opacity="1" transform="matrix(1,0,0,1,65.5459976196289,60.50400161743164)"><path fill="url(#__lottie_element_3530)" fill-opacity="1" d=" M0,-250.4199981689453 C138.20680236816406,-250.4199981689453 250.4199981689453,-138.20680236816406 250.4199981689453,0 C250.4199981689453,138.20680236816406 138.20680236816406,250.4199981689453 0,250.4199981689453 C-138.20680236816406,250.4199981689453 -250.4199981689453,138.20680236816406 -250.4199981689453,0 C-250.4199981689453,-138.20680236816406 -138.20680236816406,-250.4199981689453 0,-250.4199981689453z"></path></g></g><g mask="url(#__lottie_element_3516_1)" style="display: block;"><g transform="matrix(-0.8865272998809814,0.15514294803142548,-0.15514294803142548,-0.8865272998809814,1580.809814453125,1000.4812622070312)" opacity="1"><g opacity="1" transform="matrix(1,0,0,1,824,608)"><path fill="url(#__lottie_element_3522)" fill-opacity="1" d=" M0,-480 C264.9119873046875,-480 480,-264.9119873046875 480,0 C480,264.9119873046875 264.9119873046875,480 0,480 C-264.9119873046875,480 -480,264.9119873046875 -480,0 C-480,-264.9119873046875 -264.9119873046875,-480 0,-480z"></path></g></g></g><g transform="matrix(-1.2805393934249878,0.22409537434577942,-0.22409537434577942,-1.2805393934249878,834.5745239257812,540.1591796875)" opacity="1" style="display: block;"><g opacity="1" transform="matrix(1,0,0,1,41,0)"><g opacity="1" transform="matrix(1.36667001247406,0,0,1.36667001247406,-98,-40)"><path fill="url(#__lottie_element_3514)" fill-opacity="1" d=" M0,-35 C13.92004680633545,-35 25.2220458984375,-19.316499710083008 25.2220458984375,0 C25.2220458984375,19.316499710083008 13.92004680633545,35 0,35 C-13.92004680633545,35 -25.2220458984375,19.316499710083008 -25.2220458984375,0 C-25.2220458984375,-19.316499710083008 -13.92004680633545,-35 0,-35z"></path></g><g opacity="1" transform="matrix(0.6966699957847595,0,0,0.6966699957847595,-98,-40)"><path fill="url(#__lottie_element_3515)" fill-opacity="1" d=" M0,-35 C13.92004680633545,-35 25.2220458984375,-19.316499710083008 25.2220458984375,0 C25.2220458984375,19.316499710083008 13.92004680633545,35 0,35 C-13.92004680633545,35 -25.2220458984375,19.316499710083008 -25.2220458984375,0 C-25.2220458984375,-19.316499710083008 -13.92004680633545,-35 0,-35z"></path></g></g></g></g></svg>