<svg width="56" height="56" viewBox="0 0 56 56" fill="none" xmlns="http://www.w3.org/2000/svg">
<path d="M27.9998 55.6C43.2998 55.6 55.5998 43.2001 55.5998 27.9001C55.5998 12.6001 43.1998 0.300049 27.8998 0.300049C12.6998 0.300049 0.299805 12.7 0.299805 28C0.299805 43.3 12.6998 55.6 27.9998 55.6ZM27.9998 2.30005C42.1998 2.30005 53.5998 13.8 53.5998 28C53.5998 42.2 42.0998 53.7 27.8998 53.6C13.6998 53.6 2.2998 42.1001 2.2998 27.9001C2.2998 13.8001 13.7998 2.30005 27.9998 2.30005Z" fill="#0168A2"/>
<path d="M28.0002 30.2C33.9002 30.2 38.7002 25.3 38.7002 19.4C38.7002 13.4999 33.8002 8.69995 27.9002 8.69995C22.0002 8.69995 17.2002 13.4999 17.2002 19.4C17.2002 25.4 22.0002 30.2 28.0002 30.2ZM28.0002 10.7C32.8002 10.7 36.7002 14.7 36.7002 19.5C36.7002 24.3 32.7002 28.2 27.9002 28.2C23.1002 28.2 19.2002 24.2 19.2002 19.4C19.2002 14.5999 23.2002 10.7 28.0002 10.7Z" fill="#0168A2"/>
<path d="M12.3996 42.1001C20.3996 33.5001 33.8996 33.1001 42.4996 41.2001L43.3996 42.1001C43.7996 42.5001 44.3996 42.5001 44.7996 42.1001C45.1996 41.7001 45.1996 41.1001 44.7996 40.7001C35.9996 31.3001 21.2996 30.9001 11.8996 39.7001C11.4996 40.0001 11.1996 40.4001 10.8996 40.7001C10.4996 41.1001 10.4996 41.7001 10.8996 42.1001C11.3996 42.5001 11.9996 42.5001 12.3996 42.1001Z" fill="#0168A2"/>
</svg>
