<svg width="453" height="470" viewBox="0 0 453 470" fill="none" xmlns="http://www.w3.org/2000/svg">
<g clip-path="url(#clip0_1136_7325)">
<path d="M294.586 72.1218C298.098 72.1073 301.361 70.2864 303.535 67.5285C309.468 60.0016 319.324 54.2238 335.329 52.7897C354.169 51.1016 363.733 56.953 368.88 66.1337C371.093 70.0804 375.332 72.7545 379.842 72.3915C380.328 72.3525 380.82 72.3172 381.32 72.2859C419.556 69.8899 423.445 94.2352 419.556 106.783C416.75 115.838 398.9 117.485 383.308 117.7C379.276 117.755 376.036 120.786 373.233 123.685C367.554 129.56 356.519 128.835 345.844 128.835C333.098 128.835 312.113 125.496 301.872 116.37C299.696 114.431 297.008 112.978 294.094 112.944C279.303 112.775 264.529 110.534 260.058 106.534C250.981 98.412 252.017 74.6458 290.315 72.2658C291.783 72.1746 293.206 72.1275 294.586 72.1218Z" fill="#B5DFEA"/>
<path d="M217.974 94.4873C221.48 94.6025 224.791 92.8544 226.874 90.0321C235.052 78.9526 248.954 70.3657 272.004 68.2856C299.667 65.789 312.988 75.0346 319.878 89.1174C321.885 93.2199 326.265 95.8157 330.797 95.2492C332.858 94.9916 335.02 94.7884 337.29 94.6442C390.45 91.267 395.857 125.584 390.45 143.271C386.342 156.708 359.052 158.571 336.648 158.691C332.499 158.713 329.13 161.749 326.902 165.249C319.861 176.31 302.963 175.089 286.665 175.089C268.2 175.089 237.335 170.027 223.753 156.048C221.666 153.9 218.909 152.389 215.914 152.382C194.735 152.33 173.091 149.131 166.685 143.271C154.086 131.746 155.524 98.0215 208.684 94.6442C211.937 94.4376 215.032 94.3905 217.974 94.4873ZM181.533 33.4759C185.018 33.2836 188.239 31.4473 190.72 28.9917C194.394 25.3551 199.963 22.6635 208.286 21.9174C218.828 20.9725 224.56 23.938 227.818 28.7908C229.744 31.6604 232.964 33.726 236.414 33.5087C259.409 32.06 261.747 46.7804 259.409 54.3676C257.871 59.3547 248.827 60.6251 240.14 60.9102C236.053 61.0443 232.682 64.4652 229.03 66.3048C225.355 68.1562 219.922 67.8616 214.636 67.8616C207.509 67.8616 196.117 66.1323 189.559 61.4999C187.196 59.8311 184.518 58.3779 181.627 58.2883C173.365 58.0323 165.479 56.6896 162.973 54.4141C157.514 49.4567 158.137 34.9501 181.17 33.4974C181.291 33.4897 181.412 33.4826 181.533 33.4759Z" fill="#D7F0F9"/>
</g>
<path d="M37.6651 146.658V112.976C37.6651 89.1359 57.4795 69.7398 81.8292 69.7398C106.179 69.7398 125.993 89.1359 125.993 112.976V146.658H143.599V112.976C143.599 79.6339 115.89 52.5002 81.8292 52.5002C47.7683 52.5002 20.0596 79.6339 20.0596 112.976V146.658H37.6651Z" fill="#FFBF4D"/>
<path d="M141.564 146.893H20.3447C13.4762 146.893 7.9082 152.461 7.9082 159.33V246.011C7.9082 252.879 13.4762 258.447 20.3447 258.447H141.564C148.432 258.447 154 252.879 154 246.011V159.33C154 152.461 148.432 146.893 141.564 146.893Z" fill="#8F611D"/>
<path fill-rule="evenodd" clip-rule="evenodd" d="M72.3845 199.412C72.9388 199.757 73.2808 200.374 73.2174 201.024C73.2808 200.374 72.9388 199.757 72.3845 199.412ZM87.3729 201.022C87.3101 200.373 87.6519 199.757 88.2059 199.412C87.6522 199.757 87.3096 200.373 87.3729 201.022Z" fill="#FFE3AE"/>
<path d="M94.9795 187.296C94.8656 183.478 93.2685 179.853 90.5271 177.193C87.7857 174.532 84.1156 173.043 80.2952 173.043C76.4748 173.043 72.8047 174.532 70.0632 177.193C67.3218 179.853 65.7248 183.478 65.6108 187.296C65.6266 189.906 66.3527 192.463 67.7112 194.692C68.8818 196.613 70.484 198.227 72.3845 199.412C72.9388 199.757 73.2808 200.374 73.2174 201.024L71.0235 223.519C70.9316 224.462 71.6724 225.278 72.6195 225.278H87.9708C88.918 225.278 89.6588 224.462 89.5668 223.519L87.373 201.024C87.373 201.023 87.3729 201.023 87.3729 201.022C87.3096 200.373 87.6522 199.757 88.2059 199.412C90.1064 198.227 91.7086 196.613 92.8792 194.692C94.2377 192.463 94.9638 189.906 94.9795 187.296Z" fill="#FFE3AE"/>
<path d="M316.854 305.416H36.5259V362.369H316.854V305.416Z" fill="#FFBF4D"/>
<g style="mix-blend-mode:multiply" opacity="0.29">
<path d="M316.854 305.416H36.5259V319.244H316.854V305.416Z" fill="#C88E20"/>
</g>
<path d="M60.9015 305.416H86.4796L79.627 319.244H54.0298L60.9015 305.416Z" fill="#F77E2D"/>
<path d="M118.547 305.416H144.126L137.273 319.244H111.695L118.547 305.416Z" fill="#F77E2D"/>
<path d="M176.193 305.416H201.772L194.919 319.244H169.341L176.193 305.416Z" fill="#F77E2D"/>
<path d="M233.841 305.416H259.4L252.547 319.244H226.969L233.841 305.416Z" fill="#F77E2D"/>
<path d="M316.854 305.416V305.798L310.173 319.244H284.614L291.486 305.416H316.854Z" fill="#F77E2D"/>
<g filter="url(#filter0_d_1136_7325)">
<path d="M91.1756 362.369H71.4194V440.246H91.1756V362.369Z" fill="#79C9E8"/>
</g>
<g filter="url(#filter1_d_1136_7325)">
<path d="M91.1751 362.369H86.6895V440.246H91.1751V362.369Z" fill="#49B4D6"/>
</g>
<g filter="url(#filter2_d_1136_7325)">
<path d="M283.488 362.369H263.731V440.246H283.488V362.369Z" fill="#79C9E8"/>
</g>
<g filter="url(#filter3_d_1136_7325)">
<path d="M283.487 362.369H277.646V440.246H283.487V362.369Z" fill="#49B4D6"/>
</g>
<path d="M91.1756 362.312H71.4194V372.116H91.1756V362.312Z" fill="#49B4D6"/>
<path d="M283.488 362.312H263.731V372.116H283.488V362.312Z" fill="#49B4D6"/>
<path d="M91.1756 296.509H71.4194V305.359H91.1756V296.509Z" fill="#79C9E8"/>
<path d="M91.1751 296.509H86.6895V305.359H91.1751V296.509Z" fill="#49B4D6"/>
<path d="M283.488 296.509H263.731V305.359H283.488V296.509Z" fill="#79C9E8"/>
<path d="M283.487 296.509H277.646V305.359H283.487V296.509Z" fill="#49B4D6"/>
<path d="M91.1756 304.252H71.4194V305.359H91.1756V304.252Z" fill="#49B4D6"/>
<path d="M283.488 304.252H263.731V305.359H283.488V304.252Z" fill="#49B4D6"/>
<path d="M86.4795 305.416L58.21 362.369H36.5259V354.511L60.9014 305.416H86.4795Z" fill="#0582C1"/>
<path d="M118.547 305.416L90.2773 362.369H115.855L144.125 305.416H118.547Z" fill="#0582C1"/>
<path d="M201.771 305.416L173.502 362.369H147.924L176.193 305.416H201.771Z" fill="#0582C1"/>
<path d="M259.398 305.416L231.148 362.369H205.57L233.839 305.416H259.398Z" fill="#0582C1"/>
<path d="M291.485 305.416L263.216 362.369H288.775L316.853 305.798L291.485 305.416Z" fill="#0582C1"/>
<path d="M86.4796 305.416L79.627 319.244H54.0298L60.9015 305.416H86.4796Z" fill="#00668E"/>
<path d="M144.126 305.416L137.273 319.244H111.695L118.547 305.416H144.126Z" fill="#00668E"/>
<path d="M201.772 305.416L194.919 319.244H169.341L176.193 305.416H201.772Z" fill="#00668E"/>
<path d="M259.4 305.416L252.547 319.244H226.969L233.841 305.416H259.4Z" fill="#00668E"/>
<path d="M316.854 305.798L310.173 319.244H284.614L291.486 305.416L316.854 305.798Z" fill="#00668E"/>
<path style="mix-blend-mode:overlay" opacity="0.55" d="M312.024 330.059H44.3325V358.554H312.024V330.059Z" fill="url(#paint0_linear_1136_7325)"/>
<path d="M83.5721 301.561C93.1762 300 99.6952 290.955 98.1328 281.358C96.5704 271.761 87.5182 265.247 77.9141 266.808C68.3101 268.37 61.791 277.415 63.3534 287.012C64.9158 296.608 73.968 303.122 83.5721 301.561Z" fill="#FFBF4D"/>
<path d="M88.7692 284.149C88.7654 282.573 88.2943 281.033 87.4152 279.725C86.5362 278.416 85.2888 277.397 83.8305 276.797C82.3722 276.196 80.7686 276.041 79.2221 276.351C77.6756 276.661 76.2557 277.421 75.1417 278.537C74.0278 279.653 73.2698 281.074 72.9634 282.62C72.6571 284.166 72.8162 285.768 73.4207 287.223C74.0252 288.679 75.0478 289.923 76.3595 290.798C77.6712 291.674 79.2131 292.141 80.7903 292.141C81.8398 292.141 82.8788 291.934 83.8481 291.532C84.8174 291.13 85.6978 290.541 86.439 289.799C87.1801 289.056 87.7675 288.175 88.1673 287.206C88.5672 286.236 88.7717 285.198 88.7692 284.149Z" fill="#0582C1"/>
<path d="M276.284 301.578C285.888 300.017 292.407 290.972 290.845 281.375C289.282 271.778 280.23 265.264 270.626 266.826C261.022 268.387 254.503 277.432 256.065 287.029C257.628 296.625 266.68 303.139 276.284 301.578Z" fill="#FFBF4D"/>
<path d="M281.483 284.149C281.479 282.573 281.008 281.033 280.129 279.725C279.25 278.416 278.003 277.397 276.544 276.797C275.086 276.196 273.482 276.041 271.936 276.351C270.389 276.661 268.97 277.421 267.856 278.537C266.742 279.653 265.984 281.074 265.677 282.62C265.371 284.166 265.53 285.768 266.135 287.223C266.739 288.679 267.762 289.923 269.073 290.798C270.385 291.674 271.927 292.141 273.504 292.141C274.554 292.141 275.593 291.934 276.562 291.532C277.531 291.13 278.412 290.541 279.153 289.799C279.894 289.056 280.481 288.175 280.881 287.206C281.281 286.236 281.486 285.198 281.483 284.149Z" fill="#0582C1"/>
<path d="M441.812 430.766H320.961L339.458 386.005L346.873 367.935L348.94 363.005L352.272 354.925L352.944 353.299L360.384 335.229L361.753 331.951L374.928 299.993C375.452 298.711 376.346 297.613 377.496 296.841C378.646 296.068 380.001 295.656 381.387 295.656C382.773 295.656 384.127 296.068 385.278 296.841C386.428 297.613 387.322 298.711 387.845 299.993L401.021 331.951L402.39 335.229L409.804 353.299L410.502 354.925L413.834 363.005L415.875 367.935L423.315 386.005L441.812 430.766Z" fill="#FFBF4D"/>
<g style="mix-blend-mode:multiply" opacity="0.29">
<path d="M328.892 411.586L320.961 430.766H441.812L433.881 411.586H328.892Z" fill="#C88E20"/>
</g>
<g filter="url(#filter4_d_1136_7325)">
<path d="M449.691 419.305H311.299V438.846H449.691V419.305Z" fill="#79C9E8"/>
</g>
<path d="M449.692 419.305H419.802V438.846H449.692V419.305Z" fill="#49B4D6"/>
<g style="mix-blend-mode:multiply" opacity="0.29">
<path d="M437.059 419.304H419.957L406.213 386.03L398.799 367.96L396.732 363.004L393.477 354.924L392.805 353.272L385.365 335.202L383.919 331.976L372.81 305.026L374.877 299.863C375.4 298.581 376.294 297.483 377.444 296.711C378.595 295.938 379.949 295.526 381.335 295.526C382.721 295.526 384.076 295.938 385.226 296.711C386.376 297.483 387.27 298.581 387.794 299.863L400.969 331.821L402.338 335.099L409.752 353.169L410.45 354.821L413.783 362.875L415.823 367.831L423.264 385.901L437.059 419.304Z" fill="#C88E20"/>
</g>
<path d="M409.804 353.272H352.944L360.384 335.203H402.364L409.804 353.272Z" fill="#0582C1"/>
<path d="M423.315 385.979V386.005H339.433V385.979L346.873 367.909H415.875L423.315 385.979Z" fill="#0582C1"/>
<path d="M409.803 353.272H392.727L385.287 335.203H402.363L409.803 353.272Z" fill="#00668E"/>
<path d="M423.316 385.979V386.005H406.214V385.979L398.773 367.909H415.875L423.316 385.979Z" fill="#00668E"/>
<path d="M51.114 432.864H11.4707L17.5384 418.181L19.9705 412.253L20.6485 410.636L21.7417 407.985L21.962 407.452L24.4027 401.524L24.8518 400.449L29.1738 389.966C29.3455 389.545 29.6387 389.185 30.0161 388.932C30.3934 388.678 30.8377 388.543 31.2924 388.543C31.747 388.543 32.1913 388.678 32.5687 388.932C32.946 389.185 33.2392 389.545 33.411 389.966L37.7329 400.449L38.1821 401.524L40.6142 407.452L40.843 407.985L41.9362 410.636L42.6057 412.253L45.0463 418.181L51.114 432.864Z" fill="#FFBF4D"/>
<g style="mix-blend-mode:multiply" opacity="0.29">
<path d="M14.0723 426.573L11.4707 432.864H51.114L48.5123 426.573H14.0723Z" fill="#C88E20"/>
</g>
<g filter="url(#filter5_d_1136_7325)">
<path d="M53.6982 429.104H8.30078V435.515H53.6982V429.104Z" fill="#79C9E8"/>
</g>
<path d="M53.6985 429.104H43.8936V435.515H53.6985V429.104Z" fill="#49B4D6"/>
<g style="mix-blend-mode:multiply" opacity="0.29">
<path d="M49.5544 429.104H43.9443L39.4359 418.189L37.0038 412.262L36.3258 410.636L35.258 407.985L35.0377 407.443L32.5971 401.516L32.1225 400.457L28.4785 391.617L29.1565 389.923C29.3282 389.503 29.6214 389.143 29.9988 388.889C30.3761 388.636 30.8204 388.5 31.2751 388.5C31.7297 388.5 32.174 388.636 32.5514 388.889C32.9287 389.143 33.2219 389.503 33.3937 389.923L37.7156 400.407L38.1648 401.482L40.5969 407.409L40.8257 407.951L41.9189 410.593L42.5884 412.219L45.029 418.147L49.5544 429.104Z" fill="#C88E20"/>
</g>
<path d="M40.6136 407.444H21.9614L24.4021 401.516H38.173L40.6136 407.444Z" fill="#0582C1"/>
<path d="M45.0457 418.172V418.181H17.5293V418.172L19.9699 412.245H42.6051L45.0457 418.172Z" fill="#0582C1"/>
<path d="M40.6135 407.444H35.0119L32.5713 401.516H38.1729L40.6135 407.444Z" fill="#00668E"/>
<path d="M45.0458 418.172V418.181H39.4358V418.172L36.9951 412.245H42.6052L45.0458 418.172Z" fill="#00668E"/>
<defs>
<filter id="filter0_d_1136_7325" x="69.6891" y="362.369" width="23.217" height="81.3376" filterUnits="userSpaceOnUse" color-interpolation-filters="sRGB">
<feFlood flood-opacity="0" result="BackgroundImageFix"/>
<feColorMatrix in="SourceAlpha" type="matrix" values="0 0 0 0 0 0 0 0 0 0 0 0 0 0 0 0 0 0 127 0" result="hardAlpha"/>
<feOffset dy="1.73032"/>
<feGaussianBlur stdDeviation="0.865158"/>
<feComposite in2="hardAlpha" operator="out"/>
<feColorMatrix type="matrix" values="0 0 0 0 0 0 0 0 0 0 0 0 0 0 0 0 0 0 0.22 0"/>
<feBlend mode="normal" in2="BackgroundImageFix" result="effect1_dropShadow_1136_7325"/>
<feBlend mode="normal" in="SourceGraphic" in2="effect1_dropShadow_1136_7325" result="shape"/>
</filter>
<filter id="filter1_d_1136_7325" x="84.9591" y="362.369" width="7.94647" height="81.3376" filterUnits="userSpaceOnUse" color-interpolation-filters="sRGB">
<feFlood flood-opacity="0" result="BackgroundImageFix"/>
<feColorMatrix in="SourceAlpha" type="matrix" values="0 0 0 0 0 0 0 0 0 0 0 0 0 0 0 0 0 0 127 0" result="hardAlpha"/>
<feOffset dy="1.73032"/>
<feGaussianBlur stdDeviation="0.865158"/>
<feComposite in2="hardAlpha" operator="out"/>
<feColorMatrix type="matrix" values="0 0 0 0 0 0 0 0 0 0 0 0 0 0 0 0 0 0 0.22 0"/>
<feBlend mode="normal" in2="BackgroundImageFix" result="effect1_dropShadow_1136_7325"/>
<feBlend mode="normal" in="SourceGraphic" in2="effect1_dropShadow_1136_7325" result="shape"/>
</filter>
<filter id="filter2_d_1136_7325" x="262.001" y="362.369" width="23.217" height="81.3376" filterUnits="userSpaceOnUse" color-interpolation-filters="sRGB">
<feFlood flood-opacity="0" result="BackgroundImageFix"/>
<feColorMatrix in="SourceAlpha" type="matrix" values="0 0 0 0 0 0 0 0 0 0 0 0 0 0 0 0 0 0 127 0" result="hardAlpha"/>
<feOffset dy="1.73032"/>
<feGaussianBlur stdDeviation="0.865158"/>
<feComposite in2="hardAlpha" operator="out"/>
<feColorMatrix type="matrix" values="0 0 0 0 0 0 0 0 0 0 0 0 0 0 0 0 0 0 0.22 0"/>
<feBlend mode="normal" in2="BackgroundImageFix" result="effect1_dropShadow_1136_7325"/>
<feBlend mode="normal" in="SourceGraphic" in2="effect1_dropShadow_1136_7325" result="shape"/>
</filter>
<filter id="filter3_d_1136_7325" x="275.916" y="362.369" width="9.30145" height="81.3376" filterUnits="userSpaceOnUse" color-interpolation-filters="sRGB">
<feFlood flood-opacity="0" result="BackgroundImageFix"/>
<feColorMatrix in="SourceAlpha" type="matrix" values="0 0 0 0 0 0 0 0 0 0 0 0 0 0 0 0 0 0 127 0" result="hardAlpha"/>
<feOffset dy="1.73032"/>
<feGaussianBlur stdDeviation="0.865158"/>
<feComposite in2="hardAlpha" operator="out"/>
<feColorMatrix type="matrix" values="0 0 0 0 0 0 0 0 0 0 0 0 0 0 0 0 0 0 0.22 0"/>
<feBlend mode="normal" in2="BackgroundImageFix" result="effect1_dropShadow_1136_7325"/>
<feBlend mode="normal" in="SourceGraphic" in2="effect1_dropShadow_1136_7325" result="shape"/>
</filter>
<filter id="filter4_d_1136_7325" x="308.957" y="419.305" width="143.076" height="24.2246" filterUnits="userSpaceOnUse" color-interpolation-filters="sRGB">
<feFlood flood-opacity="0" result="BackgroundImageFix"/>
<feColorMatrix in="SourceAlpha" type="matrix" values="0 0 0 0 0 0 0 0 0 0 0 0 0 0 0 0 0 0 127 0" result="hardAlpha"/>
<feOffset dy="2.34181"/>
<feGaussianBlur stdDeviation="1.17091"/>
<feComposite in2="hardAlpha" operator="out"/>
<feColorMatrix type="matrix" values="0 0 0 0 0 0 0 0 0 0 0 0 0 0 0 0 0 0 0.22 0"/>
<feBlend mode="normal" in2="BackgroundImageFix" result="effect1_dropShadow_1136_7325"/>
<feBlend mode="normal" in="SourceGraphic" in2="effect1_dropShadow_1136_7325" result="shape"/>
</filter>
<filter id="filter5_d_1136_7325" x="7.53259" y="429.104" width="46.9339" height="7.94655" filterUnits="userSpaceOnUse" color-interpolation-filters="sRGB">
<feFlood flood-opacity="0" result="BackgroundImageFix"/>
<feColorMatrix in="SourceAlpha" type="matrix" values="0 0 0 0 0 0 0 0 0 0 0 0 0 0 0 0 0 0 127 0" result="hardAlpha"/>
<feOffset dy="0.768195"/>
<feGaussianBlur stdDeviation="0.384098"/>
<feComposite in2="hardAlpha" operator="out"/>
<feColorMatrix type="matrix" values="0 0 0 0 0 0 0 0 0 0 0 0 0 0 0 0 0 0 0.22 0"/>
<feBlend mode="normal" in2="BackgroundImageFix" result="effect1_dropShadow_1136_7325"/>
<feBlend mode="normal" in="SourceGraphic" in2="effect1_dropShadow_1136_7325" result="shape"/>
</filter>
<linearGradient id="paint0_linear_1136_7325" x1="178.178" y1="379.02" x2="178.178" y2="333.148" gradientUnits="userSpaceOnUse">
<stop stop-color="white"/>
<stop offset="0.12" stop-color="white" stop-opacity="0.82"/>
<stop offset="0.3" stop-color="white" stop-opacity="0.58"/>
<stop offset="0.47" stop-color="white" stop-opacity="0.37"/>
<stop offset="0.64" stop-color="white" stop-opacity="0.21"/>
<stop offset="0.78" stop-color="white" stop-opacity="0.1"/>
<stop offset="0.91" stop-color="white" stop-opacity="0.02"/>
<stop offset="1" stop-color="white" stop-opacity="0"/>
</linearGradient>
<clipPath id="clip0_1136_7325">
<rect width="319.118" height="175" fill="white" transform="translate(130.882)"/>
</clipPath>
</defs>
</svg>
