<svg width="97" height="97" viewBox="0 0 97 97" fill="none" xmlns="http://www.w3.org/2000/svg">
<g clip-path="url(#clip0_1429_10744)">
<path d="M80.16 41.9318C79.4821 42.115 78.889 42.0455 78.3807 41.7234C77.9082 41.3916 77.5302 40.8428 77.2467 40.0771L70.1165 20.0643C69.6528 18.7729 69.6538 17.6431 70.1197 16.6749C70.5759 15.671 71.4642 14.9907 72.7845 14.634C74.0691 14.2869 75.1434 14.4369 76.0075 15.0841C76.8976 15.6859 77.4674 16.6615 77.7171 18.0107L81.6358 38.8912C81.8122 39.6859 81.762 40.3503 81.4852 40.8846C81.2441 41.4092 80.8023 41.7583 80.16 41.9318ZM83.1681 53.0651C81.9549 53.3929 80.8723 53.2833 79.9205 52.7364C79.0044 52.1799 78.3872 51.3129 78.0691 50.1353C77.7606 48.9934 77.8667 47.9693 78.3876 47.0628C78.9345 46.1109 79.8145 45.4711 81.0278 45.1433C82.2767 44.8059 83.3414 44.9202 84.2218 45.4864C85.1283 46.0073 85.7358 46.8386 86.0443 47.9805C86.3625 49.158 86.266 50.2179 85.7548 51.1601C85.2793 52.0926 84.417 52.7276 83.1681 53.0651Z" fill="#018191"/>
<path d="M15.7842 46.064L40.5838 58.7712C41.0506 59.0104 41.604 59.0104 42.0708 58.7712L66.8703 46.064" stroke="#018191" stroke-width="5.77436"/>
<rect x="15.7842" y="36.2479" width="51.0861" height="39.2645" rx="1.63041" stroke="#018191" stroke-width="5.77436"/>
</g>
<defs>
<clipPath id="clip0_1429_10744">
<rect width="97" height="97" fill="white"/>
</clipPath>
</defs>
</svg>
