<svg width="16" height="16" viewBox="0 0 16 16" fill="none" xmlns="http://www.w3.org/2000/svg">
<g id="bathtub" clip-path="url(#clip0_421_633)">
<g id="Group">
<g id="Group_2">
<path id="Vector" d="M16 8.14062C16 7.41636 15.4107 6.82709 14.6864 6.82709H2.20441V2.55772C2.20441 2.06625 2.60424 1.66642 3.09571 1.66642H3.32906C3.57052 1.66642 3.79834 1.76458 3.96377 1.93211L3.92421 1.97167C3.25989 2.63599 3.25989 3.71688 3.92421 4.38128L4.14958 4.60664C4.24892 4.70599 4.37914 4.75569 4.50943 4.75569C4.63972 4.75569 4.76987 4.70606 4.86928 4.60664L7.09435 2.38158C7.29304 2.18289 7.29304 1.86063 7.09435 1.66194L6.86898 1.43658C6.54722 1.11474 6.11931 0.937544 5.66425 0.937544C5.31637 0.937544 4.98459 1.04137 4.70378 1.2339C4.34834 0.865363 3.85399 0.648682 3.32913 0.648682H3.09578C2.04311 0.648682 1.18667 1.50505 1.18667 2.55779V6.8336C0.521716 6.89766 0 7.45935 0 8.14069C0 8.6979 0.349351 9.17404 0.840123 9.36454V11.0417C0.840123 12.5209 1.89301 13.7589 3.28873 14.0458L2.85215 14.4824C2.65346 14.6811 2.65346 15.0033 2.85215 15.202C2.95149 15.3013 3.08171 15.351 3.212 15.351C3.34229 15.351 3.47244 15.3014 3.57185 15.202L4.66597 14.1084H11.3337L12.4282 15.202C12.5275 15.3013 12.6577 15.351 12.7881 15.351C12.9183 15.351 13.0485 15.3014 13.1479 15.202C13.3466 15.0033 13.3466 14.6811 13.1479 14.4824L12.7113 14.0458C14.1072 13.7589 15.16 12.521 15.16 11.0417V9.36454C15.6506 9.1739 16 8.6979 16 8.14062ZM5.66425 1.95521C5.78229 1.95521 5.8957 1.98476 5.9961 2.04042L4.52847 3.50804C4.3846 3.24725 4.42311 2.91204 4.64399 2.69123L5.17915 2.15607C5.30874 2.02655 5.48103 1.95521 5.66425 1.95521ZM1.3136 7.84489H14.6864C14.8495 7.84489 14.9823 7.97756 14.9823 8.14076C14.9823 8.30381 14.8495 8.43655 14.6864 8.43655H1.3136C1.15048 8.43655 1.01781 8.30381 1.01781 8.14076C1.01781 7.97756 1.15048 7.84489 1.3136 7.84489ZM14.1421 11.0416C14.1421 12.1715 13.2228 13.0907 12.0928 13.0907H3.90713C2.77717 13.0907 1.85786 12.1715 1.85786 11.0416V9.46885H14.1421V11.0416Z" fill="#434E58"/>
</g>
</g>
</g>
<defs>
<clipPath id="clip0_421_633">
<rect width="16" height="16" fill="white"/>
</clipPath>
</defs>
</svg>
