<svg width="38" height="38" viewBox="0 0 38 38" fill="none" xmlns="http://www.w3.org/2000/svg">
<circle cx="19.1851" cy="19.1599" r="18.7183" fill="#018191" fill-opacity="0.27"/>
<mask id="path-2-inside-1_1308_1425" fill="white">
<path d="M24.8333 21.5001H23.1667V19.8334H24.8333M24.8333 24.8334H23.1667V23.1667H24.8333M19.8333 14.8334H18.1667V13.1667H19.8333M19.8333 18.1667H18.1667V16.5001H19.8333M19.8333 21.5001H18.1667V19.8334H19.8333M19.8333 24.8334H18.1667V23.1667H19.8333M14.8333 18.1667H13.1667V16.5001H14.8333M14.8333 21.5001H13.1667V19.8334H14.8333M14.8333 24.8334H13.1667V23.1667H14.8333M21.5 18.1667V13.1667L19 10.6667L16.5 13.1667V14.8334H11.5V26.5001H26.5V18.1667H21.5Z"/>
</mask>
<path d="M23.1667 21.5001H22.1667V22.5001H23.1667V21.5001ZM23.1667 19.8334V18.8334H22.1667V19.8334H23.1667ZM23.1667 24.8334H22.1667V25.8334H23.1667V24.8334ZM23.1667 23.1667V22.1667H22.1667V23.1667H23.1667ZM18.1667 14.8334H17.1667V15.8334H18.1667V14.8334ZM18.1667 13.1667V12.1667H17.1667V13.1667H18.1667ZM18.1667 18.1667H17.1667V19.1667H18.1667V18.1667ZM18.1667 16.5001V15.5001H17.1667V16.5001H18.1667ZM18.1667 21.5001H17.1667V22.5001H18.1667V21.5001ZM18.1667 19.8334V18.8334H17.1667V19.8334H18.1667ZM18.1667 24.8334H17.1667V25.8334H18.1667V24.8334ZM18.1667 23.1667V22.1667H17.1667V23.1667H18.1667ZM13.1667 18.1667H12.1667V19.1667H13.1667V18.1667ZM13.1667 16.5001V15.5001H12.1667V16.5001H13.1667ZM13.1667 21.5001H12.1667V22.5001H13.1667V21.5001ZM13.1667 19.8334V18.8334H12.1667V19.8334H13.1667ZM13.1667 24.8334H12.1667V25.8334H13.1667V24.8334ZM13.1667 23.1667V22.1667H12.1667V23.1667H13.1667ZM21.5 18.1667H20.5V19.1667H21.5V18.1667ZM21.5 13.1667H22.5V12.7525L22.2071 12.4596L21.5 13.1667ZM19 10.6667L19.7071 9.95964L19 9.25253L18.2929 9.95964L19 10.6667ZM16.5 13.1667L15.7929 12.4596L15.5 12.7525V13.1667H16.5ZM16.5 14.8334V15.8334H17.5V14.8334H16.5ZM11.5 14.8334V13.8334H10.5V14.8334H11.5ZM11.5 26.5001H10.5V27.5001H11.5V26.5001ZM26.5 26.5001V27.5001H27.5V26.5001H26.5ZM26.5 18.1667H27.5V17.1667H26.5V18.1667ZM24.8333 20.5001H23.1667V22.5001H24.8333V20.5001ZM24.1667 21.5001V19.8334H22.1667V21.5001H24.1667ZM23.1667 20.8334H24.8333V18.8334H23.1667V20.8334ZM24.8333 23.8334H23.1667V25.8334H24.8333V23.8334ZM24.1667 24.8334V23.1667H22.1667V24.8334H24.1667ZM23.1667 24.1667H24.8333V22.1667H23.1667V24.1667ZM19.8333 13.8334H18.1667V15.8334H19.8333V13.8334ZM19.1667 14.8334V13.1667H17.1667V14.8334H19.1667ZM18.1667 14.1667H19.8333V12.1667H18.1667V14.1667ZM19.8333 17.1667H18.1667V19.1667H19.8333V17.1667ZM19.1667 18.1667V16.5001H17.1667V18.1667H19.1667ZM18.1667 17.5001H19.8333V15.5001H18.1667V17.5001ZM19.8333 20.5001H18.1667V22.5001H19.8333V20.5001ZM19.1667 21.5001V19.8334H17.1667V21.5001H19.1667ZM18.1667 20.8334H19.8333V18.8334H18.1667V20.8334ZM19.8333 23.8334H18.1667V25.8334H19.8333V23.8334ZM19.1667 24.8334V23.1667H17.1667V24.8334H19.1667ZM18.1667 24.1667H19.8333V22.1667H18.1667V24.1667ZM14.8333 17.1667H13.1667V19.1667H14.8333V17.1667ZM14.1667 18.1667V16.5001H12.1667V18.1667H14.1667ZM13.1667 17.5001H14.8333V15.5001H13.1667V17.5001ZM14.8333 20.5001H13.1667V22.5001H14.8333V20.5001ZM14.1667 21.5001V19.8334H12.1667V21.5001H14.1667ZM13.1667 20.8334H14.8333V18.8334H13.1667V20.8334ZM14.8333 23.8334H13.1667V25.8334H14.8333V23.8334ZM14.1667 24.8334V23.1667H12.1667V24.8334H14.1667ZM13.1667 24.1667H14.8333V22.1667H13.1667V24.1667ZM22.5 18.1667V13.1667H20.5V18.1667H22.5ZM22.2071 12.4596L19.7071 9.95964L18.2929 11.3739L20.7929 13.8739L22.2071 12.4596ZM18.2929 9.95964L15.7929 12.4596L17.2071 13.8739L19.7071 11.3739L18.2929 9.95964ZM15.5 13.1667V14.8334H17.5V13.1667H15.5ZM16.5 13.8334H11.5V15.8334H16.5V13.8334ZM10.5 14.8334V26.5001H12.5V14.8334H10.5ZM11.5 27.5001H26.5V25.5001H11.5V27.5001ZM27.5 26.5001V18.1667H25.5V26.5001H27.5ZM26.5 17.1667H21.5V19.1667H26.5V17.1667Z" fill="#018191" mask="url(#path-2-inside-1_1308_1425)"/>
</svg>
