<svg width="51" height="51" viewBox="0 0 51 51" fill="none" xmlns="http://www.w3.org/2000/svg">
<g id="close_ring_light">
<path id="Ellipse 86" d="M25.5 44.5C23.0377 44.5 20.5995 44.015 18.3247 43.0727C16.0498 42.1305 13.9828 40.7494 12.2417 39.0083C10.5006 37.2672 9.11953 35.2002 8.17726 32.9253C7.23498 30.6505 6.75 28.2123 6.75 25.75C6.75 23.2877 7.23498 20.8495 8.17726 18.5747C9.11954 16.2998 10.5007 14.2328 12.2418 12.4917C13.9828 10.7506 16.0498 9.36953 18.3247 8.42726C20.5995 7.48498 23.0377 7 25.5 7C27.9623 7 30.4005 7.48498 32.6753 8.42726C34.9502 9.36954 37.0172 10.7507 38.7583 12.4918C40.4994 14.2329 41.8805 16.2998 42.8227 18.5747C43.765 20.8495 44.25 23.2877 44.25 25.75C44.25 28.2123 43.765 30.6505 42.8227 32.9253C41.8805 35.2002 40.4994 37.2672 38.7583 39.0083C37.0172 40.7494 34.9502 42.1305 32.6753 43.0727C30.4005 44.015 27.9623 44.5 25.5 44.5L25.5 44.5Z" stroke="#931602" stroke-width="3.5" stroke-linecap="round"/>
<path id="Vector 112" d="M19.25 19.5L31.75 32" stroke="#931602" stroke-width="3.5" stroke-linecap="round"/>
<path id="Vector 113" d="M31.75 19.5L19.25 32" stroke="#931602" stroke-width="3.5" stroke-linecap="round"/>
</g>
</svg>
