<svg width="62" height="62" viewBox="0 0 62 62" fill="none" xmlns="http://www.w3.org/2000/svg">
<g clip-path="url(#clip0_5440_20728)">
<path d="M59 40H27C26.2044 40 25.4413 39.6839 24.8787 39.1213C24.3161 38.5587 24 37.7956 24 37C24 36.2044 24.3161 35.4413 24.8787 34.8787C25.4413 34.3161 26.2044 34 27 34H59C59.7957 34 60.5587 34.3161 61.1213 34.8787C61.6839 35.4413 62 36.2044 62 37C62 37.7956 61.6839 38.5587 61.1213 39.1213C60.5587 39.6839 59.7957 40 59 40ZM27 36C26.7348 36 26.4804 36.1054 26.2929 36.2929C26.1054 36.4804 26 36.7348 26 37C26 37.2652 26.1054 37.5196 26.2929 37.7071C26.4804 37.8946 26.7348 38 27 38H59C59.2652 38 59.5196 37.8946 59.7071 37.7071C59.8946 37.5196 60 37.2652 60 37C60 36.7348 59.8946 36.4804 59.7071 36.2929C59.5196 36.1054 59.2652 36 59 36H27Z" fill="#DF2624"/>
<path d="M60 62H26V38H60V62ZM28 60H58V40H28V60Z" fill="#DF2624"/>
<path d="M54.41 36H31.59L31.22 35.63C30.3492 34.7613 29.7033 33.6934 29.338 32.5189C28.9728 31.3444 28.8992 30.0985 29.1238 28.8892C29.3483 27.6798 29.8642 26.5434 30.6267 25.5782C31.3892 24.6131 32.3754 23.8483 33.5 23.35C36.7572 21.9092 39.7176 19.8746 42.23 17.35L42.94 16.64L43.71 17.29C46.2368 19.84 49.218 21.8953 52.5 23.35C53.6245 23.8483 54.6107 24.6131 55.3733 25.5782C56.1358 26.5434 56.6516 27.6798 56.8762 28.8892C57.1007 30.0985 57.0271 31.3444 56.6619 32.5189C56.2966 33.6934 55.6507 34.7613 54.78 35.63L54.41 36ZM32.41 34H53.55C54.4642 32.9758 54.9728 31.6529 54.98 30.28C54.9805 29.2009 54.668 28.1448 54.0806 27.2396C53.4931 26.3344 52.6558 25.619 51.67 25.18C48.4653 23.758 45.5265 21.7999 42.98 19.39C40.4335 21.7999 37.4947 23.758 34.29 25.18C33.3042 25.619 32.4668 26.3344 31.8794 27.2396C31.2919 28.1448 30.9795 29.2009 30.98 30.28C30.9926 31.6555 31.5084 32.9788 32.43 34H32.41Z" fill="#DF2624"/>
<path d="M44 14H42V18H44V14Z" fill="#DF2624"/>
<path d="M59 52H27V54H59V52Z" fill="#DF2624"/>
<path d="M48 53H46V47C46 46.2044 45.6839 45.4413 45.1213 44.8787C44.5587 44.3161 43.7956 44 43 44C42.2044 44 41.4413 44.3161 40.8787 44.8787C40.3161 45.4413 40 46.2044 40 47V53H38V47C38 45.6739 38.5268 44.4021 39.4645 43.4645C40.4022 42.5268 41.6739 42 43 42C44.3261 42 45.5978 42.5268 46.5355 43.4645C47.4732 44.4021 48 45.6739 48 47V53Z" fill="#DF2624"/>
<path d="M39 47H27V49H39V47Z" fill="#DF2624"/>
<path d="M59 47H47V49H59V47Z" fill="#DF2624"/>
<path d="M18.62 35H5.38L2.38 29H21.62L18.62 35ZM6.62 33H17.38L18.38 31H5.62L6.62 33Z" fill="#DF2624"/>
<path d="M18.62 23H5.38L2.38 17H21.62L18.62 23ZM6.62 21H17.38L18.38 19H5.62L6.62 21Z" fill="#DF2624"/>
<path d="M18.62 12H5.38L2.38 6H21.62L18.62 12ZM6.62 10H17.38L18.38 8H5.62L6.62 10Z" fill="#DF2624"/>
<path d="M24 62H0V52H24V62ZM2 60H22V54H2V60Z" fill="#DF2624"/>
<path d="M23 56H1V58H23V56Z" fill="#DF2624"/>
<path d="M18.9842 33.861L17.0087 34.1728L20.0085 53.1775L21.9841 52.8656L18.9842 33.861Z" fill="#DF2624"/>
<path d="M4.9983 33.8299L1.99182 52.8335L3.96725 53.146L6.97373 34.1424L4.9983 33.8299Z" fill="#DF2624"/>
<path d="M8.99356 33.8983L6.99707 52.8936L8.98611 53.1027L10.9826 34.1073L8.99356 33.8983Z" fill="#DF2624"/>
<path d="M14.9949 33.8944L13.0059 34.1038L15.0057 53.0988L16.9947 52.8894L14.9949 33.8944Z" fill="#DF2624"/>
<path d="M15 7H13V2H11V7H9V0H15V7Z" fill="#DF2624"/>
<path d="M15.9893 10.8586L14.0094 11.1414L15.0092 18.1404L16.9891 17.8575L15.9893 10.8586Z" fill="#DF2624"/>
<path d="M8.02254 10.8702L7.02148 17.869L9.00133 18.1522L10.0024 11.1534L8.02254 10.8702Z" fill="#DF2624"/>
<path d="M16.9992 21.8348L15.0146 22.083L16.0151 30.0807L17.9996 29.8324L16.9992 21.8348Z" fill="#DF2624"/>
<path d="M6.98034 21.8651L5.98132 29.863L7.9659 30.1109L8.96492 22.113L6.98034 21.8651Z" fill="#DF2624"/>
<path d="M13 22H11V30H13V22Z" fill="#DF2624"/>
<path d="M13 11H11V18H13V11Z" fill="#DF2624"/>
</g>
<defs>
<clipPath id="clip0_5440_20728">
<rect width="62" height="62" fill="white"/>
</clipPath>
</defs>
</svg>
