<svg width="624" height="532" viewBox="0 0 624 532" fill="none" xmlns="http://www.w3.org/2000/svg">
<g filter="url(#filter0_d_35_54866)">
<path d="M604.427 527.971C609.246 527.971 613.873 526.075 617.304 522.692C620.735 519.309 622.695 514.712 622.759 509.896C623.522 460.046 627.54 386.508 533.588 366.16C457.551 349.711 502.626 214.667 297.859 223.402C150.869 229.662 189.853 353.467 75.6243 363.785C-0.427024 370.649 -1.08947 466.766 1.83392 510.802C2.14091 515.445 4.2027 519.797 7.60143 522.977C11.0002 526.157 15.4816 527.927 20.1375 527.928L604.427 527.971Z" fill="#B5DFEA"/>
</g>
<path opacity="0.55" d="M533.537 366.18C457.458 349.729 502.558 214.665 297.675 223.402C262.69 224.841 238.252 233.031 219.766 244.718C225.99 243.897 232.604 243.279 239.65 243.034C444.547 234.297 399.432 369.346 475.512 385.812C568.523 405.962 565.583 478.142 564.762 527.971H604.416C609.238 527.971 613.867 526.074 617.3 522.691C620.733 519.308 622.694 514.71 622.758 509.893C623.522 460.079 627.542 386.531 533.537 366.18Z" fill="#90CEDD"/>
<path d="M217 0H214V272H217V0Z" fill="#79C9E8"/>
<path d="M395 0H392V304H395V0Z" fill="#79C9E8"/>
<path d="M394.062 292.211L209.901 270.672C208.029 270.452 206.132 270.603 204.319 271.117C202.506 271.63 200.811 272.496 199.333 273.664C197.854 274.832 196.621 276.28 195.703 277.924C194.785 279.569 194.2 281.379 193.983 283.249L180.237 400.932C180.019 402.801 180.171 404.696 180.686 406.506C181.2 408.317 182.067 410.009 183.235 411.485C184.404 412.961 185.853 414.193 187.498 415.109C189.143 416.026 190.953 416.61 192.824 416.827L377.052 438.311C378.923 438.529 380.819 438.377 382.631 437.863C384.443 437.349 386.136 436.483 387.613 435.315C389.09 434.147 390.323 432.7 391.24 431.056C392.157 429.412 392.742 427.603 392.959 425.734L406.705 308.051C407.129 304.276 406.036 300.486 403.666 297.516C401.295 294.546 397.841 292.637 394.062 292.211Z" fill="#D7F0F9"/>
<path d="M405.347 319.703L406.704 308.051C407.129 304.276 406.035 300.486 403.665 297.516C401.294 294.546 397.84 292.637 394.062 292.211L209.9 270.672C208.029 270.452 206.132 270.603 204.318 271.117C202.505 271.63 200.81 272.496 199.332 273.664C197.854 274.832 196.62 276.28 195.702 277.924C194.784 279.569 194.2 281.379 193.982 283.249L192.625 294.901L405.347 319.703Z" fill="#018191"/>
<path d="M214.334 286.931C214.248 287.69 213.939 288.406 213.445 288.989C212.951 289.572 212.296 289.995 211.561 290.206C210.826 290.416 210.045 290.404 209.318 290.17C208.59 289.937 207.948 289.493 207.473 288.894C206.998 288.296 206.711 287.57 206.649 286.809C206.588 286.048 206.753 285.286 207.125 284.618C207.497 283.951 208.059 283.41 208.74 283.062C209.42 282.714 210.189 282.576 210.948 282.665C211.962 282.784 212.888 283.3 213.523 284.099C214.157 284.899 214.449 285.917 214.334 286.931Z" fill="white"/>
<path d="M232.802 289.092C232.712 289.847 232.399 290.559 231.905 291.137C231.41 291.715 230.755 292.133 230.023 292.339C229.29 292.545 228.513 292.53 227.789 292.295C227.065 292.06 226.427 291.616 225.956 291.018C225.485 290.421 225.201 289.698 225.141 288.94C225.081 288.182 225.247 287.423 225.618 286.759C225.99 286.095 226.55 285.556 227.227 285.21C227.905 284.864 228.67 284.727 229.426 284.815C229.929 284.874 230.415 285.031 230.857 285.278C231.299 285.525 231.688 285.857 232.002 286.254C232.316 286.651 232.548 287.106 232.685 287.593C232.822 288.08 232.862 288.59 232.802 289.092Z" fill="#931602"/>
<path d="M252.01 291.318C251.922 292.073 251.612 292.786 251.118 293.366C250.624 293.945 249.97 294.366 249.237 294.573C248.504 294.781 247.727 294.767 247.002 294.533C246.277 294.299 245.638 293.855 245.166 293.259C244.694 292.662 244.409 291.938 244.348 291.179C244.287 290.421 244.453 289.661 244.824 288.997C245.196 288.332 245.756 287.793 246.434 287.447C247.112 287.1 247.878 286.963 248.634 287.052C249.648 287.17 250.573 287.686 251.206 288.486C251.839 289.286 252.128 290.305 252.01 291.318Z" fill="#FFBF4D"/>
<path d="M248.437 347.183C248.871 343.595 247.109 341.562 243.152 341.083C239.248 340.61 237.079 342.168 236.644 345.756L233.282 373.535C232.848 377.122 234.583 379.153 238.487 379.625C242.444 380.104 244.64 378.55 245.074 374.962L248.437 347.183ZM227.205 344.131C227.703 340.016 229.392 336.901 232.271 334.787C235.156 332.62 239.131 331.843 244.196 332.457C249.262 333.07 252.937 334.773 255.222 337.565C257.566 340.312 258.489 343.743 257.991 347.858L254.514 376.587C254.015 380.702 252.297 383.84 249.359 386C246.48 388.114 242.508 388.865 237.443 388.252C232.378 387.639 228.699 385.962 226.408 383.222C224.123 380.429 223.229 376.975 223.727 372.86L227.205 344.131ZM286.153 351.749C286.587 348.161 284.826 346.127 280.868 345.648C276.964 345.176 274.795 346.733 274.361 350.321L270.998 378.1C270.564 381.688 272.299 383.718 276.203 384.191C280.16 384.67 282.356 383.115 282.79 379.528L286.153 351.749ZM264.921 348.697C265.419 344.581 267.108 341.467 269.987 339.353C272.872 337.186 276.848 336.409 281.913 337.022C286.978 337.635 290.653 339.338 292.938 342.131C295.282 344.877 296.205 348.308 295.707 352.423L292.23 381.152C291.732 385.267 290.013 388.405 287.075 390.566C284.196 392.68 280.224 393.43 275.159 392.817C270.094 392.204 266.415 390.528 264.124 387.788C261.839 384.995 260.945 381.541 261.443 377.425L264.921 348.697ZM323.334 356.089C323.717 352.923 322.247 351.139 318.923 350.737L313.541 350.085L311.012 370.979L316.394 371.63C319.718 372.033 321.575 370.624 321.964 367.406L323.334 356.089ZM304.971 340.616L320.958 342.551C325.231 343.069 328.401 344.523 330.467 346.914C332.586 349.312 333.412 352.437 332.946 356.289L331.346 369.505C330.88 373.357 329.332 376.194 326.702 378.017C324.125 379.847 320.7 380.503 316.426 379.985L310.016 379.21L307.985 395.988L298.409 394.828L304.971 340.616ZM337.309 356.736C337.788 352.779 339.478 349.879 342.377 348.035C345.277 346.191 349.181 345.566 354.088 346.16C359.047 346.76 362.838 347.728 365.46 349.062L364.359 358.164C361.445 356.58 357.905 355.536 353.736 355.031C349.568 354.526 347.293 355.857 346.909 359.023L346.651 361.16C346.459 362.742 346.599 364.017 347.071 364.985C347.549 365.899 348.578 366.907 350.158 368.008L358.637 374.254C362.629 377.093 364.338 380.887 363.764 385.635L363.198 390.305C362.713 394.314 360.885 397.252 357.715 399.116C354.551 400.928 350.279 401.509 344.897 400.857C339.515 400.206 335.549 399.137 332.999 397.65L334.11 388.47C337.315 390.303 341.054 391.478 345.327 391.996C350.551 392.628 353.36 391.309 353.756 388.037L354.005 385.98C354.171 384.608 354.009 383.518 353.518 382.709C353.086 381.853 352.179 380.941 350.798 379.97L342.667 374.168C338.086 370.883 336.102 366.708 336.715 361.643L337.309 356.736Z" fill="#018191"/>
<path d="M177.866 425.359C176.338 432.683 175.643 440.156 175.792 447.636C176.167 457.722 174.965 524.037 174.965 524.037H183.073C183.073 524.037 194.612 472.107 195.042 468.007C195.473 463.906 201.264 422.9 201.264 422.9L177.866 425.359Z" fill="#00668E"/>
<path d="M183.262 422.338C183.262 422.338 185.126 436.503 188.303 446.589C191.48 456.675 207.057 524.059 207.057 524.059H215.165C215.165 524.059 213.676 472.129 213.113 468.029C212.551 463.928 208.447 422.911 208.447 422.911L183.262 422.338Z" fill="#0582C1"/>
<g filter="url(#filter1_d_35_54866)">
<path d="M207.719 524.037V529.692H223.163C223.353 529.693 223.539 529.632 223.692 529.518C223.845 529.405 223.957 529.245 224.012 529.063C224.066 528.881 224.06 528.686 223.995 528.507C223.929 528.328 223.808 528.176 223.648 528.072C221.442 526.572 217.78 524.5 214.426 524.037H207.719Z" fill="#0582C1"/>
</g>
<g filter="url(#filter2_d_35_54866)">
<path d="M175.383 524.037V529.692H190.827C191.01 529.687 191.188 529.626 191.335 529.516C191.481 529.406 191.59 529.253 191.646 529.079C191.702 528.904 191.702 528.717 191.646 528.542C191.59 528.367 191.481 528.215 191.334 528.105C189.073 526.605 185.466 524.533 182.101 524.07L175.383 524.037Z" fill="#0582C1"/>
</g>
<path d="M203.216 356.431C203.216 356.431 208.533 348.373 202.433 347.612C197.755 347.006 195.814 348.395 195.814 348.395C195.814 348.395 190.419 347.811 187.474 350.357C185.455 352.11 178.042 365.679 190.033 370.584C202.025 375.49 199.465 362.868 199.465 362.868L203.216 356.431Z" fill="#00668E"/>
<path d="M202.433 347.591C197.755 346.984 195.814 348.373 195.814 348.373C195.814 348.373 190.419 347.789 187.474 350.335C185.455 352.088 178.042 365.658 190.033 370.563C195.67 372.878 198.086 371.323 199.068 369.02C187.695 372.227 186.459 358.526 188.334 354.623C190.21 350.721 194.821 352.496 194.821 352.496C196.608 347.988 202.433 348.484 204.838 348.825C204.546 348.462 204.182 348.164 203.767 347.951C203.353 347.739 202.898 347.616 202.433 347.591Z" fill="#05556D"/>
<path d="M195.749 360.356C195.749 360.356 194.182 358.78 193.002 360.356C191.822 361.932 192.605 365.46 194.569 365.658C194.569 365.658 193.984 370.762 190.057 370.563V374.697H199.29V371.577C199.29 371.577 204.993 369.23 204.806 364.512C204.711 361.763 204.178 359.047 203.228 356.465C201.243 358.564 198.609 359.935 195.749 360.356Z" fill="#F98D3D"/>
<path d="M197.16 372.867C198.076 373.252 197.921 373.826 197.965 374.696H199.289V371.577C199.289 371.577 197.083 372.293 193.773 370.475C194.783 371.429 195.923 372.234 197.16 372.867Z" fill="#C88E20"/>
<path d="M199.057 352.838C199.057 352.838 194.269 350.931 193.707 352.364C193.343 353.301 194.269 354.105 195.549 354.921L194.446 355.097C194.388 355.105 194.334 355.13 194.29 355.169C194.246 355.207 194.214 355.258 194.199 355.314C194.183 355.371 194.185 355.431 194.204 355.486C194.222 355.542 194.256 355.59 194.303 355.627C195.245 356.026 196.271 356.193 197.292 356.112L199.057 352.838Z" fill="#F98D3D"/>
<path d="M233.256 364.819C224.122 358.062 199.179 352.693 199.179 352.693L197.127 356.441C197.127 356.441 219.764 365.26 218.275 366.516C217.392 367.288 206.328 372.348 202.588 374.056C201.777 374.419 200.895 374.6 200.007 374.585L188.545 374.519C185.749 374.384 182.959 374.899 180.396 376.024C177.833 377.148 175.566 378.852 173.773 381.001C167.96 387.692 158.064 403.179 158.064 403.179L174.722 427.65L176.564 430.351V430.582L178.208 430.748C183.558 431.244 200.713 432.6 209.803 430.671L210.045 430.615L209.615 390.469C218.388 383.629 226.402 375.868 233.52 367.321C233.682 367.146 233.804 366.938 233.879 366.712C233.954 366.486 233.979 366.247 233.954 366.01C233.929 365.773 233.854 365.545 233.734 365.339C233.613 365.134 233.45 364.956 233.256 364.819ZM177.37 419.57L175.748 416.021L170.574 404.722L179.157 395.11L177.612 416.197L177.37 419.57Z" fill="#FFBF4D"/>
<path d="M175.738 416.021L177.37 419.571L176.576 430.274L176.565 430.307L174.723 427.607L175.738 416.021Z" fill="#EFAA3A"/>
<g style="mix-blend-mode:multiply" opacity="0.29">
<path d="M205.743 388.95C204.199 390.052 204.64 399.973 204.21 406.201C203.57 416.596 202.952 425.59 203.415 431.4C205.561 431.282 207.695 431.013 209.803 430.595L210.045 430.54L209.615 390.394C218.388 383.553 226.402 375.792 233.521 367.245C233.674 367.071 233.79 366.866 233.861 366.645C233.931 366.423 233.955 366.189 233.93 365.958C233.905 365.727 233.832 365.503 233.716 365.302C233.6 365.1 233.443 364.925 233.256 364.787C224.827 373.648 215.619 381.735 205.743 388.95Z" fill="#C88E20"/>
</g>
<path d="M213.111 468.017C212.703 465.052 210.463 442.873 209.239 430.748L203.414 431.398C203.414 431.398 211.908 501.208 212.471 524.047H215.163C215.163 524.047 213.673 472.118 213.111 468.017Z" fill="#00668E"/>
<path d="M175.758 361.501L174.004 358.349C175.417 355.691 175.771 352.598 174.995 349.69C174.219 346.782 172.37 344.275 169.821 342.673C167.271 341.071 164.21 340.492 161.251 341.052C158.292 341.613 155.654 343.272 153.869 345.695C152.083 348.119 151.281 351.127 151.625 354.117C151.968 357.107 153.43 359.856 155.718 361.813C158.007 363.77 160.951 364.789 163.96 364.666C166.97 364.542 169.821 363.286 171.941 361.149L175.758 361.501Z" fill="#0582C1"/>
<path d="M130.166 504.395C130.166 504.395 127.662 502.069 129.338 493.228C131.015 484.388 135.273 475.889 133.177 466.288C131.081 456.687 114.733 432.502 114.678 430.893C114.622 429.284 109.625 459.035 118.086 470.785C126.547 482.536 127.573 486.581 127.198 492.743C126.823 498.905 127.287 503.877 128.213 505.31L130.166 504.395Z" fill="#79C9E8"/>
<path d="M128.609 486.614C127.627 490.56 127.031 500.448 128.609 502.818C128.752 503.039 128.962 502.917 129.226 502.498C128.741 500.867 128.432 498.001 129.337 493.228C131.014 484.41 135.272 475.889 133.176 466.288C131.08 456.687 114.731 432.502 114.676 430.893C114.676 430.893 117.147 451.043 125.443 464.921C131.389 474.853 129.557 482.668 128.609 486.614Z" fill="#49B4D6"/>
<path d="M133.145 503.787C133.145 503.787 128.335 491.794 136.454 481.41C144.574 471.026 157.624 457.688 157.889 452.408C157.889 452.408 161.198 477.486 150.63 484.585C140.062 491.683 132.626 492.83 134.458 503.743L133.145 503.787Z" fill="#79C9E8"/>
<path d="M144.595 479.602C132.769 488.2 131.798 498.11 133.629 502.696C133.691 502.866 133.794 503.018 133.928 503.139C134.063 503.261 134.226 503.347 134.402 503.39C132.813 492.852 140.193 491.651 150.662 484.651C161.131 477.651 157.921 452.475 157.921 452.475C157.921 452.475 156.41 470.938 144.595 479.602Z" fill="#49B4D6"/>
<path d="M125.235 504.053C126.177 499.71 126.423 495.245 125.963 490.825C125.146 484.013 117.976 480.133 111.28 472.891C107.827 469.165 106.812 449.467 108.941 447.637C108.941 447.637 97.1263 461.967 98.9465 472.439C100.767 482.911 120.061 489.734 121.837 494.793C122.9 497.789 123.452 500.941 123.47 504.119L125.235 504.053Z" fill="#79C9E8"/>
<path d="M104.948 453.269C101.043 463.84 105.047 476.649 118.031 484.607C127.585 490.461 124.54 502.641 124.54 502.641L126.107 497.835C126.27 495.506 126.222 493.167 125.963 490.846C125.147 484.012 117.976 480.132 111.28 472.89C107.971 469.296 106.867 450.844 108.732 447.9C107.381 449.625 106.118 451.416 104.948 453.269Z" fill="#49B4D6"/>
<path d="M108.73 447.901L108.94 447.637C108.86 447.716 108.789 447.805 108.73 447.901Z" fill="#49B4D6"/>
<path d="M135.615 503.259C135.615 503.259 138.384 492.985 145.246 491.608C152.107 490.23 159.973 480.099 160.392 478.115C160.447 478.115 159.234 497.24 135.615 503.259Z" fill="#79C9E8"/>
<path d="M144.849 495.036C140.657 497.13 138.903 499.952 138.23 502.52C159.257 495.763 160.294 478.148 160.294 478.148C160.033 478.871 159.661 479.548 159.19 480.155C157.26 483.737 152.274 491.299 144.849 495.036Z" fill="#49B4D6"/>
<g filter="url(#filter3_d_35_54866)">
<path d="M150.454 499.443H114.602L118.86 526.229C119.015 527.214 119.517 528.11 120.276 528.757C121.034 529.404 121.999 529.758 122.997 529.757H142.059C143.056 529.758 144.021 529.404 144.78 528.757C145.539 528.11 146.041 527.214 146.196 526.229L150.454 499.443Z" fill="#FFBF4D"/>
</g>
<path d="M149.748 503.91L150.443 499.479H114.602L115.308 503.91H149.748Z" fill="#FF9F50"/>
<g filter="url(#filter4_d_35_54866)">
<path d="M141.759 499.443L137.512 526.196C137.354 527.18 136.852 528.075 136.094 528.721C135.335 529.368 134.372 529.723 133.375 529.724H142.057C143.054 529.725 144.019 529.371 144.778 528.724C145.536 528.077 146.038 527.181 146.194 526.196L150.452 499.443H141.759Z" fill="#FF9F50"/>
</g>
<path d="M397.693 451.77H235.684V484.684H397.693V451.77Z" fill="#FFBF4D"/>
<g style="mix-blend-mode:multiply" opacity="0.29">
<path d="M397.693 451.77H235.684V459.761H397.693V451.77Z" fill="#C88E20"/>
</g>
<path d="M249.77 451.77H264.553L260.592 459.761H245.799L249.77 451.77Z" fill="#F77E2D"/>
<path d="M283.085 451.77H297.868L293.907 459.761H279.125L283.085 451.77Z" fill="#F77E2D"/>
<path d="M316.402 451.77H331.184L327.224 459.761H312.441L316.402 451.77Z" fill="#F77E2D"/>
<path d="M349.717 451.77H364.489L360.528 459.761H345.746L349.717 451.77Z" fill="#F77E2D"/>
<path d="M397.691 451.77V451.99L393.83 459.761H379.059L383.03 451.77H397.691Z" fill="#F77E2D"/>
<g filter="url(#filter5_d_35_54866)">
<path d="M267.265 484.684H255.848V529.691H267.265V484.684Z" fill="#79C9E8"/>
</g>
<g filter="url(#filter6_d_35_54866)">
<path d="M267.266 484.684H264.674V529.691H267.266V484.684Z" fill="#49B4D6"/>
</g>
<g filter="url(#filter7_d_35_54866)">
<path d="M378.41 484.684H366.992V529.691H378.41V484.684Z" fill="#79C9E8"/>
</g>
<g filter="url(#filter8_d_35_54866)">
<path d="M378.409 484.684H375.033V529.691H378.409V484.684Z" fill="#49B4D6"/>
</g>
<path d="M267.265 484.652H255.848V490.318H267.265V484.652Z" fill="#49B4D6"/>
<path d="M378.41 484.652H366.992V490.318H378.41V484.652Z" fill="#49B4D6"/>
<path d="M267.265 446.621H255.848V451.736H267.265V446.621Z" fill="#79C9E8"/>
<path d="M267.266 446.621H264.674V451.736H267.266V446.621Z" fill="#49B4D6"/>
<path d="M378.41 446.621H366.992V451.736H378.41V446.621Z" fill="#79C9E8"/>
<path d="M378.409 446.621H375.033V451.736H378.409V446.621Z" fill="#49B4D6"/>
<path d="M267.265 451.098H255.848V451.737H267.265V451.098Z" fill="#49B4D6"/>
<path d="M378.41 451.098H366.992V451.737H378.41V451.098Z" fill="#49B4D6"/>
<path d="M264.553 451.77L248.215 484.684H235.684V480.143L249.771 451.77H264.553Z" fill="#0582C1"/>
<path d="M283.084 451.77L266.746 484.684H281.528L297.866 451.77H283.084Z" fill="#0582C1"/>
<path d="M331.183 451.77L314.845 484.684H300.062L316.4 451.77H331.183Z" fill="#0582C1"/>
<path d="M364.488 451.77L348.161 484.684H333.379L349.717 451.77H364.488Z" fill="#0582C1"/>
<path d="M383.031 451.77L366.693 484.684H381.465L397.692 451.99L383.031 451.77Z" fill="#0582C1"/>
<path d="M264.553 451.77L260.592 459.761H245.799L249.77 451.77H264.553Z" fill="#00668E"/>
<path d="M297.868 451.77L293.907 459.761H279.125L283.085 451.77H297.868Z" fill="#00668E"/>
<path d="M331.184 451.77L327.224 459.761H312.441L316.402 451.77H331.184Z" fill="#00668E"/>
<path d="M364.489 451.77L360.528 459.761H345.746L349.717 451.77H364.489Z" fill="#00668E"/>
<path d="M397.691 451.99L393.83 459.761H379.059L383.03 451.77L397.691 451.99Z" fill="#00668E"/>
<path style="mix-blend-mode:overlay" opacity="0.55" d="M394.902 466.012H240.195V482.48H394.902V466.012Z" fill="url(#paint0_linear_35_54866)"/>
<path d="M262.871 449.541C268.421 448.638 272.189 443.411 271.286 437.865C270.383 432.319 265.151 428.554 259.601 429.456C254.05 430.358 250.283 435.586 251.186 441.132C252.089 446.678 257.32 450.443 262.871 449.541Z" fill="#FFBF4D"/>
<path d="M265.875 439.479C265.873 438.569 265.6 437.679 265.092 436.923C264.584 436.166 263.863 435.577 263.021 435.23C262.178 434.883 261.251 434.794 260.357 434.973C259.463 435.152 258.643 435.591 257.999 436.236C257.355 436.881 256.917 437.702 256.74 438.596C256.563 439.489 256.655 440.415 257.004 441.256C257.354 442.098 257.945 442.817 258.703 443.322C259.461 443.828 260.352 444.098 261.264 444.098C261.87 444.098 262.471 443.979 263.031 443.746C263.591 443.514 264.1 443.174 264.528 442.745C264.956 442.316 265.296 441.806 265.527 441.246C265.758 440.686 265.876 440.085 265.875 439.479Z" fill="#0582C1"/>
<path d="M374.246 449.552C379.796 448.65 383.564 443.423 382.661 437.876C381.758 432.33 376.526 428.566 370.976 429.468C365.425 430.37 361.658 435.598 362.561 441.144C363.464 446.69 368.695 450.455 374.246 449.552Z" fill="#FFBF4D"/>
<path d="M377.25 439.479C377.248 438.569 376.975 437.679 376.467 436.923C375.959 436.166 375.238 435.577 374.396 435.23C373.553 434.883 372.626 434.794 371.732 434.973C370.838 435.152 370.018 435.591 369.374 436.236C368.73 436.881 368.292 437.702 368.115 438.596C367.938 439.489 368.03 440.415 368.379 441.256C368.729 442.098 369.32 442.817 370.078 443.322C370.836 443.828 371.727 444.098 372.639 444.098C373.245 444.098 373.846 443.979 374.406 443.746C374.966 443.514 375.475 443.174 375.903 442.745C376.331 442.316 376.671 441.806 376.902 441.246C377.133 440.686 377.251 440.085 377.25 439.479Z" fill="#0582C1"/>
<path d="M459.082 526.197H407.477L415.375 507.083L418.541 499.367L419.424 497.261L420.847 493.811L421.134 493.117L424.311 485.401L424.895 484.001L430.522 470.354C430.745 469.806 431.127 469.338 431.618 469.008C432.109 468.678 432.688 468.502 433.279 468.502C433.871 468.502 434.45 468.678 434.941 469.008C435.432 469.338 435.814 469.806 436.037 470.354L441.663 484.001L442.248 485.401L445.414 493.117L445.712 493.811L447.135 497.261L448.007 499.367L451.184 507.083L459.082 526.197Z" fill="#FFBF4D"/>
<g style="mix-blend-mode:multiply" opacity="0.29">
<path d="M410.863 518.008L407.477 526.198H459.082L455.696 518.008H410.863Z" fill="#C88E20"/>
</g>
<g filter="url(#filter9_d_35_54866)">
<path d="M462.448 521.303H403.352V529.647H462.448V521.303Z" fill="#79C9E8"/>
</g>
<path d="M462.447 521.303H449.684V529.647H462.447V521.303Z" fill="#49B4D6"/>
<g style="mix-blend-mode:multiply" opacity="0.29">
<path d="M457.053 521.303H449.75L443.881 507.094L440.715 499.378L439.832 497.262L438.442 493.812L438.156 493.106L434.979 485.39L434.361 484.012L429.617 472.504L430.5 470.299C430.723 469.752 431.105 469.283 431.596 468.953C432.087 468.623 432.666 468.447 433.258 468.447C433.849 468.447 434.428 468.623 434.919 468.953C435.41 469.283 435.792 469.752 436.015 470.299L441.642 483.946L442.226 485.346L445.392 493.062L445.69 493.768L447.113 497.207L447.985 499.323L451.162 507.039L457.053 521.303Z" fill="#C88E20"/>
</g>
<path d="M445.415 493.107H421.135L424.312 485.391H442.238L445.415 493.107Z" fill="#0582C1"/>
<path d="M451.185 507.072V507.083H415.365V507.072L418.542 499.355H448.008L451.185 507.072Z" fill="#0582C1"/>
<path d="M445.414 493.107H438.122L434.945 485.391H442.237L445.414 493.107Z" fill="#00668E"/>
<path d="M451.185 507.072V507.083H443.882V507.072L440.705 499.355H448.008L451.185 507.072Z" fill="#00668E"/>
<path d="M130.178 338.74C132.048 338.759 133.862 338.099 135.282 336.882C136.703 335.666 137.633 333.976 137.9 332.126C137.998 331.432 138.046 330.732 138.043 330.031C138.043 325.938 136.416 322.013 133.52 319.119C130.623 316.225 126.695 314.599 122.599 314.599C122.257 314.599 121.904 314.599 121.562 314.599C121.185 310.414 119.209 306.535 116.046 303.767C112.882 300.999 108.773 299.555 104.572 299.734C100.371 299.912 96.4003 301.7 93.4836 304.727C90.5669 307.754 88.9286 311.786 88.9085 315.988C88.9085 316.385 88.9085 316.782 88.9085 317.178C86.5073 315.844 83.8082 315.134 81.0604 315.117C78.3127 315.099 75.6047 315.773 73.1864 317.077C70.7681 318.381 68.7174 320.272 67.2235 322.577C65.7297 324.881 64.8409 327.525 64.639 330.263C64.639 330.329 64.639 330.395 64.639 330.461C64.5851 331.52 64.7475 332.579 65.1165 333.572C65.4855 334.566 66.0532 335.475 66.7851 336.242C67.517 337.01 68.3977 337.62 69.3734 338.036C70.3492 338.452 71.3995 338.665 72.4604 338.662L130.178 338.74Z" fill="#D7F0F9"/>
<path d="M497.673 350.821C509.808 350.821 510.525 332.512 498.368 331.916H497.364C495.251 331.913 493.152 332.244 491.142 332.897C490.325 327.962 487.761 323.483 483.918 320.277C480.074 317.072 475.206 315.352 470.2 315.43C465.194 315.509 460.382 317.382 456.642 320.707C452.901 324.032 450.479 328.589 449.818 333.548C445.721 331.604 441.073 331.156 436.679 332.28C426.034 335.014 428.273 350.843 439.261 350.843L497.673 350.821Z" fill="#D7F0F9"/>
<path d="M351.447 260.597C363.582 260.597 364.288 242.299 352.131 241.703H351.127C349.016 241.702 346.916 242.029 344.905 242.673C344.095 237.733 341.534 233.248 337.689 230.037C333.845 226.826 328.973 225.104 323.963 225.184C318.953 225.265 314.139 227.142 310.4 230.474C306.66 233.806 304.244 238.371 303.592 243.335C301.001 242.089 298.161 241.445 295.285 241.45C293.659 241.448 292.04 241.652 290.465 242.056C279.819 244.801 282.059 260.619 293.046 260.619L351.447 260.597Z" fill="#D7F0F9"/>
<path d="M157.624 294.427C173.739 294.427 186.802 281.374 186.802 265.271C186.802 249.169 173.739 236.115 157.624 236.115C141.509 236.115 128.445 249.169 128.445 265.271C128.445 281.374 141.509 294.427 157.624 294.427Z" fill="#FFBF4D"/>
<path d="M157.865 236.115C163.116 239.559 167.115 244.603 169.268 250.499C171.421 256.394 171.614 262.827 169.818 268.84C168.021 274.854 164.332 280.128 159.297 283.88C154.262 287.632 148.15 289.661 141.87 289.665H141.627C145.42 292.15 149.74 293.716 154.245 294.241C158.75 294.766 163.315 294.234 167.578 292.688C171.841 291.142 175.685 288.625 178.804 285.335C181.923 282.045 184.232 278.075 185.548 273.738C186.863 269.401 187.149 264.817 186.382 260.351C185.615 255.884 183.816 251.658 181.13 248.007C178.443 244.357 174.941 241.382 170.903 239.32C166.864 237.257 162.4 236.164 157.865 236.126V236.115Z" fill="#FF9F50"/>
<defs>
<filter id="filter0_d_35_54866" x="0" y="222.996" width="624" height="306.975" filterUnits="userSpaceOnUse" color-interpolation-filters="sRGB">
<feFlood flood-opacity="0" result="BackgroundImageFix"/>
<feColorMatrix in="SourceAlpha" type="matrix" values="0 0 0 0 0 0 0 0 0 0 0 0 0 0 0 0 0 0 127 0" result="hardAlpha"/>
<feOffset dy="1"/>
<feGaussianBlur stdDeviation="0.5"/>
<feComposite in2="hardAlpha" operator="out"/>
<feColorMatrix type="matrix" values="0 0 0 0 0 0 0 0 0 0 0 0 0 0 0 0 0 0 0.22 0"/>
<feBlend mode="normal" in2="BackgroundImageFix" result="effect1_dropShadow_35_54866"/>
<feBlend mode="normal" in="SourceGraphic" in2="effect1_dropShadow_35_54866" result="shape"/>
</filter>
<filter id="filter1_d_35_54866" x="206.719" y="524.037" width="18.3301" height="7.6543" filterUnits="userSpaceOnUse" color-interpolation-filters="sRGB">
<feFlood flood-opacity="0" result="BackgroundImageFix"/>
<feColorMatrix in="SourceAlpha" type="matrix" values="0 0 0 0 0 0 0 0 0 0 0 0 0 0 0 0 0 0 127 0" result="hardAlpha"/>
<feOffset dy="1"/>
<feGaussianBlur stdDeviation="0.5"/>
<feComposite in2="hardAlpha" operator="out"/>
<feColorMatrix type="matrix" values="0 0 0 0 0 0 0 0 0 0 0 0 0 0 0 0 0 0 0.22 0"/>
<feBlend mode="normal" in2="BackgroundImageFix" result="effect1_dropShadow_35_54866"/>
<feBlend mode="normal" in="SourceGraphic" in2="effect1_dropShadow_35_54866" result="shape"/>
</filter>
<filter id="filter2_d_35_54866" x="174.383" y="524.037" width="18.3047" height="7.6543" filterUnits="userSpaceOnUse" color-interpolation-filters="sRGB">
<feFlood flood-opacity="0" result="BackgroundImageFix"/>
<feColorMatrix in="SourceAlpha" type="matrix" values="0 0 0 0 0 0 0 0 0 0 0 0 0 0 0 0 0 0 127 0" result="hardAlpha"/>
<feOffset dy="1"/>
<feGaussianBlur stdDeviation="0.5"/>
<feComposite in2="hardAlpha" operator="out"/>
<feColorMatrix type="matrix" values="0 0 0 0 0 0 0 0 0 0 0 0 0 0 0 0 0 0 0.22 0"/>
<feBlend mode="normal" in2="BackgroundImageFix" result="effect1_dropShadow_35_54866"/>
<feBlend mode="normal" in="SourceGraphic" in2="effect1_dropShadow_35_54866" result="shape"/>
</filter>
<filter id="filter3_d_35_54866" x="113.602" y="499.443" width="37.8535" height="32.3125" filterUnits="userSpaceOnUse" color-interpolation-filters="sRGB">
<feFlood flood-opacity="0" result="BackgroundImageFix"/>
<feColorMatrix in="SourceAlpha" type="matrix" values="0 0 0 0 0 0 0 0 0 0 0 0 0 0 0 0 0 0 127 0" result="hardAlpha"/>
<feOffset dy="1"/>
<feGaussianBlur stdDeviation="0.5"/>
<feComposite in2="hardAlpha" operator="out"/>
<feColorMatrix type="matrix" values="0 0 0 0 0 0 0 0 0 0 0 0 0 0 0 0 0 0 0.22 0"/>
<feBlend mode="normal" in2="BackgroundImageFix" result="effect1_dropShadow_35_54866"/>
<feBlend mode="normal" in="SourceGraphic" in2="effect1_dropShadow_35_54866" result="shape"/>
</filter>
<filter id="filter4_d_35_54866" x="132.375" y="499.443" width="19.0762" height="32.2812" filterUnits="userSpaceOnUse" color-interpolation-filters="sRGB">
<feFlood flood-opacity="0" result="BackgroundImageFix"/>
<feColorMatrix in="SourceAlpha" type="matrix" values="0 0 0 0 0 0 0 0 0 0 0 0 0 0 0 0 0 0 127 0" result="hardAlpha"/>
<feOffset dy="1"/>
<feGaussianBlur stdDeviation="0.5"/>
<feComposite in2="hardAlpha" operator="out"/>
<feColorMatrix type="matrix" values="0 0 0 0 0 0 0 0 0 0 0 0 0 0 0 0 0 0 0.22 0"/>
<feBlend mode="normal" in2="BackgroundImageFix" result="effect1_dropShadow_35_54866"/>
<feBlend mode="normal" in="SourceGraphic" in2="effect1_dropShadow_35_54866" result="shape"/>
</filter>
<filter id="filter5_d_35_54866" x="254.848" y="484.684" width="13.418" height="47.0078" filterUnits="userSpaceOnUse" color-interpolation-filters="sRGB">
<feFlood flood-opacity="0" result="BackgroundImageFix"/>
<feColorMatrix in="SourceAlpha" type="matrix" values="0 0 0 0 0 0 0 0 0 0 0 0 0 0 0 0 0 0 127 0" result="hardAlpha"/>
<feOffset dy="1"/>
<feGaussianBlur stdDeviation="0.5"/>
<feComposite in2="hardAlpha" operator="out"/>
<feColorMatrix type="matrix" values="0 0 0 0 0 0 0 0 0 0 0 0 0 0 0 0 0 0 0.22 0"/>
<feBlend mode="normal" in2="BackgroundImageFix" result="effect1_dropShadow_35_54866"/>
<feBlend mode="normal" in="SourceGraphic" in2="effect1_dropShadow_35_54866" result="shape"/>
</filter>
<filter id="filter6_d_35_54866" x="263.674" y="484.684" width="4.5918" height="47.0078" filterUnits="userSpaceOnUse" color-interpolation-filters="sRGB">
<feFlood flood-opacity="0" result="BackgroundImageFix"/>
<feColorMatrix in="SourceAlpha" type="matrix" values="0 0 0 0 0 0 0 0 0 0 0 0 0 0 0 0 0 0 127 0" result="hardAlpha"/>
<feOffset dy="1"/>
<feGaussianBlur stdDeviation="0.5"/>
<feComposite in2="hardAlpha" operator="out"/>
<feColorMatrix type="matrix" values="0 0 0 0 0 0 0 0 0 0 0 0 0 0 0 0 0 0 0.22 0"/>
<feBlend mode="normal" in2="BackgroundImageFix" result="effect1_dropShadow_35_54866"/>
<feBlend mode="normal" in="SourceGraphic" in2="effect1_dropShadow_35_54866" result="shape"/>
</filter>
<filter id="filter7_d_35_54866" x="365.992" y="484.684" width="13.418" height="47.0078" filterUnits="userSpaceOnUse" color-interpolation-filters="sRGB">
<feFlood flood-opacity="0" result="BackgroundImageFix"/>
<feColorMatrix in="SourceAlpha" type="matrix" values="0 0 0 0 0 0 0 0 0 0 0 0 0 0 0 0 0 0 127 0" result="hardAlpha"/>
<feOffset dy="1"/>
<feGaussianBlur stdDeviation="0.5"/>
<feComposite in2="hardAlpha" operator="out"/>
<feColorMatrix type="matrix" values="0 0 0 0 0 0 0 0 0 0 0 0 0 0 0 0 0 0 0.22 0"/>
<feBlend mode="normal" in2="BackgroundImageFix" result="effect1_dropShadow_35_54866"/>
<feBlend mode="normal" in="SourceGraphic" in2="effect1_dropShadow_35_54866" result="shape"/>
</filter>
<filter id="filter8_d_35_54866" x="374.033" y="484.684" width="5.375" height="47.0078" filterUnits="userSpaceOnUse" color-interpolation-filters="sRGB">
<feFlood flood-opacity="0" result="BackgroundImageFix"/>
<feColorMatrix in="SourceAlpha" type="matrix" values="0 0 0 0 0 0 0 0 0 0 0 0 0 0 0 0 0 0 127 0" result="hardAlpha"/>
<feOffset dy="1"/>
<feGaussianBlur stdDeviation="0.5"/>
<feComposite in2="hardAlpha" operator="out"/>
<feColorMatrix type="matrix" values="0 0 0 0 0 0 0 0 0 0 0 0 0 0 0 0 0 0 0.22 0"/>
<feBlend mode="normal" in2="BackgroundImageFix" result="effect1_dropShadow_35_54866"/>
<feBlend mode="normal" in="SourceGraphic" in2="effect1_dropShadow_35_54866" result="shape"/>
</filter>
<filter id="filter9_d_35_54866" x="402.352" y="521.303" width="61.0957" height="10.3438" filterUnits="userSpaceOnUse" color-interpolation-filters="sRGB">
<feFlood flood-opacity="0" result="BackgroundImageFix"/>
<feColorMatrix in="SourceAlpha" type="matrix" values="0 0 0 0 0 0 0 0 0 0 0 0 0 0 0 0 0 0 127 0" result="hardAlpha"/>
<feOffset dy="1"/>
<feGaussianBlur stdDeviation="0.5"/>
<feComposite in2="hardAlpha" operator="out"/>
<feColorMatrix type="matrix" values="0 0 0 0 0 0 0 0 0 0 0 0 0 0 0 0 0 0 0.22 0"/>
<feBlend mode="normal" in2="BackgroundImageFix" result="effect1_dropShadow_35_54866"/>
<feBlend mode="normal" in="SourceGraphic" in2="effect1_dropShadow_35_54866" result="shape"/>
</filter>
<linearGradient id="paint0_linear_35_54866" x1="317.549" y1="494.308" x2="317.549" y2="467.797" gradientUnits="userSpaceOnUse">
<stop stop-color="white"/>
<stop offset="0.12" stop-color="white" stop-opacity="0.82"/>
<stop offset="0.3" stop-color="white" stop-opacity="0.58"/>
<stop offset="0.47" stop-color="white" stop-opacity="0.37"/>
<stop offset="0.64" stop-color="white" stop-opacity="0.21"/>
<stop offset="0.78" stop-color="white" stop-opacity="0.1"/>
<stop offset="0.91" stop-color="white" stop-opacity="0.02"/>
<stop offset="1" stop-color="white" stop-opacity="0"/>
</linearGradient>
</defs>
</svg>
