<svg width="42" height="42" viewBox="0 0 42 42" fill="none" xmlns="http://www.w3.org/2000/svg">
<circle cx="21" cy="21" r="21" fill="white"/>
<path d="M32.1562 17.6133C32.1562 24.5859 21.8178 30.2298 21.3775 30.4629C21.2615 30.5253 21.1318 30.558 21 30.558C20.8682 30.558 20.7385 30.5253 20.6225 30.4629C20.1822 30.2298 9.84375 24.5859 9.84375 17.6133C9.8456 15.9759 10.4968 14.4062 11.6546 13.2484C12.8124 12.0906 14.3822 11.4393 16.0195 11.4375C18.0765 11.4375 19.8774 12.322 21 13.8172C22.1226 12.322 23.9235 11.4375 25.9805 11.4375C27.6178 11.4393 29.1876 12.0906 30.3454 13.2484C31.5032 14.4062 32.1544 15.9759 32.1562 17.6133Z" fill="#FF0202"/>
</svg>
