<svg width="62" height="62" viewBox="0 0 62 62" fill="none" xmlns="http://www.w3.org/2000/svg">
<path d="M33.29 44.71L31 42.41L28.71 44.71L27.29 43.29L31 39.59L34.71 43.29L33.29 44.71Z" fill="#DF2624"/>
<path d="M33.29 14.71L31 12.41L28.71 14.71L27.29 13.29L31 9.59003L34.71 13.29L33.29 14.71Z" fill="#DF2624"/>
<path d="M35 61H33V5.41003L31 3.41003L29 5.41003V61H27V4.59003L31 0.590027L35 4.59003V61Z" fill="#DF2624"/>
<path d="M41 61H39V9.41003L37 7.41003L34.71 9.71003L33.29 8.29003L37 4.59003L41 8.59003V61Z" fill="#DF2624"/>
<path d="M45.29 41.12L43 38.82L40.71 41.12L39.29 39.7L43 36L46.71 39.7L45.29 41.12Z" fill="#DF2624"/>
<path d="M45.29 25.12L43 22.82L40.71 25.12L39.29 23.7L43 20L46.71 23.7L45.29 25.12Z" fill="#DF2624"/>
<path d="M47 61H45V12.41L43 10.41L40.71 12.71L39.29 11.29L43 7.59003L47 11.59V61Z" fill="#DF2624"/>
<path d="M23 61H21V8.59003L25 4.59003L28.71 8.29003L27.29 9.71003L25 7.41003L23 9.41003V61Z" fill="#DF2624"/>
<path d="M21.29 40.71L19 38.41L16.71 40.71L15.29 39.29L19 35.59L22.71 39.29L21.29 40.71Z" fill="#DF2624"/>
<path d="M21.29 25.71L19 23.41L16.71 25.71L15.29 24.29L19 20.59L22.71 24.29L21.29 25.71Z" fill="#DF2624"/>
<path d="M17 61H15V11.59L19 7.59003L22.71 11.29L21.29 12.71L19 10.41L17 12.41V61Z" fill="#DF2624"/>
<path d="M53 61H51V15.41L49 13.41L46.71 15.71L45.29 14.29L49 10.59L53 14.59V61Z" fill="#DF2624"/>
<path d="M57.29 41.12L55 38.82L52.71 41.12L51.29 39.7L55 36L58.71 39.7L57.29 41.12Z" fill="#DF2624"/>
<path d="M57.29 25.12L55 22.82L52.71 25.12L51.29 23.7L55 20L58.71 23.7L57.29 25.12Z" fill="#DF2624"/>
<path d="M59 61H57V15.41L55 13.41L52.71 15.71L51.29 14.29L55 10.59L59 14.59V61Z" fill="#DF2624"/>
<path d="M11 61H9V14.59L13 10.59L16.71 14.29L15.29 15.71L13 13.41L11 15.41V61Z" fill="#DF2624"/>
<path d="M9.29004 41.12L7.00004 38.82L4.71004 41.12L3.29004 39.7L7.00004 36L10.71 39.7L9.29004 41.12Z" fill="#DF2624"/>
<path d="M9.29004 25.12L7.00004 22.82L4.71004 25.12L3.29004 23.7L7.00004 20L10.71 23.7L9.29004 25.12Z" fill="#DF2624"/>
<path d="M5 61H3V14.59L7 10.59L10.71 14.29L9.29 15.71L7 13.41L5 15.41V61Z" fill="#DF2624"/>
<path d="M50 10H48V12H50V10Z" fill="#DF2624"/>
<path d="M14 10H12V12H14V10Z" fill="#DF2624"/>
<path d="M32 6H30V8H32V6Z" fill="#DF2624"/>
<path d="M32 27H30V29H32V27Z" fill="#DF2624"/>
<path d="M38 20H36V22H38V20Z" fill="#DF2624"/>
<path d="M38 46H36V48H38V46Z" fill="#DF2624"/>
<path d="M26 22H24V24H26V22Z" fill="#DF2624"/>
<path d="M44 29H42V31H44V29Z" fill="#DF2624"/>
<path d="M44 45H42V47H44V45Z" fill="#DF2624"/>
<path d="M50 39H48V41H50V39Z" fill="#DF2624"/>
<path d="M50 23H48V25H50V23Z" fill="#DF2624"/>
<path d="M26 46H24V48H26V46Z" fill="#DF2624"/>
<path d="M14 37H12V39H14V37Z" fill="#DF2624"/>
<path d="M14 22H12V24H14V22Z" fill="#DF2624"/>
<path d="M32 0H30V2H32V0Z" fill="#DF2624"/>
<path d="M61 60H1V62H61V60Z" fill="#DF2624"/>
</svg>
