<svg width="17" height="23" viewBox="0 0 17 23" fill="none" xmlns="http://www.w3.org/2000/svg">
<path fill-rule="evenodd" clip-rule="evenodd" d="M14.1433 7.82815C14.1524 7.83425 14.1544 7.84593 14.1478 7.85456L12.8163 9.5751C12.8097 9.58373 12.797 9.58525 12.7884 9.57916C12.7792 9.57307 12.7772 9.56138 12.7838 9.55275L14.1153 7.83222C14.1219 7.82358 14.1346 7.82206 14.1433 7.82815Z" fill="#5F5F5F" stroke="#5F5F5F" stroke-width="0.203133" stroke-miterlimit="10" stroke-linecap="square"/>
<path fill-rule="evenodd" clip-rule="evenodd" d="M13.6887 7.30569C13.6979 7.31179 13.6999 7.32347 13.6933 7.3321L12.3618 9.05263C12.3552 9.06127 12.3425 9.06279 12.3338 9.0567C12.3247 9.0506 12.3227 9.03892 12.3293 9.03029L13.6608 7.30975C13.6674 7.30112 13.6801 7.2996 13.6887 7.30569Z" fill="#5F5F5F" stroke="#5F5F5F" stroke-width="0.203133" stroke-miterlimit="10" stroke-linecap="square"/>
<path fill-rule="evenodd" clip-rule="evenodd" d="M12.0088 1.99931C11.5086 1.69461 10.9845 1.45948 10.4477 1.29444C7.94363 0.523038 5.1602 1.26752 3.19641 3.52636C2.42552 4.41303 1.85776 5.44495 1.49263 6.54593L3.36552 8.70016L6.30993 12.0869C7.23368 13.1493 8.60482 13.3849 9.72663 12.7933L5.69545 8.15677L4.1425 6.37022C4.33344 6.03454 4.5574 5.71613 4.81385 5.42108C5.07031 5.12603 5.34708 4.86907 5.63857 4.64918C7.26262 3.42581 9.35591 3.36639 11.0262 4.46991C11.4121 4.72484 11.7752 5.04224 12.1048 5.42108L15.9963 9.89712C16.0512 7.87645 15.4926 5.8375 14.32 4.18248C14.1595 3.95599 13.9873 3.7366 13.804 3.52585C13.6207 3.3151 13.4297 3.11705 13.2332 2.9327C12.282 2.11712 12.0886 2.09021 12.0093 1.9988L12.0088 1.99931ZM1.00206 9.42331C0.961437 11.4221 1.52056 13.4342 2.68045 15.0704C2.84093 15.2969 3.02679 15.5163 3.21012 15.727C3.83932 16.4512 4.24051 16.9022 4.75799 17.5232L5.84475 18.7735L8.50021 21.8276L13.804 15.727C14.5632 14.8536 15.1254 13.8394 15.491 12.7577L13.5536 10.5294L10.6087 7.14263C9.68498 6.08025 8.31384 5.84461 7.19203 6.43624L11.2232 11.0727L12.7762 12.8588C12.5852 13.1945 12.3613 13.5129 12.1048 13.8079C11.8483 14.103 11.5716 14.3599 11.2801 14.5798C9.28075 16.0856 6.57045 15.8281 4.81385 13.8079L1.00206 9.42331Z" fill="#5F5F5F" stroke="#5F5F5F" stroke-width="0.274737" stroke-miterlimit="10"/>
<path fill-rule="evenodd" clip-rule="evenodd" d="M12.2297 9.37917L13.9457 7.15588L14.3515 7.37273L12.5106 9.7504L12.2297 9.37917Z" fill="#5F5F5F"/>
</svg>
