<svg width="44" height="60" viewBox="0 0 44 60" fill="none" xmlns="http://www.w3.org/2000/svg">
<path fill-rule="evenodd" clip-rule="evenodd" d="M37.8615 20.1504C37.8872 20.1675 37.8929 20.2002 37.8744 20.2244L34.1399 25.0498C34.1214 25.0741 34.0858 25.0783 34.0616 25.0612C34.036 25.0441 34.0303 25.0114 34.0488 24.9872L37.7832 20.1618C37.8017 20.1375 37.8373 20.1333 37.8615 20.1504Z" fill="#0F0F0F" stroke="#0F0F0F" stroke-width="0.569707" stroke-miterlimit="10" stroke-linecap="square"/>
<path fill-rule="evenodd" clip-rule="evenodd" d="M36.5868 18.6848C36.6125 18.7019 36.6182 18.7346 36.5996 18.7588L32.8652 23.5843C32.8467 23.6085 32.8111 23.6128 32.7869 23.5957C32.7612 23.5786 32.7555 23.5458 32.7741 23.5216L36.5085 18.6962C36.527 18.672 36.5626 18.6677 36.5868 18.6848Z" fill="#0F0F0F" stroke="#0F0F0F" stroke-width="0.569707" stroke-miterlimit="10" stroke-linecap="square"/>
<path fill-rule="evenodd" clip-rule="evenodd" d="M31.8754 3.80266C30.4725 2.9481 29.0026 2.28866 27.4972 1.82577C20.4741 -0.337688 12.6677 1.75029 7.16005 8.08543C4.99801 10.5722 3.40568 13.4663 2.38163 16.5541L7.63433 22.5959L15.8922 32.0943C18.483 35.0739 22.3285 35.7347 25.4747 34.0755L14.1689 21.0719L9.81346 16.0613C10.349 15.1199 10.9771 14.2269 11.6963 13.3994C12.4156 12.5719 13.1918 11.8512 14.0094 11.2345C18.5642 7.80342 24.435 7.63678 29.1194 10.7317C30.2018 11.4467 31.2202 12.3369 32.1445 13.3994L43.0587 25.9529C43.2125 20.2857 41.6458 14.5673 38.3572 9.92558C37.9071 9.29036 37.4243 8.67508 36.9101 8.084C36.396 7.49293 35.8605 6.93747 35.3093 6.42046C32.6416 4.13309 32.099 4.0576 31.8768 3.80123L31.8754 3.80266ZM1.00579 24.624C0.891847 30.2299 2.45997 35.8729 5.71299 40.4619C6.16306 41.0971 6.68434 41.7124 7.1985 42.3035C8.96317 44.3345 10.0883 45.5992 11.5397 47.3411L14.5876 50.8476L22.0351 59.4132L36.9101 42.3035C39.0394 39.8537 40.6161 37.0095 41.6416 33.9758L36.208 27.7261L27.9487 18.2276C25.3579 15.2481 21.5124 14.5872 18.3662 16.2465L29.672 29.25L34.0274 34.2592C33.4919 35.2006 32.8638 36.0936 32.1445 36.9211C31.4253 37.7486 30.6491 38.4693 29.8315 39.086C24.2242 43.309 16.6229 42.5869 11.6963 36.9211L1.00579 24.624Z" fill="#931602" stroke="#0F0F0F" stroke-width="0.770529" stroke-miterlimit="10"/>
<path fill-rule="evenodd" clip-rule="evenodd" d="M32.4949 24.5001L37.3075 18.2646L38.4455 18.8728L33.2826 25.5412L32.4949 24.5001Z" fill="#931602"/>
</svg>
