<svg width="16" height="16" viewBox="0 0 16 16" fill="none" xmlns="http://www.w3.org/2000/svg">
<g id="measured" clip-path="url(#clip0_421_643)">
<g id="Group">
<path id="Vector" d="M1.86379 7.25134C1.93125 7.26097 1.9986 7.26572 2.06557 7.26572C2.22529 7.26572 2.38232 7.23831 2.53129 7.18547V12.3438C2.53129 12.6026 2.74116 12.8125 3.00004 12.8125H13C13.2589 12.8125 13.4688 12.6026 13.4688 12.3438V7.18544C13.6177 7.23813 13.7751 7.2655 13.9368 7.2655C14.3776 7.2655 14.7984 7.05519 15.0625 6.703C15.2879 6.40253 15.3828 6.03225 15.3296 5.66034C15.2765 5.28844 15.0817 4.9595 14.7812 4.73416L13.4688 3.74978V0.46875C13.4688 0.209875 13.2589 0 13 0H11.125C10.8662 0 10.6563 0.209875 10.6563 0.46875V1.64038L8.8435 0.280813C8.34685 -0.0911875 7.65316 -0.0911875 7.15635 0.280969L1.21888 4.73409C0.918348 4.95947 0.723535 5.28841 0.670442 5.66031C0.617317 6.03222 0.712192 6.4025 0.937504 6.70284C1.16285 7.00344 1.49182 7.19825 1.86379 7.25134ZM3.46879 11.875V6.56244L8.00004 3.16394L12.5313 6.56244V11.875H3.46879ZM11.5938 0.9375H12.5313V3.04666L11.5938 2.34353V0.9375ZM1.59854 5.79287C1.61622 5.66887 1.68119 5.55922 1.78138 5.48409L7.71863 1.03116C7.80147 0.969063 7.90082 0.938062 8.0001 0.938062C8.09935 0.938062 8.19854 0.969063 8.28122 1.031L14.2188 5.48413C14.3189 5.55925 14.3838 5.66891 14.4016 5.79287C14.4193 5.91684 14.3877 6.04025 14.3124 6.1405C14.2231 6.25966 14.0862 6.328 13.9368 6.328C13.8351 6.328 13.7381 6.29556 13.6564 6.23438L8.28129 2.20297C8.1146 2.07797 7.88547 2.07797 7.71879 2.20297L2.34379 6.23431C2.24366 6.30937 2.12013 6.34088 1.99629 6.32328C1.87232 6.30559 1.76269 6.24066 1.68754 6.14038C1.61244 6.04025 1.58082 5.91684 1.59854 5.79287Z" fill="#434E58"/>
<path id="Vector_2" d="M15.8627 13.9498L14.6127 12.6998C14.4297 12.5168 14.1329 12.5168 13.9498 12.6998C13.7668 12.8829 13.7668 13.1797 13.9498 13.3627L14.3996 13.8125H1.60042L2.05023 13.3627C2.2333 13.1796 2.2333 12.8829 2.05023 12.6998C1.8672 12.5167 1.57039 12.5167 1.38733 12.6998L0.137327 13.9498C-0.0457351 14.1329 -0.0457351 14.4296 0.137327 14.6127L1.38733 15.8627C1.47886 15.9543 1.5988 16 1.71876 16C1.83873 16 1.9587 15.9543 2.0502 15.8627C2.23326 15.6796 2.23326 15.3829 2.0502 15.1998L1.60042 14.75H14.3996L13.9498 15.1998C13.7667 15.3829 13.7667 15.6797 13.9498 15.8627C14.0414 15.9543 14.1613 16 14.2813 16C14.4012 16 14.5212 15.9543 14.6127 15.8627L15.8627 14.6127C16.0458 14.4297 16.0458 14.1329 15.8627 13.9498Z" fill="#434E58"/>
<path id="Vector_3" d="M10.8125 6.5625H5.1875C4.92862 6.5625 4.71875 6.77237 4.71875 7.03125V9.84375C4.71875 10.1026 4.92862 10.3125 5.1875 10.3125H10.8125C11.0714 10.3125 11.2812 10.1026 11.2812 9.84375V7.03125C11.2812 6.77237 11.0714 6.5625 10.8125 6.5625ZM5.65625 7.5H7.53125V9.375H5.65625V7.5ZM10.3437 9.375H8.46875V7.5H10.3437V9.375Z" fill="#434E58"/>
</g>
</g>
<defs>
<clipPath id="clip0_421_643">
<rect width="16" height="16" fill="white"/>
</clipPath>
</defs>
</svg>
