<svg width="62" height="62" viewBox="0 0 62 62" fill="none" xmlns="http://www.w3.org/2000/svg">
<g clip-path="url(#clip0_5440_20699)">
<path d="M38.0001 61H36.0001V50.71C36.0075 48.9639 35.5479 47.2476 34.6687 45.739C33.7896 44.2304 32.5229 42.9843 31.0001 42.13C29.4772 42.9843 28.2106 44.2304 27.3314 45.739C26.4523 47.2476 25.9926 48.9639 26.0001 50.71V61H24.0001V50.71C23.9917 48.5075 24.601 46.3468 25.7588 44.4731C26.9166 42.5994 28.5765 41.0878 30.5501 40.11L31.0001 39.88L31.4501 40.11C33.4237 41.0878 35.0836 42.5994 36.2414 44.4731C37.3991 46.3468 38.0084 48.5075 38.0001 50.71V61Z" fill="#DF2624"/>
<path d="M43 34H19V36H43V34Z" fill="#DF2624"/>
<path d="M20 61H18V6H16V61H14V4H20V61Z" fill="#DF2624"/>
<path d="M15 26H0V20H15V22H2V24H15V26Z" fill="#DF2624"/>
<path d="M15 40H0V34H15V36H2V38H15V40Z" fill="#DF2624"/>
<path d="M10 39H8V43H10V39Z" fill="#DF2624"/>
<path d="M15 42H3V44H15V42Z" fill="#DF2624"/>
<path d="M12 61H10V55C10 54.7348 9.89463 54.4804 9.70709 54.2929C9.51956 54.1054 9.26522 54 9 54C8.73478 54 8.48044 54.1054 8.29291 54.2929C8.10537 54.4804 8 54.7348 8 55V61H6V55C6 54.2044 6.31605 53.4413 6.87866 52.8787C7.44127 52.3161 8.20435 52 9 52C9.79565 52 10.5587 52.3161 11.1213 52.8787C11.6839 53.4413 12 54.2044 12 55V61Z" fill="#DF2624"/>
<path d="M4 25H2V35H4V25Z" fill="#DF2624"/>
<path d="M24 29H22V35H24V29Z" fill="#DF2624"/>
<path d="M40 29H38V35H40V29Z" fill="#DF2624"/>
<path d="M32 29H30V35H32V29Z" fill="#DF2624"/>
<path d="M18 0H16V5H18V0Z" fill="#DF2624"/>
<path d="M48 61H46V6H44V61H42V4H48V61Z" fill="#DF2624"/>
<path d="M62 26H47V24H60V22H47V20H62V26Z" fill="#DF2624"/>
<path d="M62 40H47V38H60V36H47V34H62V40Z" fill="#DF2624"/>
<path d="M60 62H2V39H4V60H58V39H60V62Z" fill="#DF2624"/>
<path d="M59 42H47V44H59V42Z" fill="#DF2624"/>
<path d="M56 61H54V55C54 54.7348 53.8946 54.4804 53.7071 54.2929C53.5196 54.1054 53.2652 54 53 54C52.7348 54 52.4804 54.1054 52.2929 54.2929C52.1054 54.4804 52 54.7348 52 55V61H50V55C50 54.2044 50.3161 53.4413 50.8787 52.8787C51.4413 52.3161 52.2044 52 53 52C53.7956 52 54.5587 52.3161 55.1213 52.8787C55.6839 53.4413 56 54.2044 56 55V61Z" fill="#DF2624"/>
<path d="M60 25H58V35H60V25Z" fill="#DF2624"/>
<path d="M46 0H44V5H46V0Z" fill="#DF2624"/>
<path d="M43 12H19V14H43V12Z" fill="#DF2624"/>
<path d="M43 16H19V18H43V16Z" fill="#DF2624"/>
<path d="M43 28H19V30H43V28Z" fill="#DF2624"/>
<path d="M40 26H22V20H40V26ZM24 24H38V22H24V24Z" fill="#DF2624"/>
<path d="M54 39H52V43H54V39Z" fill="#DF2624"/>
<path d="M62 29H59V31H62V29Z" fill="#DF2624"/>
<path d="M3 29H0V31H3V29Z" fill="#DF2624"/>
</g>
<defs>
<clipPath id="clip0_5440_20699">
<rect width="62" height="62" fill="white"/>
</clipPath>
</defs>
</svg>
