<svg width="58" height="64" viewBox="0 0 58 64" fill="none" xmlns="http://www.w3.org/2000/svg">
<path d="M45.2937 44.9607L39.4175 43.0023L37.3079 38.7831C39.2084 36.8488 40.5279 34.2893 40.9729 31.6197L41.236 30.0428H43.486C45.5311 30.0428 47.1949 28.3789 47.1949 26.3338V18.5449C47.1949 8.31925 38.8757 0 28.65 0C18.3981 0 10.1051 8.29539 10.1051 18.5449V26.3338C10.1051 27.9455 11.1388 29.3198 12.5778 29.8301V31.2791C12.5778 33.3242 14.2416 34.9881 16.2867 34.9881H17.3725C17.9084 36.1523 18.6021 37.2307 19.4463 38.1993C19.6214 38.4006 19.804 38.5957 19.991 38.7855L17.8826 43.0023L12.0062 44.9608C5.17364 47.2391 0.214478 54.4319 0.214478 62.0637C0.214478 62.7465 0.767982 63.3 1.45081 63.3H55.8492C56.5319 63.3 57.0856 62.7465 57.0856 62.0637C57.0856 54.4319 52.1265 47.2391 45.2937 44.9607ZM44.7223 26.3338C44.7223 27.0155 44.1677 27.5701 43.486 27.5701H41.5991C41.9134 25.1358 42.1228 22.5453 42.207 19.9939C42.2095 19.9219 42.2114 19.852 42.2137 19.7812H44.7223V26.3338ZM13.8141 27.5701C13.1324 27.5701 12.5778 27.0155 12.5778 26.3338V19.7812H15.0873C15.0913 19.9102 15.0957 20.0398 15.1005 20.1702C15.1006 20.1746 15.1009 20.179 15.101 20.1834C15.101 20.1838 15.101 20.1842 15.101 20.1845C15.1875 22.6661 15.3942 25.1893 15.7013 27.57H13.8141V27.5701ZM16.2867 32.5154C15.605 32.5154 15.0504 31.9608 15.0504 31.2791V30.0428H16.064L16.327 31.6202C16.3772 31.92 16.4389 32.2187 16.5103 32.5154H16.2867ZM15.0525 17.3086H12.6247C13.2509 9.0226 20.166 2.47266 28.65 2.47266C37.0964 2.47266 44.0418 9.02173 44.6752 17.3086H42.2477C42.1586 10.4807 36.5985 4.94531 29.7567 4.94531H27.5436C20.7019 4.94531 15.1414 10.4807 15.0525 17.3086ZM27.5435 7.41797H29.7565C35.2964 7.41797 39.7802 11.9492 39.777 17.4829C39.777 17.872 39.7739 18.2107 39.7673 18.519C39.7673 18.5229 39.7672 18.527 39.7672 18.5311L38.2208 18.3101C34.0198 17.7103 30.0531 15.727 27.0516 12.7254C26.8196 12.4936 26.5052 12.3633 26.1774 12.3633C22.8571 12.3633 19.6787 13.8761 17.5777 16.4318C18.0955 11.3976 22.3513 7.41797 27.5435 7.41797ZM19.0734 32.5154C18.4545 30.4566 17.7464 24.3986 17.5898 20.5165L19.2538 18.2978C20.782 16.2608 23.1596 14.9952 25.6888 14.8499C29.0166 18.0169 33.3217 20.1083 37.8712 20.7578L39.6913 21.018C39.5696 23.6 39.321 26.1911 38.9648 28.5741C38.9647 28.5749 38.9646 28.5757 38.9645 28.5766C38.8512 29.3428 38.762 29.8358 38.534 31.213C37.8792 35.1402 34.9489 38.6915 31.0805 39.6587C29.4885 40.0562 27.8113 40.056 26.2201 39.6587C23.8047 39.0549 21.59 37.3836 20.1607 34.9881H22.681C23.1914 36.427 24.5656 37.4607 26.1774 37.4607H28.65C30.6992 37.4607 32.359 35.8011 32.359 33.7518C32.359 31.7066 30.6952 30.0428 28.65 30.0428H26.1774C24.5297 30.0428 23.1758 31.107 22.6789 32.5154H19.0734ZM26.0734 42.1608C26.9214 42.3394 27.786 42.4308 28.65 42.4308C29.3264 42.4308 30.0029 42.3742 30.6718 42.2644L28.4872 44.5747L26.0734 42.1608ZM26.7875 46.3721L22.8661 50.519C21.7865 48.4526 20.8589 46.302 20.0981 44.1003L21.5707 41.1551L26.7875 46.3721ZM35.5198 40.7363L37.2017 44.1002C36.4396 46.3056 35.5118 48.4569 34.4333 50.5208L30.2362 46.3237L35.5198 40.7363ZM24.941 33.7518C24.941 33.0692 25.4947 32.5154 26.1774 32.5154H28.65C29.3317 32.5154 29.8864 33.07 29.8864 33.7518C29.8864 34.4345 29.3326 34.9881 28.65 34.9881H26.1774C25.4957 34.9881 24.941 34.4335 24.941 33.7518ZM2.73659 60.8273C3.22654 54.7027 7.30259 49.1358 12.7882 47.3065L17.9924 45.5722C18.9458 48.2086 20.127 50.7712 21.5113 53.2053C21.5137 53.2095 21.5159 53.2137 21.5183 53.2177L21.5184 53.218C22.5298 54.9969 23.6682 56.7353 24.9025 58.3857L26.4234 60.8273H2.73659ZM28.65 59.7253L26.9733 57.0334C26.9545 57.0033 26.9345 56.974 26.9132 56.9455C25.9121 55.61 24.9781 54.2134 24.1275 52.7838L28.5367 48.1211L33.1825 52.767C32.3262 54.2069 31.3891 55.6094 30.3871 56.9453C30.3265 57.026 30.4124 56.8988 28.65 59.7253ZM30.8767 60.8273L32.3975 58.3858C33.6371 56.7292 34.7837 54.9768 35.8053 53.1769C35.8115 53.1661 35.8173 53.1549 35.8234 53.1441C35.8242 53.1427 35.8249 53.1415 35.8257 53.1401C37.1924 50.7293 38.3613 48.189 39.3077 45.5722L44.5117 47.3065C49.9975 49.1358 54.0735 54.7027 54.5635 60.8273H30.8767Z" fill="#931602"/>
</svg>
