<svg width="176" height="52" viewBox="0 0 176 52" fill="none" xmlns="http://www.w3.org/2000/svg">
<g clip-path="url(#clip0_745_14125)">
<path d="M169.481 -0.0742188H6.51852C2.91844 -0.0742188 0 2.84422 0 6.4443V45.5554C0 49.1555 2.91844 52.0739 6.51852 52.0739H169.481C173.082 52.0739 176 49.1555 176 45.5554V6.4443C176 2.84422 173.082 -0.0742188 169.481 -0.0742188Z" fill="black"/>
<path d="M169.481 0.968483C170.933 0.970161 172.325 1.54763 173.351 2.57419C174.378 3.60075 174.955 4.99257 174.957 6.4443V45.5554C174.955 47.0071 174.378 48.3989 173.351 49.4255C172.325 50.4521 170.933 51.0295 169.481 51.0312H6.51852C5.06678 51.0296 3.67498 50.4521 2.64847 49.4255C1.62196 48.399 1.04457 47.0071 1.04296 45.5554V6.4443C1.04454 4.99255 1.62193 3.60072 2.64845 2.57415C3.67496 1.54759 5.06677 0.970133 6.51852 0.968483H169.481ZM169.481 -0.0742188H6.51852C4.79125 -0.0691629 3.13618 0.619231 1.91481 1.8406C0.69345 3.06196 0.00505589 4.71704 0 6.4443L0 45.5554C0.00505589 47.2827 0.69345 48.9377 1.91481 50.1591C3.13618 51.3805 4.79125 52.0689 6.51852 52.0739H169.481C171.209 52.0689 172.864 51.3805 174.085 50.1591C175.307 48.9377 175.995 47.2827 176 45.5554V6.4443C175.995 4.71704 175.307 3.06196 174.085 1.8406C172.864 0.619231 171.209 -0.0691629 169.481 -0.0742188Z" fill="#A6A6A6"/>
<path d="M61.8174 13.2804C61.8411 13.7588 61.7672 14.237 61.6002 14.6859C61.4331 15.1348 61.1765 15.545 60.8459 15.8916C60.4753 16.2758 60.0279 16.5776 59.5327 16.777C59.0375 16.9764 58.5058 17.0691 57.9724 17.0489C57.4355 17.0537 56.9032 16.9511 56.4065 16.7472C55.9099 16.5433 55.459 16.2422 55.0804 15.8616C54.7018 15.481 54.4031 15.0285 54.2019 14.5308C54.0006 14.033 53.9009 13.5001 53.9086 12.9633C53.901 12.4265 54.0007 11.8936 54.202 11.3958C54.4032 10.8981 54.7019 10.4456 55.0805 10.0649C55.4591 9.68426 55.9099 9.38308 56.4065 9.1791C56.9032 8.97512 57.4355 8.87244 57.9724 8.8771C58.5244 8.87544 59.0708 8.98703 59.5779 9.20499C60.0489 9.3959 60.4681 9.69537 60.8014 10.079L60.1138 10.7671C59.8518 10.4587 59.5225 10.2146 59.1512 10.0537C58.7799 9.89278 58.3766 9.81932 57.9724 9.83898C57.5655 9.83687 57.1624 9.9169 56.7872 10.0743C56.412 10.2316 56.0724 10.4631 55.7888 10.7548C55.5052 11.0466 55.2834 11.3925 55.1366 11.772C54.9899 12.1515 54.9212 12.5567 54.9348 12.9633C54.9251 13.5724 55.0964 14.1706 55.4272 14.6822C55.7579 15.1937 56.2332 15.5956 56.7926 15.8367C57.352 16.0778 57.9704 16.1474 58.5694 16.0366C59.1684 15.9257 59.721 15.6396 60.1571 15.2143C60.5585 14.7818 60.7912 14.2194 60.8128 13.6298H57.9724V12.6902H61.7626C61.7985 12.8849 61.8168 13.0824 61.8174 13.2804Z" fill="white"/>
<path d="M67.8266 10.0134H64.2643V12.4934H67.4765V13.4332H64.2643V15.9132H67.8266V16.8744H63.2598V9.05219H67.8266V10.0134Z" fill="white"/>
<path d="M72.0649 16.8744H71.0591V10.0134H68.8744V9.05219H74.2496V10.0134H72.0649V16.8744Z" fill="white"/>
<path d="M78.1391 16.8744V9.05219H79.1436V16.8744H78.1391Z" fill="white"/>
<path d="M83.6022 16.8744H82.5964V10.0134H80.4117V9.05219H85.7869V10.0134H83.6022V16.8744Z" fill="white"/>
<path d="M95.9626 15.8635C95.2012 16.6226 94.1699 17.0489 93.0948 17.0489C92.0197 17.0489 90.9884 16.6226 90.2271 15.8635C89.8504 15.482 89.5543 15.0287 89.3564 14.5304C89.1584 14.0322 89.0627 13.4993 89.0749 12.9633C89.0627 12.4273 89.1584 11.8944 89.3564 11.3962C89.5543 10.8979 89.8504 10.4446 90.2271 10.0631C90.6034 9.68666 91.0503 9.38815 91.5421 9.18465C92.0339 8.98114 92.5611 8.87663 93.0933 8.87711C93.6256 8.87758 94.1526 8.98302 94.644 9.1874C95.1355 9.39178 95.5818 9.69108 95.9575 10.0682C96.3344 10.4487 96.6311 10.901 96.8299 11.3983C97.0287 11.8956 97.1256 12.4278 97.1148 12.9633C97.1266 13.4992 97.0307 14.0321 96.8328 14.5303C96.6349 15.0285 96.339 15.4818 95.9626 15.8635ZM90.9693 15.2085C91.5332 15.7715 92.2974 16.0876 93.0942 16.0876C93.891 16.0876 94.6552 15.7715 95.2191 15.2085C95.5082 14.9125 95.7344 14.5609 95.8838 14.175C96.0333 13.7891 96.103 13.3769 96.0886 12.9633C96.103 12.5497 96.0333 12.1375 95.8838 11.7516C95.7344 11.3657 95.5082 11.0141 95.2191 10.7181C94.6552 10.1551 93.891 9.83896 93.0942 9.83896C92.2974 9.83896 91.5332 10.1551 90.9693 10.7181C90.6805 11.0143 90.4547 11.366 90.3055 11.7519C90.1563 12.1378 90.0867 12.5498 90.101 12.9633C90.0867 13.3768 90.1563 13.7889 90.3055 14.1747C90.4547 14.5606 90.6805 14.9123 90.9693 15.2085Z" fill="white"/>
<path d="M98.5254 16.8744V9.05219H99.7489L103.551 15.1372H103.594L103.551 13.6298V9.05219H104.556V16.8744H103.507L99.5299 10.4946H99.4866L99.5299 12.0021V16.8744H98.5254Z" fill="white"/>
<path d="M61.8174 13.2804C61.8411 13.7588 61.7672 14.237 61.6002 14.6859C61.4331 15.1348 61.1765 15.545 60.8459 15.8916C60.4753 16.2758 60.0279 16.5776 59.5327 16.777C59.0375 16.9764 58.5058 17.0691 57.9724 17.0489C57.4355 17.0537 56.9032 16.9511 56.4065 16.7472C55.9099 16.5433 55.459 16.2422 55.0804 15.8616C54.7018 15.481 54.4031 15.0285 54.2019 14.5308C54.0006 14.033 53.9009 13.5001 53.9086 12.9633C53.901 12.4265 54.0007 11.8936 54.202 11.3958C54.4032 10.8981 54.7019 10.4456 55.0805 10.0649C55.4591 9.68426 55.9099 9.38308 56.4065 9.1791C56.9032 8.97512 57.4355 8.87244 57.9724 8.8771C58.5244 8.87544 59.0708 8.98703 59.5779 9.20499C60.0489 9.3959 60.4681 9.69537 60.8014 10.079L60.1138 10.7671C59.8518 10.4587 59.5225 10.2146 59.1512 10.0537C58.7799 9.89278 58.3766 9.81932 57.9724 9.83898C57.5655 9.83687 57.1624 9.9169 56.7872 10.0743C56.412 10.2316 56.0724 10.4631 55.7888 10.7548C55.5052 11.0466 55.2834 11.3925 55.1366 11.772C54.9899 12.1515 54.9212 12.5567 54.9348 12.9633C54.9251 13.5724 55.0964 14.1706 55.4272 14.6822C55.7579 15.1937 56.2332 15.5956 56.7926 15.8367C57.352 16.0778 57.9704 16.1474 58.5694 16.0366C59.1684 15.9257 59.721 15.6396 60.1571 15.2143C60.5585 14.7818 60.7912 14.2194 60.8128 13.6298H57.9724V12.6902H61.7626C61.7985 12.8849 61.8168 13.0824 61.8174 13.2804Z" stroke="white" stroke-width="0.260741" stroke-miterlimit="10"/>
<path d="M67.8266 10.0134H64.2643V12.4934H67.4765V13.4332H64.2643V15.9132H67.8266V16.8744H63.2598V9.05219H67.8266V10.0134Z" stroke="white" stroke-width="0.260741" stroke-miterlimit="10"/>
<path d="M72.0649 16.8744H71.0591V10.0134H68.8744V9.05219H74.2496V10.0134H72.0649V16.8744Z" stroke="white" stroke-width="0.260741" stroke-miterlimit="10"/>
<path d="M78.1391 16.8744V9.05219H79.1436V16.8744H78.1391Z" stroke="white" stroke-width="0.260741" stroke-miterlimit="10"/>
<path d="M83.6022 16.8744H82.5964V10.0134H80.4117V9.05219H85.7869V10.0134H83.6022V16.8744Z" stroke="white" stroke-width="0.260741" stroke-miterlimit="10"/>
<path d="M95.9626 15.8635C95.2012 16.6226 94.1699 17.0489 93.0948 17.0489C92.0197 17.0489 90.9884 16.6226 90.2271 15.8635C89.8504 15.482 89.5543 15.0287 89.3564 14.5304C89.1584 14.0322 89.0627 13.4993 89.0749 12.9633C89.0627 12.4273 89.1584 11.8944 89.3564 11.3962C89.5543 10.8979 89.8504 10.4446 90.2271 10.0631C90.6034 9.68666 91.0503 9.38815 91.5421 9.18465C92.0339 8.98114 92.5611 8.87663 93.0933 8.87711C93.6256 8.87758 94.1526 8.98302 94.644 9.1874C95.1355 9.39178 95.5818 9.69108 95.9575 10.0682C96.3344 10.4487 96.6311 10.901 96.8299 11.3983C97.0287 11.8956 97.1256 12.4278 97.1148 12.9633C97.1266 13.4992 97.0307 14.0321 96.8328 14.5303C96.6349 15.0285 96.339 15.4818 95.9626 15.8635ZM90.9693 15.2085C91.5332 15.7715 92.2974 16.0876 93.0942 16.0876C93.891 16.0876 94.6552 15.7715 95.2191 15.2085C95.5082 14.9125 95.7344 14.5609 95.8838 14.175C96.0333 13.7891 96.103 13.3769 96.0886 12.9633C96.103 12.5497 96.0333 12.1375 95.8838 11.7516C95.7344 11.3657 95.5082 11.0141 95.2191 10.7181C94.6552 10.1551 93.891 9.83896 93.0942 9.83896C92.2974 9.83896 91.5332 10.1551 90.9693 10.7181C90.6805 11.0143 90.4547 11.366 90.3055 11.7519C90.1563 12.1378 90.0867 12.5498 90.101 12.9633C90.0867 13.3768 90.1563 13.7889 90.3055 14.1747C90.4547 14.5606 90.6805 14.9123 90.9693 15.2085Z" stroke="white" stroke-width="0.260741" stroke-miterlimit="10"/>
<path d="M98.5254 16.8744V9.05219H99.7489L103.551 15.1372H103.594L103.551 13.6298V9.05219H104.556V16.8744H103.507L99.5299 10.4946H99.4866L99.5299 12.0021V16.8744H98.5254Z" stroke="white" stroke-width="0.260741" stroke-miterlimit="10"/>
<path d="M88.8269 28.2844C87.7312 28.2886 86.6612 28.6173 85.7521 29.2291C84.843 29.8409 84.1356 30.7084 83.7191 31.7219C83.3027 32.7355 83.1959 33.8497 83.4122 34.9239C83.6285 35.9981 84.1583 36.9842 84.9346 37.7575C85.7109 38.5309 86.6989 39.0569 87.774 39.2691C88.849 39.4814 89.9628 39.3703 90.9748 38.95C91.9867 38.5297 92.8515 37.819 93.4598 36.9076C94.0682 35.9962 94.3928 34.925 94.3928 33.8292C94.4036 33.0963 94.2668 32.3687 93.9907 31.6897C93.7145 31.0107 93.3046 30.3942 92.7853 29.8769C92.266 29.3596 91.648 28.952 90.9679 28.6784C90.2879 28.4049 89.5598 28.2709 88.8269 28.2844ZM88.8269 37.1898C88.1521 37.2379 87.4784 37.0817 86.8936 36.7416C86.3088 36.4015 85.8399 35.8931 85.548 35.2828C85.2561 34.6725 85.1547 33.9884 85.2571 33.3196C85.3594 32.6509 85.6607 32.0284 86.1218 31.5333C86.5828 31.0382 87.1823 30.6934 87.8421 30.5437C88.5018 30.3941 89.1914 30.4465 89.821 30.6942C90.4505 30.942 90.9909 31.3735 91.3718 31.9326C91.7526 32.4918 91.9563 33.1527 91.9563 33.8292C91.9768 34.2566 91.9116 34.6838 91.7645 35.0856C91.6174 35.4874 91.3913 35.8557 91.0997 36.1689C90.8081 36.482 90.4568 36.7337 90.0665 36.909C89.6762 37.0843 89.2547 37.1798 88.8269 37.1898ZM76.685 28.2844C75.5892 28.2885 74.5192 28.6173 73.6101 29.229C72.701 29.8408 71.9936 30.7083 71.5771 31.7218C71.1606 32.7354 71.0538 33.8496 71.2701 34.9238C71.4864 35.9981 72.0162 36.9841 72.7925 37.7575C73.5688 38.5309 74.5568 39.0569 75.6319 39.2691C76.7069 39.4814 77.8207 39.3704 78.8327 38.9501C79.8447 38.5297 80.7094 37.819 81.3178 36.9076C81.9261 35.9962 82.2508 34.925 82.2508 33.8292C82.2616 33.0963 82.1248 32.3687 81.8486 31.6897C81.5725 31.0108 81.1626 30.3943 80.6433 29.877C80.124 29.3597 79.506 28.9521 78.826 28.6785C78.146 28.4049 77.4179 28.2709 76.685 28.2844ZM76.685 37.1898C76.0102 37.2379 75.3365 37.0817 74.7517 36.7416C74.1668 36.4015 73.698 35.8931 73.4061 35.2828C73.1142 34.6725 73.0128 33.9884 73.1152 33.3196C73.2175 32.6509 73.5188 32.0284 73.9799 31.5333C74.4409 31.0382 75.0404 30.6934 75.7001 30.5437C76.3599 30.3941 77.0495 30.4465 77.679 30.6942C78.3086 30.942 78.849 31.3735 79.2298 31.9326C79.6107 32.4918 79.8144 33.1527 79.8144 33.8292C79.8349 34.2566 79.7697 34.6838 79.6226 35.0856C79.4755 35.4874 79.2495 35.8558 78.9579 36.1689C78.6662 36.4821 78.3149 36.7337 77.9246 36.909C77.5343 37.0843 77.1128 37.1798 76.685 37.1898ZM62.2415 29.9857V32.338H67.8705C67.7893 33.4414 67.3378 34.4849 66.5893 35.2995C66.0252 35.8745 65.3468 36.3248 64.5979 36.6215C63.8491 36.9181 63.0464 37.0544 62.2415 37.0217C60.5962 36.9994 59.0259 36.3302 57.8703 35.1588C56.7147 33.9875 56.0668 32.4082 56.0668 30.7628C56.0668 29.1173 56.7147 27.538 57.8703 26.3667C59.0259 25.1953 60.5962 24.5261 62.2415 24.5038C63.8219 24.4832 65.3466 25.087 66.4843 26.184L68.1435 24.5248C67.3673 23.7563 66.4454 23.1505 65.4319 22.7429C64.4184 22.3354 63.3338 22.1343 62.2415 22.1514C61.1001 22.1348 59.9668 22.3452 58.9075 22.7705C57.8481 23.1959 56.8839 23.8275 56.0709 24.6288C55.2578 25.4301 54.6122 26.385 54.1715 27.438C53.7308 28.4911 53.5039 29.6212 53.5039 30.7628C53.5039 31.9043 53.7308 33.0344 54.1715 34.0875C54.6122 35.1405 55.2578 36.0954 56.0709 36.8967C56.8839 37.698 57.8481 38.3297 58.9075 38.755C59.9668 39.1803 61.1001 39.3907 62.2415 39.3741C63.3568 39.4204 64.4692 39.2289 65.5048 38.8125C66.5404 38.3961 67.4757 37.7642 68.2485 36.9587C69.6205 35.4611 70.3518 33.486 70.2859 31.4559C70.2913 30.963 70.249 30.4706 70.1597 29.9857H62.2415ZM121.31 31.8129C120.977 30.8086 120.343 29.9311 119.493 29.2999C118.644 28.6686 117.621 28.3141 116.563 28.2844C115.851 28.2888 115.147 28.4377 114.494 28.7219C113.84 29.0062 113.251 29.42 112.763 29.9383C112.274 30.4565 111.895 31.0686 111.649 31.7373C111.404 32.4061 111.296 33.1177 111.334 33.8292C111.318 34.5582 111.449 35.283 111.719 35.9602C111.989 36.6374 112.393 37.2532 112.907 37.7708C113.421 38.2883 114.033 38.6971 114.708 38.9726C115.384 39.248 116.107 39.3846 116.836 39.3741C117.75 39.3792 118.65 39.1573 119.457 38.7284C120.263 38.2995 120.951 37.677 121.457 36.9168L119.567 35.6566C119.284 36.1269 118.883 36.5155 118.404 36.7843C117.926 37.053 117.385 37.1928 116.836 37.1898C116.272 37.2114 115.713 37.0627 115.234 36.7631C114.754 36.4635 114.376 36.0268 114.148 35.5095L121.562 32.4431L121.31 31.8129ZM113.749 33.6613C113.723 33.2577 113.778 32.853 113.91 32.4708C114.042 32.0886 114.249 31.7366 114.519 31.4354C114.789 31.1342 115.116 30.8899 115.482 30.7167C115.847 30.5435 116.243 30.4449 116.647 30.4268C117.068 30.3991 117.488 30.4959 117.854 30.7051C118.22 30.9142 118.516 31.2265 118.706 31.603L113.749 33.6613ZM107.721 39.038H110.157V22.7396H107.721V39.038ZM103.73 29.5236H103.646C103.276 29.1211 102.824 28.8024 102.32 28.5887C101.817 28.375 101.274 28.2713 100.727 28.2844C99.2971 28.3453 97.9461 28.956 96.9559 29.9893C95.9658 31.0225 95.413 32.3982 95.413 33.8293C95.413 35.2603 95.9658 36.6361 96.9559 37.6693C97.9461 38.7025 99.2971 39.3133 100.727 39.3741C101.276 39.3887 101.821 39.2835 102.326 39.0659C102.83 38.8483 103.28 38.5234 103.646 38.1139H103.73V38.9121C103.73 41.0335 102.596 42.1676 100.769 42.1676C100.16 42.153 99.569 41.9574 99.0715 41.6058C98.574 41.2542 98.1925 40.7625 97.9755 40.1932L95.8542 41.0754C96.254 42.0489 96.9353 42.8808 97.811 43.4645C98.6866 44.0482 99.7165 44.3572 100.769 44.3519C103.625 44.3519 106.041 42.6717 106.041 38.576V28.6204H103.73V29.5236ZM100.937 37.1898C100.095 37.1183 99.3103 36.7334 98.7385 36.111C98.1667 35.4887 97.8494 34.6744 97.8494 33.8293C97.8494 32.9841 98.1667 32.1698 98.7385 31.5475C99.3103 30.9251 100.095 30.5402 100.937 30.4688C101.356 30.4892 101.767 30.5938 102.144 30.7763C102.522 30.9588 102.859 31.2155 103.135 31.5311C103.412 31.8466 103.622 32.2146 103.753 32.613C103.884 33.0114 103.933 33.4322 103.898 33.8502C103.931 34.2656 103.88 34.6833 103.747 35.0784C103.615 35.4735 103.404 35.8378 103.128 36.1496C102.851 36.4614 102.515 36.7142 102.138 36.8929C101.762 37.0716 101.353 37.1726 100.937 37.1898ZM132.723 22.7399H126.894V39.038H129.326V32.8632H132.723C133.411 32.9009 134.099 32.7979 134.746 32.5606C135.393 32.3233 135.985 31.9565 136.485 31.4828C136.986 31.0091 137.384 30.4383 137.656 29.8054C137.929 29.1724 138.069 28.4906 138.069 27.8015C138.069 27.1125 137.929 26.4306 137.656 25.7977C137.384 25.1647 136.986 24.594 136.485 24.1202C135.985 23.6465 135.393 23.2798 134.746 23.0425C134.099 22.8051 133.411 22.7022 132.723 22.7399ZM132.785 30.595H129.326V25.0082H132.785C133.157 25.0005 133.527 25.0671 133.872 25.204C134.218 25.3409 134.533 25.5454 134.798 25.8056C135.064 26.0657 135.275 26.3763 135.419 26.719C135.563 27.0618 135.637 27.4298 135.637 27.8016C135.637 28.1734 135.563 28.5414 135.419 28.8842C135.275 29.2269 135.064 29.5374 134.798 29.7976C134.533 30.0577 134.218 30.2623 133.872 30.3992C133.527 30.5361 133.157 30.6027 132.785 30.595ZM147.819 28.2544C146.932 28.2026 146.048 28.4111 145.277 28.8543C144.506 29.2976 143.881 29.9563 143.479 30.7496L145.639 31.6512C145.853 31.2575 146.177 30.9347 146.572 30.7224C146.967 30.5101 147.415 30.4175 147.861 30.456C148.478 30.3957 149.094 30.5826 149.574 30.9757C150.053 31.3687 150.357 31.9358 150.419 32.5527V32.7205C149.638 32.3055 148.767 32.0895 147.882 32.0915C145.555 32.0915 143.186 33.3706 143.186 35.7609C143.208 36.2647 143.332 36.7587 143.549 37.2138C143.766 37.6689 144.073 38.0757 144.45 38.4102C144.827 38.7446 145.268 38.9998 145.746 39.1606C146.224 39.3214 146.729 39.3846 147.232 39.3463C147.845 39.3824 148.456 39.2536 149.001 38.9733C149.547 38.6931 150.008 38.2716 150.336 37.7528H150.419V39.0109H152.768V32.7625C152.768 29.8689 150.608 28.2544 147.819 28.2544ZM147.526 37.1866C146.729 37.1866 145.618 36.7883 145.618 35.8027C145.618 34.5448 147.002 34.0624 148.197 34.0624C148.973 34.0418 149.741 34.2301 150.419 34.6076C150.33 35.3146 149.988 35.9652 149.456 36.4393C148.924 36.9134 148.238 37.1789 147.526 37.1866ZM161.323 28.6109L158.534 35.6769H158.45L155.556 28.6109H152.936L157.276 38.4867L154.802 43.9802H157.339L164.027 28.6109H161.323ZM139.411 39.038H141.843V22.7399H139.411V39.038Z" fill="white"/>
<path d="M13.6042 9.75285C13.1767 10.264 12.9608 10.9193 13.0008 11.5844V40.4173C12.9607 41.0824 13.1766 41.7378 13.6042 42.2488L13.7007 42.3428L29.8522 26.1914V25.8103L13.7007 9.6582L13.6042 9.75285Z" fill="url(#paint0_linear_745_14125)"/>
<path d="M35.237 31.5778L29.8535 26.1917V25.8106L35.2383 20.4258L35.3597 20.495L41.7385 24.1194C43.5605 25.1546 43.5605 26.8483 41.7385 27.8841L35.3597 31.5086L35.237 31.5778Z" fill="url(#paint1_linear_745_14125)"/>
<path d="M35.3597 31.5077L29.8535 26.001L13.6055 42.2489C13.9767 42.5763 14.4508 42.7636 14.9456 42.7782C15.4404 42.7928 15.9248 42.6339 16.3147 42.3289L35.3597 31.5077Z" fill="url(#paint2_linear_745_14125)"/>
<path d="M35.3597 20.4946L16.3147 9.67333C15.9248 9.36838 15.4404 9.20945 14.9456 9.22407C14.4508 9.23869 13.9767 9.42594 13.6055 9.75337L29.8535 26.0014L35.3597 20.4946Z" fill="url(#paint3_linear_745_14125)"/>
<path opacity="0.2" d="M35.2383 31.3867L16.3147 42.1388C15.9398 42.4242 15.4822 42.5799 15.011 42.5824C14.5398 42.5849 14.0805 42.4341 13.7026 42.1527L13.6055 42.2498L13.7019 42.3438L13.7026 42.3432C14.0805 42.6247 14.5397 42.7756 15.011 42.7731C15.4822 42.7706 15.9398 42.6148 16.3147 42.3292L35.3597 31.508L35.2383 31.3867Z" fill="black"/>
<path opacity="0.12" d="M13.6042 42.0596C13.1767 41.5484 12.9608 40.8932 13.0008 40.228V40.4185C12.9608 41.0836 13.1767 41.7389 13.6042 42.2501L13.7013 42.1529L13.6042 42.0596Z" fill="black"/>
<path opacity="0.12" d="M41.7384 27.6932L35.2383 31.3869L35.3597 31.5081L41.7384 27.8837C42.1136 27.7209 42.4383 27.4604 42.6787 27.1295C42.9191 26.7985 43.0663 26.4091 43.1051 26.002C43.0244 26.3707 42.8589 26.7156 42.6217 27.0092C42.3844 27.3027 42.082 27.537 41.7384 27.6932Z" fill="black"/>
<path opacity="0.25" d="M16.3145 9.86418L41.7383 24.3092C42.0821 24.4655 42.3846 24.6998 42.6218 24.9935C42.8591 25.2872 43.0245 25.6323 43.105 26.0012C43.0665 25.5938 42.9194 25.2043 42.679 24.8731C42.4386 24.542 42.1137 24.2815 41.7383 24.1188L16.3145 9.67371C14.4925 8.63844 13.002 9.49837 13.002 11.5853V11.7758C13.002 9.68897 14.4925 8.82904 16.3145 9.86418Z" fill="white"/>
</g>
<defs>
<linearGradient id="paint0_linear_745_14125" x1="28.4199" y1="11.2804" x2="6.54063" y2="33.1597" gradientUnits="userSpaceOnUse">
<stop stop-color="#00A0FF"/>
<stop offset="0.00657" stop-color="#00A1FF"/>
<stop offset="0.2601" stop-color="#00BEFF"/>
<stop offset="0.5122" stop-color="#00D2FF"/>
<stop offset="0.7604" stop-color="#00DFFF"/>
<stop offset="1" stop-color="#00E3FF"/>
</linearGradient>
<linearGradient id="paint1_linear_745_14125" x1="44.1108" y1="26.0018" x2="12.5652" y2="26.0018" gradientUnits="userSpaceOnUse">
<stop stop-color="#FFE000"/>
<stop offset="0.4087" stop-color="#FFBD00"/>
<stop offset="0.7754" stop-color="#FFA500"/>
<stop offset="1" stop-color="#FF9C00"/>
</linearGradient>
<linearGradient id="paint2_linear_745_14125" x1="32.3678" y1="28.9931" x2="2.69773" y2="58.6632" gradientUnits="userSpaceOnUse">
<stop stop-color="#FF3A44"/>
<stop offset="1" stop-color="#C31162"/>
</linearGradient>
<linearGradient id="paint3_linear_745_14125" x1="9.51436" y1="0.155741" x2="22.7633" y2="13.4047" gradientUnits="userSpaceOnUse">
<stop stop-color="#32A071"/>
<stop offset="0.0685" stop-color="#2DA771"/>
<stop offset="0.4762" stop-color="#15CF74"/>
<stop offset="0.8009" stop-color="#06E775"/>
<stop offset="1" stop-color="#00F076"/>
</linearGradient>
<clipPath id="clip0_745_14125">
<rect width="176" height="52.1484" fill="white" transform="translate(0 -0.0742188)"/>
</clipPath>
</defs>
</svg>
