<svg width="130" height="130" viewBox="0 0 130 130" fill="none" xmlns="http://www.w3.org/2000/svg">
<path fill-rule="evenodd" clip-rule="evenodd" d="M67.482 75.827L70.039 78.384L71.931 76.493L47.238 51.8L33.193 65.845C32.515 66.539 31.375 66.051 31.375 65.117V60.15H28.776V69.825C28.776 70.095 28.673 70.365 28.467 70.571L22.545 76.493L24.436 78.384L46.492 56.329C46.904 55.917 47.571 55.917 47.983 56.329L67.482 75.827ZM93.965 61.653H100.97C101.552 61.653 102.025 62.125 102.025 62.708V72.095C102.025 72.677 101.553 73.15 100.97 73.15H93.965C93.383 73.15 92.91 72.678 92.91 72.095V62.708C92.91 62.125 93.383 61.653 93.965 61.653ZM99.915 63.762H95.019V71.04H99.915V63.762ZM79.834 61.653H86.839C87.421 61.653 87.894 62.125 87.894 62.708V72.095C87.894 72.677 87.422 73.15 86.839 73.15H79.834C79.252 73.15 78.779 72.678 78.779 72.095V62.708C78.78 62.125 79.252 61.653 79.834 61.653ZM85.785 63.762H80.889V71.04H85.785V63.762ZM93.965 45.207H100.97C101.552 45.207 102.025 45.679 102.025 46.262V55.649C102.025 56.231 101.553 56.704 100.97 56.704H93.965C93.383 56.704 92.91 56.232 92.91 55.649V46.262C92.91 45.679 93.383 45.207 93.965 45.207ZM99.915 47.316H95.019V54.594H99.915V47.316ZM79.834 45.207H86.839C87.421 45.207 87.894 45.679 87.894 46.262V55.649C87.894 56.231 87.422 56.704 86.839 56.704H79.834C79.252 56.704 78.779 56.232 78.779 55.649V46.262C78.78 45.679 79.252 45.207 79.834 45.207ZM85.785 47.316H80.889V54.594H85.785V47.316ZM65.703 45.207H72.708C73.29 45.207 73.763 45.679 73.763 46.262V55.649C73.763 56.231 73.291 56.704 72.708 56.704H65.703C65.121 56.704 64.648 56.232 64.648 55.649V46.262C64.649 45.679 65.121 45.207 65.703 45.207ZM71.654 47.316V54.594H66.758V47.316H71.654ZM99.916 85.046H84.392V107.849H99.916V85.046ZM83.337 82.936C82.755 82.936 82.282 83.408 82.282 83.991V107.848H74.476V104.194C74.476 103.612 74.004 103.139 73.421 103.139H67.808V79.137C70.477 81.806 69.609 81.797 74.166 77.239C74.578 76.827 74.578 76.16 74.166 75.748L58.806 60.387V22.11H107.868V107.849H102.025V83.991C102.025 83.409 101.553 82.936 100.97 82.936H83.337ZM93.965 28.248C93.383 28.248 92.91 28.72 92.91 29.303V38.69C92.91 39.272 93.382 39.745 93.965 39.745H100.97C101.552 39.745 102.025 39.273 102.025 38.69V29.303C102.025 28.721 101.553 28.248 100.97 28.248H93.965ZM99.915 30.358H95.019V37.636H99.915V30.358ZM79.834 28.248C79.252 28.248 78.779 28.72 78.779 29.303V38.69C78.779 39.272 79.251 39.745 79.834 39.745H86.839C87.421 39.745 87.894 39.273 87.894 38.69V29.303C87.894 28.721 87.422 28.248 86.839 28.248H79.834ZM85.785 30.358H80.889V37.636H85.785V30.358ZM65.703 28.248C65.121 28.248 64.648 28.72 64.648 29.303V38.69C64.648 39.272 65.12 39.745 65.703 39.745H72.708C73.29 39.745 73.763 39.273 73.763 38.69V29.303C73.763 28.721 73.291 28.248 72.708 28.248H65.703ZM71.654 30.358H66.758V37.636H71.654V30.358ZM56.697 58.277V21.055C56.697 20.473 57.169 20 57.752 20H108.923C109.505 20 109.978 20.472 109.978 21.055V108.903C109.978 109.485 109.506 109.958 108.923 109.958C79.633 109.958 50.344 109.958 21.055 109.958C20.473 109.958 20 109.486 20 108.903V104.195C20 103.613 20.472 103.14 21.055 103.14H26.668V79.136C23.999 81.805 24.867 81.796 20.31 77.238C19.898 76.826 19.898 76.159 20.31 75.747L26.668 69.389V59.096C26.668 58.514 27.14 58.041 27.723 58.041H32.431C33.013 58.041 33.486 58.513 33.486 59.096V62.572L46.494 49.564C46.906 49.152 47.573 49.152 47.985 49.564L56.697 58.277ZM40.648 81.816C40.066 81.816 39.593 82.288 39.593 82.871V103.14H28.776V77.027L47.238 58.565L65.7 77.027V103.14H54.883V82.87C54.883 82.288 54.411 81.815 53.828 81.815L40.648 81.816ZM52.773 83.925H41.702V103.14H52.773V83.925ZM72.367 107.848V105.249H22.108V107.848H72.367Z" fill="#121212"/>
</svg>
