<svg width="114" height="114" viewBox="0 0 114 114" fill="none" xmlns="http://www.w3.org/2000/svg">
<path d="M32.5555 23.8598L30.4006 19.9566C31.637 19.4799 32.5376 18.3495 32.5376 16.3714C32.5376 13.4927 30.6126 12.5918 28.193 12.5918H24.5369C24.0248 12.5918 23.6893 12.9803 23.6893 13.4219L23.6895 24.6546C23.6895 25.2197 24.3782 25.5023 25.0671 25.5023C25.7558 25.5023 26.4447 25.2197 26.4447 24.6546V20.3981H27.6103L30.0299 25.0962C30.224 25.4671 30.5598 25.6083 30.9129 25.6083C31.7254 25.6083 32.6439 24.8664 32.6439 24.1777C32.6439 24.0893 32.626 23.9657 32.5555 23.8598ZM28.193 18.2789H26.4444V14.9938H28.193C29.182 14.9938 29.7825 15.4002 29.7825 16.6363C29.7825 17.8728 29.182 18.2789 28.193 18.2789Z" fill="#931602"/>
<path d="M42.3748 23.1002H37.6416V20.0977H40.2908C40.8737 20.0977 41.1208 19.5326 41.1208 19.0557C41.1208 18.4904 40.8207 17.9783 40.2908 17.9783H37.6416V14.9933H42.3748C42.9045 14.9933 43.2049 14.4282 43.2049 13.7747C43.2049 13.2094 42.9577 12.5913 42.3748 12.5913H36.0872C35.4867 12.5913 34.8862 12.8741 34.8862 13.4392V24.6544C34.8862 25.2195 35.4867 25.502 36.0872 25.502H42.3748C42.9577 25.502 43.2049 24.8839 43.2049 24.3188C43.2049 23.6653 42.9047 23.1002 42.3748 23.1002Z" fill="#931602"/>
<path d="M52.3004 20.6101C51.5939 20.6101 50.9934 20.7869 50.9404 21.4404C50.8874 22.1291 50.799 23.2065 49.3861 23.2065C48.3616 23.2065 47.7789 22.6414 47.7789 21.4404V16.7599C47.7789 15.5589 48.3616 14.9938 49.3685 14.9938C50.8696 14.9938 50.9226 16.124 50.9404 16.5834C50.9758 17.219 51.5761 17.4134 52.318 17.4134C53.254 17.4134 53.6956 17.166 53.6956 16.1064C53.6956 13.8634 51.7881 12.5918 49.2625 12.5918C46.9489 12.5918 45.0238 13.722 45.0238 16.7599V21.4402C45.0238 24.4779 46.9489 25.6083 49.2625 25.6083C51.7881 25.6083 53.6956 24.2661 53.6956 21.9171C53.6956 20.8575 53.254 20.6101 52.3004 20.6101Z" fill="#931602"/>
<path d="M63.4619 23.1002H58.7287V20.0977H61.3779C61.9608 20.0977 62.2081 19.5326 62.2081 19.0557C62.2081 18.4904 61.9078 17.9783 61.3779 17.9783H58.7287V14.9933H63.4619C63.9918 14.9933 64.2922 14.4282 64.2922 13.7747C64.2922 13.2094 64.0448 12.5913 63.4619 12.5913H57.1743C56.5738 12.5913 55.9733 12.8741 55.9733 13.4392V24.6544C55.9733 25.2195 56.5738 25.502 57.1743 25.502H63.4619C64.0448 25.502 64.2922 24.8839 64.2922 24.3188C64.2922 23.6653 63.9918 23.1002 63.4619 23.1002Z" fill="#931602"/>
<path d="M67.753 12.5918C67.0643 12.5918 66.3754 12.8392 66.3754 13.4219V24.6546C66.3754 25.2197 67.0643 25.5023 67.753 25.5023C68.4416 25.5023 69.1305 25.2197 69.1305 24.6546V13.4219C69.1305 12.8392 68.4416 12.5918 67.753 12.5918Z" fill="#931602"/>
<path d="M76.6013 12.5918H72.9453C72.3272 12.5918 71.9209 12.9803 71.9209 13.4219H71.9211V24.6549C71.9211 25.22 72.61 25.5025 73.2987 25.5025C73.9873 25.5025 74.6762 25.22 74.6762 24.6549V20.8399H76.4248C78.862 20.8399 80.7694 19.7094 80.7694 16.7423V16.6539C80.7694 13.6868 78.9328 12.5918 76.6013 12.5918ZM78.0141 16.9543C78.0141 18.1553 77.4136 18.7204 76.4245 18.7204H74.676V14.994H76.4245C77.4136 14.994 78.0141 15.5591 78.0141 16.7601V16.9543Z" fill="#931602"/>
<path d="M90.5002 12.5918H82.8704C82.2875 12.5918 82.0404 13.2277 82.0404 13.8104C82.0404 14.4817 82.3405 15.0644 82.8704 15.0644H85.3079V24.6546C85.3079 25.2197 85.9968 25.5023 86.6854 25.5023C87.3741 25.5023 88.063 25.2197 88.063 24.6546V15.0644H90.5002C91.0301 15.0644 91.3303 14.4817 91.3303 13.8104C91.3303 13.2277 91.0831 12.5918 90.5002 12.5918Z" fill="#931602"/>
<path d="M64.5725 35.9561H23.8149C22.8924 35.9561 22.1445 36.704 22.1445 37.6264C22.1445 38.5489 22.8924 39.2968 23.8149 39.2968H64.5725C65.4952 39.2968 66.2429 38.5489 66.2429 37.6264C66.2429 36.7037 65.4952 35.9561 64.5725 35.9561Z" fill="#931602"/>
<path d="M64.5725 45.5732H23.8149C22.8924 45.5732 22.1445 46.3211 22.1445 47.2436C22.1445 48.1661 22.8924 48.914 23.8149 48.914H64.5725C65.4952 48.914 66.2429 48.1661 66.2429 47.2436C66.2429 46.3209 65.4952 45.5732 64.5725 45.5732Z" fill="#931602"/>
<path d="M64.5725 57.3345H23.8149C22.8924 57.3345 22.1445 58.0824 22.1445 59.0048C22.1445 59.9273 22.8924 60.6752 23.8149 60.6752H64.5725C65.4952 60.6752 66.2429 59.9273 66.2429 59.0048C66.2429 58.0824 65.4952 57.3345 64.5725 57.3345Z" fill="#931602"/>
<path d="M64.5725 66.9512H23.8149C22.8924 66.9512 22.1445 67.6991 22.1445 68.6215C22.1445 69.544 22.8924 70.2919 23.8149 70.2919H64.5725C65.4952 70.2919 66.2429 69.544 66.2429 68.6215C66.2429 67.6991 65.4952 66.9512 64.5725 66.9512Z" fill="#931602"/>
<path d="M88.7165 35.9561H76.6445C75.7218 35.9561 74.9742 36.704 74.9742 37.6264C74.9742 38.5489 75.7218 39.2968 76.6445 39.2968H88.7165C89.6392 39.2968 90.3869 38.5489 90.3869 37.6264C90.3869 36.7037 89.6392 35.9561 88.7165 35.9561Z" fill="#931602"/>
<path d="M88.7165 45.5732H76.6445C75.7218 45.5732 74.9742 46.3211 74.9742 47.2436C74.9742 48.1661 75.7218 48.914 76.6445 48.914H88.7165C89.6392 48.914 90.3869 48.1661 90.3869 47.2436C90.3869 46.3209 89.6392 45.5732 88.7165 45.5732Z" fill="#931602"/>
<path d="M88.7165 57.3345H76.6445C75.7218 57.3345 74.9742 58.0824 74.9742 59.0048C74.9742 59.9273 75.7218 60.6752 76.6445 60.6752H88.7165C89.6392 60.6752 90.3869 59.9273 90.3869 59.0048C90.3869 58.0824 89.6392 57.3345 88.7165 57.3345Z" fill="#931602"/>
<path d="M88.7165 66.9512H76.6445C75.7218 66.9512 74.9742 67.6991 74.9742 68.6215C74.9742 69.544 75.7218 70.2919 76.6445 70.2919H88.7165C89.6392 70.2919 90.3869 69.544 90.3869 68.6215C90.3869 67.6991 89.6392 66.9512 88.7165 66.9512Z" fill="#931602"/>
<path d="M64.5725 83.46H23.8149C22.8924 83.46 22.1445 84.2079 22.1445 85.1303C22.1445 86.0528 22.8924 86.8007 23.8149 86.8007H64.5725C65.4952 86.8007 66.2429 86.0528 66.2429 85.1303C66.2429 84.2079 65.4952 83.46 64.5725 83.46Z" fill="#931602"/>
<path d="M64.5725 93.0771H23.8149C22.8924 93.0771 22.1445 93.8251 22.1445 94.7475C22.1445 95.67 22.8924 96.4179 23.8149 96.4179H64.5725C65.4952 96.4179 66.2429 95.67 66.2429 94.7475C66.2429 93.8251 65.4952 93.0771 64.5725 93.0771Z" fill="#931602"/>
<path d="M99.4893 0.320553C99.0571 0.0059393 98.5005 -0.0833459 97.9937 0.0805291L90.2034 2.58831L82.4129 0.0805291C82.08 -0.0267912 81.722 -0.0267912 81.3891 0.0805291L73.5999 2.58831L65.8107 0.0805291C65.4774 -0.0267912 65.1196 -0.0267912 64.7867 0.0805291L56.9978 2.58831L49.209 0.0805291C48.8759 -0.0267912 48.5181 -0.0267912 48.185 0.0805291L40.3972 2.58831L32.6082 0.0805291C32.2756 -0.0265685 31.9176 -0.0265685 31.5845 0.0805291L23.7953 2.58853L16.0063 0.0805291C15.4984 -0.0833459 14.9422 0.0059393 14.5107 0.320553C14.0792 0.634943 13.8241 1.13659 13.8241 1.67052V110.65C13.8241 112.497 15.3268 114 17.1739 114H96.8261C98.673 114 100.176 112.497 100.176 110.65V1.67074C100.176 1.13681 99.9208 0.634943 99.4893 0.320553ZM96.8263 110.659L17.165 110.65V3.96343L23.2836 5.93349C23.6167 6.04081 23.9747 6.04081 24.3074 5.93349L32.0966 3.42572L39.8853 5.93349C40.2184 6.04081 40.5762 6.04081 40.9093 5.93349L48.6972 3.42572L56.4861 5.93349C56.819 6.04081 57.1772 6.04081 57.5099 5.93349L65.2991 3.42572L73.0885 5.93349C73.4218 6.04081 73.7792 6.04081 74.1125 5.93349L81.9017 3.42572L89.692 5.93349C90.0248 6.04081 90.3826 6.04081 90.7155 5.93349L96.8352 3.96343L96.8263 110.659Z" fill="#931602"/>
</svg>
