<svg width="72" height="68" viewBox="0 0 72 68" fill="none" xmlns="http://www.w3.org/2000/svg">
<path d="M2.94054 0.367568H68.3676C69.7886 0.367568 70.9405 1.51953 70.9405 2.94054V65.0595C70.9405 66.4908 69.7875 67.6169 68.4128 67.476C62.6752 66.8878 56.0969 64.7246 50.3592 62.3894C44.627 60.0565 39.7597 57.5628 37.4505 56.3307C36.4438 55.7935 35.2357 55.785 34.2228 56.313C31.8767 57.5361 26.9032 60.0301 21.0813 62.3674C15.2535 64.707 8.6023 66.8784 2.89391 67.4729C1.52015 67.616 0.367568 66.491 0.367568 65.0595V2.94054C0.367568 1.51952 1.51953 0.367568 2.94054 0.367568Z" fill="#018191" stroke="#003E71" stroke-width="0.735135"/>
</svg>
