<svg width="92" height="46" viewBox="0 0 92 46" fill="none" xmlns="http://www.w3.org/2000/svg">
<rect x="1.33101" y="1.96382" width="88.584" height="42.0729" rx="21.0365" fill="#931602" fill-opacity="0.15" stroke="#931602" stroke-width="2.41593"/>
<path fill-rule="evenodd" clip-rule="evenodd" d="M33.6024 18.6697C33.6141 18.6775 33.6168 18.6924 33.6083 18.7034L31.8926 20.8988C31.8841 20.9098 31.8677 20.9117 31.8566 20.904C31.8448 20.8962 31.8422 20.8813 31.8507 20.8703L33.5664 18.6749C33.5749 18.6639 33.5912 18.662 33.6024 18.6697Z" fill="#0F0F0F" stroke="#0F0F0F" stroke-width="0.45879" stroke-miterlimit="10" stroke-linecap="square"/>
<path fill-rule="evenodd" clip-rule="evenodd" d="M33.0164 18.0028C33.0282 18.0105 33.0308 18.0254 33.0223 18.0364L31.3066 20.2318C31.2981 20.2428 31.2818 20.2447 31.2706 20.237C31.2589 20.2292 31.2563 20.2143 31.2648 20.2033L32.9804 18.0079C32.9889 17.9969 33.0053 17.995 33.0164 18.0028Z" fill="#0F0F0F" stroke="#0F0F0F" stroke-width="0.45879" stroke-miterlimit="10" stroke-linecap="square"/>
<path fill-rule="evenodd" clip-rule="evenodd" d="M30.8508 11.2311C30.2063 10.8423 29.531 10.5423 28.8394 10.3317C25.6128 9.34747 22.0264 10.2974 19.4961 13.1796C18.5028 14.3109 17.7712 15.6276 17.3008 17.0324L19.714 19.7811L23.5078 24.1025C24.6981 25.458 26.4648 25.7587 27.9102 25.0038L22.7161 19.0878L20.7151 16.8082C20.9611 16.3799 21.2497 15.9736 21.5801 15.5972C21.9106 15.2207 22.2672 14.8928 22.6428 14.6123C24.7354 13.0513 27.4326 12.9755 29.5847 14.3835C30.082 14.7088 30.5498 15.1138 30.9745 15.5972L35.9887 21.3084C36.0594 18.7301 35.3396 16.1285 33.8287 14.0168C33.622 13.7278 33.4001 13.4478 33.1639 13.1789C32.9277 12.91 32.6817 12.6573 32.4284 12.4221C31.9994 12.0578 31.2121 11.449 30.8508 11.2311ZM16.6687 20.7039C16.6163 23.2543 17.3368 25.8216 18.8313 27.9093C19.038 28.1983 19.2775 28.4782 19.5137 28.7472C20.3245 29.6712 20.8414 30.2466 21.5082 31.039L22.9085 32.6343L26.33 36.5313L33.1639 28.7472C34.1422 27.6326 34.8665 26.3386 35.3376 24.9585L32.8413 22.1151L29.0468 17.7938C27.8566 16.4382 26.0899 16.1376 24.6444 16.8925L29.8386 22.8085L31.8395 25.0874C31.5935 25.5157 31.3049 25.922 30.9745 26.2985C30.6441 26.6749 30.2874 27.0028 29.9119 27.2834C27.3357 29.2046 23.8435 28.8761 21.5801 26.2985L16.6687 20.7039Z" fill="#931602" stroke="#0F0F0F" stroke-width="0.620514" stroke-miterlimit="10"/>
<path fill-rule="evenodd" clip-rule="evenodd" d="M31.1348 20.6474L33.3458 17.8105L33.8686 18.0872L31.4966 21.121L31.1348 20.6474Z" fill="#931602"/>
<path d="M49.8877 27.0396C50.0231 27.7843 50.3278 28.3597 50.8017 28.766C51.2926 29.1552 51.9442 29.3499 52.7566 29.3499C53.806 29.3499 54.5676 28.9183 55.0416 28.0551C55.5155 27.175 55.7524 25.7024 55.7524 23.6375C55.3631 24.1792 54.8131 24.6023 54.1022 24.9069C53.4082 25.2116 52.6551 25.3639 51.8426 25.3639C50.7594 25.3639 49.7777 25.1439 48.8976 24.7038C48.0344 24.2469 47.3489 23.5783 46.8412 22.6982C46.3334 21.8011 46.0795 20.7179 46.0795 19.4485C46.0795 17.5698 46.6381 16.0803 47.7551 14.9802C48.8722 13.8631 50.3955 13.3045 52.325 13.3045C54.7284 13.3045 56.421 14.0746 57.4027 15.6149C58.4013 17.1551 58.9006 19.4739 58.9006 22.5712C58.9006 24.7715 58.7059 26.5741 58.3166 27.9789C57.9443 29.3837 57.2926 30.45 56.3617 31.1778C55.4478 31.9056 54.1953 32.2695 52.6043 32.2695C51.3518 32.2695 50.2855 32.0326 49.4054 31.5587C48.5252 31.0678 47.8482 30.4331 47.3743 29.6545C46.9173 28.859 46.655 27.9874 46.5873 27.0396H49.8877ZM52.5789 22.4697C53.459 22.4697 54.153 22.1989 54.6607 21.6573C55.1685 21.1156 55.4224 20.3878 55.4224 19.4739C55.4224 18.4753 55.1516 17.7052 54.61 17.1635C54.0853 16.605 53.3659 16.3257 52.452 16.3257C51.538 16.3257 50.8102 16.6135 50.2686 17.1889C49.7439 17.7475 49.4815 18.4922 49.4815 19.4231C49.4815 20.3201 49.7354 21.0564 50.2432 21.6319C50.7679 22.1904 51.5464 22.4697 52.5789 22.4697ZM61.6673 22.749C61.6673 19.8208 62.192 17.5274 63.2413 15.8687C64.3077 14.21 66.0679 13.3807 68.5221 13.3807C70.9763 13.3807 72.7281 14.21 73.7775 15.8687C74.8438 17.5274 75.3769 19.8208 75.3769 22.749C75.3769 25.694 74.8438 28.0043 73.7775 29.6799C72.7281 31.3556 70.9763 32.1934 68.5221 32.1934C66.0679 32.1934 64.3077 31.3556 63.2413 29.6799C62.192 28.0043 61.6673 25.694 61.6673 22.749ZM71.8733 22.749C71.8733 21.4965 71.7887 20.4471 71.6195 19.6008C71.4671 18.7376 71.1455 18.0352 70.6547 17.4936C70.1808 16.952 69.4699 16.6812 68.5221 16.6812C67.5743 16.6812 66.8549 16.952 66.3641 17.4936C65.8902 18.0352 65.5686 18.7376 65.3993 19.6008C65.247 20.4471 65.1709 21.4965 65.1709 22.749C65.1709 24.0353 65.247 25.1185 65.3993 25.9986C65.5517 26.8618 65.8733 27.5642 66.3641 28.1059C66.8549 28.6306 67.5743 28.8929 68.5221 28.8929C69.4699 28.8929 70.1893 28.6306 70.6801 28.1059C71.1709 27.5642 71.4925 26.8618 71.6448 25.9986C71.7972 25.1185 71.8733 24.0353 71.8733 22.749Z" fill="#931602"/>
</svg>
