<svg width="42" height="42" viewBox="0 0 42 42" fill="none" xmlns="http://www.w3.org/2000/svg">
<circle cx="21" cy="21" r="21" fill="white"/>
<path d="M21.2998 31.5835L21.2969 31.5851C21.2537 31.6083 21.2053 31.6205 21.1562 31.6205C21.1072 31.6205 21.0588 31.6083 21.0156 31.5851L21.0127 31.5835C20.8094 31.4759 18.1524 30.0276 15.5537 27.7518C12.9287 25.4529 10.5001 22.4283 10.5 19.1761C10.5018 17.6712 11.1004 16.2285 12.1644 15.1644C13.2285 14.1004 14.6712 13.5018 16.1761 13.5C18.0868 13.5001 19.7348 14.3193 20.7564 15.6799L21.1562 16.2124L21.5561 15.6799C22.5777 14.3193 24.2257 13.5001 26.1364 13.5C27.6413 13.5018 29.084 14.1004 30.1481 15.1644C31.2122 16.2286 31.8108 17.6714 31.8125 19.1763C31.8122 22.4285 29.3837 25.453 26.7588 27.7518C24.1601 30.0276 21.5031 31.4759 21.2998 31.5835Z" stroke="black"/>
</svg>
