<svg width="56" height="77" viewBox="0 0 56 77" fill="none" xmlns="http://www.w3.org/2000/svg">
<path fill-rule="evenodd" clip-rule="evenodd" d="M48.3167 25.5827C48.3497 25.6046 48.357 25.6466 48.3333 25.6776L43.5397 31.8715C43.5159 31.9027 43.4702 31.9081 43.4392 31.8862C43.4063 31.8642 43.399 31.8223 43.4227 31.7912L48.2162 25.5973C48.24 25.5661 48.2857 25.5607 48.3167 25.5827Z" fill="#0F0F0F" stroke="#0F0F0F" stroke-width="0.54654" stroke-miterlimit="10" stroke-linecap="square"/>
<path fill-rule="evenodd" clip-rule="evenodd" d="M46.6809 23.7008C46.7139 23.7227 46.7212 23.7647 46.6973 23.7958L41.9038 29.9898C41.8801 30.0209 41.8344 30.0264 41.8033 30.0044C41.7703 29.9825 41.763 29.9404 41.7869 29.9093L46.5804 23.7154C46.6041 23.6843 46.6498 23.6788 46.6809 23.7008Z" fill="#0F0F0F" stroke="#0F0F0F" stroke-width="0.54654" stroke-miterlimit="10" stroke-linecap="square"/>
<path fill-rule="evenodd" clip-rule="evenodd" d="M40.6318 4.59751C38.8311 3.50059 36.9443 2.65413 35.0119 2.05996C25.9971 -0.717062 15.9767 1.96308 8.90707 10.0949C6.13186 13.2869 4.08794 17.0018 2.77347 20.9653L9.51586 28.7206L20.1157 40.9128C23.4413 44.7374 28.3774 45.5856 32.4158 43.4559L17.9037 26.7644L12.313 20.3328C13.0004 19.1244 13.8067 17.9781 14.7298 16.9159C15.6531 15.8538 16.6495 14.9287 17.6989 14.1371C23.5455 9.73291 31.0813 9.51901 37.0942 13.4917C38.4836 14.4094 39.7908 15.5521 40.9772 16.9159L54.9868 33.0297C55.1842 25.7552 53.1732 18.4151 48.9519 12.4569C48.3741 11.6415 47.7544 10.8518 47.0944 10.0931C46.4345 9.33436 45.7471 8.62137 45.0396 7.95773C41.6153 5.02165 40.9188 4.92475 40.6336 4.59567L40.6318 4.59751ZM1.00743 31.3239C0.861173 38.5196 2.87402 45.763 7.04962 51.6535C7.62733 52.4688 8.29645 53.2586 8.95643 54.0174C11.2216 56.6244 12.6658 58.2478 14.5288 60.4837L18.4411 64.9846L28.0008 75.9795L47.0944 54.0174C49.8276 50.8728 51.8514 47.222 53.1678 43.3279L46.1932 35.3058L35.5915 23.1134C32.2659 19.2889 27.3298 18.4406 23.2913 20.5705L37.8035 37.2618L43.3941 43.6917C42.7068 44.9001 41.9005 46.0463 40.9772 47.1085C40.0541 48.1707 39.0577 49.0958 38.0083 49.8874C30.8107 55.308 21.0536 54.3812 14.7298 47.1085L1.00743 31.3239Z" fill="#931602" stroke="#0F0F0F" stroke-width="0.739196" stroke-miterlimit="10"/>
<path fill-rule="evenodd" clip-rule="evenodd" d="M41.4279 31.1651L47.6054 23.1611L49.0661 23.9418L42.439 32.5014L41.4279 31.1651Z" fill="#931602"/>
</svg>
