<svg width="32" height="32" viewBox="0 0 32 32" fill="none" xmlns="http://www.w3.org/2000/svg">
<path d="M8.47056 7.0588V5.17643C8.47056 3.09724 10.1561 1.41174 12.2352 1.41174H19.7647C21.8439 1.41174 23.5294 3.09724 23.5294 5.17643V7.0588H28.2352C30.3144 7.0588 31.9999 8.74431 31.9999 10.8235V26.8235C31.9999 28.9027 30.3144 30.5882 28.2352 30.5882H3.76469C1.6855 30.5882 0 28.9027 0 26.8235V10.8235C0 8.74431 1.6855 7.0588 3.76469 7.0588H8.47056ZM30.1176 13.9607V10.8235C30.1176 9.78387 29.2749 8.94112 28.2352 8.94112H23.5294V10.8235C23.5294 11.3433 23.108 11.7647 22.5882 11.7647C22.0684 11.7647 21.647 11.3433 21.647 10.8235V8.94112H10.3529V10.8235C10.3529 11.3433 9.93156 11.7647 9.41175 11.7647C8.89194 11.7647 8.47056 11.3433 8.47056 10.8235V8.94112H3.76469C2.72512 8.94112 1.88231 9.78387 1.88231 10.8235V13.9607C6.01581 15.6324 10.7198 16.4706 15.9999 16.4706C21.2801 16.4706 25.9842 15.6324 30.1176 13.9607ZM30.1176 15.9816C25.9255 17.5638 21.218 18.3529 16 18.3529C10.782 18.3529 6.0745 17.5638 1.88238 15.9816V26.8236C1.88238 27.8632 2.72512 28.7059 3.76475 28.7059H28.2353C29.2749 28.7059 30.1177 27.8632 30.1177 26.8236L30.1176 15.9816ZM10.3529 7.0588H21.6471V5.17643C21.6471 4.1368 20.8043 3.29406 19.7647 3.29406H12.2353C11.1958 3.29406 10.3529 4.1368 10.3529 5.17643V7.0588ZM13.1765 24C12.6567 24 12.2353 23.5786 12.2353 23.0588C12.2353 22.539 12.6567 22.1176 13.1765 22.1176H18.8236C19.3434 22.1176 19.7648 22.539 19.7648 23.0588C19.7648 23.5786 19.3433 24 18.8235 24H13.1765Z" fill="#931602"/>
</svg>
