<svg width="1000" height="220" viewBox="0 0 1000 220" fill="none" xmlns="http://www.w3.org/2000/svg">
<path d="M220 110C220 170.751 170.751 220 110 220C49.2487 220 0 170.751 0 110C0 49.2487 49.2487 0 110 0C170.751 0 220 49.2487 220 110ZM7.92001 110C7.92001 166.377 53.6228 212.08 110 212.08C166.377 212.08 212.08 166.377 212.08 110C212.08 53.6228 166.377 7.92001 110 7.92001C53.6228 7.92001 7.92001 53.6228 7.92001 110Z" fill="#018191"/>
<g clip-path="url(#clip0_873_24250)">
<path d="M123.6 61.7236L106.312 79.0115L98.3996 71.0986L99.5986 69.8996L104.545 74.8457C105.521 75.8221 107.104 75.8221 108.08 74.8457L122.401 60.5246L123.6 61.7236ZM105.959 79.365C105.959 79.3648 105.959 79.3647 105.96 79.3645L105.959 79.365Z" stroke="#018191" stroke-width="3"/>
<path d="M130.063 84.6842C130.473 85.0002 130.55 85.5902 130.219 85.9882C126.382 90.601 121.005 93.6887 115.064 94.6675C108.814 95.6971 102.406 94.3161 97.1356 90.8033C91.8648 87.2906 88.1239 81.9081 86.6687 75.7435C85.2135 69.5788 86.1526 63.0916 89.2961 57.5927C92.4397 52.0937 97.5534 47.993 103.604 46.1191C109.654 44.2452 116.191 44.7378 121.892 47.4975C127.593 50.2571 132.035 55.078 134.318 60.986C136.489 66.602 136.557 72.8023 134.529 78.4493C134.354 78.9366 133.806 79.1691 133.326 78.9759C132.845 78.7828 132.614 78.2373 132.788 77.7495C134.64 72.5437 134.569 66.8349 132.57 61.6621C130.457 56.1971 126.349 51.7378 121.075 49.1851C115.801 46.6324 109.755 46.1767 104.159 47.9101C98.5618 49.6434 93.8316 53.4366 90.9238 58.5232C88.016 63.6097 87.1474 69.6104 88.4935 75.3128C89.8395 81.0151 93.2999 85.9939 98.1754 89.2432C103.051 92.4925 108.978 93.7699 114.759 92.8175C120.231 91.916 125.186 89.0801 128.733 84.8431C129.065 84.4461 129.652 84.3683 130.063 84.6842Z" fill="#018191"/>
</g>
<path d="M87.9075 135.642C87.9075 136.097 87.8781 136.507 87.8195 136.874H78.5575C78.6308 137.842 78.9901 138.619 79.6355 139.206C80.2808 139.793 81.0728 140.086 82.0115 140.086C83.3608 140.086 84.3141 139.521 84.8715 138.392H87.5775C87.2108 139.507 86.5435 140.423 85.5755 141.142C84.6221 141.846 83.4341 142.198 82.0115 142.198C80.8528 142.198 79.8115 141.941 78.8875 141.428C77.9781 140.9 77.2595 140.167 76.7315 139.228C76.2181 138.275 75.9615 137.175 75.9615 135.928C75.9615 134.681 76.2108 133.589 76.7095 132.65C77.2228 131.697 77.9341 130.963 78.8435 130.45C79.7675 129.937 80.8235 129.68 82.0115 129.68C83.1555 129.68 84.1748 129.929 85.0695 130.428C85.9641 130.927 86.6608 131.631 87.1595 132.54C87.6581 133.435 87.9075 134.469 87.9075 135.642ZM85.2895 134.85C85.2748 133.926 84.9448 133.185 84.2995 132.628C83.6541 132.071 82.8548 131.792 81.9015 131.792C81.0361 131.792 80.2955 132.071 79.6795 132.628C79.0635 133.171 78.6968 133.911 78.5795 134.85H85.2895ZM99.6816 132.98V135.092H90.6396V132.98H99.6816ZM111.671 142L105.753 135.158V142H103.245V126.71H105.753V133.684L111.693 126.71H114.839L108.195 134.366L114.949 142H111.671ZM128.497 126.71L123.437 136.456V142H120.929V136.456L115.847 126.71H118.641L122.183 134.212L125.725 126.71H128.497ZM129.651 134.322C129.651 132.826 129.996 131.484 130.685 130.296C131.389 129.108 132.335 128.184 133.523 127.524C134.726 126.849 136.038 126.512 137.461 126.512C139.089 126.512 140.534 126.915 141.795 127.722C143.071 128.514 143.995 129.643 144.567 131.11H141.553C141.157 130.303 140.607 129.702 139.903 129.306C139.199 128.91 138.385 128.712 137.461 128.712C136.449 128.712 135.547 128.939 134.755 129.394C133.963 129.849 133.34 130.501 132.885 131.352C132.445 132.203 132.225 133.193 132.225 134.322C132.225 135.451 132.445 136.441 132.885 137.292C133.34 138.143 133.963 138.803 134.755 139.272C135.547 139.727 136.449 139.954 137.461 139.954C138.385 139.954 139.199 139.756 139.903 139.36C140.607 138.964 141.157 138.363 141.553 137.556H144.567C143.995 139.023 143.071 140.152 141.795 140.944C140.534 141.736 139.089 142.132 137.461 142.132C136.024 142.132 134.711 141.802 133.523 141.142C132.335 140.467 131.389 139.536 130.685 138.348C129.996 137.16 129.651 135.818 129.651 134.322ZM62.0243 152.71L56.2823 168H53.3783L47.6143 152.71H50.2983L54.8303 165.426L59.3843 152.71H62.0243ZM75.2317 161.642C75.2317 162.097 75.2023 162.507 75.1437 162.874H65.8817C65.955 163.842 66.3143 164.619 66.9597 165.206C67.605 165.793 68.397 166.086 69.3357 166.086C70.685 166.086 71.6383 165.521 72.1957 164.392H74.9017C74.535 165.507 73.8677 166.423 72.8997 167.142C71.9463 167.846 70.7583 168.198 69.3357 168.198C68.177 168.198 67.1357 167.941 66.2117 167.428C65.3023 166.9 64.5837 166.167 64.0557 165.228C63.5423 164.275 63.2857 163.175 63.2857 161.928C63.2857 160.681 63.535 159.589 64.0337 158.65C64.547 157.697 65.2583 156.963 66.1677 156.45C67.0917 155.937 68.1477 155.68 69.3357 155.68C70.4797 155.68 71.499 155.929 72.3937 156.428C73.2883 156.927 73.985 157.631 74.4837 158.54C74.9823 159.435 75.2317 160.469 75.2317 161.642ZM72.6137 160.85C72.599 159.926 72.269 159.185 71.6237 158.628C70.9783 158.071 70.179 157.792 69.2257 157.792C68.3603 157.792 67.6197 158.071 67.0037 158.628C66.3877 159.171 66.021 159.911 65.9037 160.85H72.6137ZM80.2078 157.638C80.5745 157.022 81.0585 156.545 81.6598 156.208C82.2758 155.856 83.0018 155.68 83.8378 155.68V158.276H83.1998C82.2171 158.276 81.4691 158.525 80.9558 159.024C80.4571 159.523 80.2078 160.388 80.2078 161.62V168H77.6998V155.878H80.2078V157.638ZM87.4192 154.272C86.9645 154.272 86.5832 154.118 86.2752 153.81C85.9672 153.502 85.8132 153.121 85.8132 152.666C85.8132 152.211 85.9672 151.83 86.2752 151.522C86.5832 151.214 86.9645 151.06 87.4192 151.06C87.8592 151.06 88.2332 151.214 88.5412 151.522C88.8492 151.83 89.0032 152.211 89.0032 152.666C89.0032 153.121 88.8492 153.502 88.5412 153.81C88.2332 154.118 87.8592 154.272 87.4192 154.272ZM88.6512 155.878V168H86.1432V155.878H88.6512ZM97.0259 157.924H94.7819V168H92.2519V157.924H90.8219V155.878H92.2519V155.02C92.2519 153.627 92.6186 152.615 93.3519 151.984C94.0999 151.339 95.2659 151.016 96.8499 151.016V153.106C96.0873 153.106 95.5519 153.253 95.2439 153.546C94.9359 153.825 94.7819 154.316 94.7819 155.02V155.878H97.0259V157.924ZM100.525 154.272C100.07 154.272 99.6886 154.118 99.3806 153.81C99.0726 153.502 98.9186 153.121 98.9186 152.666C98.9186 152.211 99.0726 151.83 99.3806 151.522C99.6886 151.214 100.07 151.06 100.525 151.06C100.965 151.06 101.339 151.214 101.647 151.522C101.955 151.83 102.109 152.211 102.109 152.666C102.109 153.121 101.955 153.502 101.647 153.81C101.339 154.118 100.965 154.272 100.525 154.272ZM101.757 155.878V168H99.2486V155.878H101.757ZM104.213 161.928C104.213 160.681 104.463 159.589 104.961 158.65C105.475 157.697 106.179 156.963 107.073 156.45C107.968 155.937 108.995 155.68 110.153 155.68C111.62 155.68 112.83 156.032 113.783 156.736C114.751 157.425 115.404 158.415 115.741 159.706H113.035C112.815 159.105 112.463 158.635 111.979 158.298C111.495 157.961 110.887 157.792 110.153 157.792C109.127 157.792 108.305 158.159 107.689 158.892C107.088 159.611 106.787 160.623 106.787 161.928C106.787 163.233 107.088 164.253 107.689 164.986C108.305 165.719 109.127 166.086 110.153 166.086C111.605 166.086 112.566 165.448 113.035 164.172H115.741C115.389 165.404 114.729 166.387 113.761 167.12C112.793 167.839 111.591 168.198 110.153 168.198C108.995 168.198 107.968 167.941 107.073 167.428C106.179 166.9 105.475 166.167 104.961 165.228C104.463 164.275 104.213 163.175 104.213 161.928ZM117.405 161.884C117.405 160.667 117.654 159.589 118.153 158.65C118.666 157.711 119.355 156.985 120.221 156.472C121.101 155.944 122.069 155.68 123.125 155.68C124.078 155.68 124.907 155.871 125.611 156.252C126.329 156.619 126.901 157.081 127.327 157.638V155.878H129.857V168H127.327V166.196C126.901 166.768 126.322 167.245 125.589 167.626C124.855 168.007 124.019 168.198 123.081 168.198C122.039 168.198 121.086 167.934 120.221 167.406C119.355 166.863 118.666 166.115 118.153 165.162C117.654 164.194 117.405 163.101 117.405 161.884ZM127.327 161.928C127.327 161.092 127.151 160.366 126.799 159.75C126.461 159.134 126.014 158.665 125.457 158.342C124.899 158.019 124.298 157.858 123.653 157.858C123.007 157.858 122.406 158.019 121.849 158.342C121.291 158.65 120.837 159.112 120.485 159.728C120.147 160.329 119.979 161.048 119.979 161.884C119.979 162.72 120.147 163.453 120.485 164.084C120.837 164.715 121.291 165.199 121.849 165.536C122.421 165.859 123.022 166.02 123.653 166.02C124.298 166.02 124.899 165.859 125.457 165.536C126.014 165.213 126.461 164.744 126.799 164.128C127.151 163.497 127.327 162.764 127.327 161.928ZM136.077 157.924V164.634C136.077 165.089 136.18 165.419 136.385 165.624C136.605 165.815 136.972 165.91 137.485 165.91H139.025V168H137.045C135.916 168 135.05 167.736 134.449 167.208C133.848 166.68 133.547 165.822 133.547 164.634V157.924H132.117V155.878H133.547V152.864H136.077V155.878H139.025V157.924H136.077ZM142.613 154.272C142.158 154.272 141.777 154.118 141.469 153.81C141.161 153.502 141.007 153.121 141.007 152.666C141.007 152.211 141.161 151.83 141.469 151.522C141.777 151.214 142.158 151.06 142.613 151.06C143.053 151.06 143.427 151.214 143.735 151.522C144.043 151.83 144.197 152.211 144.197 152.666C144.197 153.121 144.043 153.502 143.735 153.81C143.427 154.118 143.053 154.272 142.613 154.272ZM143.845 155.878V168H141.337V155.878H143.845ZM152.395 168.198C151.251 168.198 150.217 167.941 149.293 167.428C148.369 166.9 147.643 166.167 147.115 165.228C146.587 164.275 146.323 163.175 146.323 161.928C146.323 160.696 146.595 159.603 147.137 158.65C147.68 157.697 148.421 156.963 149.359 156.45C150.298 155.937 151.347 155.68 152.505 155.68C153.664 155.68 154.713 155.937 155.651 156.45C156.59 156.963 157.331 157.697 157.873 158.65C158.416 159.603 158.687 160.696 158.687 161.928C158.687 163.16 158.409 164.253 157.851 165.206C157.294 166.159 156.531 166.9 155.563 167.428C154.61 167.941 153.554 168.198 152.395 168.198ZM152.395 166.02C153.041 166.02 153.642 165.866 154.199 165.558C154.771 165.25 155.233 164.788 155.585 164.172C155.937 163.556 156.113 162.808 156.113 161.928C156.113 161.048 155.945 160.307 155.607 159.706C155.27 159.09 154.823 158.628 154.265 158.32C153.708 158.012 153.107 157.858 152.461 157.858C151.816 157.858 151.215 158.012 150.657 158.32C150.115 158.628 149.682 159.09 149.359 159.706C149.037 160.307 148.875 161.048 148.875 161.928C148.875 163.233 149.205 164.245 149.865 164.964C150.54 165.668 151.383 166.02 152.395 166.02ZM167.283 155.68C168.236 155.68 169.087 155.878 169.835 156.274C170.597 156.67 171.191 157.257 171.617 158.034C172.042 158.811 172.255 159.75 172.255 160.85V168H169.769V161.224C169.769 160.139 169.497 159.31 168.955 158.738C168.412 158.151 167.671 157.858 166.733 157.858C165.794 157.858 165.046 158.151 164.489 158.738C163.946 159.31 163.675 160.139 163.675 161.224V168H161.167V155.878H163.675V157.264C164.085 156.765 164.606 156.377 165.237 156.098C165.882 155.819 166.564 155.68 167.283 155.68Z" fill="#018191"/>
<path d="M480 110C480 170.751 430.751 220 370 220C309.249 220 260 170.751 260 110C260 49.2487 309.249 0 370 0C430.751 0 480 49.2487 480 110ZM267.92 110C267.92 166.377 313.623 212.08 370 212.08C426.377 212.08 472.08 166.377 472.08 110C472.08 53.6228 426.377 7.92001 370 7.92001C313.623 7.92001 267.92 53.6228 267.92 110Z" fill="#003E71"/>
<g filter="url(#filter0_d_873_24250)">
<path fill-rule="evenodd" clip-rule="evenodd" d="M378 76C373.582 76 370 79.5816 370 84C370 88.4184 373.582 92 378 92C382.418 92 386 88.4184 386 84C386 79.5816 382.418 76 378 76ZM366 84C366 77.3725 371.373 72 378 72C384.627 72 390 77.3725 390 84C390 90.6275 384.627 96 378 96C371.373 96 366 90.6275 366 84Z" fill="#003E71"/>
<path fill-rule="evenodd" clip-rule="evenodd" d="M380 60H360V56H380V60Z" fill="#003E71"/>
<path fill-rule="evenodd" clip-rule="evenodd" d="M380 68H360V64H380V68Z" fill="#003E71"/>
<path fill-rule="evenodd" clip-rule="evenodd" d="M352 46H380.829L388 53.1716V70H384V54.8284L379.171 50H356V90H364V94H352V46Z" fill="#003E71"/>
<path fill-rule="evenodd" clip-rule="evenodd" d="M364 76H360V72H364V76Z" fill="#003E71"/>
<path fill-rule="evenodd" clip-rule="evenodd" d="M374.211 80.8945L377.789 79.1057L379.236 82.0001H382V86.0001H376.764L374.211 80.8945Z" fill="#003E71"/>
</g>
<path d="M340.748 142L337.228 135.884H335.314V142H332.806V126.71H338.086C339.26 126.71 340.25 126.915 341.056 127.326C341.878 127.737 342.486 128.287 342.882 128.976C343.293 129.665 343.498 130.435 343.498 131.286C343.498 132.283 343.205 133.193 342.618 134.014C342.046 134.821 341.159 135.371 339.956 135.664L343.74 142H340.748ZM335.314 133.882H338.086C339.025 133.882 339.729 133.647 340.198 133.178C340.682 132.709 340.924 132.078 340.924 131.286C340.924 130.494 340.69 129.878 340.22 129.438C339.751 128.983 339.04 128.756 338.086 128.756H335.314V133.882ZM357.817 135.642C357.817 136.097 357.787 136.507 357.729 136.874H348.467C348.54 137.842 348.899 138.619 349.545 139.206C350.19 139.793 350.982 140.086 351.921 140.086C353.27 140.086 354.223 139.521 354.781 138.392H357.487C357.12 139.507 356.453 140.423 355.485 141.142C354.531 141.846 353.343 142.198 351.921 142.198C350.762 142.198 349.721 141.941 348.797 141.428C347.887 140.9 347.169 140.167 346.641 139.228C346.127 138.275 345.871 137.175 345.871 135.928C345.871 134.681 346.12 133.589 346.619 132.65C347.132 131.697 347.843 130.963 348.753 130.45C349.677 129.937 350.733 129.68 351.921 129.68C353.065 129.68 354.084 129.929 354.979 130.428C355.873 130.927 356.57 131.631 357.069 132.54C357.567 133.435 357.817 134.469 357.817 135.642ZM355.199 134.85C355.184 133.926 354.854 133.185 354.209 132.628C353.563 132.071 352.764 131.792 351.811 131.792C350.945 131.792 350.205 132.071 349.589 132.628C348.973 133.171 348.606 133.911 348.489 134.85H355.199ZM364.971 139.756L368.403 129.878H371.065L366.445 142H363.453L358.855 129.878H361.539L364.971 139.756ZM374.237 128.272C373.782 128.272 373.401 128.118 373.093 127.81C372.785 127.502 372.631 127.121 372.631 126.666C372.631 126.211 372.785 125.83 373.093 125.522C373.401 125.214 373.782 125.06 374.237 125.06C374.677 125.06 375.051 125.214 375.359 125.522C375.667 125.83 375.821 126.211 375.821 126.666C375.821 127.121 375.667 127.502 375.359 127.81C375.051 128.118 374.677 128.272 374.237 128.272ZM375.469 129.878V142H372.961V129.878H375.469ZM389.871 135.642C389.871 136.097 389.842 136.507 389.783 136.874H380.521C380.595 137.842 380.954 138.619 381.599 139.206C382.245 139.793 383.037 140.086 383.975 140.086C385.325 140.086 386.278 139.521 386.835 138.392H389.541C389.175 139.507 388.507 140.423 387.539 141.142C386.586 141.846 385.398 142.198 383.975 142.198C382.817 142.198 381.775 141.941 380.851 141.428C379.942 140.9 379.223 140.167 378.695 139.228C378.182 138.275 377.925 137.175 377.925 135.928C377.925 134.681 378.175 133.589 378.673 132.65C379.187 131.697 379.898 130.963 380.807 130.45C381.731 129.937 382.787 129.68 383.975 129.68C385.119 129.68 386.139 129.929 387.033 130.428C387.928 130.927 388.625 131.631 389.123 132.54C389.622 133.435 389.871 134.469 389.871 135.642ZM387.253 134.85C387.239 133.926 386.909 133.185 386.263 132.628C385.618 132.071 384.819 131.792 383.865 131.792C383 131.792 382.259 132.071 381.643 132.628C381.027 133.171 380.661 133.911 380.543 134.85H387.253ZM408.619 129.878L404.857 142H402.217L399.775 133.046L397.333 142H394.693L390.909 129.878H393.461L395.991 139.624L398.565 129.878H401.183L403.647 139.58L406.155 129.878H408.619ZM338.902 165.976H344.072V168H336.394V152.71H338.902V165.976ZM347.446 154.272C346.991 154.272 346.61 154.118 346.302 153.81C345.994 153.502 345.84 153.121 345.84 152.666C345.84 152.211 345.994 151.83 346.302 151.522C346.61 151.214 346.991 151.06 347.446 151.06C347.886 151.06 348.26 151.214 348.568 151.522C348.876 151.83 349.03 152.211 349.03 152.666C349.03 153.121 348.876 153.502 348.568 153.81C348.26 154.118 347.886 154.272 347.446 154.272ZM348.678 155.878V168H346.17V155.878H348.678ZM356.37 168.198C355.417 168.198 354.559 168.029 353.796 167.692C353.048 167.34 352.454 166.871 352.014 166.284C351.574 165.683 351.34 165.015 351.31 164.282H353.906C353.95 164.795 354.192 165.228 354.632 165.58C355.087 165.917 355.652 166.086 356.326 166.086C357.03 166.086 357.573 165.954 357.954 165.69C358.35 165.411 358.548 165.059 358.548 164.634C358.548 164.179 358.328 163.842 357.888 163.622C357.463 163.402 356.781 163.16 355.842 162.896C354.933 162.647 354.192 162.405 353.62 162.17C353.048 161.935 352.55 161.576 352.124 161.092C351.714 160.608 351.508 159.97 351.508 159.178C351.508 158.533 351.699 157.946 352.08 157.418C352.462 156.875 353.004 156.45 353.708 156.142C354.427 155.834 355.248 155.68 356.172 155.68C357.551 155.68 358.658 156.032 359.494 156.736C360.345 157.425 360.8 158.371 360.858 159.574H358.35C358.306 159.031 358.086 158.599 357.69 158.276C357.294 157.953 356.759 157.792 356.084 157.792C355.424 157.792 354.918 157.917 354.566 158.166C354.214 158.415 354.038 158.745 354.038 159.156C354.038 159.479 354.156 159.75 354.39 159.97C354.625 160.19 354.911 160.366 355.248 160.498C355.586 160.615 356.084 160.769 356.744 160.96C357.624 161.195 358.343 161.437 358.9 161.686C359.472 161.921 359.964 162.273 360.374 162.742C360.785 163.211 360.998 163.835 361.012 164.612C361.012 165.301 360.822 165.917 360.44 166.46C360.059 167.003 359.516 167.428 358.812 167.736C358.123 168.044 357.309 168.198 356.37 168.198ZM366.648 157.924V164.634C366.648 165.089 366.751 165.419 366.956 165.624C367.176 165.815 367.543 165.91 368.056 165.91H369.596V168H367.616C366.487 168 365.622 167.736 365.02 167.208C364.419 166.68 364.118 165.822 364.118 164.634V157.924H362.688V155.878H364.118V152.864H366.648V155.878H369.596V157.924H366.648ZM373.184 154.272C372.729 154.272 372.348 154.118 372.04 153.81C371.732 153.502 371.578 153.121 371.578 152.666C371.578 152.211 371.732 151.83 372.04 151.522C372.348 151.214 372.729 151.06 373.184 151.06C373.624 151.06 373.998 151.214 374.306 151.522C374.614 151.83 374.768 152.211 374.768 152.666C374.768 153.121 374.614 153.502 374.306 153.81C373.998 154.118 373.624 154.272 373.184 154.272ZM374.416 155.878V168H371.908V155.878H374.416ZM383.825 155.68C384.778 155.68 385.629 155.878 386.377 156.274C387.139 156.67 387.733 157.257 388.159 158.034C388.584 158.811 388.797 159.75 388.797 160.85V168H386.311V161.224C386.311 160.139 386.039 159.31 385.497 158.738C384.954 158.151 384.213 157.858 383.275 157.858C382.336 157.858 381.588 158.151 381.031 158.738C380.488 159.31 380.217 160.139 380.217 161.224V168H377.709V155.878H380.217V157.264C380.627 156.765 381.148 156.377 381.779 156.098C382.424 155.819 383.106 155.68 383.825 155.68ZM396.88 155.68C397.818 155.68 398.647 155.871 399.366 156.252C400.099 156.619 400.671 157.081 401.082 157.638V155.878H403.612V168.198C403.612 169.313 403.377 170.303 402.908 171.168C402.438 172.048 401.756 172.737 400.862 173.236C399.982 173.735 398.926 173.984 397.694 173.984C396.051 173.984 394.687 173.595 393.602 172.818C392.516 172.055 391.9 171.014 391.754 169.694H394.24C394.43 170.325 394.834 170.831 395.45 171.212C396.08 171.608 396.828 171.806 397.694 171.806C398.706 171.806 399.52 171.498 400.136 170.882C400.766 170.266 401.082 169.371 401.082 168.198V166.174C400.656 166.746 400.077 167.23 399.344 167.626C398.625 168.007 397.804 168.198 396.88 168.198C395.824 168.198 394.856 167.934 393.976 167.406C393.11 166.863 392.421 166.115 391.908 165.162C391.409 164.194 391.16 163.101 391.16 161.884C391.16 160.667 391.409 159.589 391.908 158.65C392.421 157.711 393.11 156.985 393.976 156.472C394.856 155.944 395.824 155.68 396.88 155.68ZM401.082 161.928C401.082 161.092 400.906 160.366 400.554 159.75C400.216 159.134 399.769 158.665 399.212 158.342C398.654 158.019 398.053 157.858 397.408 157.858C396.762 157.858 396.161 158.019 395.604 158.342C395.046 158.65 394.592 159.112 394.24 159.728C393.902 160.329 393.734 161.048 393.734 161.884C393.734 162.72 393.902 163.453 394.24 164.084C394.592 164.715 395.046 165.199 395.604 165.536C396.176 165.859 396.777 166.02 397.408 166.02C398.053 166.02 398.654 165.859 399.212 165.536C399.769 165.213 400.216 164.744 400.554 164.128C400.906 163.497 401.082 162.764 401.082 161.928Z" fill="#003E71"/>
<path d="M740 110C740 170.751 690.751 220 630 220C569.249 220 520 170.751 520 110C520 49.2487 569.249 0 630 0C690.751 0 740 49.2487 740 110ZM527.92 110C527.92 166.377 573.623 212.08 630 212.08C686.377 212.08 732.08 166.377 732.08 110C732.08 53.6228 686.377 7.92001 630 7.92001C573.623 7.92001 527.92 53.6228 527.92 110Z" fill="#931602"/>
<path d="M585.733 140.154C584.706 140.154 583.782 139.978 582.961 139.626C582.14 139.259 581.494 138.746 581.025 138.086C580.556 137.426 580.321 136.656 580.321 135.776H583.005C583.064 136.436 583.32 136.979 583.775 137.404C584.244 137.829 584.897 138.042 585.733 138.042C586.598 138.042 587.273 137.837 587.757 137.426C588.241 137.001 588.483 136.458 588.483 135.798C588.483 135.285 588.329 134.867 588.021 134.544C587.728 134.221 587.354 133.972 586.899 133.796C586.459 133.62 585.843 133.429 585.051 133.224C584.054 132.96 583.24 132.696 582.609 132.432C581.993 132.153 581.465 131.728 581.025 131.156C580.585 130.584 580.365 129.821 580.365 128.868C580.365 127.988 580.585 127.218 581.025 126.558C581.465 125.898 582.081 125.392 582.873 125.04C583.665 124.688 584.582 124.512 585.623 124.512C587.104 124.512 588.314 124.886 589.253 125.634C590.206 126.367 590.734 127.379 590.837 128.67H588.065C588.021 128.113 587.757 127.636 587.273 127.24C586.789 126.844 586.151 126.646 585.359 126.646C584.64 126.646 584.054 126.829 583.599 127.196C583.144 127.563 582.917 128.091 582.917 128.78C582.917 129.249 583.056 129.638 583.335 129.946C583.628 130.239 583.995 130.474 584.435 130.65C584.875 130.826 585.476 131.017 586.239 131.222C587.251 131.501 588.072 131.779 588.703 132.058C589.348 132.337 589.891 132.769 590.331 133.356C590.786 133.928 591.013 134.698 591.013 135.666C591.013 136.443 590.8 137.177 590.375 137.866C589.964 138.555 589.356 139.113 588.549 139.538C587.757 139.949 586.818 140.154 585.733 140.154ZM593.136 133.928C593.136 132.681 593.386 131.589 593.884 130.65C594.398 129.697 595.102 128.963 595.996 128.45C596.891 127.937 597.918 127.68 599.076 127.68C600.543 127.68 601.753 128.032 602.706 128.736C603.674 129.425 604.327 130.415 604.664 131.706H601.958C601.738 131.105 601.386 130.635 600.902 130.298C600.418 129.961 599.81 129.792 599.076 129.792C598.05 129.792 597.228 130.159 596.612 130.892C596.011 131.611 595.71 132.623 595.71 133.928C595.71 135.233 596.011 136.253 596.612 136.986C597.228 137.719 598.05 138.086 599.076 138.086C600.528 138.086 601.489 137.448 601.958 136.172H604.664C604.312 137.404 603.652 138.387 602.684 139.12C601.716 139.839 600.514 140.198 599.076 140.198C597.918 140.198 596.891 139.941 595.996 139.428C595.102 138.9 594.398 138.167 593.884 137.228C593.386 136.275 593.136 135.175 593.136 133.928ZM613.434 127.68C614.358 127.68 615.179 127.878 615.898 128.274C616.631 128.67 617.203 129.257 617.614 130.034C618.039 130.811 618.252 131.75 618.252 132.85V140H615.766V133.224C615.766 132.139 615.494 131.31 614.952 130.738C614.409 130.151 613.668 129.858 612.73 129.858C611.791 129.858 611.043 130.151 610.486 130.738C609.943 131.31 609.672 132.139 609.672 133.224V140H607.164V123.72H609.672V129.286C610.097 128.773 610.632 128.377 611.278 128.098C611.938 127.819 612.656 127.68 613.434 127.68ZM632.561 133.642C632.561 134.097 632.531 134.507 632.473 134.874H623.211C623.284 135.842 623.643 136.619 624.289 137.206C624.934 137.793 625.726 138.086 626.665 138.086C628.014 138.086 628.967 137.521 629.525 136.392H632.231C631.864 137.507 631.197 138.423 630.229 139.142C629.275 139.846 628.087 140.198 626.665 140.198C625.506 140.198 624.465 139.941 623.541 139.428C622.631 138.9 621.913 138.167 621.385 137.228C620.871 136.275 620.615 135.175 620.615 133.928C620.615 132.681 620.864 131.589 621.363 130.65C621.876 129.697 622.587 128.963 623.497 128.45C624.421 127.937 625.477 127.68 626.665 127.68C627.809 127.68 628.828 127.929 629.723 128.428C630.617 128.927 631.314 129.631 631.813 130.54C632.311 131.435 632.561 132.469 632.561 133.642ZM629.943 132.85C629.928 131.926 629.598 131.185 628.953 130.628C628.307 130.071 627.508 129.792 626.555 129.792C625.689 129.792 624.949 130.071 624.333 130.628C623.717 131.171 623.35 131.911 623.233 132.85H629.943ZM634.193 133.884C634.193 132.667 634.442 131.589 634.941 130.65C635.454 129.711 636.144 128.985 637.009 128.472C637.889 127.944 638.864 127.68 639.935 127.68C640.727 127.68 641.504 127.856 642.267 128.208C643.044 128.545 643.66 129 644.115 129.572V123.72H646.645V140H644.115V138.174C643.704 138.761 643.132 139.245 642.399 139.626C641.68 140.007 640.852 140.198 639.913 140.198C638.857 140.198 637.889 139.934 637.009 139.406C636.144 138.863 635.454 138.115 634.941 137.162C634.442 136.194 634.193 135.101 634.193 133.884ZM644.115 133.928C644.115 133.092 643.939 132.366 643.587 131.75C643.25 131.134 642.802 130.665 642.245 130.342C641.688 130.019 641.086 129.858 640.441 129.858C639.796 129.858 639.194 130.019 638.637 130.342C638.08 130.65 637.625 131.112 637.273 131.728C636.936 132.329 636.767 133.048 636.767 133.884C636.767 134.72 636.936 135.453 637.273 136.084C637.625 136.715 638.08 137.199 638.637 137.536C639.209 137.859 639.81 138.02 640.441 138.02C641.086 138.02 641.688 137.859 642.245 137.536C642.802 137.213 643.25 136.744 643.587 136.128C643.939 135.497 644.115 134.764 644.115 133.928ZM660.917 127.878V140H658.409V138.57C658.013 139.069 657.492 139.465 656.847 139.758C656.216 140.037 655.542 140.176 654.823 140.176C653.87 140.176 653.012 139.978 652.249 139.582C651.501 139.186 650.907 138.599 650.467 137.822C650.042 137.045 649.829 136.106 649.829 135.006V127.878H652.315V134.632C652.315 135.717 652.586 136.553 653.129 137.14C653.672 137.712 654.412 137.998 655.351 137.998C656.29 137.998 657.03 137.712 657.573 137.14C658.13 136.553 658.409 135.717 658.409 134.632V127.878H660.917ZM666.734 123.72V140H664.226V123.72H666.734ZM681.137 133.642C681.137 134.097 681.108 134.507 681.049 134.874H671.787C671.86 135.842 672.22 136.619 672.865 137.206C673.51 137.793 674.302 138.086 675.241 138.086C676.59 138.086 677.544 137.521 678.101 136.392H680.807C680.44 137.507 679.773 138.423 678.805 139.142C677.852 139.846 676.664 140.198 675.241 140.198C674.082 140.198 673.041 139.941 672.117 139.428C671.208 138.9 670.489 138.167 669.961 137.228C669.448 136.275 669.191 135.175 669.191 133.928C669.191 132.681 669.44 131.589 669.939 130.65C670.452 129.697 671.164 128.963 672.073 128.45C672.997 127.937 674.053 127.68 675.241 127.68C676.385 127.68 677.404 127.929 678.299 128.428C679.194 128.927 679.89 129.631 680.389 130.54C680.888 131.435 681.137 132.469 681.137 133.642ZM678.519 132.85C678.504 131.926 678.174 131.185 677.529 130.628C676.884 130.071 676.084 129.792 675.131 129.792C674.266 129.792 673.525 130.071 672.909 130.628C672.293 131.171 671.926 131.911 671.809 132.85H678.519ZM603.384 154.71V170H600.876V159.528L596.212 170H594.474L589.788 159.528V170H587.28V154.71H589.986L595.354 166.7L600.7 154.71H603.384ZM617.79 163.642C617.79 164.097 617.761 164.507 617.702 164.874H608.44C608.514 165.842 608.873 166.619 609.518 167.206C610.164 167.793 610.956 168.086 611.894 168.086C613.244 168.086 614.197 167.521 614.754 166.392H617.46C617.094 167.507 616.426 168.423 615.458 169.142C614.505 169.846 613.317 170.198 611.894 170.198C610.736 170.198 609.694 169.941 608.77 169.428C607.861 168.9 607.142 168.167 606.614 167.228C606.101 166.275 605.844 165.175 605.844 163.928C605.844 162.681 606.094 161.589 606.592 160.65C607.106 159.697 607.817 158.963 608.726 158.45C609.65 157.937 610.706 157.68 611.894 157.68C613.038 157.68 614.058 157.929 614.952 158.428C615.847 158.927 616.544 159.631 617.042 160.54C617.541 161.435 617.79 162.469 617.79 163.642ZM615.172 162.85C615.158 161.926 614.828 161.185 614.182 160.628C613.537 160.071 612.738 159.792 611.784 159.792C610.919 159.792 610.178 160.071 609.562 160.628C608.946 161.171 608.58 161.911 608.462 162.85H615.172ZM631.368 163.642C631.368 164.097 631.339 164.507 631.28 164.874H622.018C622.092 165.842 622.451 166.619 623.096 167.206C623.742 167.793 624.534 168.086 625.472 168.086C626.822 168.086 627.775 167.521 628.332 166.392H631.038C630.672 167.507 630.004 168.423 629.036 169.142C628.083 169.846 626.895 170.198 625.472 170.198C624.314 170.198 623.272 169.941 622.348 169.428C621.439 168.9 620.72 168.167 620.192 167.228C619.679 166.275 619.422 165.175 619.422 163.928C619.422 162.681 619.672 161.589 620.17 160.65C620.684 159.697 621.395 158.963 622.304 158.45C623.228 157.937 624.284 157.68 625.472 157.68C626.616 157.68 627.636 157.929 628.53 158.428C629.425 158.927 630.122 159.631 630.62 160.54C631.119 161.435 631.368 162.469 631.368 163.642ZM628.75 162.85C628.736 161.926 628.406 161.185 627.76 160.628C627.115 160.071 626.316 159.792 625.362 159.792C624.497 159.792 623.756 160.071 623.14 160.628C622.524 161.171 622.158 161.911 622.04 162.85H628.75ZM636.763 159.924V166.634C636.763 167.089 636.865 167.419 637.071 167.624C637.291 167.815 637.657 167.91 638.171 167.91H639.711V170H637.731C636.601 170 635.736 169.736 635.135 169.208C634.533 168.68 634.233 167.822 634.233 166.634V159.924H632.803V157.878H634.233V154.864H636.763V157.878H639.711V159.924H636.763ZM643.298 156.272C642.843 156.272 642.462 156.118 642.154 155.81C641.846 155.502 641.692 155.121 641.692 154.666C641.692 154.211 641.846 153.83 642.154 153.522C642.462 153.214 642.843 153.06 643.298 153.06C643.738 153.06 644.112 153.214 644.42 153.522C644.728 153.83 644.882 154.211 644.882 154.666C644.882 155.121 644.728 155.502 644.42 155.81C644.112 156.118 643.738 156.272 643.298 156.272ZM644.53 157.878V170H642.022V157.878H644.53ZM653.939 157.68C654.892 157.68 655.743 157.878 656.491 158.274C657.254 158.67 657.848 159.257 658.273 160.034C658.698 160.811 658.911 161.75 658.911 162.85V170H656.425V163.224C656.425 162.139 656.154 161.31 655.611 160.738C655.068 160.151 654.328 159.858 653.389 159.858C652.45 159.858 651.702 160.151 651.145 160.738C650.602 161.31 650.331 162.139 650.331 163.224V170H647.823V157.878H650.331V159.264C650.742 158.765 651.262 158.377 651.893 158.098C652.538 157.819 653.22 157.68 653.939 157.68ZM666.994 157.68C667.933 157.68 668.761 157.871 669.48 158.252C670.213 158.619 670.785 159.081 671.196 159.638V157.878H673.726V170.198C673.726 171.313 673.491 172.303 673.022 173.168C672.553 174.048 671.871 174.737 670.976 175.236C670.096 175.735 669.04 175.984 667.808 175.984C666.165 175.984 664.801 175.595 663.716 174.818C662.631 174.055 662.015 173.014 661.868 171.694H664.354C664.545 172.325 664.948 172.831 665.564 173.212C666.195 173.608 666.943 173.806 667.808 173.806C668.82 173.806 669.634 173.498 670.25 172.882C670.881 172.266 671.196 171.371 671.196 170.198V168.174C670.771 168.746 670.191 169.23 669.458 169.626C668.739 170.007 667.918 170.198 666.994 170.198C665.938 170.198 664.97 169.934 664.09 169.406C663.225 168.863 662.535 168.115 662.022 167.162C661.523 166.194 661.274 165.101 661.274 163.884C661.274 162.667 661.523 161.589 662.022 160.65C662.535 159.711 663.225 158.985 664.09 158.472C664.97 157.944 665.938 157.68 666.994 157.68ZM671.196 163.928C671.196 163.092 671.02 162.366 670.668 161.75C670.331 161.134 669.883 160.665 669.326 160.342C668.769 160.019 668.167 159.858 667.522 159.858C666.877 159.858 666.275 160.019 665.718 160.342C665.161 160.65 664.706 161.112 664.354 161.728C664.017 162.329 663.848 163.048 663.848 163.884C663.848 164.72 664.017 165.453 664.354 166.084C664.706 166.715 665.161 167.199 665.718 167.536C666.29 167.859 666.891 168.02 667.522 168.02C668.167 168.02 668.769 167.859 669.326 167.536C669.883 167.213 670.331 166.744 670.668 166.128C671.02 165.497 671.196 164.764 671.196 163.928Z" fill="#931602"/>
<path d="M611.615 51.9485C607.362 56.2019 604.715 61.7985 604.125 67.7848C603.536 73.7711 605.04 79.7766 608.382 84.7781C611.724 89.7796 616.696 93.4676 622.453 95.2137C628.209 96.9598 634.392 96.6561 639.95 94.3541C645.507 92.0522 650.094 87.8945 652.93 82.5896C655.766 77.2846 656.674 71.1606 655.5 65.2609C654.327 59.3612 651.144 54.051 646.494 50.235C641.844 46.419 636.015 44.3333 630 44.3333" stroke="#931602" stroke-width="4" stroke-linecap="round"/>
<path d="M630 70.3333L616.667 57" stroke="#931602" stroke-width="4" stroke-linecap="round"/>
<path d="M630 45V51.6667" stroke="#931602" stroke-width="4" stroke-linecap="round"/>
<path d="M654 70.3333L648.667 70.3333" stroke="#931602" stroke-width="4" stroke-linecap="round"/>
<path d="M630 89V94.3333" stroke="#931602" stroke-width="4" stroke-linecap="round"/>
<path d="M611.333 70.3333L606 70.3333" stroke="#931602" stroke-width="4" stroke-linecap="round"/>
<path d="M1000 110C1000 170.751 950.751 220 890 220C829.249 220 780 170.751 780 110C780 49.2487 829.249 0 890 0C950.751 0 1000 49.2487 1000 110ZM787.92 110C787.92 166.377 833.623 212.08 890 212.08C946.377 212.08 992.08 166.377 992.08 110C992.08 53.6228 946.377 7.92001 890 7.92001C833.623 7.92001 787.92 53.6228 787.92 110Z" fill="#DFBD90"/>
<path d="M914 67.3333V65.8519C914 64.7513 914 64.2009 913.959 63.737C913.508 58.5802 909.42 54.4917 904.263 54.0406C903.799 54 903.249 54 902.148 54H901.556C901.065 54 900.667 53.602 900.667 53.1111V53.1111C900.667 49.1838 897.483 46 893.556 46H886.444C882.517 46 879.333 49.1838 879.333 53.1111V53.1111C879.333 53.602 878.935 54 878.444 54H877.852C876.751 54 876.201 54 875.737 54.0406C870.58 54.4917 866.492 58.5802 866.041 63.737C866 64.2009 866 64.7513 866 65.8519V74.8C866 82.7994 866 86.7991 868.037 89.603C868.695 90.5086 869.491 91.3049 870.397 91.9628C873.201 94 877.201 94 885.2 94H898C902.97 94 905.455 94 907.415 93.188C910.029 92.1054 912.105 90.0289 913.188 87.4153C914 85.4551 914 82.97 914 78V78M890 80.6667V80.6667C894.418 80.6667 898 77.0849 898 72.6667V72.6667C898 68.2484 894.418 64.6667 890 64.6667V64.6667C885.582 64.6667 882 68.2484 882 72.6667V72.6667C882 77.0849 885.582 80.6667 890 80.6667Z" stroke="#A37F4F" stroke-width="3.5" stroke-linecap="round" stroke-linejoin="round"/>
<path d="M821.642 126.976H826.812V129H819.134V113.71H821.642V126.976ZM834.168 129.198C833.024 129.198 831.99 128.941 831.066 128.428C830.142 127.9 829.416 127.167 828.888 126.228C828.36 125.275 828.096 124.175 828.096 122.928C828.096 121.696 828.367 120.603 828.91 119.65C829.452 118.697 830.193 117.963 831.132 117.45C832.07 116.937 833.119 116.68 834.278 116.68C835.436 116.68 836.485 116.937 837.424 117.45C838.362 117.963 839.103 118.697 839.646 119.65C840.188 120.603 840.46 121.696 840.46 122.928C840.46 124.16 840.181 125.253 839.624 126.206C839.066 127.159 838.304 127.9 837.336 128.428C836.382 128.941 835.326 129.198 834.168 129.198ZM834.168 127.02C834.813 127.02 835.414 126.866 835.972 126.558C836.544 126.25 837.006 125.788 837.358 125.172C837.71 124.556 837.886 123.808 837.886 122.928C837.886 122.048 837.717 121.307 837.38 120.706C837.042 120.09 836.595 119.628 836.038 119.32C835.48 119.012 834.879 118.858 834.234 118.858C833.588 118.858 832.987 119.012 832.43 119.32C831.887 119.628 831.454 120.09 831.132 120.706C830.809 121.307 830.648 122.048 830.648 122.928C830.648 124.233 830.978 125.245 831.638 125.964C832.312 126.668 833.156 127.02 834.168 127.02ZM842.103 122.928C842.103 121.681 842.352 120.589 842.851 119.65C843.364 118.697 844.068 117.963 844.963 117.45C845.858 116.937 846.884 116.68 848.043 116.68C849.51 116.68 850.72 117.032 851.673 117.736C852.641 118.425 853.294 119.415 853.631 120.706H850.925C850.705 120.105 850.353 119.635 849.869 119.298C849.385 118.961 848.776 118.792 848.043 118.792C847.016 118.792 846.195 119.159 845.579 119.892C844.978 120.611 844.677 121.623 844.677 122.928C844.677 124.233 844.978 125.253 845.579 125.986C846.195 126.719 847.016 127.086 848.043 127.086C849.495 127.086 850.456 126.448 850.925 125.172H853.631C853.279 126.404 852.619 127.387 851.651 128.12C850.683 128.839 849.48 129.198 848.043 129.198C846.884 129.198 845.858 128.941 844.963 128.428C844.068 127.9 843.364 127.167 842.851 126.228C842.352 125.275 842.103 124.175 842.103 122.928ZM855.294 122.884C855.294 121.667 855.544 120.589 856.042 119.65C856.556 118.711 857.245 117.985 858.11 117.472C858.99 116.944 859.958 116.68 861.014 116.68C861.968 116.68 862.796 116.871 863.5 117.252C864.219 117.619 864.791 118.081 865.216 118.638V116.878H867.746V129H865.216V127.196C864.791 127.768 864.212 128.245 863.478 128.626C862.745 129.007 861.909 129.198 860.97 129.198C859.929 129.198 858.976 128.934 858.11 128.406C857.245 127.863 856.556 127.115 856.042 126.162C855.544 125.194 855.294 124.101 855.294 122.884ZM865.216 122.928C865.216 122.092 865.04 121.366 864.688 120.75C864.351 120.134 863.904 119.665 863.346 119.342C862.789 119.019 862.188 118.858 861.542 118.858C860.897 118.858 860.296 119.019 859.738 119.342C859.181 119.65 858.726 120.112 858.374 120.728C858.037 121.329 857.868 122.048 857.868 122.884C857.868 123.72 858.037 124.453 858.374 125.084C858.726 125.715 859.181 126.199 859.738 126.536C860.31 126.859 860.912 127.02 861.542 127.02C862.188 127.02 862.789 126.859 863.346 126.536C863.904 126.213 864.351 125.744 864.688 125.128C865.04 124.497 865.216 123.764 865.216 122.928ZM873.967 118.924V125.634C873.967 126.089 874.069 126.419 874.275 126.624C874.495 126.815 874.861 126.91 875.375 126.91H876.915V129H874.935C873.805 129 872.94 128.736 872.339 128.208C871.737 127.68 871.437 126.822 871.437 125.634V118.924H870.007V116.878H871.437V113.864H873.967V116.878H876.915V118.924H873.967ZM880.502 115.272C880.048 115.272 879.666 115.118 879.358 114.81C879.05 114.502 878.896 114.121 878.896 113.666C878.896 113.211 879.05 112.83 879.358 112.522C879.666 112.214 880.048 112.06 880.502 112.06C880.942 112.06 881.316 112.214 881.624 112.522C881.932 112.83 882.086 113.211 882.086 113.666C882.086 114.121 881.932 114.502 881.624 114.81C881.316 115.118 880.942 115.272 880.502 115.272ZM881.734 116.878V129H879.226V116.878H881.734ZM890.285 129.198C889.141 129.198 888.107 128.941 887.183 128.428C886.259 127.9 885.533 127.167 885.005 126.228C884.477 125.275 884.213 124.175 884.213 122.928C884.213 121.696 884.484 120.603 885.027 119.65C885.57 118.697 886.31 117.963 887.249 117.45C888.188 116.937 889.236 116.68 890.395 116.68C891.554 116.68 892.602 116.937 893.541 117.45C894.48 117.963 895.22 118.697 895.763 119.65C896.306 120.603 896.577 121.696 896.577 122.928C896.577 124.16 896.298 125.253 895.741 126.206C895.184 127.159 894.421 127.9 893.453 128.428C892.5 128.941 891.444 129.198 890.285 129.198ZM890.285 127.02C890.93 127.02 891.532 126.866 892.089 126.558C892.661 126.25 893.123 125.788 893.475 125.172C893.827 124.556 894.003 123.808 894.003 122.928C894.003 122.048 893.834 121.307 893.497 120.706C893.16 120.09 892.712 119.628 892.155 119.32C891.598 119.012 890.996 118.858 890.351 118.858C889.706 118.858 889.104 119.012 888.547 119.32C888.004 119.628 887.572 120.09 887.249 120.706C886.926 121.307 886.765 122.048 886.765 122.928C886.765 124.233 887.095 125.245 887.755 125.964C888.43 126.668 889.273 127.02 890.285 127.02ZM905.172 116.68C906.126 116.68 906.976 116.878 907.724 117.274C908.487 117.67 909.081 118.257 909.506 119.034C909.932 119.811 910.144 120.75 910.144 121.85V129H907.658V122.224C907.658 121.139 907.387 120.31 906.844 119.738C906.302 119.151 905.561 118.858 904.622 118.858C903.684 118.858 902.936 119.151 902.378 119.738C901.836 120.31 901.564 121.139 901.564 122.224V129H899.056V116.878H901.564V118.264C901.975 117.765 902.496 117.377 903.126 117.098C903.772 116.819 904.454 116.68 905.172 116.68ZM918.222 122.884C918.222 121.667 918.472 120.589 918.97 119.65C919.484 118.711 920.173 117.985 921.038 117.472C921.918 116.944 922.886 116.68 923.942 116.68C924.896 116.68 925.724 116.871 926.428 117.252C927.147 117.619 927.719 118.081 928.144 118.638V116.878H930.674V129H928.144V127.196C927.719 127.768 927.14 128.245 926.406 128.626C925.673 129.007 924.837 129.198 923.898 129.198C922.857 129.198 921.904 128.934 921.038 128.406C920.173 127.863 919.484 127.115 918.97 126.162C918.472 125.194 918.222 124.101 918.222 122.884ZM928.144 122.928C928.144 122.092 927.968 121.366 927.616 120.75C927.279 120.134 926.832 119.665 926.274 119.342C925.717 119.019 925.116 118.858 924.47 118.858C923.825 118.858 923.224 119.019 922.666 119.342C922.109 119.65 921.654 120.112 921.302 120.728C920.965 121.329 920.796 122.048 920.796 122.884C920.796 123.72 920.965 124.453 921.302 125.084C921.654 125.715 922.109 126.199 922.666 126.536C923.238 126.859 923.84 127.02 924.47 127.02C925.116 127.02 925.717 126.859 926.274 126.536C926.832 126.213 927.279 125.744 927.616 125.128C927.968 124.497 928.144 123.764 928.144 122.928ZM940.084 116.68C941.038 116.68 941.888 116.878 942.636 117.274C943.399 117.67 943.993 118.257 944.418 119.034C944.844 119.811 945.056 120.75 945.056 121.85V129H942.57V122.224C942.57 121.139 942.299 120.31 941.756 119.738C941.214 119.151 940.473 118.858 939.534 118.858C938.596 118.858 937.848 119.151 937.29 119.738C936.748 120.31 936.476 121.139 936.476 122.224V129H933.968V116.878H936.476V118.264C936.887 117.765 937.408 117.377 938.038 117.098C938.684 116.819 939.366 116.68 940.084 116.68ZM947.419 122.884C947.419 121.667 947.669 120.589 948.167 119.65C948.681 118.711 949.37 117.985 950.235 117.472C951.115 116.944 952.091 116.68 953.161 116.68C953.953 116.68 954.731 116.856 955.493 117.208C956.271 117.545 956.887 118 957.341 118.572V112.72H959.871V129H957.341V127.174C956.931 127.761 956.359 128.245 955.625 128.626C954.907 129.007 954.078 129.198 953.139 129.198C952.083 129.198 951.115 128.934 950.235 128.406C949.37 127.863 948.681 127.115 948.167 126.162C947.669 125.194 947.419 124.101 947.419 122.884ZM957.341 122.928C957.341 122.092 957.165 121.366 956.813 120.75C956.476 120.134 956.029 119.665 955.471 119.342C954.914 119.019 954.313 118.858 953.667 118.858C953.022 118.858 952.421 119.019 951.863 119.342C951.306 119.65 950.851 120.112 950.499 120.728C950.162 121.329 949.993 122.048 949.993 122.884C949.993 123.72 950.162 124.453 950.499 125.084C950.851 125.715 951.306 126.199 951.863 126.536C952.435 126.859 953.037 127.02 953.667 127.02C954.313 127.02 954.914 126.859 955.471 126.536C956.029 126.213 956.476 125.744 956.813 125.128C957.165 124.497 957.341 123.764 957.341 122.928ZM824.027 152.976H829.197V155H821.519V139.71H824.027V152.976ZM832.571 141.272C832.116 141.272 831.735 141.118 831.427 140.81C831.119 140.502 830.965 140.121 830.965 139.666C830.965 139.211 831.119 138.83 831.427 138.522C831.735 138.214 832.116 138.06 832.571 138.06C833.011 138.06 833.385 138.214 833.693 138.522C834.001 138.83 834.155 139.211 834.155 139.666C834.155 140.121 834.001 140.502 833.693 140.81C833.385 141.118 833.011 141.272 832.571 141.272ZM833.803 142.878V155H831.295V142.878H833.803ZM841.781 152.756L845.213 142.878H847.875L843.255 155H840.263L835.665 142.878H838.349L841.781 152.756ZM860.881 148.642C860.881 149.097 860.852 149.507 860.793 149.874H851.531C851.604 150.842 851.964 151.619 852.609 152.206C853.254 152.793 854.046 153.086 854.985 153.086C856.334 153.086 857.288 152.521 857.845 151.392H860.551C860.184 152.507 859.517 153.423 858.549 154.142C857.596 154.846 856.408 155.198 854.985 155.198C853.826 155.198 852.785 154.941 851.861 154.428C850.952 153.9 850.233 153.167 849.705 152.228C849.192 151.275 848.935 150.175 848.935 148.928C848.935 147.681 849.184 146.589 849.683 145.65C850.196 144.697 850.908 143.963 851.817 143.45C852.741 142.937 853.797 142.68 854.985 142.68C856.129 142.68 857.148 142.929 858.043 143.428C858.938 143.927 859.634 144.631 860.133 145.54C860.632 146.435 860.881 147.469 860.881 148.642ZM858.263 147.85C858.248 146.926 857.918 146.185 857.273 145.628C856.628 145.071 855.828 144.792 854.875 144.792C854.01 144.792 853.269 145.071 852.653 145.628C852.037 146.171 851.67 146.911 851.553 147.85H858.263ZM868.228 147.322C868.228 145.826 868.573 144.484 869.262 143.296C869.966 142.108 870.912 141.184 872.1 140.524C873.303 139.849 874.615 139.512 876.038 139.512C877.666 139.512 879.111 139.915 880.372 140.722C881.648 141.514 882.572 142.643 883.144 144.11H880.13C879.734 143.303 879.184 142.702 878.48 142.306C877.776 141.91 876.962 141.712 876.038 141.712C875.026 141.712 874.124 141.939 873.332 142.394C872.54 142.849 871.917 143.501 871.462 144.352C871.022 145.203 870.802 146.193 870.802 147.322C870.802 148.451 871.022 149.441 871.462 150.292C871.917 151.143 872.54 151.803 873.332 152.272C874.124 152.727 875.026 152.954 876.038 152.954C876.962 152.954 877.776 152.756 878.48 152.36C879.184 151.964 879.734 151.363 880.13 150.556H883.144C882.572 152.023 881.648 153.152 880.372 153.944C879.111 154.736 877.666 155.132 876.038 155.132C874.601 155.132 873.288 154.802 872.1 154.142C870.912 153.467 869.966 152.536 869.262 151.348C868.573 150.16 868.228 148.818 868.228 147.322ZM885.244 148.884C885.244 147.667 885.493 146.589 885.992 145.65C886.505 144.711 887.194 143.985 888.06 143.472C888.94 142.944 889.908 142.68 890.964 142.68C891.917 142.68 892.746 142.871 893.45 143.252C894.168 143.619 894.74 144.081 895.166 144.638V142.878H897.696V155H895.166V153.196C894.74 153.768 894.161 154.245 893.428 154.626C892.694 155.007 891.858 155.198 890.92 155.198C889.878 155.198 888.925 154.934 888.06 154.406C887.194 153.863 886.505 153.115 885.992 152.162C885.493 151.194 885.244 150.101 885.244 148.884ZM895.166 148.928C895.166 148.092 894.99 147.366 894.638 146.75C894.3 146.134 893.853 145.665 893.296 145.342C892.738 145.019 892.137 144.858 891.492 144.858C890.846 144.858 890.245 145.019 889.688 145.342C889.13 145.65 888.676 146.112 888.324 146.728C887.986 147.329 887.818 148.048 887.818 148.884C887.818 149.72 887.986 150.453 888.324 151.084C888.676 151.715 889.13 152.199 889.688 152.536C890.26 152.859 890.861 153.02 891.492 153.02C892.137 153.02 892.738 152.859 893.296 152.536C893.853 152.213 894.3 151.744 894.638 151.128C894.99 150.497 895.166 149.764 895.166 148.928ZM915.664 142.68C916.617 142.68 917.468 142.878 918.216 143.274C918.979 143.67 919.573 144.257 919.998 145.034C920.438 145.811 920.658 146.75 920.658 147.85V155H918.172V148.224C918.172 147.139 917.901 146.31 917.358 145.738C916.815 145.151 916.075 144.858 915.136 144.858C914.197 144.858 913.449 145.151 912.892 145.738C912.349 146.31 912.078 147.139 912.078 148.224V155H909.592V148.224C909.592 147.139 909.321 146.31 908.778 145.738C908.235 145.151 907.495 144.858 906.556 144.858C905.617 144.858 904.869 145.151 904.312 145.738C903.769 146.31 903.498 147.139 903.498 148.224V155H900.99V142.878H903.498V144.264C903.909 143.765 904.429 143.377 905.06 143.098C905.691 142.819 906.365 142.68 907.084 142.68C908.052 142.68 908.917 142.885 909.68 143.296C910.443 143.707 911.029 144.301 911.44 145.078C911.807 144.345 912.379 143.765 913.156 143.34C913.933 142.9 914.769 142.68 915.664 142.68ZM934.959 148.642C934.959 149.097 934.93 149.507 934.871 149.874H925.609C925.683 150.842 926.042 151.619 926.687 152.206C927.333 152.793 928.125 153.086 929.063 153.086C930.413 153.086 931.366 152.521 931.923 151.392H934.629C934.263 152.507 933.595 153.423 932.627 154.142C931.674 154.846 930.486 155.198 929.063 155.198C927.905 155.198 926.863 154.941 925.939 154.428C925.03 153.9 924.311 153.167 923.783 152.228C923.27 151.275 923.013 150.175 923.013 148.928C923.013 147.681 923.263 146.589 923.761 145.65C924.275 144.697 924.986 143.963 925.895 143.45C926.819 142.937 927.875 142.68 929.063 142.68C930.207 142.68 931.227 142.929 932.121 143.428C933.016 143.927 933.713 144.631 934.211 145.54C934.71 146.435 934.959 147.469 934.959 148.642ZM932.341 147.85C932.327 146.926 931.997 146.185 931.351 145.628C930.706 145.071 929.907 144.792 928.953 144.792C928.088 144.792 927.347 145.071 926.731 145.628C926.115 146.171 925.749 146.911 925.631 147.85H932.341ZM939.935 144.638C940.302 144.022 940.786 143.545 941.387 143.208C942.003 142.856 942.729 142.68 943.565 142.68V145.276H942.927C941.945 145.276 941.197 145.525 940.683 146.024C940.185 146.523 939.935 147.388 939.935 148.62V155H937.427V142.878H939.935V144.638ZM945.035 148.884C945.035 147.667 945.284 146.589 945.783 145.65C946.296 144.711 946.985 143.985 947.851 143.472C948.731 142.944 949.699 142.68 950.755 142.68C951.708 142.68 952.537 142.871 953.241 143.252C953.959 143.619 954.531 144.081 954.957 144.638V142.878H957.487V155H954.957V153.196C954.531 153.768 953.952 154.245 953.219 154.626C952.485 155.007 951.649 155.198 950.711 155.198C949.669 155.198 948.716 154.934 947.851 154.406C946.985 153.863 946.296 153.115 945.783 152.162C945.284 151.194 945.035 150.101 945.035 148.884ZM954.957 148.928C954.957 148.092 954.781 147.366 954.429 146.75C954.091 146.134 953.644 145.665 953.087 145.342C952.529 145.019 951.928 144.858 951.283 144.858C950.637 144.858 950.036 145.019 949.479 145.342C948.921 145.65 948.467 146.112 948.115 146.728C947.777 147.329 947.609 148.048 947.609 148.884C947.609 149.72 947.777 150.453 948.115 151.084C948.467 151.715 948.921 152.199 949.479 152.536C950.051 152.859 950.652 153.02 951.283 153.02C951.928 153.02 952.529 152.859 953.087 152.536C953.644 152.213 954.091 151.744 954.429 151.128C954.781 150.497 954.957 149.764 954.957 148.928ZM841.024 165.71L835.282 181H832.378L826.614 165.71H829.298L833.83 178.426L838.384 165.71H841.024ZM854.232 174.642C854.232 175.097 854.202 175.507 854.144 175.874H844.882C844.955 176.842 845.314 177.619 845.96 178.206C846.605 178.793 847.397 179.086 848.336 179.086C849.685 179.086 850.638 178.521 851.196 177.392H853.902C853.535 178.507 852.868 179.423 851.9 180.142C850.946 180.846 849.758 181.198 848.336 181.198C847.177 181.198 846.136 180.941 845.212 180.428C844.302 179.9 843.584 179.167 843.056 178.228C842.542 177.275 842.286 176.175 842.286 174.928C842.286 173.681 842.535 172.589 843.034 171.65C843.547 170.697 844.258 169.963 845.168 169.45C846.092 168.937 847.148 168.68 848.336 168.68C849.48 168.68 850.499 168.929 851.394 169.428C852.288 169.927 852.985 170.631 853.484 171.54C853.982 172.435 854.232 173.469 854.232 174.642ZM851.614 173.85C851.599 172.926 851.269 172.185 850.624 171.628C849.978 171.071 849.179 170.792 848.226 170.792C847.36 170.792 846.62 171.071 846.004 171.628C845.388 172.171 845.021 172.911 844.904 173.85H851.614ZM859.208 170.638C859.574 170.022 860.058 169.545 860.66 169.208C861.276 168.856 862.002 168.68 862.838 168.68V171.276H862.2C861.217 171.276 860.469 171.525 859.956 172.024C859.457 172.523 859.208 173.388 859.208 174.62V181H856.7V168.878H859.208V170.638ZM866.419 167.272C865.964 167.272 865.583 167.118 865.275 166.81C864.967 166.502 864.813 166.121 864.813 165.666C864.813 165.211 864.967 164.83 865.275 164.522C865.583 164.214 865.964 164.06 866.419 164.06C866.859 164.06 867.233 164.214 867.541 164.522C867.849 164.83 868.003 165.211 868.003 165.666C868.003 166.121 867.849 166.502 867.541 166.81C867.233 167.118 866.859 167.272 866.419 167.272ZM867.651 168.878V181H865.143V168.878H867.651ZM876.026 170.924H873.782V181H871.252V170.924H869.822V168.878H871.252V168.02C871.252 166.627 871.619 165.615 872.352 164.984C873.1 164.339 874.266 164.016 875.85 164.016V166.106C875.087 166.106 874.552 166.253 874.244 166.546C873.936 166.825 873.782 167.316 873.782 168.02V168.878H876.026V170.924ZM879.525 167.272C879.07 167.272 878.689 167.118 878.381 166.81C878.073 166.502 877.919 166.121 877.919 165.666C877.919 165.211 878.073 164.83 878.381 164.522C878.689 164.214 879.07 164.06 879.525 164.06C879.965 164.06 880.339 164.214 880.647 164.522C880.955 164.83 881.109 165.211 881.109 165.666C881.109 166.121 880.955 166.502 880.647 166.81C880.339 167.118 879.965 167.272 879.525 167.272ZM880.757 168.878V181H878.249V168.878H880.757ZM883.213 174.928C883.213 173.681 883.463 172.589 883.961 171.65C884.475 170.697 885.179 169.963 886.073 169.45C886.968 168.937 887.995 168.68 889.153 168.68C890.62 168.68 891.83 169.032 892.783 169.736C893.751 170.425 894.404 171.415 894.741 172.706H892.035C891.815 172.105 891.463 171.635 890.979 171.298C890.495 170.961 889.887 170.792 889.153 170.792C888.127 170.792 887.305 171.159 886.689 171.892C886.088 172.611 885.787 173.623 885.787 174.928C885.787 176.233 886.088 177.253 886.689 177.986C887.305 178.719 888.127 179.086 889.153 179.086C890.605 179.086 891.566 178.448 892.035 177.172H894.741C894.389 178.404 893.729 179.387 892.761 180.12C891.793 180.839 890.591 181.198 889.153 181.198C887.995 181.198 886.968 180.941 886.073 180.428C885.179 179.9 884.475 179.167 883.961 178.228C883.463 177.275 883.213 176.175 883.213 174.928ZM896.405 174.884C896.405 173.667 896.654 172.589 897.153 171.65C897.666 170.711 898.355 169.985 899.221 169.472C900.101 168.944 901.069 168.68 902.125 168.68C903.078 168.68 903.907 168.871 904.611 169.252C905.329 169.619 905.901 170.081 906.327 170.638V168.878H908.857V181H906.327V179.196C905.901 179.768 905.322 180.245 904.589 180.626C903.855 181.007 903.019 181.198 902.081 181.198C901.039 181.198 900.086 180.934 899.221 180.406C898.355 179.863 897.666 179.115 897.153 178.162C896.654 177.194 896.405 176.101 896.405 174.884ZM906.327 174.928C906.327 174.092 906.151 173.366 905.799 172.75C905.461 172.134 905.014 171.665 904.457 171.342C903.899 171.019 903.298 170.858 902.653 170.858C902.007 170.858 901.406 171.019 900.849 171.342C900.291 171.65 899.837 172.112 899.485 172.728C899.147 173.329 898.979 174.048 898.979 174.884C898.979 175.72 899.147 176.453 899.485 177.084C899.837 177.715 900.291 178.199 900.849 178.536C901.421 178.859 902.022 179.02 902.653 179.02C903.298 179.02 903.899 178.859 904.457 178.536C905.014 178.213 905.461 177.744 905.799 177.128C906.151 176.497 906.327 175.764 906.327 174.928ZM915.077 170.924V177.634C915.077 178.089 915.18 178.419 915.385 178.624C915.605 178.815 915.972 178.91 916.485 178.91H918.025V181H916.045C914.916 181 914.05 180.736 913.449 180.208C912.848 179.68 912.547 178.822 912.547 177.634V170.924H911.117V168.878H912.547V165.864H915.077V168.878H918.025V170.924H915.077ZM921.613 167.272C921.158 167.272 920.777 167.118 920.469 166.81C920.161 166.502 920.007 166.121 920.007 165.666C920.007 165.211 920.161 164.83 920.469 164.522C920.777 164.214 921.158 164.06 921.613 164.06C922.053 164.06 922.427 164.214 922.735 164.522C923.043 164.83 923.197 165.211 923.197 165.666C923.197 166.121 923.043 166.502 922.735 166.81C922.427 167.118 922.053 167.272 921.613 167.272ZM922.845 168.878V181H920.337V168.878H922.845ZM931.395 181.198C930.251 181.198 929.217 180.941 928.293 180.428C927.369 179.9 926.643 179.167 926.115 178.228C925.587 177.275 925.323 176.175 925.323 174.928C925.323 173.696 925.595 172.603 926.137 171.65C926.68 170.697 927.421 169.963 928.359 169.45C929.298 168.937 930.347 168.68 931.505 168.68C932.664 168.68 933.713 168.937 934.651 169.45C935.59 169.963 936.331 170.697 936.873 171.65C937.416 172.603 937.687 173.696 937.687 174.928C937.687 176.16 937.409 177.253 936.851 178.206C936.294 179.159 935.531 179.9 934.563 180.428C933.61 180.941 932.554 181.198 931.395 181.198ZM931.395 179.02C932.041 179.02 932.642 178.866 933.199 178.558C933.771 178.25 934.233 177.788 934.585 177.172C934.937 176.556 935.113 175.808 935.113 174.928C935.113 174.048 934.945 173.307 934.607 172.706C934.27 172.09 933.823 171.628 933.265 171.32C932.708 171.012 932.107 170.858 931.461 170.858C930.816 170.858 930.215 171.012 929.657 171.32C929.115 171.628 928.682 172.09 928.359 172.706C928.037 173.307 927.875 174.048 927.875 174.928C927.875 176.233 928.205 177.245 928.865 177.964C929.54 178.668 930.383 179.02 931.395 179.02ZM946.283 168.68C947.236 168.68 948.087 168.878 948.835 169.274C949.597 169.67 950.191 170.257 950.617 171.034C951.042 171.811 951.255 172.75 951.255 173.85V181H948.769V174.224C948.769 173.139 948.497 172.31 947.955 171.738C947.412 171.151 946.671 170.858 945.733 170.858C944.794 170.858 944.046 171.151 943.489 171.738C942.946 172.31 942.675 173.139 942.675 174.224V181H940.167V168.878H942.675V170.264C943.085 169.765 943.606 169.377 944.237 169.098C944.882 168.819 945.564 168.68 946.283 168.68Z" fill="#A37F4F"/>
<defs>
<filter id="filter0_d_873_24250" x="334" y="38" width="72" height="72" filterUnits="userSpaceOnUse" color-interpolation-filters="sRGB">
<feFlood flood-opacity="0" result="BackgroundImageFix"/>
<feColorMatrix in="SourceAlpha" type="matrix" values="0 0 0 0 0 0 0 0 0 0 0 0 0 0 0 0 0 0 127 0" result="hardAlpha"/>
<feOffset dy="4"/>
<feGaussianBlur stdDeviation="2"/>
<feComposite in2="hardAlpha" operator="out"/>
<feColorMatrix type="matrix" values="0 0 0 0 0 0 0 0 0 0 0 0 0 0 0 0 0 0 0.25 0"/>
<feBlend mode="normal" in2="BackgroundImageFix" result="effect1_dropShadow_873_24250"/>
<feBlend mode="normal" in="SourceGraphic" in2="effect1_dropShadow_873_24250" result="shape"/>
</filter>
<clipPath id="clip0_873_24250">
<rect width="50" height="50" fill="white" transform="translate(86 45)"/>
</clipPath>
</defs>
</svg>
