<svg width="63" height="71" viewBox="0 0 63 71" fill="none" xmlns="http://www.w3.org/2000/svg">
<path d="M54.4124 38.0887V33.3536C54.4124 32.2698 53.4423 31.4434 52.3722 31.6157C51.5191 31.7531 50.8918 32.4894 50.8918 33.3536V39.1446C50.8919 39.7891 51.1473 40.4071 51.6018 40.8628L58.162 47.4413V51.2955H4.84684V47.4413L11.407 40.8628C11.8615 40.4071 12.117 39.7891 12.1171 39.1446V29.4239C12.1103 26.009 13.0024 22.6528 14.7031 19.6942C16.4038 16.7357 18.853 14.2796 21.8032 12.574C24.7535 10.8684 28.1003 9.97378 31.5057 9.98044C33.5869 9.9845 35.6449 10.3251 37.6027 10.9813C39.2649 11.5385 41.1981 10.4103 41.1981 8.65719C41.1981 7.75923 40.6724 6.93625 39.8308 6.62313C37.931 5.91631 35.9476 5.45308 33.9278 5.24601V0.2617H29.081V5.24357C23.1063 5.85339 17.5692 8.66312 13.5405 13.1295C9.51186 17.5958 7.27777 23.4015 7.27026 29.4239V38.1385L0.710065 44.717C0.255554 45.1727 0.000140905 45.7907 3.64864e-06 46.4352V53.7257C3.64864e-06 54.3702 0.255327 54.9884 0.709806 55.4441C1.16428 55.8999 1.78069 56.1559 2.42342 56.1559H19.3873V58.5861C19.3873 61.8087 20.664 64.8993 22.9364 67.1781C25.2087 69.4568 28.2908 70.737 31.5044 70.737C34.7181 70.737 37.8001 69.4568 40.0725 67.1781C42.3449 64.8993 43.6215 61.8087 43.6215 58.5861V56.1559H60.5854C61.2282 56.1559 61.8446 55.8999 62.299 55.4441C62.7535 54.9884 63.0089 54.3702 63.0089 53.7257V46.4352C63.0087 45.7907 62.7533 45.1727 62.2988 44.717L54.4124 38.0887ZM38.7747 58.5861C38.7747 60.5197 38.0087 62.374 36.6453 63.7413C35.2818 65.1085 33.4326 65.8766 31.5044 65.8766C29.5762 65.8766 27.727 65.1085 26.3636 63.7413C25.0001 62.374 24.2342 60.5197 24.2342 58.5861V56.1559H38.7747V58.5861Z" fill="#018191"/>
<path d="M7.22011 38.017V34.116C7.22011 32.7868 8.29763 31.7093 9.62682 31.7093C10.956 31.7093 12.0335 32.7868 12.0335 34.116V39.0268C12.0334 39.6737 11.7797 40.294 11.3284 40.7514L4.81341 47.3542V51.2227H57.7609V47.3542L51.2459 40.7514C50.7946 40.294 50.5409 39.6737 50.5408 39.0268V29.2701C50.5475 25.8426 49.6616 22.4739 47.9726 19.5044C46.2836 16.5349 43.8513 14.0698 40.9214 12.3579C37.9915 10.646 34.6678 9.74803 31.2858 9.75471C29.2341 9.75876 27.2051 10.0957 25.2737 10.7449C23.6059 11.3055 21.6603 10.1756 21.6603 8.41612C21.6603 7.52056 22.1827 6.69904 23.021 6.38394C24.9069 5.67508 26.8756 5.2105 28.8804 5.00275V0H33.6939V5.00032C39.6274 5.61238 45.1263 8.43252 49.1272 12.9154C53.128 17.3983 55.3467 23.2255 55.3542 29.2701V38.017L61.8691 44.6199C62.3205 45.0772 62.5742 45.6975 62.5743 46.3444V53.6619C62.5743 54.3088 62.3207 54.9292 61.8694 55.3867C61.4181 55.8441 60.8059 56.1011 60.1676 56.1011H43.3207V58.5403C43.3207 61.7748 42.0529 64.8769 39.7961 67.1641C37.5394 69.4512 34.4786 70.7362 31.2872 70.7362C28.0957 70.7362 25.0349 69.4512 22.7782 67.1641C20.5214 64.8769 19.2536 61.7748 19.2536 58.5403V56.1011H2.4067C1.76841 56.1011 1.15625 55.8441 0.704905 55.3867C0.253561 54.9292 0 54.3088 0 53.6619V46.3444C0.000136309 45.6975 0.253787 45.0772 0.705162 44.6199L7.22011 38.017ZM24.067 58.5403C24.067 60.481 24.8277 62.3422 26.1818 63.7146C27.5358 65.0869 29.3723 65.8578 31.2872 65.8578C33.202 65.8578 35.0385 65.0869 36.3925 63.7146C37.7466 62.3422 38.5073 60.481 38.5073 58.5403V56.1011H24.067V58.5403Z" fill="#018191"/>
<path d="M32.3701 38.4402C31.7689 38.4471 31.2921 38.2626 30.9397 37.8869C30.619 37.5108 30.423 36.9751 30.3518 36.2796L28.7212 18.1649C28.613 16.9952 28.8555 16.0589 29.4487 15.3559C30.0417 14.6213 30.9235 14.2473 32.0942 14.2339C33.2334 14.221 34.0919 14.5751 34.6697 15.2964C35.2788 15.9857 35.5426 16.9162 35.461 18.0881L34.2438 36.2353C34.2201 36.9318 34.0364 37.4719 33.6926 37.8555C33.3805 38.2388 32.9397 38.4337 32.3701 38.4402ZM32.4827 48.3126C31.4068 48.3249 30.5329 48.0025 29.8608 47.3456C29.2204 46.6884 28.8942 45.8376 28.8823 44.7934C28.8708 43.7809 29.1778 42.9546 29.8035 42.3145C30.4604 41.6425 31.3268 41.3003 32.4026 41.288C33.5101 41.2754 34.3682 41.5979 34.977 42.2556C35.617 42.8812 35.9428 43.7003 35.9544 44.7128C35.9663 45.757 35.6596 46.615 35.0343 47.2867C34.4407 47.958 33.5901 48.3 32.4827 48.3126Z" fill="#018191"/>
</svg>
