<svg width="75" height="74" viewBox="0 0 75 74" fill="none" xmlns="http://www.w3.org/2000/svg">
<path d="M74.0437 37.0001C74.0437 44.318 71.8737 51.4715 67.808 57.5561C63.7424 63.6408 57.9638 68.3832 51.203 71.1836C44.4421 73.984 37.0026 74.7168 29.8253 73.2891C22.648 71.8614 16.0553 68.3375 10.8807 63.163C5.70619 57.9885 2.18228 51.3957 0.754632 44.2184C-0.673021 37.0411 0.0597021 29.6016 2.86014 22.8408C5.66059 16.0799 10.403 10.3013 16.4876 6.23568C22.5722 2.17007 29.7258 6.10352e-05 37.0437 6.10352e-05V36.9312L74.0437 37.0001Z" fill="#455A79"/>
<path d="M37.0437 72.0001C56.3736 72.0001 72.0437 56.33 72.0437 37.0001C72.0437 17.6701 56.3736 2.00006 37.0437 2.00006C17.7137 2.00006 2.04367 17.6701 2.04367 37.0001C2.04367 56.33 17.7137 72.0001 37.0437 72.0001Z" fill="white"/>
<g style="mix-blend-mode:multiply">
<path d="M48.7595 62.1975C62.3872 56.6639 68.8587 41.348 63.2139 27.9886C57.5691 14.6292 41.9456 8.28517 28.3178 13.8188C14.6901 19.3525 8.2186 34.6683 13.8634 48.0277C19.5082 61.3871 35.1317 67.7312 48.7595 62.1975Z" fill="#455A79"/>
</g>
<path d="M30.1843 30.9879H47.3141M29.4121 21.4834V24.5841M29.4121 24.5841L47.3985 24.5838M29.4121 24.5841C26.432 24.5841 24.0163 27.0416 24.0165 30.0733L24.0173 48.3706C24.0174 51.4022 26.4332 53.8596 29.4132 53.8596H47.3995C50.3797 53.8596 52.7956 51.4018 52.7954 48.3701L52.7946 30.0728C52.7945 27.0412 50.3784 24.5838 47.3985 24.5838M47.3985 21.4833V24.5838M34.8094 47.4555V36.477L31.2121 39.2216M44.7018 47.4555V36.477L41.1046 39.2216" stroke="#F1F1F1" stroke-width="2.2081" stroke-linecap="round" stroke-linejoin="round"/>
</svg>
