<svg width="405" height="375" viewBox="0 0 405 375" fill="none" xmlns="http://www.w3.org/2000/svg">
<ellipse cx="202.5" cy="362.858" rx="202.5" ry="11.4457" fill="#69D5DD"/>
<path d="M287.374 1H116.992C111.702 1 107.413 5.28873 107.413 10.5791V345.655C107.413 350.945 111.702 355.234 116.992 355.234H287.374C292.664 355.234 296.953 350.945 296.953 345.655V10.5791C296.953 5.28873 292.664 1 287.374 1Z" fill="#262525" stroke="#262525" stroke-width="0.880435" stroke-linecap="round" stroke-linejoin="round"/>
<path d="M281.176 17.1465H239.813C238.422 17.1465 237.083 17.71 236.115 18.7313L235.322 19.5589C234.336 20.5978 232.963 21.1789 231.537 21.1789H172.776C171.35 21.1789 169.977 20.5978 168.991 19.5589L168.198 18.7313C167.23 17.7276 165.891 17.1465 164.5 17.1465H123.138C118.207 17.1465 114.192 21.1436 114.192 26.0917V338.805C114.192 343.735 118.189 347.75 123.138 347.75H281.14C286.071 347.75 290.086 343.753 290.086 338.805V26.0917C290.086 21.1612 286.088 17.1465 281.14 17.1465H281.176Z" fill="white" stroke="#262525" stroke-width="0.880435" stroke-linecap="round" stroke-linejoin="round"/>
<path d="M229.777 17.1473H174.591C173.834 17.1473 173.217 16.531 173.217 15.7739C173.217 15.0167 173.834 14.4004 174.591 14.4004H229.777C230.534 14.4004 231.15 15.0167 231.15 15.7739C231.15 16.531 230.534 17.1473 229.777 17.1473Z" fill="white"/>
<path d="M264.966 79.9062H138.835C130.489 79.9062 123.709 86.6856 123.709 95.0321V245.639C123.709 253.986 130.489 260.765 138.835 260.765H191.943L201.91 278.022L211.876 260.765H264.984C273.331 260.765 280.11 253.986 280.11 245.639V95.0321C280.11 86.6856 273.331 79.9062 264.984 79.9062H264.966Z" fill="#931602" stroke="#262525" stroke-width="0.880435" stroke-linecap="round" stroke-linejoin="round"/>
<path d="M222.182 179.822L232.236 189.875C233.588 191.227 233.588 193.419 232.236 194.771C224.927 202.08 213.355 202.902 205.086 196.7L199.105 192.215C192.485 187.25 186.605 181.37 181.641 174.751L177.155 168.77C170.953 160.5 171.775 148.929 179.084 141.62C180.436 140.268 182.628 140.268 183.98 141.62L194.034 151.673C195.516 153.156 195.516 155.56 194.034 157.042L190.157 160.919C189.541 161.535 189.388 162.477 189.778 163.256C194.283 172.266 201.589 179.572 210.599 184.078C211.379 184.467 212.32 184.315 212.936 183.698L216.813 179.822C218.296 178.339 220.699 178.339 222.182 179.822Z" stroke="white" stroke-width="7.59303"/>
</svg>
