<svg width="34" height="42" viewBox="0 0 34 42" fill="none" xmlns="http://www.w3.org/2000/svg">
<ellipse cx="16.3676" cy="20.9449" rx="13.9765" ry="13.0909" fill="#003E71"/>
<path d="M16.6765 0L0 7.63636V19.0909C0 29.6864 7.11529 39.5945 16.6765 42C26.2376 39.5945 33.3529 29.6864 33.3529 19.0909V7.63636L16.6765 0ZM12.9706 30.5455L5.55882 22.9091L8.17147 20.2173L12.9706 25.1427L25.1815 12.5618L27.7941 15.2727L12.9706 30.5455Z" fill="#003E71"/>
<path fill-rule="evenodd" clip-rule="evenodd" d="M16.6192 9L16.9905 9.17381L27.4852 14.0863C27.932 14.2955 28.1247 14.8272 27.9155 15.2739C27.7064 15.7207 27.1747 15.9134 26.7279 15.7042L16.6045 10.9655L6.25992 15.6203C5.81007 15.8227 5.2813 15.6221 5.07888 15.1723C4.87646 14.7224 5.07704 14.1937 5.52689 13.9912L16.2453 9.16823L16.6192 9ZM16.6187 12.5737L16.9883 12.7453L23.2406 15.6482C23.688 15.8559 23.8823 16.387 23.6746 16.8344C23.4669 17.2819 22.9358 17.4762 22.4883 17.2684L16.6057 14.5372L10.5019 17.2733C10.0518 17.4751 9.5233 17.2738 9.32152 16.8237C9.11973 16.3735 9.32106 15.845 9.7712 15.6433L16.2468 12.7404L16.6187 12.5737ZM16.7174 22.8714L26.2137 19.1125V27.1768H17.2818V25.3904C17.2818 24.8971 16.8819 24.4972 16.3886 24.4972C15.8953 24.4972 15.4954 24.8971 15.4954 25.3904V28.07V28.9631H16.3886H27.1069H28V28.07V18.1269C28 17.3387 27.2055 16.7987 26.4726 17.0887L16.3921 21.079L6.53543 17.0943C5.80151 16.7976 5.0005 17.3378 5.0005 18.1294V28.07C5.0005 28.5633 5.40039 28.9631 5.89369 28.9631C6.38698 28.9631 6.78687 28.5633 6.78687 28.07V19.1228L16.0539 22.869L16.3851 23.003L16.7174 22.8714Z" fill="url(#paint0_linear_47_40)"/>
<path fill-rule="evenodd" clip-rule="evenodd" d="M16.6192 9L16.9905 9.17381L27.4852 14.0863C27.932 14.2955 28.1247 14.8272 27.9155 15.2739C27.7064 15.7207 27.1747 15.9134 26.7279 15.7042L16.6045 10.9655L6.25992 15.6203C5.81007 15.8227 5.2813 15.6221 5.07888 15.1723C4.87646 14.7224 5.07704 14.1937 5.52689 13.9912L16.2453 9.16823L16.6192 9ZM16.6187 12.5737L16.9883 12.7453L23.2406 15.6482C23.688 15.8559 23.8823 16.387 23.6746 16.8344C23.4669 17.2819 22.9358 17.4762 22.4883 17.2684L16.6057 14.5372L10.5019 17.2733C10.0518 17.4751 9.5233 17.2738 9.32152 16.8237C9.11973 16.3735 9.32106 15.845 9.7712 15.6433L16.2468 12.7404L16.6187 12.5737ZM16.7174 22.8714L26.2137 19.1125V27.1768H17.2818V25.3904C17.2818 24.8971 16.8819 24.4972 16.3886 24.4972C15.8953 24.4972 15.4954 24.8971 15.4954 25.3904V28.07V28.9631H16.3886H27.1069H28V28.07V18.1269C28 17.3387 27.2055 16.7987 26.4726 17.0887L16.3921 21.079L6.53543 17.0943C5.80151 16.7976 5.0005 17.3378 5.0005 18.1294V28.07C5.0005 28.5633 5.40039 28.9631 5.89369 28.9631C6.38698 28.9631 6.78687 28.5633 6.78687 28.07V19.1228L16.0539 22.869L16.3851 23.003L16.7174 22.8714Z" fill="#F1F1F1"/>
<path d="M16.9905 9.17381L17.0852 8.97157L17.0852 8.97157L16.9905 9.17381ZM16.6192 9L16.7139 8.79776L16.6211 8.75431L16.5276 8.79637L16.6192 9ZM27.4852 14.0863L27.3906 14.2886L27.3906 14.2886L27.4852 14.0863ZM27.9155 15.2739L28.1178 15.3686L28.1178 15.3686L27.9155 15.2739ZM26.7279 15.7042L26.6333 15.9065L26.6333 15.9065L26.7279 15.7042ZM16.6045 10.9655L16.6992 10.7633L16.6063 10.7198L16.5129 10.7619L16.6045 10.9655ZM6.25992 15.6203L6.35155 15.8239L6.35155 15.8239L6.25992 15.6203ZM5.07888 15.1723L5.28251 15.0807L5.28251 15.0807L5.07888 15.1723ZM5.52689 13.9912L5.61852 14.1949L5.61852 14.1949L5.52689 13.9912ZM16.2453 9.16823L16.1537 8.9646L16.1537 8.9646L16.2453 9.16823ZM16.9883 12.7453L16.8943 12.9479L16.8943 12.9479L16.9883 12.7453ZM16.6187 12.5737L16.7127 12.3712L16.6203 12.3283L16.5273 12.3699L16.6187 12.5737ZM23.2406 15.6482L23.1466 15.8507L23.1466 15.8507L23.2406 15.6482ZM22.4883 17.2684L22.3943 17.471L22.3943 17.471L22.4883 17.2684ZM16.6057 14.5372L16.6997 14.3347L16.6073 14.2918L16.5143 14.3334L16.6057 14.5372ZM10.5019 17.2733L10.5933 17.4771L10.5933 17.4771L10.5019 17.2733ZM9.32152 16.8237L9.52528 16.7323L9.52528 16.7323L9.32152 16.8237ZM9.7712 15.6433L9.86254 15.847L9.86254 15.847L9.7712 15.6433ZM16.2468 12.7404L16.1555 12.5366L16.1555 12.5366L16.2468 12.7404ZM26.2137 19.1125H26.437V18.7839L26.1315 18.9049L26.2137 19.1125ZM16.7174 22.8714L16.6352 22.6638L16.6352 22.6638L16.7174 22.8714ZM26.2137 27.1768V27.4001H26.437V27.1768H26.2137ZM17.2818 27.1768H17.0585V27.4001H17.2818V27.1768ZM15.4954 28.9631H15.2721V29.1864H15.4954V28.9631ZM28 28.9631V29.1864H28.2233V28.9631H28ZM26.4726 17.0887L26.5548 17.2964L26.5548 17.2964L26.4726 17.0887ZM16.3921 21.079L16.3084 21.286L16.3912 21.3195L16.4743 21.2866L16.3921 21.079ZM6.53543 17.0943L6.45174 17.3014L6.45174 17.3014L6.53543 17.0943ZM6.78687 19.1228L6.87056 18.9158L6.56358 18.7917V19.1228H6.78687ZM16.0539 22.869L15.9702 23.0761L15.9702 23.0761L16.0539 22.869ZM16.3851 23.003L16.3014 23.21L16.3843 23.2435L16.4673 23.2106L16.3851 23.003ZM17.0852 8.97157L16.7139 8.79776L16.5246 9.20224L16.8959 9.37604L17.0852 8.97157ZM27.5799 13.8841L17.0852 8.97157L16.8959 9.37604L27.3906 14.2886L27.5799 13.8841ZM28.1178 15.3686C28.3792 14.8101 28.1384 14.1455 27.5799 13.8841L27.3906 14.2886C27.7257 14.4454 27.8701 14.8442 27.7133 15.1793L28.1178 15.3686ZM26.6333 15.9065C27.1917 16.1679 27.8564 15.9271 28.1178 15.3686L27.7133 15.1793C27.5564 15.5144 27.1577 15.6588 26.8226 15.502L26.6333 15.9065ZM16.5098 11.1677L26.6333 15.9065L26.8226 15.502L16.6992 10.7633L16.5098 11.1677ZM6.35155 15.8239L16.6961 11.1691L16.5129 10.7619L6.16829 15.4167L6.35155 15.8239ZM4.87525 15.2639C5.12828 15.8262 5.78924 16.0769 6.35155 15.8239L6.16829 15.4167C5.83091 15.5685 5.43433 15.418 5.28251 15.0807L4.87525 15.2639ZM5.43527 13.7876C4.87295 14.0406 4.62223 14.7016 4.87525 15.2639L5.28251 15.0807C5.1307 14.7433 5.28113 14.3467 5.61852 14.1949L5.43527 13.7876ZM16.1537 8.9646L5.43526 13.7876L5.61852 14.1949L16.337 9.37186L16.1537 8.9646ZM16.5276 8.79637L16.1537 8.9646L16.337 9.37186L16.7108 9.20363L16.5276 8.79637ZM17.0823 12.5428L16.7127 12.3712L16.5246 12.7762L16.8943 12.9479L17.0823 12.5428ZM23.3346 15.4456L17.0823 12.5428L16.8943 12.9479L23.1466 15.8507L23.3346 15.4456ZM23.8771 16.9285C24.1368 16.3692 23.8939 15.7053 23.3346 15.4456L23.1466 15.8507C23.4821 16.0065 23.6279 16.4048 23.4721 16.7404L23.8771 16.9285ZM22.3943 17.471C22.9536 17.7306 23.6175 17.4877 23.8771 16.9285L23.4721 16.7404C23.3163 17.076 22.9179 17.2217 22.5824 17.0659L22.3943 17.471ZM16.5116 14.7397L22.3943 17.471L22.5824 17.0659L16.6997 14.3347L16.5116 14.7397ZM10.5933 17.4771L16.697 14.7409L16.5143 14.3334L10.4106 17.0696L10.5933 17.4771ZM9.11776 16.915C9.36999 17.4777 10.0306 17.7293 10.5933 17.4771L10.4106 17.0696C10.073 17.2209 9.67662 17.0699 9.52528 16.7323L9.11776 16.915ZM9.67986 15.4395C9.11719 15.6917 8.86553 16.3523 9.11776 16.915L9.52528 16.7323C9.37394 16.3947 9.52494 15.9984 9.86254 15.847L9.67986 15.4395ZM16.1555 12.5366L9.67985 15.4395L9.86254 15.847L16.3381 12.9442L16.1555 12.5366ZM16.5273 12.3699L16.1555 12.5366L16.3381 12.9442L16.71 12.7775L16.5273 12.3699ZM26.1315 18.9049L16.6352 22.6638L16.7995 23.0791L26.2959 19.3201L26.1315 18.9049ZM26.437 27.1768V19.1125H25.9904V27.1768H26.437ZM17.2818 27.4001H26.2137V26.9535H17.2818V27.4001ZM17.0585 25.3904V27.1768H17.5051V25.3904H17.0585ZM16.3886 24.7205C16.7586 24.7205 17.0585 25.0204 17.0585 25.3904H17.5051C17.5051 24.7738 17.0052 24.2739 16.3886 24.2739V24.7205ZM15.7187 25.3904C15.7187 25.0204 16.0187 24.7205 16.3886 24.7205V24.2739C15.772 24.2739 15.2721 24.7738 15.2721 25.3904H15.7187ZM15.7187 28.07V25.3904H15.2721V28.07H15.7187ZM15.7187 28.9631V28.07H15.2721V28.9631H15.7187ZM16.3886 28.7399H15.4954V29.1864H16.3886V28.7399ZM27.1069 28.7399H16.3886V29.1864H27.1069V28.7399ZM28 28.7399H27.1069V29.1864H28V28.7399ZM27.7768 28.07V28.9631H28.2233V28.07H27.7768ZM27.7768 18.1269V28.07H28.2233V18.1269H27.7768ZM26.5548 17.2964C27.1411 17.0643 27.7768 17.4963 27.7768 18.1269H28.2233C28.2233 17.1811 27.2699 16.533 26.3905 16.8811L26.5548 17.2964ZM16.4743 21.2866L26.5548 17.2964L26.3905 16.8811L16.3099 20.8713L16.4743 21.2866ZM6.45174 17.3014L16.3084 21.286L16.4758 20.8719L6.61912 16.8873L6.45174 17.3014ZM5.2238 18.1294C5.2238 17.4961 5.8646 17.064 6.45174 17.3014L6.61912 16.8873C5.73841 16.5313 4.7772 17.1795 4.7772 18.1294H5.2238ZM5.2238 28.07V18.1294H4.7772V28.07H5.2238ZM5.89369 28.7399C5.52372 28.7399 5.2238 28.4399 5.2238 28.07H4.7772C4.7772 28.6866 5.27707 29.1864 5.89369 29.1864V28.7399ZM6.56358 28.07C6.56358 28.4399 6.26366 28.7399 5.89369 28.7399V29.1864C6.5103 29.1864 7.01017 28.6866 7.01017 28.07H6.56358ZM6.56358 19.1228V28.07H7.01017V19.1228H6.56358ZM16.1376 22.662L6.87056 18.9158L6.70318 19.3298L15.9702 23.0761L16.1376 22.662ZM16.4688 22.7959L16.1376 22.662L15.9702 23.0761L16.3014 23.21L16.4688 22.7959ZM16.6352 22.6638L16.303 22.7953L16.4673 23.2106L16.7995 23.0791L16.6352 22.6638Z" fill="url(#paint1_linear_47_40)"/>
<path d="M16.9905 9.17381L17.0852 8.97157L17.0852 8.97157L16.9905 9.17381ZM16.6192 9L16.7139 8.79776L16.6211 8.75431L16.5276 8.79637L16.6192 9ZM27.4852 14.0863L27.3906 14.2886L27.3906 14.2886L27.4852 14.0863ZM27.9155 15.2739L28.1178 15.3686L28.1178 15.3686L27.9155 15.2739ZM26.7279 15.7042L26.6333 15.9065L26.6333 15.9065L26.7279 15.7042ZM16.6045 10.9655L16.6992 10.7633L16.6063 10.7198L16.5129 10.7619L16.6045 10.9655ZM6.25992 15.6203L6.35155 15.8239L6.35155 15.8239L6.25992 15.6203ZM5.07888 15.1723L5.28251 15.0807L5.28251 15.0807L5.07888 15.1723ZM5.52689 13.9912L5.61852 14.1949L5.61852 14.1949L5.52689 13.9912ZM16.2453 9.16823L16.1537 8.9646L16.1537 8.9646L16.2453 9.16823ZM16.9883 12.7453L16.8943 12.9479L16.8943 12.9479L16.9883 12.7453ZM16.6187 12.5737L16.7127 12.3712L16.6203 12.3283L16.5273 12.3699L16.6187 12.5737ZM23.2406 15.6482L23.1466 15.8507L23.1466 15.8507L23.2406 15.6482ZM22.4883 17.2684L22.3943 17.471L22.3943 17.471L22.4883 17.2684ZM16.6057 14.5372L16.6997 14.3347L16.6073 14.2918L16.5143 14.3334L16.6057 14.5372ZM10.5019 17.2733L10.5933 17.4771L10.5933 17.4771L10.5019 17.2733ZM9.32152 16.8237L9.52528 16.7323L9.52528 16.7323L9.32152 16.8237ZM9.7712 15.6433L9.86254 15.847L9.86254 15.847L9.7712 15.6433ZM16.2468 12.7404L16.1555 12.5366L16.1555 12.5366L16.2468 12.7404ZM26.2137 19.1125H26.437V18.7839L26.1315 18.9049L26.2137 19.1125ZM16.7174 22.8714L16.6352 22.6638L16.6352 22.6638L16.7174 22.8714ZM26.2137 27.1768V27.4001H26.437V27.1768H26.2137ZM17.2818 27.1768H17.0585V27.4001H17.2818V27.1768ZM15.4954 28.9631H15.2721V29.1864H15.4954V28.9631ZM28 28.9631V29.1864H28.2233V28.9631H28ZM26.4726 17.0887L26.5548 17.2964L26.5548 17.2964L26.4726 17.0887ZM16.3921 21.079L16.3084 21.286L16.3912 21.3195L16.4743 21.2866L16.3921 21.079ZM6.53543 17.0943L6.45174 17.3014L6.45174 17.3014L6.53543 17.0943ZM6.78687 19.1228L6.87056 18.9158L6.56358 18.7917V19.1228H6.78687ZM16.0539 22.869L15.9702 23.0761L15.9702 23.0761L16.0539 22.869ZM16.3851 23.003L16.3014 23.21L16.3843 23.2435L16.4673 23.2106L16.3851 23.003ZM17.0852 8.97157L16.7139 8.79776L16.5246 9.20224L16.8959 9.37604L17.0852 8.97157ZM27.5799 13.8841L17.0852 8.97157L16.8959 9.37604L27.3906 14.2886L27.5799 13.8841ZM28.1178 15.3686C28.3792 14.8101 28.1384 14.1455 27.5799 13.8841L27.3906 14.2886C27.7257 14.4454 27.8701 14.8442 27.7133 15.1793L28.1178 15.3686ZM26.6333 15.9065C27.1917 16.1679 27.8564 15.9271 28.1178 15.3686L27.7133 15.1793C27.5564 15.5144 27.1577 15.6588 26.8226 15.502L26.6333 15.9065ZM16.5098 11.1677L26.6333 15.9065L26.8226 15.502L16.6992 10.7633L16.5098 11.1677ZM6.35155 15.8239L16.6961 11.1691L16.5129 10.7619L6.16829 15.4167L6.35155 15.8239ZM4.87525 15.2639C5.12828 15.8262 5.78924 16.0769 6.35155 15.8239L6.16829 15.4167C5.83091 15.5685 5.43433 15.418 5.28251 15.0807L4.87525 15.2639ZM5.43527 13.7876C4.87295 14.0406 4.62223 14.7016 4.87525 15.2639L5.28251 15.0807C5.1307 14.7433 5.28113 14.3467 5.61852 14.1949L5.43527 13.7876ZM16.1537 8.9646L5.43526 13.7876L5.61852 14.1949L16.337 9.37186L16.1537 8.9646ZM16.5276 8.79637L16.1537 8.9646L16.337 9.37186L16.7108 9.20363L16.5276 8.79637ZM17.0823 12.5428L16.7127 12.3712L16.5246 12.7762L16.8943 12.9479L17.0823 12.5428ZM23.3346 15.4456L17.0823 12.5428L16.8943 12.9479L23.1466 15.8507L23.3346 15.4456ZM23.8771 16.9285C24.1368 16.3692 23.8939 15.7053 23.3346 15.4456L23.1466 15.8507C23.4821 16.0065 23.6279 16.4048 23.4721 16.7404L23.8771 16.9285ZM22.3943 17.471C22.9536 17.7306 23.6175 17.4877 23.8771 16.9285L23.4721 16.7404C23.3163 17.076 22.9179 17.2217 22.5824 17.0659L22.3943 17.471ZM16.5116 14.7397L22.3943 17.471L22.5824 17.0659L16.6997 14.3347L16.5116 14.7397ZM10.5933 17.4771L16.697 14.7409L16.5143 14.3334L10.4106 17.0696L10.5933 17.4771ZM9.11776 16.915C9.36999 17.4777 10.0306 17.7293 10.5933 17.4771L10.4106 17.0696C10.073 17.2209 9.67662 17.0699 9.52528 16.7323L9.11776 16.915ZM9.67986 15.4395C9.11719 15.6917 8.86553 16.3523 9.11776 16.915L9.52528 16.7323C9.37394 16.3947 9.52494 15.9984 9.86254 15.847L9.67986 15.4395ZM16.1555 12.5366L9.67985 15.4395L9.86254 15.847L16.3381 12.9442L16.1555 12.5366ZM16.5273 12.3699L16.1555 12.5366L16.3381 12.9442L16.71 12.7775L16.5273 12.3699ZM26.1315 18.9049L16.6352 22.6638L16.7995 23.0791L26.2959 19.3201L26.1315 18.9049ZM26.437 27.1768V19.1125H25.9904V27.1768H26.437ZM17.2818 27.4001H26.2137V26.9535H17.2818V27.4001ZM17.0585 25.3904V27.1768H17.5051V25.3904H17.0585ZM16.3886 24.7205C16.7586 24.7205 17.0585 25.0204 17.0585 25.3904H17.5051C17.5051 24.7738 17.0052 24.2739 16.3886 24.2739V24.7205ZM15.7187 25.3904C15.7187 25.0204 16.0187 24.7205 16.3886 24.7205V24.2739C15.772 24.2739 15.2721 24.7738 15.2721 25.3904H15.7187ZM15.7187 28.07V25.3904H15.2721V28.07H15.7187ZM15.7187 28.9631V28.07H15.2721V28.9631H15.7187ZM16.3886 28.7399H15.4954V29.1864H16.3886V28.7399ZM27.1069 28.7399H16.3886V29.1864H27.1069V28.7399ZM28 28.7399H27.1069V29.1864H28V28.7399ZM27.7768 28.07V28.9631H28.2233V28.07H27.7768ZM27.7768 18.1269V28.07H28.2233V18.1269H27.7768ZM26.5548 17.2964C27.1411 17.0643 27.7768 17.4963 27.7768 18.1269H28.2233C28.2233 17.1811 27.2699 16.533 26.3905 16.8811L26.5548 17.2964ZM16.4743 21.2866L26.5548 17.2964L26.3905 16.8811L16.3099 20.8713L16.4743 21.2866ZM6.45174 17.3014L16.3084 21.286L16.4758 20.8719L6.61912 16.8873L6.45174 17.3014ZM5.2238 18.1294C5.2238 17.4961 5.8646 17.064 6.45174 17.3014L6.61912 16.8873C5.73841 16.5313 4.7772 17.1795 4.7772 18.1294H5.2238ZM5.2238 28.07V18.1294H4.7772V28.07H5.2238ZM5.89369 28.7399C5.52372 28.7399 5.2238 28.4399 5.2238 28.07H4.7772C4.7772 28.6866 5.27707 29.1864 5.89369 29.1864V28.7399ZM6.56358 28.07C6.56358 28.4399 6.26366 28.7399 5.89369 28.7399V29.1864C6.5103 29.1864 7.01017 28.6866 7.01017 28.07H6.56358ZM6.56358 19.1228V28.07H7.01017V19.1228H6.56358ZM16.1376 22.662L6.87056 18.9158L6.70318 19.3298L15.9702 23.0761L16.1376 22.662ZM16.4688 22.7959L16.1376 22.662L15.9702 23.0761L16.3014 23.21L16.4688 22.7959ZM16.6352 22.6638L16.303 22.7953L16.4673 23.2106L16.7995 23.0791L16.6352 22.6638Z" fill="#F1F1F1"/>
<defs>
<linearGradient id="paint0_linear_47_40" x1="5.87641" y1="14.2253" x2="28.0292" y2="28.3504" gradientUnits="userSpaceOnUse">
<stop stop-color="#00FBAA"/>
<stop offset="1" stop-color="#2A58D9"/>
</linearGradient>
<linearGradient id="paint1_linear_47_40" x1="5.86251" y1="11.4252" x2="16.1864" y2="32.1506" gradientUnits="userSpaceOnUse">
<stop stop-color="#00FBAA"/>
<stop offset="1" stop-color="#0D4DFF"/>
</linearGradient>
</defs>
</svg>
