<svg width="75" height="74" viewBox="0 0 75 74" fill="none" xmlns="http://www.w3.org/2000/svg">
<path d="M36.8228 0.221534V36.8967V37.1172L37.0433 37.1175L73.8224 37.1746C73.7883 44.3741 71.6418 51.407 67.6466 57.4002C63.6108 63.4545 57.8698 68.1757 51.1501 70.9665C44.4304 73.7572 37.0339 74.4921 29.8964 73.0781C22.7589 71.6641 16.2013 68.1648 11.053 63.023C5.9048 57.8812 2.39738 51.3278 0.974546 44.1921C-0.448291 37.0564 0.277391 29.659 3.05977 22.9358C5.84216 16.2127 10.5562 10.4658 16.6055 6.42246C22.5936 2.42001 29.6236 0.264744 36.8228 0.221534Z" fill="#0168A2" stroke="#0168A2" stroke-width="0.441621"/>
<path d="M37.5465 71.9697C56.8765 71.9697 72.448 56.3 72.3264 36.9704C72.2048 17.6409 56.4361 1.97113 37.1062 1.97113C17.7762 1.97113 2.20475 17.6409 2.32636 36.9704C2.44797 56.3 18.2166 71.9697 37.5465 71.9697Z" fill="white"/>
<g style="mix-blend-mode:multiply">
<path d="M65.2741 36.2504C65.2741 50.6371 53.4144 62.3061 38.7769 62.3061C24.1394 62.3061 12.2796 50.6371 12.2796 36.2504C12.2796 21.8638 24.1394 10.1948 38.7769 10.1948C53.4144 10.1948 65.2741 21.8638 65.2741 36.2504Z" fill="#0168A2"/>
<path d="M65.2741 36.2504C65.2741 50.6371 53.4144 62.3061 38.7769 62.3061C24.1394 62.3061 12.2796 50.6371 12.2796 36.2504C12.2796 21.8638 24.1394 10.1948 38.7769 10.1948C53.4144 10.1948 65.2741 21.8638 65.2741 36.2504Z" stroke="#0168A2" stroke-width="0.441621"/>
</g>
<path d="M56.0023 45.7673C56.0023 49.2322 53.1935 52.0409 49.7287 52.0409C46.2639 52.0409 43.4551 49.2322 43.4551 45.7673C43.4551 42.3025 46.2639 39.4937 49.7287 39.4937C50.713 39.4937 51.6444 39.7204 52.4734 40.1244M54.826 41.8463L49.3366 47.3357L47.7682 45.7673" stroke="#F1F1F1" stroke-width="1.65305" stroke-linecap="round" stroke-linejoin="round"/>
<path fill-rule="evenodd" clip-rule="evenodd" d="M28.2197 19.4732C24.5213 19.4732 21.5231 22.4713 21.5231 26.1697V44.8113C21.5231 48.5097 24.5213 51.5079 28.2197 51.5079H43.6447C43.0338 50.8607 42.525 50.1161 42.1441 49.2998H28.2197C25.7408 49.2998 23.7312 47.2902 23.7312 44.8113V26.1697C23.7312 23.6908 25.7408 21.6813 28.2197 21.6813H46.8613C49.3401 21.6813 51.3497 23.6908 51.3497 26.1697V37.5591C52.1301 37.7124 52.8716 37.9741 53.5578 38.3281V26.1697C53.5578 22.4713 50.5597 19.4732 46.8613 19.4732H28.2197ZM42.786 41.0993C42.3576 40.9769 41.9099 40.9114 41.4525 40.9114H41.4407H41.4289H41.4171H41.4052H41.3933H41.3813H41.3693H41.3572H41.3451H41.333H41.3208H41.3086H41.2964H41.2841H41.2717H41.2594H41.2469H41.2345H41.222H41.2095H41.1969H41.1843H41.1716H41.159H41.1462H41.1335H41.1207H41.1078H41.095H41.0821H41.0691H41.0561H41.0431H41.0301H41.017H41.0038H40.9907H40.9775H40.9642H40.9509H40.9376H40.9243H40.9109H40.8975H40.884H40.8706H40.857H40.8435H40.8299H40.8163H40.8026H40.7889H40.7752H40.7614H40.7477H40.7338H40.72H40.7061H40.6922H40.6782H40.6642H40.6502H40.6362H40.6221H40.608H40.5938H40.5797H40.5654H40.5512H40.5369H40.5226H40.5083H40.494H40.4796H40.4651H40.4507H40.4362H40.4217H40.4072H40.3926H40.378H40.3634H40.3487H40.3341H40.3194H40.3046H40.2899H40.2751H40.2602H40.2454H40.2305H40.2156H40.2007H40.1857H40.1707H40.1557H40.1407H40.1256H40.1106H40.0954H40.0803H40.0651H40.05H40.0347H40.0195H40.0042H39.9889H39.9736H39.9583H39.9429H39.9276H39.9121H39.8967H39.8813H39.8658H39.8503H39.8347H39.8192H39.8036H39.788H39.7724H39.7568H39.7411H39.7254H39.7097H39.694H39.6783H39.6625H39.6467H39.6309H39.6151H39.5992H39.5834H39.5675H39.5516H39.5356H39.5197H39.5037H39.4877H39.4717H39.4557H39.4396H39.4236H39.4075H39.3914H39.3753H39.3591H39.343H39.3268H39.3106H39.2944H39.2782H39.2619H39.2457H39.2294H39.2131H39.1968H39.1805H39.1641H39.1478H39.1314H39.115H39.0986H39.0822H39.0658H39.0493H39.0328H39.0164H38.9999H38.9834H38.9668H38.9503H38.9338H38.9172H38.9006H38.884H38.8674H38.8508H38.8342H38.8175H38.8009H38.7842H38.7676H38.7509H38.7342H38.7174H38.7007H38.684H38.6672H38.6505H38.6337H38.6169H38.6002H38.5834H38.5665H38.5497H38.5329H38.5161H38.4992H38.4824H38.4655H38.4486H38.4317H38.4148H38.3979H38.381H38.3641H38.3472H38.3302H38.3133H38.2964H38.2794H38.2624H38.2455H38.2285H38.2115H38.1945H38.1775H38.1605H38.1435H38.1265H38.1095H38.0925H38.0754H38.0584H38.0413H38.0243H38.0073H37.9902H37.9731H37.9561H37.939H37.9219H37.9049H37.8878H37.8707H37.8536H37.8365H37.8194H37.8023H37.7853H37.7682H37.7511H37.7339H37.7168H37.6997H37.6826H37.6655H37.6484H37.6313H37.6142H37.5971H37.58H37.5628H37.5457H37.5286H37.5115H37.4944H37.4773H37.4602H37.4431H37.4259H37.4088H37.3917H37.3746H37.3575H37.3404H37.3233H37.3062H37.2891H37.272H37.2549H37.2378H37.2207H37.2037H37.1866H37.1695H37.1524H37.1354H37.1183H37.1012H37.0842H37.0671H37.0501H37.033H37.016H36.999H36.9819H36.9649H36.9479H36.9309H36.9139H36.8969H36.8799H36.8629H36.8459H36.8289H36.812H36.795H36.7781H36.7611H36.7442H36.7272H36.7103H36.6934H36.6765H36.6596H36.6427H36.6258H36.6089H36.5921H36.5752H36.5584H36.5416H36.5247H36.5079H36.4911H36.4743H36.4575H36.4408H36.424H36.4072H36.3905H36.3738H36.357H36.3403H36.3236H36.3069H36.2903H36.2736H36.257H36.2403H36.2237H36.2071H36.1905H36.1739H36.1573H36.1408H36.1242H36.1077H36.0912H36.0747H36.0582H36.0417H36.0253H36.0088H35.9924H35.976H35.9596H35.9432H35.9268H35.9105H35.8942H35.8778H35.8615H35.8452H35.829H35.8127H35.7965H35.7803H35.7641H35.7479H35.7317H35.7156H35.6994H35.6833H35.6672H35.6511H35.6351H35.619H35.603H35.587H35.571H35.5551H35.5391H35.5232H35.5073H35.4914H35.4756H35.4597H35.4439H35.4281H35.4123H35.3965H35.3808H35.3651H35.3494H35.3337H35.3181H35.3024H35.2868H35.2712H35.2557H35.2401H35.2246H35.2091H35.1936H35.1782H35.1628H35.1474H35.132H35.1166H35.1013H35.086H35.0707H35.0555H35.0402H35.025H35.0099H34.9947H34.9796H34.9645H34.9494H34.9343H34.9193H34.9043H34.8893H34.8744H34.8595H34.8446H34.8297H34.8149H34.8001H34.7853H34.7705H34.7558H34.7411H34.7264H34.7118H34.6972H34.6826H34.668H34.6535H34.639H34.6245H34.6101H34.5957H34.5813H34.567H34.5526H34.5384H34.5241H34.5099H34.4957H34.4815H34.4674H34.4533H34.4392H34.4252H34.4112H34.3972H34.3832H34.3693H34.3555H34.3416H34.3278H34.314H34.3003H34.2866H34.2729H34.2592H34.2456H34.2321H34.2185H34.205H34.1915H34.1781H34.1647H34.1513H34.138H34.1247H34.1114H34.0982H34.085H34.0719H34.0587H34.0457H34.0326H34.0196H34.0066H33.9937H33.9808H33.9679H33.9551H33.9423H33.9296H33.9169H33.9042H33.8916H33.879H33.8664H33.8539H33.8414H33.829H33.8166H33.8042H33.7919H33.7796H33.7674H33.7552H33.743H33.7309H33.7188H33.7068H33.6948H33.6828H33.6709H33.659H33.6472H33.6354H33.6237H33.612C32.5429 40.9114 31.5058 41.2651 30.6602 41.9238C29.7656 42.6206 28.4155 43.6781 27.2205 44.6377C26.6235 45.117 26.0606 45.5757 25.611 45.9543C25.1881 46.3104 24.7965 46.6524 24.5999 46.8726L26.247 48.3433C26.3178 48.264 26.576 48.0284 27.0333 47.6433C27.4638 47.2808 28.0114 46.8345 28.603 46.3594C29.7853 45.41 31.1253 44.3605 32.0171 43.6658C32.4727 43.311 33.0316 43.1195 33.612 43.1195H33.6237H33.6354H33.6472H33.659H33.6709H33.6828H33.6948H33.7068H33.7188H33.7309H33.743H33.7552H33.7674H33.7796H33.7919H33.8042H33.8166H33.829H33.8414H33.8539H33.8664H33.879H33.8916H33.9042H33.9169H33.9296H33.9423H33.9551H33.9679H33.9808H33.9937H34.0066H34.0196H34.0326H34.0457H34.0587H34.0719H34.085H34.0982H34.1114H34.1247H34.138H34.1513H34.1647H34.1781H34.1915H34.205H34.2185H34.2321H34.2456H34.2592H34.2729H34.2866H34.3003H34.314H34.3278H34.3416H34.3555H34.3693H34.3832H34.3972H34.4112H34.4252H34.4392H34.4533H34.4674H34.4815H34.4957H34.5099H34.5241H34.5384H34.5526H34.567H34.5813H34.5957H34.6101H34.6245H34.639H34.6535H34.668H34.6826H34.6972H34.7118H34.7264H34.7411H34.7558H34.7705H34.7853H34.8001H34.8149H34.8297H34.8446H34.8595H34.8744H34.8893H34.9043H34.9193H34.9343H34.9494H34.9645H34.9796H34.9947H35.0099H35.025H35.0402H35.0555H35.0707H35.086H35.1013H35.1166H35.132H35.1474H35.1628H35.1782H35.1936H35.2091H35.2246H35.2401H35.2557H35.2712H35.2868H35.3024H35.3181H35.3337H35.3494H35.3651H35.3808H35.3965H35.4123H35.4281H35.4439H35.4597H35.4756H35.4914H35.5073H35.5232H35.5391H35.5551H35.571H35.587H35.603H35.619H35.6351H35.6511H35.6672H35.6833H35.6994H35.7156H35.7317H35.7479H35.7641H35.7803H35.7965H35.8127H35.829H35.8452H35.8615H35.8778H35.8942H35.9105H35.9268H35.9432H35.9596H35.976H35.9924H36.0088H36.0253H36.0417H36.0582H36.0747H36.0912H36.1077H36.1242H36.1408H36.1573H36.1739H36.1905H36.2071H36.2237H36.2403H36.257H36.2736H36.2903H36.3069H36.3236H36.3403H36.357H36.3738H36.3905H36.4072H36.424H36.4408H36.4575H36.4743H36.4911H36.5079H36.5247H36.5416H36.5584H36.5752H36.5921H36.6089H36.6258H36.6427H36.6596H36.6765H36.6934H36.7103H36.7272H36.7442H36.7611H36.7781H36.795H36.812H36.8289H36.8459H36.8629H36.8799H36.8969H36.9139H36.9309H36.9479H36.9649H36.9819H36.999H37.016H37.033H37.0501H37.0671H37.0842H37.1012H37.1183H37.1354H37.1524H37.1695H37.1866H37.2037H37.2207H37.2378H37.2549H37.272H37.2891H37.3062H37.3233H37.3404H37.3575H37.3746H37.3917H37.4088H37.4259H37.4431H37.4602H37.4773H37.4944H37.5115H37.5286H37.5457H37.5628H37.58H37.5971H37.6142H37.6313H37.6484H37.6655H37.6826H37.6997H37.7168H37.7339H37.7511H37.7682H37.7853H37.8023H37.8194H37.8365H37.8536H37.8707H37.8878H37.9049H37.9219H37.939H37.9561H37.9731H37.9902H38.0073H38.0243H38.0413H38.0584H38.0754H38.0925H38.1095H38.1265H38.1435H38.1605H38.1775H38.1945H38.2115H38.2285H38.2455H38.2624H38.2794H38.2964H38.3133H38.3302H38.3472H38.3641H38.381H38.3979H38.4148H38.4317H38.4486H38.4655H38.4824H38.4992H38.5161H38.5329H38.5497H38.5665H38.5834H38.6002H38.6169H38.6337H38.6505H38.6672H38.684H38.7007H38.7174H38.7342H38.7509H38.7676H38.7842H38.8009H38.8175H38.8342H38.8508H38.8674H38.884H38.9006H38.9172H38.9338H38.9503H38.9668H38.9834H38.9999H39.0164H39.0328H39.0493H39.0658H39.0822H39.0986H39.115H39.1314H39.1478H39.1641H39.1805H39.1968H39.2131H39.2294H39.2457H39.2619H39.2782H39.2944H39.3106H39.3268H39.343H39.3591H39.3753H39.3914H39.4075H39.4236H39.4396H39.4557H39.4717H39.4877H39.5037H39.5197H39.5356H39.5516H39.5675H39.5834H39.5992H39.6151H39.6309H39.6467H39.6625H39.6783H39.694H39.7097H39.7254H39.7411H39.7568H39.7724H39.788H39.8036H39.8192H39.8347H39.8503H39.8658H39.8813H39.8967H39.9121H39.9276H39.9429H39.9583H39.9736H39.9889H40.0042H40.0195H40.0347H40.05H40.0651H40.0803H40.0954H40.1106H40.1256H40.1407H40.1557H40.1707H40.1857H40.2007H40.2156H40.2305H40.2454H40.2602H40.2751H40.2899H40.3046H40.3194H40.3341H40.3487H40.3634H40.378H40.3926H40.4072H40.4217H40.4362H40.4507H40.4651H40.4796H40.494H40.5083H40.5226H40.5369H40.5512H40.5654H40.5797H40.5938H40.608H40.6221H40.6362H40.6502H40.6642H40.6782H40.6922H40.7061H40.72H40.7338H40.7477H40.7614H40.7752H40.7889H40.8026H40.8163H40.8299H40.8435H40.857H40.8706H40.884H40.8975H40.9109H40.9243H40.9376H40.9509H40.9642H40.9775H40.9907H41.0038H41.017H41.0301H41.0431H41.0561H41.0691H41.0821H41.095H41.1078H41.1207H41.1335H41.1462H41.159H41.1716H41.1843H41.1969H41.2095H41.222H41.2345H41.2469H41.2594H41.2717H41.2841H41.2964H41.3086H41.3208H41.333H41.3451H41.3572H41.3693H41.3813H41.3933H41.4052H41.4171H41.4289H41.4407H41.4525C41.5633 43.1195 41.6741 43.1267 41.7842 43.1409C42.0254 42.4107 42.3645 41.725 42.786 41.0993ZM37.5405 24.9788C34.0253 24.9788 31.0947 27.7641 31.0947 31.2527C31.0947 34.7414 34.0253 37.5267 37.5405 37.5267C41.0557 37.5267 43.9862 34.7414 43.9862 31.2527C43.9862 27.7641 41.0557 24.9788 37.5405 24.9788ZM33.3028 31.2527C33.3028 29.051 35.1762 27.1869 37.5405 27.1869C39.9048 27.1869 41.7781 29.051 41.7781 31.2527C41.7781 33.4544 39.9047 35.3186 37.5405 35.3186C35.1762 35.3186 33.3028 33.4544 33.3028 31.2527Z" fill="#F1F1F1"/>
</svg>
