<svg width="141" height="174" viewBox="0 0 141 174" fill="none" xmlns="http://www.w3.org/2000/svg">
<g clip-path="url(#clip0_2934_16402)">
<path d="M68.0851 140.618C99.7731 140.618 125.461 116.558 125.461 86.8778C125.461 57.1977 99.7731 33.1372 68.0851 33.1372C36.3971 33.1372 10.709 57.1977 10.709 86.8778C10.709 116.558 36.3971 140.618 68.0851 140.618Z" fill="#003E71"/>
<path d="M69.3566 0.894531L0.896484 32.2432V79.2662C0.896484 122.763 30.1061 163.437 69.3566 173.312C108.607 163.437 137.816 122.763 137.816 79.2662V32.2432L69.3566 0.894531ZM54.1432 126.289L23.7165 94.9406L34.4419 83.8903L54.1432 104.11L104.271 52.4631L114.996 63.5918L54.1432 126.289Z" fill="#003E71"/>
<path fill-rule="evenodd" clip-rule="evenodd" d="M69.1209 37.8413L70.6451 38.5548L113.728 58.7215C115.562 59.5803 116.353 61.763 115.494 63.5968C114.636 65.431 112.453 66.2221 110.619 65.3633L69.0605 45.9101L26.5941 65.0189C24.7474 65.8498 22.5767 65.0263 21.7457 63.1797C20.9147 61.3328 21.7382 59.1624 23.5849 58.3311L67.5859 38.5319L69.1209 37.8413ZM69.1188 52.512L70.6361 53.2165L96.3029 65.1334C98.1396 65.986 98.9372 68.1663 98.0846 70.003C97.2319 71.84 95.0517 72.6377 93.2146 71.7846L69.0654 60.5725L44.0082 71.8047C42.1605 72.6332 39.9909 71.8068 39.1625 69.959C38.3341 68.1109 39.1606 65.9413 41.0086 65.1133L67.5921 53.1963L69.1188 52.512ZM69.524 94.786L108.508 79.355V112.46H71.841V105.127C71.841 103.102 70.1993 101.46 68.1742 101.46C66.1491 101.46 64.5075 103.102 64.5075 105.127V116.127V119.794H68.1742H112.175H115.841V116.127V75.3089C115.841 72.0732 112.58 69.8564 109.571 71.0469L68.1886 87.4278L27.7251 71.0699C24.7122 69.8519 21.4239 72.0695 21.4239 75.3192V116.127C21.4239 118.152 23.0656 119.794 25.0907 119.794C27.1157 119.794 28.7573 118.152 28.7573 116.127V79.3973L66.8002 94.7761L68.1598 95.3262L69.524 94.786Z" fill="url(#paint0_linear_2934_16402)"/>
<path fill-rule="evenodd" clip-rule="evenodd" d="M69.1209 37.8413L70.6451 38.5548L113.728 58.7215C115.562 59.5803 116.353 61.763 115.494 63.5968C114.636 65.431 112.453 66.2221 110.619 65.3633L69.0605 45.9101L26.5941 65.0189C24.7474 65.8498 22.5767 65.0263 21.7457 63.1797C20.9147 61.3328 21.7382 59.1624 23.5849 58.3311L67.5859 38.5319L69.1209 37.8413ZM69.1188 52.512L70.6361 53.2165L96.3029 65.1334C98.1396 65.986 98.9372 68.1663 98.0846 70.003C97.2319 71.84 95.0517 72.6377 93.2146 71.7846L69.0654 60.5725L44.0082 71.8047C42.1605 72.6332 39.9909 71.8068 39.1625 69.959C38.3341 68.1109 39.1606 65.9413 41.0086 65.1133L67.5921 53.1963L69.1188 52.512ZM69.524 94.786L108.508 79.355V112.46H71.841V105.127C71.841 103.102 70.1993 101.46 68.1742 101.46C66.1491 101.46 64.5075 103.102 64.5075 105.127V116.127V119.794H68.1742H112.175H115.841V116.127V75.3089C115.841 72.0732 112.58 69.8564 109.571 71.0469L68.1886 87.4278L27.7251 71.0699C24.7122 69.8519 21.4239 72.0695 21.4239 75.3192V116.127C21.4239 118.152 23.0656 119.794 25.0907 119.794C27.1157 119.794 28.7573 118.152 28.7573 116.127V79.3973L66.8002 94.7761L68.1598 95.3262L69.524 94.786Z" fill="#F1F1F1"/>
<path d="M69.1237 37.8416L69.5124 37.0114L69.1315 36.833L68.7476 37.0057L69.1237 37.8416ZM69.0633 45.9104L69.4521 45.0803L69.0707 44.9017L68.6873 45.0745L69.0633 45.9104ZM69.1216 52.5123L69.5075 51.681L69.1282 51.5049L68.7464 51.6757L69.1216 52.5123ZM69.0683 60.5728L69.4541 59.7415L69.0748 59.5654L68.693 59.7362L69.0683 60.5728ZM108.511 79.3553H109.428V78.0063L108.173 78.5031L108.511 79.3553ZM108.511 112.461V113.377H109.428V112.461H108.511ZM71.8438 112.461H70.9271V113.377H71.8438V112.461ZM64.5103 119.794H63.5936V120.711H64.5103V119.794ZM115.844 119.794V120.711H116.761V119.794H115.844ZM68.1914 87.4282L67.8478 88.2779L68.1877 88.4154L68.5288 88.2804L68.1914 87.4282ZM28.7601 79.3976L29.1037 78.5478L27.8435 78.0384V79.3976H28.7601ZM68.1627 95.3265L67.8191 96.1763L68.1594 96.3138L68.5001 96.1788L68.1627 95.3265ZM71.0367 37.7249L69.5124 37.0114L68.7353 38.6718L70.2596 39.3853L71.0367 37.7249ZM114.119 57.8917L71.0367 37.7249L70.2596 39.3853L113.342 59.5523L114.119 57.8917ZM116.328 63.9859C117.401 61.6931 116.412 58.9648 114.119 57.8917L113.342 59.5523C114.718 60.196 115.311 61.8331 114.667 63.2088L116.328 63.9859ZM110.233 66.1941C112.526 67.2672 115.254 66.2786 116.328 63.9859L114.667 63.2088C114.023 64.5844 112.386 65.1772 111.011 64.5335L110.233 66.1941ZM68.6746 46.7404L110.233 66.1941L111.011 64.5335L69.4521 45.0803L68.6746 46.7404ZM26.9731 65.855L69.4394 46.7462L68.6873 45.0745L26.2208 64.1834L26.9731 65.855ZM20.9126 63.5561C21.9513 65.8644 24.6647 66.8936 26.9731 65.855L26.2208 64.1834C24.8358 64.8065 23.2077 64.1887 22.5845 62.804L20.9126 63.5561ZM23.2116 57.4956C20.9031 58.5342 19.8739 61.2477 20.9126 63.5561L22.5845 62.804C21.9613 61.4189 22.5788 59.7908 23.9639 59.1676L23.2116 57.4956ZM67.2127 37.6963L23.2116 57.4956L23.9639 59.1676L67.9652 39.3682L67.2127 37.6963ZM68.7476 37.0057L67.2127 37.6963L67.9652 39.3682L69.4997 38.6776L68.7476 37.0057ZM71.0248 52.3855L69.5075 51.681L68.7353 53.3436L70.253 54.0485L71.0248 52.3855ZM96.6917 64.302L71.0248 52.3855L70.253 54.0485L95.9199 65.965L96.6917 64.302ZM98.9187 70.3896C99.9848 68.0935 98.9877 65.3681 96.6917 64.302L95.9199 65.965C97.2972 66.6046 97.8957 68.2397 97.2561 69.6174L98.9187 70.3896ZM92.8315 72.6166C95.1276 73.6823 97.853 72.6852 98.9187 70.3896L97.2561 69.6174C96.6165 70.9951 94.981 71.5932 93.6037 70.9536L92.8315 72.6166ZM68.682 61.4041L92.8315 72.6166L93.6037 70.9536L69.4541 59.7415L68.682 61.4041ZM44.3862 72.6417L69.4431 61.4091L68.693 59.7362L43.6362 70.9688L44.3862 72.6417ZM38.3289 70.3342C39.3643 72.6441 42.0763 73.677 44.3862 72.6417L43.6362 70.9688C42.2503 71.5899 40.6231 70.97 40.0018 69.5841L38.3289 70.3342ZM40.6364 64.277C38.3265 65.3123 37.2934 68.0242 38.3289 70.3342L40.0018 69.5841C39.3805 68.1982 40.0004 66.5713 41.3863 65.9498L40.6364 64.277ZM67.2201 52.36L40.6364 64.277L41.3863 65.9498L67.9697 54.0333L67.2201 52.36ZM68.7464 51.6757L67.2201 52.36L67.9697 54.0333L69.4964 53.349L68.7464 51.6757ZM108.173 78.5031L69.1894 93.934L69.8638 95.6389L108.848 80.2075L108.173 78.5031ZM109.428 112.461V79.3553H107.594V112.461H109.428ZM71.8438 113.377H108.511V111.544H71.8438V113.377ZM70.9271 105.127V112.461H72.7605V105.127H70.9271ZM68.177 102.377C69.6959 102.377 70.9271 103.608 70.9271 105.127H72.7605C72.7605 102.596 70.7083 100.544 68.177 100.544V102.377ZM65.427 105.127C65.427 103.608 66.6585 102.377 68.177 102.377V100.544C65.6458 100.544 63.5936 102.596 63.5936 105.127H65.427ZM65.427 116.127V105.127H63.5936V116.127H65.427ZM65.427 119.794V116.127H63.5936V119.794H65.427ZM68.177 118.878H64.5103V120.711H68.177V118.878ZM112.178 118.878H68.177V120.711H112.178V118.878ZM115.844 118.878H112.178V120.711H115.844V118.878ZM114.928 116.127V119.794H116.761V116.127H114.928ZM114.928 75.3092V116.127H116.761V75.3092H114.928ZM109.911 71.8999C112.318 70.9471 114.928 72.7205 114.928 75.3092H116.761C116.761 71.4265 112.847 68.766 109.237 70.195L109.911 71.8999ZM68.5288 88.2804L109.911 71.8999L109.237 70.195L67.854 86.5755L68.5288 88.2804ZM27.3844 71.9204L67.8478 88.2779L68.535 86.578L28.0715 70.2204L27.3844 71.9204ZM22.3435 75.3195C22.3435 72.7197 24.9741 70.9458 27.3844 71.9204L28.0715 70.2204C24.456 68.759 20.5101 71.42 20.5101 75.3195H22.3435ZM22.3435 116.127V75.3195H20.5101V116.127H22.3435ZM25.0935 118.878C23.5747 118.878 22.3435 117.646 22.3435 116.127H20.5101C20.5101 118.659 22.5621 120.711 25.0935 120.711V118.878ZM27.8435 116.127C27.8435 117.646 26.6123 118.878 25.0935 118.878V120.711C27.6248 120.711 29.6768 118.659 29.6768 116.127H27.8435ZM27.8435 79.3976V116.127H29.6768V79.3976H27.8435ZM67.1466 93.9267L29.1037 78.5478L28.4166 80.2474L66.4594 95.6266L67.1466 93.9267ZM68.5063 94.4763L67.1466 93.9267L66.4594 95.6266L67.8191 96.1763L68.5063 94.4763ZM69.1894 93.934L67.8256 94.4739L68.5001 96.1788L69.8638 95.6389L69.1894 93.934Z" fill="url(#paint1_linear_2934_16402)"/>
<path d="M69.1237 37.8416L69.5124 37.0114L69.1315 36.833L68.7476 37.0057L69.1237 37.8416ZM69.0633 45.9104L69.4521 45.0803L69.0707 44.9017L68.6873 45.0745L69.0633 45.9104ZM69.1216 52.5123L69.5075 51.681L69.1282 51.5049L68.7464 51.6757L69.1216 52.5123ZM69.0683 60.5728L69.4541 59.7415L69.0748 59.5654L68.693 59.7362L69.0683 60.5728ZM108.511 79.3553H109.428V78.0063L108.173 78.5031L108.511 79.3553ZM108.511 112.461V113.377H109.428V112.461H108.511ZM71.8438 112.461H70.9271V113.377H71.8438V112.461ZM64.5103 119.794H63.5936V120.711H64.5103V119.794ZM115.844 119.794V120.711H116.761V119.794H115.844ZM68.1914 87.4282L67.8478 88.2779L68.1877 88.4154L68.5288 88.2804L68.1914 87.4282ZM28.7601 79.3976L29.1037 78.5478L27.8435 78.0384V79.3976H28.7601ZM68.1627 95.3265L67.8191 96.1763L68.1594 96.3138L68.5001 96.1788L68.1627 95.3265ZM71.0367 37.7249L69.5124 37.0114L68.7353 38.6718L70.2596 39.3853L71.0367 37.7249ZM114.119 57.8917L71.0367 37.7249L70.2596 39.3853L113.342 59.5523L114.119 57.8917ZM116.328 63.9859C117.401 61.6931 116.412 58.9648 114.119 57.8917L113.342 59.5523C114.718 60.196 115.311 61.8331 114.667 63.2088L116.328 63.9859ZM110.233 66.1941C112.526 67.2672 115.254 66.2786 116.328 63.9859L114.667 63.2088C114.023 64.5844 112.386 65.1772 111.011 64.5335L110.233 66.1941ZM68.6746 46.7404L110.233 66.1941L111.011 64.5335L69.4521 45.0803L68.6746 46.7404ZM26.9731 65.855L69.4394 46.7462L68.6873 45.0745L26.2208 64.1834L26.9731 65.855ZM20.9126 63.5561C21.9513 65.8644 24.6647 66.8936 26.9731 65.855L26.2208 64.1834C24.8358 64.8065 23.2077 64.1887 22.5845 62.804L20.9126 63.5561ZM23.2116 57.4956C20.9031 58.5342 19.8739 61.2477 20.9126 63.5561L22.5845 62.804C21.9613 61.4189 22.5788 59.7908 23.9639 59.1676L23.2116 57.4956ZM67.2127 37.6963L23.2116 57.4956L23.9639 59.1676L67.9652 39.3682L67.2127 37.6963ZM68.7476 37.0057L67.2127 37.6963L67.9652 39.3682L69.4997 38.6776L68.7476 37.0057ZM71.0248 52.3855L69.5075 51.681L68.7353 53.3436L70.253 54.0485L71.0248 52.3855ZM96.6917 64.302L71.0248 52.3855L70.253 54.0485L95.9199 65.965L96.6917 64.302ZM98.9187 70.3896C99.9848 68.0935 98.9877 65.3681 96.6917 64.302L95.9199 65.965C97.2972 66.6046 97.8957 68.2397 97.2561 69.6174L98.9187 70.3896ZM92.8315 72.6166C95.1276 73.6823 97.853 72.6852 98.9187 70.3896L97.2561 69.6174C96.6165 70.9951 94.981 71.5932 93.6037 70.9536L92.8315 72.6166ZM68.682 61.4041L92.8315 72.6166L93.6037 70.9536L69.4541 59.7415L68.682 61.4041ZM44.3862 72.6417L69.4431 61.4091L68.693 59.7362L43.6362 70.9688L44.3862 72.6417ZM38.3289 70.3342C39.3643 72.6441 42.0763 73.677 44.3862 72.6417L43.6362 70.9688C42.2503 71.5899 40.6231 70.97 40.0018 69.5841L38.3289 70.3342ZM40.6364 64.277C38.3265 65.3123 37.2934 68.0242 38.3289 70.3342L40.0018 69.5841C39.3805 68.1982 40.0004 66.5713 41.3863 65.9498L40.6364 64.277ZM67.2201 52.36L40.6364 64.277L41.3863 65.9498L67.9697 54.0333L67.2201 52.36ZM68.7464 51.6757L67.2201 52.36L67.9697 54.0333L69.4964 53.349L68.7464 51.6757ZM108.173 78.5031L69.1894 93.934L69.8638 95.6389L108.848 80.2075L108.173 78.5031ZM109.428 112.461V79.3553H107.594V112.461H109.428ZM71.8438 113.377H108.511V111.544H71.8438V113.377ZM70.9271 105.127V112.461H72.7605V105.127H70.9271ZM68.177 102.377C69.6959 102.377 70.9271 103.608 70.9271 105.127H72.7605C72.7605 102.596 70.7083 100.544 68.177 100.544V102.377ZM65.427 105.127C65.427 103.608 66.6585 102.377 68.177 102.377V100.544C65.6458 100.544 63.5936 102.596 63.5936 105.127H65.427ZM65.427 116.127V105.127H63.5936V116.127H65.427ZM65.427 119.794V116.127H63.5936V119.794H65.427ZM68.177 118.878H64.5103V120.711H68.177V118.878ZM112.178 118.878H68.177V120.711H112.178V118.878ZM115.844 118.878H112.178V120.711H115.844V118.878ZM114.928 116.127V119.794H116.761V116.127H114.928ZM114.928 75.3092V116.127H116.761V75.3092H114.928ZM109.911 71.8999C112.318 70.9471 114.928 72.7205 114.928 75.3092H116.761C116.761 71.4265 112.847 68.766 109.237 70.195L109.911 71.8999ZM68.5288 88.2804L109.911 71.8999L109.237 70.195L67.854 86.5755L68.5288 88.2804ZM27.3844 71.9204L67.8478 88.2779L68.535 86.578L28.0715 70.2204L27.3844 71.9204ZM22.3435 75.3195C22.3435 72.7197 24.9741 70.9458 27.3844 71.9204L28.0715 70.2204C24.456 68.759 20.5101 71.42 20.5101 75.3195H22.3435ZM22.3435 116.127V75.3195H20.5101V116.127H22.3435ZM25.0935 118.878C23.5747 118.878 22.3435 117.646 22.3435 116.127H20.5101C20.5101 118.659 22.5621 120.711 25.0935 120.711V118.878ZM27.8435 116.127C27.8435 117.646 26.6123 118.878 25.0935 118.878V120.711C27.6248 120.711 29.6768 118.659 29.6768 116.127H27.8435ZM27.8435 79.3976V116.127H29.6768V79.3976H27.8435ZM67.1466 93.9267L29.1037 78.5478L28.4166 80.2474L66.4594 95.6266L67.1466 93.9267ZM68.5063 94.4763L67.1466 93.9267L66.4594 95.6266L67.8191 96.1763L68.5063 94.4763ZM69.1894 93.934L67.8256 94.4739L68.5001 96.1788L69.8638 95.6389L69.1894 93.934Z" fill="#F1F1F1"/>
</g>
<defs>
<linearGradient id="paint0_linear_2934_16402" x1="25.0197" y1="59.2921" x2="115.961" y2="117.278" gradientUnits="userSpaceOnUse">
<stop stop-color="#00FBAA"/>
<stop offset="1" stop-color="#2A58D9"/>
</linearGradient>
<linearGradient id="paint1_linear_2934_16402" x1="24.9655" y1="47.7975" x2="67.347" y2="132.879" gradientUnits="userSpaceOnUse">
<stop stop-color="#00FBAA"/>
<stop offset="1" stop-color="#0D4DFF"/>
</linearGradient>
<clipPath id="clip0_2934_16402">
<rect width="139.576" height="172.418" fill="white" transform="translate(0.896484 0.894531)"/>
</clipPath>
</defs>
</svg>
