<svg width="27" height="34" viewBox="0 0 27 34" fill="none" xmlns="http://www.w3.org/2000/svg">
<g clip-path="url(#clip0_2729_13198)">
<path d="M12.9981 26.7925C19.0246 26.7925 23.9101 22.2166 23.9101 16.5719C23.9101 10.9272 19.0246 6.35132 12.9981 6.35132C6.97154 6.35132 2.08606 10.9272 2.08606 16.5719C2.08606 22.2166 6.97154 26.7925 12.9981 26.7925Z" fill="#003E71"/>
<path d="M13.2393 0.219238L0.219238 6.18126V15.1243C0.219238 23.3966 5.77444 31.1323 13.2393 33.0104C20.704 31.1323 26.2592 23.3966 26.2592 15.1243V6.18126L13.2393 0.219238ZM10.3459 24.0674L4.55924 18.1053L6.59904 16.0037L10.3459 19.8492L19.8795 10.0267L21.9192 12.1433L10.3459 24.0674Z" fill="#003E71"/>
<path fill-rule="evenodd" clip-rule="evenodd" d="M13.1945 7.24585L13.4844 7.38155L21.678 11.2169C22.0269 11.3803 22.1773 11.7954 22.014 12.1441C21.8507 12.493 21.4356 12.6434 21.0868 12.4801L13.183 8.7804L5.1066 12.4146C4.75538 12.5726 4.34255 12.416 4.18451 12.0648C4.02647 11.7136 4.18308 11.3008 4.53429 11.1427L12.9026 7.37719L13.1945 7.24585ZM13.1941 10.036L13.4827 10.17L18.3641 12.4364C18.7134 12.5985 18.8651 13.0132 18.703 13.3625C18.5408 13.7119 18.1261 13.8636 17.7768 13.7013L13.184 11.569L8.41849 13.7052C8.06707 13.8627 7.65445 13.7055 7.49691 13.3541C7.33937 13.0026 7.49656 12.59 7.848 12.4325L12.9038 10.1661L13.1941 10.036ZM13.2712 18.0758L20.6853 15.1411V21.4372H13.7118V20.0425C13.7118 19.6574 13.3996 19.3451 13.0145 19.3451C12.6293 19.3451 12.3171 19.6574 12.3171 20.0425V22.1346V22.8319H13.0145H21.3827H22.08V22.1346V14.3716C22.08 13.7562 21.4597 13.3346 20.8875 13.561L13.0172 16.6764L5.3217 13.5654C4.7487 13.3338 4.12332 13.7555 4.12332 14.3735V22.1346C4.12332 22.5197 4.43553 22.8319 4.82067 22.8319C5.2058 22.8319 5.51801 22.5197 5.51801 22.1346V15.1491L12.7532 18.0739L13.0117 18.1786L13.2712 18.0758Z" fill="url(#paint0_linear_2729_13198)"/>
<path fill-rule="evenodd" clip-rule="evenodd" d="M13.1945 7.24585L13.4844 7.38155L21.678 11.2169C22.0269 11.3803 22.1773 11.7954 22.014 12.1441C21.8507 12.493 21.4356 12.6434 21.0868 12.4801L13.183 8.7804L5.1066 12.4146C4.75538 12.5726 4.34255 12.416 4.18451 12.0648C4.02647 11.7136 4.18308 11.3008 4.53429 11.1427L12.9026 7.37719L13.1945 7.24585ZM13.1941 10.036L13.4827 10.17L18.3641 12.4364C18.7134 12.5985 18.8651 13.0132 18.703 13.3625C18.5408 13.7119 18.1261 13.8636 17.7768 13.7013L13.184 11.569L8.41849 13.7052C8.06707 13.8627 7.65445 13.7055 7.49691 13.3541C7.33937 13.0026 7.49656 12.59 7.848 12.4325L12.9038 10.1661L13.1941 10.036ZM13.2712 18.0758L20.6853 15.1411V21.4372H13.7118V20.0425C13.7118 19.6574 13.3996 19.3451 13.0145 19.3451C12.6293 19.3451 12.3171 19.6574 12.3171 20.0425V22.1346V22.8319H13.0145H21.3827H22.08V22.1346V14.3716C22.08 13.7562 21.4597 13.3346 20.8875 13.561L13.0172 16.6764L5.3217 13.5654C4.7487 13.3338 4.12332 13.7555 4.12332 14.3735V22.1346C4.12332 22.5197 4.43553 22.8319 4.82067 22.8319C5.2058 22.8319 5.51801 22.5197 5.51801 22.1346V15.1491L12.7532 18.0739L13.0117 18.1786L13.2712 18.0758Z" fill="#F1F1F1"/>
<path d="M13.1946 7.24602L13.2685 7.08812L13.1961 7.0542L13.1231 7.08704L13.1946 7.24602ZM13.1831 8.78057L13.257 8.6227L13.1845 8.58874L13.1116 8.62161L13.1831 8.78057ZM13.1942 10.0362L13.2676 9.87805L13.1954 9.84456L13.1228 9.87704L13.1942 10.0362ZM13.184 11.5691L13.2574 11.411L13.1853 11.3775L13.1127 11.41L13.184 11.5691ZM20.6854 15.1413H20.8597V14.8847L20.6212 14.9792L20.6854 15.1413ZM20.6854 21.4374V21.6117H20.8597V21.4374H20.6854ZM13.7119 21.4374H13.5376V21.6117H13.7119V21.4374ZM12.3172 22.832H12.1428V23.0064H12.3172V22.832ZM22.08 22.832V23.0064H22.2544V22.832H22.08ZM13.0173 16.6766L12.9519 16.8382L13.0166 16.8644L13.0814 16.8387L13.0173 16.6766ZM5.51807 15.1493L5.58341 14.9877L5.34374 14.8908V15.1493H5.51807ZM13.0118 18.1787L12.9465 18.3403L13.0112 18.3665L13.076 18.3408L13.0118 18.1787ZM13.5584 7.22382L13.2685 7.08812L13.1207 7.40392L13.4106 7.53961L13.5584 7.22382ZM21.752 11.0592L13.5584 7.22382L13.4106 7.53961L21.6042 11.375L21.752 11.0592ZM22.172 12.2182C22.3761 11.7822 22.1881 11.2633 21.752 11.0592L21.6042 11.375C21.8659 11.4975 21.9786 11.8088 21.8562 12.0705L22.172 12.2182ZM21.013 12.6382C21.449 12.8423 21.9679 12.6543 22.172 12.2182L21.8562 12.0705C21.7337 12.3321 21.4224 12.4448 21.1608 12.3224L21.013 12.6382ZM13.1092 8.93843L21.013 12.6382L21.1608 12.3224L13.257 8.6227L13.1092 8.93843ZM5.1782 12.5737L13.2546 8.93952L13.1116 8.62161L5.03512 12.2558L5.1782 12.5737ZM4.02559 12.1365C4.22314 12.5755 4.73918 12.7712 5.1782 12.5737L5.03512 12.2558C4.77171 12.3743 4.46209 12.2568 4.34356 11.9935L4.02559 12.1365ZM4.46282 10.9839C4.02379 11.1814 3.82805 11.6975 4.02559 12.1365L4.34356 11.9935C4.22503 11.73 4.34248 11.4204 4.60589 11.3019L4.46282 10.9839ZM12.8311 7.21838L4.46282 10.9839L4.60589 11.3019L12.9742 7.53635L12.8311 7.21838ZM13.1231 7.08704L12.8311 7.21838L12.9742 7.53635L13.2661 7.405L13.1231 7.08704ZM13.5561 10.012L13.2676 9.87805L13.1207 10.1943L13.4094 10.3283L13.5561 10.012ZM18.4376 12.2784L13.5561 10.012L13.4094 10.3283L18.2908 12.5946L18.4376 12.2784ZM18.8611 13.4361C19.0639 12.9995 18.8742 12.4811 18.4376 12.2784L18.2908 12.5946C18.5527 12.7163 18.6665 13.0272 18.5449 13.2893L18.8611 13.4361ZM17.7034 13.8597C18.1401 14.0624 18.6584 13.8727 18.8611 13.4361L18.5449 13.2893C18.4233 13.5513 18.1122 13.665 17.8503 13.5434L17.7034 13.8597ZM13.1106 11.7272L17.7034 13.8597L17.8503 13.5434L13.2574 11.411L13.1106 11.7272ZM8.48991 13.8644L13.2553 11.7282L13.1127 11.41L8.34726 13.5463L8.48991 13.8644ZM7.33789 13.4256C7.53482 13.8649 8.05058 14.0613 8.48991 13.8644L8.34726 13.5463C8.08369 13.6644 7.77422 13.5465 7.65606 13.2829L7.33789 13.4256ZM7.77675 12.2736C7.33745 12.4705 7.14096 12.9863 7.33789 13.4256L7.65606 13.2829C7.5379 13.0194 7.65579 12.71 7.91937 12.5918L7.77675 12.2736ZM12.8325 10.0072L7.77675 12.2736L7.91937 12.5918L12.9751 10.3254L12.8325 10.0072ZM13.1228 9.87704L12.8325 10.0072L12.9751 10.3254L13.2655 10.1953L13.1228 9.87704ZM20.6212 14.9792L13.2071 17.9139L13.3353 18.2381L20.7496 15.3033L20.6212 14.9792ZM20.8597 21.4374V15.1413H20.5111V21.4374H20.8597ZM13.7119 21.6117H20.6854V21.2631H13.7119V21.6117ZM13.5376 20.0427V21.4374H13.8862V20.0427H13.5376ZM13.0145 19.5197C13.3034 19.5197 13.5376 19.7538 13.5376 20.0427H13.8862C13.8862 19.5613 13.4959 19.171 13.0145 19.171V19.5197ZM12.4915 20.0427C12.4915 19.7538 12.7257 19.5197 13.0145 19.5197V19.171C12.5331 19.171 12.1428 19.5613 12.1428 20.0427H12.4915ZM12.4915 22.1347V20.0427H12.1428V22.1347H12.4915ZM12.4915 22.832V22.1347H12.1428V22.832H12.4915ZM13.0145 22.6578H12.3172V23.0064H13.0145V22.6578ZM21.3827 22.6578H13.0145V23.0064H21.3827V22.6578ZM22.08 22.6578H21.3827V23.0064H22.08V22.6578ZM21.9058 22.1347V22.832H22.2544V22.1347H21.9058ZM21.9058 14.3718V22.1347H22.2544V14.3718H21.9058ZM20.9517 13.7234C21.4094 13.5421 21.9058 13.8794 21.9058 14.3718H22.2544C22.2544 13.6333 21.51 13.1273 20.8234 13.3991L20.9517 13.7234ZM13.0814 16.8387L20.9517 13.7234L20.8234 13.3991L12.9531 16.5144L13.0814 16.8387ZM5.25642 13.7273L12.9519 16.8382L13.0826 16.5149L5.3871 13.404L5.25642 13.7273ZM4.29772 14.3737C4.29772 13.8793 4.79802 13.5419 5.25642 13.7273L5.3871 13.404C4.6995 13.126 3.94904 13.6321 3.94904 14.3737H4.29772ZM4.29772 22.1347V14.3737H3.94904V22.1347H4.29772ZM4.82073 22.6578C4.53188 22.6578 4.29772 22.4235 4.29772 22.1347H3.94904C3.94904 22.6162 4.33931 23.0064 4.82073 23.0064V22.6578ZM5.34374 22.1347C5.34374 22.4235 5.10958 22.6578 4.82073 22.6578V23.0064C5.30214 23.0064 5.69241 22.6162 5.69241 22.1347H5.34374ZM5.34374 15.1493V22.1347H5.69241V15.1493H5.34374ZM12.8186 17.9125L5.58341 14.9877L5.45273 15.3109L12.6879 18.2358L12.8186 17.9125ZM13.0771 18.017L12.8186 17.9125L12.6879 18.2358L12.9465 18.3403L13.0771 18.017ZM13.2071 17.9139L12.9477 18.0166L13.076 18.3408L13.3353 18.2381L13.2071 17.9139Z" fill="url(#paint1_linear_2729_13198)"/>
<path d="M13.1946 7.24602L13.2685 7.08812L13.1961 7.0542L13.1231 7.08704L13.1946 7.24602ZM13.1831 8.78057L13.257 8.6227L13.1845 8.58874L13.1116 8.62161L13.1831 8.78057ZM13.1942 10.0362L13.2676 9.87805L13.1954 9.84456L13.1228 9.87704L13.1942 10.0362ZM13.184 11.5691L13.2574 11.411L13.1853 11.3775L13.1127 11.41L13.184 11.5691ZM20.6854 15.1413H20.8597V14.8847L20.6212 14.9792L20.6854 15.1413ZM20.6854 21.4374V21.6117H20.8597V21.4374H20.6854ZM13.7119 21.4374H13.5376V21.6117H13.7119V21.4374ZM12.3172 22.832H12.1428V23.0064H12.3172V22.832ZM22.08 22.832V23.0064H22.2544V22.832H22.08ZM13.0173 16.6766L12.9519 16.8382L13.0166 16.8644L13.0814 16.8387L13.0173 16.6766ZM5.51807 15.1493L5.58341 14.9877L5.34374 14.8908V15.1493H5.51807ZM13.0118 18.1787L12.9465 18.3403L13.0112 18.3665L13.076 18.3408L13.0118 18.1787ZM13.5584 7.22382L13.2685 7.08812L13.1207 7.40392L13.4106 7.53961L13.5584 7.22382ZM21.752 11.0592L13.5584 7.22382L13.4106 7.53961L21.6042 11.375L21.752 11.0592ZM22.172 12.2182C22.3761 11.7822 22.1881 11.2633 21.752 11.0592L21.6042 11.375C21.8659 11.4975 21.9786 11.8088 21.8562 12.0705L22.172 12.2182ZM21.013 12.6382C21.449 12.8423 21.9679 12.6543 22.172 12.2182L21.8562 12.0705C21.7337 12.3321 21.4224 12.4448 21.1608 12.3224L21.013 12.6382ZM13.1092 8.93843L21.013 12.6382L21.1608 12.3224L13.257 8.6227L13.1092 8.93843ZM5.1782 12.5737L13.2546 8.93952L13.1116 8.62161L5.03512 12.2558L5.1782 12.5737ZM4.02559 12.1365C4.22314 12.5755 4.73918 12.7712 5.1782 12.5737L5.03512 12.2558C4.77171 12.3743 4.46209 12.2568 4.34356 11.9935L4.02559 12.1365ZM4.46282 10.9839C4.02379 11.1814 3.82805 11.6975 4.02559 12.1365L4.34356 11.9935C4.22503 11.73 4.34248 11.4204 4.60589 11.3019L4.46282 10.9839ZM12.8311 7.21838L4.46282 10.9839L4.60589 11.3019L12.9742 7.53635L12.8311 7.21838ZM13.1231 7.08704L12.8311 7.21838L12.9742 7.53635L13.2661 7.405L13.1231 7.08704ZM13.5561 10.012L13.2676 9.87805L13.1207 10.1943L13.4094 10.3283L13.5561 10.012ZM18.4376 12.2784L13.5561 10.012L13.4094 10.3283L18.2908 12.5946L18.4376 12.2784ZM18.8611 13.4361C19.0639 12.9995 18.8742 12.4811 18.4376 12.2784L18.2908 12.5946C18.5527 12.7163 18.6665 13.0272 18.5449 13.2893L18.8611 13.4361ZM17.7034 13.8597C18.1401 14.0624 18.6584 13.8727 18.8611 13.4361L18.5449 13.2893C18.4233 13.5513 18.1122 13.665 17.8503 13.5434L17.7034 13.8597ZM13.1106 11.7272L17.7034 13.8597L17.8503 13.5434L13.2574 11.411L13.1106 11.7272ZM8.48991 13.8644L13.2553 11.7282L13.1127 11.41L8.34726 13.5463L8.48991 13.8644ZM7.33789 13.4256C7.53482 13.8649 8.05058 14.0613 8.48991 13.8644L8.34726 13.5463C8.08369 13.6644 7.77422 13.5465 7.65606 13.2829L7.33789 13.4256ZM7.77675 12.2736C7.33745 12.4705 7.14096 12.9863 7.33789 13.4256L7.65606 13.2829C7.5379 13.0194 7.65579 12.71 7.91937 12.5918L7.77675 12.2736ZM12.8325 10.0072L7.77675 12.2736L7.91937 12.5918L12.9751 10.3254L12.8325 10.0072ZM13.1228 9.87704L12.8325 10.0072L12.9751 10.3254L13.2655 10.1953L13.1228 9.87704ZM20.6212 14.9792L13.2071 17.9139L13.3353 18.2381L20.7496 15.3033L20.6212 14.9792ZM20.8597 21.4374V15.1413H20.5111V21.4374H20.8597ZM13.7119 21.6117H20.6854V21.2631H13.7119V21.6117ZM13.5376 20.0427V21.4374H13.8862V20.0427H13.5376ZM13.0145 19.5197C13.3034 19.5197 13.5376 19.7538 13.5376 20.0427H13.8862C13.8862 19.5613 13.4959 19.171 13.0145 19.171V19.5197ZM12.4915 20.0427C12.4915 19.7538 12.7257 19.5197 13.0145 19.5197V19.171C12.5331 19.171 12.1428 19.5613 12.1428 20.0427H12.4915ZM12.4915 22.1347V20.0427H12.1428V22.1347H12.4915ZM12.4915 22.832V22.1347H12.1428V22.832H12.4915ZM13.0145 22.6578H12.3172V23.0064H13.0145V22.6578ZM21.3827 22.6578H13.0145V23.0064H21.3827V22.6578ZM22.08 22.6578H21.3827V23.0064H22.08V22.6578ZM21.9058 22.1347V22.832H22.2544V22.1347H21.9058ZM21.9058 14.3718V22.1347H22.2544V14.3718H21.9058ZM20.9517 13.7234C21.4094 13.5421 21.9058 13.8794 21.9058 14.3718H22.2544C22.2544 13.6333 21.51 13.1273 20.8234 13.3991L20.9517 13.7234ZM13.0814 16.8387L20.9517 13.7234L20.8234 13.3991L12.9531 16.5144L13.0814 16.8387ZM5.25642 13.7273L12.9519 16.8382L13.0826 16.5149L5.3871 13.404L5.25642 13.7273ZM4.29772 14.3737C4.29772 13.8793 4.79802 13.5419 5.25642 13.7273L5.3871 13.404C4.6995 13.126 3.94904 13.6321 3.94904 14.3737H4.29772ZM4.29772 22.1347V14.3737H3.94904V22.1347H4.29772ZM4.82073 22.6578C4.53188 22.6578 4.29772 22.4235 4.29772 22.1347H3.94904C3.94904 22.6162 4.33931 23.0064 4.82073 23.0064V22.6578ZM5.34374 22.1347C5.34374 22.4235 5.10958 22.6578 4.82073 22.6578V23.0064C5.30214 23.0064 5.69241 22.6162 5.69241 22.1347H5.34374ZM5.34374 15.1493V22.1347H5.69241V15.1493H5.34374ZM12.8186 17.9125L5.58341 14.9877L5.45273 15.3109L12.6879 18.2358L12.8186 17.9125ZM13.0771 18.017L12.8186 17.9125L12.6879 18.2358L12.9465 18.3403L13.0771 18.017ZM13.2071 17.9139L12.9477 18.0166L13.076 18.3408L13.3353 18.2381L13.2071 17.9139Z" fill="#F1F1F1"/>
</g>
<defs>
<linearGradient id="paint0_linear_2729_13198" x1="4.80718" y1="11.3255" x2="22.1028" y2="22.3535" gradientUnits="userSpaceOnUse">
<stop stop-color="#00FBAA"/>
<stop offset="1" stop-color="#2A58D9"/>
</linearGradient>
<linearGradient id="paint1_linear_2729_13198" x1="4.79638" y1="9.13947" x2="12.8567" y2="25.3206" gradientUnits="userSpaceOnUse">
<stop stop-color="#00FBAA"/>
<stop offset="1" stop-color="#0D4DFF"/>
</linearGradient>
<clipPath id="clip0_2729_13198">
<rect width="26.5452" height="32.7911" fill="white" transform="translate(0.219238 0.219238)"/>
</clipPath>
</defs>
</svg>
