<svg width="420" height="325" viewBox="0 0 420 325" fill="none" xmlns="http://www.w3.org/2000/svg">
<g opacity="0.4" clip-path="url(#clip0_251_3968)">
<path fill-rule="evenodd" clip-rule="evenodd" d="M66.2656 204.228L200.152 281.526L324.143 209.936L190.265 132.639L66.2656 204.228Z" fill="white"/>
<path fill-rule="evenodd" clip-rule="evenodd" d="M211.997 241.06L274.88 277.363L349.708 234.163L286.824 197.852L211.997 241.06Z" fill="white"/>
<path fill-rule="evenodd" clip-rule="evenodd" d="M41.0973 324.891L199.128 233.659L149.179 204.815L7 286.911V324.891H41.0973Z" fill="white"/>
<path fill-rule="evenodd" clip-rule="evenodd" d="M83.8179 214.355L182.574 271.374L223.552 247.751L124.796 190.74L83.8179 214.355Z" fill="#E6E6E6"/>
<path fill-rule="evenodd" clip-rule="evenodd" d="M420 323.007L296.339 251.608L312.793 242.109L420 304.001V323.007Z" fill="white"/>
<path fill-rule="evenodd" clip-rule="evenodd" d="M223.552 247.75L124.763 190.715V122.058L223.552 179.093V247.75Z" fill="#FFAEA1"/>
<path fill-rule="evenodd" clip-rule="evenodd" d="M294.076 207.037L223.552 247.75V179.093L294.076 138.38V207.037Z" fill="#F78C7B"/>
<path fill-rule="evenodd" clip-rule="evenodd" d="M124.763 122.058L223.552 179.093L294.076 138.38L195.278 81.3445L124.763 122.058Z" fill="#FFDAD4"/>
<path fill-rule="evenodd" clip-rule="evenodd" d="M188.993 143.212L138.557 114.095V58.869L188.993 87.9855V143.212Z" fill="#FFAEA1"/>
<path fill-rule="evenodd" clip-rule="evenodd" d="M182.409 123.347L164.766 113.162V90.6783L182.409 100.863V123.347Z" fill="white"/>
<path fill-rule="evenodd" clip-rule="evenodd" d="M160.917 110.94L143.273 100.756V78.2635L160.917 88.4564V110.94Z" fill="white"/>
<path fill-rule="evenodd" clip-rule="evenodd" d="M245.722 110.469L188.993 143.212V87.9938L245.722 55.2429V110.469Z" fill="#F78C7B"/>
<path fill-rule="evenodd" clip-rule="evenodd" d="M266.868 256.836L237.347 239.788V197.051L266.868 214.091V256.836Z" fill="#FFAEA1"/>
<path fill-rule="evenodd" clip-rule="evenodd" d="M260.392 239.449L243.822 229.884V208.755L260.392 218.328V239.449Z" fill="white"/>
<path fill-rule="evenodd" clip-rule="evenodd" d="M259.36 237.533L244.855 229.157V210.68L259.36 219.047V237.533Z" fill="#C4FFFE"/>
<path fill-rule="evenodd" clip-rule="evenodd" d="M252.751 235.038L251.463 234.295V213.166L252.751 213.918V235.038Z" fill="white"/>
<path fill-rule="evenodd" clip-rule="evenodd" d="M243.822 220.063V218.576L260.392 228.141V229.628L243.822 220.063Z" fill="white"/>
<path fill-rule="evenodd" clip-rule="evenodd" d="M314.148 229.537L266.868 256.836V214.091L314.148 186.792V229.537Z" fill="#F78C7B"/>
<path fill-rule="evenodd" clip-rule="evenodd" d="M152.665 202.808L149.179 204.815V162.805L152.665 164.812V202.808Z" fill="#F78C7B"/>
<path fill-rule="evenodd" clip-rule="evenodd" d="M152.665 202.808L199.128 229.628V191.64L152.665 164.812V202.808Z" fill="#E6E6E6"/>
<path fill-rule="evenodd" clip-rule="evenodd" d="M199.128 227.67L152.665 200.842V199.215L199.128 226.043V227.67Z" fill="#CCCCCC"/>
<path fill-rule="evenodd" clip-rule="evenodd" d="M199.128 223.136L152.665 196.315V194.688L199.128 221.517V223.136Z" fill="#CCCCCC"/>
<path fill-rule="evenodd" clip-rule="evenodd" d="M199.128 218.617L152.665 191.789V190.162L199.128 216.99V218.617Z" fill="#CCCCCC"/>
<path fill-rule="evenodd" clip-rule="evenodd" d="M199.128 214.083L152.665 187.262V185.635L199.128 212.464V214.083Z" fill="#CCCCCC"/>
<path fill-rule="evenodd" clip-rule="evenodd" d="M199.128 209.556L152.665 182.736V181.109L199.128 207.937V209.556Z" fill="#CCCCCC"/>
<path fill-rule="evenodd" clip-rule="evenodd" d="M199.128 205.03L152.665 178.209V176.582L199.128 203.411V205.03Z" fill="#CCCCCC"/>
<path fill-rule="evenodd" clip-rule="evenodd" d="M199.128 200.503L152.665 173.683V172.056L199.128 198.884V200.503Z" fill="#CCCCCC"/>
<path fill-rule="evenodd" clip-rule="evenodd" d="M199.128 195.977L152.665 169.157V167.529L199.128 194.358V195.977Z" fill="#CCCCCC"/>
<path fill-rule="evenodd" clip-rule="evenodd" d="M217.358 43.0924L188.993 87.9938L245.722 55.2429L217.358 43.0924Z" fill="#F78C7B"/>
<path fill-rule="evenodd" clip-rule="evenodd" d="M131.982 65.1549L185.878 96.2786L220.818 40.9697L166.922 9.85425L131.982 65.1549Z" fill="#88F2F0"/>
<path fill-rule="evenodd" clip-rule="evenodd" d="M131.982 65.1549V69.2767L185.878 100.392V96.2786L131.982 65.1549Z" fill="#6BDBD9"/>
<path fill-rule="evenodd" clip-rule="evenodd" d="M200.309 24.0614L254.205 55.1769L220.818 40.9697L166.922 9.85425L200.309 24.0614Z" fill="#6BDBD9"/>
<path fill-rule="evenodd" clip-rule="evenodd" d="M290.4 176.805L266.868 214.091L314.148 186.792L290.4 176.805Z" fill="#F78C7B"/>
<path fill-rule="evenodd" clip-rule="evenodd" d="M233.919 203.014L271.832 224.903L300.61 179.349L262.697 157.46L233.919 203.014Z" fill="#88F2F0"/>
<path fill-rule="evenodd" clip-rule="evenodd" d="M233.919 203.014V206.401L271.832 228.29V224.903L233.919 203.014Z" fill="#6BDBD9"/>
<path fill-rule="evenodd" clip-rule="evenodd" d="M328.107 191.004V194.399L300.61 182.695V179.3L328.107 191.004Z" fill="#43BAB8"/>
<path fill-rule="evenodd" clip-rule="evenodd" d="M289.971 169.024L327.885 190.913L300.387 179.209L262.474 157.32L289.971 169.024Z" fill="#6BDBD9"/>
<path fill-rule="evenodd" clip-rule="evenodd" d="M302.584 236.211L286.13 245.718V218.403C286.13 207.21 302.584 198.529 302.584 209.944V236.211Z" fill="white"/>
<path d="M257.443 95.692C257.443 95.3545 257.17 95.0808 256.832 95.0808C256.494 95.0808 256.221 95.3545 256.221 95.692V117.234C256.221 117.572 256.494 117.845 256.832 117.845C257.17 117.845 257.443 117.572 257.443 117.234V95.692Z" fill="#239492"/>
<path d="M264.687 99.8717C264.687 99.5342 264.414 99.2605 264.076 99.2605C263.739 99.2605 263.465 99.5342 263.465 99.8717V121.414C263.465 121.751 263.739 122.025 264.076 122.025C264.414 122.025 264.687 121.751 264.687 121.414V99.8717Z" fill="#239492"/>
<path d="M271.287 103.688C271.287 103.35 271.013 103.077 270.676 103.077C270.338 103.077 270.064 103.35 270.064 103.688V125.23C270.064 125.567 270.338 125.841 270.676 125.841C271.013 125.841 271.287 125.567 271.287 125.23V103.688Z" fill="#239492"/>
<path d="M277.895 107.504C277.895 107.166 277.621 106.893 277.284 106.893C276.946 106.893 276.672 107.166 276.672 107.504V129.046C276.672 129.384 276.946 129.657 277.284 129.657C277.621 129.657 277.895 129.384 277.895 129.046V107.504Z" fill="#239492"/>
<path d="M284.503 111.32C284.503 110.982 284.229 110.709 283.892 110.709C283.554 110.709 283.28 110.982 283.28 111.32V132.862C283.28 133.2 283.554 133.473 283.892 133.473C284.229 133.473 284.503 133.2 284.503 132.862V111.32Z" fill="#239492"/>
<path d="M291.111 115.136C291.111 114.799 290.837 114.525 290.5 114.525C290.162 114.525 289.889 114.799 289.889 115.136V136.678C289.889 137.016 290.162 137.289 290.5 137.289C290.837 137.289 291.111 137.016 291.111 136.678V115.136Z" fill="#239492"/>
<path d="M288.212 120.224C288.212 119.887 287.938 119.613 287.6 119.613C287.263 119.613 286.989 119.887 286.989 120.224V141.766C286.989 142.104 287.263 142.378 287.6 142.378C287.938 142.378 288.212 142.104 288.212 141.766V120.224Z" fill="#239492"/>
<path d="M279.886 123.537H279.877C279.54 123.537 279.266 123.81 279.266 124.148V145.69C279.266 146.028 279.54 146.301 279.877 146.301H279.886C280.223 146.301 280.497 146.028 280.497 145.69V124.148C280.497 123.81 280.223 123.537 279.886 123.537Z" fill="#239492"/>
<path d="M274.128 128.203C274.128 127.866 273.855 127.592 273.517 127.592C273.179 127.592 272.906 127.866 272.906 128.203V149.745C272.906 150.083 273.179 150.357 273.517 150.357C273.855 150.357 274.128 150.083 274.128 149.745V128.203Z" fill="#239492"/>
<path d="M267.76 131.714C267.76 131.376 267.486 131.103 267.149 131.103C266.811 131.103 266.538 131.376 266.538 131.714V153.256C266.538 153.594 266.811 153.867 267.149 153.867C267.486 153.867 267.76 153.594 267.76 153.256V131.714Z" fill="#239492"/>
<path d="M260.912 135.018H260.904C260.567 135.018 260.293 135.292 260.293 135.629V157.171C260.293 157.509 260.567 157.783 260.904 157.783H260.912C261.25 157.783 261.524 157.509 261.524 157.171V135.629C261.524 135.292 261.25 135.018 260.912 135.018Z" fill="#239492"/>
<path d="M255.039 139.024C255.039 138.686 254.766 138.413 254.428 138.413C254.091 138.413 253.817 138.686 253.817 139.024V160.566C253.817 160.904 254.091 161.177 254.428 161.177C254.766 161.177 255.039 160.904 255.039 160.566V139.024Z" fill="#239492"/>
<path d="M248.01 143.055C248.01 142.717 247.736 142.444 247.399 142.444C247.061 142.444 246.788 142.717 246.788 143.055V164.597C246.788 164.935 247.061 165.208 247.399 165.208C247.736 165.208 248.01 164.935 248.01 164.597V143.055Z" fill="#239492"/>
<path d="M240.816 147.301C240.816 146.963 240.542 146.689 240.204 146.689C239.867 146.689 239.593 146.963 239.593 147.301V168.843C239.593 169.18 239.867 169.454 240.204 169.454C240.542 169.454 240.816 169.18 240.816 168.843V147.301Z" fill="#239492"/>
<path d="M233.365 151.554C233.365 151.217 233.091 150.943 232.754 150.943C232.416 150.943 232.143 151.217 232.143 151.554V173.097C232.143 173.434 232.416 173.708 232.754 173.708C233.091 173.708 233.365 173.434 233.365 173.097V151.554Z" fill="#239492"/>
<path d="M226.08 155.701C226.08 155.363 225.806 155.09 225.469 155.09C225.131 155.09 224.857 155.363 224.857 155.701V177.243C224.857 177.581 225.131 177.854 225.469 177.854C225.806 177.854 226.08 177.581 226.08 177.243V155.701Z" fill="#239492"/>
<path d="M220.124 154.768C220.124 154.43 219.851 154.156 219.513 154.156C219.176 154.156 218.902 154.43 218.902 154.768V176.31C218.902 176.647 219.176 176.921 219.513 176.921C219.851 176.921 220.124 176.647 220.124 176.31V154.768Z" fill="#239492"/>
<path d="M213.781 150.745C213.781 150.407 213.507 150.134 213.169 150.134C212.832 150.134 212.558 150.407 212.558 150.745V172.287C212.558 172.625 212.832 172.898 213.169 172.898C213.507 172.898 213.781 172.625 213.781 172.287V150.745Z" fill="#239492"/>
<path d="M206.999 147.086C206.999 146.748 206.726 146.475 206.388 146.475C206.051 146.475 205.777 146.748 205.777 147.086V168.628C205.777 168.966 206.051 169.239 206.388 169.239C206.726 169.239 206.999 168.966 206.999 168.628V147.086Z" fill="#239492"/>
<path d="M199.797 142.799C199.797 142.461 199.523 142.188 199.185 142.188C198.848 142.188 198.574 142.461 198.574 142.799V164.341C198.574 164.679 198.848 164.952 199.185 164.952C199.523 164.952 199.797 164.679 199.797 164.341V142.799Z" fill="#239492"/>
<path d="M192.453 138.578C192.453 138.24 192.18 137.967 191.842 137.967C191.505 137.967 191.231 138.24 191.231 138.578V160.12C191.231 160.458 191.505 160.731 191.842 160.731C192.18 160.731 192.453 160.458 192.453 160.12V138.578Z" fill="#239492"/>
<path d="M185.11 134.357C185.11 134.02 184.837 133.746 184.499 133.746C184.161 133.746 183.888 134.02 183.888 134.357V155.899C183.888 156.237 184.161 156.511 184.499 156.511C184.837 156.511 185.11 156.237 185.11 155.899V134.357Z" fill="#239492"/>
<path d="M177.759 129.979C177.759 129.642 177.485 129.368 177.148 129.368C176.81 129.368 176.537 129.642 176.537 129.979V151.521C176.537 151.859 176.81 152.133 177.148 152.133C177.485 152.133 177.759 151.859 177.759 151.521V129.979Z" fill="#239492"/>
<path d="M170.416 125.874C170.416 125.537 170.142 125.263 169.805 125.263C169.467 125.263 169.193 125.537 169.193 125.874V147.416C169.193 147.754 169.467 148.028 169.805 148.028C170.142 148.028 170.416 147.754 170.416 147.416V125.874Z" fill="#239492"/>
<path d="M163.064 121.447C163.064 121.109 162.791 120.836 162.453 120.836C162.115 120.836 161.842 121.109 161.842 121.447V142.989C161.842 143.326 162.115 143.6 162.453 143.6C162.791 143.6 163.064 143.326 163.064 142.989V121.447Z" fill="#239492"/>
<path d="M155.721 117.391C155.721 117.054 155.447 116.78 155.11 116.78C154.772 116.78 154.499 117.054 154.499 117.391V138.933C154.499 139.271 154.772 139.544 155.11 139.544C155.447 139.544 155.721 139.271 155.721 138.933V117.391Z" fill="#239492"/>
<path d="M148.378 112.939C148.378 112.601 148.105 112.328 147.767 112.328C147.429 112.328 147.156 112.601 147.156 112.939V134.481C147.156 134.819 147.429 135.092 147.767 135.092C148.105 135.092 148.378 134.819 148.378 134.481V112.939Z" fill="#239492"/>
<path d="M141.027 108.71C141.027 108.372 140.753 108.099 140.415 108.099C140.078 108.099 139.804 108.372 139.804 108.71V130.252C139.804 130.59 140.078 130.863 140.415 130.863C140.753 130.863 141.027 130.59 141.027 130.252V108.71Z" fill="#239492"/>
<path d="M133.684 104.274C133.684 103.937 133.41 103.663 133.073 103.663C132.735 103.663 132.461 103.937 132.461 104.274V125.816C132.461 126.154 132.735 126.428 133.073 126.428C133.41 126.428 133.684 126.154 133.684 125.816V104.274Z" fill="#239492"/>
<path d="M128.876 98.9712C128.876 98.6336 128.603 98.36 128.265 98.36C127.927 98.36 127.654 98.6336 127.654 98.9712V120.513C127.654 120.851 127.927 121.125 128.265 121.125C128.603 121.125 128.876 120.851 128.876 120.513V98.9712Z" fill="#239492"/>
<path d="M136.732 94.3622C136.732 94.0246 136.458 93.751 136.121 93.751C135.783 93.751 135.509 94.0246 135.509 94.3622V115.904C135.509 116.242 135.783 116.516 136.121 116.516C136.458 116.516 136.732 116.242 136.732 115.904V94.3622Z" fill="#239492"/>
<path d="M250.323 91.3969C250.323 91.0593 250.049 90.7856 249.712 90.7856C249.374 90.7856 249.101 91.0593 249.101 91.3969V112.939C249.101 113.277 249.374 113.55 249.712 113.55C250.049 113.55 250.323 113.277 250.323 112.939V91.3969Z" fill="#239492"/>
<path fill-rule="evenodd" clip-rule="evenodd" d="M125.424 99.3761L224.618 156.601C225.37 157.031 224.618 158.014 223.957 157.634L124.763 100.409C124.695 100.365 124.637 100.309 124.591 100.243C124.545 100.177 124.512 100.102 124.495 100.024C124.477 99.9451 124.476 99.8639 124.49 99.7847C124.504 99.7054 124.534 99.6297 124.577 99.5619C124.621 99.4941 124.677 99.4356 124.743 99.3895C124.809 99.3435 124.883 99.3109 124.962 99.2937C125.041 99.2764 125.122 99.2748 125.201 99.289C125.28 99.3031 125.356 99.3327 125.424 99.3761Z" fill="#239492"/>
<path fill-rule="evenodd" clip-rule="evenodd" d="M224.188 157.196L292.953 117.507C293.705 117.077 292.953 116.094 292.292 116.474L223.528 156.164C223.391 156.251 223.294 156.39 223.259 156.548C223.225 156.707 223.254 156.873 223.342 157.01C223.429 157.147 223.568 157.244 223.727 157.278C223.885 157.313 224.052 157.284 224.188 157.196Z" fill="#239492"/>
<path fill-rule="evenodd" clip-rule="evenodd" d="M125.424 107.661L223.214 164.151C223.966 164.58 223.214 165.563 222.553 165.183L124.763 108.693C124.695 108.65 124.637 108.594 124.591 108.528C124.545 108.461 124.512 108.387 124.495 108.308C124.477 108.23 124.476 108.149 124.49 108.069C124.504 107.99 124.534 107.914 124.577 107.847C124.621 107.779 124.677 107.72 124.743 107.674C124.809 107.628 124.883 107.596 124.962 107.578C125.041 107.561 125.122 107.559 125.201 107.574C125.28 107.588 125.356 107.617 125.424 107.661Z" fill="#239492"/>
<path fill-rule="evenodd" clip-rule="evenodd" d="M223.486 165.15L292.994 125.032C293.746 124.594 292.994 123.619 292.333 123.999L222.784 164.151C222.659 164.247 222.576 164.387 222.552 164.543C222.528 164.699 222.565 164.858 222.656 164.987C222.747 165.116 222.884 165.205 223.038 165.236C223.193 165.266 223.354 165.236 223.486 165.15Z" fill="#239492"/>
<path fill-rule="evenodd" clip-rule="evenodd" d="M125.424 114.723L223.214 171.18C223.966 171.61 223.214 172.593 222.553 172.213L124.763 115.756C124.695 115.712 124.637 115.656 124.591 115.59C124.545 115.524 124.512 115.449 124.495 115.371C124.477 115.292 124.476 115.211 124.49 115.132C124.504 115.052 124.534 114.977 124.577 114.909C124.621 114.841 124.677 114.783 124.743 114.737C124.809 114.691 124.883 114.658 124.962 114.641C125.041 114.623 125.122 114.622 125.201 114.636C125.28 114.65 125.356 114.68 125.424 114.723Z" fill="#239492"/>
<path fill-rule="evenodd" clip-rule="evenodd" d="M223.486 172.213L292.994 132.094C293.746 131.664 292.994 130.681 292.333 131.061L222.825 171.18C222.689 171.268 222.592 171.406 222.557 171.565C222.522 171.724 222.552 171.89 222.64 172.027C222.727 172.164 222.866 172.26 223.024 172.295C223.183 172.33 223.349 172.3 223.486 172.213Z" fill="#239492"/>
<path fill-rule="evenodd" clip-rule="evenodd" d="M185.878 96.2786V100.392L220.818 45.0913V40.9696L185.878 96.2786Z" fill="#43BAB8"/>
<path fill-rule="evenodd" clip-rule="evenodd" d="M254.205 55.1768V59.2985L220.818 45.0913V40.9696L254.205 55.1768Z" fill="#43BAB8"/>
<path fill-rule="evenodd" clip-rule="evenodd" d="M245.194 88.0598L293.35 115.838C294.101 116.276 293.35 117.251 292.689 116.871L244.533 89.0923C244.396 89.0047 244.3 88.8663 244.265 88.7075C244.23 88.5487 244.26 88.3826 244.347 88.2457C244.435 88.1087 244.573 88.0122 244.732 87.9774C244.891 87.9425 245.057 87.9722 245.194 88.0598Z" fill="#239492"/>
<path fill-rule="evenodd" clip-rule="evenodd" d="M245.194 103.25L293.35 131.028C294.101 131.458 293.35 132.441 292.689 132.061L244.533 104.283C244.396 104.195 244.3 104.056 244.265 103.898C244.23 103.739 244.26 103.573 244.347 103.436C244.435 103.299 244.573 103.202 244.732 103.168C244.891 103.133 245.057 103.162 245.194 103.25Z" fill="#239492"/>
<path fill-rule="evenodd" clip-rule="evenodd" d="M245.194 96.1795L293.349 123.966C294.101 124.396 293.349 125.379 292.689 124.999L244.533 97.245C244.392 97.1574 244.291 97.0172 244.253 96.8553C244.215 96.6935 244.243 96.5231 244.33 96.3818C244.418 96.2405 244.558 96.1398 244.72 96.1019C244.882 96.0639 245.052 96.0918 245.194 96.1795Z" fill="#239492"/>
<path fill-rule="evenodd" clip-rule="evenodd" d="M125.457 108.685L139.234 100.739C139.986 100.309 139.234 99.3265 138.574 99.7064L124.812 107.653C124.692 107.745 124.609 107.879 124.582 108.029C124.555 108.178 124.584 108.333 124.665 108.462C124.745 108.591 124.871 108.685 125.018 108.727C125.164 108.768 125.321 108.753 125.457 108.685Z" fill="#239492"/>
<path fill-rule="evenodd" clip-rule="evenodd" d="M125.457 115.747L139.234 107.801C139.986 107.372 139.234 106.397 138.574 106.769L124.812 114.715C124.692 114.807 124.609 114.941 124.582 115.091C124.555 115.241 124.584 115.395 124.665 115.524C124.745 115.653 124.871 115.748 125.018 115.789C125.164 115.83 125.321 115.815 125.457 115.747Z" fill="#239492"/>
<path fill-rule="evenodd" clip-rule="evenodd" d="M125.457 100.417L139.234 92.479C139.986 92.0412 139.234 91.0665 138.574 91.4465L124.812 99.3843C124.692 99.4767 124.609 99.6108 124.582 99.7605C124.555 99.9101 124.584 100.065 124.665 100.194C124.745 100.323 124.871 100.417 125.018 100.458C125.164 100.5 125.321 100.485 125.457 100.417Z" fill="#239492"/>
<path fill-rule="evenodd" clip-rule="evenodd" d="M223.553 179.093V183.108L192.949 207.062V203.047L223.553 179.093Z" fill="#43BAB8"/>
<path d="M98.0832 148.275C98.0832 147.249 97.2511 146.417 96.2247 146.417C95.1983 146.417 94.3662 147.249 94.3662 148.275V213.537C94.3662 214.564 95.1983 215.396 96.2247 215.396C97.2511 215.396 98.0832 214.564 98.0832 213.537V148.275Z" fill="#239492"/>
<path fill-rule="evenodd" clip-rule="evenodd" d="M149.179 204.815L152.665 202.808L199.127 229.628V233.659L149.179 204.815Z" fill="#E6E6E6"/>
<path d="M192.511 204.608C192.511 203.582 191.679 202.75 190.653 202.75C189.627 202.75 188.794 203.582 188.794 204.608V269.871C188.794 270.897 189.627 271.729 190.653 271.729C191.679 271.729 192.511 270.897 192.511 269.871V204.608Z" fill="#239492"/>
<path fill-rule="evenodd" clip-rule="evenodd" d="M94.1597 146.012V150.026L192.949 207.062V203.047L94.1597 146.012Z" fill="#6BDBD9"/>
<path fill-rule="evenodd" clip-rule="evenodd" d="M271.832 224.903V228.29L300.61 182.744V179.349L271.832 224.903Z" fill="#43BAB8"/>
<path fill-rule="evenodd" clip-rule="evenodd" d="M159.818 108.9L144.38 99.9873V80.312L159.818 89.2245V108.9Z" fill="#C4FFFE"/>
<path fill-rule="evenodd" clip-rule="evenodd" d="M181.303 121.306L165.865 112.394V92.7185L181.303 101.631V121.306Z" fill="#C4FFFE"/>
<path fill-rule="evenodd" clip-rule="evenodd" d="M174.273 118.655L172.902 117.862V95.3699L174.273 96.1628V118.655Z" fill="white"/>
<path fill-rule="evenodd" clip-rule="evenodd" d="M164.766 102.713V101.127L182.409 111.312V112.898L164.766 102.713Z" fill="white"/>
<path fill-rule="evenodd" clip-rule="evenodd" d="M152.781 106.248L151.41 105.455V82.9634L152.781 83.7563V106.248Z" fill="white"/>
<path fill-rule="evenodd" clip-rule="evenodd" d="M143.273 90.3066V88.7207L160.917 98.9053V100.491L143.273 90.3066Z" fill="white"/>
<path fill-rule="evenodd" clip-rule="evenodd" d="M300.982 237.145L287.766 244.785V218.667C287.766 209.664 300.982 201.23 300.982 211.018V237.145Z" fill="#E6E6E6"/>
<path fill-rule="evenodd" clip-rule="evenodd" d="M299.362 236.211L287.741 242.918V218.667C287.741 212.191 294.58 206.013 298.429 206.69C299.12 207.681 299.449 208.88 299.362 210.085V236.211Z" fill="#C25544"/>
<path fill-rule="evenodd" clip-rule="evenodd" d="M225.584 122.091L209.13 131.59V104.282C209.13 93.0902 225.584 84.4089 225.584 95.8242V122.091Z" fill="white"/>
<path fill-rule="evenodd" clip-rule="evenodd" d="M223.982 123.016L210.766 130.665V104.497C210.766 95.4939 223.982 87.0605 223.982 96.8568V123.016Z" fill="#C4FFFE"/>
<path fill-rule="evenodd" clip-rule="evenodd" d="M216.672 125.916L218.043 125.123V92.2395L216.672 93.0325V125.916Z" fill="white"/>
<path fill-rule="evenodd" clip-rule="evenodd" d="M225.584 112.278V110.692L209.13 120.191V121.777L225.584 112.278Z" fill="white"/>
<path fill-rule="evenodd" clip-rule="evenodd" d="M225.584 100.227V98.641L209.13 108.14V109.726L225.584 100.227Z" fill="white"/>
<path fill-rule="evenodd" clip-rule="evenodd" d="M225.584 122.091V120.505L209.13 130.004V131.59L225.584 122.091Z" fill="white"/>
<path fill-rule="evenodd" clip-rule="evenodd" d="M300.973 237.145L299.354 236.211L287.741 242.918V244.785L300.973 237.145Z" fill="white"/>
<path fill-rule="evenodd" clip-rule="evenodd" d="M209.015 88.1672L225.584 78.6021V57.4813L209.015 67.0464V88.1672Z" fill="white"/>
<path fill-rule="evenodd" clip-rule="evenodd" d="M210.047 86.251L224.552 77.8753V59.3977L210.047 67.7733V86.251Z" fill="#C4FFFE"/>
<path fill-rule="evenodd" clip-rule="evenodd" d="M216.655 83.7564L217.944 83.013V61.8922L216.655 62.6356V83.7564Z" fill="white"/>
<path fill-rule="evenodd" clip-rule="evenodd" d="M225.584 68.781V67.2942L209.015 76.8675V78.3543L225.584 68.781Z" fill="white"/>
<path fill-rule="evenodd" clip-rule="evenodd" d="M158.918 30.9007L166.352 35.1876L173.786 23.5327L166.352 19.2375L158.918 30.9007Z" fill="#88F2F0"/>
<path fill-rule="evenodd" clip-rule="evenodd" d="M158.918 5.6416L166.352 9.92854V35.1876L158.918 30.9007V5.6416Z" fill="#FFAEA1"/>
<path fill-rule="evenodd" clip-rule="evenodd" d="M158.918 5.6416L166.352 9.92854V15.281L158.918 10.9858V5.6416Z" fill="#F78C7B"/>
<path fill-rule="evenodd" clip-rule="evenodd" d="M173.786 5.6416L166.352 9.92854V35.1876L173.786 23.5328V5.6416Z" fill="#E67665"/>
<path fill-rule="evenodd" clip-rule="evenodd" d="M156.589 5.64158L166.352 11.2749L176.116 5.64158L166.352 0L156.589 5.64158Z" fill="#FFDAD4"/>
<path fill-rule="evenodd" clip-rule="evenodd" d="M162.99 5.64154L166.352 7.58264L169.714 5.64154L166.352 3.70044L162.99 5.64154Z" fill="#E67665"/>
<path fill-rule="evenodd" clip-rule="evenodd" d="M162.99 5.64154L166.352 7.58264V3.70044L162.99 5.64154Z" fill="#F78C7B"/>
<path fill-rule="evenodd" clip-rule="evenodd" d="M156.589 5.6416L166.352 11.2749V13.6786L156.589 8.037V5.6416Z" fill="#FFAEA1"/>
<path fill-rule="evenodd" clip-rule="evenodd" d="M176.115 5.6416L166.352 11.2749V13.6786L176.115 8.037V5.6416Z" fill="#F78C7B"/>
<path fill-rule="evenodd" clip-rule="evenodd" d="M173.786 10.9858L166.352 15.281V35.1876L173.786 23.5328V10.9858Z" fill="#F78C7B"/>
<path fill-rule="evenodd" clip-rule="evenodd" d="M51.9924 199.892C57.7744 199.892 62.5322 198.719 62.5322 197.29C62.5322 195.861 57.7992 194.713 51.9924 194.713C46.1856 194.713 41.4526 195.886 41.4526 197.323C41.4526 198.76 46.1939 199.892 51.9924 199.892Z" fill="#43A38B"/>
<path fill-rule="evenodd" clip-rule="evenodd" d="M54.1563 188.204H49.8198V196.869C50.4977 197.189 51.2382 197.356 51.9881 197.356C52.7379 197.356 53.4785 197.189 54.1563 196.869V188.204Z" fill="#F78C7B"/>
<path fill-rule="evenodd" clip-rule="evenodd" d="M51.9922 188.204H49.8281V196.869C50.5146 197.159 51.2475 197.324 51.9922 197.356V188.204Z" fill="#FFAEA1"/>
<path fill-rule="evenodd" clip-rule="evenodd" d="M51.9923 145.343C43.7661 158.281 39.4099 173.302 39.4371 188.634C47.5806 191.389 56.4041 191.389 64.5476 188.634C63.7629 174.203 58.9555 159.773 51.9923 145.343Z" fill="#79D4BD"/>
<path fill-rule="evenodd" clip-rule="evenodd" d="M51.9923 145.343C43.7661 158.281 39.4099 173.302 39.4371 188.634C43.4948 189.96 47.7319 190.656 52.0006 190.699C53.0001 185.164 53.2809 158.121 51.9923 145.343Z" fill="#97E8D4"/>
<path fill-rule="evenodd" clip-rule="evenodd" d="M35.4724 264.32C41.2544 264.32 46.0122 263.147 46.0122 261.718C46.0122 260.289 41.2792 259.141 35.4724 259.141C29.6656 259.141 24.9326 260.314 24.9326 261.751C24.9326 263.188 29.6739 264.32 35.4724 264.32Z" fill="#43A38B"/>
<path fill-rule="evenodd" clip-rule="evenodd" d="M37.6365 246.52H33.2422V262.09C34.8033 263.205 36.2736 263.296 37.6365 262.09V246.52Z" fill="#F78C7B"/>
<path fill-rule="evenodd" clip-rule="evenodd" d="M35.4721 246.52H33.2749V262.09C33.9089 262.584 34.6717 262.885 35.4721 262.957V246.52Z" fill="#FFAEA1"/>
<path d="M35.4723 252.442C44.0897 252.442 51.0754 245.12 51.0754 236.087C51.0754 227.055 44.0897 219.733 35.4723 219.733C26.8549 219.733 19.8691 227.055 19.8691 236.087C19.8691 245.12 26.8549 252.442 35.4723 252.442Z" fill="#79D4BD"/>
<path fill-rule="evenodd" clip-rule="evenodd" d="M35.0511 219.733C26.6341 219.972 19.8774 227.167 19.8774 236.087C19.8774 245.116 26.8571 252.442 35.4723 252.442C40.0236 246.156 40.577 226.944 35.4723 219.733H35.0511Z" fill="#97E8D4"/>
<path fill-rule="evenodd" clip-rule="evenodd" d="M378.287 267.649C382.723 267.649 386.341 266.484 386.341 265.047C386.341 263.61 382.723 262.437 378.287 262.437C373.852 262.437 370.242 263.61 370.242 265.047C370.242 266.484 373.86 267.649 378.287 267.649Z" fill="#43A38B"/>
<path fill-rule="evenodd" clip-rule="evenodd" d="M380.327 250.055H376.296V264.477C377.734 265.509 379.097 265.6 380.369 264.477L380.327 250.055Z" fill="#F78C7B"/>
<path fill-rule="evenodd" clip-rule="evenodd" d="M378.287 250.055H376.296V264.477C376.879 264.944 377.585 265.231 378.328 265.303L378.287 250.055Z" fill="#FFAEA1"/>
<path fill-rule="evenodd" clip-rule="evenodd" d="M378.287 218.006C371.861 218.006 366.657 226.407 366.657 236.781C366.657 247.156 371.861 255.548 378.287 255.548C384.713 255.548 389.925 247.147 389.925 236.781C389.925 226.415 384.713 218.006 378.287 218.006Z" fill="#79D4BD"/>
<path fill-rule="evenodd" clip-rule="evenodd" d="M377.948 218.014C371.671 218.287 366.632 226.58 366.632 236.781C366.632 247.147 371.836 255.548 378.262 255.548C381.657 248.337 382.07 226.291 378.262 218.006L377.948 218.014Z" fill="#97E8D4"/>
<path fill-rule="evenodd" clip-rule="evenodd" d="M94.1597 146.012L192.949 203.047L223.553 179.093L124.763 122.058L94.1597 146.012Z" fill="#88F2F0"/>
<path fill-rule="evenodd" clip-rule="evenodd" d="M336.979 309.238C342.761 309.238 347.519 308.065 347.519 306.636C347.519 305.207 342.777 304.026 336.979 304.026C331.18 304.026 326.439 305.199 326.439 306.636C326.439 308.073 331.172 309.238 336.979 309.238Z" fill="#43A38B"/>
<path fill-rule="evenodd" clip-rule="evenodd" d="M339.126 297.55H334.79V306.223C335.467 306.544 336.208 306.71 336.958 306.71C337.708 306.71 338.448 306.544 339.126 306.223V297.55Z" fill="#F78C7B"/>
<path fill-rule="evenodd" clip-rule="evenodd" d="M336.979 297.55H334.806V306.223C335.494 306.517 336.231 306.683 336.979 306.71V297.55Z" fill="#FFAEA1"/>
<path fill-rule="evenodd" clip-rule="evenodd" d="M336.979 254.689C328.748 267.619 324.392 282.635 324.424 297.963C332.567 300.718 341.391 300.718 349.534 297.963C348.741 283.549 343.934 269.119 336.979 254.689Z" fill="#79D4BD"/>
<path fill-rule="evenodd" clip-rule="evenodd" d="M336.979 254.689C328.748 267.619 324.392 282.635 324.424 297.963C328.478 299.289 332.713 299.986 336.979 300.028C337.986 294.51 338.3 267.467 336.979 254.689Z" fill="#97E8D4"/>
<path fill-rule="evenodd" clip-rule="evenodd" d="M357.042 194.713C362.824 194.713 367.582 193.54 367.582 192.103C367.582 190.666 362.849 189.501 357.042 189.501C351.235 189.501 346.502 190.674 346.502 192.103C346.502 193.532 351.235 194.713 357.042 194.713Z" fill="#43A38B"/>
<path fill-rule="evenodd" clip-rule="evenodd" d="M359.239 176.937H354.82V192.507C356.381 193.631 357.852 193.722 359.215 192.507L359.239 176.937Z" fill="#F78C7B"/>
<path fill-rule="evenodd" clip-rule="evenodd" d="M357.042 176.937H354.82V192.507C355.452 193.007 356.215 193.312 357.018 193.383L357.042 176.937Z" fill="#FFAEA1"/>
<path d="M357.043 182.86C365.66 182.86 372.646 175.538 372.646 166.505C372.646 157.473 365.66 150.15 357.043 150.15C348.425 150.15 341.439 157.473 341.439 166.505C341.439 175.538 348.425 182.86 357.043 182.86Z" fill="#79D4BD"/>
<path fill-rule="evenodd" clip-rule="evenodd" d="M356.621 150.159C348.204 150.398 341.447 157.593 341.447 166.505C341.447 175.542 348.427 182.86 357.042 182.86C361.593 176.582 362.147 157.37 357.042 150.15L356.621 150.159Z" fill="#97E8D4"/>
<path fill-rule="evenodd" clip-rule="evenodd" d="M151.797 287.332C156.82 287.332 160.883 286.002 160.883 284.375C160.883 282.748 156.753 281.426 151.797 281.426C146.841 281.426 142.711 282.748 142.711 284.375C142.711 286.002 146.784 287.332 151.797 287.332Z" fill="#43A38B"/>
<path fill-rule="evenodd" clip-rule="evenodd" d="M154.102 267.401H149.493V283.731C151.145 284.904 152.673 285.003 154.102 283.731V267.401Z" fill="#F78C7B"/>
<path fill-rule="evenodd" clip-rule="evenodd" d="M151.798 267.401H149.493V283.731C150.156 284.254 150.957 284.573 151.798 284.648V267.401Z" fill="#FFAEA1"/>
<path fill-rule="evenodd" clip-rule="evenodd" d="M151.798 231.107C144.52 231.107 138.582 240.622 138.582 252.368C138.582 264.114 144.479 273.621 151.798 273.621C159.116 273.621 165.014 264.105 165.014 252.368C165.014 240.63 159.058 231.107 151.798 231.107Z" fill="#79D4BD"/>
<path fill-rule="evenodd" clip-rule="evenodd" d="M151.443 231.115C144.331 231.42 138.623 240.812 138.623 252.368C138.623 264.105 144.521 273.621 151.839 273.621C155.688 265.452 156.151 240.49 151.839 231.107L151.443 231.115Z" fill="#97E8D4"/>
<path fill-rule="evenodd" clip-rule="evenodd" d="M327.166 128.732C332.948 128.732 337.706 127.559 337.706 126.13C337.706 124.701 332.964 123.52 327.166 123.52C321.367 123.52 316.626 124.693 316.626 126.13C316.626 127.567 321.359 128.732 327.166 128.732Z" fill="#43A38B"/>
<path fill-rule="evenodd" clip-rule="evenodd" d="M329.33 117.069H324.994V125.734C325.672 126.054 326.412 126.221 327.162 126.221C327.912 126.221 328.652 126.054 329.33 125.734V117.069Z" fill="#F78C7B"/>
<path fill-rule="evenodd" clip-rule="evenodd" d="M327.166 117.069H324.994V125.734C325.682 126.028 326.418 126.193 327.166 126.221V117.069Z" fill="#FFAEA1"/>
<path fill-rule="evenodd" clip-rule="evenodd" d="M327.166 74.1831C318.932 87.1182 314.576 102.141 314.611 117.474C322.754 120.229 331.578 120.229 339.721 117.474C338.928 103.027 334.121 88.6133 327.166 74.1831Z" fill="#79D4BD"/>
<path fill-rule="evenodd" clip-rule="evenodd" d="M327.166 74.1831C318.932 87.1182 314.576 102.141 314.611 117.474C318.665 118.8 322.9 119.497 327.166 119.539C328.174 114.005 328.446 86.9696 327.166 74.1831Z" fill="#97E8D4"/>
<path fill-rule="evenodd" clip-rule="evenodd" d="M88.906 126.981C94.688 126.981 99.4457 125.808 99.4457 124.371C99.4457 122.934 94.7045 121.769 88.906 121.769C83.1075 121.769 78.3662 122.934 78.3662 124.371C78.3662 125.808 83.0662 126.981 88.906 126.981Z" fill="#43A38B"/>
<path fill-rule="evenodd" clip-rule="evenodd" d="M91.1033 109.131H86.709V124.701C88.2619 125.816 89.7322 125.915 91.1033 124.701V109.131Z" fill="#F78C7B"/>
<path fill-rule="evenodd" clip-rule="evenodd" d="M88.9062 109.131H86.709V124.701C87.3404 125.201 88.1041 125.505 88.9062 125.577V109.131Z" fill="#FFAEA1"/>
<path d="M88.8976 115.053C97.5149 115.053 104.501 107.731 104.501 98.6987C104.501 89.6662 97.5149 82.3439 88.8976 82.3439C80.2802 82.3439 73.2944 89.6662 73.2944 98.6987C73.2944 107.731 80.2802 115.053 88.8976 115.053Z" fill="#79D4BD"/>
<path fill-rule="evenodd" clip-rule="evenodd" d="M88.4768 82.3769C80.0599 82.6082 73.3032 89.8109 73.3032 98.7234C73.3032 107.76 80.2829 115.078 88.9064 115.078C93.4494 108.801 94.0028 89.5879 88.9064 82.3687L88.4768 82.3769Z" fill="#97E8D4"/>
</g>
<g clip-path="url(#clip1_251_3968)">
<path fill-rule="evenodd" clip-rule="evenodd" d="M73.6598 203.24L124.81 235.4L81.4598 304.35L28.7798 274.63L73.6598 203.24Z" fill="#FFD7B7"/>
<path fill-rule="evenodd" clip-rule="evenodd" d="M51.2202 238.94L100.31 269.79L124.81 235.4L182.69 191.73L109.72 145.86L51.2202 238.94Z" fill="#F7C9A3"/>
<path d="M48.5063 230.293L36.3203 249.681L99.0831 289.129L111.269 269.74L48.5063 230.293Z" fill="white"/>
<path fill-rule="evenodd" clip-rule="evenodd" d="M98.35 304.35L105.36 293.11L30.08 245.79L0 293.25V304.35H98.35Z" fill="#DBB16D"/>
<path fill-rule="evenodd" clip-rule="evenodd" d="M92.2801 204.1L98.5502 208.05L102.74 199.86L136.47 134.13C143.47 120.46 135.78 113.13 127.58 108L87.7602 185.58C84.4202 192.1 86.4501 200.44 92.2801 204.1Z" fill="#F7C9A3"/>
<path fill-rule="evenodd" clip-rule="evenodd" d="M130.71 110.11C129.71 109.37 128.64 108.66 127.58 108L118.72 125.25C125.32 126.92 128.67 116.77 130.71 110.11Z" fill="#FFF2E8"/>
</g>
<g clip-path="url(#clip2_251_3968)">
<path d="M297.22 131H110.78C103.722 131 98 136.722 98 143.78V268.61C98 275.668 103.722 281.39 110.78 281.39H297.22C304.278 281.39 310 275.668 310 268.61V143.78C310 136.722 304.278 131 297.22 131Z" fill="#F3F3F3"/>
<path d="M106.17 189.89C106.17 189.001 105.449 188.28 104.56 188.28C103.671 188.28 102.95 189.001 102.95 189.89V222.5C102.95 223.389 103.671 224.11 104.56 224.11C105.449 224.11 106.17 223.389 106.17 222.5V189.89Z" fill="#7F7F7F"/>
<path fill-rule="evenodd" clip-rule="evenodd" d="M294.19 206.19C294.192 205.117 294.512 204.068 295.11 203.176C295.708 202.284 296.557 201.59 297.549 201.181C298.541 200.771 299.633 200.665 300.685 200.876C301.738 201.086 302.705 201.604 303.463 202.364C304.221 203.124 304.738 204.091 304.946 205.144C305.155 206.198 305.047 207.289 304.636 208.28C304.224 209.272 303.528 210.12 302.636 210.716C301.743 211.312 300.693 211.63 299.62 211.63C298.906 211.63 298.199 211.489 297.54 211.216C296.88 210.942 296.281 210.541 295.777 210.036C295.272 209.531 294.873 208.931 294.6 208.271C294.328 207.611 294.189 206.904 294.19 206.19Z" fill="#7F7F7F"/>
</g>
<g clip-path="url(#clip3_251_3968)">
<rect width="163" height="128.229" transform="translate(123 142)" fill="#BABABA"/>
<path fill-rule="evenodd" clip-rule="evenodd" d="M146.391 222.604L199.232 253.111L248.168 224.856L195.33 194.349L146.391 222.604Z" fill="white"/>
<path fill-rule="evenodd" clip-rule="evenodd" d="M203.907 237.14L228.725 251.468L258.257 234.418L233.439 220.087L203.907 237.14Z" fill="white"/>
<path fill-rule="evenodd" clip-rule="evenodd" d="M136.457 270.226L198.828 234.219L179.114 222.835L123 255.236V270.226H136.457Z" fill="white"/>
<path fill-rule="evenodd" clip-rule="evenodd" d="M153.318 226.6L192.294 249.104L208.467 239.781L169.491 217.28L153.318 226.6Z" fill="#E6E6E6"/>
<path fill-rule="evenodd" clip-rule="evenodd" d="M286 269.482L237.195 241.303L243.689 237.554L286 261.981V269.482Z" fill="white"/>
<path fill-rule="evenodd" clip-rule="evenodd" d="M208.467 239.781L169.478 217.27V190.173L208.467 212.683V239.781Z" fill="#FFAEA1"/>
<path fill-rule="evenodd" clip-rule="evenodd" d="M236.302 223.712L208.468 239.781V212.683L236.302 196.615V223.712Z" fill="#F78C7B"/>
<path fill-rule="evenodd" clip-rule="evenodd" d="M169.478 190.173L208.467 212.683L236.301 196.615L197.308 174.105L169.478 190.173Z" fill="#FFDAD4"/>
<path fill-rule="evenodd" clip-rule="evenodd" d="M194.827 198.522L174.922 187.03V165.234L194.827 176.726V198.522Z" fill="#FFAEA1"/>
<path fill-rule="evenodd" clip-rule="evenodd" d="M192.229 190.682L185.266 186.662V177.788L192.229 181.808V190.682Z" fill="white"/>
<path fill-rule="evenodd" clip-rule="evenodd" d="M183.747 185.785L176.784 181.766V172.889L183.747 176.911V185.785Z" fill="white"/>
<path fill-rule="evenodd" clip-rule="evenodd" d="M217.217 185.599L194.828 198.522V176.729L217.217 163.803V185.599Z" fill="#F78C7B"/>
<path fill-rule="evenodd" clip-rule="evenodd" d="M225.563 243.367L213.912 236.638V219.771L225.563 226.496V243.367Z" fill="#FFAEA1"/>
<path fill-rule="evenodd" clip-rule="evenodd" d="M223.007 236.504L216.468 232.729V224.39L223.007 228.168V236.504Z" fill="white"/>
<path fill-rule="evenodd" clip-rule="evenodd" d="M222.6 235.748L216.875 232.442V225.15L222.6 228.452V235.748Z" fill="#C4FFFE"/>
<path fill-rule="evenodd" clip-rule="evenodd" d="M219.991 234.763L219.483 234.47V226.131L219.991 226.428V234.763Z" fill="white"/>
<path fill-rule="evenodd" clip-rule="evenodd" d="M216.468 228.853V228.266L223.007 232.041V232.628L216.468 228.853Z" fill="white"/>
<path fill-rule="evenodd" clip-rule="evenodd" d="M244.223 232.592L225.563 243.367V226.496L244.223 215.722V232.592Z" fill="#F78C7B"/>
<path fill-rule="evenodd" clip-rule="evenodd" d="M180.49 222.043L179.115 222.835V206.255L180.49 207.047V222.043Z" fill="#F78C7B"/>
<path fill-rule="evenodd" clip-rule="evenodd" d="M180.49 222.043L198.828 232.628V217.635L180.49 207.047V222.043Z" fill="#E6E6E6"/>
<path fill-rule="evenodd" clip-rule="evenodd" d="M198.828 231.855L180.49 221.267V220.625L198.828 231.213V231.855Z" fill="#CCCCCC"/>
<path fill-rule="evenodd" clip-rule="evenodd" d="M198.828 230.066L180.49 219.48V218.838L198.828 229.427V230.066Z" fill="#CCCCCC"/>
<path fill-rule="evenodd" clip-rule="evenodd" d="M198.828 228.282L180.49 217.694V217.052L198.828 227.64V228.282Z" fill="#CCCCCC"/>
<path fill-rule="evenodd" clip-rule="evenodd" d="M198.828 226.493L180.49 215.908V215.265L198.828 225.854V226.493Z" fill="#CCCCCC"/>
<path fill-rule="evenodd" clip-rule="evenodd" d="M198.828 224.706L180.49 214.121V213.479L198.828 224.067V224.706Z" fill="#CCCCCC"/>
<path fill-rule="evenodd" clip-rule="evenodd" d="M198.828 222.92L180.49 212.335V211.692L198.828 222.281V222.92Z" fill="#CCCCCC"/>
<path fill-rule="evenodd" clip-rule="evenodd" d="M198.828 221.133L180.49 210.548V209.906L198.828 220.494V221.133Z" fill="#CCCCCC"/>
<path fill-rule="evenodd" clip-rule="evenodd" d="M198.828 219.347L180.49 208.762V208.119L198.828 218.708V219.347Z" fill="#CCCCCC"/>
<path fill-rule="evenodd" clip-rule="evenodd" d="M206.022 159.008L194.828 176.729L217.217 163.803L206.022 159.008Z" fill="#F78C7B"/>
<path fill-rule="evenodd" clip-rule="evenodd" d="M172.327 167.715L193.599 179.999L207.388 158.17L186.117 145.889L172.327 167.715Z" fill="#88F2F0"/>
<path fill-rule="evenodd" clip-rule="evenodd" d="M172.327 167.715V169.342L193.599 181.622V179.999L172.327 167.715Z" fill="#6BDBD9"/>
<path fill-rule="evenodd" clip-rule="evenodd" d="M199.294 151.496L220.565 163.777L207.388 158.17L186.117 145.889L199.294 151.496Z" fill="#6BDBD9"/>
<path fill-rule="evenodd" clip-rule="evenodd" d="M234.851 211.78L225.563 226.496L244.223 215.722L234.851 211.78Z" fill="#F78C7B"/>
<path fill-rule="evenodd" clip-rule="evenodd" d="M212.559 222.124L227.522 230.763L238.88 212.784L223.916 204.145L212.559 222.124Z" fill="#88F2F0"/>
<path fill-rule="evenodd" clip-rule="evenodd" d="M212.559 222.124V223.461L227.522 232.1V230.763L212.559 222.124Z" fill="#6BDBD9"/>
<path fill-rule="evenodd" clip-rule="evenodd" d="M249.732 217.384V218.724L238.88 214.105V212.765L249.732 217.384Z" fill="#43BAB8"/>
<path fill-rule="evenodd" clip-rule="evenodd" d="M234.681 208.71L249.645 217.349L238.792 212.729L223.829 204.09L234.681 208.71Z" fill="#6BDBD9"/>
<path fill-rule="evenodd" clip-rule="evenodd" d="M239.659 235.226L233.165 238.979V228.198C233.165 223.78 239.659 220.354 239.659 224.86V235.226Z" fill="white"/>
<path d="M221.843 179.767C221.843 179.634 221.735 179.526 221.602 179.526C221.469 179.526 221.361 179.634 221.361 179.767V188.269C221.361 188.402 221.469 188.51 221.602 188.51C221.735 188.51 221.843 188.402 221.843 188.269V179.767Z" fill="#239492"/>
<path d="M224.702 181.417C224.702 181.284 224.594 181.176 224.461 181.176C224.328 181.176 224.22 181.284 224.22 181.417V189.919C224.22 190.052 224.328 190.16 224.461 190.16C224.594 190.16 224.702 190.052 224.702 189.919V181.417Z" fill="#239492"/>
<path d="M227.307 182.923C227.307 182.79 227.199 182.682 227.066 182.682C226.933 182.682 226.825 182.79 226.825 182.923V191.425C226.825 191.558 226.933 191.666 227.066 191.666C227.199 191.666 227.307 191.558 227.307 191.425V182.923Z" fill="#239492"/>
<path d="M229.915 184.429C229.915 184.296 229.807 184.188 229.674 184.188C229.541 184.188 229.433 184.296 229.433 184.429V192.931C229.433 193.064 229.541 193.172 229.674 193.172C229.807 193.172 229.915 193.064 229.915 192.931V184.429Z" fill="#239492"/>
<path d="M232.523 185.935C232.523 185.802 232.415 185.694 232.282 185.694C232.149 185.694 232.041 185.802 232.041 185.935V194.437C232.041 194.571 232.149 194.679 232.282 194.679C232.415 194.679 232.523 194.571 232.523 194.437V185.935Z" fill="#239492"/>
<path d="M235.131 187.441C235.131 187.308 235.023 187.2 234.89 187.2C234.756 187.2 234.648 187.308 234.648 187.441V195.943C234.648 196.077 234.756 196.185 234.89 196.185C235.023 196.185 235.131 196.077 235.131 195.943V187.441Z" fill="#239492"/>
<path d="M233.987 189.449C233.987 189.316 233.879 189.208 233.746 189.208C233.612 189.208 233.504 189.316 233.504 189.449V197.951C233.504 198.085 233.612 198.193 233.746 198.193C233.879 198.193 233.987 198.085 233.987 197.951V189.449Z" fill="#239492"/>
<path d="M230.701 190.757H230.697C230.564 190.757 230.456 190.865 230.456 190.998V199.5C230.456 199.633 230.564 199.741 230.697 199.741H230.701C230.834 199.741 230.942 199.633 230.942 199.5V190.998C230.942 190.865 230.834 190.757 230.701 190.757Z" fill="#239492"/>
<path d="M228.428 192.599C228.428 192.465 228.32 192.357 228.187 192.357C228.054 192.357 227.946 192.465 227.946 192.599V201.101C227.946 201.234 228.054 201.342 228.187 201.342C228.32 201.342 228.428 201.234 228.428 201.101V192.599Z" fill="#239492"/>
<path d="M225.915 193.984C225.915 193.851 225.807 193.743 225.674 193.743C225.541 193.743 225.433 193.851 225.433 193.984V202.486C225.433 202.619 225.541 202.727 225.674 202.727C225.807 202.727 225.915 202.619 225.915 202.486V193.984Z" fill="#239492"/>
<path d="M223.212 195.288H223.209C223.076 195.288 222.968 195.396 222.968 195.529V204.031C222.968 204.165 223.076 204.273 223.209 204.273H223.212C223.346 204.273 223.454 204.165 223.454 204.031V195.529C223.454 195.396 223.346 195.288 223.212 195.288Z" fill="#239492"/>
<path d="M220.895 196.869C220.895 196.736 220.787 196.628 220.653 196.628C220.52 196.628 220.412 196.736 220.412 196.869V205.371C220.412 205.504 220.52 205.612 220.653 205.612C220.787 205.612 220.895 205.504 220.895 205.371V196.869Z" fill="#239492"/>
<path d="M218.12 198.46C218.12 198.327 218.012 198.219 217.879 198.219C217.746 198.219 217.638 198.327 217.638 198.46V206.962C217.638 207.095 217.746 207.203 217.879 207.203C218.012 207.203 218.12 207.095 218.12 206.962V198.46Z" fill="#239492"/>
<path d="M215.281 200.136C215.281 200.002 215.173 199.894 215.04 199.894C214.906 199.894 214.798 200.002 214.798 200.136V208.638C214.798 208.771 214.906 208.879 215.04 208.879C215.173 208.879 215.281 208.771 215.281 208.638V200.136Z" fill="#239492"/>
<path d="M212.34 201.815C212.34 201.681 212.232 201.573 212.099 201.573C211.966 201.573 211.858 201.681 211.858 201.815V210.317C211.858 210.45 211.966 210.558 212.099 210.558C212.232 210.558 212.34 210.45 212.34 210.317V201.815Z" fill="#239492"/>
<path d="M209.465 203.451C209.465 203.318 209.357 203.21 209.224 203.21C209.09 203.21 208.982 203.318 208.982 203.451V211.953C208.982 212.086 209.09 212.194 209.224 212.194C209.357 212.194 209.465 212.086 209.465 211.953V203.451Z" fill="#239492"/>
<path d="M207.115 203.083C207.115 202.949 207.007 202.841 206.874 202.841C206.74 202.841 206.632 202.949 206.632 203.083V211.585C206.632 211.718 206.74 211.826 206.874 211.826C207.007 211.826 207.115 211.718 207.115 211.585V203.083Z" fill="#239492"/>
<path d="M204.611 201.495C204.611 201.362 204.503 201.254 204.37 201.254C204.236 201.254 204.128 201.362 204.128 201.495V209.997C204.128 210.13 204.236 210.238 204.37 210.238C204.503 210.238 204.611 210.13 204.611 209.997V201.495Z" fill="#239492"/>
<path d="M201.934 200.051C201.934 199.918 201.826 199.81 201.693 199.81C201.56 199.81 201.452 199.918 201.452 200.051V208.553C201.452 208.686 201.56 208.794 201.693 208.794C201.826 208.794 201.934 208.686 201.934 208.553V200.051Z" fill="#239492"/>
<path d="M199.091 198.359C199.091 198.226 198.983 198.118 198.85 198.118C198.717 198.118 198.609 198.226 198.609 198.359V206.861C198.609 206.994 198.717 207.102 198.85 207.102C198.983 207.102 199.091 206.994 199.091 206.861V198.359Z" fill="#239492"/>
<path d="M196.193 196.693C196.193 196.56 196.085 196.452 195.952 196.452C195.819 196.452 195.711 196.56 195.711 196.693V205.195C195.711 205.328 195.819 205.436 195.952 205.436C196.085 205.436 196.193 205.328 196.193 205.195V196.693Z" fill="#239492"/>
<path d="M193.295 195.027C193.295 194.894 193.187 194.786 193.054 194.786C192.921 194.786 192.813 194.894 192.813 195.027V203.529C192.813 203.663 192.921 203.771 193.054 203.771C193.187 203.771 193.295 203.663 193.295 203.529V195.027Z" fill="#239492"/>
<path d="M190.394 193.299C190.394 193.166 190.286 193.058 190.153 193.058C190.02 193.058 189.912 193.166 189.912 193.299V201.802C189.912 201.935 190.02 202.043 190.153 202.043C190.286 202.043 190.394 201.935 190.394 201.802V193.299Z" fill="#239492"/>
<path d="M187.496 191.679C187.496 191.546 187.388 191.438 187.254 191.438C187.121 191.438 187.013 191.546 187.013 191.679V200.181C187.013 200.315 187.121 200.423 187.254 200.423C187.388 200.423 187.496 200.315 187.496 200.181V191.679Z" fill="#239492"/>
<path d="M184.594 189.932C184.594 189.799 184.486 189.691 184.353 189.691C184.22 189.691 184.112 189.799 184.112 189.932V198.434C184.112 198.567 184.22 198.675 184.353 198.675C184.486 198.675 184.594 198.567 184.594 198.434V189.932Z" fill="#239492"/>
<path d="M181.696 188.331C181.696 188.198 181.588 188.09 181.455 188.09C181.322 188.09 181.214 188.198 181.214 188.331V196.833C181.214 196.967 181.322 197.075 181.455 197.075C181.588 197.075 181.696 196.967 181.696 196.833V188.331Z" fill="#239492"/>
<path d="M178.798 186.574C178.798 186.441 178.69 186.333 178.557 186.333C178.424 186.333 178.316 186.441 178.316 186.574V195.076C178.316 195.209 178.424 195.317 178.557 195.317C178.69 195.317 178.798 195.209 178.798 195.076V186.574Z" fill="#239492"/>
<path d="M175.897 184.905C175.897 184.772 175.789 184.664 175.655 184.664C175.522 184.664 175.414 184.772 175.414 184.905V193.407C175.414 193.54 175.522 193.648 175.655 193.648C175.789 193.648 175.897 193.54 175.897 193.407V184.905Z" fill="#239492"/>
<path d="M172.999 183.154C172.999 183.021 172.891 182.913 172.758 182.913C172.625 182.913 172.517 183.021 172.517 183.154V191.656C172.517 191.79 172.625 191.898 172.758 191.898C172.891 191.898 172.999 191.79 172.999 191.656V183.154Z" fill="#239492"/>
<path d="M171.102 181.061C171.102 180.928 170.994 180.82 170.86 180.82C170.727 180.82 170.619 180.928 170.619 181.061V189.564C170.619 189.697 170.727 189.805 170.86 189.805C170.994 189.805 171.102 189.697 171.102 189.564V181.061Z" fill="#239492"/>
<path d="M174.202 179.242C174.202 179.109 174.094 179.001 173.96 179.001C173.827 179.001 173.719 179.109 173.719 179.242V187.744C173.719 187.878 173.827 187.986 173.96 187.986C174.094 187.986 174.202 187.878 174.202 187.744V179.242Z" fill="#239492"/>
<path d="M219.033 178.072C219.033 177.939 218.925 177.831 218.792 177.831C218.658 177.831 218.55 177.939 218.55 178.072V186.574C218.55 186.707 218.658 186.815 218.792 186.815C218.925 186.815 219.033 186.707 219.033 186.574V178.072Z" fill="#239492"/>
<path fill-rule="evenodd" clip-rule="evenodd" d="M169.739 181.221L208.888 203.806C209.185 203.976 208.888 204.364 208.627 204.214L169.478 181.629C169.451 181.612 169.428 181.589 169.41 181.563C169.392 181.537 169.379 181.508 169.372 181.477C169.365 181.446 169.364 181.414 169.37 181.382C169.376 181.351 169.387 181.321 169.404 181.294C169.421 181.268 169.444 181.245 169.47 181.226C169.496 181.208 169.525 181.195 169.556 181.189C169.587 181.182 169.619 181.181 169.651 181.187C169.682 181.192 169.712 181.204 169.739 181.221Z" fill="#239492"/>
<path fill-rule="evenodd" clip-rule="evenodd" d="M208.718 204.041L235.858 188.377C236.155 188.207 235.858 187.819 235.597 187.969L208.458 203.634C208.404 203.668 208.366 203.723 208.352 203.786C208.338 203.848 208.35 203.914 208.384 203.968C208.419 204.022 208.474 204.06 208.536 204.074C208.599 204.087 208.664 204.076 208.718 204.041Z" fill="#239492"/>
<path fill-rule="evenodd" clip-rule="evenodd" d="M169.739 184.491L208.334 206.786C208.63 206.956 208.334 207.344 208.073 207.194L169.478 184.898C169.451 184.881 169.428 184.859 169.41 184.833C169.392 184.807 169.379 184.778 169.372 184.747C169.365 184.716 169.364 184.683 169.37 184.652C169.376 184.621 169.387 184.591 169.404 184.564C169.421 184.538 169.444 184.514 169.47 184.496C169.496 184.478 169.525 184.465 169.556 184.458C169.587 184.452 169.619 184.451 169.651 184.457C169.682 184.462 169.712 184.474 169.739 184.491Z" fill="#239492"/>
<path fill-rule="evenodd" clip-rule="evenodd" d="M208.441 207.18L235.874 191.347C236.171 191.174 235.874 190.789 235.613 190.939L208.164 206.786C208.115 206.824 208.082 206.879 208.073 206.941C208.063 207.002 208.078 207.065 208.114 207.116C208.149 207.167 208.204 207.202 208.265 207.214C208.326 207.226 208.389 207.214 208.441 207.18Z" fill="#239492"/>
<path fill-rule="evenodd" clip-rule="evenodd" d="M169.739 187.278L208.334 209.56C208.63 209.73 208.334 210.118 208.073 209.968L169.478 187.686C169.451 187.669 169.428 187.646 169.41 187.62C169.392 187.594 169.379 187.565 169.372 187.534C169.365 187.503 169.364 187.471 169.37 187.44C169.376 187.408 169.387 187.378 169.404 187.352C169.421 187.325 169.444 187.302 169.47 187.284C169.496 187.265 169.525 187.253 169.556 187.246C169.587 187.239 169.619 187.238 169.651 187.244C169.682 187.249 169.712 187.261 169.739 187.278Z" fill="#239492"/>
<path fill-rule="evenodd" clip-rule="evenodd" d="M208.441 209.968L235.874 194.134C236.171 193.965 235.874 193.577 235.613 193.727L208.18 209.56C208.126 209.595 208.088 209.65 208.074 209.712C208.061 209.775 208.072 209.84 208.107 209.895C208.142 209.949 208.196 209.987 208.259 210C208.322 210.014 208.387 210.002 208.441 209.968Z" fill="#239492"/>
<path fill-rule="evenodd" clip-rule="evenodd" d="M193.599 179.999V181.622L207.388 159.796V158.17L193.599 179.999Z" fill="#43BAB8"/>
<path fill-rule="evenodd" clip-rule="evenodd" d="M220.565 163.777V165.404L207.388 159.796V158.17L220.565 163.777Z" fill="#43BAB8"/>
<path fill-rule="evenodd" clip-rule="evenodd" d="M217.009 176.755L236.014 187.718C236.311 187.891 236.014 188.276 235.754 188.126L216.748 177.162C216.694 177.128 216.656 177.073 216.642 177.011C216.628 176.948 216.64 176.882 216.674 176.828C216.709 176.774 216.764 176.736 216.826 176.722C216.889 176.709 216.955 176.72 217.009 176.755Z" fill="#239492"/>
<path fill-rule="evenodd" clip-rule="evenodd" d="M217.009 182.75L236.014 193.713C236.311 193.883 236.014 194.271 235.754 194.121L216.748 183.158C216.694 183.123 216.656 183.068 216.642 183.006C216.628 182.943 216.64 182.877 216.674 182.823C216.709 182.769 216.764 182.731 216.826 182.718C216.889 182.704 216.955 182.715 217.009 182.75Z" fill="#239492"/>
<path fill-rule="evenodd" clip-rule="evenodd" d="M217.009 179.96L236.014 190.926C236.311 191.096 236.014 191.484 235.754 191.334L216.748 180.38C216.692 180.345 216.652 180.29 216.637 180.226C216.622 180.162 216.633 180.095 216.668 180.039C216.703 179.984 216.758 179.944 216.822 179.929C216.886 179.914 216.953 179.925 217.009 179.96Z" fill="#239492"/>
<path fill-rule="evenodd" clip-rule="evenodd" d="M169.751 184.895L175.189 181.759C175.486 181.59 175.189 181.202 174.928 181.352L169.497 184.488C169.449 184.524 169.417 184.577 169.406 184.636C169.395 184.695 169.407 184.756 169.439 184.807C169.471 184.858 169.52 184.895 169.578 184.912C169.636 184.928 169.698 184.922 169.751 184.895Z" fill="#239492"/>
<path fill-rule="evenodd" clip-rule="evenodd" d="M169.751 187.682L175.189 184.546C175.486 184.377 175.189 183.992 174.928 184.139L169.497 187.275C169.449 187.311 169.417 187.364 169.406 187.423C169.395 187.482 169.407 187.543 169.439 187.594C169.471 187.645 169.52 187.682 169.578 187.699C169.636 187.715 169.698 187.709 169.751 187.682Z" fill="#239492"/>
<path fill-rule="evenodd" clip-rule="evenodd" d="M169.751 181.632L175.189 178.499C175.486 178.326 175.189 177.942 174.928 178.091L169.497 181.224C169.449 181.261 169.417 181.314 169.406 181.373C169.395 181.432 169.407 181.493 169.439 181.544C169.471 181.595 169.52 181.632 169.578 181.648C169.636 181.665 169.698 181.659 169.751 181.632Z" fill="#239492"/>
<path fill-rule="evenodd" clip-rule="evenodd" d="M208.467 212.683V214.268L196.389 223.722V222.137L208.467 212.683Z" fill="#43BAB8"/>
<path d="M158.948 200.52C158.948 200.115 158.62 199.787 158.214 199.787C157.809 199.787 157.481 200.115 157.481 200.52V226.278C157.481 226.683 157.809 227.011 158.214 227.011C158.62 227.011 158.948 226.683 158.948 226.278V200.52Z" fill="#239492"/>
<path fill-rule="evenodd" clip-rule="evenodd" d="M179.115 222.835L180.49 222.043L198.828 232.628V234.219L179.115 222.835Z" fill="#E6E6E6"/>
<path d="M196.217 222.754C196.217 222.348 195.888 222.02 195.483 222.02C195.078 222.02 194.75 222.348 194.75 222.754V248.511C194.75 248.916 195.078 249.244 195.483 249.244C195.888 249.244 196.217 248.916 196.217 248.511V222.754Z" fill="#239492"/>
<path fill-rule="evenodd" clip-rule="evenodd" d="M157.399 199.627V201.211L196.389 223.722V222.137L157.399 199.627Z" fill="#6BDBD9"/>
<path fill-rule="evenodd" clip-rule="evenodd" d="M227.522 230.763V232.1L238.88 214.124V212.784L227.522 230.763Z" fill="#43BAB8"/>
<path fill-rule="evenodd" clip-rule="evenodd" d="M183.313 184.98L177.22 181.462V173.697L183.313 177.215V184.98Z" fill="#C4FFFE"/>
<path fill-rule="evenodd" clip-rule="evenodd" d="M191.793 189.876L185.7 186.359V178.594L191.793 182.111V189.876Z" fill="#C4FFFE"/>
<path fill-rule="evenodd" clip-rule="evenodd" d="M189.018 188.83L188.477 188.517V179.64L189.018 179.953V188.83Z" fill="white"/>
<path fill-rule="evenodd" clip-rule="evenodd" d="M185.266 182.538V181.912L192.229 185.932V186.558L185.266 182.538Z" fill="white"/>
<path fill-rule="evenodd" clip-rule="evenodd" d="M180.536 183.933L179.995 183.621V174.744L180.536 175.056V183.933Z" fill="white"/>
<path fill-rule="evenodd" clip-rule="evenodd" d="M176.784 177.642V177.016L183.747 181.035V181.661L176.784 177.642Z" fill="white"/>
<path fill-rule="evenodd" clip-rule="evenodd" d="M239.027 235.595L233.811 238.61V228.302C233.811 224.749 239.027 221.42 239.027 225.283V235.595Z" fill="#E6E6E6"/>
<path fill-rule="evenodd" clip-rule="evenodd" d="M238.388 235.226L233.801 237.873V228.302C233.801 225.746 236.5 223.308 238.019 223.575C238.292 223.966 238.422 224.439 238.388 224.915V235.226Z" fill="#C25544"/>
<path fill-rule="evenodd" clip-rule="evenodd" d="M209.269 190.186L202.775 193.935V183.158C202.775 178.74 209.269 175.314 209.269 179.819V190.186Z" fill="white"/>
<path fill-rule="evenodd" clip-rule="evenodd" d="M208.637 190.551L203.421 193.57V183.242C203.421 179.689 208.637 176.36 208.637 180.227V190.551Z" fill="#C4FFFE"/>
<path fill-rule="evenodd" clip-rule="evenodd" d="M205.751 191.695L206.293 191.382V178.404L205.751 178.717V191.695Z" fill="white"/>
<path fill-rule="evenodd" clip-rule="evenodd" d="M209.269 186.313V185.687L202.775 189.436V190.062L209.269 186.313Z" fill="white"/>
<path fill-rule="evenodd" clip-rule="evenodd" d="M209.269 181.557V180.931L202.775 184.68V185.306L209.269 181.557Z" fill="white"/>
<path fill-rule="evenodd" clip-rule="evenodd" d="M209.269 190.186V189.56L202.775 193.309V193.935L209.269 190.186Z" fill="white"/>
<path fill-rule="evenodd" clip-rule="evenodd" d="M239.023 235.595L238.384 235.226L233.801 237.873V238.61L239.023 235.595Z" fill="white"/>
<path fill-rule="evenodd" clip-rule="evenodd" d="M202.73 176.797L209.27 173.022V164.686L202.73 168.461V176.797Z" fill="white"/>
<path fill-rule="evenodd" clip-rule="evenodd" d="M203.137 176.041L208.862 172.735V165.443L203.137 168.748V176.041Z" fill="#C4FFFE"/>
<path fill-rule="evenodd" clip-rule="evenodd" d="M205.745 175.057L206.254 174.763V166.427L205.745 166.721V175.057Z" fill="white"/>
<path fill-rule="evenodd" clip-rule="evenodd" d="M209.27 169.146V168.559L202.73 172.338V172.924L209.27 169.146Z" fill="white"/>
<path fill-rule="evenodd" clip-rule="evenodd" d="M182.958 154.196L185.892 155.888L188.826 151.288L185.892 149.593L182.958 154.196Z" fill="#88F2F0"/>
<path fill-rule="evenodd" clip-rule="evenodd" d="M182.958 144.227L185.892 145.919V155.888L182.958 154.196V144.227Z" fill="#FFAEA1"/>
<path fill-rule="evenodd" clip-rule="evenodd" d="M182.958 144.227L185.892 145.919V148.031L182.958 146.336V144.227Z" fill="#F78C7B"/>
<path fill-rule="evenodd" clip-rule="evenodd" d="M188.826 144.227L185.892 145.919V155.888L188.826 151.288V144.227Z" fill="#E67665"/>
<path fill-rule="evenodd" clip-rule="evenodd" d="M182.039 144.227L185.892 146.45L189.745 144.227L185.892 142L182.039 144.227Z" fill="#FFDAD4"/>
<path fill-rule="evenodd" clip-rule="evenodd" d="M184.565 144.227L185.892 144.993L187.219 144.227L185.892 143.461L184.565 144.227Z" fill="#E67665"/>
<path fill-rule="evenodd" clip-rule="evenodd" d="M184.565 144.227L185.892 144.993V143.461L184.565 144.227Z" fill="#F78C7B"/>
<path fill-rule="evenodd" clip-rule="evenodd" d="M182.039 144.227L185.892 146.45V147.399L182.039 145.172V144.227Z" fill="#FFAEA1"/>
<path fill-rule="evenodd" clip-rule="evenodd" d="M189.745 144.227L185.892 146.45V147.399L189.745 145.172V144.227Z" fill="#F78C7B"/>
<path fill-rule="evenodd" clip-rule="evenodd" d="M188.826 146.336L185.892 148.031V155.888L188.826 151.288V146.336Z" fill="#F78C7B"/>
<path fill-rule="evenodd" clip-rule="evenodd" d="M140.757 220.892C143.039 220.892 144.917 220.429 144.917 219.865C144.917 219.301 143.049 218.848 140.757 218.848C138.466 218.848 136.598 219.311 136.598 219.878C136.598 220.445 138.469 220.892 140.757 220.892Z" fill="#43A38B"/>
<path fill-rule="evenodd" clip-rule="evenodd" d="M141.611 216.279H139.9V219.699C140.167 219.825 140.46 219.891 140.756 219.891C141.052 219.891 141.344 219.825 141.611 219.699V216.279Z" fill="#F78C7B"/>
<path fill-rule="evenodd" clip-rule="evenodd" d="M140.757 216.279H139.903V219.699C140.174 219.814 140.463 219.879 140.757 219.891V216.279Z" fill="#FFAEA1"/>
<path fill-rule="evenodd" clip-rule="evenodd" d="M140.758 199.363C137.511 204.469 135.792 210.398 135.802 216.449C139.016 217.536 142.499 217.536 145.713 216.449C145.403 210.753 143.506 205.058 140.758 199.363Z" fill="#79D4BD"/>
<path fill-rule="evenodd" clip-rule="evenodd" d="M140.758 199.363C137.511 204.469 135.792 210.398 135.802 216.449C137.404 216.972 139.076 217.247 140.761 217.264C141.155 215.08 141.266 204.406 140.758 199.363Z" fill="#97E8D4"/>
<path fill-rule="evenodd" clip-rule="evenodd" d="M134.237 246.32C136.519 246.32 138.397 245.857 138.397 245.293C138.397 244.729 136.529 244.276 134.237 244.276C131.945 244.276 130.077 244.739 130.077 245.306C130.077 245.873 131.948 246.32 134.237 246.32Z" fill="#43A38B"/>
<path fill-rule="evenodd" clip-rule="evenodd" d="M135.091 239.295H133.357V245.44C133.973 245.88 134.553 245.916 135.091 245.44V239.295Z" fill="#F78C7B"/>
<path fill-rule="evenodd" clip-rule="evenodd" d="M134.237 239.295H133.37V245.44C133.62 245.635 133.921 245.754 134.237 245.782V239.295Z" fill="#FFAEA1"/>
<path d="M134.237 241.632C137.638 241.632 140.395 238.742 140.395 235.177C140.395 231.612 137.638 228.723 134.237 228.723C130.836 228.723 128.079 231.612 128.079 235.177C128.079 238.742 130.836 241.632 134.237 241.632Z" fill="#79D4BD"/>
<path fill-rule="evenodd" clip-rule="evenodd" d="M134.071 228.723C130.749 228.817 128.082 231.657 128.082 235.177C128.082 238.741 130.837 241.632 134.237 241.632C136.033 239.151 136.252 231.569 134.237 228.723H134.071Z" fill="#97E8D4"/>
<path fill-rule="evenodd" clip-rule="evenodd" d="M269.537 247.634C271.288 247.634 272.716 247.174 272.716 246.607C272.716 246.04 271.288 245.577 269.537 245.577C267.786 245.577 266.362 246.04 266.362 246.607C266.362 247.174 267.79 247.634 269.537 247.634Z" fill="#43A38B"/>
<path fill-rule="evenodd" clip-rule="evenodd" d="M270.342 240.69H268.751V246.382C269.318 246.79 269.856 246.825 270.358 246.382L270.342 240.69Z" fill="#F78C7B"/>
<path fill-rule="evenodd" clip-rule="evenodd" d="M269.537 240.69H268.751V246.382C268.981 246.566 269.26 246.68 269.553 246.708L269.537 240.69Z" fill="#FFAEA1"/>
<path fill-rule="evenodd" clip-rule="evenodd" d="M269.537 228.041C267.001 228.041 264.947 231.357 264.947 235.451C264.947 239.546 267.001 242.858 269.537 242.858C272.073 242.858 274.13 239.543 274.13 235.451C274.13 231.36 272.073 228.041 269.537 228.041Z" fill="#79D4BD"/>
<path fill-rule="evenodd" clip-rule="evenodd" d="M269.403 228.045C266.926 228.152 264.937 231.425 264.937 235.451C264.937 239.543 266.991 242.858 269.527 242.858C270.867 240.012 271.03 231.311 269.527 228.041L269.403 228.045Z" fill="#97E8D4"/>
<path fill-rule="evenodd" clip-rule="evenodd" d="M157.399 199.627L196.389 222.137L208.467 212.683L169.478 190.173L157.399 199.627Z" fill="#88F2F0"/>
<path fill-rule="evenodd" clip-rule="evenodd" d="M253.234 264.048C255.516 264.048 257.394 263.585 257.394 263.021C257.394 262.457 255.523 261.991 253.234 261.991C250.945 261.991 249.074 262.454 249.074 263.021C249.074 263.588 250.942 264.048 253.234 264.048Z" fill="#43A38B"/>
<path fill-rule="evenodd" clip-rule="evenodd" d="M254.081 259.435H252.37V262.858C252.637 262.985 252.929 263.05 253.225 263.05C253.521 263.05 253.814 262.985 254.081 262.858V259.435Z" fill="#F78C7B"/>
<path fill-rule="evenodd" clip-rule="evenodd" d="M253.233 259.435H252.376V262.858C252.648 262.974 252.938 263.039 253.233 263.05V259.435Z" fill="#FFAEA1"/>
<path fill-rule="evenodd" clip-rule="evenodd" d="M253.234 242.519C249.985 247.622 248.266 253.549 248.278 259.598C251.492 260.685 254.975 260.685 258.189 259.598C257.876 253.909 255.979 248.214 253.234 242.519Z" fill="#79D4BD"/>
<path fill-rule="evenodd" clip-rule="evenodd" d="M253.234 242.519C249.985 247.622 248.266 253.549 248.278 259.598C249.879 260.122 251.55 260.396 253.234 260.413C253.631 258.235 253.755 247.562 253.234 242.519Z" fill="#97E8D4"/>
<path fill-rule="evenodd" clip-rule="evenodd" d="M261.152 218.848C263.434 218.848 265.312 218.385 265.312 217.818C265.312 217.251 263.444 216.791 261.152 216.791C258.86 216.791 256.992 217.254 256.992 217.818C256.992 218.382 258.86 218.848 261.152 218.848Z" fill="#43A38B"/>
<path fill-rule="evenodd" clip-rule="evenodd" d="M262.019 211.833H260.275V217.978C260.892 218.421 261.472 218.457 262.01 217.978L262.019 211.833Z" fill="#F78C7B"/>
<path fill-rule="evenodd" clip-rule="evenodd" d="M261.152 211.833H260.275V217.978C260.525 218.175 260.826 218.295 261.143 218.323L261.152 211.833Z" fill="#FFAEA1"/>
<path d="M261.152 214.17C264.553 214.17 267.31 211.28 267.31 207.715C267.31 204.15 264.553 201.26 261.152 201.26C257.751 201.26 254.994 204.15 254.994 207.715C254.994 211.28 257.751 214.17 261.152 214.17Z" fill="#79D4BD"/>
<path fill-rule="evenodd" clip-rule="evenodd" d="M260.986 201.264C257.664 201.358 254.997 204.198 254.997 207.715C254.997 211.282 257.752 214.17 261.152 214.17C262.948 211.692 263.167 204.11 261.152 201.26L260.986 201.264Z" fill="#97E8D4"/>
<path fill-rule="evenodd" clip-rule="evenodd" d="M180.148 255.402C182.13 255.402 183.734 254.878 183.734 254.235C183.734 253.593 182.104 253.072 180.148 253.072C178.192 253.072 176.562 253.593 176.562 254.235C176.562 254.878 178.169 255.402 180.148 255.402Z" fill="#43A38B"/>
<path fill-rule="evenodd" clip-rule="evenodd" d="M181.057 247.536H179.238V253.981C179.89 254.444 180.493 254.483 181.057 253.981V247.536Z" fill="#F78C7B"/>
<path fill-rule="evenodd" clip-rule="evenodd" d="M180.147 247.536H179.238V253.981C179.499 254.188 179.815 254.313 180.147 254.343V247.536Z" fill="#FFAEA1"/>
<path fill-rule="evenodd" clip-rule="evenodd" d="M180.148 233.212C177.276 233.212 174.932 236.967 174.932 241.603C174.932 246.239 177.259 249.991 180.148 249.991C183.036 249.991 185.364 246.235 185.364 241.603C185.364 236.97 183.013 233.212 180.148 233.212Z" fill="#79D4BD"/>
<path fill-rule="evenodd" clip-rule="evenodd" d="M180.007 233.215C177.2 233.336 174.948 237.042 174.948 241.603C174.948 246.235 177.275 249.991 180.164 249.991C181.683 246.767 181.865 236.915 180.164 233.212L180.007 233.215Z" fill="#97E8D4"/>
<path fill-rule="evenodd" clip-rule="evenodd" d="M249.361 192.807C251.643 192.807 253.521 192.344 253.521 191.78C253.521 191.216 251.649 190.75 249.361 190.75C247.072 190.75 245.201 191.213 245.201 191.78C245.201 192.348 247.069 192.807 249.361 192.807Z" fill="#43A38B"/>
<path fill-rule="evenodd" clip-rule="evenodd" d="M250.215 188.204H248.503V191.624C248.771 191.75 249.063 191.816 249.359 191.816C249.655 191.816 249.947 191.75 250.215 191.624V188.204Z" fill="#F78C7B"/>
<path fill-rule="evenodd" clip-rule="evenodd" d="M249.361 188.204H248.503V191.624C248.775 191.74 249.066 191.805 249.361 191.816V188.204Z" fill="#FFAEA1"/>
<path fill-rule="evenodd" clip-rule="evenodd" d="M249.361 171.278C246.112 176.383 244.392 182.312 244.406 188.364C247.62 189.451 251.102 189.451 254.316 188.364C254.003 182.662 252.106 176.973 249.361 171.278Z" fill="#79D4BD"/>
<path fill-rule="evenodd" clip-rule="evenodd" d="M249.361 171.278C246.112 176.383 244.392 182.312 244.406 188.364C246.006 188.887 247.677 189.162 249.361 189.179C249.759 186.995 249.866 176.325 249.361 171.278Z" fill="#97E8D4"/>
<path fill-rule="evenodd" clip-rule="evenodd" d="M155.326 192.116C157.608 192.116 159.486 191.653 159.486 191.086C159.486 190.519 157.614 190.059 155.326 190.059C153.037 190.059 151.166 190.519 151.166 191.086C151.166 191.653 153.021 192.116 155.326 192.116Z" fill="#43A38B"/>
<path fill-rule="evenodd" clip-rule="evenodd" d="M156.193 185.071H154.459V191.216C155.072 191.656 155.652 191.696 156.193 191.216V185.071Z" fill="#F78C7B"/>
<path fill-rule="evenodd" clip-rule="evenodd" d="M155.326 185.071H154.459V191.216C154.708 191.414 155.01 191.534 155.326 191.562V185.071Z" fill="#FFAEA1"/>
<path d="M155.323 187.409C158.724 187.409 161.481 184.519 161.481 180.954C161.481 177.389 158.724 174.499 155.323 174.499C151.922 174.499 149.165 177.389 149.165 180.954C149.165 184.519 151.922 187.409 155.323 187.409Z" fill="#79D4BD"/>
<path fill-rule="evenodd" clip-rule="evenodd" d="M155.157 174.512C151.835 174.603 149.168 177.446 149.168 180.964C149.168 184.53 151.923 187.418 155.326 187.418C157.119 184.941 157.338 177.358 155.326 174.509L155.157 174.512Z" fill="#97E8D4"/>
</g>
<defs>
<clipPath id="clip0_251_3968">
<rect width="413" height="324.899" fill="white" transform="translate(7)"/>
</clipPath>
<clipPath id="clip1_251_3968">
<rect width="182.69" height="196.35" fill="white" transform="translate(0 108)"/>
</clipPath>
<clipPath id="clip2_251_3968">
<rect width="212" height="150.39" fill="white" transform="translate(98 131)"/>
</clipPath>
<clipPath id="clip3_251_3968">
<rect width="163" height="128.229" fill="white" transform="translate(123 142)"/>
</clipPath>
</defs>
</svg>
