<svg width="135" height="22" viewBox="0 0 135 22" fill="none" xmlns="http://www.w3.org/2000/svg">
<rect x="0.779541" y="0.75" width="132.71" height="20.5" rx="10.25" fill="#FCFCFC"/>
<rect x="0.779541" y="0.75" width="132.71" height="20.5" rx="10.25" stroke="#018191" stroke-width="1.5"/>
<path d="M31.4409 16.6591C30.7051 16.6591 30.0703 16.4967 29.5367 16.1719C29.0064 15.8438 28.5971 15.3864 28.3087 14.7997C28.0237 14.2098 27.8812 13.5237 27.8812 12.7415C27.8812 11.9593 28.0237 11.2699 28.3087 10.6733C28.5971 10.0734 28.9981 9.60606 29.5119 9.27131C30.0289 8.93324 30.6321 8.7642 31.3215 8.7642C31.7193 8.7642 32.112 8.83049 32.4998 8.96307C32.8876 9.09564 33.2406 9.31108 33.5587 9.60938C33.8769 9.90436 34.1305 10.2955 34.3194 10.7827C34.5083 11.2699 34.6028 11.8698 34.6028 12.5824V13.0795H28.7164V12.0653H33.4096C33.4096 11.6345 33.3234 11.25 33.1511 10.9119C32.982 10.5739 32.7401 10.3071 32.4252 10.1115C32.1137 9.91596 31.7458 9.81818 31.3215 9.81818C30.8542 9.81818 30.4498 9.93419 30.1085 10.1662C29.7704 10.3949 29.5102 10.6932 29.3279 11.0611C29.1456 11.429 29.0545 11.8234 29.0545 12.2443V12.9205C29.0545 13.4972 29.1539 13.986 29.3528 14.3871C29.555 14.7848 29.835 15.0881 30.193 15.2969C30.5509 15.5024 30.9669 15.6051 31.4409 15.6051C31.7491 15.6051 32.0275 15.562 32.2761 15.4759C32.528 15.3864 32.7451 15.2538 32.9274 15.0781C33.1096 14.8991 33.2505 14.6771 33.3499 14.4119L34.4835 14.7301C34.3641 15.1146 34.1636 15.4527 33.8819 15.7443C33.6002 16.0327 33.2522 16.258 32.8379 16.4205C32.4236 16.5795 31.9579 16.6591 31.4409 16.6591ZM40.7626 11.5881V12.6818H36.308V11.5881H40.7626ZM42.9861 16.5V6.31818H44.2191V11.3693H44.3384L48.9123 6.31818H50.5231L46.2475 10.9119L50.5231 16.5H49.0316L45.4918 11.767L44.2191 13.1989V16.5H42.9861ZM51.2439 6.31818H52.6559L55.4797 11.071H55.5991L58.4229 6.31818H59.8349L56.1559 12.304V16.5H54.9229V12.304L51.2439 6.31818ZM69.1442 9.5H67.9112C67.8383 9.14536 67.7107 8.83381 67.5284 8.56534C67.3494 8.29688 67.1307 8.0715 66.8721 7.8892C66.6169 7.7036 66.3335 7.56439 66.022 7.47159C65.7104 7.37879 65.3856 7.33239 65.0476 7.33239C64.4311 7.33239 63.8726 7.48816 63.3721 7.79972C62.875 8.11127 62.4789 8.57031 62.1839 9.17685C61.8923 9.78338 61.7464 10.5275 61.7464 11.4091C61.7464 12.2907 61.8923 13.0348 62.1839 13.6413C62.4789 14.2479 62.875 14.7069 63.3721 15.0185C63.8726 15.33 64.4311 15.4858 65.0476 15.4858C65.3856 15.4858 65.7104 15.4394 66.022 15.3466C66.3335 15.2538 66.6169 15.1162 66.8721 14.9339C67.1307 14.7483 67.3494 14.5213 67.5284 14.2528C67.7107 13.9811 67.8383 13.6695 67.9112 13.3182H69.1442C69.0514 13.8385 68.8823 14.3042 68.6371 14.7152C68.3918 15.1262 68.0869 15.4759 67.7223 15.7642C67.3577 16.0492 66.9484 16.2663 66.4943 16.4155C66.0435 16.5646 65.5613 16.6392 65.0476 16.6392C64.1792 16.6392 63.4069 16.4271 62.7308 16.0028C62.0547 15.5786 61.5227 14.9754 61.1349 14.1932C60.7471 13.411 60.5532 12.483 60.5532 11.4091C60.5532 10.3352 60.7471 9.4072 61.1349 8.625C61.5227 7.8428 62.0547 7.23958 62.7308 6.81534C63.4069 6.3911 64.1792 6.17898 65.0476 6.17898C65.5613 6.17898 66.0435 6.25355 66.4943 6.4027C66.9484 6.55185 67.3577 6.7706 67.7223 7.05895C68.0869 7.34399 68.3918 7.692 68.6371 8.10298C68.8823 8.51065 69.0514 8.97633 69.1442 9.5ZM75.4916 6.31818L78.5144 14.8892H78.6337L81.6564 6.31818H82.949L79.2104 16.5H77.9377L74.199 6.31818H75.4916ZM86.8666 16.6591C86.1308 16.6591 85.4961 16.4967 84.9625 16.1719C84.4322 15.8438 84.0229 15.3864 83.7345 14.7997C83.4495 14.2098 83.307 13.5237 83.307 12.7415C83.307 11.9593 83.4495 11.2699 83.7345 10.6733C84.0229 10.0734 84.4239 9.60606 84.9377 9.27131C85.4547 8.93324 86.0579 8.7642 86.7473 8.7642C87.145 8.7642 87.5378 8.83049 87.9256 8.96307C88.3134 9.09564 88.6663 9.31108 88.9845 9.60938C89.3027 9.90436 89.5563 10.2955 89.7452 10.7827C89.9341 11.2699 90.0286 11.8698 90.0286 12.5824V13.0795H84.1422V12.0653H88.8354C88.8354 11.6345 88.7492 11.25 88.5769 10.9119C88.4078 10.5739 88.1659 10.3071 87.851 10.1115C87.5395 9.91596 87.1716 9.81818 86.7473 9.81818C86.28 9.81818 85.8756 9.93419 85.5342 10.1662C85.1962 10.3949 84.936 10.6932 84.7537 11.0611C84.5714 11.429 84.4803 11.8234 84.4803 12.2443V12.9205C84.4803 13.4972 84.5797 13.986 84.7786 14.3871C84.9807 14.7848 85.2608 15.0881 85.6188 15.2969C85.9767 15.5024 86.3927 15.6051 86.8666 15.6051C87.1749 15.6051 87.4533 15.562 87.7019 15.4759C87.9538 15.3864 88.1708 15.2538 88.3531 15.0781C88.5354 14.8991 88.6763 14.6771 88.7757 14.4119L89.9092 14.7301C89.7899 15.1146 89.5894 15.4527 89.3077 15.7443C89.026 16.0327 88.6779 16.258 88.2636 16.4205C87.8494 16.5795 87.3837 16.6591 86.8666 16.6591ZM91.8134 16.5V8.86364H92.9469V10.017H93.0264C93.1656 9.6392 93.4175 9.33262 93.7821 9.0973C94.1467 8.86198 94.5577 8.74432 95.0151 8.74432C95.1012 8.74432 95.209 8.74597 95.3382 8.74929C95.4675 8.7526 95.5653 8.75758 95.6315 8.7642V9.95739C95.5918 9.94744 95.5006 9.93253 95.3581 9.91264C95.2189 9.88944 95.0714 9.87784 94.9156 9.87784C94.5444 9.87784 94.213 9.95573 93.9213 10.1115C93.633 10.264 93.4043 10.4761 93.2352 10.7479C93.0695 11.0163 92.9867 11.3229 92.9867 11.6676V16.5H91.8134ZM97.0223 16.5V8.86364H98.1956V16.5H97.0223ZM97.6189 7.59091C97.3902 7.59091 97.193 7.51302 97.0273 7.35724C96.8649 7.20147 96.7837 7.0142 96.7837 6.79545C96.7837 6.5767 96.8649 6.38944 97.0273 6.23366C97.193 6.07789 97.3902 6 97.6189 6C97.8476 6 98.0432 6.07789 98.2056 6.23366C98.3713 6.38944 98.4542 6.5767 98.4542 6.79545C98.4542 7.0142 98.3713 7.20147 98.2056 7.35724C98.0432 7.51302 97.8476 7.59091 97.6189 7.59091ZM103.745 8.86364V9.85795H99.6287V8.86364H103.745ZM100.862 16.5V7.80966C100.862 7.37216 100.964 7.00758 101.17 6.71591C101.375 6.42424 101.642 6.20549 101.97 6.05966C102.298 5.91383 102.645 5.84091 103.009 5.84091C103.298 5.84091 103.533 5.86411 103.715 5.91051C103.898 5.95691 104.034 6 104.123 6.03977L103.785 7.05398C103.725 7.03409 103.642 7.00923 103.536 6.9794C103.434 6.94957 103.298 6.93466 103.129 6.93466C102.741 6.93466 102.461 7.03243 102.289 7.22798C102.119 7.42353 102.035 7.71023 102.035 8.08807V16.5H100.862ZM105.39 16.5V8.86364H106.563V16.5H105.39ZM105.986 7.59091C105.757 7.59091 105.56 7.51302 105.395 7.35724C105.232 7.20147 105.151 7.0142 105.151 6.79545C105.151 6.5767 105.232 6.38944 105.395 6.23366C105.56 6.07789 105.757 6 105.986 6C106.215 6 106.41 6.07789 106.573 6.23366C106.738 6.38944 106.821 6.5767 106.821 6.79545C106.821 7.0142 106.738 7.20147 106.573 7.35724C106.41 7.51302 106.215 7.59091 105.986 7.59091ZM111.914 16.6591C111.178 16.6591 110.543 16.4967 110.009 16.1719C109.479 15.8438 109.07 15.3864 108.781 14.7997C108.496 14.2098 108.354 13.5237 108.354 12.7415C108.354 11.9593 108.496 11.2699 108.781 10.6733C109.07 10.0734 109.471 9.60606 109.985 9.27131C110.502 8.93324 111.105 8.7642 111.794 8.7642C112.192 8.7642 112.585 8.83049 112.972 8.96307C113.36 9.09564 113.713 9.31108 114.031 9.60938C114.35 9.90436 114.603 10.2955 114.792 10.7827C114.981 11.2699 115.075 11.8698 115.075 12.5824V13.0795H109.189V12.0653H113.882C113.882 11.6345 113.796 11.25 113.624 10.9119C113.455 10.5739 113.213 10.3071 112.898 10.1115C112.586 9.91596 112.218 9.81818 111.794 9.81818C111.327 9.81818 110.923 9.93419 110.581 10.1662C110.243 10.3949 109.983 10.6932 109.801 11.0611C109.618 11.429 109.527 11.8234 109.527 12.2443V12.9205C109.527 13.4972 109.627 13.986 109.825 14.3871C110.028 14.7848 110.308 15.0881 110.666 15.2969C111.024 15.5024 111.44 15.6051 111.914 15.6051C112.222 15.6051 112.5 15.562 112.749 15.4759C113.001 15.3864 113.218 15.2538 113.4 15.0781C113.582 14.8991 113.723 14.6771 113.823 14.4119L114.956 14.7301C114.837 15.1146 114.636 15.4527 114.355 15.7443C114.073 16.0327 113.725 16.258 113.311 16.4205C112.896 16.5795 112.431 16.6591 111.914 16.6591ZM119.744 16.6591C119.107 16.6591 118.546 16.4983 118.058 16.1768C117.571 15.852 117.19 15.3946 116.915 14.8047C116.64 14.2114 116.502 13.5104 116.502 12.7017C116.502 11.8996 116.64 11.2036 116.915 10.6136C117.19 10.0237 117.573 9.56794 118.063 9.24645C118.554 8.92495 119.121 8.7642 119.764 8.7642C120.261 8.7642 120.654 8.84706 120.942 9.01278C121.234 9.17519 121.456 9.3608 121.608 9.5696C121.764 9.77509 121.885 9.94413 121.971 10.0767H122.07V6.31818H123.244V16.5H122.11V15.3267H121.971C121.885 15.4659 121.762 15.6416 121.603 15.8537C121.444 16.0625 121.217 16.2498 120.922 16.4155C120.627 16.5779 120.234 16.6591 119.744 16.6591ZM119.903 15.6051C120.373 15.6051 120.771 15.4825 121.096 15.2372C121.421 14.9886 121.668 14.6456 121.837 14.2081C122.006 13.7673 122.09 13.2585 122.09 12.6818C122.09 12.1117 122.007 11.6129 121.842 11.1854C121.676 10.7545 121.431 10.4197 121.106 10.1811C120.781 9.93916 120.38 9.81818 119.903 9.81818C119.406 9.81818 118.991 9.94579 118.66 10.201C118.332 10.4529 118.085 10.7959 117.919 11.2301C117.757 11.661 117.676 12.1449 117.676 12.6818C117.676 13.2254 117.758 13.7192 117.924 14.1634C118.093 14.6042 118.342 14.9555 118.67 15.2173C119.001 15.4759 119.412 15.6051 119.903 15.6051Z" fill="#018191"/>
<path d="M17.9918 4.47996L17.9918 4.47998L17.9931 4.48035L20.8724 5.33214L20.8738 5.35374L20.8856 5.54105C20.8956 5.70308 20.9096 5.93608 20.9258 6.21987C20.9582 6.78748 20.9992 7.55818 21.0334 8.37068C21.0677 9.18328 21.0952 10.0373 21.1008 10.7715C21.1063 11.5076 21.0897 12.1183 21.0369 12.4473C20.9319 13.1022 20.4585 14.0123 19.8156 14.8942C19.1738 15.7744 18.3703 16.6166 17.6153 17.1372C16.2332 18.0901 15.2865 18.3912 15.1341 18.4354C14.9813 18.3913 14.0356 18.0904 12.653 17.1372L12.6529 17.1372C11.8956 16.6154 11.0907 15.7724 10.4489 14.892C9.80575 14.01 9.33361 13.1005 9.23141 12.4475C9.18004 12.1192 9.16356 11.5088 9.16853 10.7729C9.17348 10.0388 9.19967 9.18468 9.23241 8.37186C9.26515 7.55912 9.30443 6.78809 9.33553 6.22021C9.35107 5.93628 9.36457 5.70316 9.37419 5.54103L9.38546 5.35362L9.38669 5.33365L11.9928 4.65331L11.9928 4.6534L11.9961 4.65236L11.9767 4.59193L11.9961 4.65234L11.9962 4.65231L11.9966 4.65217L11.9983 4.65164L12.0049 4.64951L12.0308 4.64122L12.1291 4.60968C12.2138 4.58246 12.3348 4.54349 12.4803 4.49644C12.7711 4.40234 13.1595 4.27593 13.5497 4.1467C13.9398 4.0175 14.332 3.88538 14.6304 3.77988C14.7795 3.72717 14.9058 3.68089 14.9969 3.64484C15.0422 3.62687 15.0798 3.61106 15.1074 3.59803C15.1211 3.59156 15.1335 3.58522 15.1436 3.57917C15.1459 3.57781 15.1482 3.57634 15.1506 3.57476L17.9918 4.47996Z" fill="#018191" stroke="white" stroke-width="0.12687"/>
<g filter="url(#filter0_i_466_10407)">
<path d="M15.1292 17.505C14.4296 17.2177 13.7652 16.8514 13.1488 16.4131C11.7178 15.4292 10.2581 13.3017 10.1086 12.3132C9.98679 11.5362 10.096 8.56268 10.2178 6.33628H10.3707L12.1488 5.85583L15.1373 4.90527L18.2981 5.85583L19.8992 6.33628H20.0521C20.174 8.56038 20.282 11.5339 20.1671 12.3132C20.0119 13.3017 18.5476 15.4292 17.1211 16.4131C16.5015 16.8526 15.833 17.219 15.1292 17.505Z" fill="#D5FAFF"/>
</g>
<path d="M15.1238 3.5166C15.0571 3.62235 12.0342 4.53497 12.0342 4.53497L9.32621 5.28438C9.32621 5.28438 8.95955 11.1211 9.16874 12.4578C9.37793 13.7946 11.0871 16.1359 12.617 17.1899C14.0457 18.1749 15.0123 18.468 15.1284 18.5002L15.1238 3.5166Z" fill="url(#paint0_linear_466_10407)"/>
<path d="M15.1292 17.505C14.4296 17.2177 13.7652 16.8514 13.1488 16.4131C11.7178 15.4292 10.2581 13.3017 10.1086 12.3132C9.98679 11.5362 10.096 8.56268 10.2178 6.33628L10.4822 6.25812L12.3212 5.74089L15.1373 4.90527L17.6085 5.62595L19.7923 6.25812L20.0521 6.33628C20.174 8.56038 20.282 11.5339 20.1671 12.3132C20.0119 13.3017 18.5476 15.4292 17.1211 16.4131C16.5015 16.8526 15.833 17.219 15.1292 17.505Z" stroke="url(#paint1_linear_466_10407)" stroke-width="0.274707" stroke-miterlimit="10"/>
<path d="M12.1047 11.1069C12.1047 11.151 12.1019 11.197 12.0964 11.2448H11.0289C11.0362 11.3405 11.0666 11.414 11.1199 11.4655C11.1751 11.5152 11.2422 11.54 11.3213 11.54C11.439 11.54 11.5208 11.4903 11.5668 11.391H12.0688C12.0431 11.4922 11.9962 11.5832 11.9282 11.6641C11.862 11.745 11.7783 11.8085 11.6771 11.8545C11.576 11.9004 11.4629 11.9234 11.3378 11.9234C11.187 11.9234 11.0528 11.8913 10.9351 11.8269C10.8174 11.7625 10.7254 11.6706 10.6592 11.551C10.593 11.4315 10.5599 11.2917 10.5599 11.1317C10.5599 10.9717 10.5921 10.832 10.6565 10.7124C10.7227 10.5929 10.8146 10.5009 10.9323 10.4366C11.05 10.3722 11.1852 10.34 11.3378 10.34C11.4868 10.34 11.6192 10.3713 11.7351 10.4338C11.8509 10.4963 11.941 10.5855 12.0054 10.7014C12.0716 10.8172 12.1047 10.9524 12.1047 11.1069ZM11.622 10.9828C11.622 10.9018 11.5944 10.8375 11.5392 10.7897C11.484 10.7418 11.4151 10.7179 11.3323 10.7179C11.2532 10.7179 11.1861 10.7409 11.1309 10.7869C11.0776 10.8329 11.0445 10.8982 11.0316 10.9828H11.622ZM13.5397 10.7373V11.129H12.326V10.7373H13.5397ZM15.0765 11.9014L14.4255 11.0462V11.9014H13.9537V9.96485H14.4255V10.8145L15.071 9.96485H15.6254L14.8751 10.9138L15.653 11.9014H15.0765ZM17.5379 9.96485L16.8675 11.2614V11.9014H16.3958V11.2614L15.7255 9.96485H16.2606L16.6358 10.7759L17.0082 9.96485H17.5379ZM17.6479 10.9304C17.6479 10.7391 17.6893 10.569 17.7721 10.42C17.8548 10.2692 17.9698 10.1524 18.1169 10.0697C18.2658 9.98508 18.4341 9.94278 18.6217 9.94278C18.8516 9.94278 19.0484 10.0035 19.212 10.1248C19.3757 10.2462 19.4851 10.4117 19.5403 10.6214H19.0217C18.9831 10.5405 18.9279 10.4789 18.8562 10.4366C18.7863 10.3943 18.7063 10.3731 18.6162 10.3731C18.4709 10.3731 18.3532 10.4237 18.2631 10.5248C18.173 10.626 18.1279 10.7612 18.1279 10.9304C18.1279 11.0995 18.173 11.2347 18.2631 11.3359C18.3532 11.437 18.4709 11.4876 18.6162 11.4876C18.7063 11.4876 18.7863 11.4664 18.8562 11.4241C18.9279 11.3818 18.9831 11.3202 19.0217 11.2393H19.5403C19.4851 11.449 19.3757 11.6145 19.212 11.7359C19.0484 11.8554 18.8516 11.9152 18.6217 11.9152C18.4341 11.9152 18.2658 11.8738 18.1169 11.791C17.9698 11.7064 17.8548 11.5896 17.7721 11.4407C17.6893 11.2917 17.6479 11.1216 17.6479 10.9304Z" fill="#05515B"/>
<defs>
<filter id="filter0_i_466_10407" x="10.0554" y="4.90527" width="10.1605" height="12.5996" filterUnits="userSpaceOnUse" color-interpolation-filters="sRGB">
<feFlood flood-opacity="0" result="BackgroundImageFix"/>
<feBlend mode="normal" in="SourceGraphic" in2="BackgroundImageFix" result="shape"/>
<feColorMatrix in="SourceAlpha" type="matrix" values="0 0 0 0 0 0 0 0 0 0 0 0 0 0 0 0 0 0 127 0" result="hardAlpha"/>
<feOffset/>
<feGaussianBlur stdDeviation="0.804583"/>
<feComposite in2="hardAlpha" operator="arithmetic" k2="-1" k3="1"/>
<feColorMatrix type="matrix" values="0 0 0 0 0 0 0 0 0 0.339525 0 0 0 0 0.381966 0 0 0 0.2 0"/>
<feBlend mode="normal" in2="shape" result="effect1_innerShadow_466_10407"/>
</filter>
<linearGradient id="paint0_linear_466_10407" x1="12.1135" y1="0.200571" x2="12.1135" y2="20.0795" gradientUnits="userSpaceOnUse">
<stop stop-color="white"/>
<stop offset="0.19" stop-color="white" stop-opacity="0.75"/>
<stop offset="0.41" stop-color="white" stop-opacity="0.49"/>
<stop offset="0.61" stop-color="white" stop-opacity="0.28"/>
<stop offset="0.78" stop-color="white" stop-opacity="0.13"/>
<stop offset="0.92" stop-color="white" stop-opacity="0.03"/>
<stop offset="1" stop-color="white" stop-opacity="0"/>
</linearGradient>
<linearGradient id="paint1_linear_466_10407" x1="15.1292" y1="17.6522" x2="15.1292" y2="4.72712" gradientUnits="userSpaceOnUse">
<stop stop-color="#888F90"/>
<stop offset="0.11" stop-color="#C4C4C4"/>
<stop offset="0.16" stop-color="#BDBDBD"/>
<stop offset="0.19" stop-color="#B5B5B5"/>
<stop offset="1" stop-color="#004E58"/>
</linearGradient>
</defs>
</svg>
