<svg width="97" height="24" viewBox="0 0 97 24" fill="none" xmlns="http://www.w3.org/2000/svg">
<rect x="0.75" y="0.75" width="95.5" height="22.5" rx="11.25" fill="#FCFCFC"/>
<rect x="0.75" y="0.75" width="95.5" height="22.5" rx="11.25" stroke="#931602" stroke-width="1.5"/>
<path d="M34.1561 17L31.8321 13.01H30.2921V17H29.0181V7.242H32.1681C32.9054 7.242 33.5261 7.368 34.0301 7.62C34.5434 7.872 34.9261 8.21267 35.1781 8.642C35.4301 9.07133 35.5561 9.56133 35.5561 10.112C35.5561 10.784 35.3601 11.3767 34.9681 11.89C34.5854 12.4033 34.0067 12.744 33.2321 12.912L35.6821 17H34.1561ZM30.2921 11.988H32.1681C32.8587 11.988 33.3767 11.82 33.7221 11.484C34.0674 11.1387 34.2401 10.6813 34.2401 10.112C34.2401 9.53333 34.0674 9.08533 33.7221 8.768C33.3861 8.45067 32.8681 8.292 32.1681 8.292H30.2921V11.988ZM44.3957 12.87C44.3957 13.1127 44.3817 13.3693 44.3537 13.64H38.2217C38.2683 14.396 38.525 14.9887 38.9917 15.418C39.4677 15.838 40.0417 16.048 40.7137 16.048C41.2643 16.048 41.7217 15.922 42.0857 15.67C42.459 15.4087 42.7203 15.0633 42.8697 14.634H44.2417C44.0363 15.3713 43.6257 15.9733 43.0097 16.44C42.3937 16.8973 41.6283 17.126 40.7137 17.126C39.9857 17.126 39.3323 16.9627 38.7537 16.636C38.1843 16.3093 37.7363 15.8473 37.4097 15.25C37.083 14.6433 36.9197 13.9433 36.9197 13.15C36.9197 12.3567 37.0783 11.6613 37.3957 11.064C37.713 10.4667 38.1563 10.0093 38.7257 9.692C39.3043 9.36533 39.967 9.202 40.7137 9.202C41.4417 9.202 42.0857 9.36067 42.6457 9.678C43.2057 9.99533 43.635 10.434 43.9337 10.994C44.2417 11.5447 44.3957 12.17 44.3957 12.87ZM43.0797 12.604C43.0797 12.1187 42.9723 11.7033 42.7577 11.358C42.543 11.0033 42.249 10.7373 41.8757 10.56C41.5117 10.3733 41.1057 10.28 40.6577 10.28C40.0137 10.28 39.463 10.4853 39.0057 10.896C38.5577 11.3067 38.301 11.876 38.2357 12.604H43.0797ZM46.6233 8.082C46.3806 8.082 46.1753 7.998 46.0073 7.83C45.8486 7.662 45.7693 7.45667 45.7693 7.214C45.7693 6.97133 45.8486 6.766 46.0073 6.598C46.1753 6.43 46.3806 6.346 46.6233 6.346C46.866 6.346 47.0666 6.43 47.2253 6.598C47.3933 6.766 47.4773 6.97133 47.4773 7.214C47.4773 7.45667 47.3933 7.662 47.2253 7.83C47.0666 7.998 46.866 8.082 46.6233 8.082ZM47.2533 18.666C47.2533 19.3473 47.0806 19.8467 46.7353 20.164C46.39 20.4813 45.886 20.64 45.2233 20.64H44.4813V19.562H45.0133C45.368 19.562 45.6153 19.492 45.7553 19.352C45.9046 19.212 45.9793 18.974 45.9793 18.638V9.328H47.2533V18.666ZM56.2699 12.87C56.2699 13.1127 56.2559 13.3693 56.2279 13.64H50.0959C50.1426 14.396 50.3993 14.9887 50.8659 15.418C51.3419 15.838 51.9159 16.048 52.5879 16.048C53.1386 16.048 53.5959 15.922 53.9599 15.67C54.3333 15.4087 54.5946 15.0633 54.7439 14.634H56.1159C55.9106 15.3713 55.4999 15.9733 54.8839 16.44C54.2679 16.8973 53.5026 17.126 52.5879 17.126C51.8599 17.126 51.2066 16.9627 50.6279 16.636C50.0586 16.3093 49.6106 15.8473 49.2839 15.25C48.9573 14.6433 48.7939 13.9433 48.7939 13.15C48.7939 12.3567 48.9526 11.6613 49.2699 11.064C49.5873 10.4667 50.0306 10.0093 50.5999 9.692C51.1786 9.36533 51.8413 9.202 52.5879 9.202C53.3159 9.202 53.9599 9.36067 54.5199 9.678C55.0799 9.99533 55.5093 10.434 55.8079 10.994C56.1159 11.5447 56.2699 12.17 56.2699 12.87ZM54.9539 12.604C54.9539 12.1187 54.8466 11.7033 54.6319 11.358C54.4173 11.0033 54.1233 10.7373 53.7499 10.56C53.3859 10.3733 52.9799 10.28 52.5319 10.28C51.8879 10.28 51.3373 10.4853 50.8799 10.896C50.4319 11.3067 50.1753 11.876 50.1099 12.604H54.9539ZM57.3356 13.15C57.3356 12.3567 57.4943 11.666 57.8116 11.078C58.1289 10.4807 58.5676 10.0187 59.1276 9.692C59.6969 9.36533 60.3456 9.202 61.0736 9.202C62.0163 9.202 62.7909 9.43067 63.3976 9.888C64.0136 10.3453 64.4196 10.98 64.6156 11.792H63.2436C63.1129 11.3253 62.8563 10.9567 62.4736 10.686C62.1003 10.4153 61.6336 10.28 61.0736 10.28C60.3456 10.28 59.7576 10.532 59.3096 11.036C58.8616 11.5307 58.6376 12.2353 58.6376 13.15C58.6376 14.074 58.8616 14.788 59.3096 15.292C59.7576 15.796 60.3456 16.048 61.0736 16.048C61.6336 16.048 62.1003 15.9173 62.4736 15.656C62.8469 15.3947 63.1036 15.0213 63.2436 14.536H64.6156C64.4103 15.32 63.9996 15.95 63.3836 16.426C62.7676 16.8927 61.9976 17.126 61.0736 17.126C60.3456 17.126 59.6969 16.9627 59.1276 16.636C58.5676 16.3093 58.1289 15.8473 57.8116 15.25C57.4943 14.6527 57.3356 13.9527 57.3356 13.15ZM67.7295 10.378V14.9C67.7295 15.2733 67.8088 15.5393 67.9675 15.698C68.1262 15.8473 68.4015 15.922 68.7935 15.922H69.7315V17H68.5835C67.8742 17 67.3422 16.8367 66.9875 16.51C66.6328 16.1833 66.4555 15.6467 66.4555 14.9V10.378H65.4615V9.328H66.4555V7.396H67.7295V9.328H69.7315V10.378H67.7295ZM78.1351 12.87C78.1351 13.1127 78.1211 13.3693 78.0931 13.64H71.9611C72.0078 14.396 72.2644 14.9887 72.7311 15.418C73.2071 15.838 73.7811 16.048 74.4531 16.048C75.0038 16.048 75.4611 15.922 75.8251 15.67C76.1984 15.4087 76.4598 15.0633 76.6091 14.634H77.9811C77.7758 15.3713 77.3651 15.9733 76.7491 16.44C76.1331 16.8973 75.3678 17.126 74.4531 17.126C73.7251 17.126 73.0718 16.9627 72.4931 16.636C71.9238 16.3093 71.4758 15.8473 71.1491 15.25C70.8224 14.6433 70.6591 13.9433 70.6591 13.15C70.6591 12.3567 70.8178 11.6613 71.1351 11.064C71.4524 10.4667 71.8958 10.0093 72.4651 9.692C73.0438 9.36533 73.7064 9.202 74.4531 9.202C75.1811 9.202 75.8251 9.36067 76.3851 9.678C76.9451 9.99533 77.3744 10.434 77.6731 10.994C77.9811 11.5447 78.1351 12.17 78.1351 12.87ZM76.8191 12.604C76.8191 12.1187 76.7118 11.7033 76.4971 11.358C76.2824 11.0033 75.9884 10.7373 75.6151 10.56C75.2511 10.3733 74.8451 10.28 74.3971 10.28C73.7531 10.28 73.2024 10.4853 72.7451 10.896C72.2971 11.3067 72.0404 11.876 71.9751 12.604H76.8191ZM79.2007 13.136C79.2007 12.352 79.3594 11.666 79.6767 11.078C79.9941 10.4807 80.4281 10.0187 80.9787 9.692C81.5387 9.36533 82.1641 9.202 82.8547 9.202C83.4521 9.202 84.0074 9.342 84.5207 9.622C85.0341 9.89267 85.4261 10.252 85.6967 10.7V6.64H86.9847V17H85.6967V15.558C85.4447 16.0153 85.0714 16.3933 84.5767 16.692C84.0821 16.9813 83.5034 17.126 82.8407 17.126C82.1594 17.126 81.5387 16.958 80.9787 16.622C80.4281 16.286 79.9941 15.8147 79.6767 15.208C79.3594 14.6013 79.2007 13.9107 79.2007 13.136ZM85.6967 13.15C85.6967 12.5713 85.5801 12.0673 85.3467 11.638C85.1134 11.2087 84.7961 10.882 84.3947 10.658C84.0027 10.4247 83.5687 10.308 83.0927 10.308C82.6167 10.308 82.1827 10.42 81.7907 10.644C81.3987 10.868 81.0861 11.1947 80.8527 11.624C80.6194 12.0533 80.5027 12.5573 80.5027 13.136C80.5027 13.724 80.6194 14.2373 80.8527 14.676C81.0861 15.1053 81.3987 15.4367 81.7907 15.67C82.1827 15.894 82.6167 16.006 83.0927 16.006C83.5687 16.006 84.0027 15.894 84.3947 15.67C84.7961 15.4367 85.1134 15.1053 85.3467 14.676C85.5801 14.2373 85.6967 13.7287 85.6967 13.15Z" fill="#931602"/>
<path d="M15.9999 18C15.2119 18 14.4317 17.8448 13.7038 17.5433C12.9758 17.2417 12.3144 16.7998 11.7572 16.2426C11.2001 15.6855 10.7581 15.0241 10.4566 14.2961C10.1551 13.5681 9.99988 12.7879 9.99988 12C9.99988 11.2121 10.1551 10.4319 10.4566 9.7039C10.7581 8.97595 11.2001 8.31451 11.7572 7.75736C12.3144 7.20021 12.9758 6.75825 13.7038 6.45672C14.4317 6.15519 15.2119 6 15.9999 6C16.7878 6 17.568 6.15519 18.296 6.45672C19.0239 6.75825 19.6854 7.20021 20.2425 7.75736C20.7997 8.31451 21.2416 8.97595 21.5432 9.7039C21.8447 10.4319 21.9999 11.2121 21.9999 12C21.9999 12.7879 21.8447 13.5681 21.5432 14.2961C21.2416 15.0241 20.7997 15.6855 20.2425 16.2426C19.6854 16.7998 19.0239 17.2418 18.296 17.5433C17.568 17.8448 16.7878 18 15.9999 18L15.9999 18Z" stroke="#931602" stroke-linecap="round"/>
<path d="M13.9999 10L17.9999 14" stroke="#931602" stroke-linecap="round"/>
<path d="M17.9999 10L13.9999 14" stroke="#931602" stroke-linecap="round"/>
</svg>
