<svg width="100" height="25" viewBox="0 0 100 25" fill="none" xmlns="http://www.w3.org/2000/svg">
<rect x="0.75" y="0.75" width="98.5" height="23.5" rx="11.75" fill="#FCFCFC"/>
<rect x="0.75" y="0.75" width="98.5" height="23.5" rx="11.75" stroke="#018191" stroke-width="1.5"/>
<path d="M32.5743 14.83H28.3183L27.5343 17H26.1903L29.7183 7.298H31.1883L34.7023 17H33.3583L32.5743 14.83ZM32.2103 13.794L30.4463 8.866L28.6823 13.794H32.2103ZM37.3739 10.742C37.6259 10.3033 37.9992 9.93933 38.4939 9.65C38.9979 9.35133 39.5812 9.202 40.2439 9.202C40.9252 9.202 41.5412 9.36533 42.0919 9.692C42.6519 10.0187 43.0905 10.4807 43.4079 11.078C43.7252 11.666 43.8839 12.352 43.8839 13.136C43.8839 13.9107 43.7252 14.6013 43.4079 15.208C43.0905 15.8147 42.6519 16.286 42.0919 16.622C41.5412 16.958 40.9252 17.126 40.2439 17.126C39.5905 17.126 39.0119 16.9813 38.5079 16.692C38.0132 16.3933 37.6352 16.0247 37.3739 15.586V20.64H36.0999V9.328H37.3739V10.742ZM42.5819 13.136C42.5819 12.5573 42.4652 12.0533 42.2319 11.624C41.9985 11.1947 41.6812 10.868 41.2799 10.644C40.8879 10.42 40.4539 10.308 39.9779 10.308C39.5112 10.308 39.0772 10.4247 38.6759 10.658C38.2839 10.882 37.9665 11.2133 37.7239 11.652C37.4905 12.0813 37.3739 12.5807 37.3739 13.15C37.3739 13.7287 37.4905 14.2373 37.7239 14.676C37.9665 15.1053 38.2839 15.4367 38.6759 15.67C39.0772 15.894 39.5112 16.006 39.9779 16.006C40.4539 16.006 40.8879 15.894 41.2799 15.67C41.6812 15.4367 41.9985 15.1053 42.2319 14.676C42.4652 14.2373 42.5819 13.724 42.5819 13.136ZM46.6948 10.742C46.9468 10.3033 47.3201 9.93933 47.8148 9.65C48.3188 9.35133 48.9021 9.202 49.5648 9.202C50.2461 9.202 50.8621 9.36533 51.4128 9.692C51.9728 10.0187 52.4115 10.4807 52.7288 11.078C53.0461 11.666 53.2048 12.352 53.2048 13.136C53.2048 13.9107 53.0461 14.6013 52.7288 15.208C52.4115 15.8147 51.9728 16.286 51.4128 16.622C50.8621 16.958 50.2461 17.126 49.5648 17.126C48.9115 17.126 48.3328 16.9813 47.8288 16.692C47.3341 16.3933 46.9561 16.0247 46.6948 15.586V20.64H45.4208V9.328H46.6948V10.742ZM51.9028 13.136C51.9028 12.5573 51.7861 12.0533 51.5528 11.624C51.3195 11.1947 51.0021 10.868 50.6008 10.644C50.2088 10.42 49.7748 10.308 49.2988 10.308C48.8321 10.308 48.3981 10.4247 47.9968 10.658C47.6048 10.882 47.2875 11.2133 47.0448 11.652C46.8115 12.0813 46.6948 12.5807 46.6948 13.15C46.6948 13.7287 46.8115 14.2373 47.0448 14.676C47.2875 15.1053 47.6048 15.4367 47.9968 15.67C48.3981 15.894 48.8321 16.006 49.2988 16.006C49.7748 16.006 50.2088 15.894 50.6008 15.67C51.0021 15.4367 51.3195 15.1053 51.5528 14.676C51.7861 14.2373 51.9028 13.724 51.9028 13.136ZM56.0158 10.574C56.2398 10.1353 56.5571 9.79467 56.9678 9.552C57.3878 9.30933 57.8964 9.188 58.4938 9.188V10.504H58.1578C56.7298 10.504 56.0158 11.2787 56.0158 12.828V17H54.7418V9.328H56.0158V10.574ZM63.1704 17.126C62.4517 17.126 61.7984 16.9627 61.2104 16.636C60.6317 16.3093 60.1744 15.8473 59.8384 15.25C59.5117 14.6433 59.3484 13.9433 59.3484 13.15C59.3484 12.366 59.5164 11.6753 59.8524 11.078C60.1977 10.4713 60.6644 10.0093 61.2524 9.692C61.8404 9.36533 62.4984 9.202 63.2264 9.202C63.9544 9.202 64.6124 9.36533 65.2004 9.692C65.7884 10.0093 66.2504 10.4667 66.5864 11.064C66.9317 11.6613 67.1044 12.3567 67.1044 13.15C67.1044 13.9433 66.9271 14.6433 66.5724 15.25C66.2271 15.8473 65.7557 16.3093 65.1584 16.636C64.5611 16.9627 63.8984 17.126 63.1704 17.126ZM63.1704 16.006C63.6277 16.006 64.0571 15.8987 64.4584 15.684C64.8597 15.4693 65.1817 15.1473 65.4244 14.718C65.6764 14.2887 65.8024 13.766 65.8024 13.15C65.8024 12.534 65.6811 12.0113 65.4384 11.582C65.1957 11.1527 64.8784 10.8353 64.4864 10.63C64.0944 10.4153 63.6697 10.308 63.2124 10.308C62.7457 10.308 62.3164 10.4153 61.9244 10.63C61.5417 10.8353 61.2337 11.1527 61.0004 11.582C60.7671 12.0113 60.6504 12.534 60.6504 13.15C60.6504 13.7753 60.7624 14.3027 60.9864 14.732C61.2197 15.1613 61.5277 15.4833 61.9104 15.698C62.2931 15.9033 62.7131 16.006 63.1704 16.006ZM71.4955 15.824L73.8755 9.328H75.2335L72.2235 17H70.7395L67.7295 9.328H69.1015L71.4955 15.824ZM83.3471 12.87C83.3471 13.1127 83.3331 13.3693 83.3051 13.64H77.1731C77.2198 14.396 77.4765 14.9887 77.9431 15.418C78.4191 15.838 78.9931 16.048 79.6651 16.048C80.2158 16.048 80.6731 15.922 81.0371 15.67C81.4105 15.4087 81.6718 15.0633 81.8211 14.634H83.1931C82.9878 15.3713 82.5771 15.9733 81.9611 16.44C81.3451 16.8973 80.5798 17.126 79.6651 17.126C78.9371 17.126 78.2838 16.9627 77.7051 16.636C77.1358 16.3093 76.6878 15.8473 76.3611 15.25C76.0345 14.6433 75.8711 13.9433 75.8711 13.15C75.8711 12.3567 76.0298 11.6613 76.3471 11.064C76.6645 10.4667 77.1078 10.0093 77.6771 9.692C78.2558 9.36533 78.9185 9.202 79.6651 9.202C80.3931 9.202 81.0371 9.36067 81.5971 9.678C82.1571 9.99533 82.5865 10.434 82.8851 10.994C83.1931 11.5447 83.3471 12.17 83.3471 12.87ZM82.0311 12.604C82.0311 12.1187 81.9238 11.7033 81.7091 11.358C81.4945 11.0033 81.2005 10.7373 80.8271 10.56C80.4631 10.3733 80.0571 10.28 79.6091 10.28C78.9651 10.28 78.4145 10.4853 77.9571 10.896C77.5091 11.3067 77.2525 11.876 77.1871 12.604H82.0311ZM84.4128 13.136C84.4128 12.352 84.5715 11.666 84.8888 11.078C85.2061 10.4807 85.6401 10.0187 86.1908 9.692C86.7508 9.36533 87.3761 9.202 88.0668 9.202C88.6641 9.202 89.2195 9.342 89.7328 9.622C90.2461 9.89267 90.6381 10.252 90.9088 10.7V6.64H92.1968V17H90.9088V15.558C90.6568 16.0153 90.2835 16.3933 89.7888 16.692C89.2941 16.9813 88.7155 17.126 88.0528 17.126C87.3715 17.126 86.7508 16.958 86.1908 16.622C85.6401 16.286 85.2061 15.8147 84.8888 15.208C84.5715 14.6013 84.4128 13.9107 84.4128 13.136ZM90.9088 13.15C90.9088 12.5713 90.7921 12.0673 90.5588 11.638C90.3255 11.2087 90.0081 10.882 89.6068 10.658C89.2148 10.4247 88.7808 10.308 88.3048 10.308C87.8288 10.308 87.3948 10.42 87.0028 10.644C86.6108 10.868 86.2981 11.1947 86.0648 11.624C85.8315 12.0533 85.7148 12.5573 85.7148 13.136C85.7148 13.724 85.8315 14.2373 86.0648 14.676C86.2981 15.1053 86.6108 15.4367 87.0028 15.67C87.3948 15.894 87.8288 16.006 88.3048 16.006C88.7808 16.006 89.2148 15.894 89.6068 15.67C90.0081 15.4367 90.3255 15.1053 90.5588 14.676C90.7921 14.2373 90.9088 13.7287 90.9088 13.15Z" fill="#018191"/>
<circle cx="14.5" cy="13" r="6" stroke="#018191"/>
<path d="M11.8334 13L13.8334 15L17.1667 11" stroke="#018191"/>
</svg>
