<svg width="686" height="686" viewBox="0 0 686 686" fill="none" xmlns="http://www.w3.org/2000/svg">
<path opacity="0.36" d="M576.708 532.988C576.726 532.673 576.72 532.353 576.708 532.039V531.73L576.691 531.724C576.623 530.832 576.428 529.929 576.102 529.032L543.523 439.686C541.963 435.404 537.704 432.529 532.919 432.529H160.729C156.276 432.529 152.24 435.021 150.451 438.886L109.074 528.231C108.605 529.243 108.319 530.278 108.193 531.301L108.159 531.324V531.564C108.102 532.147 108.102 532.725 108.148 533.296L108.113 540.985H108.13C108.411 546.376 113.075 551.092 119.347 551.092H565.487C571.855 551.092 576.646 546.187 576.703 540.591L576.72 540.574L576.708 532.988Z" fill="#2B7693"/>
<path d="M523.488 197.865H167.865C161.857 197.865 156.986 202.736 156.986 208.744V414.584C156.986 420.592 161.857 425.463 167.865 425.463H523.488C529.496 425.463 534.366 420.592 534.366 414.584V208.744C534.366 202.736 529.496 197.865 523.488 197.865Z" fill="#3C3C3B"/>
<path d="M517.874 213.472H370.469L172.238 284.444V348.362L517.874 224.608V213.472Z" fill="#BBEFF7"/>
<path d="M172.238 213.472V284.444L370.469 213.472H172.238Z" fill="#8EE4F1"/>
<path d="M517.874 224.608L172.238 348.362V409.925H308.558L517.874 334.98V224.608Z" fill="#8EE4F1"/>
<path d="M517.874 334.979L308.559 409.925H517.874V334.979Z" fill="#BBEFF7"/>
<path d="M570.758 534.017L570.741 524.91L567.854 523.692L538.396 438.337C536.876 433.929 532.725 430.968 528.06 430.968H165.361C161.016 430.968 157.089 433.535 155.345 437.514L118.576 521.417L114.139 524.493L114.094 534.44H114.111C114.385 539.996 118.93 544.85 125.041 544.85H559.817C566.025 544.85 570.69 539.796 570.747 534.034L570.758 534.017Z" fill="#C6C6C6"/>
<path d="M559.811 536.635H125.041C117.152 536.635 111.859 528.534 115.026 521.308L155.351 429.299C157.095 425.32 161.022 422.753 165.367 422.753H528.066C532.731 422.753 536.881 425.714 538.402 430.122L570.152 522.132C572.605 529.232 567.328 536.635 559.817 536.635H559.811Z" fill="#EDF0F3"/>
<path d="M536.886 476.581L526.499 440.629C525.413 436.873 521.908 434.25 517.975 434.25H175.97C172.237 434.25 168.881 436.593 167.624 440.081L154.636 476.033C153.669 478.714 154.07 481.704 155.705 484.042C157.362 486.403 160.084 487.815 162.982 487.815H528.363C531.187 487.815 533.776 486.523 535.468 484.276C537.143 482.052 537.658 479.245 536.886 476.576V476.581Z" fill="#DADADA"/>
<path d="M528.362 482.561H162.982C160.483 482.561 158.74 480.131 159.574 477.822L172.563 441.87C173.077 440.452 174.438 439.503 175.97 439.503H517.975C519.593 439.503 521.011 440.555 521.451 442.087L531.838 478.039C532.495 480.309 530.758 482.561 528.362 482.561Z" fill="#3C3C3B"/>
<path d="M383.371 525.75H308.191C306.425 525.75 305.116 524.115 305.504 522.395L311.387 496.087C311.667 494.829 312.787 493.931 314.074 493.931H377.483C378.775 493.931 379.89 494.829 380.17 496.087L386.052 522.395C386.435 524.115 385.126 525.75 383.365 525.75H383.371Z" fill="#C6C6C6"/>
<path d="M349.563 205.571C349.563 203.931 348.237 202.604 346.596 202.604C344.955 202.604 343.629 203.931 343.629 205.571C343.629 207.212 344.955 208.538 346.596 208.538C348.237 208.538 349.563 207.212 349.563 205.571Z" fill="#706F6F"/>
<path d="M346.595 207.544C347.685 207.544 348.568 206.661 348.568 205.571C348.568 204.482 347.685 203.599 346.595 203.599C345.506 203.599 344.623 204.482 344.623 205.571C344.623 206.661 345.506 207.544 346.595 207.544Z" fill="#575756"/>
<path d="M385.876 131.483H207.516V409.885H478.486V207.292L385.876 131.483Z" fill="white"/>
<path d="M385.874 131.483L380.443 217.233L478.484 207.515L385.874 131.483Z" fill="#DADADA"/>
<path d="M385.875 207.292H478.485L385.875 131.483V207.292Z" fill="#F6F6F6"/>
<path d="M362.207 178.36H242.043C238.759 178.36 236.098 181.022 236.098 184.305V184.42C236.098 187.703 238.759 190.365 242.043 190.365H362.207C365.491 190.365 368.153 187.703 368.153 184.42V184.305C368.153 181.022 365.491 178.36 362.207 178.36Z" fill="#C6C6C6"/>
<path d="M362.207 213.232H242.043C238.759 213.232 236.098 215.894 236.098 219.177V219.291C236.098 222.575 238.759 225.237 242.043 225.237H362.207C365.491 225.237 368.153 222.575 368.153 219.291V219.177C368.153 215.894 365.491 213.232 362.207 213.232Z" fill="#C6C6C6"/>
<path d="M394.221 248.103H242.043C238.759 248.103 236.098 250.765 236.098 254.049V254.735C236.098 258.018 238.759 260.68 242.043 260.68H394.221C397.504 260.68 400.166 258.018 400.166 254.735V254.049C400.166 250.765 397.504 248.103 394.221 248.103Z" fill="#C6C6C6"/>
<path d="M327.907 284.69H242.043C238.759 284.69 236.098 287.352 236.098 290.635V290.75C236.098 294.033 238.759 296.695 242.043 296.695H327.907C331.191 296.695 333.853 294.033 333.853 290.75V290.635C333.853 287.352 331.191 284.69 327.907 284.69Z" fill="#B2B2B2"/>
<path d="M369.64 284.69H347.231C343.947 284.69 341.285 287.352 341.285 290.635V290.75C341.285 294.033 343.947 296.695 347.231 296.695H369.64C372.923 296.695 375.585 294.033 375.585 290.75V290.635C375.585 287.352 372.923 284.69 369.64 284.69Z" fill="#B2B2B2"/>
<path d="M327.913 320.705H242.037C238.757 320.705 236.098 323.364 236.098 326.645V326.77C236.098 330.051 238.757 332.71 242.037 332.71H327.913C331.193 332.71 333.853 330.051 333.853 326.77V326.645C333.853 323.364 331.193 320.705 327.913 320.705Z" fill="#931602"/>
<path d="M423.376 320.705H348.373C345.09 320.705 342.428 323.367 342.428 326.65V326.765C342.428 330.048 345.09 332.71 348.373 332.71H423.376C426.659 332.71 429.321 330.048 429.321 326.765V326.65C429.321 323.367 426.659 320.705 423.376 320.705Z" fill="#931602"/>
<path d="M444.528 248.103H415.83C412.547 248.103 409.885 250.765 409.885 254.049V254.735C409.885 258.018 412.547 260.68 415.83 260.68H444.528C447.811 260.68 450.473 258.018 450.473 254.735V254.049C450.473 250.765 447.811 248.103 444.528 248.103Z" fill="#C6C6C6"/>
<path d="M323.905 351.003H243.758C240.474 351.003 237.812 353.665 237.812 356.949V357.635C237.812 360.918 240.474 363.58 243.758 363.58H323.905C327.189 363.58 329.851 360.918 329.851 357.635V356.949C329.851 353.665 327.189 351.003 323.905 351.003Z" fill="#931602"/>
<path d="M363.351 351.003H341.514C338.23 351.003 335.568 353.665 335.568 356.949V357.635C335.568 360.918 338.23 363.58 341.514 363.58H363.351C366.635 363.58 369.297 360.918 369.297 357.635V356.949C369.297 353.665 366.635 351.003 363.351 351.003Z" fill="#931602"/>
<path d="M439.383 351.003H386.104C382.82 351.003 380.158 353.665 380.158 356.949V357.635C380.158 360.918 382.82 363.58 386.104 363.58H439.383C442.666 363.58 445.328 360.918 445.328 357.635V356.949C445.328 353.665 442.666 351.003 439.383 351.003Z" fill="#931602"/>
</svg>
