<svg width="75" height="74" viewBox="0 0 75 74" fill="none" xmlns="http://www.w3.org/2000/svg">
<path d="M74.0437 37.0001C74.0437 44.318 71.8737 51.4715 67.808 57.5561C63.7424 63.6408 57.9638 68.3832 51.203 71.1836C44.4421 73.984 37.0026 74.7168 29.8253 73.2891C22.648 71.8614 16.0553 68.3375 10.8807 63.163C5.70619 57.9885 2.18228 51.3957 0.754632 44.2184C-0.673021 37.0411 0.0597021 29.6016 2.86014 22.8408C5.66059 16.0799 10.403 10.3013 16.4876 6.23568C22.5722 2.17007 29.7258 6.10352e-05 37.0437 6.10352e-05V36.9312L74.0437 37.0001Z" fill="#931602"/>
<path d="M37.0437 72.0001C56.3736 72.0001 72.0437 56.33 72.0437 37.0001C72.0437 17.6701 56.3736 2.00006 37.0437 2.00006C17.7137 2.00006 2.04367 17.6701 2.04367 37.0001C2.04367 56.33 17.7137 72.0001 37.0437 72.0001Z" fill="white"/>
<g style="mix-blend-mode:multiply">
<path d="M49.1169 62.9307C62.7447 57.397 69.2161 42.0812 63.5713 28.7218C57.9265 15.3624 42.303 9.01832 28.6752 14.552C15.0475 20.0856 8.57602 35.4015 14.2208 48.7609C19.8656 62.1203 35.4891 68.4643 49.1169 62.9307Z" fill="#931602"/>
</g>
<path d="M39 22.7501C32.8037 22.7501 27.75 27.8038 27.75 34.0001C27.75 35.7579 28.4629 37.7745 29.4297 39.9766C30.3965 42.1788 31.6416 44.5176 32.9062 46.6954C35.4355 51.0557 37.9844 54.7032 37.9844 54.7032L39 56.1876L40.0156 54.7032C40.0156 54.7032 42.5645 51.0557 45.0938 46.6954C46.3584 44.5176 47.6035 42.1788 48.5703 39.9766C49.5371 37.7745 50.25 35.7579 50.25 34.0001C50.25 27.8038 45.1963 22.7501 39 22.7501ZM39 25.2501C43.8486 25.2501 47.75 29.1514 47.75 34.0001C47.75 35.001 47.2129 36.8956 46.3047 38.961C45.3965 41.0264 44.1416 43.3165 42.9062 45.4454C40.9434 48.834 39.7227 50.626 39 51.6954C38.2773 50.626 37.0566 48.834 35.0938 45.4454C33.8584 43.3165 32.6035 41.0264 31.6953 38.961C30.7871 36.8956 30.25 35.001 30.25 34.0001C30.25 29.1514 34.1514 25.2501 39 25.2501ZM39 31.5001C37.6182 31.5001 36.5 32.6182 36.5 34.0001C36.5 35.3819 37.6182 36.5001 39 36.5001C40.3818 36.5001 41.5 35.3819 41.5 34.0001C41.5 32.6182 40.3818 31.5001 39 31.5001Z" fill="white"/>
</svg>
