<svg width="366" height="378" viewBox="0 0 366 378" fill="none" xmlns="http://www.w3.org/2000/svg">
<path d="M269.309 31.0571C271.826 31.9181 315.349 74.1421 321.279 79.9481C321.299 74.5101 320.066 61.1651 323.345 57.2271C324.896 55.3641 327.182 54.2841 329.584 54.1011C332.095 53.9091 334.727 54.7181 336.582 56.4471C338.004 57.7711 338.802 59.4781 339.154 61.3691C339.809 64.8921 339.403 68.9081 339.396 72.5101C339.381 80.7841 339.108 89.1741 339.56 97.4331C343.449 100.737 364.08 119.751 365.916 122.928C365.983 123.835 366.008 123.992 365.598 124.792C363.404 125.894 343.556 125.334 339.33 125.349L339.382 191.669L339.434 210.871C339.456 214.316 339.764 217.986 339.346 221.405C339.054 223.79 338.321 225.905 336.596 227.643C335.22 229.028 333.692 229.625 331.79 229.979C327.719 230.737 323.031 230.304 318.889 230.3L295.829 230.266L234.855 230.264L217.551 230.289C214.21 230.292 210.508 230.553 207.213 230.016C206.765 229.941 206.324 229.832 205.892 229.689C205.46 229.546 205.042 229.37 204.637 229.161C204.233 228.952 203.848 228.714 203.481 228.445C203.114 228.176 202.77 227.88 202.449 227.557C200.882 226.006 200.181 223.956 199.905 221.812C199.447 218.246 199.726 214.437 199.737 210.842L199.775 191.171L199.765 125.365C193.731 125.254 187.684 125.344 181.648 125.331C179.671 125.327 174.368 125.744 172.951 124.322C172.954 124.183 172.943 124.043 172.958 123.905C173.098 122.587 174.184 121.393 175.066 120.478C180.123 115.235 185.749 110.343 191.038 105.312L224.184 73.7401L253.755 45.5771C258.874 40.7261 263.876 35.5521 269.309 31.0571Z" fill="#0168A2"/>
<path d="M132.819 0.235101C134.966 0.0897679 137.116 0.0114339 139.268 0.000100611C164.036 -0.0338994 193.702 8.5511 213.836 23.1901C221.731 28.9311 228.742 36.1581 235.638 43.0441C231.205 46.8711 227.036 51.0661 222.796 55.1091C215.634 61.9744 208.429 68.7951 201.183 75.5711C191.972 65.8981 177.045 58.4491 164.331 54.7901C163.611 54.5861 162.888 54.3908 162.164 54.2041C161.439 54.0174 160.712 53.8398 159.983 53.6711C159.253 53.5024 158.522 53.3428 157.79 53.1921C157.056 53.0414 156.322 52.8998 155.586 52.7671C154.849 52.6344 154.111 52.5108 153.372 52.3961C152.632 52.2814 151.891 52.1758 151.149 52.0791C150.407 51.9824 149.664 51.8951 148.92 51.8171C148.175 51.7391 147.43 51.6701 146.684 51.6101C145.938 51.5501 145.191 51.4994 144.444 51.4581C143.697 51.4161 142.95 51.3838 142.202 51.3611C141.454 51.3378 140.705 51.3234 139.957 51.3181C139.209 51.3134 138.46 51.3178 137.712 51.3311C136.964 51.3451 136.216 51.3678 135.468 51.3991C134.72 51.4311 133.973 51.4721 133.227 51.5221C132.48 51.5728 131.734 51.6321 130.989 51.7001C130.243 51.7688 129.499 51.8464 128.756 51.9331C128.012 52.0198 127.27 52.1158 126.53 52.2211C125.788 52.3258 125.049 52.4398 124.311 52.5631C123.573 52.6864 122.836 52.8184 122.101 52.9591C121.366 53.1004 120.633 53.2508 119.902 53.4101C119.17 53.5694 118.441 53.7374 117.715 53.9141C116.987 54.0914 116.262 54.2774 115.54 54.4721C114.817 54.6668 114.097 54.8704 113.38 55.0831C112.662 55.2958 111.947 55.5171 111.235 55.7471C110.523 55.9771 109.814 56.2158 109.108 56.4631C108.401 56.7111 107.698 56.9674 106.998 57.2321C106.298 57.4968 105.601 57.7698 104.909 58.0511C104.215 58.3331 103.525 58.6234 102.839 58.9221C102.153 59.2208 101.47 59.5281 100.792 59.8441C100.113 60.1594 99.4384 60.4831 98.7677 60.8151C98.0971 61.1471 97.4307 61.4874 96.7687 61.8361C96.106 62.1841 95.448 62.5404 94.7947 62.9051C94.1394 63.2698 93.4891 63.6421 92.8437 64.0221C92.1977 64.4028 91.5564 64.7911 90.9197 65.1871C90.2837 65.5831 89.6524 65.9868 89.0257 66.3981C88.3997 66.8101 87.7784 67.2294 87.1617 67.6561C86.5457 68.0828 85.9351 68.5171 85.3297 68.9591C84.7237 69.4011 84.1237 69.8501 83.5297 70.3061C82.935 70.7628 82.3461 71.2264 81.7627 71.6971C81.1794 72.1684 80.6021 72.6464 80.0307 73.1311C79.4594 73.6164 78.8941 74.1088 78.3347 74.6081C77.7754 75.1068 77.2224 75.6124 76.6757 76.1251C76.1284 76.6371 75.5877 77.1561 75.0537 77.6821C74.5197 78.2081 73.9921 78.7404 73.4707 79.2791C72.9494 79.8178 72.4347 80.3628 71.9267 80.9141C71.4194 81.4654 70.9184 82.0228 70.4237 82.5861C69.9297 83.1501 69.4427 83.7198 68.9627 84.2951C68.4827 84.8704 68.0097 85.4518 67.5437 86.0391C67.0777 86.6264 66.6191 87.2191 66.1677 87.8171C65.7164 88.4158 65.2724 89.0198 64.8357 89.6291C64.399 90.2384 63.97 90.8531 63.5487 91.4731C63.1274 92.0924 62.7134 92.7171 62.3067 93.3471C61.9007 93.9771 61.5024 94.6121 61.1117 95.2521C60.721 95.8914 60.3384 96.5358 59.9637 97.1851C59.5891 97.8344 59.2221 98.4881 58.8627 99.1461C58.5041 99.8041 58.1534 100.466 57.8107 101.133C57.4681 101.8 57.1337 102.47 56.8077 103.145C56.4817 103.82 56.164 104.499 55.8547 105.182C55.5454 105.865 55.2444 106.551 54.9517 107.241C54.659 107.931 54.3747 108.624 54.0987 109.321C53.8234 110.018 53.5564 110.719 53.2977 111.422C53.0397 112.126 52.79 112.833 52.5487 113.542C52.3074 114.252 52.0751 114.965 51.8517 115.68C51.6277 116.395 51.4127 117.113 51.2067 117.834C50.9987 118.561 50.7997 119.291 50.6097 120.024C50.4197 120.757 50.2387 121.492 50.0667 122.229C49.8954 122.966 49.733 123.705 49.5797 124.446C49.4264 125.187 49.2824 125.93 49.1477 126.675C49.0131 127.42 48.8874 128.166 48.7707 128.914C48.6547 129.661 48.5477 130.41 48.4497 131.161C48.3524 131.912 48.2644 132.663 48.1857 133.416C48.1064 134.169 48.0367 134.922 47.9767 135.677C47.9167 136.431 47.8657 137.186 47.8237 137.942C47.7824 138.697 47.7504 139.453 47.7277 140.21C47.7057 140.967 47.6927 141.723 47.6887 142.48C47.6847 143.237 47.6904 143.993 47.7057 144.75C47.7204 145.507 47.7447 146.263 47.7787 147.019C47.8127 147.775 47.856 148.531 47.9087 149.286C47.9614 150.041 48.0234 150.795 48.0947 151.548C48.166 152.302 48.2467 153.055 48.3367 153.806C48.4267 154.557 48.5261 155.307 48.6347 156.056C48.7434 156.805 48.8614 157.553 48.9887 158.299C49.116 159.045 49.2527 159.789 49.3987 160.532C49.5447 161.275 49.6997 162.015 49.8637 162.754C50.0284 163.493 50.2021 164.229 50.3847 164.964C50.5674 165.698 50.7591 166.43 50.9597 167.16C51.1604 167.889 51.3701 168.616 51.5887 169.341C51.8081 170.066 52.0361 170.787 52.2727 171.506C52.5094 172.225 52.7551 172.94 53.0097 173.653C53.2644 174.366 53.5281 175.075 53.8007 175.781C54.0727 176.487 54.3537 177.19 54.6437 177.889C54.933 178.588 55.2314 179.284 55.5387 179.976C55.846 180.667 56.1617 181.355 56.4857 182.039C56.8097 182.723 57.1424 183.403 57.4837 184.078C57.8244 184.754 58.1737 185.425 58.5317 186.092C58.8897 186.759 59.2557 187.421 59.6297 188.079C59.9997 188.731 60.3777 189.378 60.7637 190.02C61.1497 190.663 61.5434 191.301 61.9447 191.934C62.3467 192.567 62.7561 193.194 63.1727 193.817C63.5901 194.44 64.0147 195.057 64.4467 195.67C64.8787 196.283 65.3181 196.89 65.7647 197.491C66.2114 198.093 66.6654 198.689 67.1267 199.28C67.5887 199.871 68.0574 200.456 68.5327 201.035C69.0087 201.614 69.4917 202.187 69.9817 202.754C70.4711 203.322 70.9677 203.883 71.4717 204.438C71.9751 204.993 72.485 205.542 73.0017 206.085C73.519 206.628 74.0427 207.164 74.5727 207.694C75.1027 208.224 75.6391 208.747 76.1817 209.264C76.7251 209.781 77.2744 210.291 77.8297 210.794C78.3851 211.297 78.9464 211.794 79.5137 212.284C80.0811 212.773 80.6544 213.256 81.2337 213.732C81.8131 214.207 82.398 214.676 82.9887 215.137C83.5794 215.598 84.1757 216.052 84.7777 216.499C85.3797 216.946 85.9871 217.385 86.5997 217.817C87.2124 218.249 87.8301 218.673 88.4527 219.09C89.0761 219.507 89.7041 219.916 90.3367 220.317C90.9701 220.718 91.6081 221.112 92.2507 221.497C92.8934 221.883 93.5407 222.261 94.1927 222.631C94.8441 223.001 95.5004 223.363 96.1617 223.717C96.8224 224.07 97.4871 224.416 98.1557 224.754C98.8251 225.091 99.4984 225.421 100.176 225.742C100.853 226.063 101.534 226.376 102.219 226.68C102.904 226.985 103.593 227.281 104.285 227.569C104.977 227.856 105.672 228.135 106.371 228.406C107.07 228.677 107.772 228.939 108.478 229.192C109.183 229.445 109.891 229.69 110.603 229.926C111.314 230.163 112.028 230.39 112.746 230.608C113.462 230.827 114.182 231.037 114.904 231.238C115.634 231.439 116.366 231.632 117.102 231.815C117.837 231.999 118.574 232.173 119.314 232.338C120.053 232.503 120.794 232.659 121.538 232.806C122.28 232.953 123.025 233.09 123.772 233.218C124.518 233.347 125.267 233.466 126.017 233.575C126.766 233.685 127.517 233.785 128.269 233.876C129.021 233.967 129.775 234.049 130.529 234.121C131.283 234.194 132.038 234.257 132.794 234.31C133.549 234.363 134.305 234.407 135.062 234.442C135.818 234.477 136.576 234.503 137.334 234.519C138.091 234.535 138.848 234.541 139.606 234.538C140.364 234.535 141.121 234.523 141.878 234.502C142.635 234.481 143.392 234.45 144.149 234.409C144.905 234.368 145.661 234.319 146.417 234.26C147.172 234.201 147.926 234.132 148.68 234.054C149.433 233.976 150.186 233.889 150.938 233.793C151.689 233.696 152.439 233.59 153.188 233.475C153.936 233.36 154.684 233.235 155.43 233.102C156.175 232.968 156.919 232.825 157.661 232.673C158.403 232.521 159.144 232.36 159.882 232.189C160.62 232.018 161.356 231.839 162.09 231.65C162.823 231.461 163.554 231.263 164.283 231.056C165.011 230.849 165.738 230.633 166.462 230.408C167.185 230.183 167.905 229.949 168.623 229.706C169.34 229.463 170.054 229.212 170.766 228.951C171.478 228.69 172.186 228.421 172.891 228.143C173.595 227.865 174.296 227.578 174.994 227.282C175.691 226.987 176.385 226.683 177.075 226.37C177.765 226.057 178.451 225.736 179.133 225.406C179.815 225.076 180.493 224.738 181.167 224.391C181.84 224.044 182.509 223.689 183.174 223.326C183.839 222.963 184.499 222.591 185.155 222.212C185.98 228.196 187.954 233.446 192.304 237.779C193.03 238.507 193.801 239.185 194.616 239.812C195.43 240.439 196.282 241.011 197.172 241.527C198.061 242.044 198.98 242.5 199.929 242.897C200.878 243.294 201.849 243.627 202.841 243.897C208.718 245.483 215.441 244.851 221.494 244.839L240.778 244.821C234.942 252.889 228.791 260.772 222.817 268.742L140.598 377.875C139.397 377.317 138.984 377.938 137.889 377.541C132.95 372.072 128.685 365.553 124.249 359.644L98.2467 325.085L59.5297 273.639C44.8117 254.083 29.9717 234.976 18.6967 213.121C9.34972 195.002 2.35172 174.773 0.534718 154.372C-2.85128 116.36 10.0137 81.6841 34.2957 52.6661C42.7567 42.5551 54.8577 30.1991 65.5807 22.6291C85.1287 8.8301 109.279 2.3191 132.819 0.235101Z" fill="#0168A2"/>
<path d="M239 154C239 137.431 252.431 124 269 124V124C285.569 124 299 137.431 299 154V189H239V154Z" fill="white"/>
</svg>
