<svg width="38" height="38" viewBox="0 0 38 38" fill="none" xmlns="http://www.w3.org/2000/svg">
<g clip-path="url(#clip0_4486_14448)">
<!-- <path d="M19 38C29.4934 38 38 29.4934 38 19C38 8.50659 29.4934 0 19 0C8.50659 0 0 8.50659 0 19C0 29.4934 8.50659 38 19 38Z" fill="#931602" fill-opacity="0.22"/> -->
<path d="M29.8958 13.4014C29.6864 12.994 29.1834 12.8663 28.7995 13.0867C28.4101 13.3102 28.2867 13.7987 28.4827 14.1844C29.6172 16.4183 29.9291 18.9876 29.3522 21.4377C28.7335 24.0649 27.1391 26.3587 24.8921 27.854C22.645 29.3494 19.9135 29.9344 17.2511 29.4906C14.5888 29.0467 12.1948 27.6072 10.5543 25.4638C8.91393 23.3204 8.14982 20.6335 8.41689 17.9476C8.68397 15.2618 9.96226 12.7779 11.9926 10.9996C14.023 9.22119 16.6537 8.28133 19.3513 8.37048C21.8671 8.45363 24.2656 9.42592 26.1256 11.1046C26.4467 11.3945 26.9505 11.4031 27.268 11.0856C27.581 10.7726 27.5892 10.2536 27.2505 9.94511C25.1022 7.98749 22.3219 6.85311 19.4046 6.75669C16.2974 6.654 13.2674 7.73655 10.9288 9.78492C8.59014 11.8333 7.11778 14.6942 6.81015 17.7879C6.50252 20.8815 7.38265 23.9764 9.27213 26.4452C11.1616 28.914 13.9191 30.572 16.9856 31.0832C20.0522 31.5945 23.1984 30.9206 25.7866 29.1983C28.3748 27.4759 30.2113 24.8339 30.9239 21.8078C31.5929 18.9667 31.2242 15.9865 29.8958 13.4014Z" fill="#931602"/>
<path d="M29.8958 13.4014L29.6734 13.5157M29.8958 13.4014C29.6864 12.994 29.1834 12.8663 28.7995 13.0867C28.4101 13.3102 28.2867 13.7987 28.4827 14.1844C29.6172 16.4183 29.9291 18.9876 29.3522 21.4377C28.7335 24.0649 27.1391 26.3587 24.8921 27.854C22.645 29.3494 19.9135 29.9344 17.2511 29.4906C14.5888 29.0467 12.1948 27.6072 10.5543 25.4638C8.91393 23.3204 8.14982 20.6335 8.41689 17.9476C8.68397 15.2618 9.96226 12.7779 11.9926 10.9996C14.023 9.22119 16.6537 8.28133 19.3513 8.37048C21.8671 8.45363 24.2656 9.42592 26.1256 11.1046C26.4467 11.3945 26.9505 11.4031 27.268 11.0856C27.581 10.7726 27.5892 10.2536 27.2505 9.94511C25.1022 7.98749 22.3219 6.85311 19.4046 6.75669C16.2974 6.654 13.2674 7.73655 10.9288 9.78492C8.59014 11.8333 7.11778 14.6942 6.81015 17.7879C6.50252 20.8815 7.38265 23.9764 9.27213 26.4452C11.1616 28.914 13.9191 30.572 16.9856 31.0832C20.0522 31.5945 23.1984 30.9206 25.7866 29.1983C28.3748 27.4759 30.2113 24.8339 30.9239 21.8078C31.5929 18.9667 31.2242 15.9865 29.8958 13.4014Z" stroke="#931602" stroke-width="0.5" stroke-linejoin="round"/>
<path d="M12.4663 20.8661L16.1996 23.6661L24.5996 13.3994" stroke="#931602" stroke-width="2"/>
</g>
<defs>
<clipPath id="clip0_4486_14448">
<rect width="48" height="48" fill="white"/>
</clipPath>
</defs>
</svg>
