<svg width="100" height="24" viewBox="0 0 100 24" fill="none" xmlns="http://www.w3.org/2000/svg">
<rect x="0.75" y="0.75" width="98.5" height="22.5" rx="11.25" fill="#FCFCFC"/>
<rect x="0.75" y="0.75" width="98.5" height="22.5" rx="11.25" stroke="#C88E20" stroke-width="1.5"/>
<path d="M39.3407 10.098C39.3407 10.91 39.0607 11.5867 38.5007 12.128C37.95 12.66 37.1053 12.926 35.9667 12.926H34.0907V17H32.8167V7.242H35.9667C37.068 7.242 37.9033 7.508 38.4727 8.04C39.0513 8.572 39.3407 9.258 39.3407 10.098ZM35.9667 11.876C36.676 11.876 37.1987 11.722 37.5347 11.414C37.8707 11.106 38.0387 10.6673 38.0387 10.098C38.0387 8.894 37.348 8.292 35.9667 8.292H34.0907V11.876H35.9667ZM47.7841 12.87C47.7841 13.1127 47.7701 13.3693 47.7421 13.64H41.6101C41.6568 14.396 41.9134 14.9887 42.3801 15.418C42.8561 15.838 43.4301 16.048 44.1021 16.048C44.6528 16.048 45.1101 15.922 45.4741 15.67C45.8474 15.4087 46.1088 15.0633 46.2581 14.634H47.6301C47.4248 15.3713 47.0141 15.9733 46.3981 16.44C45.7821 16.8973 45.0168 17.126 44.1021 17.126C43.3741 17.126 42.7208 16.9627 42.1421 16.636C41.5728 16.3093 41.1248 15.8473 40.7981 15.25C40.4714 14.6433 40.3081 13.9433 40.3081 13.15C40.3081 12.3567 40.4668 11.6613 40.7841 11.064C41.1014 10.4667 41.5448 10.0093 42.1141 9.692C42.6928 9.36533 43.3554 9.202 44.1021 9.202C44.8301 9.202 45.4741 9.36067 46.0341 9.678C46.5941 9.99533 47.0234 10.434 47.3221 10.994C47.6301 11.5447 47.7841 12.17 47.7841 12.87ZM46.4681 12.604C46.4681 12.1187 46.3608 11.7033 46.1461 11.358C45.9314 11.0033 45.6374 10.7373 45.2641 10.56C44.9001 10.3733 44.4941 10.28 44.0461 10.28C43.4021 10.28 42.8514 10.4853 42.3941 10.896C41.9461 11.3067 41.6894 11.876 41.6241 12.604H46.4681ZM53.0637 9.188C53.9971 9.188 54.7531 9.47267 55.3317 10.042C55.9104 10.602 56.1997 11.414 56.1997 12.478V17H54.9397V12.66C54.9397 11.8947 54.7484 11.3113 54.3657 10.91C53.9831 10.4993 53.4604 10.294 52.7977 10.294C52.1257 10.294 51.5891 10.504 51.1877 10.924C50.7957 11.344 50.5997 11.9553 50.5997 12.758V17H49.3257V9.328H50.5997V10.42C50.8517 10.028 51.1924 9.72467 51.6217 9.51C52.0604 9.29533 52.5411 9.188 53.0637 9.188ZM57.6648 13.136C57.6648 12.352 57.8235 11.666 58.1408 11.078C58.4582 10.4807 58.8922 10.0187 59.4428 9.692C60.0028 9.36533 60.6282 9.202 61.3188 9.202C61.9162 9.202 62.4715 9.342 62.9848 9.622C63.4982 9.89267 63.8902 10.252 64.1608 10.7V6.64H65.4488V17H64.1608V15.558C63.9088 16.0153 63.5355 16.3933 63.0408 16.692C62.5462 16.9813 61.9675 17.126 61.3048 17.126C60.6235 17.126 60.0028 16.958 59.4428 16.622C58.8922 16.286 58.4582 15.8147 58.1408 15.208C57.8235 14.6013 57.6648 13.9107 57.6648 13.136ZM64.1608 13.15C64.1608 12.5713 64.0442 12.0673 63.8108 11.638C63.5775 11.2087 63.2602 10.882 62.8588 10.658C62.4668 10.4247 62.0328 10.308 61.5568 10.308C61.0808 10.308 60.6468 10.42 60.2548 10.644C59.8628 10.868 59.5502 11.1947 59.3168 11.624C59.0835 12.0533 58.9668 12.5573 58.9668 13.136C58.9668 13.724 59.0835 14.2373 59.3168 14.676C59.5502 15.1053 59.8628 15.4367 60.2548 15.67C60.6468 15.894 61.0808 16.006 61.5568 16.006C62.0328 16.006 62.4668 15.894 62.8588 15.67C63.2602 15.4367 63.5775 15.1053 63.8108 14.676C64.0442 14.2373 64.1608 13.7287 64.1608 13.15ZM68.1198 8.082C67.8771 8.082 67.6718 7.998 67.5038 7.83C67.3358 7.662 67.2518 7.45667 67.2518 7.214C67.2518 6.97133 67.3358 6.766 67.5038 6.598C67.6718 6.43 67.8771 6.346 68.1198 6.346C68.3531 6.346 68.5491 6.43 68.7078 6.598C68.8758 6.766 68.9598 6.97133 68.9598 7.214C68.9598 7.45667 68.8758 7.662 68.7078 7.83C68.5491 7.998 68.3531 8.082 68.1198 8.082ZM68.7358 9.328V17H67.4618V9.328H68.7358ZM74.5051 9.188C75.4384 9.188 76.1944 9.47267 76.7731 10.042C77.3517 10.602 77.6411 11.414 77.6411 12.478V17H76.3811V12.66C76.3811 11.8947 76.1897 11.3113 75.8071 10.91C75.4244 10.4993 74.9017 10.294 74.2391 10.294C73.5671 10.294 73.0304 10.504 72.6291 10.924C72.2371 11.344 72.0411 11.9553 72.0411 12.758V17H70.7671V9.328H72.0411V10.42C72.2931 10.028 72.6337 9.72467 73.0631 9.51C73.5017 9.29533 73.9824 9.188 74.5051 9.188ZM82.7462 9.202C83.4088 9.202 83.9875 9.34667 84.4822 9.636C84.9862 9.92533 85.3595 10.2893 85.6022 10.728V9.328H86.8902V17.168C86.8902 17.868 86.7408 18.4887 86.4422 19.03C86.1435 19.5807 85.7142 20.01 85.1542 20.318C84.6035 20.626 83.9595 20.78 83.2222 20.78C82.2142 20.78 81.3742 20.542 80.7022 20.066C80.0302 19.59 79.6335 18.9413 79.5122 18.12H80.7722C80.9122 18.5867 81.2015 18.96 81.6402 19.24C82.0788 19.5293 82.6062 19.674 83.2222 19.674C83.9222 19.674 84.4915 19.4547 84.9302 19.016C85.3782 18.5773 85.6022 17.9613 85.6022 17.168V15.558C85.3502 16.006 84.9768 16.3793 84.4822 16.678C83.9875 16.9767 83.4088 17.126 82.7462 17.126C82.0648 17.126 81.4442 16.958 80.8842 16.622C80.3335 16.286 79.8995 15.8147 79.5822 15.208C79.2648 14.6013 79.1062 13.9107 79.1062 13.136C79.1062 12.352 79.2648 11.666 79.5822 11.078C79.8995 10.4807 80.3335 10.0187 80.8842 9.692C81.4442 9.36533 82.0648 9.202 82.7462 9.202ZM85.6022 13.15C85.6022 12.5713 85.4855 12.0673 85.2522 11.638C85.0188 11.2087 84.7015 10.882 84.3002 10.658C83.9082 10.4247 83.4742 10.308 82.9982 10.308C82.5222 10.308 82.0882 10.42 81.6962 10.644C81.3042 10.868 80.9915 11.1947 80.7582 11.624C80.5248 12.0533 80.4082 12.5573 80.4082 13.136C80.4082 13.724 80.5248 14.2373 80.7582 14.676C80.9915 15.1053 81.3042 15.4367 81.6962 15.67C82.0882 15.894 82.5222 16.006 82.9982 16.006C83.4742 16.006 83.9082 15.894 84.3002 15.67C84.7015 15.4367 85.0188 15.1053 85.2522 14.676C85.4855 14.2373 85.6022 13.7287 85.6022 13.15Z" fill="#C88E20"/>
<path d="M13.5035 6.45282C12.2201 7.03038 11.1766 8.03509 10.5509 9.29576C9.92518 10.5564 9.75594 11.9951 10.072 13.3665C10.3881 14.738 11.1699 15.9574 12.2843 16.8171C13.3987 17.6767 14.7766 18.1233 16.1834 18.0809C17.5902 18.0384 18.9387 17.5095 19.9992 16.5843C21.0598 15.659 21.7667 14.3947 21.9995 13.0066C22.2323 11.6186 21.9766 10.1928 21.2761 8.97216C20.5755 7.75151 19.4733 6.81154 18.1574 6.3124" stroke="#C88E20" stroke-width="1.5" stroke-linecap="round"/>
<path d="M16 12L12 8" stroke="#C88E20" stroke-width="1.5" stroke-linecap="round"/>
<path d="M18.9494 4.31683C19.0588 4.26447 19.2458 4.26156 19.4815 4.30855C19.7172 4.35554 19.9885 4.44981 20.2531 4.57674C20.5178 4.70366 20.761 4.85615 20.9453 5.01055C21.1295 5.16495 21.2443 5.31263 21.2719 5.43069" stroke="#C88E20" stroke-linecap="round"/>
<path d="M10.0146 6.12387C10.0172 6.00265 10.099 5.8344 10.2472 5.64522C10.3955 5.45604 10.602 5.25651 10.8346 5.07756C11.0673 4.89861 11.3131 4.75025 11.534 4.65549C11.7549 4.56073 11.9385 4.52486 12.0563 4.55346" stroke="#C88E20" stroke-linecap="round"/>
</svg>
