<svg width="139" height="25" viewBox="0 0 139 25" fill="none" xmlns="http://www.w3.org/2000/svg">
<rect x="0.75" y="0.75" width="137.5" height="23.5" rx="11.75" fill="#FCFCFC"/>
<rect x="0.75" y="0.75" width="137.5" height="23.5" rx="11.75" stroke="#931602" stroke-width="1.5"/>
<path d="M30.1344 17.098C29.4904 17.098 28.9118 16.986 28.3984 16.762C27.8944 16.5287 27.4978 16.2113 27.2084 15.81C26.9191 15.3993 26.7698 14.928 26.7604 14.396H28.1184C28.1651 14.8533 28.3518 15.2407 28.6784 15.558C29.0144 15.866 29.4998 16.02 30.1344 16.02C30.7411 16.02 31.2171 15.8707 31.5624 15.572C31.9171 15.264 32.0944 14.872 32.0944 14.396C32.0944 14.0227 31.9918 13.7193 31.7864 13.486C31.5811 13.2527 31.3244 13.0753 31.0164 12.954C30.7084 12.8327 30.2931 12.702 29.7704 12.562C29.1264 12.394 28.6084 12.226 28.2164 12.058C27.8338 11.89 27.5024 11.6287 27.2224 11.274C26.9518 10.91 26.8164 10.4247 26.8164 9.818C26.8164 9.286 26.9518 8.81467 27.2224 8.404C27.4931 7.99333 27.8711 7.676 28.3564 7.452C28.8511 7.228 29.4158 7.116 30.0504 7.116C30.9651 7.116 31.7118 7.34467 32.2904 7.802C32.8784 8.25933 33.2098 8.866 33.2844 9.622H31.8844C31.8378 9.24867 31.6418 8.922 31.2964 8.642C30.9511 8.35267 30.4938 8.208 29.9244 8.208C29.3924 8.208 28.9584 8.348 28.6224 8.628C28.2864 8.89867 28.1184 9.28133 28.1184 9.776C28.1184 10.1307 28.2164 10.42 28.4124 10.644C28.6178 10.868 28.8651 11.0407 29.1544 11.162C29.4531 11.274 29.8684 11.4047 30.4004 11.554C31.0444 11.7313 31.5624 11.9087 31.9544 12.086C32.3464 12.254 32.6824 12.52 32.9624 12.884C33.2424 13.2387 33.3824 13.724 33.3824 14.34C33.3824 14.816 33.2564 15.264 33.0044 15.684C32.7524 16.104 32.3791 16.4447 31.8844 16.706C31.3898 16.9673 30.8064 17.098 30.1344 17.098ZM36.6712 10.378V14.9C36.6712 15.2733 36.7506 15.5393 36.9092 15.698C37.0679 15.8473 37.3432 15.922 37.7352 15.922H38.6732V17H37.5252C36.8159 17 36.2839 16.8367 35.9292 16.51C35.5746 16.1833 35.3972 15.6467 35.3972 14.9V10.378H34.4032V9.328H35.3972V7.396H36.6712V9.328H38.6732V10.378H36.6712ZM39.6008 13.136C39.6008 12.352 39.7595 11.666 40.0768 11.078C40.3942 10.4807 40.8282 10.0187 41.3788 9.692C41.9388 9.36533 42.5595 9.202 43.2408 9.202C43.9128 9.202 44.4962 9.34667 44.9908 9.636C45.4855 9.92533 45.8542 10.2893 46.0968 10.728V9.328H47.3848V17H46.0968V15.572C45.8448 16.02 45.4668 16.3933 44.9628 16.692C44.4682 16.9813 43.8895 17.126 43.2268 17.126C42.5455 17.126 41.9295 16.958 41.3788 16.622C40.8282 16.286 40.3942 15.8147 40.0768 15.208C39.7595 14.6013 39.6008 13.9107 39.6008 13.136ZM46.0968 13.15C46.0968 12.5713 45.9802 12.0673 45.7468 11.638C45.5135 11.2087 45.1962 10.882 44.7948 10.658C44.4028 10.4247 43.9688 10.308 43.4928 10.308C43.0168 10.308 42.5828 10.42 42.1908 10.644C41.7988 10.868 41.4862 11.1947 41.2528 11.624C41.0195 12.0533 40.9028 12.5573 40.9028 13.136C40.9028 13.724 41.0195 14.2373 41.2528 14.676C41.4862 15.1053 41.7988 15.4367 42.1908 15.67C42.5828 15.894 43.0168 16.006 43.4928 16.006C43.9688 16.006 44.4028 15.894 44.7948 15.67C45.1962 15.4367 45.5135 15.1053 45.7468 14.676C45.9802 14.2373 46.0968 13.7287 46.0968 13.15ZM50.6718 10.574C50.8958 10.1353 51.2131 9.79467 51.6238 9.552C52.0438 9.30933 52.5524 9.188 53.1498 9.188V10.504H52.8138C51.3858 10.504 50.6718 11.2787 50.6718 12.828V17H49.3978V9.328H50.6718V10.574ZM56.0344 10.378V14.9C56.0344 15.2733 56.1138 15.5393 56.2724 15.698C56.4311 15.8473 56.7064 15.922 57.0984 15.922H58.0364V17H56.8884C56.1791 17 55.6471 16.8367 55.2924 16.51C54.9378 16.1833 54.7604 15.6467 54.7604 14.9V10.378H53.7664V9.328H54.7604V7.396H56.0344V9.328H58.0364V10.378H56.0344ZM68.1705 17L65.8465 13.01H64.3065V17H63.0325V7.242H66.1825C66.9198 7.242 67.5405 7.368 68.0445 7.62C68.5578 7.872 68.9405 8.21267 69.1925 8.642C69.4445 9.07133 69.5705 9.56133 69.5705 10.112C69.5705 10.784 69.3745 11.3767 68.9825 11.89C68.5998 12.4033 68.0211 12.744 67.2465 12.912L69.6965 17H68.1705ZM64.3065 11.988H66.1825C66.8731 11.988 67.3911 11.82 67.7365 11.484C68.0818 11.1387 68.2545 10.6813 68.2545 10.112C68.2545 9.53333 68.0818 9.08533 67.7365 8.768C67.4005 8.45067 66.8825 8.292 66.1825 8.292H64.3065V11.988ZM78.41 12.87C78.41 13.1127 78.396 13.3693 78.368 13.64H72.236C72.2827 14.396 72.5394 14.9887 73.006 15.418C73.482 15.838 74.056 16.048 74.728 16.048C75.2787 16.048 75.736 15.922 76.1 15.67C76.4734 15.4087 76.7347 15.0633 76.884 14.634H78.256C78.0507 15.3713 77.64 15.9733 77.024 16.44C76.408 16.8973 75.6427 17.126 74.728 17.126C74 17.126 73.3467 16.9627 72.768 16.636C72.1987 16.3093 71.7507 15.8473 71.424 15.25C71.0974 14.6433 70.934 13.9433 70.934 13.15C70.934 12.3567 71.0927 11.6613 71.41 11.064C71.7274 10.4667 72.1707 10.0093 72.74 9.692C73.3187 9.36533 73.9814 9.202 74.728 9.202C75.456 9.202 76.1 9.36067 76.66 9.678C77.22 9.99533 77.6494 10.434 77.948 10.994C78.256 11.5447 78.41 12.17 78.41 12.87ZM77.094 12.604C77.094 12.1187 76.9867 11.7033 76.772 11.358C76.5574 11.0033 76.2634 10.7373 75.89 10.56C75.526 10.3733 75.12 10.28 74.672 10.28C74.028 10.28 73.4774 10.4853 73.02 10.896C72.572 11.3067 72.3154 11.876 72.25 12.604H77.094ZM79.4757 13.15C79.4757 12.3567 79.6343 11.666 79.9517 11.078C80.269 10.4807 80.7077 10.0187 81.2677 9.692C81.837 9.36533 82.4857 9.202 83.2137 9.202C84.1563 9.202 84.931 9.43067 85.5377 9.888C86.1537 10.3453 86.5597 10.98 86.7557 11.792H85.3837C85.253 11.3253 84.9963 10.9567 84.6137 10.686C84.2403 10.4153 83.7737 10.28 83.2137 10.28C82.4857 10.28 81.8977 10.532 81.4497 11.036C81.0017 11.5307 80.7777 12.2353 80.7777 13.15C80.7777 14.074 81.0017 14.788 81.4497 15.292C81.8977 15.796 82.4857 16.048 83.2137 16.048C83.7737 16.048 84.2403 15.9173 84.6137 15.656C84.987 15.3947 85.2437 15.0213 85.3837 14.536H86.7557C86.5503 15.32 86.1397 15.95 85.5237 16.426C84.9077 16.8927 84.1377 17.126 83.2137 17.126C82.4857 17.126 81.837 16.9627 81.2677 16.636C80.7077 16.3093 80.269 15.8473 79.9517 15.25C79.6343 14.6527 79.4757 13.9527 79.4757 13.15ZM91.6616 17.126C90.9429 17.126 90.2896 16.9627 89.7016 16.636C89.1229 16.3093 88.6656 15.8473 88.3296 15.25C88.0029 14.6433 87.8396 13.9433 87.8396 13.15C87.8396 12.366 88.0076 11.6753 88.3436 11.078C88.6889 10.4713 89.1556 10.0093 89.7436 9.692C90.3316 9.36533 90.9896 9.202 91.7176 9.202C92.4456 9.202 93.1036 9.36533 93.6916 9.692C94.2796 10.0093 94.7416 10.4667 95.0776 11.064C95.4229 11.6613 95.5956 12.3567 95.5956 13.15C95.5956 13.9433 95.4182 14.6433 95.0636 15.25C94.7182 15.8473 94.2469 16.3093 93.6496 16.636C93.0522 16.9627 92.3896 17.126 91.6616 17.126ZM91.6616 16.006C92.1189 16.006 92.5482 15.8987 92.9496 15.684C93.3509 15.4693 93.6729 15.1473 93.9156 14.718C94.1676 14.2887 94.2936 13.766 94.2936 13.15C94.2936 12.534 94.1722 12.0113 93.9296 11.582C93.6869 11.1527 93.3696 10.8353 92.9776 10.63C92.5856 10.4153 92.1609 10.308 91.7036 10.308C91.2369 10.308 90.8076 10.4153 90.4156 10.63C90.0329 10.8353 89.7249 11.1527 89.4916 11.582C89.2582 12.0113 89.1416 12.534 89.1416 13.15C89.1416 13.7753 89.2536 14.3027 89.4776 14.732C89.7109 15.1613 90.0189 15.4833 90.4016 15.698C90.7842 15.9033 91.2042 16.006 91.6616 16.006ZM98.4047 10.574C98.6287 10.1353 98.946 9.79467 99.3567 9.552C99.7767 9.30933 100.285 9.188 100.883 9.188V10.504H100.547C99.1187 10.504 98.4047 11.2787 98.4047 12.828V17H97.1307V9.328H98.4047V10.574ZM101.737 13.136C101.737 12.352 101.896 11.666 102.213 11.078C102.531 10.4807 102.965 10.0187 103.515 9.692C104.075 9.36533 104.701 9.202 105.391 9.202C105.989 9.202 106.544 9.342 107.057 9.622C107.571 9.89267 107.963 10.252 108.233 10.7V6.64H109.521V17H108.233V15.558C107.981 16.0153 107.608 16.3933 107.113 16.692C106.619 16.9813 106.04 17.126 105.377 17.126C104.696 17.126 104.075 16.958 103.515 16.622C102.965 16.286 102.531 15.8147 102.213 15.208C101.896 14.6013 101.737 13.9107 101.737 13.136ZM108.233 13.15C108.233 12.5713 108.117 12.0673 107.883 11.638C107.65 11.2087 107.333 10.882 106.931 10.658C106.539 10.4247 106.105 10.308 105.629 10.308C105.153 10.308 104.719 10.42 104.327 10.644C103.935 10.868 103.623 11.1947 103.389 11.624C103.156 12.0533 103.039 12.5573 103.039 13.136C103.039 13.724 103.156 14.2373 103.389 14.676C103.623 15.1053 103.935 15.4367 104.327 15.67C104.719 15.894 105.153 16.006 105.629 16.006C106.105 16.006 106.539 15.894 106.931 15.67C107.333 15.4367 107.65 15.1053 107.883 14.676C108.117 14.2373 108.233 13.7287 108.233 13.15ZM112.192 8.082C111.95 8.082 111.744 7.998 111.576 7.83C111.408 7.662 111.324 7.45667 111.324 7.214C111.324 6.97133 111.408 6.766 111.576 6.598C111.744 6.43 111.95 6.346 112.192 6.346C112.426 6.346 112.622 6.43 112.78 6.598C112.948 6.766 113.032 6.97133 113.032 7.214C113.032 7.45667 112.948 7.662 112.78 7.83C112.622 7.998 112.426 8.082 112.192 8.082ZM112.808 9.328V17H111.534V9.328H112.808ZM118.578 9.188C119.511 9.188 120.267 9.47267 120.846 10.042C121.424 10.602 121.714 11.414 121.714 12.478V17H120.454V12.66C120.454 11.8947 120.262 11.3113 119.88 10.91C119.497 10.4993 118.974 10.294 118.312 10.294C117.64 10.294 117.103 10.504 116.702 10.924C116.31 11.344 116.114 11.9553 116.114 12.758V17H114.84V9.328H116.114V10.42C116.366 10.028 116.706 9.72467 117.136 9.51C117.574 9.29533 118.055 9.188 118.578 9.188ZM126.819 9.202C127.481 9.202 128.06 9.34667 128.555 9.636C129.059 9.92533 129.432 10.2893 129.675 10.728V9.328H130.963V17.168C130.963 17.868 130.813 18.4887 130.515 19.03C130.216 19.5807 129.787 20.01 129.227 20.318C128.676 20.626 128.032 20.78 127.295 20.78C126.287 20.78 125.447 20.542 124.775 20.066C124.103 19.59 123.706 18.9413 123.585 18.12H124.845C124.985 18.5867 125.274 18.96 125.713 19.24C126.151 19.5293 126.679 19.674 127.295 19.674C127.995 19.674 128.564 19.4547 129.003 19.016C129.451 18.5773 129.675 17.9613 129.675 17.168V15.558C129.423 16.006 129.049 16.3793 128.555 16.678C128.06 16.9767 127.481 17.126 126.819 17.126C126.137 17.126 125.517 16.958 124.957 16.622C124.406 16.286 123.972 15.8147 123.655 15.208C123.337 14.6013 123.179 13.9107 123.179 13.136C123.179 12.352 123.337 11.666 123.655 11.078C123.972 10.4807 124.406 10.0187 124.957 9.692C125.517 9.36533 126.137 9.202 126.819 9.202ZM129.675 13.15C129.675 12.5713 129.558 12.0673 129.325 11.638C129.091 11.2087 128.774 10.882 128.373 10.658C127.981 10.4247 127.547 10.308 127.071 10.308C126.595 10.308 126.161 10.42 125.769 10.644C125.377 10.868 125.064 11.1947 124.831 11.624C124.597 12.0533 124.481 12.5573 124.481 13.136C124.481 13.724 124.597 14.2373 124.831 14.676C125.064 15.1053 125.377 15.4367 125.769 15.67C126.161 15.894 126.595 16.006 127.071 16.006C127.547 16.006 127.981 15.894 128.373 15.67C128.774 15.4367 129.091 15.1053 129.325 14.676C129.558 14.2373 129.675 13.7287 129.675 13.15Z" fill="#931602"/>
<path d="M17.75 11L19.6826 9.84044C20.2774 9.48352 20.5749 9.30507 20.8196 9.32788C21.033 9.34777 21.2277 9.458 21.3545 9.63075C21.5 9.82886 21.5 10.1757 21.5 10.8694V14.1306C21.5 14.8242 21.5 15.1711 21.3545 15.3693C21.2277 15.542 21.033 15.6522 20.8196 15.6721C20.5749 15.6949 20.2774 15.5165 19.6826 15.1596L17.75 14M10.4 17H15.35C16.1901 17 16.6101 17 16.931 16.8365C17.2132 16.6927 17.4427 16.4632 17.5865 16.181C17.75 15.8602 17.75 15.4401 17.75 14.6V10.4C17.75 9.55992 17.75 9.13988 17.5865 8.81902C17.4427 8.53677 17.2132 8.3073 16.931 8.16349C16.6101 8 16.1901 8 15.35 8H10.4C9.55992 8 9.13988 8 8.81902 8.16349C8.53677 8.3073 8.3073 8.53677 8.16349 8.81902C8 9.13988 8 9.55992 8 10.4V14.6C8 15.4401 8 15.8602 8.16349 16.181C8.3073 16.4632 8.53677 16.6927 8.81902 16.8365C9.13988 17 9.55992 17 10.4 17Z" stroke="#931602" stroke-linecap="round" stroke-linejoin="round"/>
</svg>
