<svg width="100" height="24" viewBox="0 0 100 24" fill="none" xmlns="http://www.w3.org/2000/svg">
<rect x="0.75" y="0.75" width="98.5" height="22.5" rx="11.25" fill="#FCFCFC"/>
<rect x="0.75" y="0.75" width="98.5" height="22.5" rx="11.25" stroke="#C88E20" stroke-width="1.5"/>
<path d="M11.7186 8.83333C12.6452 7.13956 14.3772 6 16.3608 6C18.6099 6 20.5354 7.46495 21.3305 9.54167M13.3463 9.54167H10.6667V6.70833M20.9481 14.5C20.0215 16.1938 18.2895 17.3333 16.3059 17.3333C14.0568 17.3333 12.1313 15.8684 11.3362 13.7917M19.3204 13.7917H22V16.625" stroke="#C88E20" stroke-linecap="round" stroke-linejoin="round"/>
<path d="M34.6224 17L32.2984 13.01H30.7584V17H29.4844V7.242H32.6344C33.3717 7.242 33.9924 7.368 34.4964 7.62C35.0097 7.872 35.3924 8.21267 35.6444 8.642C35.8964 9.07133 36.0224 9.56133 36.0224 10.112C36.0224 10.784 35.8264 11.3767 35.4344 11.89C35.0517 12.4033 34.4731 12.744 33.6984 12.912L36.1484 17H34.6224ZM30.7584 11.988H32.6344C33.3251 11.988 33.8431 11.82 34.1884 11.484C34.5337 11.1387 34.7064 10.6813 34.7064 10.112C34.7064 9.53333 34.5337 9.08533 34.1884 8.768C33.8524 8.45067 33.3344 8.292 32.6344 8.292H30.7584V11.988ZM44.862 12.87C44.862 13.1127 44.848 13.3693 44.82 13.64H38.688C38.7346 14.396 38.9913 14.9887 39.458 15.418C39.934 15.838 40.508 16.048 41.18 16.048C41.7306 16.048 42.188 15.922 42.552 15.67C42.9253 15.4087 43.1866 15.0633 43.336 14.634H44.708C44.5026 15.3713 44.092 15.9733 43.476 16.44C42.86 16.8973 42.0946 17.126 41.18 17.126C40.452 17.126 39.7986 16.9627 39.22 16.636C38.6506 16.3093 38.2026 15.8473 37.876 15.25C37.5493 14.6433 37.386 13.9433 37.386 13.15C37.386 12.3567 37.5446 11.6613 37.862 11.064C38.1793 10.4667 38.6226 10.0093 39.192 9.692C39.7706 9.36533 40.4333 9.202 41.18 9.202C41.908 9.202 42.552 9.36067 43.112 9.678C43.672 9.99533 44.1013 10.434 44.4 10.994C44.708 11.5447 44.862 12.17 44.862 12.87ZM43.546 12.604C43.546 12.1187 43.4386 11.7033 43.224 11.358C43.0093 11.0033 42.7153 10.7373 42.342 10.56C41.978 10.3733 41.572 10.28 41.124 10.28C40.48 10.28 39.9293 10.4853 39.472 10.896C39.024 11.3067 38.7673 11.876 38.702 12.604H43.546ZM51.7236 11.33V12.408H46.1376V11.33H51.7236ZM56.8305 15.824L59.2105 9.328H60.5685L57.5585 17H56.0745L53.0645 9.328H54.4365L56.8305 15.824ZM68.6822 12.87C68.6822 13.1127 68.6682 13.3693 68.6402 13.64H62.5082C62.5549 14.396 62.8115 14.9887 63.2782 15.418C63.7542 15.838 64.3282 16.048 65.0002 16.048C65.5509 16.048 66.0082 15.922 66.3722 15.67C66.7455 15.4087 67.0069 15.0633 67.1562 14.634H68.5282C68.3229 15.3713 67.9122 15.9733 67.2962 16.44C66.6802 16.8973 65.9149 17.126 65.0002 17.126C64.2722 17.126 63.6189 16.9627 63.0402 16.636C62.4709 16.3093 62.0229 15.8473 61.6962 15.25C61.3695 14.6433 61.2062 13.9433 61.2062 13.15C61.2062 12.3567 61.3649 11.6613 61.6822 11.064C61.9995 10.4667 62.4429 10.0093 63.0122 9.692C63.5909 9.36533 64.2535 9.202 65.0002 9.202C65.7282 9.202 66.3722 9.36067 66.9322 9.678C67.4922 9.99533 67.9215 10.434 68.2202 10.994C68.5282 11.5447 68.6822 12.17 68.6822 12.87ZM67.3662 12.604C67.3662 12.1187 67.2589 11.7033 67.0442 11.358C66.8295 11.0033 66.5355 10.7373 66.1622 10.56C65.7982 10.3733 65.3922 10.28 64.9442 10.28C64.3002 10.28 63.7495 10.4853 63.2922 10.896C62.8442 11.3067 62.5875 11.876 62.5222 12.604H67.3662ZM71.4978 10.574C71.7218 10.1353 72.0392 9.79467 72.4498 9.552C72.8698 9.30933 73.3785 9.188 73.9758 9.188V10.504H73.6398C72.2118 10.504 71.4978 11.2787 71.4978 12.828V17H70.2238V9.328H71.4978V10.574ZM75.9645 8.082C75.7218 8.082 75.5165 7.998 75.3485 7.83C75.1805 7.662 75.0965 7.45667 75.0965 7.214C75.0965 6.97133 75.1805 6.766 75.3485 6.598C75.5165 6.43 75.7218 6.346 75.9645 6.346C76.1978 6.346 76.3938 6.43 76.5525 6.598C76.7205 6.766 76.8045 6.97133 76.8045 7.214C76.8045 7.45667 76.7205 7.662 76.5525 7.83C76.3938 7.998 76.1978 8.082 75.9645 8.082ZM76.5805 9.328V17H75.3065V9.328H76.5805ZM81.7338 10.378H80.1238V17H78.8498V10.378H77.8558V9.328H78.8498V8.782C78.8498 7.92333 79.0691 7.298 79.5078 6.906C79.9558 6.50467 80.6698 6.304 81.6498 6.304V7.368C81.0898 7.368 80.6931 7.48 80.4598 7.704C80.2358 7.91867 80.1238 8.278 80.1238 8.782V9.328H81.7338V10.378ZM89.6872 9.328L85.0672 20.612H83.7512L85.2632 16.916L82.1692 9.328H83.5832L85.9912 15.544L88.3712 9.328H89.6872Z" fill="#C88E20"/>
</svg>
