<svg width="75" height="74" viewBox="0 0 75 74" fill="none" xmlns="http://www.w3.org/2000/svg">
<path d="M74.0437 37C74.0437 44.318 71.8737 51.4715 67.808 57.5561C63.7424 63.6408 57.9638 68.3831 51.203 71.1836C44.4421 73.984 37.0026 74.7168 29.8253 73.2891C22.648 71.8615 16.0553 68.3375 10.8807 63.163C5.70619 57.9885 2.18228 51.3957 0.754632 44.2184C-0.673021 37.0411 0.0597021 29.6016 2.86014 22.8408C5.66059 16.0799 10.403 10.3013 16.4876 6.23568C22.5722 2.17007 29.7258 6.10352e-05 37.0437 6.10352e-05V36.9427L74.0437 37Z" fill="#EAB600"/>
<path d="M37.0437 72.0001C56.3736 72.0001 72.0437 56.33 72.0437 37C72.0437 17.6701 56.3736 2.00006 37.0437 2.00006C17.7137 2.00006 2.04367 17.6701 2.04367 37C2.04367 56.33 17.7137 72.0001 37.0437 72.0001Z" fill="white"/>
<g style="mix-blend-mode:multiply">
<path d="M47.1606 62.0562C60.7884 56.5226 67.2598 41.2067 61.615 27.8473C55.9702 14.4879 40.3467 8.14388 26.7189 13.6775C13.0912 19.2112 6.6197 34.527 12.2645 47.8864C17.9093 61.2458 33.5328 67.5899 47.1606 62.0562Z" fill="#EAB600"/>
</g>
<path d="M36.3425 54.2632H26.1852C23.9413 54.2632 22.1223 52.4442 22.1223 50.2003L22.1225 25.8229C22.1225 23.579 23.9415 21.76 26.1854 21.76H44.4689C46.7128 21.76 48.5319 23.579 48.5319 25.8229V33.9487M50.5627 51.2161L52.5942 53.2476M29.233 29.8858H41.4218M29.233 35.9802H41.4218M29.233 42.0746H35.3274M51.5784 47.1532C51.5784 49.9581 49.3046 52.2318 46.4998 52.2318C43.6949 52.2318 41.4211 49.9581 41.4211 47.1532C41.4211 44.3484 43.6949 42.0746 46.4998 42.0746C49.3046 42.0746 51.5784 44.3484 51.5784 47.1532Z" stroke="#F1F1F1" stroke-width="2.2081" stroke-linecap="round" stroke-linejoin="round"/>
</svg>
