<svg width="385" height="385" viewBox="0 0 385 385" fill="none" xmlns="http://www.w3.org/2000/svg">
<path d="M359.292 105.052V338.957C359.292 357.42 344.312 372.4 325.85 372.4H59.1495C40.687 372.4 25.707 357.42 25.707 338.957V105.052L29.4695 95.8824H351.102L359.31 105.052H359.292Z" fill="#E5E8EA"/>
<path d="M359.292 72.2574V105.052H25.707V72.2574C25.707 53.7949 40.687 38.8149 59.1495 38.8149H325.849C344.312 38.8149 359.292 53.7949 359.292 72.2574Z" fill="#931602"/>
<path d="M85.1899 57.26H59.8499C56.9891 57.26 54.6699 59.5792 54.6699 62.44V73.185C54.6699 76.0458 56.9891 78.365 59.8499 78.365H85.1899C88.0508 78.365 90.3699 76.0458 90.3699 73.185V62.44C90.3699 59.5792 88.0508 57.26 85.1899 57.26Z" fill="#B71504"/>
<path d="M73.2202 12.6H72.8177C68.3912 12.6 64.8027 16.1884 64.8027 20.615V63.035C64.8027 67.4615 68.3912 71.05 72.8177 71.05H73.2202C77.6468 71.05 81.2352 67.4615 81.2352 63.035V20.615C81.2352 16.1884 77.6468 12.6 73.2202 12.6Z" fill="#242535"/>
<path d="M145.18 57.26H119.84C116.979 57.26 114.66 59.5792 114.66 62.44V73.185C114.66 76.0458 116.979 78.365 119.84 78.365H145.18C148.041 78.365 150.36 76.0458 150.36 73.185V62.44C150.36 59.5792 148.041 57.26 145.18 57.26Z" fill="#B71504"/>
<path d="M133.21 12.6H132.808C128.381 12.6 124.793 16.1884 124.793 20.615V63.035C124.793 67.4615 128.381 71.05 132.808 71.05H133.21C137.637 71.05 141.225 67.4615 141.225 63.035V20.615C141.225 16.1884 137.637 12.6 133.21 12.6Z" fill="#242535"/>
<path d="M205.17 57.26H179.83C176.97 57.26 174.65 59.5792 174.65 62.44V73.185C174.65 76.0458 176.97 78.365 179.83 78.365H205.17C208.031 78.365 210.35 76.0458 210.35 73.185V62.44C210.35 59.5792 208.031 57.26 205.17 57.26Z" fill="#B71504"/>
<path d="M193.201 12.6H192.798C188.372 12.6 184.783 16.1884 184.783 20.615V63.035C184.783 67.4615 188.372 71.05 192.798 71.05H193.201C197.627 71.05 201.216 67.4615 201.216 63.035V20.615C201.216 16.1884 197.627 12.6 193.201 12.6Z" fill="#242535"/>
<path d="M265.161 57.26H239.821C236.96 57.26 234.641 59.5792 234.641 62.44V73.185C234.641 76.0458 236.96 78.365 239.821 78.365H265.161C268.021 78.365 270.341 76.0458 270.341 73.185V62.44C270.341 59.5792 268.021 57.26 265.161 57.26Z" fill="#B71504"/>
<path d="M253.191 12.6H252.788C248.362 12.6 244.773 16.1884 244.773 20.615V63.035C244.773 67.4615 248.362 71.05 252.788 71.05H253.191C257.618 71.05 261.206 67.4615 261.206 63.035V20.615C261.206 16.1884 257.618 12.6 253.191 12.6Z" fill="#242535"/>
<path d="M325.151 57.26H299.811C296.95 57.26 294.631 59.5792 294.631 62.44V73.185C294.631 76.0458 296.95 78.365 299.811 78.365H325.151C328.012 78.365 330.331 76.0458 330.331 73.185V62.44C330.331 59.5792 328.012 57.26 325.151 57.26Z" fill="#B71504"/>
<path d="M313.179 12.6H312.777C308.35 12.6 304.762 16.1884 304.762 20.615V63.035C304.762 67.4615 308.35 71.05 312.777 71.05H313.179C317.606 71.05 321.194 67.4615 321.194 63.035V20.615C321.194 16.1884 317.606 12.6 313.179 12.6Z" fill="#242535"/>
<path d="M126.281 121.345H105.946C103.114 121.345 100.818 123.641 100.818 126.472V146.807C100.818 149.639 103.114 151.935 105.946 151.935H126.281C129.113 151.935 131.408 149.639 131.408 146.807V126.472C131.408 123.641 129.113 121.345 126.281 121.345Z" fill="#C4CBCE"/>
<path d="M228.13 121.345H207.795C204.964 121.345 202.668 123.641 202.668 126.472V146.807C202.668 149.639 204.964 151.935 207.795 151.935H228.13C230.962 151.935 233.258 149.639 233.258 146.807V126.472C233.258 123.641 230.962 121.345 228.13 121.345Z" fill="#C4CBCE"/>
<path d="M329.98 121.345H309.645C306.813 121.345 304.518 123.641 304.518 126.472V146.807C304.518 149.639 306.813 151.935 309.645 151.935H329.98C332.812 151.935 335.108 149.639 335.108 146.807V126.472C335.108 123.641 332.812 121.345 329.98 121.345Z" fill="#C4CBCE"/>
<path d="M75.3551 121.345H55.0201C52.1882 121.345 49.8926 123.641 49.8926 126.472V146.807C49.8926 149.639 52.1882 151.935 55.0201 151.935H75.3551C78.1869 151.935 80.4826 149.639 80.4826 146.807V126.472C80.4826 123.641 78.1869 121.345 75.3551 121.345Z" fill="#C4CBCE"/>
<path d="M279.054 121.345H258.719C255.887 121.345 253.592 123.641 253.592 126.472V146.807C253.592 149.639 255.887 151.935 258.719 151.935H279.054C281.886 151.935 284.182 149.639 284.182 146.807V126.472C284.182 123.641 281.886 121.345 279.054 121.345Z" fill="#C4CBCE"/>
<path d="M177.205 121.345H156.87C154.038 121.345 151.742 123.641 151.742 126.472V146.807C151.742 149.639 154.038 151.935 156.87 151.935H177.205C180.037 151.935 182.332 149.639 182.332 146.807V126.472C182.332 123.641 180.037 121.345 177.205 121.345Z" fill="#C4CBCE"/>
<path d="M228.13 170.905H207.795C204.964 170.905 202.668 173.201 202.668 176.033V196.368C202.668 199.199 204.964 201.495 207.795 201.495H228.13C230.962 201.495 233.258 199.199 233.258 196.368V176.033C233.258 173.201 230.962 170.905 228.13 170.905Z" fill="#C4CBCE"/>
<path d="M279.054 170.905H258.719C255.887 170.905 253.592 173.201 253.592 176.033V196.368C253.592 199.199 255.887 201.495 258.719 201.495H279.054C281.886 201.495 284.182 199.199 284.182 196.368V176.033C284.182 173.201 281.886 170.905 279.054 170.905Z" fill="#C4CBCE"/>
<path d="M329.98 170.905H309.645C306.813 170.905 304.518 173.201 304.518 176.033V196.368C304.518 199.199 306.813 201.495 309.645 201.495H329.98C332.812 201.495 335.108 199.199 335.108 196.368V176.033C335.108 173.201 332.812 170.905 329.98 170.905Z" fill="#C4CBCE"/>
<path d="M75.3551 170.905H55.0201C52.1882 170.905 49.8926 173.201 49.8926 176.033V196.368C49.8926 199.199 52.1882 201.495 55.0201 201.495H75.3551C78.1869 201.495 80.4826 199.199 80.4826 196.368V176.033C80.4826 173.201 78.1869 170.905 75.3551 170.905Z" fill="#C4CBCE"/>
<path d="M126.281 170.905H105.946C103.114 170.905 100.818 173.201 100.818 176.033V196.368C100.818 199.199 103.114 201.495 105.946 201.495H126.281C129.113 201.495 131.408 199.199 131.408 196.368V176.033C131.408 173.201 129.113 170.905 126.281 170.905Z" fill="#C4CBCE"/>
<path d="M177.205 170.905H156.87C154.038 170.905 151.742 173.201 151.742 176.033V196.368C151.742 199.199 154.038 201.495 156.87 201.495H177.205C180.037 201.495 182.332 199.199 182.332 196.368V176.033C182.332 173.201 180.037 170.905 177.205 170.905Z" fill="#C4CBCE"/>
<path d="M279.054 220.465H258.719C255.887 220.465 253.592 222.761 253.592 225.593V245.928C253.592 248.759 255.887 251.055 258.719 251.055H279.054C281.886 251.055 284.182 248.759 284.182 245.928V225.593C284.182 222.761 281.886 220.465 279.054 220.465Z" fill="#C4CBCE"/>
<path d="M228.13 220.465H207.795C204.964 220.465 202.668 222.761 202.668 225.593V245.928C202.668 248.759 204.964 251.055 207.795 251.055H228.13C230.962 251.055 233.258 248.759 233.258 245.928V225.593C233.258 222.761 230.962 220.465 228.13 220.465Z" fill="#C4CBCE"/>
<path d="M329.98 220.465H309.645C306.813 220.465 304.518 222.761 304.518 225.593V245.928C304.518 248.759 306.813 251.055 309.645 251.055H329.98C332.812 251.055 335.108 248.759 335.108 245.928V225.593C335.108 222.761 332.812 220.465 329.98 220.465Z" fill="#C4CBCE"/>
<path d="M177.205 220.465H156.87C154.038 220.465 151.742 222.761 151.742 225.593V245.928C151.742 248.759 154.038 251.055 156.87 251.055H177.205C180.037 251.055 182.332 248.759 182.332 245.928V225.593C182.332 222.761 180.037 220.465 177.205 220.465Z" fill="#C4CBCE"/>
<path d="M126.281 220.465H105.946C103.114 220.465 100.818 222.761 100.818 225.593V245.928C100.818 248.759 103.114 251.055 105.946 251.055H126.281C129.113 251.055 131.408 248.759 131.408 245.928V225.593C131.408 222.761 129.113 220.465 126.281 220.465Z" fill="#C4CBCE"/>
<path d="M75.3551 220.465H55.0201C52.1882 220.465 49.8926 222.761 49.8926 225.593V245.928C49.8926 248.759 52.1882 251.055 55.0201 251.055H75.3551C78.1869 251.055 80.4826 248.759 80.4826 245.928V225.593C80.4826 222.761 78.1869 220.465 75.3551 220.465Z" fill="#C4CBCE"/>
<path d="M228.13 270.025H207.795C204.964 270.025 202.668 272.321 202.668 275.152V295.487C202.668 298.319 204.964 300.615 207.795 300.615H228.13C230.962 300.615 233.258 298.319 233.258 295.487V275.152C233.258 272.321 230.962 270.025 228.13 270.025Z" fill="#C4CBCE"/>
<path d="M329.98 270.025H309.645C306.813 270.025 304.518 272.321 304.518 275.152V295.487C304.518 298.319 306.813 300.615 309.645 300.615H329.98C332.812 300.615 335.108 298.319 335.108 295.487V275.152C335.108 272.321 332.812 270.025 329.98 270.025Z" fill="#C4CBCE"/>
<path d="M279.054 270.025H258.719C255.887 270.025 253.592 272.321 253.592 275.152V295.487C253.592 298.319 255.887 300.615 258.719 300.615H279.054C281.886 300.615 284.182 298.319 284.182 295.487V275.152C284.182 272.321 281.886 270.025 279.054 270.025Z" fill="#C4CBCE"/>
<path d="M177.205 270.025H156.87C154.038 270.025 151.742 272.321 151.742 275.152V295.487C151.742 298.319 154.038 300.615 156.87 300.615H177.205C180.037 300.615 182.332 298.319 182.332 295.487V275.152C182.332 272.321 180.037 270.025 177.205 270.025Z" fill="#C4CBCE"/>
<path d="M126.281 270.025H105.946C103.114 270.025 100.818 272.321 100.818 275.152V295.487C100.818 298.319 103.114 300.615 105.946 300.615H126.281C129.113 300.615 131.408 298.319 131.408 295.487V275.152C131.408 272.321 129.113 270.025 126.281 270.025Z" fill="#C4CBCE"/>
<path d="M75.3551 270.025H55.0201C52.1882 270.025 49.8926 272.321 49.8926 275.152V295.487C49.8926 298.319 52.1882 300.615 55.0201 300.615H75.3551C78.1869 300.615 80.4826 298.319 80.4826 295.487V275.152C80.4826 272.321 78.1869 270.025 75.3551 270.025Z" fill="#C4CBCE"/>
<path d="M75.3551 319.585H55.0201C52.1882 319.585 49.8926 321.881 49.8926 324.712V345.047C49.8926 347.879 52.1882 350.175 55.0201 350.175H75.3551C78.1869 350.175 80.4826 347.879 80.4826 345.047V324.712C80.4826 321.881 78.1869 319.585 75.3551 319.585Z" fill="#C4CBCE"/>
<path d="M126.281 319.585H105.946C103.114 319.585 100.818 321.881 100.818 324.712V345.047C100.818 347.879 103.114 350.175 105.946 350.175H126.281C129.113 350.175 131.408 347.879 131.408 345.047V324.712C131.408 321.881 129.113 319.585 126.281 319.585Z" fill="#C4CBCE"/>
<path d="M177.205 319.585H156.87C154.038 319.585 151.742 321.881 151.742 324.712V345.047C151.742 347.879 154.038 350.175 156.87 350.175H177.205C180.037 350.175 182.332 347.879 182.332 345.047V324.712C182.332 321.881 180.037 319.585 177.205 319.585Z" fill="#C4CBCE"/>
</svg>
