<svg width="100" height="25" viewBox="0 0 100 25" fill="none" xmlns="http://www.w3.org/2000/svg">
<rect x="0.75" y="0.75" width="98.5" height="23.5" rx="11.75" fill="#FCFCFC"/>
<rect x="0.75" y="0.75" width="98.5" height="23.5" rx="11.75" stroke="#018191" stroke-width="1.5"/>
<path d="M31.801 17.098C31.157 17.098 30.5784 16.986 30.065 16.762C29.561 16.5287 29.1644 16.2113 28.875 15.81C28.5857 15.3993 28.4364 14.928 28.427 14.396H29.785C29.8317 14.8533 30.0184 15.2407 30.345 15.558C30.681 15.866 31.1664 16.02 31.801 16.02C32.4077 16.02 32.8837 15.8707 33.229 15.572C33.5837 15.264 33.761 14.872 33.761 14.396C33.761 14.0227 33.6584 13.7193 33.453 13.486C33.2477 13.2527 32.991 13.0753 32.683 12.954C32.375 12.8327 31.9597 12.702 31.437 12.562C30.793 12.394 30.275 12.226 29.883 12.058C29.5004 11.89 29.169 11.6287 28.889 11.274C28.6184 10.91 28.483 10.4247 28.483 9.818C28.483 9.286 28.6184 8.81467 28.889 8.404C29.1597 7.99333 29.5377 7.676 30.023 7.452C30.5177 7.228 31.0824 7.116 31.717 7.116C32.6317 7.116 33.3784 7.34467 33.957 7.802C34.545 8.25933 34.8764 8.866 34.951 9.622H33.551C33.5044 9.24867 33.3084 8.922 32.963 8.642C32.6177 8.35267 32.1604 8.208 31.591 8.208C31.059 8.208 30.625 8.348 30.289 8.628C29.953 8.89867 29.785 9.28133 29.785 9.776C29.785 10.1307 29.883 10.42 30.079 10.644C30.2844 10.868 30.5317 11.0407 30.821 11.162C31.1197 11.274 31.535 11.4047 32.067 11.554C32.711 11.7313 33.229 11.9087 33.621 12.086C34.013 12.254 34.349 12.52 34.629 12.884C34.909 13.2387 35.049 13.724 35.049 14.34C35.049 14.816 34.923 15.264 34.671 15.684C34.419 16.104 34.0457 16.4447 33.551 16.706C33.0564 16.9673 32.473 17.098 31.801 17.098ZM38.3378 10.378V14.9C38.3378 15.2733 38.4172 15.5393 38.5758 15.698C38.7345 15.8473 39.0098 15.922 39.4018 15.922H40.3398V17H39.1918C38.4825 17 37.9505 16.8367 37.5958 16.51C37.2412 16.1833 37.0638 15.6467 37.0638 14.9V10.378H36.0698V9.328H37.0638V7.396H38.3378V9.328H40.3398V10.378H38.3378ZM41.2674 13.136C41.2674 12.352 41.4261 11.666 41.7434 11.078C42.0608 10.4807 42.4948 10.0187 43.0454 9.692C43.6054 9.36533 44.2261 9.202 44.9074 9.202C45.5794 9.202 46.1628 9.34667 46.6574 9.636C47.1521 9.92533 47.5208 10.2893 47.7634 10.728V9.328H49.0514V17H47.7634V15.572C47.5114 16.02 47.1334 16.3933 46.6294 16.692C46.1348 16.9813 45.5561 17.126 44.8934 17.126C44.2121 17.126 43.5961 16.958 43.0454 16.622C42.4948 16.286 42.0608 15.8147 41.7434 15.208C41.4261 14.6013 41.2674 13.9107 41.2674 13.136ZM47.7634 13.15C47.7634 12.5713 47.6468 12.0673 47.4134 11.638C47.1801 11.2087 46.8628 10.882 46.4614 10.658C46.0694 10.4247 45.6354 10.308 45.1594 10.308C44.6834 10.308 44.2494 10.42 43.8574 10.644C43.4654 10.868 43.1528 11.1947 42.9194 11.624C42.6861 12.0533 42.5694 12.5573 42.5694 13.136C42.5694 13.724 42.6861 14.2373 42.9194 14.676C43.1528 15.1053 43.4654 15.4367 43.8574 15.67C44.2494 15.894 44.6834 16.006 45.1594 16.006C45.6354 16.006 46.0694 15.894 46.4614 15.67C46.8628 15.4367 47.1801 15.1053 47.4134 14.676C47.6468 14.2373 47.7634 13.7287 47.7634 13.15ZM52.3384 10.574C52.5624 10.1353 52.8797 9.79467 53.2904 9.552C53.7104 9.30933 54.219 9.188 54.8164 9.188V10.504H54.4804C53.0524 10.504 52.3384 11.2787 52.3384 12.828V17H51.0644V9.328H52.3384V10.574ZM57.701 10.378V14.9C57.701 15.2733 57.7804 15.5393 57.939 15.698C58.0977 15.8473 58.373 15.922 58.765 15.922H59.703V17H58.555C57.8457 17 57.3137 16.8367 56.959 16.51C56.6044 16.1833 56.427 15.6467 56.427 14.9V10.378H55.433V9.328H56.427V7.396H57.701V9.328H59.703V10.378H57.701ZM64.2231 12.114C64.2231 11.162 64.4377 10.308 64.8671 9.552C65.2964 8.78667 65.8797 8.18933 66.6171 7.76C67.3637 7.33067 68.1897 7.116 69.0951 7.116C70.1591 7.116 71.0877 7.37267 71.8811 7.886C72.6744 8.39933 73.2531 9.12733 73.6171 10.07H72.0911C71.8204 9.482 71.4284 9.02933 70.9151 8.712C70.4111 8.39467 69.8044 8.236 69.0951 8.236C68.4137 8.236 67.8024 8.39467 67.2611 8.712C66.7197 9.02933 66.2951 9.482 65.9871 10.07C65.6791 10.6487 65.5251 11.33 65.5251 12.114C65.5251 12.8887 65.6791 13.57 65.9871 14.158C66.2951 14.7367 66.7197 15.1847 67.2611 15.502C67.8024 15.8193 68.4137 15.978 69.0951 15.978C69.8044 15.978 70.4111 15.824 70.9151 15.516C71.4284 15.1987 71.8204 14.746 72.0911 14.158H73.6171C73.2531 15.0913 72.6744 15.8147 71.8811 16.328C71.0877 16.832 70.1591 17.084 69.0951 17.084C68.1897 17.084 67.3637 16.874 66.6171 16.454C65.8797 16.0247 65.2964 15.432 64.8671 14.676C64.4377 13.92 64.2231 13.066 64.2231 12.114ZM74.8975 13.136C74.8975 12.352 75.0562 11.666 75.3735 11.078C75.6908 10.4807 76.1248 10.0187 76.6755 9.692C77.2355 9.36533 77.8562 9.202 78.5375 9.202C79.2095 9.202 79.7928 9.34667 80.2875 9.636C80.7822 9.92533 81.1508 10.2893 81.3935 10.728V9.328H82.6815V17H81.3935V15.572C81.1415 16.02 80.7635 16.3933 80.2595 16.692C79.7648 16.9813 79.1862 17.126 78.5235 17.126C77.8422 17.126 77.2262 16.958 76.6755 16.622C76.1248 16.286 75.6908 15.8147 75.3735 15.208C75.0562 14.6013 74.8975 13.9107 74.8975 13.136ZM81.3935 13.15C81.3935 12.5713 81.2768 12.0673 81.0435 11.638C80.8102 11.2087 80.4928 10.882 80.0915 10.658C79.6995 10.4247 79.2655 10.308 78.7895 10.308C78.3135 10.308 77.8795 10.42 77.4875 10.644C77.0955 10.868 76.7828 11.1947 76.5495 11.624C76.3162 12.0533 76.1995 12.5573 76.1995 13.136C76.1995 13.724 76.3162 14.2373 76.5495 14.676C76.7828 15.1053 77.0955 15.4367 77.4875 15.67C77.8795 15.894 78.3135 16.006 78.7895 16.006C79.2655 16.006 79.6995 15.894 80.0915 15.67C80.4928 15.4367 80.8102 15.1053 81.0435 14.676C81.2768 14.2373 81.3935 13.7287 81.3935 13.15ZM85.9684 6.64V17H84.6944V6.64H85.9684ZM89.2738 6.64V17H87.9998V6.64H89.2738Z" fill="#018191"/>
<path d="M11.377 8.4375C11.377 13.7878 15.7142 18.125 21.0645 18.125C21.3058 18.125 21.5452 18.1162 21.7821 18.0988C22.0541 18.0789 22.19 18.0689 22.3138 17.9977C22.4163 17.9387 22.5135 17.8341 22.5649 17.7275C22.627 17.5989 22.627 17.4488 22.627 17.1488V15.3879C22.627 15.1356 22.627 15.0094 22.5854 14.9013C22.5487 14.8057 22.4891 14.7206 22.4119 14.6535C22.3244 14.5775 22.2059 14.5344 21.9687 14.4481L19.9644 13.7193C19.6885 13.619 19.5505 13.5688 19.4196 13.5773C19.3042 13.5848 19.1932 13.6243 19.0988 13.6911C18.9918 13.7669 18.9162 13.8928 18.7652 14.1446L18.252 15C16.5958 14.2499 15.2531 12.9056 14.502 11.25L15.3573 10.7368C15.6091 10.5857 15.735 10.5102 15.8108 10.4032C15.8777 10.3088 15.9171 10.1977 15.9246 10.0823C15.9331 9.95142 15.883 9.81346 15.7826 9.53753L15.0538 7.53326C14.9676 7.2961 14.9245 7.17752 14.8485 7.09006C14.7813 7.01281 14.6963 6.95322 14.6007 6.91653C14.4926 6.875 14.3664 6.875 14.114 6.875H12.3532C12.0531 6.875 11.9031 6.875 11.7745 6.93703C11.6679 6.98841 11.5633 7.08563 11.5043 7.18814C11.433 7.31192 11.4231 7.44789 11.4031 7.71983C11.3858 7.95679 11.377 8.19611 11.377 8.4375Z" stroke="#018191" stroke-linecap="round" stroke-linejoin="round"/>
</svg>
