<svg width="960" height="220" viewBox="0 0 960 220" fill="none" xmlns="http://www.w3.org/2000/svg">
<path d="M220 110C220 170.751 170.751 220 110 220C49.2487 220 0 170.751 0 110C0 49.2487 49.2487 0 110 0C170.751 0 220 49.2487 220 110ZM7.92001 110C7.92001 166.377 53.6228 212.08 110 212.08C166.377 212.08 212.08 166.377 212.08 110C212.08 53.6228 166.377 7.92001 110 7.92001C53.6228 7.92001 7.92001 53.6228 7.92001 110Z" fill="#018191"/>
<g clip-path="url(#clip0_251_3935)">
<path d="M123.6 68.7236L106.312 86.0115L98.3996 78.0986L99.5986 76.8996L104.545 81.8457C105.521 82.8221 107.104 82.8221 108.08 81.8457L122.401 67.5246L123.6 68.7236ZM105.959 86.365C105.959 86.3648 105.959 86.3647 105.96 86.3645L105.959 86.365Z" stroke="#018191" stroke-width="3"/>
<path d="M130.063 91.6842C130.473 92.0002 130.55 92.5902 130.219 92.9882C126.382 97.601 121.005 100.689 115.064 101.667C108.814 102.697 102.406 101.316 97.1356 97.8033C91.8648 94.2906 88.1239 88.9081 86.6687 82.7435C85.2135 76.5788 86.1526 70.0916 89.2961 64.5927C92.4397 59.0937 97.5534 54.993 103.604 53.1191C109.654 51.2452 116.191 51.7378 121.892 54.4975C127.593 57.2571 132.035 62.078 134.318 67.986C136.489 73.602 136.557 79.8023 134.529 85.4493C134.354 85.9366 133.806 86.1691 133.326 85.9759C132.845 85.7828 132.614 85.2373 132.788 84.7495C134.64 79.5437 134.569 73.8349 132.57 68.6621C130.457 63.1971 126.349 58.7378 121.075 56.1851C115.801 53.6324 109.755 53.1767 104.159 54.9101C98.5618 56.6434 93.8316 60.4366 90.9238 65.5232C88.016 70.6097 87.1474 76.6104 88.4935 82.3128C89.8395 88.0151 93.2999 92.9939 98.1754 96.2432C103.051 99.4925 108.978 100.77 114.759 99.8175C120.231 98.916 125.186 96.0801 128.733 91.8431C129.065 91.4461 129.652 91.3683 130.063 91.6842Z" fill="#018191"/>
</g>
<path d="M85.8536 126.064C85.8536 126.56 85.8216 127.008 85.7576 127.408H75.6536C75.7336 128.464 76.1256 129.312 76.8296 129.952C77.5336 130.592 78.3976 130.912 79.4216 130.912C80.8936 130.912 81.9336 130.296 82.5416 129.064H85.4936C85.0936 130.28 84.3656 131.28 83.3096 132.064C82.2696 132.832 80.9736 133.216 79.4216 133.216C78.1576 133.216 77.0216 132.936 76.0136 132.376C75.0216 131.8 74.2376 131 73.6616 129.976C73.1016 128.936 72.8216 127.736 72.8216 126.376C72.8216 125.016 73.0936 123.824 73.6376 122.8C74.1976 121.76 74.9736 120.96 75.9656 120.4C76.9736 119.84 78.1256 119.56 79.4216 119.56C80.6696 119.56 81.7816 119.832 82.7576 120.376C83.7336 120.92 84.4936 121.688 85.0376 122.68C85.5816 123.656 85.8536 124.784 85.8536 126.064ZM82.9976 125.2C82.9816 124.192 82.6216 123.384 81.9176 122.776C81.2136 122.168 80.3416 121.864 79.3016 121.864C78.3576 121.864 77.5496 122.168 76.8776 122.776C76.2056 123.368 75.8056 124.176 75.6776 125.2H82.9976ZM98.6981 123.16V125.464H88.8341V123.16H98.6981ZM111.777 133L105.321 125.536V133H102.585V116.32H105.321V123.928L111.801 116.32H115.233L107.985 124.672L115.353 133H111.777ZM130.133 116.32L124.613 126.952V133H121.877V126.952L116.333 116.32H119.381L123.245 124.504L127.109 116.32H130.133ZM131.392 124.624C131.392 122.992 131.768 121.528 132.52 120.232C133.288 118.936 134.32 117.928 135.616 117.208C136.928 116.472 138.36 116.104 139.912 116.104C141.688 116.104 143.264 116.544 144.64 117.424C146.032 118.288 147.04 119.52 147.664 121.12H144.376C143.944 120.24 143.344 119.584 142.576 119.152C141.808 118.72 140.92 118.504 139.912 118.504C138.808 118.504 137.824 118.752 136.96 119.248C136.096 119.744 135.416 120.456 134.92 121.384C134.44 122.312 134.2 123.392 134.2 124.624C134.2 125.856 134.44 126.936 134.92 127.864C135.416 128.792 136.096 129.512 136.96 130.024C137.824 130.52 138.808 130.768 139.912 130.768C140.92 130.768 141.808 130.552 142.576 130.12C143.344 129.688 143.944 129.032 144.376 128.152H147.664C147.04 129.752 146.032 130.984 144.64 131.848C143.264 132.712 141.688 133.144 139.912 133.144C138.344 133.144 136.912 132.784 135.616 132.064C134.32 131.328 133.288 130.312 132.52 129.016C131.768 127.72 131.392 126.256 131.392 124.624ZM57.6174 146.32L51.3534 163H48.1854L41.8974 146.32H44.8254L49.7694 160.192L54.7374 146.32H57.6174ZM72.0255 156.064C72.0255 156.56 71.9935 157.008 71.9295 157.408H61.8255C61.9055 158.464 62.2975 159.312 63.0015 159.952C63.7055 160.592 64.5695 160.912 65.5935 160.912C67.0655 160.912 68.1055 160.296 68.7135 159.064H71.6655C71.2655 160.28 70.5375 161.28 69.4815 162.064C68.4415 162.832 67.1455 163.216 65.5935 163.216C64.3295 163.216 63.1935 162.936 62.1855 162.376C61.1935 161.8 60.4095 161 59.8335 159.976C59.2735 158.936 58.9935 157.736 58.9935 156.376C58.9935 155.016 59.2655 153.824 59.8095 152.8C60.3695 151.76 61.1455 150.96 62.1375 150.4C63.1455 149.84 64.2975 149.56 65.5935 149.56C66.8415 149.56 67.9535 149.832 68.9295 150.376C69.9055 150.92 70.6655 151.688 71.2095 152.68C71.7535 153.656 72.0255 154.784 72.0255 156.064ZM69.1695 155.2C69.1535 154.192 68.7935 153.384 68.0895 152.776C67.3855 152.168 66.5135 151.864 65.4735 151.864C64.5295 151.864 63.7215 152.168 63.0495 152.776C62.3775 153.368 61.9775 154.176 61.8495 155.2H69.1695ZM77.454 151.696C77.854 151.024 78.382 150.504 79.038 150.136C79.71 149.752 80.502 149.56 81.414 149.56V152.392H80.718C79.646 152.392 78.83 152.664 78.27 153.208C77.726 153.752 77.454 154.696 77.454 156.04V163H74.718V149.776H77.454V151.696ZM85.3209 148.024C84.8249 148.024 84.4089 147.856 84.0729 147.52C83.7369 147.184 83.5689 146.768 83.5689 146.272C83.5689 145.776 83.7369 145.36 84.0729 145.024C84.4089 144.688 84.8249 144.52 85.3209 144.52C85.8009 144.52 86.2089 144.688 86.5449 145.024C86.8809 145.36 87.0489 145.776 87.0489 146.272C87.0489 146.768 86.8809 147.184 86.5449 147.52C86.2089 147.856 85.8009 148.024 85.3209 148.024ZM86.6649 149.776V163H83.9289V149.776H86.6649ZM95.801 152.008H93.353V163H90.593V152.008H89.033V149.776H90.593V148.84C90.593 147.32 90.993 146.216 91.793 145.528C92.609 144.824 93.881 144.472 95.609 144.472V146.752C94.777 146.752 94.193 146.912 93.857 147.232C93.521 147.536 93.353 148.072 93.353 148.84V149.776H95.801V152.008ZM99.6178 148.024C99.1218 148.024 98.7058 147.856 98.3698 147.52C98.0338 147.184 97.8658 146.768 97.8658 146.272C97.8658 145.776 98.0338 145.36 98.3698 145.024C98.7058 144.688 99.1218 144.52 99.6178 144.52C100.098 144.52 100.506 144.688 100.842 145.024C101.178 145.36 101.346 145.776 101.346 146.272C101.346 146.768 101.178 147.184 100.842 147.52C100.506 147.856 100.098 148.024 99.6178 148.024ZM100.962 149.776V163H98.2258V149.776H100.962ZM103.642 156.376C103.642 155.016 103.914 153.824 104.458 152.8C105.018 151.76 105.786 150.96 106.762 150.4C107.738 149.84 108.858 149.56 110.122 149.56C111.722 149.56 113.042 149.944 114.082 150.712C115.138 151.464 115.85 152.544 116.218 153.952H113.266C113.026 153.296 112.642 152.784 112.114 152.416C111.586 152.048 110.922 151.864 110.122 151.864C109.002 151.864 108.106 152.264 107.434 153.064C106.778 153.848 106.45 154.952 106.45 156.376C106.45 157.8 106.778 158.912 107.434 159.712C108.106 160.512 109.002 160.912 110.122 160.912C111.706 160.912 112.754 160.216 113.266 158.824H116.218C115.834 160.168 115.114 161.24 114.058 162.04C113.002 162.824 111.69 163.216 110.122 163.216C108.858 163.216 107.738 162.936 106.762 162.376C105.786 161.8 105.018 161 104.458 159.976C103.914 158.936 103.642 157.736 103.642 156.376ZM118.033 156.328C118.033 155 118.305 153.824 118.849 152.8C119.409 151.776 120.161 150.984 121.105 150.424C122.065 149.848 123.121 149.56 124.273 149.56C125.313 149.56 126.217 149.768 126.985 150.184C127.769 150.584 128.393 151.088 128.857 151.696V149.776H131.617V163H128.857V161.032C128.393 161.656 127.761 162.176 126.961 162.592C126.161 163.008 125.249 163.216 124.225 163.216C123.089 163.216 122.049 162.928 121.105 162.352C120.161 161.76 119.409 160.944 118.849 159.904C118.305 158.848 118.033 157.656 118.033 156.328ZM128.857 156.376C128.857 155.464 128.665 154.672 128.281 154C127.913 153.328 127.425 152.816 126.817 152.464C126.209 152.112 125.553 151.936 124.849 151.936C124.145 151.936 123.489 152.112 122.881 152.464C122.273 152.8 121.777 153.304 121.393 153.976C121.025 154.632 120.841 155.416 120.841 156.328C120.841 157.24 121.025 158.04 121.393 158.728C121.777 159.416 122.273 159.944 122.881 160.312C123.505 160.664 124.161 160.84 124.849 160.84C125.553 160.84 126.209 160.664 126.817 160.312C127.425 159.96 127.913 159.448 128.281 158.776C128.665 158.088 128.857 157.288 128.857 156.376ZM138.402 152.008V159.328C138.402 159.824 138.514 160.184 138.738 160.408C138.978 160.616 139.378 160.72 139.938 160.72H141.618V163H139.458C138.226 163 137.282 162.712 136.626 162.136C135.97 161.56 135.642 160.624 135.642 159.328V152.008H134.082V149.776H135.642V146.488H138.402V149.776H141.618V152.008H138.402ZM145.532 148.024C145.036 148.024 144.62 147.856 144.284 147.52C143.948 147.184 143.78 146.768 143.78 146.272C143.78 145.776 143.948 145.36 144.284 145.024C144.62 144.688 145.036 144.52 145.532 144.52C146.012 144.52 146.42 144.688 146.756 145.024C147.092 145.36 147.26 145.776 147.26 146.272C147.26 146.768 147.092 147.184 146.756 147.52C146.42 147.856 146.012 148.024 145.532 148.024ZM146.876 149.776V163H144.14V149.776H146.876ZM156.204 163.216C154.956 163.216 153.828 162.936 152.82 162.376C151.812 161.8 151.02 161 150.444 159.976C149.868 158.936 149.58 157.736 149.58 156.376C149.58 155.032 149.876 153.84 150.468 152.8C151.06 151.76 151.868 150.96 152.892 150.4C153.916 149.84 155.06 149.56 156.324 149.56C157.588 149.56 158.732 149.84 159.756 150.4C160.78 150.96 161.588 151.76 162.18 152.8C162.772 153.84 163.068 155.032 163.068 156.376C163.068 157.72 162.764 158.912 162.156 159.952C161.548 160.992 160.716 161.8 159.66 162.376C158.62 162.936 157.468 163.216 156.204 163.216ZM156.204 160.84C156.908 160.84 157.564 160.672 158.172 160.336C158.796 160 159.3 159.496 159.684 158.824C160.068 158.152 160.26 157.336 160.26 156.376C160.26 155.416 160.076 154.608 159.708 153.952C159.34 153.28 158.852 152.776 158.244 152.44C157.636 152.104 156.98 151.936 156.276 151.936C155.572 151.936 154.916 152.104 154.308 152.44C153.716 152.776 153.244 153.28 152.892 153.952C152.54 154.608 152.364 155.416 152.364 156.376C152.364 157.8 152.724 158.904 153.444 159.688C154.18 160.456 155.1 160.84 156.204 160.84ZM172.445 149.56C173.485 149.56 174.413 149.776 175.229 150.208C176.061 150.64 176.709 151.28 177.173 152.128C177.637 152.976 177.869 154 177.869 155.2V163H175.157V155.608C175.157 154.424 174.861 153.52 174.269 152.896C173.677 152.256 172.869 151.936 171.845 151.936C170.821 151.936 170.005 152.256 169.397 152.896C168.805 153.52 168.509 154.424 168.509 155.608V163H165.773V149.776H168.509V151.288C168.957 150.744 169.525 150.32 170.213 150.016C170.917 149.712 171.661 149.56 172.445 149.56Z" fill="#018191"/>
<path d="M590 110C590 170.751 540.751 220 480 220C419.249 220 370 170.751 370 110C370 49.2487 419.249 0 480 0C540.751 0 590 49.2487 590 110ZM377.92 110C377.92 166.377 423.623 212.08 480 212.08C536.377 212.08 582.08 166.377 582.08 110C582.08 53.6228 536.377 7.92001 480 7.92001C423.623 7.92001 377.92 53.6228 377.92 110Z" fill="#931602"/>
<path d="M487.953 89.1107C485.519 91.2532 483.283 92.9451 481.785 94.0205C481.017 94.5714 480.633 94.8469 480.129 94.9101C479.977 94.929 479.783 94.929 479.632 94.9101C479.127 94.847 478.746 94.5731 477.982 94.0252C473.165 90.5678 460.69 80.7144 458.547 70C455.88 56.6667 466.625 46 479.88 46C493.135 46 503.88 56.6667 501.214 70C500.407 74.0322 498.138 77.9425 495.363 81.4358M487.88 67.7334C487.88 72.1516 484.298 75.7334 479.88 75.7334C475.462 75.7334 471.88 72.1516 471.88 67.7334C471.88 63.3151 475.462 59.7334 479.88 59.7334C484.298 59.7334 487.88 63.3151 487.88 67.7334Z" stroke="#931602" stroke-width="3.5" stroke-linecap="round" stroke-linejoin="round"/>
<path d="M433.649 130.792H439.289V133H430.913V116.32H433.649V130.792ZM447.313 133.216C446.065 133.216 444.937 132.936 443.929 132.376C442.921 131.8 442.129 131 441.553 129.976C440.977 128.936 440.689 127.736 440.689 126.376C440.689 125.032 440.985 123.84 441.577 122.8C442.169 121.76 442.977 120.96 444.001 120.4C445.025 119.84 446.169 119.56 447.433 119.56C448.697 119.56 449.841 119.84 450.865 120.4C451.889 120.96 452.697 121.76 453.289 122.8C453.881 123.84 454.177 125.032 454.177 126.376C454.177 127.72 453.873 128.912 453.265 129.952C452.657 130.992 451.825 131.8 450.769 132.376C449.729 132.936 448.577 133.216 447.313 133.216ZM447.313 130.84C448.017 130.84 448.673 130.672 449.281 130.336C449.905 130 450.409 129.496 450.793 128.824C451.177 128.152 451.369 127.336 451.369 126.376C451.369 125.416 451.185 124.608 450.817 123.952C450.449 123.28 449.961 122.776 449.353 122.44C448.745 122.104 448.089 121.936 447.385 121.936C446.681 121.936 446.025 122.104 445.417 122.44C444.825 122.776 444.353 123.28 444.001 123.952C443.649 124.608 443.473 125.416 443.473 126.376C443.473 127.8 443.833 128.904 444.553 129.688C445.289 130.456 446.209 130.84 447.313 130.84ZM455.97 126.376C455.97 125.016 456.242 123.824 456.786 122.8C457.346 121.76 458.114 120.96 459.09 120.4C460.066 119.84 461.186 119.56 462.45 119.56C464.05 119.56 465.37 119.944 466.41 120.712C467.466 121.464 468.178 122.544 468.546 123.952H465.594C465.354 123.296 464.97 122.784 464.442 122.416C463.914 122.048 463.25 121.864 462.45 121.864C461.33 121.864 460.434 122.264 459.762 123.064C459.106 123.848 458.778 124.952 458.778 126.376C458.778 127.8 459.106 128.912 459.762 129.712C460.434 130.512 461.33 130.912 462.45 130.912C464.034 130.912 465.082 130.216 465.594 128.824H468.546C468.162 130.168 467.442 131.24 466.386 132.04C465.33 132.824 464.018 133.216 462.45 133.216C461.186 133.216 460.066 132.936 459.09 132.376C458.114 131.8 457.346 131 456.786 129.976C456.242 128.936 455.97 127.736 455.97 126.376ZM470.361 126.328C470.361 125 470.633 123.824 471.177 122.8C471.737 121.776 472.489 120.984 473.433 120.424C474.393 119.848 475.449 119.56 476.601 119.56C477.641 119.56 478.545 119.768 479.313 120.184C480.097 120.584 480.721 121.088 481.185 121.696V119.776H483.945V133H481.185V131.032C480.721 131.656 480.089 132.176 479.289 132.592C478.489 133.008 477.577 133.216 476.553 133.216C475.417 133.216 474.377 132.928 473.433 132.352C472.489 131.76 471.737 130.944 471.177 129.904C470.633 128.848 470.361 127.656 470.361 126.328ZM481.185 126.376C481.185 125.464 480.993 124.672 480.609 124C480.241 123.328 479.753 122.816 479.145 122.464C478.537 122.112 477.881 121.936 477.177 121.936C476.473 121.936 475.817 122.112 475.209 122.464C474.601 122.8 474.105 123.304 473.721 123.976C473.353 124.632 473.169 125.416 473.169 126.328C473.169 127.24 473.353 128.04 473.721 128.728C474.105 129.416 474.601 129.944 475.209 130.312C475.833 130.664 476.489 130.84 477.177 130.84C477.881 130.84 478.537 130.664 479.145 130.312C479.753 129.96 480.241 129.448 480.609 128.776C480.993 128.088 481.185 127.288 481.185 126.376ZM490.73 122.008V129.328C490.73 129.824 490.842 130.184 491.066 130.408C491.306 130.616 491.706 130.72 492.266 130.72H493.946V133H491.786C490.554 133 489.61 132.712 488.954 132.136C488.298 131.56 487.97 130.624 487.97 129.328V122.008H486.41V119.776H487.97V116.488H490.73V119.776H493.946V122.008H490.73ZM497.86 118.024C497.364 118.024 496.948 117.856 496.612 117.52C496.276 117.184 496.108 116.768 496.108 116.272C496.108 115.776 496.276 115.36 496.612 115.024C496.948 114.688 497.364 114.52 497.86 114.52C498.34 114.52 498.748 114.688 499.084 115.024C499.42 115.36 499.588 115.776 499.588 116.272C499.588 116.768 499.42 117.184 499.084 117.52C498.748 117.856 498.34 118.024 497.86 118.024ZM499.204 119.776V133H496.468V119.776H499.204ZM508.532 133.216C507.284 133.216 506.156 132.936 505.148 132.376C504.14 131.8 503.348 131 502.772 129.976C502.196 128.936 501.908 127.736 501.908 126.376C501.908 125.032 502.204 123.84 502.796 122.8C503.388 121.76 504.196 120.96 505.22 120.4C506.244 119.84 507.388 119.56 508.652 119.56C509.916 119.56 511.06 119.84 512.084 120.4C513.108 120.96 513.916 121.76 514.508 122.8C515.1 123.84 515.396 125.032 515.396 126.376C515.396 127.72 515.092 128.912 514.484 129.952C513.876 130.992 513.044 131.8 511.988 132.376C510.948 132.936 509.796 133.216 508.532 133.216ZM508.532 130.84C509.236 130.84 509.892 130.672 510.5 130.336C511.124 130 511.628 129.496 512.012 128.824C512.396 128.152 512.588 127.336 512.588 126.376C512.588 125.416 512.404 124.608 512.036 123.952C511.668 123.28 511.18 122.776 510.572 122.44C509.964 122.104 509.308 121.936 508.604 121.936C507.9 121.936 507.244 122.104 506.636 122.44C506.044 122.776 505.572 123.28 505.22 123.952C504.868 124.608 504.692 125.416 504.692 126.376C504.692 127.8 505.052 128.904 505.772 129.688C506.508 130.456 507.428 130.84 508.532 130.84ZM524.773 119.56C525.813 119.56 526.741 119.776 527.557 120.208C528.389 120.64 529.037 121.28 529.501 122.128C529.965 122.976 530.197 124 530.197 125.2V133H527.485V125.608C527.485 124.424 527.189 123.52 526.597 122.896C526.005 122.256 525.197 121.936 524.173 121.936C523.149 121.936 522.333 122.256 521.725 122.896C521.133 123.52 520.837 124.424 520.837 125.608V133H518.101V119.776H520.837V121.288C521.285 120.744 521.853 120.32 522.541 120.016C523.245 119.712 523.989 119.56 524.773 119.56ZM442.61 146.32V163H439.874V151.576L434.786 163H432.89L427.778 151.576V163H425.042V146.32H427.994L433.85 159.4L439.682 146.32H442.61ZM445.294 156.328C445.294 155 445.566 153.824 446.11 152.8C446.67 151.776 447.422 150.984 448.366 150.424C449.326 149.848 450.382 149.56 451.534 149.56C452.574 149.56 453.478 149.768 454.246 150.184C455.03 150.584 455.654 151.088 456.118 151.696V149.776H458.878V163H456.118V161.032C455.654 161.656 455.022 162.176 454.222 162.592C453.422 163.008 452.51 163.216 451.486 163.216C450.35 163.216 449.31 162.928 448.366 162.352C447.422 161.76 446.67 160.944 446.11 159.904C445.566 158.848 445.294 157.656 445.294 156.328ZM456.118 156.376C456.118 155.464 455.926 154.672 455.542 154C455.174 153.328 454.686 152.816 454.078 152.464C453.47 152.112 452.814 151.936 452.11 151.936C451.406 151.936 450.75 152.112 450.142 152.464C449.534 152.8 449.038 153.304 448.654 153.976C448.286 154.632 448.102 155.416 448.102 156.328C448.102 157.24 448.286 158.04 448.654 158.728C449.038 159.416 449.534 159.944 450.142 160.312C450.766 160.664 451.422 160.84 452.11 160.84C452.814 160.84 453.47 160.664 454.078 160.312C454.686 159.96 455.174 159.448 455.542 158.776C455.926 158.088 456.118 157.288 456.118 156.376ZM465.664 152.008V159.328C465.664 159.824 465.776 160.184 466 160.408C466.24 160.616 466.64 160.72 467.2 160.72H468.88V163H466.72C465.488 163 464.544 162.712 463.888 162.136C463.232 161.56 462.904 160.624 462.904 159.328V152.008H461.344V149.776H462.904V146.488H465.664V149.776H468.88V152.008H465.664ZM470.49 156.376C470.49 155.016 470.762 153.824 471.306 152.8C471.866 151.76 472.634 150.96 473.61 150.4C474.586 149.84 475.706 149.56 476.97 149.56C478.57 149.56 479.89 149.944 480.93 150.712C481.986 151.464 482.698 152.544 483.066 153.952H480.114C479.874 153.296 479.49 152.784 478.962 152.416C478.434 152.048 477.77 151.864 476.97 151.864C475.85 151.864 474.954 152.264 474.282 153.064C473.626 153.848 473.298 154.952 473.298 156.376C473.298 157.8 473.626 158.912 474.282 159.712C474.954 160.512 475.85 160.912 476.97 160.912C478.554 160.912 479.602 160.216 480.114 158.824H483.066C482.682 160.168 481.962 161.24 480.906 162.04C479.85 162.824 478.538 163.216 476.97 163.216C475.706 163.216 474.586 162.936 473.61 162.376C472.634 161.8 471.866 161 471.306 159.976C470.762 158.936 470.49 157.736 470.49 156.376ZM492.632 149.56C493.64 149.56 494.536 149.776 495.32 150.208C496.12 150.64 496.744 151.28 497.192 152.128C497.656 152.976 497.888 154 497.888 155.2V163H495.176V155.608C495.176 154.424 494.88 153.52 494.288 152.896C493.696 152.256 492.888 151.936 491.864 151.936C490.84 151.936 490.024 152.256 489.416 152.896C488.824 153.52 488.528 154.424 488.528 155.608V163H485.792V145.24H488.528V151.312C488.992 150.752 489.576 150.32 490.28 150.016C491 149.712 491.784 149.56 492.632 149.56ZM502.77 148.024C502.274 148.024 501.858 147.856 501.522 147.52C501.186 147.184 501.018 146.768 501.018 146.272C501.018 145.776 501.186 145.36 501.522 145.024C501.858 144.688 502.274 144.52 502.77 144.52C503.25 144.52 503.658 144.688 503.994 145.024C504.33 145.36 504.498 145.776 504.498 146.272C504.498 146.768 504.33 147.184 503.994 147.52C503.658 147.856 503.25 148.024 502.77 148.024ZM504.114 149.776V163H501.378V149.776H504.114ZM514.378 149.56C515.418 149.56 516.346 149.776 517.162 150.208C517.994 150.64 518.642 151.28 519.106 152.128C519.57 152.976 519.802 154 519.802 155.2V163H517.09V155.608C517.09 154.424 516.794 153.52 516.202 152.896C515.61 152.256 514.802 151.936 513.778 151.936C512.754 151.936 511.938 152.256 511.33 152.896C510.738 153.52 510.442 154.424 510.442 155.608V163H507.706V149.776H510.442V151.288C510.89 150.744 511.458 150.32 512.146 150.016C512.85 149.712 513.594 149.56 514.378 149.56ZM528.62 149.56C529.644 149.56 530.548 149.768 531.332 150.184C532.132 150.584 532.756 151.088 533.204 151.696V149.776H535.964V163.216C535.964 164.432 535.708 165.512 535.196 166.456C534.684 167.416 533.94 168.168 532.964 168.712C532.004 169.256 530.852 169.528 529.508 169.528C527.716 169.528 526.228 169.104 525.044 168.256C523.86 167.424 523.188 166.288 523.028 164.848H525.74C525.948 165.536 526.388 166.088 527.06 166.504C527.748 166.936 528.564 167.152 529.508 167.152C530.612 167.152 531.5 166.816 532.172 166.144C532.86 165.472 533.204 164.496 533.204 163.216V161.008C532.74 161.632 532.108 162.16 531.308 162.592C530.524 163.008 529.628 163.216 528.62 163.216C527.468 163.216 526.412 162.928 525.452 162.352C524.508 161.76 523.756 160.944 523.196 159.904C522.652 158.848 522.38 157.656 522.38 156.328C522.38 155 522.652 153.824 523.196 152.8C523.756 151.776 524.508 150.984 525.452 150.424C526.412 149.848 527.468 149.56 528.62 149.56ZM533.204 156.376C533.204 155.464 533.012 154.672 532.628 154C532.26 153.328 531.772 152.816 531.164 152.464C530.556 152.112 529.9 151.936 529.196 151.936C528.492 151.936 527.836 152.112 527.228 152.464C526.62 152.8 526.124 153.304 525.74 153.976C525.372 154.632 525.188 155.416 525.188 156.328C525.188 157.24 525.372 158.04 525.74 158.728C526.124 159.416 526.62 159.944 527.228 160.312C527.852 160.664 528.508 160.84 529.196 160.84C529.9 160.84 530.556 160.664 531.164 160.312C531.772 159.96 532.26 159.448 532.628 158.776C533.012 158.088 533.204 157.288 533.204 156.376Z" fill="#931602"/>
<path d="M960 110C960 170.751 910.751 220 850 220C789.249 220 740 170.751 740 110C740 49.2487 789.249 0 850 0C910.751 0 960 49.2487 960 110ZM747.92 110C747.92 166.377 793.623 212.08 850 212.08C906.377 212.08 952.08 166.377 952.08 110C952.08 53.6228 906.377 7.92001 850 7.92001C793.623 7.92001 747.92 53.6228 747.92 110Z" fill="#DFBD90"/>
<path d="M873.75 67.3333V65.8519C873.75 64.7513 873.75 64.2009 873.709 63.737C873.258 58.5802 869.17 54.4917 864.013 54.0406C863.549 54 862.999 54 861.898 54H861.306C860.815 54 860.417 53.602 860.417 53.1111V53.1111C860.417 49.1838 857.233 46 853.306 46H846.194C842.267 46 839.083 49.1838 839.083 53.1111V53.1111C839.083 53.602 838.685 54 838.194 54H837.602C836.501 54 835.951 54 835.487 54.0406C830.33 54.4917 826.242 58.5802 825.791 63.737C825.75 64.2009 825.75 64.7513 825.75 65.8519V74.8C825.75 82.7994 825.75 86.7991 827.787 89.603C828.445 90.5086 829.241 91.3049 830.147 91.9628C832.951 94 836.951 94 844.95 94H857.75C862.72 94 865.205 94 867.165 93.188C869.779 92.1054 871.855 90.0289 872.938 87.4153C873.75 85.4551 873.75 82.97 873.75 78V78M849.75 80.6667V80.6667C854.168 80.6667 857.75 77.0849 857.75 72.6667V72.6667C857.75 68.2484 854.168 64.6667 849.75 64.6667V64.6667C845.332 64.6667 841.75 68.2484 841.75 72.6667V72.6667C841.75 77.0849 845.332 80.6667 849.75 80.6667Z" stroke="#A37F4F" stroke-width="3.5" stroke-linecap="round" stroke-linejoin="round"/>
<path d="M778.575 130.792H784.215V133H775.839V116.32H778.575V130.792ZM787.895 118.024C787.399 118.024 786.983 117.856 786.647 117.52C786.311 117.184 786.143 116.768 786.143 116.272C786.143 115.776 786.311 115.36 786.647 115.024C786.983 114.688 787.399 114.52 787.895 114.52C788.375 114.52 788.783 114.688 789.119 115.024C789.455 115.36 789.623 115.776 789.623 116.272C789.623 116.768 789.455 117.184 789.119 117.52C788.783 117.856 788.375 118.024 787.895 118.024ZM789.239 119.776V133H786.503V119.776H789.239ZM797.943 130.552L801.687 119.776H804.591L799.551 133H796.287L791.271 119.776H794.199L797.943 130.552ZM818.779 126.064C818.779 126.56 818.747 127.008 818.683 127.408H808.579C808.659 128.464 809.051 129.312 809.755 129.952C810.459 130.592 811.323 130.912 812.347 130.912C813.819 130.912 814.859 130.296 815.467 129.064H818.419C818.019 130.28 817.291 131.28 816.235 132.064C815.195 132.832 813.899 133.216 812.347 133.216C811.083 133.216 809.947 132.936 808.939 132.376C807.947 131.8 807.163 131 806.587 129.976C806.027 128.936 805.747 127.736 805.747 126.376C805.747 125.016 806.019 123.824 806.563 122.8C807.123 121.76 807.899 120.96 808.891 120.4C809.899 119.84 811.051 119.56 812.347 119.56C813.595 119.56 814.707 119.832 815.683 120.376C816.659 120.92 817.419 121.688 817.963 122.68C818.507 123.656 818.779 124.784 818.779 126.064ZM815.923 125.2C815.907 124.192 815.547 123.384 814.843 122.776C814.139 122.168 813.267 121.864 812.227 121.864C811.283 121.864 810.475 122.168 809.803 122.776C809.131 123.368 808.731 124.176 808.603 125.2H815.923ZM826.794 124.624C826.794 122.992 827.17 121.528 827.922 120.232C828.69 118.936 829.722 117.928 831.018 117.208C832.33 116.472 833.762 116.104 835.314 116.104C837.09 116.104 838.666 116.544 840.042 117.424C841.434 118.288 842.442 119.52 843.066 121.12H839.778C839.346 120.24 838.746 119.584 837.978 119.152C837.21 118.72 836.322 118.504 835.314 118.504C834.21 118.504 833.226 118.752 832.362 119.248C831.498 119.744 830.818 120.456 830.322 121.384C829.842 122.312 829.602 123.392 829.602 124.624C829.602 125.856 829.842 126.936 830.322 127.864C830.818 128.792 831.498 129.512 832.362 130.024C833.226 130.52 834.21 130.768 835.314 130.768C836.322 130.768 837.21 130.552 837.978 130.12C838.746 129.688 839.346 129.032 839.778 128.152H843.066C842.442 129.752 841.434 130.984 840.042 131.848C838.666 132.712 837.09 133.144 835.314 133.144C833.746 133.144 832.314 132.784 831.018 132.064C829.722 131.328 828.69 130.312 827.922 129.016C827.17 127.72 826.794 126.256 826.794 124.624ZM845.357 126.328C845.357 125 845.629 123.824 846.173 122.8C846.733 121.776 847.485 120.984 848.429 120.424C849.389 119.848 850.445 119.56 851.597 119.56C852.637 119.56 853.541 119.768 854.309 120.184C855.093 120.584 855.717 121.088 856.181 121.696V119.776H858.941V133H856.181V131.032C855.717 131.656 855.085 132.176 854.285 132.592C853.485 133.008 852.573 133.216 851.549 133.216C850.413 133.216 849.373 132.928 848.429 132.352C847.485 131.76 846.733 130.944 846.173 129.904C845.629 128.848 845.357 127.656 845.357 126.328ZM856.181 126.376C856.181 125.464 855.989 124.672 855.605 124C855.237 123.328 854.749 122.816 854.141 122.464C853.533 122.112 852.877 121.936 852.173 121.936C851.469 121.936 850.813 122.112 850.205 122.464C849.597 122.8 849.101 123.304 848.717 123.976C848.349 124.632 848.165 125.416 848.165 126.328C848.165 127.24 848.349 128.04 848.717 128.728C849.101 129.416 849.597 129.944 850.205 130.312C850.829 130.664 851.485 130.84 852.173 130.84C852.877 130.84 853.533 130.664 854.141 130.312C854.749 129.96 855.237 129.448 855.605 128.776C855.989 128.088 856.181 127.288 856.181 126.376ZM878.542 119.56C879.582 119.56 880.51 119.776 881.326 120.208C882.158 120.64 882.806 121.28 883.27 122.128C883.75 122.976 883.99 124 883.99 125.2V133H881.278V125.608C881.278 124.424 880.982 123.52 880.39 122.896C879.798 122.256 878.99 121.936 877.966 121.936C876.942 121.936 876.126 122.256 875.518 122.896C874.926 123.52 874.63 124.424 874.63 125.608V133H871.918V125.608C871.918 124.424 871.622 123.52 871.03 122.896C870.438 122.256 869.63 121.936 868.606 121.936C867.582 121.936 866.766 122.256 866.158 122.896C865.566 123.52 865.27 124.424 865.27 125.608V133H862.534V119.776H865.27V121.288C865.718 120.744 866.286 120.32 866.974 120.016C867.662 119.712 868.398 119.56 869.182 119.56C870.238 119.56 871.182 119.784 872.014 120.232C872.846 120.68 873.486 121.328 873.934 122.176C874.334 121.376 874.958 120.744 875.806 120.28C876.654 119.8 877.566 119.56 878.542 119.56ZM899.592 126.064C899.592 126.56 899.56 127.008 899.496 127.408H889.392C889.472 128.464 889.864 129.312 890.568 129.952C891.272 130.592 892.136 130.912 893.16 130.912C894.632 130.912 895.672 130.296 896.28 129.064H899.232C898.832 130.28 898.104 131.28 897.048 132.064C896.008 132.832 894.712 133.216 893.16 133.216C891.896 133.216 890.76 132.936 889.752 132.376C888.76 131.8 887.976 131 887.4 129.976C886.84 128.936 886.56 127.736 886.56 126.376C886.56 125.016 886.832 123.824 887.376 122.8C887.936 121.76 888.712 120.96 889.704 120.4C890.712 119.84 891.864 119.56 893.16 119.56C894.408 119.56 895.52 119.832 896.496 120.376C897.472 120.92 898.232 121.688 898.776 122.68C899.32 123.656 899.592 124.784 899.592 126.064ZM896.736 125.2C896.72 124.192 896.36 123.384 895.656 122.776C894.952 122.168 894.08 121.864 893.04 121.864C892.096 121.864 891.288 122.168 890.616 122.776C889.944 123.368 889.544 124.176 889.416 125.2H896.736ZM905.02 121.696C905.42 121.024 905.948 120.504 906.604 120.136C907.276 119.752 908.068 119.56 908.98 119.56V122.392H908.284C907.212 122.392 906.396 122.664 905.836 123.208C905.292 123.752 905.02 124.696 905.02 126.04V133H902.284V119.776H905.02V121.696ZM910.583 126.328C910.583 125 910.855 123.824 911.399 122.8C911.959 121.776 912.711 120.984 913.655 120.424C914.615 119.848 915.671 119.56 916.823 119.56C917.863 119.56 918.767 119.768 919.535 120.184C920.319 120.584 920.943 121.088 921.407 121.696V119.776H924.167V133H921.407V131.032C920.943 131.656 920.311 132.176 919.511 132.592C918.711 133.008 917.799 133.216 916.775 133.216C915.639 133.216 914.599 132.928 913.655 132.352C912.711 131.76 911.959 130.944 911.399 129.904C910.855 128.848 910.583 127.656 910.583 126.328ZM921.407 126.376C921.407 125.464 921.215 124.672 920.831 124C920.463 123.328 919.975 122.816 919.367 122.464C918.759 122.112 918.103 121.936 917.399 121.936C916.695 121.936 916.039 122.112 915.431 122.464C914.823 122.8 914.327 123.304 913.943 123.976C913.575 124.632 913.391 125.416 913.391 126.328C913.391 127.24 913.575 128.04 913.943 128.728C914.327 129.416 914.823 129.944 915.431 130.312C916.055 130.664 916.711 130.84 917.399 130.84C918.103 130.84 918.759 130.664 919.367 130.312C919.975 129.96 920.463 129.448 920.831 128.776C921.215 128.088 921.407 127.288 921.407 126.376ZM797.117 146.32L790.853 163H787.685L781.397 146.32H784.325L789.269 160.192L794.237 146.32H797.117ZM811.525 156.064C811.525 156.56 811.493 157.008 811.429 157.408H801.325C801.405 158.464 801.797 159.312 802.501 159.952C803.205 160.592 804.069 160.912 805.093 160.912C806.565 160.912 807.605 160.296 808.213 159.064H811.165C810.765 160.28 810.037 161.28 808.981 162.064C807.941 162.832 806.645 163.216 805.093 163.216C803.829 163.216 802.693 162.936 801.685 162.376C800.693 161.8 799.909 161 799.333 159.976C798.773 158.936 798.493 157.736 798.493 156.376C798.493 155.016 798.765 153.824 799.309 152.8C799.869 151.76 800.645 150.96 801.637 150.4C802.645 149.84 803.797 149.56 805.093 149.56C806.341 149.56 807.453 149.832 808.429 150.376C809.405 150.92 810.165 151.688 810.709 152.68C811.253 153.656 811.525 154.784 811.525 156.064ZM808.669 155.2C808.653 154.192 808.293 153.384 807.589 152.776C806.885 152.168 806.013 151.864 804.973 151.864C804.029 151.864 803.221 152.168 802.549 152.776C801.877 153.368 801.477 154.176 801.349 155.2H808.669ZM816.954 151.696C817.354 151.024 817.882 150.504 818.538 150.136C819.21 149.752 820.002 149.56 820.914 149.56V152.392H820.218C819.146 152.392 818.33 152.664 817.77 153.208C817.226 153.752 816.954 154.696 816.954 156.04V163H814.218V149.776H816.954V151.696ZM824.821 148.024C824.325 148.024 823.909 147.856 823.573 147.52C823.237 147.184 823.069 146.768 823.069 146.272C823.069 145.776 823.237 145.36 823.573 145.024C823.909 144.688 824.325 144.52 824.821 144.52C825.301 144.52 825.709 144.688 826.045 145.024C826.381 145.36 826.549 145.776 826.549 146.272C826.549 146.768 826.381 147.184 826.045 147.52C825.709 147.856 825.301 148.024 824.821 148.024ZM826.165 149.776V163H823.429V149.776H826.165ZM835.301 152.008H832.853V163H830.093V152.008H828.533V149.776H830.093V148.84C830.093 147.32 830.493 146.216 831.293 145.528C832.109 144.824 833.381 144.472 835.109 144.472V146.752C834.277 146.752 833.693 146.912 833.357 147.232C833.021 147.536 832.853 148.072 832.853 148.84V149.776H835.301V152.008ZM839.118 148.024C838.622 148.024 838.206 147.856 837.87 147.52C837.534 147.184 837.366 146.768 837.366 146.272C837.366 145.776 837.534 145.36 837.87 145.024C838.206 144.688 838.622 144.52 839.118 144.52C839.598 144.52 840.006 144.688 840.342 145.024C840.678 145.36 840.846 145.776 840.846 146.272C840.846 146.768 840.678 147.184 840.342 147.52C840.006 147.856 839.598 148.024 839.118 148.024ZM840.462 149.776V163H837.726V149.776H840.462ZM843.142 156.376C843.142 155.016 843.414 153.824 843.958 152.8C844.518 151.76 845.286 150.96 846.262 150.4C847.238 149.84 848.358 149.56 849.622 149.56C851.222 149.56 852.542 149.944 853.582 150.712C854.638 151.464 855.35 152.544 855.718 153.952H852.766C852.526 153.296 852.142 152.784 851.614 152.416C851.086 152.048 850.422 151.864 849.622 151.864C848.502 151.864 847.606 152.264 846.934 153.064C846.278 153.848 845.95 154.952 845.95 156.376C845.95 157.8 846.278 158.912 846.934 159.712C847.606 160.512 848.502 160.912 849.622 160.912C851.206 160.912 852.254 160.216 852.766 158.824H855.718C855.334 160.168 854.614 161.24 853.558 162.04C852.502 162.824 851.19 163.216 849.622 163.216C848.358 163.216 847.238 162.936 846.262 162.376C845.286 161.8 844.518 161 843.958 159.976C843.414 158.936 843.142 157.736 843.142 156.376ZM857.533 156.328C857.533 155 857.805 153.824 858.349 152.8C858.909 151.776 859.661 150.984 860.605 150.424C861.565 149.848 862.621 149.56 863.773 149.56C864.813 149.56 865.717 149.768 866.485 150.184C867.269 150.584 867.893 151.088 868.357 151.696V149.776H871.117V163H868.357V161.032C867.893 161.656 867.261 162.176 866.461 162.592C865.661 163.008 864.749 163.216 863.725 163.216C862.589 163.216 861.549 162.928 860.605 162.352C859.661 161.76 858.909 160.944 858.349 159.904C857.805 158.848 857.533 157.656 857.533 156.328ZM868.357 156.376C868.357 155.464 868.165 154.672 867.781 154C867.413 153.328 866.925 152.816 866.317 152.464C865.709 152.112 865.053 151.936 864.349 151.936C863.645 151.936 862.989 152.112 862.381 152.464C861.773 152.8 861.277 153.304 860.893 153.976C860.525 154.632 860.341 155.416 860.341 156.328C860.341 157.24 860.525 158.04 860.893 158.728C861.277 159.416 861.773 159.944 862.381 160.312C863.005 160.664 863.661 160.84 864.349 160.84C865.053 160.84 865.709 160.664 866.317 160.312C866.925 159.96 867.413 159.448 867.781 158.776C868.165 158.088 868.357 157.288 868.357 156.376ZM877.902 152.008V159.328C877.902 159.824 878.014 160.184 878.238 160.408C878.478 160.616 878.878 160.72 879.438 160.72H881.118V163H878.958C877.726 163 876.782 162.712 876.126 162.136C875.47 161.56 875.142 160.624 875.142 159.328V152.008H873.582V149.776H875.142V146.488H877.902V149.776H881.118V152.008H877.902ZM885.032 148.024C884.536 148.024 884.12 147.856 883.784 147.52C883.448 147.184 883.28 146.768 883.28 146.272C883.28 145.776 883.448 145.36 883.784 145.024C884.12 144.688 884.536 144.52 885.032 144.52C885.512 144.52 885.92 144.688 886.256 145.024C886.592 145.36 886.76 145.776 886.76 146.272C886.76 146.768 886.592 147.184 886.256 147.52C885.92 147.856 885.512 148.024 885.032 148.024ZM886.376 149.776V163H883.64V149.776H886.376ZM895.704 163.216C894.456 163.216 893.328 162.936 892.32 162.376C891.312 161.8 890.52 161 889.944 159.976C889.368 158.936 889.08 157.736 889.08 156.376C889.08 155.032 889.376 153.84 889.968 152.8C890.56 151.76 891.368 150.96 892.392 150.4C893.416 149.84 894.56 149.56 895.824 149.56C897.088 149.56 898.232 149.84 899.256 150.4C900.28 150.96 901.088 151.76 901.68 152.8C902.272 153.84 902.568 155.032 902.568 156.376C902.568 157.72 902.264 158.912 901.656 159.952C901.048 160.992 900.216 161.8 899.16 162.376C898.12 162.936 896.968 163.216 895.704 163.216ZM895.704 160.84C896.408 160.84 897.064 160.672 897.672 160.336C898.296 160 898.8 159.496 899.184 158.824C899.568 158.152 899.76 157.336 899.76 156.376C899.76 155.416 899.576 154.608 899.208 153.952C898.84 153.28 898.352 152.776 897.744 152.44C897.136 152.104 896.48 151.936 895.776 151.936C895.072 151.936 894.416 152.104 893.808 152.44C893.216 152.776 892.744 153.28 892.392 153.952C892.04 154.608 891.864 155.416 891.864 156.376C891.864 157.8 892.224 158.904 892.944 159.688C893.68 160.456 894.6 160.84 895.704 160.84ZM911.945 149.56C912.985 149.56 913.913 149.776 914.729 150.208C915.561 150.64 916.209 151.28 916.673 152.128C917.137 152.976 917.369 154 917.369 155.2V163H914.657V155.608C914.657 154.424 914.361 153.52 913.769 152.896C913.177 152.256 912.369 151.936 911.345 151.936C910.321 151.936 909.505 152.256 908.897 152.896C908.305 153.52 908.009 154.424 908.009 155.608V163H905.273V149.776H908.009V151.288C908.457 150.744 909.025 150.32 909.713 150.016C910.417 149.712 911.161 149.56 911.945 149.56Z" fill="#A37F4F"/>
<defs>
<clipPath id="clip0_251_3935">
<rect width="50" height="50" fill="white" transform="translate(86 52)"/>
</clipPath>
</defs>
</svg>
