<svg width="24" height="24" viewBox="0 0 24 24" fill="none" xmlns="http://www.w3.org/2000/svg">
<path fill-rule="evenodd" clip-rule="evenodd" d="M12.2659 0.0707539C11.2649 -0.144926 10.0562 0.0987464 8.8826 1.27228C8.02204 2.13284 7.66269 3.0111 7.61572 3.8108C6.81608 3.85783 5.93792 4.21719 5.07744 5.07767C4.21705 5.93805 3.85768 6.81613 3.81059 7.6157C3.01095 7.66272 2.13276 8.02208 1.27227 8.88257C0.0987482 10.0562 -0.144925 11.2649 0.0707528 12.2659C0.358275 13.6005 1.5961 14.2247 2.27345 14.5325L13.0854 19.4471C13.9023 19.8183 14.8637 19.644 15.4982 19.0095L19.0096 15.4982C19.644 14.8637 19.8184 13.9023 19.4472 13.0854L14.5326 2.27345C14.2247 1.5961 13.6005 0.358273 12.2659 0.0707539ZM11.2841 2.20414C11.4935 2.13833 11.668 2.1438 11.8126 2.17498C11.8907 2.19179 11.9947 2.24193 12.1353 2.40938C12.2843 2.58712 12.4256 2.83969 12.573 3.16417L17.4875 13.9761L17.3549 14.1087L10.0716 4.7443C9.93284 4.60122 9.83328 4.41073 9.7886 4.21709C9.73521 3.98575 9.69677 3.50222 10.4047 2.79434C10.7716 2.42745 11.0713 2.27096 11.2841 2.20414ZM4.74431 10.0718L14.1086 17.3551L13.9761 17.4875L3.16417 12.573C2.83968 12.4255 2.58713 12.2843 2.40938 12.1353C2.24193 11.9947 2.1918 11.8906 2.17498 11.8126C2.14381 11.6678 2.13832 11.4935 2.20414 11.2841C2.27097 11.0713 2.42745 10.7715 2.79434 10.4046C3.50222 9.69673 3.98575 9.73518 4.21708 9.78857C4.41202 9.83358 4.60233 9.92969 4.74431 10.0718ZM15.6428 15.8211L6.2007 8.4773C6.14023 8.39878 6.0299 8.22376 5.98345 8.02247C5.93007 7.79114 5.89161 7.30761 6.59951 6.59972C7.30739 5.89183 7.79091 5.93028 8.02224 5.98367C8.22404 6.03023 8.39948 6.14106 8.47767 6.20138L15.821 15.6429L15.6428 15.8211Z" fill="#121212"/>
<path fill-rule="evenodd" clip-rule="evenodd" d="M16.0462 19.9836C15.513 20.5169 15.373 21.4369 15.9497 22.1084C16.3493 22.5738 17.1968 23.4348 18.3681 23.8133C18.9758 24.0098 19.6771 24.0778 20.4271 23.8862C21.174 23.6953 21.8966 23.2656 22.5811 22.5811C23.2656 21.8966 23.6954 21.1739 23.8863 20.427C24.0779 19.6769 24.0098 18.9757 23.8134 18.368C23.4348 17.1968 22.5738 16.3491 22.1085 15.9496C21.4369 15.373 20.517 15.5129 19.9838 16.0462L16.0462 19.9836ZM19.0301 21.7652C18.6308 21.6361 18.2635 21.3744 17.9689 21.105L21.105 17.9689C21.3744 18.2635 21.6362 18.6308 21.7652 19.03C21.8553 19.3086 21.8778 19.5928 21.8007 19.8941C21.7229 20.1986 21.5249 20.5932 21.0591 21.059C20.5933 21.5248 20.1986 21.7229 19.8941 21.8007C19.5929 21.8776 19.3088 21.8553 19.0301 21.7652Z" fill="#121212"/>
</svg>
