<svg width="22" height="22" viewBox="0 0 22 22" fill="none" xmlns="http://www.w3.org/2000/svg">
<path fill-rule="evenodd" clip-rule="evenodd" d="M7.2831 2.29575C7.79388 2.70097 8.4823 3.26714 9.23273 3.94019C9.95074 4.58421 10.7388 5.33779 11.4861 6.1512C12.9219 4.93212 14.0298 3.5572 14.6009 2.24755C13.811 1.92324 12.9797 1.70642 12.1312 1.60356C10.5208 1.40837 8.85013 1.62409 7.2831 2.29575ZM15.9707 2.94448C15.2769 4.48824 14.0251 6.00681 12.4866 7.31446C12.948 7.89199 13.3676 8.48621 13.7115 9.08193C14.1306 9.80781 14.5031 10.65 14.8313 11.5336C16.6853 10.8347 18.6343 10.4887 20.4613 10.7098C20.4161 9.1959 20.006 7.67145 19.1958 6.26813C18.3833 4.86072 17.2639 3.74088 15.9707 2.94448ZM20.3818 12.2469C18.8102 12.0339 17.0521 12.3293 15.3239 12.9876C15.6214 13.947 15.8706 14.9076 16.0742 15.78C16.3266 16.8619 16.5137 17.8301 16.6377 18.5278C16.6416 18.55 16.6454 18.5719 16.6493 18.5936C18.0297 17.5695 19.0623 16.2218 19.703 14.7185C20.0397 13.9289 20.2681 13.0969 20.3818 12.2469ZM15.2398 19.461C15.2115 19.2861 15.1738 19.0615 15.1267 18.7963C15.0062 18.1184 14.8245 17.178 14.5797 16.1288C14.3911 15.32 14.1675 14.4588 13.9095 13.6098C13.4915 13.8185 13.0788 14.0469 12.6749 14.2927C10.2074 15.7941 8.23297 17.8428 7.39996 19.7525C9.85805 20.7615 12.7142 20.7294 15.2398 19.461ZM6.03017 19.0556C7.05413 16.7771 9.29412 14.5534 11.8771 12.9817C12.3744 12.6791 12.8905 12.3969 13.4197 12.1409C13.1107 11.2993 12.7649 10.5115 12.3825 9.84925C12.0775 9.32103 11.6989 8.78565 11.2763 8.25776C10.9223 8.51064 10.5585 8.75187 10.1874 8.97972C7.55843 10.5938 4.39884 11.6367 1.5391 11.2906C1.58427 12.8041 1.99422 14.3285 2.80436 15.7317C3.61707 17.1394 4.73682 18.2593 6.03017 19.0556ZM1.61844 9.75349C1.97143 7.11112 3.43263 4.64445 5.80483 3.08954C5.93208 3.18664 6.09348 3.31143 6.28216 3.46064C6.77873 3.85334 7.46213 4.41362 8.20802 5.08263C8.88307 5.68809 9.59706 6.37189 10.2665 7.09259C9.98071 7.29299 9.68637 7.48651 9.38446 7.67188C6.87997 9.20951 4.0299 10.0807 1.61844 9.75349ZM5.50095 1.47518C7.6444 0.237657 10.0335 -0.196573 12.3158 0.0800806C15.6303 0.481848 18.7255 2.38423 20.5248 5.50081C22.3242 8.61738 22.4242 12.249 21.1148 15.3204C20.2133 17.4353 18.6426 19.2872 16.4991 20.5247C11.2388 23.5617 4.5124 21.7595 1.47532 16.499C-1.56176 11.2387 0.240582 4.51225 5.50095 1.47518Z" fill="#121212"/>
</svg>
