<svg width="16" height="16" viewBox="0 0 16 16" fill="none" xmlns="http://www.w3.org/2000/svg">
<g id="bathtub" clip-path="url(#clip0_684_1382)">
<g id="Group">
<g id="Group_2">
<path id="Vector" d="M16 8.14065C16 7.41639 15.4107 6.82712 14.6864 6.82712H2.20441V2.55775C2.20441 2.06628 2.60424 1.66645 3.09571 1.66645H3.32906C3.57052 1.66645 3.79834 1.76461 3.96377 1.93214L3.92421 1.9717C3.25989 2.63602 3.25989 3.71691 3.92421 4.38131L4.14958 4.60667C4.24892 4.70602 4.37914 4.75572 4.50943 4.75572C4.63972 4.75572 4.76987 4.70609 4.86928 4.60667L7.09435 2.38161C7.29304 2.18292 7.29304 1.86066 7.09435 1.66197L6.86898 1.43661C6.54722 1.11477 6.11931 0.937574 5.66425 0.937574C5.31637 0.937574 4.98459 1.0414 4.70378 1.23393C4.34834 0.865394 3.85399 0.648712 3.32913 0.648712H3.09578C2.04311 0.648712 1.18667 1.50508 1.18667 2.55782V6.83363C0.521716 6.89769 0 7.45938 0 8.14072C0 8.69793 0.349351 9.17407 0.840123 9.36457V11.0417C0.840123 12.521 1.89301 13.759 3.28873 14.0459L2.85215 14.4825C2.65346 14.6811 2.65346 15.0033 2.85215 15.202C2.95149 15.3014 3.08171 15.3511 3.212 15.3511C3.34229 15.3511 3.47244 15.3014 3.57185 15.202L4.66597 14.1085H11.3337L12.4282 15.202C12.5275 15.3014 12.6577 15.3511 12.7881 15.3511C12.9183 15.3511 13.0485 15.3014 13.1479 15.202C13.3466 15.0033 13.3466 14.6811 13.1479 14.4825L12.7113 14.0459C14.1072 13.759 15.16 12.521 15.16 11.0417V9.36457C15.6506 9.17393 16 8.69793 16 8.14065ZM5.66425 1.95524C5.78229 1.95524 5.8957 1.98479 5.9961 2.04045L4.52847 3.50807C4.3846 3.24728 4.42311 2.91207 4.64399 2.69126L5.17915 2.1561C5.30874 2.02658 5.48103 1.95524 5.66425 1.95524ZM1.3136 7.84493H14.6864C14.8495 7.84493 14.9823 7.97759 14.9823 8.14079C14.9823 8.30384 14.8495 8.43658 14.6864 8.43658H1.3136C1.15048 8.43658 1.01781 8.30384 1.01781 8.14079C1.01781 7.97759 1.15048 7.84493 1.3136 7.84493ZM14.1421 11.0417C14.1421 12.1715 13.2228 13.0907 12.0928 13.0907H3.90713C2.77717 13.0907 1.85786 12.1716 1.85786 11.0417V9.46888H14.1421V11.0417Z" fill="#434E58"/>
</g>
</g>
</g>
<defs>
<clipPath id="clip0_684_1382">
<rect width="16" height="16" fill="white"/>
</clipPath>
</defs>
</svg>
