<svg width="30" height="30" viewBox="0 0 30 30" fill="none" xmlns="http://www.w3.org/2000/svg">
<path d="M4.28566 8.57143H21.4285C21.7127 8.57143 21.9852 8.68431 22.1861 8.88524C22.3871 9.08618 22.4999 9.3587 22.4999 9.64286V19.2857C22.4999 20.4224 22.0484 21.5124 21.2447 22.3162C20.441 23.1199 19.3509 23.5714 18.2142 23.5714H7.49995C6.36331 23.5714 5.27322 23.1199 4.46949 22.3162C3.66576 21.5124 3.21423 20.4224 3.21423 19.2857V9.64286C3.21423 9.3587 3.32712 9.08618 3.52805 8.88524C3.72898 8.68431 4.0015 8.57143 4.28566 8.57143V8.57143Z" stroke="#000001" stroke-width="2" stroke-linecap="round" stroke-linejoin="round"/>
<path d="M1.07141 28.9286H28.9286" stroke="#000001" stroke-width="2" stroke-linecap="round" stroke-linejoin="round"/>
<path d="M22.5 10.7143H24.6429C25.7795 10.7143 26.8696 11.1658 27.6733 11.9695C28.477 12.7733 28.9286 13.8634 28.9286 15C28.9286 16.1366 28.477 17.2267 27.6733 18.0305C26.8696 18.8342 25.7795 19.2857 24.6429 19.2857H22.5" stroke="#000001" stroke-width="2" stroke-linecap="round" stroke-linejoin="round"/>
<path d="M6.42859 1.07143V3.21429" stroke="#000001" stroke-width="2" stroke-linecap="round" stroke-linejoin="round"/>
<path d="M17.1428 1.07143V3.21429" stroke="#000001" stroke-width="2" stroke-linecap="round" stroke-linejoin="round"/>
<path d="M11.7856 1.07143V3.21429" stroke="#000001" stroke-width="2" stroke-linecap="round" stroke-linejoin="round"/>
</svg>
