<svg width="30" height="30" viewBox="0 0 30 30" fill="none" xmlns="http://www.w3.org/2000/svg">
<path d="M22.5 1.07143H7.49998C3.94958 1.07143 1.07141 3.9496 1.07141 7.5V22.5C1.07141 26.0504 3.94958 28.9286 7.49998 28.9286H22.5C26.0504 28.9286 28.9286 26.0504 28.9286 22.5V7.5C28.9286 3.9496 26.0504 1.07143 22.5 1.07143Z" stroke="#000001" stroke-width="2" stroke-linecap="round" stroke-linejoin="round"/>
<path d="M11.7856 7.5V22.5" stroke="#000001" stroke-width="2" stroke-linecap="round" stroke-linejoin="round"/>
<path d="M11.7856 16.0714H16.0714C17.208 16.0714 18.2981 15.6199 19.1018 14.8162C19.9055 14.0124 20.3571 12.9224 20.3571 11.7857C20.3571 10.6491 19.9055 9.55898 19.1018 8.75526C18.2981 7.95153 17.208 7.5 16.0714 7.5H11.7856" stroke="#000001" stroke-width="2" stroke-linecap="round" stroke-linejoin="round"/>
</svg>
