<svg width="60" height="60" viewBox="0 0 60 60" fill="none" xmlns="http://www.w3.org/2000/svg">
<path d="M58.1977 17.8835C58.0096 17.2591 57.5113 16.7777 56.8831 16.6084L9.49179 3.90064C9.01222 3.77275 8.49691 3.83858 8.06435 4.08871C7.6318 4.33696 7.31584 4.74883 7.18796 5.23028L2.42795 22.9971C2.15901 24.0014 2.75331 25.032 3.75759 25.3009L39.1125 34.7814C39.7332 34.9488 40.3688 35.0335 40.997 35.0335C42.8852 35.0335 44.6982 34.2755 46.199 32.803L57.8065 19.6702C58.2372 19.1812 58.3858 18.506 58.1977 17.8835ZM43.472 30.2133C42.5429 31.1216 41.2998 31.4714 40.0867 31.148L6.54664 22.1545L10.3343 8.01933L52.9751 19.4539L43.472 30.2133Z" fill="black"/>
<path d="M59.7474 21.0619C59.4991 20.6293 59.0873 20.3134 58.6058 20.1855L54.6526 19.1286C53.6427 18.8521 52.6177 19.4577 52.3488 20.4582C52.0798 21.4644 52.676 22.4931 53.6784 22.762L55.8149 23.3338L53.4753 32.0658L45.2417 29.8578C44.2412 29.5851 43.2068 30.1832 42.9378 31.1875C42.6689 32.1918 43.2632 33.2224 44.2675 33.4913L54.3178 36.1863C54.4777 36.2277 54.6413 36.2503 54.8049 36.2503C55.1303 36.2503 55.4557 36.1638 55.7453 35.9945C56.1778 35.7463 56.4938 35.3344 56.6217 34.8529L59.9354 22.4893C60.0652 22.0079 59.9975 21.4926 59.7474 21.0619Z" fill="black"/>
<path d="M6.64633 39.2368H1.88068C0.842546 39.2368 0 40.0775 0 41.1175V54.2822C0 55.3223 0.842546 56.1629 1.88068 56.1629H6.64633C11.2841 56.1629 11.2841 51.5647 11.2841 50.0526V43.978C11.2841 41.0516 10.5074 39.2368 6.64633 39.2368ZM7.52273 50.0526C7.52273 52.4016 7.19361 52.4016 6.64633 52.4016H3.76136V42.9982H6.64633C7.06008 42.9982 7.32526 43.0207 7.48888 43.0433C7.50768 43.2201 7.52273 43.5078 7.52273 43.978V50.0526Z" fill="black"/>
<path d="M25.6149 29.2522C24.5805 29.0567 23.612 29.7356 23.4221 30.7587L20.4543 46.7595H11.2841C10.246 46.7595 9.40344 47.6002 9.40344 48.6402C9.40344 49.6802 10.246 50.5209 11.2841 50.5209H22.0191C22.9237 50.5209 23.7023 49.8739 23.8678 48.9825L27.1214 31.4451C27.3094 30.4239 26.6361 29.4422 25.6149 29.2522Z" fill="black"/>
</svg>
