<svg width="30" height="30" viewBox="0 0 30 30" fill="none" xmlns="http://www.w3.org/2000/svg">
<path d="M21.25 21.875H8.75C8.375 21.875 8.125 21.625 8.125 21.25V17.5C8.125 17.125 8.375 16.875 8.75 16.875H21.25C21.625 16.875 21.875 17.125 21.875 17.5V21.25C21.875 21.625 21.625 21.875 21.25 21.875ZM9.375 20.625H20.625V18.125H9.375V20.625Z" fill="#121212"/>
<path d="M19.375 26.875H10.625C10.25 26.875 10 26.625 10 26.25V21.25C10 20.875 10.25 20.625 10.625 20.625H19.375C19.75 20.625 20 20.875 20 21.25V26.25C20 26.625 19.75 26.875 19.375 26.875ZM11.25 25.625H18.75V21.875H11.25V25.625Z" fill="#121212"/>
<path d="M13.75 24.375H10.625C10.25 24.375 10 24.125 10 23.75V21.25C10 20.875 10.25 20.625 10.625 20.625H13.75C14.125 20.625 14.375 20.875 14.375 21.25V23.75C14.375 24.125 14.125 24.375 13.75 24.375ZM11.25 23.125H13.125V21.875H11.25V23.125Z" fill="#121212"/>
<path d="M19.375 24.375H13.75C13.375 24.375 13.125 24.125 13.125 23.75V21.25C13.125 20.875 13.375 20.625 13.75 20.625H19.375C19.75 20.625 20 20.875 20 21.25V23.75C20 24.125 19.75 24.375 19.375 24.375ZM14.375 23.125H18.75V21.875H14.375V23.125Z" fill="#121212"/>
<path d="M19.375 26.875H16.25C15.875 26.875 15.625 26.625 15.625 26.25V23.75C15.625 23.375 15.875 23.125 16.25 23.125H19.375C19.75 23.125 20 23.375 20 23.75V26.25C20 26.625 19.75 26.875 19.375 26.875ZM16.875 25.625H18.75V24.375H16.875V25.625Z" fill="#121212"/>
<path d="M16.25 26.875H10.625C10.25 26.875 10 26.625 10 26.25V23.75C10 23.375 10.25 23.125 10.625 23.125H16.25C16.625 23.125 16.875 23.375 16.875 23.75V26.25C16.875 26.625 16.625 26.875 16.25 26.875ZM11.25 25.625H15.625V24.375H11.25V25.625Z" fill="#121212"/>
<path d="M19.375 18.125H15.625C15.25 18.125 15 17.875 15 17.5V15C15 14.625 15.25 14.375 15.625 14.375H19.375C19.75 14.375 20 14.625 20 15V17.5C20 17.875 19.75 18.125 19.375 18.125ZM16.25 16.875H18.75V15.625H16.25V16.875Z" fill="#121212"/>
<path d="M20 15.625H12.5C11.125 15.625 10 14.5 10 13.125C10 11.75 11.125 10.625 12.5 10.625H20C21.375 10.625 22.5 11.75 22.5 13.125C22.5 14.5 21.375 15.625 20 15.625ZM12.5 11.875C11.8125 11.875 11.25 12.4375 11.25 13.125C11.25 13.8125 11.8125 14.375 12.5 14.375H20C20.6875 14.375 21.25 13.8125 21.25 13.125C21.25 12.4375 20.6875 11.875 20 11.875H12.5Z" fill="#121212"/>
<path d="M16.25 11.875H5.625C4.25 11.875 3.125 10.75 3.125 9.375C3.125 8 4.25 6.875 5.625 6.875H16.25C17.625 6.875 18.75 8 18.75 9.375C18.75 10.75 17.625 11.875 16.25 11.875ZM5.625 8.125C4.9375 8.125 4.375 8.6875 4.375 9.375C4.375 10.0625 4.9375 10.625 5.625 10.625H16.25C16.9375 10.625 17.5 10.0625 17.5 9.375C17.5 8.6875 16.9375 8.125 16.25 8.125H5.625Z" fill="#121212"/>
<path d="M24.375 8.125H13.75C12.375 8.125 11.25 7 11.25 5.625C11.25 4.25 12.375 3.125 13.75 3.125H24.375C25.75 3.125 26.875 4.25 26.875 5.625C26.875 7 25.75 8.125 24.375 8.125ZM13.75 4.375C13.0625 4.375 12.5 4.9375 12.5 5.625C12.5 6.3125 13.0625 6.875 13.75 6.875H24.375C25.0625 6.875 25.625 6.3125 25.625 5.625C25.625 4.9375 25.0625 4.375 24.375 4.375H13.75Z" fill="#121212"/>
</svg>
