<svg width="30" height="28" viewBox="0 0 30 28" fill="none" xmlns="http://www.w3.org/2000/svg">
<path d="M29.4296 15.9637H23.3076V11.6289C23.3076 11.3139 23.0523 11.0585 22.7373 11.0585H22.0153C22.0153 11.0585 22.0163 8.97617 22.0152 8.96173C21.9927 5.30534 19.1585 2.30367 15.5704 2.01362V0.629743C15.5704 0.314746 15.3151 0.0593719 15.0001 0.0593719C14.6851 0.0593719 14.4297 0.314746 14.4297 0.629743V2.01346C10.8272 2.30473 7.98482 5.32922 7.98482 9.00538V11.0583H7.26273C6.94773 11.0583 6.69235 11.3137 6.69235 11.6287V15.9635H0.570371C0.255374 15.9635 0 16.2189 0 16.5339V27.3702C0 27.6852 0.255374 27.9406 0.570371 27.9406H29.4296C29.7446 27.9406 30 27.6852 30 27.3702V16.534C30 16.2191 29.7446 15.9637 29.4296 15.9637ZM15.0001 3.13093C18.0469 3.13093 20.5594 5.46246 20.8471 8.43508H9.15301C9.44071 5.46246 11.9532 3.13093 15.0001 3.13093ZM9.12556 9.57582H20.8746V11.0584C17.1441 11.0584 13.0496 11.0584 9.12556 11.0584V9.57582ZM7.8331 12.1992H22.1669V15.9637H21.3015V15.8397C21.3015 15.5865 21.1346 15.3636 20.8916 15.2924L15.1879 13.6193C15.0831 13.5886 14.9716 13.5886 14.8668 13.6193L9.16313 15.2924C8.92015 15.3636 8.7533 15.5865 8.7533 15.8397V15.9637H7.8331V12.1992ZM17.8032 18.6154V26.7999L15.1879 26.8V18.6155L17.8032 18.6154ZM9.89404 17.4747V16.2667L15.0274 14.761L20.1607 16.2667V17.4747H9.89404ZM14.5 18.6155V26.8L12.2516 26.7999V18.6154L14.5 18.6155ZM1.14074 17.1044H8.7533V18.0452C8.7533 18.3601 9.00867 18.6155 9.32367 18.6155H9.36169V26.8H1.14074V17.1044ZM10.5024 26.7999V18.6154H11.1108V26.7999H10.5024ZM18.9439 26.7999V18.6154H19.5523V26.7999H18.9439ZM28.8593 26.7999H20.6931V18.6154H20.7311C21.0461 18.6154 21.3015 18.3601 21.3015 18.0451V17.1043H28.8593V26.7999Z" fill="black"/>
<path d="M4.64666 17.73C3.74509 17.73 3.0116 18.4635 3.0116 19.3651V20.9621C3.0116 21.2771 3.26697 21.5325 3.58197 21.5325H5.71135C6.02635 21.5325 6.28172 21.2771 6.28172 20.9621V19.3651C6.28172 18.4635 5.54823 17.73 4.64666 17.73ZM5.14098 20.3917H4.15234V19.3651C4.15234 19.0925 4.3741 18.8707 4.64666 18.8707C4.91922 18.8707 5.14098 19.0925 5.14098 19.3651V20.3917Z" fill="black"/>
<path d="M4.64666 22.0648C3.74509 22.0648 3.0116 22.7983 3.0116 23.6999V25.2969C3.0116 25.6119 3.26697 25.8673 3.58197 25.8673H5.71135C6.02635 25.8673 6.28172 25.6119 6.28172 25.2969V23.6999C6.28172 22.7983 5.54823 22.0648 4.64666 22.0648ZM5.14098 24.7266H4.15234V23.6999C4.15234 23.4273 4.3741 23.2056 4.64666 23.2056C4.91922 23.2056 5.14098 23.4273 5.14098 23.6999V24.7266Z" fill="black"/>
<path d="M24.3434 21.5325H26.4728C26.7878 21.5325 27.0432 21.2771 27.0432 20.9621V19.3651C27.0432 18.4635 26.3097 17.73 25.4081 17.73C24.5066 17.73 23.7731 18.4635 23.7731 19.3651V20.9621C23.7731 21.2772 24.0284 21.5325 24.3434 21.5325ZM24.9138 19.3651C24.9138 19.0925 25.1356 18.8707 25.4081 18.8707C25.6807 18.8707 25.9025 19.0925 25.9025 19.3651V20.3917H24.9138V19.3651Z" fill="black"/>
<path d="M24.3434 25.8673H26.4728C26.7878 25.8673 27.0432 25.6119 27.0432 25.2969V23.6999C27.0432 22.7983 26.3097 22.0648 25.4081 22.0648C24.5066 22.0648 23.7731 22.7983 23.7731 23.6999V25.2969C23.7731 25.612 24.0284 25.8673 24.3434 25.8673ZM24.9138 23.6999C24.9138 23.4273 25.1356 23.2056 25.4081 23.2056C25.6807 23.2056 25.9025 23.4273 25.9025 23.6999V24.7266H24.9138V23.6999Z" fill="black"/>
</svg>
