<svg width="19" height="21" viewBox="0 0 19 21" fill="none" xmlns="http://www.w3.org/2000/svg">
<path d="M3.10309 3.28475H2.2746V3.28C1.57357 3.28 1 3.793 1 4.42V20H1.82849V4.42475C1.82849 4.19675 2.01968 4.02575 2.2746 4.02575H3.10309C3.35801 4.02575 3.5492 4.19675 3.5492 4.42475V20H4.37769V4.42475C4.37769 3.79775 3.80412 3.28475 3.10309 3.28475Z" fill="#121212" stroke="black" stroke-width="0.5"/>
<path d="M16.7254 3.28475H15.8332V3.28C15.1321 3.28 14.5586 3.793 14.5586 4.42V20H15.4508V4.42475C15.4508 4.19675 15.5783 4.02575 15.8332 4.02575H16.7254C16.9166 4.02575 17.1078 4.19675 17.1078 4.42475V20H18V4.42475C18 3.79775 17.4264 3.28475 16.7254 3.28475Z" fill="#121212" stroke="black" stroke-width="0.5"/>
<path d="M9.91158 3.28475H9.08309V3.28C8.38206 3.28 7.80849 3.793 7.80849 4.42V20H8.63698V4.42475C8.63698 4.19675 8.82817 4.02575 9.08309 4.02575H9.91158C10.1665 4.02575 10.3577 4.19675 10.3577 4.42475V20H11.1862V4.42475C11.1862 3.79775 10.6126 3.28475 9.91158 3.28475Z" fill="#121212" stroke="black" stroke-width="0.5"/>
<path d="M2.27992 2.539H3.55452V2.881C3.55452 3.109 3.74571 3.28 4.00063 3.28H8.20151C8.45643 3.28 8.64762 3.109 8.64762 2.881V2.539H10.3683V2.881C10.3683 3.109 10.5595 3.28 10.7507 3.28H15.0153C15.2702 3.28 15.4614 3.109 15.4614 2.881V2.539H16.736C17.3096 2.539 17.3096 1.741 16.736 1.741H15.4614V1.399C15.4614 1.171 15.2702 1 15.0153 1H10.7507C10.5595 1 10.3683 1.171 10.3683 1.399V1.741H8.64762V1.399C8.64762 1.171 8.45643 1 8.20151 1H4.00063C3.9369 1 3.9369 1 3.9369 1C3.74571 1 3.55452 1.171 3.55452 1.399V1.741H2.27992C2.27992 1.741 2.27992 1.741 2.21619 1.741C1.64262 1.798 1.70635 2.539 2.27992 2.539ZM11.2021 1.741H14.5745V2.539H11.2021V1.741ZM4.39363 1.741H7.82975V2.539H4.39363V1.741Z" fill="#121212" stroke="black" stroke-width="0.5"/>
</svg>
