<?xml version="1.0" encoding="utf-8"?>

<!-- Uploaded to: SVG Repo, www.svgrepo.com, Generator: SVG Repo Mixer Tools -->
<svg version="1.1" id="Icons" xmlns="http://www.w3.org/2000/svg" xmlns:xlink="http://www.w3.org/1999/xlink" 
	 viewBox="0 0 32 32" xml:space="preserve">
<style type="text/css">
	.st0{fill:none;stroke:#000000;stroke-width:2;stroke-linecap:round;stroke-linejoin:round;stroke-miterlimit:10;}
</style>
<path class="st0" d="M31,2H1v7.7C2,9.9,3,10,4,10c5.1,0,9.6-2.2,12-5.4c2.4,3.2,6.9,5.4,12,5.4c1,0,2-0.1,3-0.3V2z"/>
<path class="st0" d="M12,8.7v1.7C12,15,9.2,19.2,5,21l0,0l0,0c1.9,2.6,3,4.8,3,8v1H1V9"/>
<line class="st0" x1="1" y1="21" x2="5" y2="21"/>
<path class="st0" d="M31,9v21h-7v-1c0-3.2,1.1-5.4,3-8l0,0l0,0c-4.2-1.8-7-6-7-10.6V8.7"/>
<line class="st0" x1="31" y1="21" x2="27" y2="21"/>
<path class="st0" d="M4,16L4,16c1.2-1.8,1.9-3.9,2-6.1"/>
<path class="st0" d="M28,16L28,16c-1.2-1.8-1.9-3.9-2-6.1"/>
</svg>