<svg width="30" height="30" viewBox="0 0 30 30" fill="none" xmlns="http://www.w3.org/2000/svg">
<path d="M13 15.5C13.2762 15.5 13.5 15.2761 13.5 15C13.5 14.7239 13.2762 14.5 13 14.5C12.7239 14.5 12.5 14.7239 12.5 15C12.5 15.2761 12.7239 15.5 13 15.5Z" fill="#121212"/>
<path d="M7.00003 9.49998C7.27616 9.49998 7.50001 9.27613 7.50001 9C7.50001 8.72387 7.27616 8.50002 7.00003 8.50002C6.72389 8.50002 6.50005 8.72387 6.50005 9C6.50005 9.27613 6.72389 9.49998 7.00003 9.49998Z" fill="#121212"/>
<path d="M13 9.49998C13.2762 9.49998 13.5 9.27613 13.5 9C13.5 8.72387 13.2762 8.50002 13 8.50002C12.7239 8.50002 12.5 8.72387 12.5 9C12.5 9.27613 12.7239 9.49998 13 9.49998Z" fill="#121212"/>
<path d="M10 12.5C10.2762 12.5 10.5 12.2761 10.5 12C10.5 11.7239 10.2762 11.5 10 11.5C9.72389 11.5 9.50005 11.7239 9.50005 12C9.50005 12.2761 9.72389 12.5 10 12.5Z" fill="#121212"/>
<path d="M25 12H25.5V14H24.5C24.224 14 24 14.224 24 14.5C24 14.7759 24.224 14.9999 24.5 14.9999H27.5C27.776 14.9999 28 14.7759 28 14.5C28 14.224 27.776 14 27.5 14H26.5V12H26.9999C27.8269 12 28.4999 11.327 28.4999 10.5V4.5C28.4999 3.67301 27.8269 3 26.9999 3H26.5V2.50002C26.5 2.22404 26.276 2.00004 26 2.00004C25.724 2.00004 25.5 2.22404 25.5 2.50002V3H25C24.173 3 23.5 3.67301 23.5 4.5V10.5C23.5 11.327 24.173 12 25 12ZM24.5 4.5C24.5 4.22449 24.7244 4.00002 25 4.00002H27C27.2755 4.00002 27.5 4.22449 27.5 4.5V10.5C27.5 10.7755 27.2755 11 27 11H25C24.7245 11 24.5 10.7755 24.5 10.5V4.5H24.5Z" fill="#121212"/>
<path d="M2.50002 11.5C2.776 11.5 3 11.276 3 11V9.50004C3 7.01906 5.01903 5.00004 7.5 5.00004H12.5C14.981 5.00004 17 7.01906 17 9.50004V11C17 11.276 17.224 11.5 17.5 11.5C17.7759 11.5 17.9999 11.276 17.9999 11V9.50004C17.9999 6.46752 15.5324 4.00002 12.4999 4.00002H7.5C4.46748 4.00002 1.99998 6.46752 1.99998 9.50004V11C1.99998 11.276 2.22399 11.5 2.50002 11.5Z" fill="#121212"/>
<path d="M26 24.5C26.2761 24.5 26.5 24.2761 26.5 24C26.5 23.7239 26.2761 23.5 26 23.5C25.7238 23.5 25.5 23.7239 25.5 24C25.5 24.2761 25.7238 24.5 26 24.5Z" fill="#121212"/>
<path d="M26 19.5C26.2761 19.5 26.5 19.2761 26.5 19C26.5 18.7239 26.2761 18.5 26 18.5C25.7238 18.5 25.5 18.7239 25.5 19C25.5 19.2761 25.7238 19.5 26 19.5Z" fill="#121212"/>
<path d="M29.5 16H22.5C22.224 16 22 16.224 22 16.5V27.5C22 27.776 22.224 28 22.5 28C22.776 28 23 27.776 23 27.5V27H29V27.5C29 27.776 29.224 28 29.5 28C29.7759 28 29.9999 27.776 29.9999 27.5V16.5C30 16.224 29.776 16 29.5 16ZM29 26H23V22H29V26ZM29 21H23V17H29V21Z" fill="#121212"/>
<path d="M7.00003 15.5C7.27616 15.5 7.50001 15.2761 7.50001 15C7.50001 14.7239 7.27616 14.5 7.00003 14.5C6.72389 14.5 6.50005 14.7239 6.50005 15C6.50005 15.2761 6.72389 15.5 7.00003 15.5Z" fill="#121212"/>
<path d="M18.5 12C17.673 12 17 12.673 17 13.5V16.5C17 17.327 16.327 18 15.5 18H4.5C3.67301 18 3 17.327 3 16.5V13.5C3 12.673 2.32699 12 1.5 12C0.673008 12 0 12.673 0 13.5V17.5C0 20.5325 2.4675 23 5.50002 23H14.5C17.5325 23 20 20.5325 20 17.5V13.5C20 12.673 19.327 12 18.5 12ZM19 17.5C19 19.981 16.981 22 14.5 22H5.50002C3.01904 22 1.00002 19.981 1.00002 17.5V13.5C1.00002 13.2245 1.22449 13 1.5 13C1.77551 13 1.99998 13.2245 1.99998 13.5V16.5C1.99998 17.8785 3.12146 19 4.5 19H15.5C16.8785 19 18 17.8785 18 16.5V13.5C18 13.2245 18.2245 13 18.5 13C18.7755 13 19 13.2245 19 13.5V17.5H19Z" fill="#121212"/>
<path d="M10 26.5C9.72405 26.5 9.50005 26.724 9.50005 27V27.5C9.50005 27.776 9.72405 28 10 28C10.276 28 10.5 27.776 10.5 27.5V27C10.5 26.724 10.276 26.5 10 26.5Z" fill="#121212"/>
<path d="M14.3 27.1L10.3 24.1C10.2919 24.094 10.2824 24.093 10.274 24.0875C10.2445 24.068 10.2134 24.056 10.181 24.0435C10.152 24.032 10.1249 24.0195 10.0949 24.0135C10.0634 24.0076 10.0324 24.009 9.99997 24.009C9.96844 24.009 9.93745 24.0075 9.90598 24.0135C9.87546 24.0195 9.84798 24.0325 9.81897 24.0435C9.78698 24.056 9.75598 24.068 9.72645 24.0875C9.71843 24.093 9.70846 24.094 9.69997 24.1L5.69995 27.1C5.47893 27.2655 5.43446 27.579 5.59993 27.8C5.6979 27.9311 5.84842 28 6.00042 28C6.10442 28 6.20989 27.9675 6.29989 27.9L9.99991 25.125L13.6999 27.9C13.7899 27.9675 13.8955 28 13.9994 28C14.1514 28 14.3019 27.931 14.3999 27.8C14.5655 27.579 14.521 27.2655 14.3 27.1Z" fill="#121212"/>
</svg>
