<svg width="80" height="80" viewBox="0 0 80 80" fill="none" xmlns="http://www.w3.org/2000/svg">
<path d="M54 50H53V42.3213L53.1863 42.5813C53.2599 42.6945 53.3557 42.7917 53.4679 42.8669C53.5801 42.9421 53.7063 42.9938 53.8391 43.0189C53.9718 43.044 54.1082 43.0419 54.2401 43.0128C54.372 42.9837 54.4967 42.9282 54.6065 42.8496C54.7164 42.771 54.8092 42.671 54.8793 42.5555C54.9495 42.4401 54.9955 42.3116 55.0146 42.1779C55.0338 42.0442 55.0256 41.908 54.9907 41.7775C54.9557 41.647 54.8947 41.525 54.8113 41.4188L49.8113 34.4188C49.7427 34.3239 49.6581 34.2418 49.5613 34.1763L41.125 28.3463L41.1125 28.3375C40.7838 28.1182 40.3976 28.0012 40.0025 28.0012C39.6074 28.0012 39.2212 28.1182 38.8925 28.3375L38.88 28.3463L30.4313 34.1775C30.3344 34.2431 30.2498 34.3252 30.1813 34.42L25.1813 41.42C25.0978 41.5262 25.0368 41.6483 25.0018 41.7788C24.9669 41.9092 24.9587 42.0455 24.9779 42.1792C24.997 42.3129 25.043 42.4414 25.1132 42.5568C25.1833 42.6722 25.2761 42.7723 25.386 42.8509C25.4958 42.9295 25.6205 42.985 25.7524 43.0141C25.8843 43.0432 26.0207 43.0452 26.1534 43.0202C26.2862 42.9951 26.4124 42.9434 26.5246 42.8682C26.6368 42.7929 26.7326 42.6958 26.8063 42.5825L27 42.3213V50H26C25.7348 50 25.4804 50.1054 25.2929 50.2929C25.1054 50.4804 25 50.7348 25 51C25 51.2652 25.1054 51.5196 25.2929 51.7071C25.4804 51.8946 25.7348 52 26 52H54C54.2652 52 54.5196 51.8946 54.7071 51.7071C54.8946 51.5196 55 51.2652 55 51C55 50.7348 54.8946 50.4804 54.7071 50.2929C54.5196 50.1054 54.2652 50 54 50ZM29 39.5213L31.7125 35.7238L40 30L48.2875 35.7225L51 39.5213V50H48V41C48 40.7348 47.8946 40.4804 47.7071 40.2929C47.5196 40.1054 47.2652 40 47 40H33C32.7348 40 32.4804 40.1054 32.2929 40.2929C32.1054 40.4804 32 40.7348 32 41V50H29V39.5213ZM40 44.7713L36.125 42H43.875L40 44.7713ZM46 42.9438V49.0575L41.72 46L46 42.9438ZM38.28 46L34 49.0575V42.9438L38.28 46ZM40 47.2288L43.875 50H36.125L40 47.2288ZM37 37C37 36.7348 37.1054 36.4804 37.2929 36.2929C37.4804 36.1054 37.7348 36 38 36H42C42.2652 36 42.5196 36.1054 42.7071 36.2929C42.8946 36.4804 43 36.7348 43 37C43 37.2652 42.8946 37.5196 42.7071 37.7071C42.5196 37.8946 42.2652 38 42 38H38C37.7348 38 37.4804 37.8946 37.2929 37.7071C37.1054 37.5196 37 37.2652 37 37Z" fill="#121212"/>
<circle cx="40" cy="43" r="28" stroke="#121212" stroke-width="2"/>
<circle cx="40" cy="16" r="9.16667" fill="white" stroke="#121212" stroke-width="1.66667"/>
<path d="M37.3333 15.1111V20.4444H35.9111V12.6222H44.4444V20.4444H43.0222V15.1111C43.0222 14.9148 42.8629 14.7555 42.6667 14.7555H37.6889C37.4926 14.7555 37.3333 14.9148 37.3333 15.1111Z" stroke="#121212" stroke-width="0.8"/>
<path d="M34.8444 12.6222H45.5111" stroke="#121212" stroke-width="0.8" stroke-linejoin="round"/>
<path d="M34.8444 11.2H45.5111" stroke="#121212" stroke-width="0.8" stroke-linejoin="round"/>
<path d="M40.1778 16.6293C41.126 17.4482 41.6 18.2457 41.6 19.0215C41.6 19.8069 40.9632 20.4437 40.1778 20.4437C39.3924 20.4437 38.7556 19.7973 38.7556 19.0215C38.7556 18.2457 39.2295 17.4482 40.1778 16.6293Z" stroke="#121212" stroke-width="0.8"/>
<path d="M40.1778 18.9333C40.6197 18.9333 40.9778 19.2914 40.9778 19.7333C40.9778 20.1753 40.6197 20.5333 40.1778 20.5333C39.7358 20.5333 39.3778 20.1753 39.3778 19.7333C39.3778 19.2914 39.7358 18.9333 40.1778 18.9333Z" stroke="#121212" stroke-width="0.8" stroke-linejoin="round"/>
<circle cx="61" cy="65" r="9.16667" fill="white" stroke="#121212" stroke-width="1.66667"/>
<circle cx="20" cy="65" r="9.16667" fill="white" stroke="#121212" stroke-width="1.66667"/>
<g clip-path="url(#clip0_1978_18486)">
<path d="M31.845 78.2889C31.845 77.3204 31.845 76.3476 31.845 75.3481C31.845 74.3486 31.845 73.3218 31.845 72.2445C31.845 71.144 31.9915 69.7705 32.0648 68.5588C32.138 67.347 32.1377 66.2974 31.845 65.8445C31.8216 65.8085 31.5823 65.8085 31.3348 65.8174C31.0877 65.8263 30.8324 65.8445 30.7784 65.8445C29.317 65.8445 29.0721 65.2386 28.2895 64.7778C27.4607 64.2896 27.1695 64.0503 26.1561 64.0667C24.0651 64.1005 23.2281 65.8804 21.5339 65.8445C19.812 65.8082 18.4498 63.6603 16.9117 63.7111C15.5172 63.7573 14.2006 65.8363 12.645 65.8445C10.8025 65.8544 9.88521 63.7044 8.37836 64.4222C8.99241 69.181 7.48841 73.5646 8.37836 75.8C8.56325 76.2644 9.51934 76.7977 10.1561 77.2222C11.0543 77.8213 11.716 78.2917 12.645 78.2889C14.2845 78.2839 15.332 76.1349 17.2673 76.1556C18.6461 76.1701 20.2969 78.3273 21.8895 78.2889C23.796 78.2427 24.4328 76.0898 26.5117 76.1556C28.5259 76.2196 29.2569 78.9972 31.845 78.2889Z" stroke="#121212" stroke-width="0.711111"/>
<path d="M15.845 60.5111H24.3784C24.5746 60.5111 24.7339 60.6704 24.7339 60.8667V69.4C24.7339 69.5963 24.5746 69.7556 24.3784 69.7556H15.845C15.6488 69.7556 15.4895 69.5963 15.4895 69.4V60.8667C15.4895 60.6704 15.6488 60.5111 15.845 60.5111Z" stroke="#121212" stroke-width="0.711111"/>
<path d="M20.1117 62.2889C21.6825 62.2889 22.9561 63.5625 22.9561 65.1333C22.9561 66.7042 21.6825 67.9778 20.1117 67.9778C18.5409 67.9778 17.2673 66.7042 17.2673 65.1333C17.2673 63.5625 18.5409 62.2889 20.1117 62.2889Z" stroke="#121212" stroke-width="0.711111"/>
<path d="M16.9117 61.5778C17.108 61.5778 17.2673 61.7371 17.2673 61.9333C17.2673 62.1296 17.108 62.2889 16.9117 62.2889C16.7154 62.2889 16.5561 62.1296 16.5561 61.9333C16.5561 61.7371 16.7154 61.5778 16.9117 61.5778Z" fill="#121212"/>
</g>
<path d="M61.5333 62.4222C62.7116 62.4222 63.6667 63.3773 63.6667 64.5556V69.8889C63.6667 70.0852 63.5074 70.2445 63.3111 70.2445H59.7556C59.5593 70.2445 59.4 70.0852 59.4 69.8889V64.5556L59.4014 64.4756C59.4434 63.3346 60.382 62.4222 61.5333 62.4222Z" stroke="#3C3C3C" stroke-width="0.711111"/>
<path d="M58.3333 67.4H59.7556H58.3333Z" stroke="#3C3C3C" stroke-width="0.711111"/>
<path d="M61.5333 61V62.4222V61Z" stroke="#3C3C3C" stroke-width="0.711111"/>
<path d="M64.0222 61H61.5333C59.5696 61 57.9778 62.5918 57.9778 64.5556V69.1778" stroke="#3C3C3C" stroke-width="0.711111"/>
<path d="M61.5333 61L63.3111 59.5778L61.5333 61Z" stroke="#3C3C3C" stroke-width="0.711111"/>
<path d="M61.5333 61.7111C61.9262 61.7111 62.2444 61.3929 62.2444 61C62.2444 60.6071 61.9262 60.2889 61.5333 60.2889C61.1404 60.2889 60.8222 60.6071 60.8222 61C60.8222 61.3929 61.1404 61.7111 61.5333 61.7111Z" fill="white"/>
<path d="M61.5333 61.7111C61.9262 61.7111 62.2444 61.3929 62.2444 61C62.2444 60.6071 61.9262 60.2889 61.5333 60.2889C61.1404 60.2889 60.8222 60.6071 60.8222 61C60.8222 61.3929 61.1404 61.7111 61.5333 61.7111Z" stroke="#3C3C3C" stroke-width="0.711111"/>
<defs>
<clipPath id="clip0_1978_18486">
<rect width="16" height="16" fill="white" transform="translate(12 57)"/>
</clipPath>
</defs>
</svg>
