<svg width="30" height="30" viewBox="0 0 30 30" fill="none" xmlns="http://www.w3.org/2000/svg">
<path d="M10.9167 24.25C13.2083 24.25 15.0833 22.375 15.0833 20.0834C15.0833 17.7917 13.2083 15.9167 10.9167 15.9167C8.62505 15.9167 6.75003 17.7917 6.75003 20.0834C6.75003 22.375 8.625 24.25 10.9167 24.25ZM10.5 16.7772V17.1667C10.5 17.4167 10.6667 17.5833 10.9167 17.5833C11.1667 17.5833 11.3333 17.4167 11.3333 17.1667V16.7772C12.9717 16.984 14.25 18.3911 14.25 20.0833C14.25 21.7755 12.9717 23.1827 11.3333 23.3895V23C11.3333 22.75 11.1667 22.5833 10.9167 22.5833C10.6667 22.5833 10.5 22.75 10.5 23V23.3895C8.8616 23.1827 7.58337 21.7755 7.58337 20.0833C7.58337 18.3911 8.8616 16.984 10.5 16.7772Z" fill="black"/>
<path d="M9.66665 20.9167C10.125 20.9167 10.5 20.5417 10.5 20.0833C10.5 19.625 10.125 19.25 9.66665 19.25C9.20831 19.25 8.83331 19.625 8.83331 20.0833C8.83331 20.5417 9.20831 20.9167 9.66665 20.9167Z" fill="black"/>
<path d="M12.1667 20.9167C12.6251 20.9167 13.0001 20.5417 13.0001 20.0833C13.0001 19.625 12.6251 19.25 12.1667 19.25C11.7084 19.25 11.3334 19.625 11.3334 20.0833C11.3334 20.5417 11.7084 20.9167 12.1667 20.9167Z" fill="black"/>
<path d="M23.8334 12.1667H18C17.75 12.1667 17.5834 12.3333 17.5834 12.5833C17.5834 12.8333 17.75 13 18 13H23.8334C24.0833 13 24.25 12.8333 24.25 12.5833C24.25 12.3333 24.0833 12.1667 23.8334 12.1667Z" fill="black"/>
<path d="M23.8334 13.8333H18C17.75 13.8333 17.5834 14 17.5834 14.2499C17.5834 14.4999 17.75 14.6666 18 14.6666H23.8334C24.0833 14.6666 24.25 14.4999 24.25 14.2499C24.25 14 24.0833 13.8333 23.8334 13.8333Z" fill="black"/>
<path d="M27.5833 8.41667H26.3333V4.24998C26.3333 3.54164 25.7917 3 25.0833 3C24.375 3 23.8334 3.54164 23.8334 4.24998V8.41662H18V4.24998C18 3.54164 17.4583 3 16.75 3C16.0417 3 15.5 3.54164 15.5 4.24998V8.41662H14.25C14 8.41662 13.8334 8.58327 13.8334 8.83327V11.9583C13.8334 12.0278 13.8344 12.0972 13.8362 12.1666H5.50002C4.12498 12.1667 3 13.2917 3 14.6666V25.5C3 26.875 4.12498 28 5.50002 28H16.3334C17.6957 28 18.8119 26.8955 18.8729 25.5379C19.2122 25.7769 19.6286 25.9166 20.0834 25.9166H20.5V27.5833C20.5 27.8333 20.6667 28 20.9166 28C21.1666 28 21.3333 27.8333 21.3333 27.5833V25.9166H21.7499C22.9166 25.9166 23.8333 24.9999 23.8333 23.8333V22.7916C23.8333 20.875 24.5 19.0833 25.7916 17.6666C27.2083 16.125 27.9999 14.0833 27.9999 12V8.83332C28 8.58332 27.8333 8.41667 27.5833 8.41667ZM24.6666 4.24998C24.6666 3.99999 24.8333 3.83334 25.0833 3.83334C25.3333 3.83334 25.4999 3.99999 25.4999 4.24998V8.41662H24.6666V4.24998H24.6666ZM16.3333 4.24998C16.3333 3.99999 16.5 3.83334 16.75 3.83334C17 3.83334 17.1666 3.99999 17.1666 4.24998V8.41662H16.3333V4.24998ZM14.4911 15.2037C14.8619 16.1123 15.3784 16.9335 16.0417 17.6666C16.125 17.7916 16.25 17.9166 16.3333 18.0416V24.8749C16.3333 25.2083 16.0417 25.4999 15.7083 25.4999H6.12501C5.79166 25.4999 5.50002 25.2083 5.50002 24.8749V15.2917C5.50002 14.9583 5.79166 14.6667 6.12501 14.6667H14.2867C14.3487 14.8479 14.4168 15.027 14.4911 15.2037ZM18 25.5C18 26.4167 17.25 27.1667 16.3333 27.1667H5.50002C4.58333 27.1667 3.83334 26.4167 3.83334 25.5V14.6666C3.83334 13.75 4.58333 13 5.50002 13V12.9583H13.8944C13.9302 13.2528 13.9818 13.5449 14.0484 13.8333H6.12501C5.33332 13.8333 4.66668 14.5 4.66668 15.2916V24.8749C4.66668 25.6666 5.33337 26.3333 6.12501 26.3333H15.7083C16.5 26.3333 17.1667 25.6666 17.2083 24.8749V19.3702C17.7224 20.4191 18 21.5763 18 22.7499V23.8333V25.5ZM27.1667 11.9583C27.1667 13.875 26.5 15.6667 25.2083 17.0833C23.7917 18.625 23 20.6667 23 22.75V23.8333C23 24.5416 22.4584 25.0833 21.75 25.0833H20.0834C19.4903 25.0833 19.0143 24.7035 18.875 24.1642V22.75C18.875 20.906 18.2544 19.0949 17.1295 17.634C17.128 17.631 17.1265 17.628 17.125 17.625C16.9584 17.4166 16.8334 17.25 16.6667 17.0834C16.6227 17.0345 16.5794 16.9848 16.5366 16.9345C16.5299 16.9267 16.5234 16.9189 16.5168 16.9111C15.9822 16.2782 15.541 15.5389 15.2259 14.7592C15.2163 14.735 15.2065 14.7109 15.1971 14.6866C15.1943 14.6796 15.1917 14.6726 15.1891 14.6657C14.9276 13.9839 14.7627 13.2667 14.7083 12.5417C14.7083 12.4945 14.6972 12.4497 14.6783 12.4083C14.6709 12.2725 14.6667 12.1364 14.6667 12V9.25001H15.9167H17.5833H24.25H25.9167H27.1667V11.9583Z" fill="black"/>
</svg>
