<svg width="30" height="30" viewBox="0 0 30 30" fill="none" xmlns="http://www.w3.org/2000/svg">
<path d="M9.84986 17.5688H9.83611V15.8604C9.83611 14.9628 9.10593 14.2325 8.2084 14.2325H7.1045C6.2069 14.2325 5.47666 14.9628 5.47666 15.8604V17.5688H5.46285C4.65625 17.5688 4 18.2251 4 19.0317V26.5372C4 27.3437 4.65625 28 5.46285 28H9.84992C10.6565 28 11.3127 27.3437 11.3127 26.5372V19.0317C11.3126 18.2251 10.6565 17.5688 9.84986 17.5688ZM6.49986 15.8604C6.49986 15.5269 6.77107 15.2557 7.1045 15.2557H8.20847C8.54183 15.2557 8.81298 15.5269 8.81298 15.8604V17.5688H6.49986V15.8604ZM10.2895 26.5372C10.2895 26.7755 10.0881 26.9768 9.84986 26.9768H5.46285C5.22451 26.9768 5.02319 26.7755 5.02319 26.5372V19.0317C5.02319 18.7893 5.22042 18.592 5.46285 18.592H9.84992C10.0882 18.592 10.2895 18.7934 10.2895 19.0317V26.5372H10.2895ZM22.1395 3.67802V4.33453H25.787C26.0695 4.33453 26.2985 4.5636 26.2985 4.84612C26.2985 5.12865 26.0695 5.35772 25.787 5.35772H21.6279C21.3453 5.35772 21.1163 5.12865 21.1163 4.84612V3.16642C21.1163 2.88389 21.3453 2.65483 21.6279 2.65483H25.787C26.0695 2.65483 26.2985 2.88389 26.2985 3.16642C26.2985 3.44895 26.0695 3.67802 25.787 3.67802H22.1395ZM25.4781 16.3653C25.575 16.4705 25.6234 16.6115 25.6117 16.7539L24.7238 27.5304C24.7019 27.7957 24.4802 28 24.2139 28H18.9296C18.647 28 18.418 27.7709 18.418 27.4884C18.418 27.2059 18.647 26.9768 18.9296 26.9768H23.7427L24.5463 17.2235H18.9296C18.647 17.2235 18.418 16.9945 18.418 16.7119C18.418 16.4294 18.647 16.2003 18.9296 16.2003H25.1018C25.2449 16.2003 25.3813 16.2602 25.4781 16.3653ZM19.4613 14.8038V2.33904C19.4613 1.60074 20.062 1 20.8005 1H25.787C26.0695 1 26.2986 1.22907 26.2986 1.5116C26.2986 1.79413 26.0695 2.02319 25.787 2.02319H20.8005C20.6262 2.02319 20.4846 2.16491 20.4846 2.33904V14.8038C20.4846 15.0863 20.2555 15.3154 19.973 15.3154C19.6904 15.3154 19.4613 15.0863 19.4613 14.8038ZM22.1395 7.01261V7.66906H25.787C26.0695 7.66906 26.2985 7.89812 26.2985 8.18065C26.2985 8.46318 26.0695 8.69225 25.787 8.69225H21.6279C21.3453 8.69225 21.1163 8.46318 21.1163 8.18065V6.50101C21.1163 6.21848 21.3453 5.98942 21.6279 5.98942H25.787C26.0695 5.98942 26.2985 6.21848 26.2985 6.50101C26.2985 6.78354 26.0695 7.01261 25.787 7.01261H22.1395ZM16.0124 9.32388H15.1594V7.0442C15.1594 6.29733 14.7296 5.64895 14.1045 5.33336V3.55588C14.1045 3.27335 13.8754 3.04428 13.5929 3.04428H13.0619V1.52547C13.0621 1.52093 13.0621 1.5162 13.0621 1.5116C13.0621 1.22907 12.833 1 12.5505 1H7.73946C7.24685 1 6.84608 1.40084 6.84608 1.89344V2.93704C6.84608 3.21956 7.07515 3.44863 7.35768 3.44863C7.64021 3.44863 7.86928 3.21956 7.86928 2.93704V2.02319H12.0387V3.04428H11.5079C11.2254 3.04428 10.9963 3.27335 10.9963 3.55588V5.33336C10.3711 5.64901 9.94137 6.29733 9.94137 7.0442V9.32388H9.08828C8.28175 9.32388 7.62556 9.98007 7.62556 10.7867V12.4999C7.62556 12.7825 7.85463 13.0115 8.13716 13.0115C8.41969 13.0115 8.64876 12.7825 8.64876 12.4999V10.7867C8.64876 10.5443 8.84592 10.3471 9.08828 10.3471H16.0123C16.2547 10.3471 16.4519 10.5443 16.4519 10.7867V26.5372C16.4519 26.7796 16.2547 26.9768 16.0123 26.9768H12.4884C12.2059 26.9768 11.9768 27.2059 11.9768 27.4884C11.9768 27.7709 12.2059 28 12.4884 28H16.0123C16.8188 28 17.4751 27.3437 17.4751 26.5372V10.7867C17.4752 9.98007 16.819 9.32388 16.0124 9.32388ZM12.0195 4.06747H13.0813V5.12917H12.0195V4.06747ZM14.1362 9.32388H10.9646V7.0442C10.9646 6.55243 11.3647 6.15236 11.8565 6.15236H13.2444C13.7361 6.15236 14.1362 6.55243 14.1362 7.0442L14.1362 9.32388ZM26.2985 9.83554C26.2985 10.1181 26.0695 10.3471 25.787 10.3471H22.1395V14.8038C22.1395 15.0863 21.9104 15.3154 21.6279 15.3154C21.3453 15.3154 21.1163 15.0863 21.1163 14.8038V9.83554C21.1163 9.55301 21.3453 9.32394 21.6279 9.32394H25.787C26.0695 9.32394 26.2985 9.55301 26.2985 9.83554Z" fill="black"/>
</svg>
