<svg width="30" height="30" viewBox="0 0 30 30" fill="none" xmlns="http://www.w3.org/2000/svg">
<g clip-path="url(#clip0_2493_12997)">
<path d="M7.81887 15.7613H1.01555V7.12998C1.01555 6.84955 0.788203 6.62221 0.507773 6.62221C0.227344 6.62221 0 6.84961 0 7.12998V16.269C0 16.5495 0.227344 16.7768 0.507773 16.7768H0.660117V22.87C0.660117 23.1504 0.887461 23.3777 1.16789 23.3777C1.44832 23.3777 1.67566 23.1504 1.67566 22.87V19.0617H6.65109V22.87C6.65109 23.1504 6.87844 23.3777 7.15887 23.3777C7.4393 23.3777 7.66664 23.1504 7.66664 22.87V16.7768H7.81898C8.09941 16.7768 8.32676 16.5495 8.32676 16.269C8.32664 15.9887 8.0993 15.7613 7.81887 15.7613ZM6.65103 18.0462H1.67561V16.7768H6.65103V18.0462Z" fill="#121212"/>
<path d="M29.4922 6.62227C29.2118 6.62227 28.9845 6.84961 28.9845 7.13004V15.7613H22.1804C21.9 15.7613 21.6727 15.9887 21.6727 16.2691C21.6727 16.5495 21.9 16.7769 22.1804 16.7769H22.3328V22.87C22.3328 23.1505 22.5601 23.3778 22.8406 23.3778C23.121 23.3778 23.3483 23.1505 23.3483 22.87V19.0618H28.3244V22.87C28.3244 23.1505 28.5517 23.3778 28.8322 23.3778C29.1127 23.3778 29.34 23.1505 29.34 22.87V16.7769H29.4923C29.7728 16.7769 30.0001 16.5495 30.0001 16.2691V7.12998C30 6.84961 29.7727 6.62227 29.4922 6.62227ZM28.3244 18.0462H23.3483V16.7768H28.3244V18.0462Z" fill="#121212"/>
<path d="M23.7101 10.9208H22.7851H17.2683L15.4539 7.29193C15.3678 7.1199 15.1921 7.01127 14.9998 7.01127C14.8074 7.01127 14.6316 7.1199 14.5456 7.29193L12.7311 10.9208H7.21441H6.28945C6.00902 10.9208 5.78168 11.1482 5.78168 11.4286C5.78168 11.709 6.00902 11.9364 6.28945 11.9364H6.70664V13.4596C6.70664 13.74 6.93398 13.9673 7.21441 13.9673H8.92383V22.8697C8.92383 23.1501 9.15117 23.3774 9.4316 23.3774C9.71203 23.3774 9.93937 23.1501 9.93937 22.8697V13.9673H17.3019C17.5824 13.9673 17.8097 13.74 17.8097 13.4596C17.8097 13.1791 17.5824 12.9518 17.3019 12.9518H7.72219V11.9364H22.2773V12.9518H19.1298C18.8493 12.9518 18.622 13.1791 18.622 13.4596C18.622 13.74 18.8493 13.9673 19.1298 13.9673H20.0602V22.8697C20.0602 23.1501 20.2875 23.3774 20.568 23.3774C20.8485 23.3774 21.0758 23.1501 21.0758 22.8697V13.9673H22.7851C23.0656 13.9673 23.2929 13.74 23.2929 13.4596V11.9364H23.7101C23.9906 11.9364 24.2179 11.709 24.2179 11.4286C24.2179 11.1482 23.9906 10.9208 23.7101 10.9208ZM13.8666 10.9209L14.9998 8.65441L16.133 10.9209H13.8666Z" fill="#121212"/>
</g>
<defs>
<clipPath id="clip0_2493_12997">
<rect width="30" height="30" fill="white"/>
</clipPath>
</defs>
</svg>
