<svg width="16" height="16" viewBox="0 0 16 16" fill="none" xmlns="http://www.w3.org/2000/svg">
<g id="double-bed" clip-path="url(#clip0_1175_2982)">
<path id="XMLID 874" d="M15.2189 8.0208V7.71608C15.2189 7.15473 14.9283 6.66026 14.4898 6.37433V3.05033C14.4898 2.17576 13.7783 1.46426 12.9038 1.46426H3.09622C2.22166 1.46426 1.51013 2.17576 1.51013 3.05033V6.3743C1.07169 6.66023 0.781062 7.1547 0.781062 7.71605V8.02076C0.332125 8.13898 0 8.54836 0 9.03392V12.5994C0 13.1604 0.443188 13.6196 0.997781 13.6457V14.0677C0.997781 14.3261 1.20725 14.5355 1.46563 14.5355C1.724 14.5355 1.93347 14.3261 1.93347 14.0677V13.647H14.0665V14.0677C14.0665 14.3261 14.276 14.5355 14.5343 14.5355C14.7927 14.5355 15.0022 14.3261 15.0022 14.0677V13.6457C15.5568 13.6196 16 13.1603 16 12.5994V9.03392C16 8.54833 15.6679 8.13898 15.2189 8.0208ZM2.44584 3.05033C2.44584 2.6917 2.73759 2.39995 3.09622 2.39995H12.9038C13.2624 2.39995 13.5542 2.6917 13.5542 3.05033V6.11492H12.9303V5.2903C12.9303 4.71311 12.4608 4.24351 11.8836 4.24351H9.36613C8.78894 4.24351 8.31934 4.71311 8.31934 5.2903V6.11492H7.68066V5.2903C7.68066 4.71311 7.21106 4.24351 6.63387 4.24351H4.11644C3.53922 4.24351 3.06966 4.71311 3.06966 5.2903V6.11492H2.44584V3.05033ZM11.9946 5.29026V6.00383C11.9946 6.06508 11.9448 6.11489 11.8836 6.11489H9.36613C9.30488 6.11489 9.25506 6.06505 9.25506 6.00383V5.29026C9.25506 5.22901 9.30491 5.1792 9.36613 5.1792H11.8836C11.9448 5.1792 11.9946 5.22901 11.9946 5.29026ZM6.74494 5.29026V6.00383C6.74494 6.06508 6.69509 6.11489 6.63387 6.11489H4.11644C4.05519 6.11489 4.00537 6.06505 4.00537 6.00383V5.29026C4.00537 5.22901 4.05522 5.1792 4.11644 5.1792H6.63387C6.69509 5.1792 6.74494 5.22901 6.74494 5.29026ZM1.71678 7.71605C1.71678 7.34911 2.01531 7.05061 2.38225 7.05061H13.6178C13.9847 7.05061 14.2832 7.34914 14.2832 7.71605V7.9863H1.71678V7.71605ZM15.0643 12.5994C15.0643 12.6611 15.0141 12.7113 14.9524 12.7113H1.04759C0.985906 12.7113 0.935687 12.6611 0.935687 12.5994V9.03392C0.935687 8.97223 0.985875 8.92205 1.04759 8.92205H14.9524C15.0141 8.92205 15.0643 8.97223 15.0643 9.03392V12.5994H15.0643Z" fill="#434E58"/>
</g>
<defs>
<clipPath id="clip0_1175_2982">
<rect width="16" height="16" fill="white"/>
</clipPath>
</defs>
</svg>
