<svg width="24" height="24" viewBox="0 0 24 24" fill="none" xmlns="http://www.w3.org/2000/svg">
<path d="M4 21C4 20.4477 4.44772 20 5 20H19C19.5523 20 20 20.4477 20 21C20 21.5523 19.5523 22 19 22H5C4.44772 22 4 21.5523 4 21Z" fill="#931602"/>
<path fill-rule="evenodd" clip-rule="evenodd" d="M16.6543 4.58835C15.8733 3.8073 14.607 3.8073 13.8259 4.58835L6.91982 11.4944L6.00201 15.9981L10.5056 15.0802L17.4117 8.17414C18.1927 7.39309 18.1927 6.12675 17.4117 5.3457L16.6543 4.58835ZM12.4117 3.17413C13.9738 1.61204 16.5065 1.61204 18.0685 3.17413L18.8259 3.93149C20.388 5.49359 20.388 8.02626 18.8259 9.58835L11.9198 16.4944C11.6424 16.7718 11.2895 16.9615 10.905 17.0399L6.40144 17.9578C4.99689 18.2441 3.75606 17.0033 4.04229 15.5987L4.9601 11.095C5.03845 10.7106 5.22816 10.3576 5.50561 10.0802L12.4117 3.17413Z" fill="#931602"/>
</svg>
