<svg width="28" height="28" viewBox="0 0 28 28" fill="none" xmlns="http://www.w3.org/2000/svg">
<rect x="1.89996" y="1.89999" width="24.2" height="24.2" rx="12.1" stroke="#121212"/>
<rect x="0.5" y="0.5" width="27" height="27" rx="2.5" stroke="#121212"/>
<rect x="3.25" y="3.25" width="21.5" height="21.5" rx="10.75" stroke="black" stroke-width="0.5"/>
<path d="M9.71583 20.321C9.13234 20.321 8.61369 20.0617 8.22469 19.6727C7.77087 19.2189 7.38187 18.7002 7.05771 18.1167C6.79839 17.5981 6.53906 17.0794 6.40939 16.5607C6.2149 15.9772 6.27973 15.3289 6.60389 14.8751C6.86322 14.4213 7.31704 14.0971 7.77087 13.9674C8.48402 13.773 9.13234 13.6433 9.78066 13.4488L10.9476 13.1246C11.0773 12.8005 11.2718 12.4763 11.5311 12.1521L10.6235 8.97537C10.4938 8.45671 10.5587 7.93805 10.818 7.48423C11.0773 7.0304 11.596 6.64141 12.1146 6.51174C12.6981 6.38208 13.3464 6.25242 14.0596 6.31725C14.6431 6.31725 15.2266 6.38208 15.7452 6.51174C16.3287 6.64141 16.8474 7.0304 17.1067 7.48423C17.366 7.93805 17.4309 8.45671 17.3012 8.97537L16.3935 12.1521C16.6529 12.4115 16.8474 12.7356 16.977 13.1246L20.1538 13.9674C20.6725 14.0971 21.1263 14.4213 21.3856 14.8751C21.645 15.3938 21.7098 15.9124 21.5801 16.4959C21.3856 17.1442 21.1263 17.7277 20.8021 18.2464C20.478 18.765 20.1538 19.2189 19.7648 19.6079C19.3758 20.0617 18.7923 20.321 18.2088 20.321C18.2088 20.321 18.2088 20.321 18.144 20.321C17.6254 20.321 17.1067 20.1265 16.7825 19.7375L14.4486 17.3387C14.1244 17.4036 13.7354 17.4036 13.4113 17.3387L11.0773 19.7375C10.7531 20.1265 10.2345 20.321 9.71583 20.321ZM10.7531 14.4213L10.1048 14.6158C9.4565 14.8103 8.74335 14.9399 8.09503 15.1344C7.90053 15.1993 7.77087 15.3289 7.70604 15.4586C7.57637 15.6531 7.57637 15.9124 7.6412 16.1717C7.77087 16.6256 7.96536 17.0794 8.22469 17.4684C8.48402 17.9222 8.80818 18.376 9.19718 18.765C9.39167 18.9595 9.58617 19.0244 9.78066 19.0244C9.91033 19.0244 10.1048 18.9595 10.2345 18.8299L12.2443 16.8201C11.4015 16.3014 10.8828 15.4586 10.7531 14.4213ZM15.8101 16.8201L17.755 18.8299C17.8847 18.9595 18.0792 19.0244 18.2088 19.0244C18.4033 19.0244 18.6627 18.8947 18.8572 18.7002C19.1813 18.376 19.5055 17.987 19.7 17.5332C19.9593 17.0794 20.1538 16.5607 20.3483 16.0421C20.4131 15.8476 20.4131 15.5883 20.2835 15.3938C20.2186 15.2641 20.0241 15.1344 19.8945 15.0696L17.2364 14.4213C17.1067 15.4586 16.588 16.3014 15.8101 16.8201ZM13.9948 12.217C12.8926 12.217 12.0498 13.0598 12.0498 14.1619C12.0498 15.2641 12.8926 16.1069 13.9948 16.1069C15.0969 16.1069 15.9397 15.2641 15.9397 14.1619C15.9397 13.0598 15.0969 12.217 13.9948 12.217ZM13.9948 7.48423C13.4761 7.48423 12.9574 7.54906 12.4388 7.67872C12.1795 7.74356 12.0498 7.87322 11.9201 8.06772C11.8553 8.19738 11.7905 8.39188 11.8553 8.58637L12.5684 11.2445C13.4113 10.8555 14.5134 10.8555 15.3562 11.2445L16.0694 8.58637C16.1342 8.39188 16.0694 8.19738 16.0046 8.06772C15.9397 7.87322 15.7452 7.74356 15.4859 7.67872C15.0321 7.54906 14.5782 7.48423 14.0596 7.48423H13.9948Z" fill="#121212"/>
</svg>
