<svg width="30" height="28" viewBox="0 0 30 28" fill="none" xmlns="http://www.w3.org/2000/svg">
<path d="M6.75 27.5C5.625 27.5 4.625 27 3.875 26.25C3 25.375 2.25 24.375 1.625 23.25C1.125 22.25 0.625 21.25 0.375 20.25C-1.49012e-08 19.125 0.125 17.875 0.75 17C1.25 16.125 2.125 15.5 3 15.25C4.375 14.875 5.625 14.625 6.875 14.25L9.125 13.625C9.375 13 9.75 12.375 10.25 11.75L8.5 5.625C8.25 4.625 8.375 3.625 8.875 2.75C9.375 1.875 10.375 1.125 11.375 0.874999C12.5 0.624999 13.75 0.374999 15.125 0.499999C16.25 0.499999 17.375 0.624999 18.375 0.874999C19.5 1.125 20.5 1.875 21 2.75C21.5 3.625 21.625 4.625 21.375 5.625L19.625 11.75C20.125 12.25 20.5 12.875 20.75 13.625L26.875 15.25C27.875 15.5 28.75 16.125 29.25 17C29.75 18 29.875 19 29.625 20.125C29.25 21.375 28.75 22.5 28.125 23.5C27.5 24.5 26.875 25.375 26.125 26.125C25.375 27 24.25 27.5 23.125 27.5C23.125 27.5 23.125 27.5 23 27.5C22 27.5 21 27.125 20.375 26.375L15.875 21.75C15.25 21.875 14.5 21.875 13.875 21.75L9.375 26.375C8.75 27.125 7.75 27.5 6.75 27.5ZM8.75 16.125L7.5 16.5C6.25 16.875 4.875 17.125 3.625 17.5C3.25 17.625 3 17.875 2.875 18.125C2.625 18.5 2.625 19 2.75 19.5C3 20.375 3.375 21.25 3.875 22C4.375 22.875 5 23.75 5.75 24.5C6.125 24.875 6.5 25 6.875 25C7.125 25 7.5 24.875 7.75 24.625L11.625 20.75C10 19.75 9 18.125 8.75 16.125ZM18.5 20.75L22.25 24.625C22.5 24.875 22.875 25 23.125 25C23.5 25 24 24.75 24.375 24.375C25 23.75 25.625 23 26 22.125C26.5 21.25 26.875 20.25 27.25 19.25C27.375 18.875 27.375 18.375 27.125 18C27 17.75 26.625 17.5 26.375 17.375L21.25 16.125C21 18.125 20 19.75 18.5 20.75ZM15 11.875C12.875 11.875 11.25 13.5 11.25 15.625C11.25 17.75 12.875 19.375 15 19.375C17.125 19.375 18.75 17.75 18.75 15.625C18.75 13.5 17.125 11.875 15 11.875ZM15 2.75C14 2.75 13 2.875 12 3.125C11.5 3.25 11.25 3.5 11 3.875C10.875 4.125 10.75 4.5 10.875 4.875L12.25 10C13.875 9.25 16 9.25 17.625 10L19 4.875C19.125 4.5 19 4.125 18.875 3.875C18.75 3.5 18.375 3.25 17.875 3.125C17 2.875 16.125 2.75 15.125 2.75H15Z" fill="#121212"/>
</svg>
