<svg width="26" height="30" viewBox="0 0 26 30" fill="none" xmlns="http://www.w3.org/2000/svg">
<path fill-rule="evenodd" clip-rule="evenodd" d="M13.4688 28.125C7.51375 28.125 2.6875 23.1009 2.6875 17.4609C2.6875 16.1513 2.71656 15.0881 3.625 14.0625C3.52656 14.6569 4.93468 19.7391 9.53593 19.4728C9.33624 15.6112 8.29188 6.15094 13.1425 2.88094C12.7141 8.02219 13.9731 14.9288 19.5897 15.9375C19.2681 13.8759 19.3066 10.4466 20.7503 9.81282C20.9059 12.9713 23.2413 14.9194 23.2413 17.955C23.2413 23.4525 17.9228 28.125 13.4688 28.125ZM22.2859 6.51844C18.175 7.69032 17.4222 11.0138 17.6875 13.125C14.755 9.67688 14.875 5.71219 14.875 0C5.47 3.54656 7.65719 13.77 7.375 16.875C5.00969 14.9391 4.5625 10.3125 4.5625 10.3125C2.065 11.5978 0.8125 15.0291 0.8125 17.8125C0.8125 24.5438 6.26875 30 13 30C19.7313 30 25.1875 24.5438 25.1875 17.8125C25.1875 13.8122 22.2503 11.9672 22.2859 6.51844Z" fill="#121212"/>
</svg>
