<svg width="28" height="28" viewBox="0 0 28 28" fill="none" xmlns="http://www.w3.org/2000/svg">
<path d="M24.2309 21.1875C24.7486 21.1875 25.1684 20.7677 25.1684 20.25C25.1684 19.7322 24.7486 19.3125 24.2309 19.3125V21.1875ZM15.8501 25.5789C15.6865 26.0701 15.9521 26.6009 16.4434 26.7645C16.9346 26.928 17.4655 26.6624 17.6291 26.1711L15.8501 25.5789ZM3.99711 19.3125C3.47935 19.3125 3.05961 19.7322 3.05961 20.25C3.05961 20.7677 3.47935 21.1875 3.99711 21.1875V19.3125ZM10.599 26.1711C10.7625 26.6624 11.2934 26.928 11.7846 26.7645C12.2759 26.6009 12.5415 26.0701 12.378 25.5789L10.599 26.1711ZM5.945 5.82427C5.81112 5.3241 5.29715 5.02716 4.79699 5.16102C4.29682 5.29489 3.99987 5.80886 4.13374 6.30904L5.945 5.82427ZM1.03424 13.9849C0.602313 14.2704 0.483613 14.852 0.769125 15.2839C1.05465 15.7159 1.63625 15.8345 2.06817 15.549L1.03424 13.9849ZM23.9175 6.30915C24.0514 5.80899 23.7544 5.295 23.2542 5.16114C22.7541 5.02727 22.2401 5.32422 22.1062 5.82439L23.9175 6.30915ZM25.983 15.5491C26.415 15.8346 26.9966 15.716 27.2821 15.284C27.5676 14.8521 27.4489 14.2705 27.017 13.985L25.983 15.5491ZM19.1129 3.79529C19.536 3.49687 19.637 2.91195 19.3386 2.48884C19.0402 2.06571 18.4552 1.96462 18.0321 2.26305L19.1129 3.79529ZM9.76924 1.99574C9.35266 1.68824 8.76569 1.77666 8.4582 2.19324C8.1507 2.6098 8.23912 3.19677 8.6557 3.50426L9.76924 1.99574ZM25.5336 14C25.5336 20.3869 20.3624 25.5625 13.9856 25.5625V27.4375C21.4 27.4375 27.4086 21.4202 27.4086 14H25.5336ZM13.9856 25.5625C7.60876 25.5625 2.4375 20.3869 2.4375 14H0.5625C0.5625 21.4202 6.57119 27.4375 13.9856 27.4375V25.5625ZM2.4375 14C2.4375 7.61319 7.60876 2.4375 13.9856 2.4375V0.5625C6.57119 0.5625 0.5625 6.5797 0.5625 14H2.4375ZM13.9856 2.4375C20.3624 2.4375 25.5336 7.61319 25.5336 14H27.4086C27.4086 6.5797 21.4 0.5625 13.9856 0.5625V2.4375ZM14.174 11.5744L16.4696 13.3301L17.6087 11.8407L15.313 10.085L14.174 11.5744ZM16.5782 13.6712L15.6766 16.5925L17.4682 17.1455L18.3699 14.2242L16.5782 13.6712ZM15.3795 16.8125H12.5916V18.6875H15.3795V16.8125ZM12.2945 16.5925L11.3928 13.6712L9.60122 14.2242L10.5029 17.1455L12.2945 16.5925ZM11.5015 13.3301L13.7971 11.5744L12.6581 10.085L10.3624 11.8407L11.5015 13.3301ZM24.2309 19.3125H22.212V21.1875H24.2309V19.3125ZM16.5846 23.3727L15.8501 25.5789L17.6291 26.1711L18.3636 23.965L16.5846 23.3727ZM22.212 19.3125C21.365 19.3125 20.6509 19.3111 20.0694 19.3775C19.4639 19.4467 18.908 19.5976 18.4035 19.9616L19.5007 21.4821C19.6501 21.3742 19.8557 21.2891 20.2822 21.2404C20.7329 21.1889 21.3217 21.1875 22.212 21.1875V19.3125ZM18.3636 23.965C18.6451 23.1195 18.8327 22.5605 19.0241 22.1486C19.2054 21.7586 19.3511 21.59 19.5007 21.4821L18.4035 19.9616C17.8991 20.3256 17.5806 20.8055 17.3237 21.3585C17.0769 21.8896 16.8525 22.5681 16.5846 23.3727L18.3636 23.965ZM3.99711 21.1875H6.01599V19.3125H3.99711V21.1875ZM9.86442 23.965L10.599 26.1711L12.378 25.5789L11.6434 23.3727L9.86442 23.965ZM6.01599 21.1875C6.90625 21.1875 7.49514 21.1889 7.94572 21.2404C8.3723 21.2891 8.57785 21.3742 8.72731 21.4821L9.82447 19.9616C9.31997 19.5976 8.76421 19.4467 8.15865 19.3775C7.5771 19.3111 6.86301 19.3125 6.01599 19.3125V21.1875ZM11.6434 23.3727C11.3755 22.5681 11.1511 21.8896 10.9043 21.3585C10.6474 20.8056 10.3289 20.3256 9.82447 19.9616L8.72731 21.4821C8.87685 21.59 9.02269 21.7586 9.20392 22.1486C9.3953 22.5605 9.58292 23.1195 9.86442 23.965L11.6434 23.3727ZM4.13374 6.30904L4.65626 8.26136L6.46751 7.7766L5.945 5.82427L4.13374 6.30904ZM2.97264 12.7035L1.03424 13.9849L2.06817 15.549L4.00657 14.2677L2.97264 12.7035ZM4.65626 8.26136C4.88666 9.12221 5.03776 9.69226 5.10472 10.1416C5.16815 10.567 5.13925 10.7884 5.0737 10.9613L6.82695 11.6259C7.04744 11.0443 7.04915 10.4683 6.95925 9.86514C6.87289 9.28577 6.68676 8.59579 6.46751 7.7766L4.65626 8.26136ZM4.00657 14.2677C4.71346 13.8005 5.31009 13.4077 5.75875 13.0315C6.22592 12.6399 6.60645 12.2076 6.82695 11.6259L5.0737 10.9613C5.00817 11.1341 4.88324 11.3187 4.55401 11.5949C4.20626 11.8864 3.71555 12.2125 2.97264 12.7035L4.00657 14.2677ZM22.1062 5.82439L21.5837 7.77671L23.395 8.26147L23.9175 6.30915L22.1062 5.82439ZM24.0446 14.2679L25.983 15.5491L27.017 13.985L25.0786 12.7036L24.0446 14.2679ZM21.5837 7.77671C21.3645 8.5959 21.1784 9.28589 21.092 9.86525C21.0021 10.4684 21.0037 11.0444 21.2242 11.626L22.9775 10.9614C22.912 10.7885 22.8831 10.5671 22.9465 10.1417C23.0135 9.69237 23.1645 9.12234 23.395 8.26147L21.5837 7.77671ZM25.0786 12.7036C24.3356 12.2126 23.845 11.8865 23.4972 11.5949C23.168 11.3189 23.043 11.1342 22.9775 10.9614L21.2242 11.626C21.4447 12.2077 21.8252 12.64 22.2925 13.0316C22.7411 13.4079 23.3377 13.8006 24.0446 14.2679L25.0786 12.7036ZM18.0321 2.26305L16.3817 3.42707L17.4624 4.95932L19.1129 3.79529L18.0321 2.26305ZM11.6387 3.37576L9.76924 1.99574L8.6557 3.50426L10.5253 4.8843L11.6387 3.37576ZM16.3817 3.42707C15.6539 3.94037 15.1716 4.27879 14.7736 4.49651C14.3967 4.70267 14.1797 4.75156 13.9957 4.74956L13.9754 6.62446C14.5975 6.63119 15.1386 6.43401 15.6734 6.1415C16.187 5.86056 16.7699 5.44771 17.4624 4.95932L16.3817 3.42707ZM10.5253 4.8843C11.207 5.38755 11.7809 5.81291 12.2882 6.10489C12.8166 6.4089 13.3534 6.61772 13.9754 6.62446L13.9957 4.74956C13.8117 4.74757 13.5959 4.694 13.2235 4.47974C12.8302 4.25345 12.3554 3.90469 11.6387 3.37576L10.5253 4.8843ZM16.4696 13.3301C16.5224 13.3704 16.5594 13.4249 16.5784 13.4862L18.3699 12.9331C18.2389 12.5087 17.9785 12.1236 17.6087 11.8407L16.4696 13.3301ZM16.5784 13.4862C16.5966 13.5455 16.5974 13.6095 16.5782 13.6712L18.3699 14.2242C18.5029 13.7936 18.4967 13.3442 18.3699 12.9331L16.5784 13.4862ZM21.7422 10.4275L17.1154 12.3435L17.8327 14.0759L22.4596 12.1599L21.7422 10.4275ZM15.313 10.085C14.9214 9.78547 14.453 9.63551 13.9856 9.63551V11.5105C14.0524 11.5105 14.1181 11.5316 14.174 11.5744L15.313 10.085ZM13.9856 9.63551C13.5182 9.63551 13.0497 9.78547 12.6581 10.085L13.7971 11.5744C13.853 11.5316 13.9187 11.5105 13.9856 11.5105V9.63551ZM14.9231 10.573V5.68701H13.0481V10.573H14.9231ZM15.6766 16.5925C15.6574 16.6551 15.6202 16.7075 15.5715 16.7459L16.7315 18.219C17.0719 17.951 17.3339 17.5807 17.4682 17.1455L15.6766 16.5925ZM15.5715 16.7459C15.5175 16.7885 15.4509 16.8125 15.3795 16.8125V18.6875C15.8829 18.6875 16.3557 18.5149 16.7315 18.219L15.5715 16.7459ZM19.6614 20.1087L16.8607 16.8692L15.4422 18.0956L18.243 21.335L19.6614 20.1087ZM12.5916 16.8125C12.5202 16.8125 12.4536 16.7885 12.3996 16.7459L11.2396 18.219C11.6154 18.5149 12.0882 18.6875 12.5916 18.6875V16.8125ZM12.3996 16.7459C12.3509 16.7075 12.3137 16.6551 12.2945 16.5925L10.5029 17.1455C10.6372 17.5807 10.8993 17.951 11.2396 18.219L12.3996 16.7459ZM10.0132 21.3009L12.557 18.0615L11.0823 16.9035L8.53855 20.1429L10.0132 21.3009ZM11.3928 13.6712C11.3737 13.6095 11.3745 13.5455 11.3928 13.4862L9.60124 12.9331C9.47436 13.3442 9.46831 13.7936 9.60122 14.2242L11.3928 13.6712ZM11.3928 13.4862C11.4117 13.4249 11.4488 13.3704 11.5015 13.3301L10.3624 11.8407C9.99265 12.1236 9.73224 12.5087 9.60124 12.9331L11.3928 13.4862ZM10.8611 12.3457L6.31441 10.4297L5.58625 12.1575L10.1329 14.0736L10.8611 12.3457Z" fill="#121212"/>
</svg>
