<svg width="30" height="30" viewBox="0 0 30 30" fill="none" xmlns="http://www.w3.org/2000/svg">
<path d="M6.00001 0C5.01329 0 4.20001 0.813281 4.20001 1.8V11.2125C4.16486 11.3297 4.16486 11.4516 4.20001 11.5688V26.4C4.20001 27.3867 5.01329 28.2 6.00001 28.2V28.8C6.00001 29.4563 6.54376 30 7.20001 30H9.00001C9.65626 30 10.2 29.4563 10.2 28.8V28.2H19.8V28.8C19.8 29.4563 20.3438 30 21 30H22.8C23.4563 30 24 29.4563 24 28.8V28.2C24.9867 28.2 25.8 27.3867 25.8 26.4V11.5125C25.8164 11.4328 25.8164 11.3484 25.8 11.2688V1.8C25.8 0.813281 24.9867 0 24 0H6.00001ZM6.00001 1.2H24C24.3375 1.2 24.6 1.4625 24.6 1.8V10.8H5.40001V1.8C5.40001 1.4625 5.66251 1.2 6.00001 1.2ZM8.34376 3.58125C8.31798 3.58594 8.2922 3.59297 8.26876 3.6C7.98986 3.66328 7.79298 3.91406 7.80001 4.2V8.4C7.79767 8.61563 7.91017 8.81719 8.09767 8.92734C8.28517 9.03516 8.51486 9.03516 8.70236 8.92734C8.88986 8.81719 9.00236 8.61563 9.00001 8.4V4.2C9.00704 4.02656 8.93673 3.86016 8.81251 3.74297C8.68595 3.62344 8.51486 3.56484 8.34376 3.58125ZM5.40001 12H24.6V26.4C24.6 26.7375 24.3375 27 24 27H6.00001C5.66251 27 5.40001 26.7375 5.40001 26.4V12ZM8.34376 13.7813C8.31798 13.7859 8.2922 13.793 8.26876 13.8C7.98986 13.8633 7.79298 14.1141 7.80001 14.4V18.6C7.79767 18.8156 7.91017 19.0172 8.09767 19.1273C8.28517 19.2352 8.51486 19.2352 8.70236 19.1273C8.88986 19.0172 9.00236 18.8156 9.00001 18.6V14.4C9.00704 14.2266 8.93673 14.0602 8.81251 13.943C8.68595 13.8234 8.51486 13.7648 8.34376 13.7813ZM7.20001 28.2H9.00001V28.8H7.20001V28.2ZM21 28.2H22.8V28.8H21V28.2Z" fill="#121212"/>
</svg>
