<svg width="30" height="30" viewBox="0 0 30 30" fill="none" xmlns="http://www.w3.org/2000/svg">
<path d="M19.8214 28.9286H11.25L10.1786 20.3571H20.8929L19.8214 28.9286Z" stroke="#000001" stroke-width="2" stroke-linecap="round" stroke-linejoin="round"/>
<path d="M25.9928 13.0071C25.5548 13.3884 25.0438 13.6767 24.491 13.8545C23.9381 14.0322 23.3549 14.0958 22.7767 14.0413C22.1985 13.9868 21.6375 13.8153 21.1276 13.5373C20.6177 13.2594 20.1696 12.8806 19.8106 12.4242C19.4515 11.9678 19.189 11.4431 19.0389 10.8821C18.8888 10.3211 18.8543 9.73543 18.9375 9.16067C19.0207 8.58592 19.2198 8.03407 19.5228 7.53863C19.8257 7.04319 20.2262 6.61449 20.7 6.27856C22.5428 4.82142 28.3928 5.67856 28.3928 5.67856C28.3928 5.67856 27.8571 11.55 25.9928 13.0071Z" stroke="#000001" stroke-width="2" stroke-linecap="round" stroke-linejoin="round"/>
<path d="M19.8214 12.0857C18.5825 13.1008 17.5635 14.3579 16.8266 15.78C16.0897 17.2021 15.6505 18.7596 15.5357 20.3571C15.5357 13.9286 12.3214 9.64284 6.96423 6.42856" stroke="#000001" stroke-width="2" stroke-linecap="round" stroke-linejoin="round"/>
<path d="M3.57857 10.7143C4.62774 11.6154 5.97855 12.087 7.36058 12.0346C8.74261 11.9822 10.0539 11.4097 11.0318 10.4318C12.0097 9.45385 12.5822 8.1426 12.6346 6.76057C12.687 5.37854 12.2154 4.02773 11.3143 2.97856C9.17143 0.857136 1.60714 1.07142 1.60714 1.07142C1.60714 1.07142 1.43571 8.57142 3.57857 10.7143Z" stroke="#000001" stroke-width="2" stroke-linecap="round" stroke-linejoin="round"/>
</svg>
