<svg width="23" height="22" viewBox="0 0 23 22" fill="none" xmlns="http://www.w3.org/2000/svg">
<path d="M20.2757 13.683L19.8058 14.146L20.2757 14.609L21.4022 15.719L19.483 17.61L19.0131 18.073L19.483 18.536L20.6096 19.646L19.9392 20.3065L18.7989 19.183L18.3427 18.7335L17.8865 19.183L15.9536 21.0875L14.8133 19.964L14.3571 19.5145L13.9009 19.964L12.7607 21.0875L12.0806 20.4174L14.9658 17.4534L15.4131 16.9938L14.9596 16.5404L5.45962 7.04038L4.99353 6.57429L4.534 7.04685L1.58662 10.0778L0.926125 9.427L2.05268 8.31701L2.5226 7.854L2.05268 7.39099L0.926124 6.281L2.84534 4.39001L3.31526 3.927L2.84534 3.46399L1.71878 2.354L2.38913 1.6935L3.52941 2.81701L3.98561 3.2665L4.44181 2.81701L6.37475 0.912505L7.51502 2.03601L7.97122 2.4855L8.42743 2.03601L9.5677 0.912505L10.2257 1.56079L7.056 4.52527L6.56513 4.98437L7.04038 5.45962L16.5404 14.9596L16.9855 15.4047L17.4447 14.9741L20.7208 11.9016L21.4022 12.573L20.2757 13.683Z" stroke="black" stroke-width="1.3"/>
</svg>
