<svg width="34" height="34" viewBox="0 0 34 34" fill="none" xmlns="http://www.w3.org/2000/svg">
<g id="Frame 1000003505">
<g id="Group 12">
<path id="Vector" fill-rule="evenodd" clip-rule="evenodd" d="M21.4439 17.2892C21.168 16.5668 20.6572 15.9413 19.9817 15.4989C19.3062 15.0566 18.4992 14.819 17.6719 14.819V13.8928H15.6719V14.819C14.611 14.819 13.5936 15.2093 12.8434 15.9041C12.0933 16.5989 11.6719 17.5412 11.6719 18.5238C11.6719 19.5063 12.0933 20.4486 12.8434 21.1434C13.5936 21.8382 14.611 22.2285 15.6719 22.2285V25.9333C14.8019 25.9333 14.0609 25.4192 13.7849 24.6987C13.7439 24.5808 13.6779 24.4717 13.5906 24.3779C13.5033 24.284 13.3966 24.2074 13.2768 24.1524C13.157 24.0974 13.0265 24.0652 12.8931 24.0578C12.7596 24.0503 12.6259 24.0678 12.4998 24.109C12.3737 24.1503 12.2579 24.2145 12.1591 24.298C12.0603 24.3814 11.9806 24.4824 11.9246 24.5949C11.8687 24.7074 11.8377 24.8291 11.8334 24.9529C11.8292 25.0766 11.8518 25.2 11.8999 25.3155C12.1757 26.0379 12.6866 26.6633 13.3621 27.1057C14.0376 27.5481 14.8446 27.7856 15.6719 27.7856V28.7118H17.6719V27.7856C18.7327 27.7856 19.7502 27.3953 20.5003 26.7005C21.2504 26.0058 21.6719 25.0635 21.6719 24.0809C21.6719 23.0983 21.2504 22.156 20.5003 21.4612C19.7502 20.7665 18.7327 20.3761 17.6719 20.3761V16.6714C18.0855 16.6713 18.489 16.79 18.8267 17.0111C19.1645 17.2322 19.4199 17.5448 19.5579 17.906C19.6462 18.1376 19.8302 18.3273 20.0695 18.4332C20.188 18.4857 20.3165 18.516 20.4477 18.5225C20.5788 18.529 20.71 18.5115 20.8339 18.471C20.9577 18.4305 21.0717 18.3678 21.1694 18.2865C21.2671 18.2051 21.3465 18.1068 21.4031 17.9971C21.4598 17.8873 21.4925 17.7683 21.4995 17.6469C21.5065 17.5254 21.4876 17.4039 21.4439 17.2892ZM15.6719 16.6714C15.1414 16.6714 14.6327 16.8665 14.2577 17.2139C13.8826 17.5613 13.6719 18.0325 13.6719 18.5238C13.6719 19.015 13.8826 19.4862 14.2577 19.8336C14.6327 20.181 15.1414 20.3761 15.6719 20.3761V16.6714ZM17.6719 25.9333C18.2023 25.9333 18.711 25.7381 19.0861 25.3907C19.4612 25.0433 19.6719 24.5722 19.6719 24.0809C19.6719 23.5896 19.4612 23.1185 19.0861 22.7711C18.711 22.4237 18.2023 22.2285 17.6719 22.2285V25.9333Z" fill="#931602"/>
<path id="Vector_2" fill-rule="evenodd" clip-rule="evenodd" d="M5.82486 2.42754C8.27886 1.31519 12.3049 0 16.7109 0C21.0249 0 24.9449 1.26054 27.3859 2.35807L27.5239 2.42013C28.2599 2.75726 28.8539 3.07587 29.2719 3.33428L25.5779 8.33569C34.0939 16.3991 40.6719 33.34 16.7109 33.34C-7.25014 33.34 -0.849144 16.7066 7.74086 8.33569L4.07086 3.33428C4.35386 3.16293 4.71286 2.9638 5.14086 2.75263C5.35286 2.64705 5.58086 2.53776 5.82486 2.42754ZM23.2039 8.26901L26.1609 4.2651C23.4109 4.44848 20.1389 5.0468 16.9889 5.89148C14.7389 6.49351 12.2389 6.40181 9.92386 6.00633C9.34049 5.90616 8.76112 5.78692 8.18686 5.64882L10.1069 8.26716C14.2219 9.62402 19.0879 9.62402 23.2039 8.26901ZM8.95186 9.84538C13.7669 11.5681 19.5539 11.5681 24.3689 9.84353C26.3787 11.8058 28.06 14.0358 29.3569 16.4593C30.7089 19.0137 31.4449 21.5672 31.3249 23.7678C31.2089 25.8916 30.3069 27.706 28.2469 29.0545C26.0999 30.4596 22.4889 31.4876 16.7099 31.4876C10.9249 31.4876 7.29686 30.4771 5.12986 29.0879C3.05486 27.756 2.14386 25.9666 2.01486 23.8716C1.87986 21.695 2.59985 19.1545 3.94686 16.5825C5.23185 14.1299 7.02486 11.7691 8.95186 9.84538ZM7.80186 3.62695C8.60186 3.84739 9.43786 4.03911 10.2859 4.18452C12.4359 4.55129 14.5919 4.60501 16.4319 4.11135C18.5761 3.5328 20.7569 3.07779 22.9619 2.74893C21.1219 2.23582 18.9699 1.85238 16.7099 1.85238C13.2649 1.85238 10.0519 2.74244 7.80186 3.62695Z" fill="#931602"/>
</g>
</g>
</svg>
