<svg width="26" height="26" viewBox="0 0 26 26" fill="none" xmlns="http://www.w3.org/2000/svg">
<path d="M1.75 4.875C1.75 15.5755 10.4245 24.25 21.125 24.25C21.6078 24.25 22.0864 24.2324 22.5604 24.1976C23.1042 24.1577 23.3762 24.1379 23.6237 23.9954C23.8287 23.8774 24.0232 23.6681 24.1259 23.455C24.25 23.1978 24.25 22.8976 24.25 22.2975V18.7759C24.25 18.2711 24.25 18.0188 24.1669 17.8025C24.0936 17.6114 23.9744 17.4412 23.8199 17.307C23.645 17.155 23.4078 17.0687 22.9335 16.8962L18.9249 15.4386C18.3731 15.238 18.0972 15.1376 17.8354 15.1546C17.6045 15.1696 17.3824 15.2485 17.1937 15.3822C16.9797 15.5339 16.8286 15.7856 16.5265 16.2893L15.5 18C12.1876 16.4999 9.50238 13.8111 8 10.5L9.71075 9.47352C10.2144 9.17141 10.4661 9.02035 10.6178 8.80632C10.7515 8.6176 10.8304 8.39546 10.8454 8.16462C10.8624 7.90284 10.762 7.62691 10.5614 7.07506L9.10375 3.06651C8.93125 2.5922 8.845 2.35504 8.693 2.18012C8.55875 2.02561 8.38862 1.90644 8.1975 1.83306C7.98125 1.75 7.72887 1.75 7.22412 1.75H3.7025C3.10238 1.75 2.80225 1.75 2.545 1.87406C2.33187 1.97683 2.12262 2.17126 2.00462 2.37629C1.86212 2.62384 1.84225 2.89577 1.80238 3.43966C1.76763 3.91357 1.75 4.39222 1.75 4.875Z" stroke="#121212" stroke-width="2" stroke-linecap="round" stroke-linejoin="round"/>
</svg>
