<svg width="28" height="28" viewBox="0 0 28 28" fill="none" xmlns="http://www.w3.org/2000/svg">
<path d="M8.54374 3.10625C9.21939 3.76617 9.62115 4.65674 9.66874 5.6L13.1 2.1875C13.2178 2.05538 13.3623 1.94966 13.5238 1.87728C13.6854 1.80489 13.8604 1.76747 14.0375 1.76747C14.2145 1.76747 14.3896 1.80489 14.5511 1.87728C14.7127 1.94966 14.8571 2.05538 14.975 2.1875L17.75 5.075C17.3559 5.26612 16.995 5.51935 16.6812 5.825C16.0134 6.55944 15.654 7.52281 15.6775 8.5152C15.7011 9.5076 16.1058 10.4528 16.8077 11.1548C17.5097 11.8567 18.4549 12.2614 19.4473 12.285C20.4397 12.3085 21.4031 11.9491 22.1375 11.2813C22.4431 10.9675 22.6964 10.6066 22.8875 10.2125L25.8125 13.1C25.9446 13.2178 26.0503 13.3623 26.1227 13.5239C26.1951 13.6854 26.2325 13.8605 26.2325 14.0375C26.2325 14.2145 26.1951 14.3896 26.1227 14.5511C26.0503 14.7127 25.9446 14.8572 25.8125 14.975L22.4 18.3313C23.1391 18.3759 23.8496 18.6332 24.446 19.072C25.0424 19.5108 25.4994 20.1126 25.7619 20.8049C26.0245 21.4973 26.0815 22.2507 25.9261 22.9747C25.7707 23.6987 25.4095 24.3623 24.8859 24.8859C24.3623 25.4095 23.6987 25.7707 22.9747 25.9261C22.2507 26.0815 21.4973 26.0245 20.8049 25.7619C20.1126 25.4994 19.5108 25.0424 19.072 24.446C18.6332 23.8496 18.3759 23.1391 18.3312 22.4L14.9 25.8125C14.7821 25.9446 14.6377 26.0503 14.4761 26.1227C14.3146 26.1951 14.1395 26.2325 13.9625 26.2325C13.7854 26.2325 13.6104 26.1951 13.4488 26.1227C13.2873 26.0503 13.1428 25.9446 13.025 25.8125L10.25 22.925C10.6441 22.7339 11.005 22.4807 11.3187 22.175C12.0423 21.4465 12.4468 20.4604 12.4433 19.4336C12.4398 18.4069 12.0285 17.4235 11.3 16.7C10.5715 15.9765 9.58537 15.5719 8.55861 15.5755C7.53184 15.579 6.54853 15.9902 5.82499 16.7188C5.51934 17.0325 5.26611 17.3934 5.07499 17.7875L2.18749 14.9C2.05537 14.7822 1.94965 14.6377 1.87726 14.4761C1.80488 14.3146 1.76746 14.1395 1.76746 13.9625C1.76746 13.7855 1.80488 13.6104 1.87726 13.4489C1.94965 13.2873 2.05537 13.1428 2.18749 13.025L5.59999 9.66875C4.65673 9.62116 3.76616 9.2194 3.10624 8.54375C2.38518 7.82269 1.9801 6.84473 1.9801 5.825C1.9801 4.80527 2.38518 3.82731 3.10624 3.10625C3.8273 2.38519 4.80526 1.98011 5.82499 1.98011C6.84472 1.98011 7.82268 2.38519 8.54374 3.10625V3.10625Z" stroke="#000001" stroke-width="2" stroke-linecap="round" stroke-linejoin="round"/>
</svg>
