<svg width="30" height="30" viewBox="0 0 30 30" fill="none" xmlns="http://www.w3.org/2000/svg">
<g clip-path="url(#clip0_2493_12995)">
<path d="M5.61389 0.654953C5.44846 0.65497 5.28981 0.720693 5.17284 0.837668C5.05586 0.954643 4.99014 1.11329 4.99012 1.27872V3.45215L0.88448 6.38458C0.80372 6.44239 0.73793 6.51865 0.692583 6.60701C0.647236 6.69537 0.623643 6.79329 0.623765 6.89261V9.38767C0.623782 9.5531 0.689505 9.71174 0.80648 9.82872C0.923455 9.94569 1.0821 10.0114 1.24753 10.0114H14.9704C15.1358 10.0114 15.2944 9.94569 15.4114 9.82872C15.5284 9.71174 15.5941 9.5531 15.5941 9.38767V6.89261C15.5943 6.79329 15.5707 6.69537 15.5253 6.60701C15.48 6.51865 15.4142 6.44239 15.3334 6.38458L11.2278 3.45337V1.27872C11.2278 1.11329 11.162 0.954643 11.0451 0.837668C10.9281 0.720693 10.7694 0.65497 10.604 0.654953H5.61389ZM6.23765 1.90248H9.98025V3.77378C9.98012 3.8731 10.0037 3.97101 10.0491 4.05938C10.0944 4.14774 10.1602 4.224 10.241 4.28181L14.3466 7.21302V8.7639H1.8713V7.21302L5.97694 4.28181C6.0577 4.224 6.12349 4.14774 6.16884 4.05938C6.21418 3.97101 6.23778 3.8731 6.23765 3.77378V1.90248ZM3.43071 13.754C3.02262 13.754 2.68082 14.0148 2.55232 14.3778H0.623765C0.458338 14.3778 0.29969 14.4435 0.182715 14.5605C0.0657398 14.6775 1.65403e-05 14.8361 0 15.0016L0 28.7244C1.65403e-05 28.8898 0.0657398 29.0485 0.182715 29.1654C0.29969 29.2824 0.458338 29.3481 0.623765 29.3482H29.3767C29.5421 29.3481 29.7007 29.2824 29.8177 29.1654C29.9347 29.0485 30.0004 28.8898 30.0004 28.7244V15.0016C30.0004 14.8361 29.9347 14.6775 29.8177 14.5605C29.7007 14.4435 29.5421 14.3778 29.3767 14.3778H13.6656C13.5371 14.0148 13.1953 13.754 12.7872 13.754H3.43071ZM1.24753 15.6253H3.43071H12.7872H15.0301V28.1006H1.24753V15.6253ZM16.2776 15.6253H28.7529V19.3679H16.2776V15.6253ZM3.11883 16.8729C2.9534 16.8729 2.79475 16.9386 2.67778 17.0556C2.5608 17.1725 2.49508 17.3312 2.49506 17.4966V26.2293C2.49508 26.3948 2.5608 26.5534 2.67778 26.6704C2.79475 26.7874 2.9534 26.8531 3.11883 26.8531H13.0991C13.2645 26.8531 13.4231 26.7874 13.5401 26.6704C13.6571 26.5534 13.7228 26.3948 13.7228 26.2293V17.4966C13.7228 17.3312 13.6571 17.1725 13.5401 17.0556C13.4231 16.9386 13.2645 16.8729 13.0991 16.8729H3.11883ZM18.713 16.8729C18.6303 16.8717 18.5482 16.887 18.4715 16.9178C18.3948 16.9486 18.325 16.9944 18.2662 17.0524C18.2073 17.1104 18.1606 17.1796 18.1286 17.2559C18.0967 17.3321 18.0803 17.414 18.0803 17.4966C18.0803 17.5793 18.0967 17.6611 18.1286 17.7374C18.1606 17.8136 18.2073 17.8828 18.2662 17.9408C18.325 17.9989 18.3948 18.0446 18.4715 18.0755C18.5482 18.1063 18.6303 18.1216 18.713 18.1204H26.1981C26.2808 18.1216 26.3629 18.1063 26.4396 18.0755C26.5163 18.0446 26.5861 17.9989 26.645 17.9408C26.7038 17.8828 26.7506 17.8136 26.7825 17.7374C26.8144 17.6611 26.8308 17.5793 26.8308 17.4966C26.8308 17.414 26.8144 17.3321 26.7825 17.2559C26.7506 17.1796 26.7038 17.1104 26.645 17.0524C26.5861 16.9944 26.5163 16.9486 26.4396 16.9178C26.3629 16.887 26.2808 16.8717 26.1981 16.8729H18.713ZM3.74259 18.1204H12.4753V25.6056H3.74259V18.1204ZM16.2776 20.6154H28.7529V28.1006H16.2776V20.6154ZM18.7032 22.4782C18.538 22.4808 18.3806 22.5488 18.2654 22.6674C18.1503 22.7859 18.0869 22.9453 18.0892 23.1105V26.2293C18.088 26.312 18.1033 26.3941 18.1341 26.4708C18.1649 26.5475 18.2107 26.6173 18.2687 26.6761C18.3268 26.735 18.3959 26.7817 18.4722 26.8137C18.5485 26.8456 18.6303 26.862 18.713 26.862C18.7956 26.862 18.8775 26.8456 18.9537 26.8137C19.03 26.7817 19.0991 26.735 19.1572 26.6761C19.2152 26.6173 19.261 26.5475 19.2918 26.4708C19.3226 26.3941 19.3379 26.312 19.3367 26.2293V23.1105C19.3379 23.0271 19.3223 22.9442 19.2908 22.8669C19.2594 22.7896 19.2127 22.7194 19.1536 22.6604C19.0946 22.6015 19.0243 22.555 18.9469 22.5237C18.8695 22.4924 18.7867 22.4769 18.7032 22.4782Z" fill="#121212"/>
</g>
<defs>
<clipPath id="clip0_2493_12995">
<rect width="30" height="30" fill="white"/>
</clipPath>
</defs>
</svg>
