<svg width="30" height="30" viewBox="0 0 30 30" fill="none" xmlns="http://www.w3.org/2000/svg">
<path d="M22.6231 10.7842C22.5414 12.9027 21.74 14.9299 20.351 16.5316C19.9397 16.9899 19.626 17.5271 19.4289 18.1105V19.7479C19.4289 20.1457 19.2709 20.5273 18.9896 20.8086C18.7083 21.0899 18.3267 21.2479 17.9289 21.2479H12.071C11.6732 21.2479 11.2917 21.0899 11.0104 20.8086C10.7291 20.5273 10.571 20.1457 10.571 19.7479V18.1105C10.3739 17.5271 10.0602 16.9899 9.64892 16.5316C8.25881 14.9304 7.45623 12.903 7.37366 10.7842C7.37361 9.02414 7.98236 7.31823 9.09665 5.95581C10.2109 4.59339 11.7622 3.65833 13.4873 3.30922C15.2124 2.96011 17.0051 3.21844 18.5615 4.04041C20.1178 4.86237 21.342 6.19735 22.0263 7.81895C22.4241 8.75793 22.6282 9.76759 22.6263 10.7874L22.6231 10.7842ZM21.1231 10.7842C21.1231 9.16025 20.478 7.6028 19.3297 6.45449C18.1814 5.30617 16.6239 4.66106 15 4.66106C13.376 4.66106 11.8186 5.30617 10.6702 6.45449C9.52193 7.6028 8.87681 9.16025 8.87681 10.7842C8.87681 14.5153 12.071 16.1668 12.071 18.1105V19.7479H17.9289V18.1105C17.9289 16.1668 21.1231 14.5153 21.1231 10.7842ZM18.6789 23.0084C18.6791 23.107 18.6599 23.2047 18.6223 23.2959C18.5847 23.3871 18.5295 23.47 18.4598 23.5398C18.3901 23.6096 18.3074 23.665 18.2163 23.7028C18.1252 23.7406 18.0275 23.76 17.9289 23.76H12.071C11.8721 23.76 11.6813 23.681 11.5407 23.5403C11.4 23.3997 11.321 23.2089 11.321 23.01C11.321 22.8111 11.4 22.6203 11.5407 22.4797C11.6813 22.339 11.8721 22.26 12.071 22.26H17.9289C18.1276 22.26 18.3181 22.3388 18.4587 22.4791C18.5993 22.6194 18.6785 22.8098 18.6789 23.0084ZM17.6684 25.0011C17.6939 25.0749 17.6958 25.155 17.6737 25.23C17.6517 25.305 17.6067 25.3712 17.5452 25.4195C16.8059 25.9936 15.8965 26.3052 14.9605 26.3052C14.0245 26.3052 13.1151 25.9936 12.3758 25.4195C12.3137 25.3718 12.2681 25.3059 12.2454 25.231C12.2228 25.156 12.2242 25.0759 12.2495 25.0018C12.2747 24.9277 12.3226 24.8634 12.3863 24.818C12.4501 24.7725 12.5264 24.7482 12.6047 24.7484H17.3147C17.3928 24.7484 17.469 24.7727 17.5327 24.818C17.5964 24.8632 17.6428 24.9272 17.6684 25.0011Z" fill="#121212"/>
</svg>
