<svg width="371" height="477" viewBox="0 0 371 477" fill="none" xmlns="http://www.w3.org/2000/svg">
<path d="M181.495 0.0124859C206.012 -0.265758 225.726 4.13146 249.247 10.6971C233.436 29.2813 215.726 46.5996 199.054 64.3537L101.275 168.241C83.2007 187.436 64.6622 206.34 47.1922 226.145C66.0447 239.96 82.7765 247.525 105.857 238.984C112.716 236.446 119.292 230.998 124.769 225.997C140.008 212.082 153.916 195.336 168.148 180.211L251.936 91.2154C262.44 79.9889 276.652 62.0241 288.611 53.7195C292.079 51.313 295.899 50.057 300.046 49.9944C308.26 49.8719 314.762 54.7618 320.324 60.7197C353.804 96.5809 370.981 147.132 371 197.042C371.016 246.368 355.063 290.907 324.603 328.144C310.902 344.896 295.088 360.226 280.302 375.927L204.364 456.629C198.012 463.344 191.578 469.991 185.511 477C181.393 470.837 176.379 465.352 172.304 459.129C161.239 442.247 155.159 420.722 154.533 400.262C153.867 378.493 158.581 357.35 168.962 338.528C181.769 315.305 203.456 296.597 221.251 277.644L284.761 210.111C297.848 196.233 311.243 182.557 323.886 168.226C306.658 154.502 288.393 146.48 266.811 154.591C260.314 157.034 254.046 161.454 248.777 166.105C233.036 180 218.379 197.7 203.808 213.19L117.62 304.711C107.846 315.066 97.7957 328.557 86.4112 336.833C82.1215 339.952 77.4292 341.911 72.2054 342.181C64.0985 342.603 57.009 338.864 51.1812 333.139C20.214 302.726 1.49039 249.828 0.113295 205.72C-1.56445 152.099 15.4036 101.029 50.2256 61.7535C84.9643 22.5773 131.066 1.55692 181.495 0.0124859Z" fill="#5F5F5F"/>
</svg>
