<svg width="29" height="29" viewBox="0 0 29 29" fill="none" xmlns="http://www.w3.org/2000/svg">
<g id="mdi:eye">
<path id="Vector" d="M14.4997 10.875C13.5383 10.875 12.6162 11.2569 11.9364 11.9367C11.2566 12.6166 10.8747 13.5386 10.8747 14.5C10.8747 15.4614 11.2566 16.3834 11.9364 17.0633C12.6162 17.7431 13.5383 18.125 14.4997 18.125C15.4611 18.125 16.3831 17.7431 17.0629 17.0633C17.7428 16.3834 18.1247 15.4614 18.1247 14.5C18.1247 13.5386 17.7428 12.6166 17.0629 11.9367C16.3831 11.2569 15.4611 10.875 14.4997 10.875ZM14.4997 20.5417C12.8973 20.5417 11.3606 19.9051 10.2276 18.7721C9.09454 17.6391 8.45801 16.1024 8.45801 14.5C8.45801 12.8977 9.09454 11.3609 10.2276 10.2279C11.3606 9.09486 12.8973 8.45833 14.4997 8.45833C16.102 8.45833 17.6387 9.09486 18.7718 10.2279C19.9048 11.3609 20.5413 12.8977 20.5413 14.5C20.5413 16.1024 19.9048 17.6391 18.7718 18.7721C17.6387 19.9051 16.102 20.5417 14.4997 20.5417ZM14.4997 5.4375C8.45801 5.4375 3.29842 9.19542 1.20801 14.5C3.29842 19.8046 8.45801 23.5625 14.4997 23.5625C20.5413 23.5625 25.7009 19.8046 27.7913 14.5C25.7009 9.19542 20.5413 5.4375 14.4997 5.4375Z" fill="white"/>
</g>
</svg>
