<svg width="30" height="30" viewBox="0 0 30 30" fill="none" xmlns="http://www.w3.org/2000/svg">
<path d="M1.8 4.8C0.813281 4.8 0 5.61328 0 6.6V23.4C0 24.3867 0.813281 25.2 1.8 25.2H3V25.8C3 26.4563 3.54375 27 4.2 27H6C6.65625 27 7.2 26.4563 7.2 25.8V25.2H22.8V25.8C22.8 26.4563 23.3438 27 24 27H25.8C26.4563 27 27 26.4563 27 25.8V25.2H28.2C29.1867 25.2 30 24.3867 30 23.4V6.6C30 5.61328 29.1867 4.8 28.2 4.8H1.8ZM1.8 6H28.2C28.5375 6 28.8 6.2625 28.8 6.6V23.4C28.8 23.7375 28.5375 24 28.2 24H23.5125C23.4328 23.9836 23.3484 23.9836 23.2688 24H3.7125C3.63281 23.9836 3.54844 23.9836 3.46875 24H1.8C1.4625 24 1.2 23.7375 1.2 23.4V6.6C1.2 6.2625 1.4625 6 1.8 6ZM3 7.8V22.2H24V7.8H3ZM4.2 9H22.8V21H4.2V9ZM26.4 9.6C25.7367 9.6 25.2 10.1367 25.2 10.8C25.2 11.4633 25.7367 12 26.4 12C27.0633 12 27.6 11.4633 27.6 10.8C27.6 10.1367 27.0633 9.6 26.4 9.6ZM20.4938 11.9625C20.3742 11.9602 20.257 11.993 20.1562 12.0563C20.1562 12.0563 17.3789 13.2 15.675 13.2C14.8242 13.2 14.25 12.9563 13.5563 12.6563C12.8625 12.3563 12.0398 12 10.9313 12C8.71406 12 6.3375 13.2563 6.3375 13.2563C6.0375 13.4016 5.91094 13.7625 6.05625 14.0625C6.20156 14.3625 6.5625 14.4891 6.8625 14.3438C6.8625 14.3438 9.19922 13.2 10.9313 13.2C11.7984 13.2 12.3773 13.4438 13.0688 13.7438C13.7602 14.0438 14.5781 14.4 15.675 14.4C17.8711 14.4 20.6438 13.1438 20.6438 13.1438C20.9367 13.0688 21.1289 12.7875 21.0891 12.4875C21.0516 12.1875 20.7961 11.9625 20.4938 11.9625ZM26.4 13.8C25.7367 13.8 25.2 14.3367 25.2 15C25.2 15.6633 25.7367 16.2 26.4 16.2C27.0633 16.2 27.6 15.6633 27.6 15C27.6 14.3367 27.0633 13.8 26.4 13.8ZM20.4938 15.5625C20.3742 15.5602 20.257 15.593 20.1562 15.6563C20.1562 15.6563 17.3789 16.8 15.675 16.8C14.8242 16.8 14.25 16.5563 13.5563 16.2563C12.8625 15.9563 12.0398 15.6 10.9313 15.6C8.71406 15.6 6.3375 16.8563 6.3375 16.8563C6.0375 17.0016 5.91094 17.3625 6.05625 17.6625C6.20156 17.9625 6.5625 18.0891 6.8625 17.9438C6.8625 17.9438 9.19922 16.8 10.9313 16.8C11.7984 16.8 12.3773 17.0438 13.0688 17.3438C13.7602 17.6438 14.5781 18 15.675 18C17.8711 18 20.6438 16.7438 20.6438 16.7438C20.9367 16.6688 21.1289 16.3875 21.0891 16.0875C21.0516 15.7875 20.7961 15.5625 20.4938 15.5625ZM26.4 18C25.7367 18 25.2 18.5367 25.2 19.2C25.2 19.8633 25.7367 20.4 26.4 20.4C27.0633 20.4 27.6 19.8633 27.6 19.2C27.6 18.5367 27.0633 18 26.4 18ZM4.2 25.2H6V25.8H4.2V25.2ZM24 25.2H25.8V25.8H24V25.2Z" fill="#121212"/>
</svg>
