<svg width="26" height="26" viewBox="0 0 26 26" fill="none" xmlns="http://www.w3.org/2000/svg">
<path d="M18.3 24.7V24V16V15.3H19H24.9998L18.3 24.7ZM18.3 24.7H19M18.3 24.7H19M19 24.7H25C25.0796 24.7 25.1559 24.7316 25.2121 24.7879C25.2684 24.8441 25.3 24.9204 25.3 25C25.3 25.0796 25.2684 25.1559 25.2121 25.2121C25.1559 25.2684 25.0796 25.3 25 25.3H1C0.920434 25.3 0.844128 25.2684 0.787868 25.2121C0.731607 25.1559 0.7 25.0796 0.7 25C0.7 24.9204 0.731607 24.8441 0.787868 24.7879C0.844128 24.7316 0.920434 24.7 1 24.7H4H4.7V24V20V19.3H4H1C0.920434 19.3 0.844128 19.2684 0.787868 19.2121C0.731607 19.1559 0.7 19.0796 0.7 19C0.7 18.9204 0.731607 18.8441 0.787868 18.7879C0.844128 18.7316 0.920434 18.7 1 18.7H9C9.07957 18.7 9.15587 18.7316 9.21213 18.7879C9.26839 18.8441 9.3 18.9204 9.3 19C9.3 19.0796 9.26839 19.1559 9.21213 19.2121C9.15587 19.2684 9.07957 19.3 9 19.3H6H5.3V20V24V24.7H6H17H17.7V24V16V15.3M19 24.7L17.7 15.3M25.2453 14.8277L25.245 14.8273L20.7466 8.40145L19.9755 7.30001H21.32H22.9995C23.0565 7.29996 23.1123 7.28369 23.1603 7.25308C23.2084 7.22247 23.2468 7.1788 23.2709 7.12718C23.2951 7.07556 23.3041 7.01813 23.2968 6.9616C23.2895 6.90513 23.2663 6.85189 23.2298 6.80811C23.2298 6.80808 23.2298 6.80804 23.2297 6.80801L18.2402 0.820587C18.2104 0.789102 18.1746 0.763769 18.1349 0.746058C18.0925 0.727102 18.0465 0.717303 18 0.717303C17.9535 0.717303 17.9075 0.727102 17.8651 0.746058C17.8254 0.763769 17.7896 0.789102 17.7598 0.820586L12.7703 6.80801C12.7702 6.80805 12.7702 6.80809 12.7702 6.80814C12.7337 6.85191 12.7105 6.90513 12.7032 6.9616C12.6959 7.01813 12.7049 7.07556 12.7291 7.12718C12.7532 7.1788 12.7916 7.22247 12.8397 7.25308C12.8877 7.28368 12.9435 7.29996 13.0005 7.30001H14.68H16.0245L15.2535 8.40145L10.755 14.8273L10.7547 14.8277C10.7232 14.8727 10.7046 14.9254 10.701 14.9802C10.6973 15.035 10.7088 15.0897 10.7341 15.1384C10.7595 15.1871 10.7977 15.2279 10.8446 15.2564C10.8914 15.2849 10.9452 15.3 11 15.3L25.2453 14.8277ZM25.2453 14.8277C25.2768 14.8727 25.2954 14.9254 25.299 14.9802C25.3027 15.035 25.2912 15.0897 25.2659 15.1384C25.2405 15.1871 25.2023 15.2279 25.1554 15.2564C25.1086 15.2849 25.0548 15.3 25 15.3L25.2453 14.8277ZM17.7 15.3H17M17.7 15.3H17M17 15.3H11.0002H17Z" stroke="#121212" stroke-width="1.4"/>
</svg>
