<svg width="30" height="16" viewBox="0 0 30 16" fill="none" xmlns="http://www.w3.org/2000/svg">
<path d="M29.9728 6.27473C29.9139 6.10398 29.7676 5.97817 29.5899 5.94567C26.89 5.45198 24.9518 4.19986 23.8012 3.23643C22.8002 2.39819 22.2034 1.62613 21.9999 1.34363V0.500012C21.9999 0.223889 21.7761 1.52588e-05 21.4999 1.52588e-05C21.2238 1.52588e-05 20.9999 0.223889 20.9999 0.500012V1.00001H9.00001V0.500012C9.00001 0.223889 8.77614 1.52588e-05 8.50002 1.52588e-05C8.22389 1.52588e-05 8.00002 0.223889 8.00002 0.500012V1.34363C7.79615 1.62682 7.1994 2.39856 6.19878 3.23643C5.04822 4.19986 3.11005 5.45192 0.410067 5.94567C0.23238 5.97817 0.0860689 6.10391 0.0272567 6.27473C-0.0315554 6.44554 0.00631937 6.63472 0.126256 6.76966C0.192693 6.84441 0.809814 7.50003 1.99993 7.50003H3.49998V8.28821C3.09605 8.66371 1.85968 9.71177 0.420379 9.94395C0.178131 9.98302 6.91332e-06 10.1921 6.91332e-06 10.4375V10.5C6.91332e-06 10.6326 0.0526941 10.7598 0.146443 10.8536C0.202443 10.9096 0.65244 11.3325 1.5 11.4616V15C1.22387 15 1 15.2239 1 15.5C1 15.7761 1.22387 16 1.5 16H27.9998C28.276 16 28.4998 15.7761 28.4998 15.5C28.4998 15.2239 28.276 15 27.9998 15V11.3418C28.5251 11.1648 28.8096 10.8973 28.8534 10.8536C28.9471 10.7598 28.9998 10.6326 28.9998 10.5V10.4375C28.9998 10.1921 28.8217 9.98302 28.5795 9.94395C27.1467 9.71283 25.905 8.66277 25.4998 8.28765V7.50009H27.9999C29.1901 7.50009 29.8071 6.84453 29.8736 6.76972C29.9937 6.63472 30.0315 6.44548 29.9728 6.27473ZM14.5 7.49997V7.99997H4.50004V7.49997H14.5ZM2.50005 11.4999H4.50004V14.9999H2.50005V11.4999ZM7.50002 11.4999V14.9999H5.50003V11.4999H7.50002ZM20.9999 11.5L21 15L8.50002 14.9999V11.4999L20.9999 11.5ZM23.8012 11.4999V15H22V11.5L23.8012 11.4999ZM26.9999 14.9999H24.9999V11.4999H26.9999V14.9999ZM26.9999 10.4999H2.00006C1.99356 10.4999 1.98706 10.4999 1.98068 10.4999C3.05343 10.018 3.87317 9.31052 4.20354 8.99996H24.7964C25.1268 9.31052 25.9465 10.018 27.0193 10.4999C27.0129 10.4999 27.0064 10.4999 26.9999 10.4999ZM24.4999 7.99997H15.5V7.49997H24.4999V7.99997ZM2.3038 6.49998C4.3566 5.84129 5.88366 4.8098 6.87296 3.97605C7.86608 3.13912 8.48677 2.36994 8.75958 2H21.2404C21.5131 2.36994 22.1339 3.13918 23.127 3.97605C24.1163 4.8098 25.6434 5.84129 27.6961 6.49998H2.3038Z" fill="black"/>
</svg>
