<svg width="30" height="30" viewBox="0 0 30 30" fill="none" xmlns="http://www.w3.org/2000/svg">
<path d="M9.36624 28.5775C9.61289 28.7226 9.90186 28.7787 10.1849 28.7363C10.4679 28.694 10.7278 28.5559 10.9212 28.345L24.6712 13.345C24.8353 13.1662 24.9437 12.9435 24.9833 12.7041C25.023 12.4647 24.992 12.219 24.8944 11.9968C24.7967 11.7747 24.6365 11.5858 24.4333 11.4532C24.2301 11.3206 23.9926 11.25 23.75 11.25H16.4162L17.49 2.655C17.5238 2.38029 17.4655 2.10213 17.3241 1.86414C17.1828 1.62616 16.9665 1.4418 16.7091 1.34C16.4517 1.23819 16.1679 1.22468 15.902 1.3016C15.6361 1.37852 15.4033 1.5415 15.24 1.765L5.23999 15.515C5.10448 15.7014 5.02314 15.9217 5.00496 16.1514C4.98679 16.3812 5.03248 16.6115 5.13699 16.8169C5.2415 17.0223 5.40077 17.1948 5.59719 17.3153C5.7936 17.4359 6.01953 17.4998 6.24999 17.5H12.015L8.81499 27.105C8.72444 27.3765 8.72978 27.6708 8.83011 27.9388C8.93044 28.2068 9.11969 28.4322 9.36624 28.5775ZM8.70499 15L14.4075 7.15875L13.76 12.345C13.738 12.5208 13.7537 12.6993 13.8059 12.8687C13.8582 13.038 13.9459 13.1943 14.0631 13.3271C14.1804 13.46 14.3246 13.5664 14.4861 13.6393C14.6476 13.7122 14.8228 13.75 15 13.75H20.9087L13.04 22.3338L14.935 16.645C14.9975 16.4572 15.0146 16.2572 14.9847 16.0615C14.9549 15.8658 14.879 15.68 14.7633 15.5194C14.6476 15.3588 14.4954 15.2279 14.3192 15.1376C14.143 15.0473 13.948 15.0002 13.75 15H8.70499Z" fill="#121212"/>
</svg>
