<svg width="24" height="21" viewBox="0 0 24 21" fill="none" xmlns="http://www.w3.org/2000/svg">
<path d="M19.5294 9.33333V9.93333H20.1294H22.4975C22.6553 9.93333 22.8048 9.99516 22.9137 10.1024C23.0222 10.2094 23.0816 10.3526 23.0816 10.5V20.4H0.6V10.5C0.6 10.3526 0.659344 10.2094 0.767918 10.1024L0.350203 9.67849L0.767919 10.1024C0.876795 9.99516 1.02633 9.93333 1.18408 9.93333H3.55224H4.15224V9.33333V2.33333V1.73333H3.55224H2.96816V0.6H20.7134V1.73333H20.1294H19.5294V2.33333V9.33333ZM13.609 18.6667V19.2667H14.209H17.7612H18.3612V18.6667V2.33333V1.73333H17.7612H5.9204H5.3204V2.33333V18.6667V19.2667H5.9204H9.47264H10.0726V18.6667V14.6H13.609V18.6667Z" stroke="black" stroke-width="1.2"/>
<path d="M8.78879 5.16621H10.1569V6.49954H8.78879V5.16621ZM13.5251 5.16621H14.8933V6.49954H13.5251V5.16621ZM8.78879 9.83288H10.1569V11.1662H8.78879V9.83288ZM13.5251 9.83288H14.8933V11.1662H13.5251V9.83288Z" stroke="black"/>
</svg>
