<svg width="23" height="25" viewBox="0 0 23 25" fill="none" xmlns="http://www.w3.org/2000/svg">
<path d="M21.4944 11.4801C21.4944 17.1039 17.4116 22.3713 11.8337 23.9124C11.4542 24.0159 11.0402 24.0159 10.6607 23.9124C5.08276 22.3713 1 17.1039 1 11.4801V6.43119C1 5.48812 1.71306 4.41856 2.59862 4.06204L9.00456 1.4399C10.4422 0.853365 12.0638 0.853365 13.5014 1.4399L19.9073 4.06204C20.7813 4.41856 21.5059 5.48812 21.5059 6.43119L21.4944 11.4801Z" stroke="#121212" stroke-width="2" stroke-linecap="round" stroke-linejoin="round"/>
<path d="M11.2472 13.0672C12.5176 13.0672 13.5474 12.0374 13.5474 10.767C13.5474 9.49667 12.5176 8.46686 11.2472 8.46686C9.97683 8.46686 8.94705 9.49667 8.94705 10.767C8.94705 12.0374 9.97683 13.0672 11.2472 13.0672Z" stroke="#121212" stroke-width="2" stroke-miterlimit="10" stroke-linecap="round" stroke-linejoin="round"/>
<path d="M11.2472 13.0672V16.5174" stroke="#121212" stroke-width="2" stroke-miterlimit="10" stroke-linecap="round" stroke-linejoin="round"/>
</svg>
