<svg width="42" height="42" viewBox="0 0 42 42" fill="none" xmlns="http://www.w3.org/2000/svg">
<circle cx="21" cy="21" r="20" fill="white"/>
<path d="M27.9375 11.0625C27.4208 11.0623 26.911 11.1807 26.4473 11.4086C25.9836 11.6366 25.5785 11.9679 25.263 12.3771C24.9476 12.7863 24.7304 13.2625 24.628 13.7689C24.5257 14.2754 24.541 14.7985 24.6727 15.2981C24.5912 15.3154 24.5128 15.3445 24.4398 15.3848L21.3382 17.0756L17.394 19.3313C17.3545 19.3537 17.3169 19.3793 17.2815 19.4078C16.7327 19.0832 16.1033 18.9208 15.4661 18.9392C14.8289 18.9576 14.2099 19.1561 13.6808 19.5117C13.1517 19.8673 12.7341 20.3655 12.4765 20.9486C12.2188 21.5317 12.1315 22.1758 12.2248 22.8065C12.318 23.4371 12.588 24.0285 13.0034 24.512C13.4188 24.9956 13.9627 25.3516 14.5721 25.5389C15.1814 25.7261 15.8314 25.737 16.4467 25.5702C17.0619 25.4033 17.6174 25.0657 18.0487 24.5962L21.3405 26.4266L24.6637 28.239C24.4625 29.0355 24.5587 29.8779 24.9343 30.6085C25.3098 31.3391 25.939 31.9077 26.7037 32.2076C27.4685 32.5075 28.3164 32.5182 29.0885 32.2377C29.8606 31.9571 30.5038 31.4046 30.8977 30.6837C31.2916 29.9629 31.409 29.1231 31.2279 28.3218C31.0469 27.5205 30.5798 26.8128 29.9143 26.3312C29.2488 25.8497 28.4305 25.6274 27.6128 25.7061C26.7951 25.7847 26.0341 26.1589 25.4726 26.7585L22.1572 24.9495L18.843 23.109C19.0446 22.2736 18.9207 21.3927 18.4965 20.6452L22.1617 18.5505L25.2476 16.8664C25.321 16.8266 25.3881 16.7762 25.4467 16.7168C25.8257 17.1307 26.302 17.4435 26.8324 17.627C27.3628 17.8105 27.9305 17.8588 28.4843 17.7676C29.0381 17.6764 29.5604 17.4486 30.0039 17.1046C30.4474 16.7607 30.7982 16.3117 31.0244 15.7981C31.2507 15.2845 31.3453 14.7225 31.2996 14.1632C31.254 13.6038 31.0696 13.0646 30.7631 12.5945C30.4567 12.1243 30.0378 11.738 29.5444 11.4705C29.051 11.203 28.4987 11.0628 27.9375 11.0625Z" fill="black"/>
</svg>
