<svg width="22" height="22" viewBox="0 0 21 20" fill="none" xmlns="http://www.w3.org/2000/svg">
<path d="M13.6339 0.187948L20.3304 6.66116C20.3951 6.72369 20.4465 6.79861 20.4816 6.88144C20.5168 6.96427 20.5349 7.05333 20.5349 7.1433C20.5349 7.23328 20.5168 7.32234 20.4816 7.40517C20.4465 7.488 20.3951 7.56292 20.3304 7.62545L13.6339 14.0987C13.5727 14.159 13.5002 14.2066 13.4205 14.2388C13.3408 14.271 13.2556 14.2871 13.1696 14.2862C12.992 14.2862 12.8217 14.2156 12.6961 14.09C12.5706 13.9644 12.5 13.7941 12.5 13.6165V10.2772C6.51786 10.5183 4 13.8665 3.89286 14.0094C3.80762 14.1216 3.68996 14.2049 3.55581 14.248C3.42166 14.2911 3.27751 14.292 3.14286 14.2504C3.00855 14.2072 2.89134 14.1226 2.80796 14.0087C2.72458 13.8949 2.6793 13.7576 2.67857 13.6165C2.67857 6.4558 8.5625 4.25938 12.5 4.03616V0.670091C12.5003 0.538393 12.5394 0.409706 12.6125 0.300127C12.6855 0.190548 12.7893 0.104942 12.9107 0.0540194C13.031 0.00215786 13.1639 -0.0127996 13.2927 0.0110462C13.4214 0.034892 13.5402 0.0964654 13.6339 0.187948ZM4.24107 0.893305C3.11627 0.893305 2.03754 1.34013 1.24218 2.13549C0.446826 2.93084 0 4.00957 0 5.13438V15.4022C0 16.527 0.446826 17.6058 1.24218 18.4011C2.03754 19.1965 3.11627 19.6433 4.24107 19.6433H14.5089C15.6337 19.6433 16.7125 19.1965 17.5078 18.4011C18.3032 17.6058 18.75 16.527 18.75 15.4022V14.9558C18.75 14.7782 18.6794 14.6079 18.5539 14.4823C18.4283 14.3567 18.258 14.2862 18.0804 14.2862C17.9028 14.2862 17.7324 14.3567 17.6068 14.4823C17.4813 14.6079 17.4107 14.7782 17.4107 14.9558V15.4022C17.4107 16.1718 17.105 16.9099 16.5608 17.4541C16.0166 17.9983 15.2785 18.304 14.5089 18.304H4.24107C3.47147 18.304 2.73339 17.9983 2.1892 17.4541C1.64501 16.9099 1.33929 16.1718 1.33929 15.4022V5.13438C1.33929 4.36478 1.64501 3.62669 2.1892 3.0825C2.73339 2.53831 3.47147 2.23259 4.24107 2.23259H8.25893C8.43653 2.23259 8.60685 2.16204 8.73244 2.03646C8.85802 1.91087 8.92857 1.74055 8.92857 1.56295C8.92857 1.38535 8.85802 1.21502 8.73244 1.08944C8.60685 0.963857 8.43653 0.893305 8.25893 0.893305H4.24107Z" fill="black"/>
</svg>
