<svg width="60" height="60" viewBox="0 0 60 60" fill="none" xmlns="http://www.w3.org/2000/svg">
<path d="M13.8889 45H46.111C51.0202 45 55 41.0202 55 36.111V30C55 27.2385 52.7615 25 50 25C47.2385 25 45 27.2385 45 30V33C45 34.1045 44.1045 35 43 35H17C15.8954 35 15 34.1045 15 33V30C15 27.2385 12.7614 25 10 25C7.23857 25 5 27.2385 5 30V36.111C5 41.0202 8.9797 45 13.8889 45Z" stroke="black" stroke-width="4"/>
<path d="M50 25C50 22.6767 50 21.5151 49.8077 20.5491C49.0187 16.5822 45.9177 13.4812 41.951 12.6921C40.985 12.5 39.8233 12.5 37.5 12.5H22.5C20.1767 12.5 19.0151 12.5 18.0491 12.6921C14.0822 13.4812 10.9812 16.5822 10.1921 20.5491C10 21.5151 10 22.6767 10 25" stroke="black" stroke-width="4"/>
<path d="M50 47.5V45M10 47.5V45" stroke="black" stroke-width="4" stroke-linecap="round"/>
</svg>
