<svg width="30" height="28" viewBox="0 0 30 28" fill="none" xmlns="http://www.w3.org/2000/svg">
<path d="M25.7143 14C26.6107 14.465 27.3752 15.1486 27.9371 15.9877C28.499 16.8268 28.84 17.7941 28.9286 18.8C28.9286 22.9357 22.6928 26.3 15 26.3C7.30713 26.3 1.07141 22.9571 1.07141 18.8214C1.15648 17.8117 1.49587 16.84 2.05793 15.997C2.61998 15.1539 3.3864 14.4669 4.2857 14" stroke="#000001" stroke-width="2" stroke-linecap="round" stroke-linejoin="round"/>
<path d="M8.74279 3.82143C4.45708 9.17857 13.0285 11.3214 8.74279 16.6786" stroke="#000001" stroke-width="2" stroke-linecap="round" stroke-linejoin="round"/>
<path d="M15 1.67857C10.7143 7.03571 19.2857 13.4643 15 18.8214" stroke="#000001" stroke-width="2" stroke-linecap="round" stroke-linejoin="round"/>
<path d="M21.2571 3.82143C16.9714 9.17857 25.5428 11.3214 21.2571 16.6786" stroke="#000001" stroke-width="2" stroke-linecap="round" stroke-linejoin="round"/>
</svg>
