<svg width="30" height="18" viewBox="0 0 30 18" fill="none" xmlns="http://www.w3.org/2000/svg">
<path d="M29.4024 0.564861H0.59761C0.26761 0.564861 0 0.832411 0 1.16247V3.77498V14.2251V16.8376C0 17.1677 0.26761 17.4352 0.59761 17.4352H29.4024C29.7324 17.4352 30 17.1677 30 16.8376V14.2251V3.77498V1.16247C30 0.832351 29.7324 0.564861 29.4024 0.564861ZM1.19522 1.76008H14.4024V3.17737H7.76892H1.19522V1.76008ZM21.6335 4.37259V8.40239H8.36653V4.37253L21.6335 4.37259ZM1.19522 4.37259H7.17132V13.6275H1.19522V4.37259ZM14.4024 16.24H1.19522V14.8227H7.76892H14.4024V16.24ZM15 10.1355C14.67 10.1355 14.4024 10.403 14.4024 10.7331V13.6275H8.36653V9.59761H21.6335V13.6275H15.5976V10.7331C15.5976 10.403 15.33 10.1355 15 10.1355ZM28.8048 16.24H15.5976V14.8227H22.2311H28.8048V16.24ZM28.8048 13.6275H22.8287V4.37259H28.8048V13.6275ZM28.8048 3.17737H22.2311H15.5976V1.76008H28.8048V3.17737Z" fill="black"/>
<path d="M15 7.56574C15.33 7.56574 15.5976 7.29819 15.5976 6.96813V5.77291C15.5976 5.44285 15.33 5.1753 15 5.1753C14.67 5.1753 14.4023 5.44285 14.4023 5.77291V6.96813C14.4023 7.29819 14.67 7.56574 15 7.56574Z" fill="black"/>
</svg>
