<svg width="26" height="26" viewBox="0 0 26 26" fill="none" xmlns="http://www.w3.org/2000/svg">
<path d="M20.2991 17.8372C18.251 17.8372 16.5848 19.5035 16.5848 21.5514C16.5848 23.5994 18.2511 25.2657 20.2991 25.2657C22.3471 25.2657 24.0133 23.5994 24.0133 21.5514C24.0133 19.5035 22.3471 17.8372 20.2991 17.8372ZM20.2991 23.5382C19.2036 23.5382 18.3124 22.647 18.3124 21.5515C18.3124 20.456 19.2036 19.5648 20.2991 19.5648C21.3946 19.5648 22.2858 20.456 22.2858 21.5515C22.2858 22.647 21.3946 23.5382 20.2991 23.5382Z" fill="#121212"/>
<path d="M24.8921 5.38287L20.6171 1.1079C19.8587 0.349512 18.8303 -0.041279 17.7215 0.00345538C16.5105 0.0537925 15.352 0.630875 14.5432 1.58667L10.5632 6.29034C9.89374 7.08147 9.44561 8.00093 9.11986 8.94517C8.41383 10.9917 5.9551 17.0056 5.9551 17.0056L0.62952 22.3313C0.223497 22.7371 0 23.2768 0 23.8509C0 24.4249 0.223497 24.9645 0.629433 25.3705L0.62952 25.3706C1.03546 25.7765 1.57507 26 2.14909 26C2.72319 26 3.2629 25.7765 3.66875 25.3706L8.9945 20.0448C8.9945 20.0448 15.0084 17.5861 17.0549 16.8801C17.9991 16.5543 18.9185 16.1062 19.7097 15.4367L24.4134 11.4567C25.3691 10.6479 25.9462 9.48942 25.9965 8.27844C26.0427 7.16962 25.6504 6.14126 24.8921 5.38287ZM24.2705 8.20683C24.2622 8.4045 24.2295 8.60007 24.1755 8.79039L22.8767 7.49161L23.7159 6.65242C24.0984 7.06063 24.2952 7.6097 24.2705 8.20683ZM20.7884 12.261L19.4478 10.9205L20.4293 9.93895L21.8517 11.3614L20.7884 12.261ZM18.7149 10.1876L17.6301 9.10275L18.6116 8.12121L19.6964 9.20605L18.7149 10.1876ZM8.72189 18.2958L7.70421 17.2781L9.26807 13.2951C9.57342 14.0711 10.0309 14.7773 10.6269 15.3732C11.2229 15.9691 11.9291 16.4266 12.705 16.732L8.72189 18.2958ZM11.518 7.88511L12.6323 8.99944L11.6507 9.98106L10.8529 9.1832C11.0125 8.73568 11.2342 8.29884 11.518 7.88511ZM13.0672 6.00557L14.3467 7.28509L13.3652 8.26654L12.1675 7.06886L13.0672 6.00557ZM14.6387 4.14826L16.061 5.57057L15.0795 6.5521L13.739 5.21164L14.6387 4.14826ZM15.8621 2.70258C15.9795 2.56391 16.1086 2.43872 16.2465 2.32719L17.7756 3.85622L16.794 4.83775L15.3106 3.35433L15.8621 2.70258ZM13.6593 15.2433C13.1487 15.084 12.6672 14.835 12.2371 14.4957L13.4683 13.2645L14.5531 14.3494L13.6593 15.2433ZM15.2861 15.0822L15.6275 15.4236C15.3892 15.4502 15.1513 15.4602 14.9154 15.4528L15.2861 15.0822ZM11.5042 13.7628C11.1649 13.3327 10.916 12.8512 10.7567 12.3407L11.6506 11.4468L12.7355 12.5316L11.5042 13.7628ZM12.3835 10.7139L13.3652 9.73227L14.45 10.8171L13.4684 11.7987L12.3835 10.7139ZM14.0981 8.99944L15.0796 8.01791L16.1644 9.10275L15.1829 10.0843L14.0981 8.99944ZM15.8124 7.28509L16.794 6.30356L17.8788 7.38839L16.8973 8.36984L15.8124 7.28509ZM17.5269 5.57065L18.5084 4.58912L19.5932 5.67396L18.6117 6.65549L17.5269 5.57065ZM10.9178 10.7139L10.5471 11.0846C10.5397 10.8487 10.5497 10.6108 10.5764 10.3725L10.9178 10.7139ZM16.8168 15.1471L16.0189 14.3493L17.0006 13.3677L18.1149 14.482C17.7012 14.7658 17.2643 14.9875 16.8168 15.1471ZM15.2861 13.6165L14.2013 12.5316L15.1829 11.55L16.2677 12.6348L15.2861 13.6165ZM15.9157 10.8171L16.8973 9.83557L17.9821 10.9204L17.0006 11.9019L15.9157 10.8171ZM19.3445 7.38831L20.326 6.40678L21.4109 7.49161L20.4293 8.47314L19.3445 7.38831ZM21.059 5.67387L21.8995 4.83337L22.9843 5.9182L22.1438 6.7587L21.059 5.67387ZM21.1665 4.10055L20.326 4.94105L19.2412 3.85622L20.0817 3.01572L21.1665 4.10055ZM17.7932 1.72954C17.8268 1.72814 17.8604 1.72744 17.8938 1.72744C18.4519 1.72744 18.9625 1.92309 19.3478 2.28403L18.5085 3.12331L17.2097 1.82452C17.3999 1.77059 17.5955 1.73777 17.7932 1.72954ZM2.44708 24.149C2.33967 24.2564 2.21431 24.2724 2.14909 24.2724C2.08387 24.2724 1.95842 24.2564 1.85109 24.149L1.85101 24.1489C1.74359 24.0415 1.72757 23.9161 1.72757 23.8509C1.72757 23.7857 1.74359 23.6602 1.85109 23.5529L6.69335 18.7107L7.28943 19.3067L2.44708 24.149ZM18.9311 13.8325L17.7335 12.6348L18.715 11.6533L19.9945 12.9328L18.9311 13.8325ZM23.2975 10.1379L22.6458 10.6895L21.1623 9.20596L22.1438 8.22443L23.6728 9.75345C23.5613 9.89142 23.4362 10.0206 23.2975 10.1379Z" fill="#121212"/>
</svg>
