<svg width="30" height="30" viewBox="0 0 30 30" fill="none" xmlns="http://www.w3.org/2000/svg">
<g clip-path="url(#clip0_2493_13011)">
<path d="M27.5049 0H2.50096C1.12498 0 0.00292969 1.12205 0.00292969 2.49803V27.4961C0.00292969 28.878 1.12498 30 2.50096 30H27.499C28.875 30 29.997 28.878 29.997 27.502V2.49803C30.0029 1.12205 28.8809 0 27.5049 0ZM1.66828 2.49803C1.66828 2.0374 2.04033 1.66535 2.50096 1.66535H27.499C27.9596 1.66535 28.3317 2.0374 28.3317 2.49803V22.5532H1.66828V2.49803ZM28.3376 27.502C28.3376 27.9626 27.9655 28.3346 27.5049 28.3346H2.50096C2.04033 28.3346 1.66828 27.9626 1.66828 27.502V24.2185H28.3376V27.502Z" fill="#121212"/>
<path d="M8.79623 3.41339C6.59938 3.41339 4.81592 5.19685 4.81592 7.3937C4.81592 9.59055 6.59938 11.374 8.79623 11.374C10.9931 11.374 12.7765 9.59055 12.7765 7.3937C12.7765 5.19685 10.9931 3.41339 8.79623 3.41339ZM8.79623 9.70866C7.52064 9.70866 6.48127 8.66929 6.48127 7.3937C6.48127 6.11811 7.52064 5.07874 8.79623 5.07874C10.0718 5.07874 11.1112 6.11811 11.1112 7.3937C11.1112 8.66929 10.0718 9.70866 8.79623 9.70866Z" fill="#121212"/>
<path d="M21.2096 3.41339C19.0128 3.41339 17.2293 5.19685 17.2293 7.3937C17.2293 9.59055 19.0128 11.374 21.2096 11.374C23.4065 11.374 25.1899 9.59055 25.1899 7.3937C25.1899 5.19685 23.4065 3.41339 21.2096 3.41339ZM21.2096 9.70866C19.934 9.70866 18.8947 8.66929 18.8947 7.3937C18.8947 6.11811 19.934 5.07874 21.2096 5.07874C22.4852 5.07874 23.5246 6.11811 23.5246 7.3937C23.5246 8.66929 22.4852 9.70866 21.2096 9.70866Z" fill="#121212"/>
<path d="M8.79623 12.9862C6.59938 12.9862 4.81592 14.7697 4.81592 16.9665C4.81592 19.1634 6.59938 20.9469 8.79623 20.9469C10.9931 20.9469 12.7765 19.1634 12.7765 16.9665C12.7765 14.7697 10.9931 12.9862 8.79623 12.9862ZM8.79623 19.2815C7.52064 19.2815 6.48127 18.2421 6.48127 16.9665C6.48127 15.6909 7.52064 14.6516 8.79623 14.6516C10.0718 14.6516 11.1112 15.6909 11.1112 16.9665C11.1112 18.2421 10.0718 19.2815 8.79623 19.2815Z" fill="#121212"/>
<path d="M21.2096 12.9862C19.0128 12.9862 17.2293 14.7697 17.2293 16.9665C17.2293 19.1634 19.0128 20.9469 21.2096 20.9469C23.4065 20.9469 25.1899 19.1634 25.1899 16.9665C25.1899 14.7697 23.4065 12.9862 21.2096 12.9862ZM21.2096 19.2815C19.934 19.2815 18.8947 18.2421 18.8947 16.9665C18.8947 15.6909 19.934 14.6516 21.2096 14.6516C22.4852 14.6516 23.5246 15.6909 23.5246 16.9665C23.5246 18.2421 22.4852 19.2815 21.2096 19.2815Z" fill="#121212"/>
<path d="M6.32774 25.5236H5.26474C4.80411 25.5236 4.43207 25.8957 4.43207 26.3563C4.43207 26.8169 4.80411 27.189 5.26474 27.189H6.32774C6.78837 27.189 7.16041 26.8169 7.16041 26.3563C7.16041 25.8957 6.78837 25.5236 6.32774 25.5236Z" fill="#121212"/>
<path d="M12.4636 25.5236H11.4006C10.94 25.5236 10.5679 25.8957 10.5679 26.3563C10.5679 26.8169 10.94 27.189 11.4006 27.189H12.4636C12.9242 27.189 13.2963 26.8169 13.2963 26.3563C13.2963 25.8957 12.9242 25.5236 12.4636 25.5236Z" fill="#121212"/>
<path d="M18.6053 25.5236H17.5423C17.0817 25.5236 16.7097 25.8957 16.7097 26.3563C16.7097 26.8169 17.0817 27.189 17.5423 27.189H18.6053C19.066 27.189 19.438 26.8169 19.438 26.3563C19.438 25.8957 19.066 25.5236 18.6053 25.5236Z" fill="#121212"/>
<path d="M24.7411 25.5236H23.6781C23.2175 25.5236 22.8455 25.8957 22.8455 26.3563C22.8455 26.8169 23.2175 27.189 23.6781 27.189H24.7411C25.2018 27.189 25.5738 26.8169 25.5738 26.3563C25.5738 25.8957 25.2018 25.5236 24.7411 25.5236Z" fill="#121212"/>
</g>
<defs>
<clipPath id="clip0_2493_13011">
<rect width="30" height="30" fill="white"/>
</clipPath>
</defs>
</svg>
