<svg width="24" height="24" viewBox="0 0 24 24" fill="none" xmlns="http://www.w3.org/2000/svg">
<path d="M3.5625 0.75C2.02075 0.75 0.75 2.02075 0.75 3.5625C0.75 5.10425 2.02075 6.375 3.5625 6.375C5.10425 6.375 6.375 5.10425 6.375 3.5625C6.375 2.02075 5.10425 0.75 3.5625 0.75ZM14.7539 1.59961C14.4609 1.60327 14.1643 1.62524 13.875 1.6582C11.5605 1.9292 9.3999 3.11572 7.75195 4.76367C6.59473 5.91724 5.63525 7.57617 5.32031 10.6523C5.30933 10.6816 5.29834 10.7109 5.29102 10.7402C5.29102 10.7512 5.29102 10.7585 5.29102 10.7695C5.26904 10.8171 5.24707 10.8647 5.23242 10.916C5.22876 10.938 5.23608 10.949 5.23242 10.9746C5.23242 11.0039 5.23242 11.0332 5.23242 11.0625C5.23242 11.0735 5.23242 11.0808 5.23242 11.0918C5.23608 11.1504 5.24707 11.209 5.26172 11.2676C5.27637 11.3262 5.29468 11.3884 5.32031 11.4434C5.36792 12.2856 5.48511 13.1462 5.78906 13.9629H5.75977C5.77441 14.0435 5.86963 14.4463 5.87695 14.8418C5.88062 15.1384 5.77441 15.4094 5.75977 15.4863C5.18848 16.054 4.50366 16.6472 3.85547 17.1562C3.20728 17.6653 2.64697 18.1047 2.24414 18.5039H2.21484C1.7168 19.0129 1.51538 19.7893 1.6582 20.4375C1.80103 21.093 2.17822 21.6606 2.68359 22.166C3.1853 22.6677 3.75659 23.0413 4.41211 23.1914C5.06763 23.3416 5.86231 23.1475 6.375 22.6348C6.78516 22.2246 7.18066 21.646 7.69336 20.9941C8.20606 20.3423 8.78833 19.6355 9.36328 19.0605C9.29736 19.1265 9.58301 18.9727 9.94922 18.9727C10.2458 18.9727 10.4912 19.002 10.6816 19.0312C10.7292 19.0386 10.8281 19.0569 10.8574 19.0605C11.6741 19.3645 12.5347 19.478 13.377 19.5293C13.3879 19.5293 13.3953 19.5586 13.4063 19.5586C13.4722 19.5769 13.5417 19.5842 13.6113 19.5879C13.6406 19.5989 13.6699 19.6099 13.6992 19.6172C13.7285 19.6172 13.7578 19.6172 13.7871 19.6172C13.8054 19.6172 13.8274 19.6172 13.8457 19.6172C13.8567 19.6172 13.864 19.6172 13.875 19.6172C13.9336 19.6135 13.9922 19.6025 14.0508 19.5879C14.0874 19.5842 14.1021 19.5623 14.1387 19.5586C14.1497 19.5586 14.157 19.5586 14.168 19.5586C16.9915 19.3242 18.8848 18.3025 20.0859 17.0977C21.7339 15.4497 22.9204 13.2891 23.1914 10.9746C23.4624 8.66016 22.741 6.18823 20.7012 4.14844C18.9177 2.36499 16.8047 1.58496 14.7539 1.59961ZM3.5625 2.625C4.08984 2.625 4.5 3.03516 4.5 3.5625C4.5 4.08984 4.08984 4.5 3.5625 4.5C3.03516 4.5 2.625 4.08984 2.625 3.5625C2.625 3.03516 3.03516 2.625 3.5625 2.625ZM14.7539 3.47461C16.3359 3.44531 17.9216 4.00561 19.3828 5.4668C21.0564 7.13672 21.5288 8.96411 21.3164 10.7695C21.104 12.575 20.1555 14.3914 18.7676 15.7793C17.8337 16.7131 16.4788 17.4419 14.1094 17.6543L7.19531 10.7402C7.46997 8.09619 8.12183 7.08911 9.09961 6.11133C10.4875 4.72339 12.271 3.74561 14.0801 3.5332C14.3071 3.50757 14.5269 3.47827 14.7539 3.47461ZM7.63477 13.875L10.9746 17.1855C10.7256 17.1453 10.4143 17.0977 9.94922 17.0977C9.37793 17.1013 8.65283 17.1343 8.04492 17.7422C7.37109 18.416 6.7522 19.1558 6.22852 19.8223C5.70483 20.4888 5.23975 21.104 5.02734 21.3164C4.91748 21.4263 4.97241 21.408 4.82227 21.375C4.67212 21.342 4.36816 21.1553 4.03125 20.8184C3.70166 20.4888 3.53687 20.1848 3.50391 20.0273C3.47095 19.8699 3.43799 19.9138 3.5332 19.8223C3.73096 19.6245 4.32788 19.1484 4.99805 18.6211C5.66821 18.0937 6.43359 17.4785 7.10742 16.8047C7.75562 16.1565 7.76294 15.4058 7.75195 14.8125C7.74463 14.3621 7.67505 14.0984 7.63477 13.875Z" fill="black"/>
</svg>
