<svg width="29" height="30" viewBox="0 0 29 30" fill="none" xmlns="http://www.w3.org/2000/svg">
<path d="M28.3341 25.5053C28.3341 27.1326 27.0149 28.4518 25.3876 28.4518C23.7604 28.4518 22.4412 27.1326 22.4412 25.5053C22.4412 23.878 23.7604 22.5588 25.3876 22.5588C27.0149 22.5588 28.3341 23.878 28.3341 25.5053Z" stroke="#121212"/>
<path fill-rule="evenodd" clip-rule="evenodd" d="M26.8012 3.1147C23.2824 -0.411178 16.7141 0.423528 12.1682 4.97647C9.40294 7.73647 8.01941 11.25 8.14471 14.3665C7.99118 14.5059 7.90647 14.7159 7.95765 14.9435C8.77294 18.6459 5.52588 22.4541 5.49059 22.4947C5.44824 22.5441 5.41647 22.6041 5.3953 22.6641L1.1953 26.8641C0.68706 27.3724 0.667648 28.1771 1.15294 28.6641L1.19177 28.6994C1.67177 29.1847 2.48 29.1671 2.98647 28.6553L7.31882 24.3282C7.61353 24.1041 11.7924 21.0265 14.8012 21.8824C15.0006 21.9406 15.1947 21.8876 15.3412 21.7729C18.5124 21.9688 22.1194 20.5782 24.9447 17.7494C29.4906 13.2018 30.3235 6.63529 26.8012 3.1147ZM11.75 18.2471C11.2982 17.7971 10.9524 17.2765 10.6841 16.7135L13.0753 14.3206L15.5971 16.8441L13.1794 19.2635C12.6553 19.0006 12.17 18.6688 11.75 18.2471ZM14.3247 13.0747L16.82 10.5759L19.3435 13.0994L16.8447 15.5947L14.3247 13.0747ZM16.8429 8.10882L14.2682 5.53412C15.2176 4.69941 16.2394 4.03941 17.2841 3.55588L19.3418 5.61176L16.8429 8.10882ZM20.5629 6.83294L23.0865 9.35647L20.5894 11.8518L18.0676 9.33176L20.5629 6.83294ZM13.0206 6.77823L15.5971 9.35647L13.1 11.8518L11.0441 9.79412C11.5294 8.75294 12.1876 7.72941 13.0206 6.77823ZM20.5629 14.3206L23.2171 16.9729C22.2676 17.8076 21.2441 18.4659 20.2012 18.9512L18.0676 16.8176L20.5629 14.3206ZM21.8106 13.0747L24.3076 10.5759L26.4394 12.7094C25.9576 13.7541 25.2976 14.7776 24.4629 15.7253L21.8106 13.0747ZM27.1047 10.8829L25.5535 9.33176L27.3324 7.55118C27.4876 8.59765 27.4047 9.73588 27.1047 10.8829ZM25.7353 4.26C26.1553 4.68176 26.4871 5.16706 26.7482 5.69117L24.3306 8.10882L21.8088 5.58706L24.2 3.19765C24.7647 3.46235 25.2853 3.81 25.7353 4.26ZM22.3029 2.64882L20.5876 4.36588L19.1124 2.89059C20.2118 2.6047 21.2935 2.52176 22.3029 2.64882ZM10.3806 11.6241L11.8524 13.0994L10.1353 14.8165C10.01 13.8053 10.0912 12.7235 10.3806 11.6241ZM7.64353 22.6094C7.60294 22.5512 7.58 22.4841 7.53059 22.4329L7.49353 22.3959C7.44235 22.3447 7.37706 22.3235 7.31882 22.2829C7.95941 21.3247 8.79235 19.8247 9.17353 18.0918C9.48941 18.6547 9.87588 19.1806 10.3471 19.65C10.7882 20.0929 11.2753 20.4671 11.8047 20.7741C10.1565 21.1729 8.63 21.9918 7.64353 22.6094ZM15.0412 19.8441L16.82 18.0635L18.3712 19.6147C17.2224 19.9165 16.0859 19.9994 15.0412 19.8441Z" fill="#121212"/>
</svg>
