<svg width="28" height="26" viewBox="0 0 28 26" fill="none" xmlns="http://www.w3.org/2000/svg">
<path d="M27.6153 9.60531C27.5075 9.42344 27.3116 9.30344 27.0875 9.30344C27.0641 9.30344 27.0416 9.30437 27.0191 9.30719H27.0219C26.8147 9.31187 26.57 9.31469 26.3253 9.31469C23.016 9.31469 19.8285 8.79062 16.8425 7.82125L17.0591 7.88219C17.5203 5.91906 17.871 3.58562 18.0378 1.20062L18.0463 1.05719C18.0472 1.04219 18.0481 1.02437 18.0481 1.0075C18.0481 0.619375 17.7331 0.304375 17.345 0.304375C17.2644 0.304375 17.1866 0.3175 17.1144 0.342812L17.1191 0.340937C14.4163 1.26906 11.301 1.80531 8.06096 1.80531C5.59533 1.80531 3.20283 1.495 0.919082 0.910937L1.11783 0.954062C1.07002 0.942812 1.01564 0.93625 0.960332 0.93625C0.775645 0.93625 0.606894 1.00656 0.480332 1.12187L0.48127 1.12094C0.341582 1.25031 0.254395 1.43406 0.254395 1.63844C0.254395 1.67406 0.257207 1.70969 0.261894 1.74437V1.74062C1.66533 11.2403 4.78252 17.2675 8.64783 18.0709C9.3519 22.1987 11.0178 24.8622 13.5435 25.5391C13.9128 25.6412 14.3366 25.7003 14.7735 25.7003C14.7744 25.7003 14.7763 25.7003 14.7772 25.7003C19.0878 25.7003 23.9272 19.9778 27.695 10.2625C27.725 10.1875 27.7419 10.0994 27.7419 10.0084C27.7419 9.85656 27.6941 9.71594 27.6125 9.60156L27.6144 9.60344L27.6153 9.60531ZM1.81158 2.54687C3.70064 2.96969 5.87096 3.21156 8.09752 3.21156C11.1144 3.21156 14.0272 2.76719 16.775 1.93937L16.5622 1.99469C16.3738 4.05719 16.0766 5.91344 15.666 7.72562L15.7213 7.435C13.5031 6.62406 11.6094 5.71469 9.81971 4.64781L9.97814 4.735C9.87596 4.675 9.75221 4.63937 9.62096 4.63937C9.51221 4.63937 9.40814 4.66375 9.31627 4.70781L9.32096 4.70594C9.11377 4.80625 8.96471 4.99844 8.92815 5.22906L8.92721 5.23281C8.89252 5.45406 8.86908 5.665 8.83721 5.88344C8.79971 5.7175 8.70596 5.57781 8.57846 5.48125L8.57658 5.48031C8.46221 5.39687 8.31877 5.34625 8.16315 5.34625C7.93064 5.34625 7.72439 5.45875 7.59596 5.63312L7.59502 5.635C7.28189 6.06625 6.8169 6.58094 6.37533 6.58844H6.36502C5.94877 6.58844 5.50533 6.13469 5.20627 5.75125C5.07689 5.5825 4.87439 5.47469 4.64752 5.47469C4.25939 5.47469 3.94439 5.78969 3.94439 6.17781C3.94439 6.34469 4.00252 6.4975 4.09908 6.61844L4.09815 6.6175C4.59033 7.38719 5.40783 7.91125 6.35283 7.99375L6.36408 7.99469H6.39971C7.40377 7.885 8.25033 7.30281 8.72377 6.47781L8.73127 6.46281C8.74346 6.44031 8.75658 6.41406 8.7669 6.38594L8.76877 6.38125C8.53533 8.09031 8.37783 9.72156 8.30939 11.2459C7.70377 11.6387 7.19283 12.1216 6.78221 12.6812L6.77096 12.6972C6.68189 12.8134 6.62846 12.9616 6.62846 13.1209C6.62846 13.5091 6.94346 13.8241 7.33158 13.8241C7.56033 13.8241 7.76283 13.7153 7.89127 13.5466L7.89221 13.5447C8.01971 13.3759 8.14158 13.2616 8.26627 13.1219C8.26627 13.1462 8.26627 13.1753 8.26627 13.2053C8.26627 14.3819 8.32908 15.5425 8.45096 16.6862L8.43877 16.5438C6.12971 15.6091 3.29939 11.5563 1.81252 2.545L1.81158 2.54687ZM13.9081 24.1825C10.895 23.3753 8.62533 17.5872 10.1675 6.46281C14.7228 9.08125 20.1706 10.6525 25.9803 10.7228H26.001C21.7766 21.1159 16.9269 24.985 13.9081 24.1825ZM12.1316 13.1087C12.5619 12.7591 13.1806 12.3662 13.6503 12.4825C14.1491 12.6053 14.5363 13.2888 14.7735 13.8419C14.8841 14.0941 15.1316 14.2675 15.4194 14.2675C15.8075 14.2675 16.1225 13.9525 16.1225 13.5644C16.1225 13.4641 16.1019 13.3684 16.0635 13.2822L16.0653 13.2869C15.7541 12.2659 14.9881 11.4691 14.0085 11.1231L13.985 11.1156C13.8406 11.0922 13.6747 11.0791 13.506 11.0791C12.6219 11.0791 11.8222 11.4381 11.2438 12.0175C11.0844 12.1478 10.9831 12.3438 10.9831 12.5631C10.9831 12.9513 11.2981 13.2662 11.6863 13.2662C11.856 13.2662 12.0116 13.2063 12.1325 13.1059L12.1316 13.1069V13.1087ZM18.3547 14.7766C18.7831 14.4278 19.4169 14.0322 19.8706 14.1503C20.3703 14.2731 20.7585 14.9575 20.9947 15.5087C21.1044 15.7619 21.3528 15.9362 21.6416 15.9362C22.0297 15.9362 22.3447 15.6212 22.3447 15.2331C22.3447 15.1328 22.3241 15.0372 22.2856 14.9509L22.2875 14.9556C21.9763 13.9338 21.2085 13.1369 20.2288 12.7909L20.2053 12.7834C20.0591 12.76 19.8913 12.7459 19.7197 12.7459C18.8375 12.7459 18.0397 13.105 17.465 13.6862C17.3056 13.8166 17.2053 14.0125 17.2053 14.2319C17.2053 14.62 17.5203 14.935 17.9085 14.935C18.0781 14.935 18.2347 14.875 18.3566 14.7737L18.3556 14.7747L18.3547 14.7766ZM17.7753 18.6784C17.27 19.2437 16.5388 19.5981 15.7241 19.5981C15.6716 19.5981 15.6191 19.5963 15.5675 19.5934H15.575C14.9328 19.4491 14.3338 18.7656 13.7919 17.5647C13.6785 17.3191 13.4347 17.1512 13.1506 17.1512C12.7625 17.1512 12.4475 17.4662 12.4475 17.8544C12.4475 17.9594 12.47 18.0587 12.5113 18.1478L12.5094 18.1431C13.2528 19.7913 14.1538 20.7137 15.2647 20.965C15.4363 21.0053 15.6341 21.0287 15.8375 21.0287C15.8413 21.0287 15.845 21.0287 15.8488 21.0287C16.9606 20.9453 17.9469 20.4728 18.6875 19.75L18.6866 19.7509C18.8385 19.6206 18.935 19.4294 18.935 19.2147C18.935 18.8256 18.62 18.5106 18.231 18.5106C18.0566 18.5106 17.8972 18.5744 17.7744 18.6794L17.7753 18.6784Z" fill="black"/>
</svg>
