<svg width="30" height="30" viewBox="0 0 30 30" fill="none" xmlns="http://www.w3.org/2000/svg">
<g clip-path="url(#clip0_2493_13007)">
<path fill-rule="evenodd" clip-rule="evenodd" d="M28.125 26.25C28.125 27.285 27.285 28.125 26.25 28.125H3.75C2.715 28.125 1.875 27.285 1.875 26.25V11.25C1.875 10.215 2.715 9.37502 3.75 9.37502H26.25C27.285 9.37502 28.125 10.215 28.125 11.25V26.25ZM26.25 7.50002H17.5744L25.7981 1.84223C26.2322 1.54317 26.3559 0.92624 26.0747 0.46499C25.7944 0.00373994 25.2141 -0.128415 24.7791 0.170648C24.7791 0.170648 15.7697 6.39096 15.0084 6.85034L5.22094 0.170648C4.78688 -0.128415 4.20564 0.00373994 3.92532 0.46499C3.64407 0.92624 3.76781 1.54317 4.20187 1.84223L12.4256 7.50002H3.75C1.67906 7.50002 0 9.17908 0 11.25V26.25C0 28.321 1.67906 30 3.75 30H26.25C28.3209 30 30 28.321 30 26.25V11.25C30 9.17908 28.3209 7.50002 26.25 7.50002ZM25.3125 21.5625H21.5625C21.0441 21.5625 20.625 21.9816 20.625 22.5C20.625 23.0185 21.0441 23.4375 21.5625 23.4375H25.3125C25.8309 23.4375 26.25 23.0185 26.25 22.5C26.25 21.9816 25.8309 21.5625 25.3125 21.5625ZM16.875 23.4375C16.875 23.956 16.4559 24.375 15.9375 24.375H6.5625C6.04406 24.375 5.625 23.956 5.625 23.4375V14.0625C5.625 13.545 6.04406 13.125 6.5625 13.125H15.9375C16.4559 13.125 16.875 13.545 16.875 14.0625V23.4375ZM16.875 11.25H5.625C4.59 11.25 3.75 12.09 3.75 13.125V24.375C3.75 25.41 4.59 26.25 5.625 26.25H16.875C17.91 26.25 18.75 25.41 18.75 24.375V13.125C18.75 12.09 17.91 11.25 16.875 11.25ZM25.3125 24.375H21.5625C21.0441 24.375 20.625 24.7941 20.625 25.3125C20.625 25.831 21.0441 26.25 21.5625 26.25H25.3125C25.8309 26.25 26.25 25.831 26.25 25.3125C26.25 24.7941 25.8309 24.375 25.3125 24.375ZM22.5 13.125H24.375V15H22.5V13.125ZM23.4375 11.25C21.8841 11.25 20.625 12.5091 20.625 14.0625C20.625 15.616 21.8841 16.875 23.4375 16.875C24.9909 16.875 26.25 15.616 26.25 14.0625C26.25 12.5091 24.9909 11.25 23.4375 11.25Z" fill="#121212"/>
</g>
<defs>
<clipPath id="clip0_2493_13007">
<rect width="30" height="30" fill="white"/>
</clipPath>
</defs>
</svg>
