<svg width="22" height="22" viewBox="0 0 22 22" fill="none" xmlns="http://www.w3.org/2000/svg">
<path d="M10.9994 0C4.93432 0 0 4.93462 0 11.0002C0.000100195 13.9834 1.19443 16.6925 3.1293 18.676C3.14333 18.6917 3.15796 18.7066 3.17319 18.7209C5.16898 20.7438 7.94028 22 10.9996 22C13.9379 21.9998 16.7005 20.8556 18.7782 18.7779C20.856 16.7003 22.0002 13.938 22 11.0002C22 4.93472 17.0653 0.000100195 10.9994 0ZM4.36471 17.7875C3.30875 13.6761 5.11738 9.35284 8.81248 7.21938C8.98191 7.12149 9.15505 7.02941 9.33019 6.94194C9.86514 8.07114 10.1802 9.30785 10.2359 10.585C8.75637 11.5228 7.54321 12.7919 6.67031 14.263C6.66229 14.2754 6.65498 14.288 6.64776 14.3007C5.89299 15.5843 5.39732 17.0198 5.20946 18.522C4.91358 18.2937 4.63153 18.0484 4.36471 17.7875ZM8.42914 1.85672C12.5239 2.99414 15.3689 6.72501 15.3689 10.9957C15.3689 11.1926 15.3622 11.3897 15.35 11.586C14.1035 11.485 12.8737 11.1391 11.7386 10.5482C11.6672 8.81018 11.1813 7.13632 10.3548 5.65242C10.3363 5.61134 10.3149 5.57237 10.2903 5.5363C9.55784 4.2578 8.57011 3.126 7.37558 2.22223C7.71725 2.08066 8.06883 1.95812 8.42914 1.85672ZM11.0193 11.868C12.5807 12.6861 14.2981 13.1031 16.0192 13.1191C16.0228 13.1192 16.0265 13.1198 16.0301 13.1198C16.0331 13.1198 16.0361 13.1194 16.039 13.1194C16.0668 13.1196 16.0947 13.1207 16.1224 13.1207C17.5844 13.1207 19.0462 12.8302 20.4152 12.2517C20.3671 12.6203 20.2979 12.984 20.2078 13.3411C17.1753 16.3219 12.5195 16.9215 8.8192 14.7851C8.64917 14.687 8.48214 14.5827 8.31812 14.4743C9.0282 13.4464 9.94139 12.5552 11.0193 11.868ZM20.4864 10.5598C19.3437 11.15 18.1068 11.4931 16.8545 11.5892C16.865 11.3916 16.8718 11.1935 16.8718 10.9957C16.8718 7.01939 14.7418 3.44742 11.4428 1.51355C16.3287 1.73929 20.2623 5.67366 20.4864 10.5598ZM5.87596 3.00696C6.95747 3.70172 7.87235 4.60107 8.58113 5.63729C8.40549 5.72667 8.23145 5.81935 8.06102 5.91774C4.61831 7.90552 2.58985 11.535 2.5637 15.3578C1.88628 14.052 1.50293 12.57 1.50293 11.0001C1.50293 7.64902 3.24743 4.69796 5.87596 3.00696ZM17.7154 17.7151C15.9215 19.5089 13.5365 20.4969 10.9996 20.4971C9.42828 20.4971 7.94519 20.113 6.63834 19.4345C6.69886 18.1502 7.02019 16.9079 7.56305 15.7755C7.72887 15.8834 7.8969 15.9882 8.06793 16.0868C9.78658 17.079 11.6829 17.5618 13.5654 17.5618C15.4556 17.5618 17.3315 17.0745 18.9975 16.1267C18.6322 16.6942 18.2039 17.2267 17.7154 17.7151Z" fill="#121212"/>
</svg>
