<?xml version="1.0" encoding="utf-8"?><!-- Uploaded to: SVG Repo, www.svgrepo.com, Generator: SVG Repo Mixer Tools -->
<svg width="800px" height="800px" viewBox="0 -0.5 25 25" fill="none" xmlns="http://www.w3.org/2000/svg">
<path d="M6.25 7C6.25 6.58579 5.91421 6.25 5.5 6.25C5.08579 6.25 4.75 6.58579 4.75 7H6.25ZM20.25 7C20.25 6.58579 19.9142 6.25 19.5 6.25C19.0858 6.25 18.75 6.58579 18.75 7H20.25ZM4.75 7C4.75 7.41421 5.08579 7.75 5.5 7.75C5.91421 7.75 6.25 7.41421 6.25 7H4.75ZM18.75 7C18.75 7.41421 19.0858 7.75 19.5 7.75C19.9142 7.75 20.25 7.41421 20.25 7H18.75ZM5.5 6.25C5.08579 6.25 4.75 6.58579 4.75 7C4.75 7.41421 5.08579 7.75 5.5 7.75V6.25ZM19.5 7.75C19.9142 7.75 20.25 7.41421 20.25 7C20.25 6.58579 19.9142 6.25 19.5 6.25V7.75ZM14.5 4.25C14.0858 4.25 13.75 4.58579 13.75 5C13.75 5.41421 14.0858 5.75 14.5 5.75V4.25ZM17.5 5.75C17.9142 5.75 18.25 5.41421 18.25 5C18.25 4.58579 17.9142 4.25 17.5 4.25V5.75ZM17.25 14C17.25 13.5858 16.9142 13.25 16.5 13.25C16.0858 13.25 15.75 13.5858 15.75 14H17.25ZM9.25 14C9.25 13.5858 8.91421 13.25 8.5 13.25C8.08579 13.25 7.75 13.5858 7.75 14H9.25ZM15.75 14C15.75 14.4142 16.0858 14.75 16.5 14.75C16.9142 14.75 17.25 14.4142 17.25 14H15.75ZM7.75 14C7.75 14.4142 8.08579 14.75 8.5 14.75C8.91421 14.75 9.25 14.4142 9.25 14H7.75ZM16.8351 14.671C17.2057 14.4859 17.356 14.0355 17.171 13.6649C16.9859 13.2943 16.5355 13.144 16.1649 13.329L16.8351 14.671ZM8.16489 13.329C7.79432 13.5141 7.64395 13.9645 7.82903 14.3351C8.0141 14.7057 8.46454 14.856 8.83511 14.671L8.16489 13.329ZM4.75 7V19H6.25V7H4.75ZM4.75 19C4.75 20.5188 5.98122 21.75 7.5 21.75V20.25C6.80964 20.25 6.25 19.6904 6.25 19H4.75ZM7.5 21.75H17.5V20.25H7.5V21.75ZM17.5 21.75C19.0188 21.75 20.25 20.5188 20.25 19H18.75C18.75 19.6904 18.1904 20.25 17.5 20.25V21.75ZM20.25 19V7H18.75V19H20.25ZM6.25 7V5H4.75V7H6.25ZM6.25 5C6.25 4.30964 6.80964 3.75 7.5 3.75V2.25C5.98122 2.25 4.75 3.48122 4.75 5H6.25ZM7.5 3.75H17.5V2.25H7.5V3.75ZM17.5 3.75C18.1904 3.75 18.75 4.30964 18.75 5H20.25C20.25 3.48122 19.0188 2.25 17.5 2.25V3.75ZM18.75 5V7H20.25V5H18.75ZM5.5 7.75H19.5V6.25H5.5V7.75ZM14.5 5.75H17.5V4.25H14.5V5.75ZM15.75 14C15.75 15.7949 14.2949 17.25 12.5 17.25V18.75C15.1234 18.75 17.25 16.6234 17.25 14H15.75ZM12.5 17.25C10.7051 17.25 9.25 15.7949 9.25 14H7.75C7.75 16.6234 9.87665 18.75 12.5 18.75V17.25ZM17.25 14C17.25 11.3766 15.1234 9.25 12.5 9.25V10.75C14.2949 10.75 15.75 12.2051 15.75 14H17.25ZM12.5 9.25C9.87665 9.25 7.75 11.3766 7.75 14H9.25C9.25 12.2051 10.7051 10.75 12.5 10.75V9.25ZM16.1649 13.329C15.7821 13.5202 15.1364 13.7539 14.4898 13.8206C13.8274 13.8889 13.3297 13.769 13.0303 13.4697L11.9697 14.5303C12.7373 15.298 13.7951 15.4001 14.6437 15.3127C15.5081 15.2236 16.3289 14.9238 16.8351 14.671L16.1649 13.329ZM13.0303 13.4697C12.2627 12.702 11.2049 12.5999 10.3563 12.6873C9.49188 12.7764 8.67109 13.0762 8.16489 13.329L8.83511 14.671C9.21791 14.4798 9.86362 14.2461 10.5102 14.1794C11.1726 14.1111 11.6703 14.231 11.9697 14.5303L13.0303 13.4697Z" fill="#000000"/>
</svg>