<svg width="28" height="30" viewBox="0 0 28 30" fill="none" xmlns="http://www.w3.org/2000/svg">
<path d="M1.14282 7.5H26.8571" stroke="#000001" stroke-width="2" stroke-linecap="round" stroke-linejoin="round"/>
<path d="M4.35706 7.5H23.6428V26.7857C23.6428 27.354 23.417 27.8991 23.0151 28.3009C22.6133 28.7028 22.0682 28.9286 21.4999 28.9286H6.49991C5.93159 28.9286 5.38655 28.7028 4.98468 28.3009C4.58282 27.8991 4.35706 27.354 4.35706 26.7857V7.5Z" stroke="#000001" stroke-width="2" stroke-linecap="round" stroke-linejoin="round"/>
<path d="M8.64282 7.5V6.42857C8.64282 5.00777 9.20723 3.64516 10.2119 2.6405C11.2166 1.63584 12.5792 1.07143 14 1.07143C15.4208 1.07143 16.7834 1.63584 17.788 2.6405C18.7927 3.64516 19.3571 5.00777 19.3571 6.42857V7.5" stroke="#000001" stroke-width="2" stroke-linecap="round" stroke-linejoin="round"/>
<path d="M10.7856 11.7857V23.5714" stroke="#000001" stroke-width="2" stroke-linecap="round" stroke-linejoin="round"/>
<path d="M17.2142 11.7857V23.5714" stroke="#000001" stroke-width="2" stroke-linecap="round" stroke-linejoin="round"/>
</svg>
