<svg width="30" height="30" viewBox="0 0 30 30" fill="none" xmlns="http://www.w3.org/2000/svg">
<g clip-path="url(#clip0_2493_13055)">
<path d="M25.2136 23.2886H24.5678C24.5673 23.2886 24.5667 23.2886 24.5661 23.2886H23.7334C23.5718 21.8771 22.7132 20.6749 21.5108 20.0357C22.7132 19.3965 23.5718 18.1943 23.7334 16.7828H23.9716C24.2389 16.7828 24.4555 16.5661 24.4555 16.2989C24.4555 16.0317 24.2389 15.815 23.9716 15.815H23.7619V10.7481H23.9716C24.2389 10.7481 24.4555 10.5314 24.4555 10.2642C24.4555 9.99697 24.2389 9.78032 23.9716 9.78032H23.7619V4.71342H23.9716C24.2389 4.71342 24.4555 4.49677 24.4555 4.22955C24.4555 3.96232 24.2389 3.74568 23.9716 3.74568H23.7334C23.4925 1.64065 21.7009 0 19.5324 0H10.4675C8.299 0 6.50745 1.64065 6.26649 3.74568H6.02823C5.761 3.74568 5.54436 3.96232 5.54436 4.22955C5.54436 4.49677 5.761 4.71342 6.02823 4.71342H6.23797V9.78039H6.09068C5.82345 9.78039 5.60681 9.99703 5.60681 10.2643C5.60681 10.5315 5.82345 10.7481 6.09068 10.7481H6.23797V15.8151H6.09068C5.82345 15.8151 5.60681 16.0317 5.60681 16.299C5.60681 16.5662 5.82345 16.7828 6.09068 16.7828H6.26649C6.42804 18.1943 7.28668 19.3965 8.48907 20.0357C7.28668 20.6749 6.42804 21.8772 6.26649 23.2886H5.43487C5.43358 23.2886 5.43229 23.2886 5.431 23.2886H4.78642C4.5192 23.2886 4.30255 23.5053 4.30255 23.7725C4.30255 24.0397 4.5192 24.2564 4.78642 24.2564H4.99365L5.42345 28.5573C5.50294 29.3528 6.21804 30 7.01752 30H22.9824C23.7819 30 24.497 29.3528 24.5765 28.5572L25.0063 24.2563H25.2135C25.4807 24.2563 25.6974 24.0397 25.6974 23.7724C25.6974 23.5052 25.4808 23.2886 25.2136 23.2886ZM7.20571 4.71342H8.65733C8.92455 4.71342 9.1412 4.49677 9.1412 4.22955C9.1412 3.96232 8.92455 3.74568 8.65733 3.74568H7.24184C7.47629 2.17581 8.83333 0.967742 10.4675 0.967742H19.5324C21.1666 0.967742 22.5236 2.17581 22.7581 3.74568H10.5928C10.3256 3.74568 10.1089 3.96232 10.1089 4.22955C10.1089 4.49677 10.3256 4.71342 10.5928 4.71342H22.7942V9.78039H7.20571V4.71342ZM7.24178 16.7828H19.4071C19.6744 16.7828 19.891 16.5662 19.891 16.299C19.891 16.0317 19.6744 15.8151 19.4071 15.8151H7.20571V10.7481H22.7942V15.8151H21.3426C21.0754 15.8151 20.8587 16.0317 20.8587 16.299C20.8587 16.5662 21.0754 16.7828 21.3426 16.7828H22.7581C22.5355 18.2733 21.3007 19.4366 19.7779 19.5506C19.6966 19.5459 19.6149 19.5429 19.5324 19.5429C19.4877 19.5429 19.4447 19.5494 19.4036 19.5608H10.5963C10.5553 19.5494 10.5122 19.5429 10.4676 19.5429C10.3851 19.5429 10.3034 19.5459 10.222 19.5506C8.6992 19.4366 7.46442 18.2733 7.24178 16.7828ZM10.222 20.5208C10.3033 20.5255 10.385 20.5285 10.4675 20.5285H19.5324C19.6149 20.5285 19.6966 20.5255 19.778 20.5208C21.3008 20.6348 22.5355 21.7981 22.7582 23.2886H7.24178C7.46442 21.7981 8.6992 20.6348 10.222 20.5208ZM23.6136 28.461C23.5832 28.7654 23.2883 29.0323 22.9824 29.0323H7.01752C6.71171 29.0323 6.41674 28.7654 6.38636 28.461L5.96616 24.2563H24.0338L23.6136 28.461Z" fill="#121212"/>
<path d="M21.2908 7.29477C20.6123 7.29477 19.99 6.97884 19.5837 6.42787C19.4924 6.30419 19.3479 6.23123 19.1943 6.23123H19.1941C19.0404 6.23129 18.8958 6.30439 18.8046 6.42813C18.4049 6.97077 17.7665 7.29477 17.0969 7.29477C16.4183 7.29477 15.7961 6.97884 15.3897 6.42787C15.2986 6.30426 15.1541 6.23129 15.0005 6.23123H15.0003C14.8468 6.23123 14.7024 6.30406 14.6112 6.42755C14.204 6.97864 13.5814 7.29471 12.903 7.29471C12.2244 7.29471 11.6022 6.97877 11.1958 6.42781C11.1046 6.30413 10.9601 6.23116 10.8064 6.23116H10.8062C10.6525 6.23123 10.5079 6.30432 10.4168 6.42806C10.0171 6.97071 9.3787 7.29471 8.70909 7.29471C8.44186 7.29471 8.22522 7.51135 8.22522 7.77858C8.22522 8.04581 8.44186 8.26245 8.70909 8.26245C9.48922 8.26245 10.2399 7.96129 10.8066 7.43729C11.3736 7.96129 12.1239 8.26245 12.903 8.26245C13.6821 8.26245 14.4326 7.96116 15.0001 7.43703C15.5672 7.96123 16.3175 8.26245 17.0969 8.26245C17.877 8.26245 18.6277 7.96135 19.1944 7.43729C19.7614 7.96129 20.5116 8.26245 21.2908 8.26245C21.5581 8.26245 21.7747 8.04581 21.7747 7.77858C21.7747 7.51135 21.5581 7.29477 21.2908 7.29477Z" fill="#121212"/>
</g>
<defs>
<clipPath id="clip0_2493_13055">
<rect width="30" height="30" fill="white"/>
</clipPath>
</defs>
</svg>
