<svg width="28" height="21" viewBox="0 0 28 21" fill="none" xmlns="http://www.w3.org/2000/svg">
<path fill-rule="evenodd" clip-rule="evenodd" d="M2.509 7.5095C8.85502 1.1635 19.144 1.1635 25.49 7.5095C25.9781 7.99762 26.7696 7.99762 27.2577 7.5095C27.7459 7.02137 27.7459 6.2299 27.2577 5.74175C19.9354 -1.58059 8.06356 -1.58059 0.741235 5.74175C0.253085 6.2299 0.253085 7.02137 0.741235 7.5095C1.2294 7.99762 2.02085 7.99762 2.509 7.5095ZM6.04453 11.045C10.4379 6.65162 17.561 6.65162 21.9545 11.045C22.4426 11.5332 23.234 11.5332 23.7222 11.045C24.2104 10.5569 24.2104 9.76537 23.7222 9.27725C18.3525 3.90757 9.64648 3.90757 4.27677 9.27725C3.78861 9.76537 3.78861 10.5569 4.27677 11.045C4.76492 11.5332 5.55638 11.5332 6.04453 11.045ZM9.58007 14.5806C12.0209 12.1397 15.9781 12.1397 18.4189 14.5806C18.9071 15.0687 19.6985 15.0687 20.1866 14.5806C20.6749 14.0924 20.6749 13.301 20.1866 12.8129C16.7696 9.39575 11.2294 9.39575 7.8123 12.8129C7.32415 13.301 7.32415 14.0924 7.8123 14.5806C8.30046 15.0687 9.09191 15.0687 9.58007 14.5806ZM11.3476 16.3484C12.8121 14.8839 15.1865 14.8839 16.6509 16.3484C17.1391 16.8365 17.1391 17.628 16.6509 18.1161L14.8831 19.8839C14.395 20.372 13.6035 20.372 13.1154 19.8839L11.3476 18.1161C10.8595 17.628 10.8595 16.8365 11.3476 16.3484Z" fill="#121212"/>
</svg>
