<svg width="25" height="26" viewBox="0 0 25 26" fill="none" xmlns="http://www.w3.org/2000/svg">
<path d="M15.607 24.4367C15.9281 24.1047 16.1266 23.6531 16.1266 23.1555V11.7172H18.0961C18.1125 11.7172 18.1273 11.7164 18.1422 11.7133C18.8305 11.6469 19.3211 10.6984 19.3211 10.0516C19.3211 9.72891 19.1984 9.42188 18.9844 9.19688C18.9758 9.18672 18.0953 8.17578 17.2625 7.31094C16.5352 6.53594 15.5289 5.94609 14.4312 5.63984C15.0187 5.14844 15.3742 4.41406 15.3742 3.62578C15.3742 2.17812 14.1836 1 12.7195 1C11.2562 1 10.0664 2.17812 10.0664 3.62578C10.0664 4.41406 10.4211 5.14844 11.0086 5.63984C9.925 5.94219 8.93906 6.52031 8.17969 7.30781C7.34297 8.17578 6.46328 9.18672 6.4625 9.18828C6.24062 9.42266 6.11875 9.72891 6.11875 10.0516C6.11875 10.6984 6.60859 11.6469 7.29688 11.7133C7.31172 11.7156 7.32734 11.7172 7.34297 11.7172H9.31406V12.8766L6.55781 15.4695C6.00469 16.1156 6.08203 17.0914 6.71953 17.6359L10.0477 20.7227C10.6375 21.2273 11.8055 21.2078 12.4367 20.7352V23.1547L12.4391 23.1555C12.4391 23.6531 12.6367 24.1047 12.9586 24.4367H1V25H24.4375V24.4367H15.607ZM7.37422 11.1547C7.05234 11.1547 6.68047 10.4867 6.68047 10.0508C6.68047 9.87266 6.74766 9.70312 6.87813 9.56484C6.88672 9.55469 7.75781 8.55391 8.58438 7.69688C9.41016 6.83984 10.5352 6.25391 11.7547 6.04609C11.8031 6.04297 11.8508 6.02813 11.8922 6C11.9719 5.94844 12.0203 5.85859 12.0203 5.76328C12.0203 5.68047 11.9844 5.60234 11.9211 5.54922C11.8922 5.52422 11.8586 5.50625 11.8234 5.49531C11.0961 5.15703 10.6281 4.42656 10.6281 3.62344C10.6281 2.48594 11.5656 1.56016 12.7188 1.56016C13.8727 1.56016 14.8109 2.48594 14.8109 3.62344C14.8109 4.42812 14.3406 5.16016 13.6102 5.49687C13.5766 5.50859 13.5453 5.52578 13.518 5.54922C13.4547 5.60234 13.4187 5.68203 13.4187 5.76484C13.4187 5.86016 13.4672 5.94844 13.5469 6.00078C13.5906 6.02891 13.6391 6.04375 13.6891 6.04609C14.9156 6.25625 16.068 6.85547 16.8562 7.69609C17.682 8.55312 18.5523 9.55313 18.5688 9.57266C18.6914 9.70234 18.7586 9.87109 18.7586 10.0492C18.7586 10.4852 18.3867 11.1531 18.0656 11.1531H13.0016V8.59297C13.2273 8.67422 13.4727 8.82734 13.6984 8.97109C14.0336 9.18516 14.3227 9.37031 14.6063 9.37188H15.7945C15.95 9.37188 16.0758 9.24609 16.0758 9.09062C16.0758 8.93516 15.9492 8.80938 15.7945 8.80938H14.607C14.4875 8.80859 14.2172 8.63594 14.0008 8.49766C13.6141 8.25078 13.1766 7.97109 12.7133 7.97109C12.2625 7.97109 11.825 8.25078 11.4391 8.49766C11.2219 8.63594 10.9516 8.80859 10.8344 8.80938H9.64609C9.49063 8.80938 9.36484 8.93516 9.36484 9.09062C9.36484 9.24609 9.49063 9.37188 9.64609 9.37188H10.8359C11.1188 9.37031 11.4078 9.18516 11.7422 8.97109C11.9664 8.82812 12.2102 8.67578 12.4391 8.59453V11.1531H7.37422V11.1547ZM12.4367 18.3523L10.6742 16.6039C11.0211 16.2734 11.7039 15.6234 12 15.3398L12.4367 15.5281V18.3523ZM15.5641 23.1547C15.5641 23.8617 14.9898 24.4367 14.2828 24.4367C13.5758 24.4367 13.0016 23.8625 13.0016 23.1555L12.9992 23.1547V19.6594C13.0047 19.5844 13.0047 19.5102 12.9992 19.4352V15.3422C12.9992 15.2297 12.9328 15.1289 12.8289 15.0836L12.05 14.7484C11.9445 14.7031 11.8211 14.7273 11.7398 14.8086C11.6578 14.8914 10.0766 16.3945 10.0766 16.3945C10.0219 16.4469 9.98984 16.5188 9.98906 16.5953C9.98828 16.6719 10.018 16.7445 10.0719 16.7984L12.0961 18.8055C12.3016 18.982 12.4164 19.225 12.4359 19.475V19.6266C12.4203 19.8266 12.3438 20.0234 12.2047 20.1867C11.8633 20.5844 10.8258 20.6469 10.4211 20.3023L7.09297 17.2156C6.68281 16.8641 6.63359 16.2445 6.96328 15.8562L9.7875 13.2023C9.84375 13.1492 9.87578 13.075 9.87578 12.9977V11.7164H15.5633L15.5641 23.1547Z" fill="#121212" stroke="black" stroke-width="0.5"/>
</svg>
