<svg width="52" height="45" viewBox="0 0 52 45" fill="none" xmlns="http://www.w3.org/2000/svg">
<path fill-rule="evenodd" clip-rule="evenodd" d="M26.0175 0L26.8489 0.389186L50.3484 11.3892C51.3488 11.8575 51.7801 13.0481 51.3119 14.0485C50.8436 15.0488 49.653 15.4802 48.6526 15.0119L25.9845 4.40112L2.82118 14.824C1.81389 15.2772 0.629885 14.8281 0.176632 13.8208C-0.276621 12.8135 0.172515 11.6295 1.17981 11.1763L25.1803 0.376698L26.0175 0ZM26.0161 8.00229L26.8437 8.38656L40.8437 14.8866C41.8456 15.3517 42.2807 16.5409 41.8155 17.5428C41.3504 18.5447 40.1611 18.9797 39.1593 18.5146L25.9869 12.3989L12.3196 18.5256C11.3117 18.9774 10.1283 18.5266 9.67648 17.5187C9.22465 16.5108 9.67546 15.3274 10.6834 14.8756L25.1834 8.37556L26.0161 8.00229ZM26.2371 31.0602L47.501 22.6432V40.7006H27.501V36.7006C27.501 35.596 26.6056 34.7006 25.501 34.7006C24.3964 34.7006 23.501 35.596 23.501 36.7006V42.7006V44.7006H25.501H49.501H51.501V42.7006V20.4362C51.501 18.6714 49.7218 17.4622 48.0809 18.1117L25.5088 27.0465L3.43798 18.1242C1.79461 17.4599 0.00100987 18.6694 0.00100987 20.442V42.7006C0.00100987 43.8051 0.89644 44.7006 2.00101 44.7006C3.10558 44.7006 4.00101 43.8051 4.00101 42.7006V22.6663L24.7514 31.0548L25.4932 31.3547L26.2371 31.0602Z" fill="url(#paint0_linear_40_8)"/>
<defs>
<linearGradient id="paint0_linear_40_8" x1="1.96243" y1="11.7004" x2="51.5663" y2="43.3289" gradientUnits="userSpaceOnUse">
<stop stop-color="#00FBAA"/>
<stop offset="1" stop-color="#2A58D9"/>
</linearGradient>
</defs>
</svg>
