<svg width="22" height="21" viewBox="0 0 22 21" fill="none" xmlns="http://www.w3.org/2000/svg">
<path d="M6.125 0.655273L0.4375 3.49902V20.2503H21.5625V5.62534H11.8125V3.49902L6.125 0.655273ZM6.125 2.4704L10.1875 4.50165V18.6253H2.0625V4.50165L6.125 2.4704ZM3.6875 5.62534V7.25034H5.3125V5.62534H3.6875ZM6.9375 5.62534V7.25034H8.5625V5.62534H6.9375ZM11.8125 7.25034H19.9375V18.6253H11.8125V7.25034ZM3.6875 8.87534V10.5003H5.3125V8.87534H3.6875ZM6.9375 8.87534V10.5003H8.5625V8.87534H6.9375ZM13.4375 8.87534V10.5003H15.0625V8.87534H13.4375ZM16.6875 8.87534V10.5003H18.3125V8.87534H16.6875ZM3.6875 12.1253V13.7503H5.3125V12.1253H3.6875ZM6.9375 12.1253V13.7503H8.5625V12.1253H6.9375ZM13.4375 12.1253V13.7503H15.0625V12.1253H13.4375ZM16.6875 12.1253V13.7503H18.3125V12.1253H16.6875ZM3.6875 15.3753V17.0003H5.3125V15.3753H3.6875ZM6.9375 15.3753V17.0003H8.5625V15.3753H6.9375ZM13.4375 15.3753V17.0003H15.0625V15.3753H13.4375ZM16.6875 15.3753V17.0003H18.3125V15.3753H16.6875Z" fill="#018191"/>
</svg>
