<svg width="24" height="26" viewBox="0 0 24 26" fill="none" xmlns="http://www.w3.org/2000/svg">
<path d="M22.7 10.7H2M16.95 1.5V6.1M7.75 1.5V6.1M8.9 17.6L11.2 19.9L16.375 14.725M7.52 24.5H17.18C19.1122 24.5 20.0783 24.5 20.8163 24.124C21.4654 23.7932 21.9932 23.2654 22.324 22.6163C22.7 21.8783 22.7 20.9122 22.7 18.98V9.32C22.7 7.38782 22.7 6.42173 22.324 5.68373C21.9932 5.03457 21.4654 4.50679 20.8163 4.17603C20.0783 3.8 19.1122 3.8 17.18 3.8H7.52C5.58782 3.8 4.62173 3.8 3.88373 4.17603C3.23457 4.50679 2.70679 5.03457 2.37603 5.68373C2 6.42173 2 7.38782 2 9.32V18.98C2 20.9122 2 21.8783 2.37603 22.6163C2.70679 23.2654 3.23457 23.7932 3.88373 24.124C4.62173 24.5 5.58782 24.5 7.52 24.5Z" stroke="#018191" stroke-width="2.3" stroke-linecap="round" stroke-linejoin="round"/>
</svg>
