<svg width="209" height="191" viewBox="0 0 209 191" fill="none" xmlns="http://www.w3.org/2000/svg">
<path d="M118.674 54.7492C120.871 57.6929 120.266 61.8601 117.322 64.0567C114.377 66.2533 110.211 65.6483 108.014 62.7045C105.817 59.7608 106.423 55.5927 109.367 53.397C112.31 51.1996 116.478 51.8055 118.674 54.7492ZM99.5182 83.9435C106.316 93.0523 117.909 96.466 128.184 93.3037L160.324 136.374C160.622 136.773 161.078 137.023 161.573 137.06L170.908 137.752C171.761 137.815 172.53 137.24 172.712 136.404L174.707 127.261C174.813 126.774 174.703 126.267 174.406 125.868L170.436 120.547C170.163 120.183 169.758 119.94 169.307 119.876L164.991 119.248C164.052 119.111 163.402 118.239 163.538 117.302L163.981 114.255C164.118 113.317 163.467 112.445 162.528 112.309L159.482 111.866C158.544 111.729 157.893 110.858 158.03 109.919L158.657 105.603C158.722 105.153 158.606 104.695 158.335 104.329L155.699 100.797C155.426 100.432 155.019 100.19 154.568 100.125L150.253 99.4982C149.315 99.361 148.664 98.4895 148.801 97.5503L149.531 92.5319L149.501 92.4923L153.107 89.801C153.994 89.1398 154.033 87.8256 153.188 87.1126L144.14 79.4744C148.131 71.0091 147.44 60.6755 141.453 52.6518C137.039 46.7367 130.603 43.2215 123.819 42.3493C117.322 41.5141 110.505 43.103 104.84 47.3299C93.2601 55.9713 90.8777 72.3635 99.5182 83.9435Z" fill="#F18E90"/>
<circle cx="92.3169" cy="32.4337" r="2.5" fill="#C4C4C4"/>
<path d="M123.505 60.6066L123.505 42.1697C100.043 39.334 93.6152 60.7942 92.0082 68.271L115.39 68.6057C119.853 68.6696 123.505 65.0696 123.505 60.6066Z" fill="#F7FBFC" stroke="url(#paint0_linear_40002625_47443)" stroke-linejoin="round"/>
<path d="M99.0007 68.4001L93.0007 68.4001" stroke="#931602"/>
<path d="M97.5417 69.4516C98.5829 72.9744 96.5718 76.674 93.049 77.7143C89.5271 78.7555 85.8275 76.7444 84.7863 73.2225C83.7451 69.6996 85.7571 66.0001 89.279 64.9598C92.801 63.9177 96.5005 65.9288 97.5417 69.4516ZM69.461 90.2048C72.6828 101.104 82.3766 108.321 93.111 108.913L108.344 160.45C108.485 160.928 108.826 161.319 109.278 161.526L117.795 165.407C118.574 165.762 119.495 165.49 119.955 164.768L124.993 156.881C125.261 156.462 125.334 155.947 125.193 155.47L123.312 149.105C123.183 148.667 122.884 148.3 122.485 148.082L118.654 146C117.82 145.546 117.512 144.503 117.966 143.67L119.435 140.966C119.888 140.132 119.58 139.09 118.746 138.637L116.043 137.167C115.209 136.714 114.901 135.67 115.355 134.837L117.437 131.006C117.655 130.606 117.705 130.136 117.576 129.699L116.326 125.472C116.197 125.036 115.9 124.668 115.5 124.451L111.668 122.367C110.835 121.914 110.527 120.871 110.979 120.038L113.403 115.582L113.389 115.535L117.704 114.26C118.765 113.945 119.257 112.727 118.711 111.765L112.868 101.466C119.545 94.9072 122.475 84.9749 119.637 75.3732C115.541 61.5167 100.989 53.6049 87.1333 57.7009C73.2778 61.7952 65.365 76.3483 69.461 90.2048Z" fill="#931602"/>
<path d="M74.6283 79.3292C71.1913 78.0331 69.4562 74.1966 70.7523 70.7596C72.0483 67.3226 75.8848 65.5875 79.321 66.8838C82.7588 68.1797 84.4942 72.017 83.1978 75.4531C81.9009 78.8904 78.0644 80.6255 74.6283 79.3292ZM110.832 87.5455L83.8196 56.2819C83.603 56.0301 83.2733 55.9071 82.9448 55.9515L42.0143 61.5918C41.659 61.6408 41.3583 61.881 41.2314 62.2165L20.5648 117.015C20.3736 117.522 20.6299 118.087 21.1363 118.278L42.876 126.477C43.3824 126.668 43.9473 126.412 44.1377 125.905L57.4343 90.6509C57.6247 90.1448 58.1898 89.8893 58.696 90.0797L79.4931 97.9229C79.9995 98.1142 80.255 98.6793 80.0637 99.1857L66.7683 134.441C66.5768 134.946 66.8325 135.512 67.3395 135.703L89.0783 143.902C89.5856 144.092 90.1499 143.837 90.3409 143.33L111.008 88.5309C111.135 88.1953 111.068 87.8167 110.832 87.5455Z" fill="#CDCDCD"/>
<path d="M84.8729 73.4828C83.0997 73.2008 81.4143 72.7047 79.8392 72.0221C77.0117 70.7984 74.5407 68.9789 72.555 66.7446C68.5462 62.2331 66.5162 56.0269 67.537 49.6012C69.3455 38.2184 80.0374 30.4578 91.4194 32.2654" stroke="#868686" stroke-width="2.68733" stroke-miterlimit="10"/>
<path d="M123.501 41.9997L123.501 45.0007" stroke="#931602"/>
<defs>
<linearGradient id="paint0_linear_40002625_47443" x1="87.526" y1="32.2036" x2="122.029" y2="67.2005" gradientUnits="userSpaceOnUse">
<stop offset="0.663311" stop-color="#00273C" stop-opacity="0"/>
<stop offset="0.664046" stop-color="#931602"/>
</linearGradient>
</defs>
</svg>
