<svg width="24" height="24" viewBox="0 0 24 24" fill="none" xmlns="http://www.w3.org/2000/svg">
<path fill-rule="evenodd" clip-rule="evenodd" d="M22.0993 6.429C19.9733 8.555 14.9832 13.544 13.7662 14.757C13.5032 15.019 13.1902 15.226 12.8542 15.361C11.8782 15.766 9.49725 16.7 8.79725 16.747C8.38025 16.775 7.97125 16.621 7.67525 16.325C7.37925 16.029 7.22525 15.62 7.25325 15.203C7.30025 14.503 8.23425 12.124 8.63225 11.152C8.77125 10.807 8.97825 10.494 9.24125 10.232L17.5712 1.901C17.9742 1.498 18.5222 1.271 19.0922 1.271C19.6622 1.271 20.2103 1.498 20.6133 1.901L22.0993 3.387C22.5023 3.79 22.7292 4.338 22.7292 4.908C22.7292 5.478 22.5023 6.026 22.0993 6.429ZM8.75625 15.244C9.44025 15.158 11.4392 14.324 12.2792 13.975C12.2822 13.974 12.2852 13.973 12.2872 13.972C12.4442 13.909 12.5862 13.815 12.7052 13.696L12.7062 13.695C13.9252 12.482 18.9132 7.494 21.0382 5.368C21.1602 5.246 21.2292 5.081 21.2292 4.908C21.2292 4.735 21.1602 4.57 21.0382 4.448L19.5522 2.962C19.4303 2.84 19.2652 2.771 19.0922 2.771C18.9192 2.771 18.7542 2.84 18.6322 2.962L10.3012 11.293C10.1812 11.412 10.0872 11.555 10.0242 11.712L10.0222 11.716C9.67725 12.558 8.84225 14.559 8.75625 15.244Z" fill="#931602"/>
<path fill-rule="evenodd" clip-rule="evenodd" d="M20.1188 7.34903C20.4108 7.64202 20.4108 8.11702 20.1188 8.41002C19.8258 8.70302 19.3508 8.70302 19.0578 8.41002L15.5908 4.94302C15.2978 4.65002 15.2978 4.17502 15.5908 3.88202C15.8838 3.59002 16.3588 3.59002 16.6518 3.88202L20.1188 7.34903Z" fill="#931602"/>
<path fill-rule="evenodd" clip-rule="evenodd" d="M13.9967 13.47C14.2897 13.762 14.2897 14.238 13.9967 14.53C13.7047 14.823 13.2287 14.823 12.9367 14.53L9.46975 11.063C9.17675 10.771 9.17675 10.295 9.46975 10.003C9.76175 9.71001 10.2377 9.71001 10.5297 10.003L13.9967 13.47Z" fill="#931602"/>
<path fill-rule="evenodd" clip-rule="evenodd" d="M8.5 3.25C8.914 3.25 9.25 3.586 9.25 4C9.25 4.414 8.914 4.75 8.5 4.75H5C3.757 4.75 2.75 5.757 2.75 7V19C2.75 19.597 2.987 20.169 3.409 20.591C3.831 21.013 4.403 21.25 5 21.25H18C18.597 21.25 19.169 21.013 19.591 20.591C20.013 20.169 20.25 19.597 20.25 19V15.5C20.25 15.086 20.586 14.75 21 14.75C21.414 14.75 21.75 15.086 21.75 15.5V19C21.75 19.995 21.355 20.948 20.652 21.652C19.948 22.355 18.995 22.75 18 22.75H5C4.005 22.75 3.052 22.355 2.348 21.652C1.645 20.948 1.25 19.995 1.25 19V7C1.25 4.929 2.929 3.25 5 3.25H8.5Z" fill="#931602"/>
</svg>
