<svg width="19" height="19" viewBox="0 0 19 19" fill="none" xmlns="http://www.w3.org/2000/svg">
<path fill-rule="evenodd" clip-rule="evenodd" d="M3.8269 3.60223C3.8269 1.81004 5.28272 0.357178 7.07857 0.357178H15.7497C17.5455 0.357178 19.0013 1.81004 19.0013 3.60223V7.92898C19.0013 9.72117 17.5455 11.174 15.7497 11.174H15.3161C14.7175 11.174 14.2322 10.6897 14.2322 10.0923V6.63095C14.2322 5.7946 13.5528 5.11659 12.7148 5.11659H5.34435C4.50629 5.11659 3.8269 4.43859 3.8269 3.60223ZM7.07857 1.6552C6.00106 1.6552 5.12757 2.52692 5.12757 3.60223C5.12757 3.72171 5.22462 3.81857 5.34435 3.81857H12.7148C14.2712 3.81857 15.5329 5.07772 15.5329 6.63095V9.87601H15.7497C16.8272 9.87601 17.7007 9.00429 17.7007 7.92898V3.60223C17.7007 2.52692 16.8272 1.6552 15.7497 1.6552H7.07857Z" fill="black"/>
<path fill-rule="evenodd" clip-rule="evenodd" d="M0.357666 7.06366C0.357666 5.27146 1.81349 3.8186 3.60933 3.8186H12.2804C14.0763 3.8186 15.5321 5.27146 15.5321 7.06366V11.6789C15.5321 13.4711 14.0763 14.9239 12.2804 14.9239H9.22387L5.84247 18.6421C5.13985 19.4148 3.85653 18.8448 3.96143 17.8067L4.25272 14.9239H3.60933C1.81349 14.9239 0.357666 13.471 0.357666 11.6789V7.06366ZM3.60933 5.11663C2.53182 5.11663 1.65833 5.98834 1.65833 7.06366V11.6789C1.65833 12.7542 2.53182 13.6259 3.60933 13.6259H4.49246C5.13407 13.6259 5.63525 14.179 5.57087 14.8161L5.32155 17.2835L8.32525 13.9806C8.53069 13.7547 8.82217 13.6259 9.12787 13.6259H12.2804C13.3579 13.6259 14.2314 12.7542 14.2314 11.6789V7.06366C14.2314 5.98834 13.3579 5.11663 12.2804 5.11663H3.60933Z" fill="black"/>
</svg>
