<svg width="241" height="55" viewBox="0 0 241 55" fill="none" xmlns="http://www.w3.org/2000/svg">
<path fill-rule="evenodd" clip-rule="evenodd" d="M27.0175 1L27.8489 1.38919L51.3484 12.3892C52.3488 12.8575 52.7801 14.0481 52.3119 15.0485C51.8436 16.0488 50.653 16.4802 49.6526 16.0119L26.9845 5.40112L3.82118 15.824C2.81389 16.2772 1.62989 15.8281 1.17663 14.8208C0.723379 13.8135 1.17252 12.6295 2.17981 12.1763L26.1803 1.3767L27.0175 1ZM27.0161 9.00229L27.8437 9.38656L41.8437 15.8866C42.8456 16.3517 43.2807 17.5409 42.8155 18.5428C42.3504 19.5447 41.1611 19.9797 40.1593 19.5146L26.9869 13.3989L13.3196 19.5256C12.3117 19.9774 11.1283 19.5266 10.6765 18.5187C10.2246 17.5108 10.6755 16.3274 11.6834 15.8756L26.1834 9.37556L27.0161 9.00229ZM27.2371 32.0602L48.501 23.6432V41.7006H28.501V37.7006C28.501 36.596 27.6056 35.7006 26.501 35.7006C25.3964 35.7006 24.501 36.596 24.501 37.7006V43.7006V45.7006H26.501H50.501H52.501V43.7006V21.4362C52.501 19.6714 50.7218 18.4622 49.0809 19.1117L26.5088 28.0465L4.43798 19.1242C2.79461 18.4599 1.00101 19.6694 1.00101 21.442V43.7006C1.00101 44.8051 1.89644 45.7006 3.00101 45.7006C4.10558 45.7006 5.00101 44.8051 5.00101 43.7006V23.6663L25.7514 32.0548L26.4932 32.3547L27.2371 32.0602Z" fill="url(#paint0_linear_46_34)"/>
<path fill-rule="evenodd" clip-rule="evenodd" d="M27.0175 1L27.8489 1.38919L51.3484 12.3892C52.3488 12.8575 52.7801 14.0481 52.3119 15.0485C51.8436 16.0488 50.653 16.4802 49.6526 16.0119L26.9845 5.40112L3.82118 15.824C2.81389 16.2772 1.62989 15.8281 1.17663 14.8208C0.723379 13.8135 1.17252 12.6295 2.17981 12.1763L26.1803 1.3767L27.0175 1ZM27.0161 9.00229L27.8437 9.38656L41.8437 15.8866C42.8456 16.3517 43.2807 17.5409 42.8155 18.5428C42.3504 19.5447 41.1611 19.9797 40.1593 19.5146L26.9869 13.3989L13.3196 19.5256C12.3117 19.9774 11.1283 19.5266 10.6765 18.5187C10.2246 17.5108 10.6755 16.3274 11.6834 15.8756L26.1834 9.37556L27.0161 9.00229ZM27.2371 32.0602L48.501 23.6432V41.7006H28.501V37.7006C28.501 36.596 27.6056 35.7006 26.501 35.7006C25.3964 35.7006 24.501 36.596 24.501 37.7006V43.7006V45.7006H26.501H50.501H52.501V43.7006V21.4362C52.501 19.6714 50.7218 18.4622 49.0809 19.1117L26.5088 28.0465L4.43798 19.1242C2.79461 18.4599 1.00101 19.6694 1.00101 21.442V43.7006C1.00101 44.8051 1.89644 45.7006 3.00101 45.7006C4.10558 45.7006 5.00101 44.8051 5.00101 43.7006V23.6663L25.7514 32.0548L26.4932 32.3547L27.2371 32.0602Z" fill="#121212"/>
<path d="M27.8489 1.38919L27.6369 1.84203L27.6369 1.84203L27.8489 1.38919ZM27.0175 1L27.2294 0.547157L27.0216 0.44986L26.8123 0.544034L27.0175 1ZM51.3484 12.3892L51.1364 12.842L51.1364 12.842L51.3484 12.3892ZM49.6526 16.0119L49.8646 15.5591L49.8646 15.5591L49.6526 16.0119ZM26.9845 5.40112L27.1965 4.94828L26.9886 4.85098L26.7793 4.94515L26.9845 5.40112ZM3.82118 15.824L4.02635 16.2799L4.02635 16.2799L3.82118 15.824ZM1.17663 14.8208L1.6326 14.6156L1.6326 14.6156L1.17663 14.8208ZM2.17981 12.1763L1.97463 11.7203L1.97463 11.7203L2.17981 12.1763ZM26.1803 1.3767L25.9751 0.920732L25.9751 0.920732L26.1803 1.3767ZM27.8437 9.38656L27.6332 9.84006L27.6332 9.84006L27.8437 9.38656ZM27.0161 9.00229L27.2266 8.54879L27.0197 8.45272L26.8115 8.54604L27.0161 9.00229ZM41.8437 15.8866L42.0543 15.4331L42.0543 15.4331L41.8437 15.8866ZM42.8155 18.5428L43.269 18.7534L43.269 18.7534L42.8155 18.5428ZM40.1593 19.5146L40.3698 19.0611L40.3698 19.0611L40.1593 19.5146ZM26.9869 13.3989L27.1975 12.9454L26.9906 12.8493L26.7824 12.9426L26.9869 13.3989ZM13.3196 19.5256L13.1151 19.0693L13.1151 19.0693L13.3196 19.5256ZM10.6765 18.5187L10.2202 18.7232L10.2202 18.7232L10.6765 18.5187ZM11.6834 15.8756L11.8879 16.3318L11.8879 16.3318L11.6834 15.8756ZM26.1834 9.37556L26.3879 9.83181L26.3879 9.83181L26.1834 9.37556ZM48.501 23.6432H49.001V22.9076L48.317 23.1783L48.501 23.6432ZM27.2371 32.0602L27.4211 32.5251L27.4211 32.5251L27.2371 32.0602ZM48.501 41.7006V42.2006H49.001V41.7006H48.501ZM28.501 41.7006H28.001V42.2006H28.501V41.7006ZM24.501 45.7006H24.001V46.2006H24.501V45.7006ZM52.501 45.7006V46.2006H53.001V45.7006H52.501ZM49.0809 19.1117L48.8969 18.6468L48.8969 18.6468L49.0809 19.1117ZM26.5088 28.0465L26.3214 28.5101L26.5069 28.585L26.6929 28.5114L26.5088 28.0465ZM4.43798 19.1242L4.62538 18.6607L4.62538 18.6607L4.43798 19.1242ZM5.00101 23.6663L5.1884 23.2028L4.50101 22.9249V23.6663H5.00101ZM25.7514 32.0548L25.564 32.5184L25.564 32.5184L25.7514 32.0548ZM26.4932 32.3547L26.3058 32.8182L26.4912 32.8932L26.6772 32.8196L26.4932 32.3547ZM28.0609 0.936343L27.2294 0.547157L26.8055 1.45284L27.6369 1.84203L28.0609 0.936343ZM51.5604 11.9363L28.0609 0.936342L27.6369 1.84203L51.1364 12.842L51.5604 11.9363ZM52.7647 15.2604C53.3501 14.0099 52.8109 12.5217 51.5604 11.9363L51.1364 12.842C51.8867 13.1932 52.2102 14.0862 51.859 14.8365L52.7647 15.2604ZM49.4406 16.4648C50.6911 17.0501 52.1794 16.5109 52.7647 15.2604L51.859 14.8365C51.5078 15.5868 50.6149 15.9103 49.8646 15.5591L49.4406 16.4648ZM26.7725 5.85396L49.4406 16.4648L49.8646 15.5591L27.1965 4.94828L26.7725 5.85396ZM4.02635 16.2799L27.1897 5.85708L26.7793 4.94515L3.61601 15.368L4.02635 16.2799ZM0.720667 15.026C1.28723 16.2851 2.76724 16.8465 4.02635 16.2799L3.61601 15.368C2.86054 15.708 1.97254 15.3711 1.6326 14.6156L0.720667 15.026ZM1.97463 11.7203C0.715521 12.2869 0.1541 13.7669 0.720667 15.026L1.6326 14.6156C1.29266 13.8602 1.62951 12.9722 2.38498 12.6322L1.97463 11.7203ZM25.9751 0.920732L1.97463 11.7203L2.38498 12.6322L26.3855 1.83266L25.9751 0.920732ZM26.8123 0.544034L25.9751 0.920732L26.3855 1.83266L27.2226 1.45597L26.8123 0.544034ZM28.0543 8.93306L27.2266 8.54879L26.8055 9.4558L27.6332 9.84006L28.0543 8.93306ZM42.0543 15.4331L28.0543 8.93306L27.6332 9.84006L41.6332 16.3401L42.0543 15.4331ZM43.269 18.7534C43.8505 17.501 43.3066 16.0145 42.0543 15.4331L41.6332 16.3401C42.3846 16.6889 42.7109 17.5809 42.362 18.3322L43.269 18.7534ZM39.9487 19.9681C41.201 20.5495 42.6876 20.0057 43.269 18.7534L42.362 18.3322C42.0132 19.0836 41.1212 19.41 40.3698 19.0611L39.9487 19.9681ZM26.7764 13.8524L39.9487 19.9681L40.3698 19.0611L27.1975 12.9454L26.7764 13.8524ZM13.5241 19.9819L27.1915 13.8551L26.7824 12.9426L13.1151 19.0693L13.5241 19.9819ZM10.2202 18.7232C10.785 19.9831 12.2642 20.5466 13.5241 19.9819L13.1151 19.0693C12.3591 19.4082 11.4716 19.0701 11.1327 18.3142L10.2202 18.7232ZM11.4789 15.4193C10.2189 15.9841 9.65544 17.4633 10.2202 18.7232L11.1327 18.3142C10.7939 17.5582 11.132 16.6707 11.8879 16.3318L11.4789 15.4193ZM25.9789 8.91931L11.4789 15.4193L11.8879 16.3318L26.3879 9.83181L25.9789 8.91931ZM26.8115 8.54604L25.9789 8.91931L26.3879 9.83181L27.2206 9.45855L26.8115 8.54604ZM48.317 23.1783L27.0531 31.5953L27.4211 32.5251L48.685 24.1081L48.317 23.1783ZM49.001 41.7006V23.6432H48.001V41.7006H49.001ZM28.501 42.2006H48.501V41.2006H28.501V42.2006ZM28.001 37.7006V41.7006H29.001V37.7006H28.001ZM26.501 36.2006C27.3294 36.2006 28.001 36.8722 28.001 37.7006H29.001C29.001 36.3199 27.8817 35.2006 26.501 35.2006V36.2006ZM25.001 37.7006C25.001 36.8722 25.6726 36.2006 26.501 36.2006V35.2006C25.1203 35.2006 24.001 36.3199 24.001 37.7006H25.001ZM25.001 43.7006V37.7006H24.001V43.7006H25.001ZM25.001 45.7006V43.7006H24.001V45.7006H25.001ZM26.501 45.2006H24.501V46.2006H26.501V45.2006ZM50.501 45.2006H26.501V46.2006H50.501V45.2006ZM52.501 45.2006H50.501V46.2006H52.501V45.2006ZM52.001 43.7006V45.7006H53.001V43.7006H52.001ZM52.001 21.4362V43.7006H53.001V21.4362H52.001ZM49.2649 19.5766C50.5777 19.057 52.001 20.0244 52.001 21.4362H53.001C53.001 19.3185 50.866 17.8674 48.8969 18.6468L49.2649 19.5766ZM26.6929 28.5114L49.2649 19.5766L48.8969 18.6468L26.3248 27.5816L26.6929 28.5114ZM4.25059 19.5878L26.3214 28.5101L26.6962 27.5829L4.62538 18.6607L4.25059 19.5878ZM1.50101 21.442C1.50101 20.024 2.93589 19.0563 4.25059 19.5878L4.62538 18.6607C2.65333 17.8635 0.50101 19.3149 0.50101 21.442H1.50101ZM1.50101 43.7006V21.442H0.50101V43.7006H1.50101ZM3.00101 45.2006C2.17258 45.2006 1.50101 44.529 1.50101 43.7006H0.50101C0.50101 45.0813 1.6203 46.2006 3.00101 46.2006V45.2006ZM4.50101 43.7006C4.50101 44.529 3.82944 45.2006 3.00101 45.2006V46.2006C4.38172 46.2006 5.50101 45.0813 5.50101 43.7006H4.50101ZM4.50101 23.6663V43.7006H5.50101V23.6663H4.50101ZM25.9388 31.5912L5.1884 23.2028L4.81362 24.1299L25.564 32.5184L25.9388 31.5912ZM26.6806 31.8911L25.9388 31.5912L25.564 32.5184L26.3058 32.8182L26.6806 31.8911ZM27.0531 31.5953L26.3092 31.8898L26.6772 32.8196L27.4211 32.5251L27.0531 31.5953Z" fill="url(#paint1_linear_46_34)"/>
<path d="M27.8489 1.38919L27.6369 1.84203L27.6369 1.84203L27.8489 1.38919ZM27.0175 1L27.2294 0.547157L27.0216 0.44986L26.8123 0.544034L27.0175 1ZM51.3484 12.3892L51.1364 12.842L51.1364 12.842L51.3484 12.3892ZM49.6526 16.0119L49.8646 15.5591L49.8646 15.5591L49.6526 16.0119ZM26.9845 5.40112L27.1965 4.94828L26.9886 4.85098L26.7793 4.94515L26.9845 5.40112ZM3.82118 15.824L4.02635 16.2799L4.02635 16.2799L3.82118 15.824ZM1.17663 14.8208L1.6326 14.6156L1.6326 14.6156L1.17663 14.8208ZM2.17981 12.1763L1.97463 11.7203L1.97463 11.7203L2.17981 12.1763ZM26.1803 1.3767L25.9751 0.920732L25.9751 0.920732L26.1803 1.3767ZM27.8437 9.38656L27.6332 9.84006L27.6332 9.84006L27.8437 9.38656ZM27.0161 9.00229L27.2266 8.54879L27.0197 8.45272L26.8115 8.54604L27.0161 9.00229ZM41.8437 15.8866L42.0543 15.4331L42.0543 15.4331L41.8437 15.8866ZM42.8155 18.5428L43.269 18.7534L43.269 18.7534L42.8155 18.5428ZM40.1593 19.5146L40.3698 19.0611L40.3698 19.0611L40.1593 19.5146ZM26.9869 13.3989L27.1975 12.9454L26.9906 12.8493L26.7824 12.9426L26.9869 13.3989ZM13.3196 19.5256L13.1151 19.0693L13.1151 19.0693L13.3196 19.5256ZM10.6765 18.5187L10.2202 18.7232L10.2202 18.7232L10.6765 18.5187ZM11.6834 15.8756L11.8879 16.3318L11.8879 16.3318L11.6834 15.8756ZM26.1834 9.37556L26.3879 9.83181L26.3879 9.83181L26.1834 9.37556ZM48.501 23.6432H49.001V22.9076L48.317 23.1783L48.501 23.6432ZM27.2371 32.0602L27.4211 32.5251L27.4211 32.5251L27.2371 32.0602ZM48.501 41.7006V42.2006H49.001V41.7006H48.501ZM28.501 41.7006H28.001V42.2006H28.501V41.7006ZM24.501 45.7006H24.001V46.2006H24.501V45.7006ZM52.501 45.7006V46.2006H53.001V45.7006H52.501ZM49.0809 19.1117L48.8969 18.6468L48.8969 18.6468L49.0809 19.1117ZM26.5088 28.0465L26.3214 28.5101L26.5069 28.585L26.6929 28.5114L26.5088 28.0465ZM4.43798 19.1242L4.62538 18.6607L4.62538 18.6607L4.43798 19.1242ZM5.00101 23.6663L5.1884 23.2028L4.50101 22.9249V23.6663H5.00101ZM25.7514 32.0548L25.564 32.5184L25.564 32.5184L25.7514 32.0548ZM26.4932 32.3547L26.3058 32.8182L26.4912 32.8932L26.6772 32.8196L26.4932 32.3547ZM28.0609 0.936343L27.2294 0.547157L26.8055 1.45284L27.6369 1.84203L28.0609 0.936343ZM51.5604 11.9363L28.0609 0.936342L27.6369 1.84203L51.1364 12.842L51.5604 11.9363ZM52.7647 15.2604C53.3501 14.0099 52.8109 12.5217 51.5604 11.9363L51.1364 12.842C51.8867 13.1932 52.2102 14.0862 51.859 14.8365L52.7647 15.2604ZM49.4406 16.4648C50.6911 17.0501 52.1794 16.5109 52.7647 15.2604L51.859 14.8365C51.5078 15.5868 50.6149 15.9103 49.8646 15.5591L49.4406 16.4648ZM26.7725 5.85396L49.4406 16.4648L49.8646 15.5591L27.1965 4.94828L26.7725 5.85396ZM4.02635 16.2799L27.1897 5.85708L26.7793 4.94515L3.61601 15.368L4.02635 16.2799ZM0.720667 15.026C1.28723 16.2851 2.76724 16.8465 4.02635 16.2799L3.61601 15.368C2.86054 15.708 1.97254 15.3711 1.6326 14.6156L0.720667 15.026ZM1.97463 11.7203C0.715521 12.2869 0.1541 13.7669 0.720667 15.026L1.6326 14.6156C1.29266 13.8602 1.62951 12.9722 2.38498 12.6322L1.97463 11.7203ZM25.9751 0.920732L1.97463 11.7203L2.38498 12.6322L26.3855 1.83266L25.9751 0.920732ZM26.8123 0.544034L25.9751 0.920732L26.3855 1.83266L27.2226 1.45597L26.8123 0.544034ZM28.0543 8.93306L27.2266 8.54879L26.8055 9.4558L27.6332 9.84006L28.0543 8.93306ZM42.0543 15.4331L28.0543 8.93306L27.6332 9.84006L41.6332 16.3401L42.0543 15.4331ZM43.269 18.7534C43.8505 17.501 43.3066 16.0145 42.0543 15.4331L41.6332 16.3401C42.3846 16.6889 42.7109 17.5809 42.362 18.3322L43.269 18.7534ZM39.9487 19.9681C41.201 20.5495 42.6876 20.0057 43.269 18.7534L42.362 18.3322C42.0132 19.0836 41.1212 19.41 40.3698 19.0611L39.9487 19.9681ZM26.7764 13.8524L39.9487 19.9681L40.3698 19.0611L27.1975 12.9454L26.7764 13.8524ZM13.5241 19.9819L27.1915 13.8551L26.7824 12.9426L13.1151 19.0693L13.5241 19.9819ZM10.2202 18.7232C10.785 19.9831 12.2642 20.5466 13.5241 19.9819L13.1151 19.0693C12.3591 19.4082 11.4716 19.0701 11.1327 18.3142L10.2202 18.7232ZM11.4789 15.4193C10.2189 15.9841 9.65544 17.4633 10.2202 18.7232L11.1327 18.3142C10.7939 17.5582 11.132 16.6707 11.8879 16.3318L11.4789 15.4193ZM25.9789 8.91931L11.4789 15.4193L11.8879 16.3318L26.3879 9.83181L25.9789 8.91931ZM26.8115 8.54604L25.9789 8.91931L26.3879 9.83181L27.2206 9.45855L26.8115 8.54604ZM48.317 23.1783L27.0531 31.5953L27.4211 32.5251L48.685 24.1081L48.317 23.1783ZM49.001 41.7006V23.6432H48.001V41.7006H49.001ZM28.501 42.2006H48.501V41.2006H28.501V42.2006ZM28.001 37.7006V41.7006H29.001V37.7006H28.001ZM26.501 36.2006C27.3294 36.2006 28.001 36.8722 28.001 37.7006H29.001C29.001 36.3199 27.8817 35.2006 26.501 35.2006V36.2006ZM25.001 37.7006C25.001 36.8722 25.6726 36.2006 26.501 36.2006V35.2006C25.1203 35.2006 24.001 36.3199 24.001 37.7006H25.001ZM25.001 43.7006V37.7006H24.001V43.7006H25.001ZM25.001 45.7006V43.7006H24.001V45.7006H25.001ZM26.501 45.2006H24.501V46.2006H26.501V45.2006ZM50.501 45.2006H26.501V46.2006H50.501V45.2006ZM52.501 45.2006H50.501V46.2006H52.501V45.2006ZM52.001 43.7006V45.7006H53.001V43.7006H52.001ZM52.001 21.4362V43.7006H53.001V21.4362H52.001ZM49.2649 19.5766C50.5777 19.057 52.001 20.0244 52.001 21.4362H53.001C53.001 19.3185 50.866 17.8674 48.8969 18.6468L49.2649 19.5766ZM26.6929 28.5114L49.2649 19.5766L48.8969 18.6468L26.3248 27.5816L26.6929 28.5114ZM4.25059 19.5878L26.3214 28.5101L26.6962 27.5829L4.62538 18.6607L4.25059 19.5878ZM1.50101 21.442C1.50101 20.024 2.93589 19.0563 4.25059 19.5878L4.62538 18.6607C2.65333 17.8635 0.50101 19.3149 0.50101 21.442H1.50101ZM1.50101 43.7006V21.442H0.50101V43.7006H1.50101ZM3.00101 45.2006C2.17258 45.2006 1.50101 44.529 1.50101 43.7006H0.50101C0.50101 45.0813 1.6203 46.2006 3.00101 46.2006V45.2006ZM4.50101 43.7006C4.50101 44.529 3.82944 45.2006 3.00101 45.2006V46.2006C4.38172 46.2006 5.50101 45.0813 5.50101 43.7006H4.50101ZM4.50101 23.6663V43.7006H5.50101V23.6663H4.50101ZM25.9388 31.5912L5.1884 23.2028L4.81362 24.1299L25.564 32.5184L25.9388 31.5912ZM26.6806 31.8911L25.9388 31.5912L25.564 32.5184L26.3058 32.8182L26.6806 31.8911ZM27.0531 31.5953L26.3092 31.8898L26.6772 32.8196L27.4211 32.5251L27.0531 31.5953Z" fill="#121212"/>
<path d="M71.633 30.158H84.857V34.224H71.633V30.158ZM72.013 41.558H87.023V45.7H67.073V19.0999H86.491V23.242H72.013V41.558ZM100.776 46.08C98.6987 46.08 96.7101 45.7886 94.8101 45.206C92.9101 44.598 91.4027 43.8253 90.2881 42.888L91.9981 39.05C93.0621 39.886 94.3794 40.5826 95.9501 41.14C97.5207 41.6973 99.1294 41.976 100.776 41.976C102.169 41.976 103.297 41.824 104.158 41.52C105.019 41.216 105.653 40.8106 106.058 40.304C106.463 39.772 106.666 39.1766 106.666 38.518C106.666 37.7073 106.375 37.0613 105.792 36.58C105.209 36.0733 104.449 35.6806 103.512 35.402C102.6 35.098 101.574 34.8193 100.434 34.566C99.3194 34.3126 98.1921 34.0213 97.0521 33.692C95.9374 33.3373 94.9114 32.894 93.9741 32.362C93.0621 31.8046 92.3147 31.07 91.7321 30.158C91.1494 29.246 90.8581 28.0806 90.8581 26.6619C90.8581 25.2179 91.2381 23.9006 91.9981 22.71C92.7834 21.4939 93.9614 20.5313 95.5321 19.8219C97.1281 19.0873 99.1421 18.7199 101.574 18.7199C103.17 18.7199 104.753 18.9226 106.324 19.328C107.895 19.7333 109.263 20.316 110.428 21.076L108.87 24.9139C107.679 24.2046 106.451 23.6853 105.184 23.356C103.917 23.0013 102.701 22.8239 101.536 22.8239C100.168 22.8239 99.0534 22.9886 98.1921 23.3179C97.3561 23.6473 96.7354 24.078 96.3301 24.61C95.9501 25.142 95.7601 25.7499 95.7601 26.434C95.7601 27.2446 96.0387 27.9033 96.5961 28.41C97.1787 28.8913 97.9261 29.2713 98.8381 29.55C99.7754 29.8286 100.814 30.1073 101.954 30.386C103.094 30.6393 104.221 30.9306 105.336 31.26C106.476 31.5893 107.502 32.02 108.414 32.552C109.351 33.084 110.099 33.806 110.656 34.718C111.239 35.63 111.53 36.7826 111.53 38.176C111.53 39.5946 111.137 40.912 110.352 42.128C109.592 43.3186 108.414 44.2813 106.818 45.016C105.222 45.7253 103.208 46.08 100.776 46.08ZM121.453 45.7V23.2799H112.637V19.0999H135.209V23.2799H126.393V45.7H121.453ZM138.917 45.7V19.0999H149.861C152.217 19.0999 154.231 19.4799 155.903 20.24C157.6 20.9999 158.905 22.0893 159.817 23.5079C160.729 24.9266 161.185 26.6113 161.185 28.5619C161.185 30.5126 160.729 32.1973 159.817 33.616C158.905 35.0093 157.6 36.086 155.903 36.846C154.231 37.5806 152.217 37.948 149.861 37.948H141.653L143.857 35.706V45.7H138.917ZM156.321 45.7L149.595 36.048H154.877L161.641 45.7H156.321ZM143.857 36.238L141.653 33.882H149.633C151.811 33.882 153.445 33.4133 154.535 32.476C155.649 31.5386 156.207 30.234 156.207 28.5619C156.207 26.8646 155.649 25.56 154.535 24.648C153.445 23.736 151.811 23.2799 149.633 23.2799H141.653L143.857 20.8479V36.238ZM162.95 45.7L174.92 19.0999H179.784L191.792 45.7H186.624L176.326 21.7219H178.302L168.042 45.7H162.95ZM168.46 39.544L169.79 35.668H184.154L185.484 39.544H168.46ZM199.235 45.7V23.2799H190.419V19.0999H212.991V23.2799H204.175V45.7H199.235ZM211.6 45.7L223.57 19.0999H228.434L240.442 45.7H235.274L224.976 21.7219H226.952L216.692 45.7H211.6ZM217.11 39.544L218.44 35.668H232.804L234.134 39.544H217.11Z" fill="#121212"/>
<defs>
<linearGradient id="paint0_linear_46_34" x1="2.96243" y1="12.7004" x2="52.5663" y2="44.3289" gradientUnits="userSpaceOnUse">
<stop stop-color="#00FBAA"/>
<stop offset="1" stop-color="#2A58D9"/>
</linearGradient>
<linearGradient id="paint1_linear_46_34" x1="2.93132" y1="6.4304" x2="26.0483" y2="52.8383" gradientUnits="userSpaceOnUse">
<stop stop-color="#00FBAA"/>
<stop offset="1" stop-color="#0D4DFF"/>
</linearGradient>
</defs>
</svg>
