<svg width="240" height="54" viewBox="0 0 240 54" fill="none" xmlns="http://www.w3.org/2000/svg">
<path fill-rule="evenodd" clip-rule="evenodd" d="M26.0175 0.300049L26.8489 0.689235L50.3484 11.6892C51.3488 12.1575 51.7801 13.3481 51.3119 14.3485C50.8436 15.3489 49.653 15.7803 48.6526 15.312L25.9845 4.70117L2.82118 15.124C1.81389 15.5773 0.629885 15.1281 0.176632 14.1209C-0.276621 13.1136 0.172515 11.9296 1.17981 11.4763L25.1803 0.676747L26.0175 0.300049ZM26.0161 8.30234L26.8437 8.68661L40.8437 15.1866C41.8456 15.6518 42.2807 16.841 41.8155 17.8428C41.3504 18.8447 40.1611 19.2798 39.1593 18.8146L25.9869 12.6989L12.3196 18.8256C11.3117 19.2775 10.1283 18.8267 9.67648 17.8187C9.22465 16.8108 9.67546 15.6274 10.6834 15.1756L25.1834 8.67561L26.0161 8.30234ZM26.2371 31.3602L47.501 22.9433V41.0006H27.501V37.0006C27.501 35.8961 26.6056 35.0006 25.501 35.0006C24.3964 35.0006 23.501 35.8961 23.501 37.0006V43.0006V45.0006H25.501H49.501H51.501V43.0006V20.7363C51.501 18.9715 49.7218 17.7622 48.0809 18.4118L25.5088 27.3465L3.43798 18.4243C1.79461 17.7599 0.00100987 18.9695 0.00100987 20.7421V43.0006C0.00100987 44.1052 0.89644 45.0006 2.00101 45.0006C3.10558 45.0006 4.00101 44.1052 4.00101 43.0006V22.9664L24.7514 31.3548L25.4932 31.6547L26.2371 31.3602Z" fill="url(#paint0_linear_44_21)"/>
<path d="M71.132 29.458H84.356V33.524H71.132V29.458ZM71.512 40.858H86.522V45H66.572V18.4H85.99V22.542H71.512V40.858ZM100.275 45.38C98.1977 45.38 96.209 45.0887 94.309 44.506C92.409 43.898 90.9017 43.1253 89.787 42.188L91.497 38.35C92.561 39.186 93.8784 39.8827 95.449 40.44C97.0197 40.9973 98.6284 41.276 100.275 41.276C101.668 41.276 102.796 41.124 103.657 40.82C104.518 40.516 105.152 40.1107 105.557 39.604C105.962 39.072 106.165 38.4767 106.165 37.818C106.165 37.0073 105.874 36.3613 105.291 35.88C104.708 35.3733 103.948 34.9807 103.011 34.702C102.099 34.398 101.073 34.1193 99.933 33.866C98.8184 33.6127 97.691 33.3213 96.551 32.992C95.4364 32.6373 94.4104 32.194 93.473 31.662C92.561 31.1047 91.8137 30.37 91.231 29.458C90.6484 28.546 90.357 27.3807 90.357 25.962C90.357 24.518 90.737 23.2007 91.497 22.01C92.2824 20.794 93.4604 19.8313 95.031 19.122C96.627 18.3873 98.641 18.02 101.073 18.02C102.669 18.02 104.252 18.2227 105.823 18.628C107.394 19.0333 108.762 19.616 109.927 20.376L108.369 24.214C107.178 23.5047 105.95 22.9853 104.683 22.656C103.416 22.3013 102.2 22.124 101.035 22.124C99.667 22.124 98.5524 22.2887 97.691 22.618C96.855 22.9473 96.2344 23.378 95.829 23.91C95.449 24.442 95.259 25.05 95.259 25.734C95.259 26.5447 95.5377 27.2033 96.095 27.71C96.6777 28.1913 97.425 28.5713 98.337 28.85C99.2744 29.1287 100.313 29.4073 101.453 29.686C102.593 29.9393 103.72 30.2307 104.835 30.56C105.975 30.8893 107.001 31.32 107.913 31.852C108.85 32.384 109.598 33.106 110.155 34.018C110.738 34.93 111.029 36.0827 111.029 37.476C111.029 38.8947 110.636 40.212 109.851 41.428C109.091 42.6187 107.913 43.5813 106.317 44.316C104.721 45.0253 102.707 45.38 100.275 45.38ZM120.952 45V22.58H112.136V18.4H134.708V22.58H125.892V45H120.952ZM138.416 45V18.4H149.36C151.716 18.4 153.73 18.78 155.402 19.54C157.099 20.3 158.404 21.3893 159.316 22.808C160.228 24.2267 160.684 25.9113 160.684 27.862C160.684 29.8127 160.228 31.4973 159.316 32.916C158.404 34.3093 157.099 35.386 155.402 36.146C153.73 36.8807 151.716 37.248 149.36 37.248H141.152L143.356 35.006V45H138.416ZM155.82 45L149.094 35.348H154.376L161.14 45H155.82ZM143.356 35.538L141.152 33.182H149.132C151.31 33.182 152.944 32.7133 154.034 31.776C155.148 30.8387 155.706 29.534 155.706 27.862C155.706 26.1647 155.148 24.86 154.034 23.948C152.944 23.036 151.31 22.58 149.132 22.58H141.152L143.356 20.148V35.538ZM162.449 45L174.419 18.4H179.283L191.291 45H186.123L175.825 21.022H177.801L167.541 45H162.449ZM167.959 38.844L169.289 34.968H183.653L184.983 38.844H167.959ZM198.734 45V22.58H189.918V18.4H212.49V22.58H203.674V45H198.734ZM211.099 45L223.069 18.4H227.933L239.941 45H234.773L224.475 21.022H226.451L216.191 45H211.099ZM216.609 38.844L217.939 34.968H232.303L233.633 38.844H216.609Z" fill="#121212"/>
<defs>
<linearGradient id="paint0_linear_44_21" x1="1.96243" y1="12.0004" x2="51.5663" y2="43.6289" gradientUnits="userSpaceOnUse">
<stop stop-color="#00FBAA"/>
<stop offset="1" stop-color="#2A58D9"/>
</linearGradient>
</defs>
</svg>
