<svg
              xmlns="http://www.w3.org/2000/svg"
              width="23"
              height="23"
              viewBox="0 0 23 23"
              fill="none"
            >
              <path
                d="M21.5625 8.44531C21.5625 14.7344 12.2376 19.8249 11.8405 20.0352C11.7358 20.0915 11.6188 20.1209 11.5 20.1209C11.3812 20.1209 11.2642 20.0915 11.1595 20.0352C10.7624 19.8249 1.4375 14.7344 1.4375 8.44531C1.43916 6.96848 2.02657 5.55262 3.07085 4.50835C4.11512 3.46407 5.53098 2.87666 7.00781 2.875C8.86309 2.875 10.4875 3.67281 11.5 5.02137C12.5125 3.67281 14.1369 2.875 15.9922 2.875C17.469 2.87666 18.8849 3.46407 19.9292 4.50835C20.9734 5.55262 21.5608 6.96848 21.5625 8.44531Z"
                fill="#FF0202"
              />
            </svg>