<svg width="133" height="28" viewBox="0 0 133 28" fill="none" xmlns="http://www.w3.org/2000/svg">
<path d="M36.6277 7.53901V18.7539H33.6577V0L42.6577 9.37692L51.6801 0V18.7539H48.6426V7.53901L42.6464 13.8079L36.6277 7.53901ZM65.8944 0C68.3806 0 70.5012 0.918953 72.245 2.75686C74.0281 4.59484 74.9168 6.80148 74.9168 9.37692C74.9168 11.9875 74.0281 14.1942 72.245 15.997C70.5012 17.835 68.3806 18.7539 65.8944 18.7539C63.4025 18.7539 61.2875 17.835 59.5381 15.997C57.7775 14.1766 56.8944 11.9699 56.8944 9.37692C56.8944 6.80148 57.7775 4.59484 59.5381 2.75686C61.2707 0.918953 63.3856 0 65.8944 0ZM65.8888 3.12566C64.2462 3.12566 62.8288 3.74027 61.6363 4.96357C60.4775 6.19278 59.8982 7.66195 59.8982 9.37692C59.8982 11.092 60.4775 12.5729 61.6363 13.8137C62.8288 15.0254 64.2462 15.6282 65.8888 15.6282C67.5312 15.6282 68.9431 15.0254 70.1187 13.8137C71.2943 12.5729 71.8793 11.092 71.8793 9.37692C71.8793 7.66195 71.2943 6.19278 70.1187 4.96357C68.9431 3.74027 67.5312 3.12566 65.8888 3.12566ZM89.1255 3.12566H83.1011V9.34768L89.1255 9.37692C89.9411 9.37692 90.6386 9.07257 91.2292 8.45797C91.8198 7.84336 92.1123 7.1059 92.1123 6.23959C92.1123 5.39085 91.8198 4.65922 91.2292 4.04462C90.6386 3.43001 89.9411 3.12566 89.1255 3.12566ZM91.6623 18.7539L88.1861 12.5026H83.1011V18.7539H80.1311V0H89.1255C90.7679 0 92.1798 0.614604 93.3554 1.83791C94.531 3.06128 95.1161 4.53045 95.1161 6.23959C95.1161 7.53901 94.7616 8.72141 94.0529 9.7808C93.3611 10.8286 92.4779 11.572 91.4035 12.0227L95.1161 18.7539H91.6623ZM112.312 0V3.12566H103.3V7.8317H112.312V10.9222H103.3V15.6282H112.312V18.7539H100.33V0L112.312 0ZM122.751 10.9222C121.3 10.9222 120.063 10.3896 119.045 9.33011C118.027 8.27065 117.515 6.97713 117.515 5.4494C117.515 3.95683 118.027 2.68081 119.045 1.61551C120.046 0.53848 121.283 0 122.751 0H132.5V3.12566H122.74C122.431 3.12566 122.138 3.18422 121.863 3.30124C121.582 3.41835 121.34 3.58802 121.132 3.80465C120.923 4.02121 120.766 4.27291 120.653 4.55969C120.541 4.84654 120.485 5.14506 120.485 5.4494C120.485 6.09908 120.698 6.66104 121.132 7.1293C121.565 7.59757 122.105 7.8317 122.74 7.8317H127.229C128.686 7.8317 129.923 8.36434 130.941 9.42964C131.982 10.4891 132.5 11.7768 132.5 13.2928C132.5 14.7913 131.982 16.0789 130.941 17.156C129.923 18.2213 128.691 18.7539 127.235 18.7539H117.515V15.6282H127.24C127.55 15.6282 127.842 15.5697 128.123 15.4527C128.399 15.3356 128.641 15.1717 128.849 14.961C129.057 14.7503 129.215 14.5044 129.327 14.2118C129.44 13.9249 129.496 13.6148 129.496 13.2869C129.496 12.6548 129.271 12.0987 128.821 11.6304C128.388 11.1563 127.865 10.9222 127.24 10.9222H122.751Z" fill="#003E71"/>
<path d="M55.5986 22.7027V25.906H55.1938V23.5174L54.1707 25.906H53.886L52.8584 23.5128V25.906H52.4536V22.7027H52.8896L54.0284 25.3505L55.1672 22.7027H55.5986ZM57.6894 25.9384C57.4018 25.9384 57.1393 25.8682 56.9021 25.7278C56.6648 25.5873 56.4772 25.3914 56.3393 25.1399C56.2014 24.8884 56.1325 24.6052 56.1325 24.2905C56.1325 23.9757 56.2014 23.6926 56.3393 23.4411C56.4772 23.1895 56.6648 22.9936 56.9021 22.8532C57.1393 22.7128 57.4018 22.6426 57.6894 22.6426C57.9801 22.6426 58.244 22.7128 58.4812 22.8532C58.7185 22.9936 58.9053 23.1888 59.0417 23.4387C59.1781 23.6887 59.2464 23.9726 59.2464 24.2905C59.2464 24.6083 59.1781 24.8922 59.0417 25.1422C58.9053 25.3921 58.7185 25.5873 58.4812 25.7278C58.244 25.8682 57.9801 25.9384 57.6894 25.9384ZM57.6894 25.5727C57.9059 25.5727 58.1009 25.5203 58.2744 25.4153C58.4478 25.3104 58.5843 25.1607 58.6836 24.9663C58.783 24.7719 58.8327 24.5466 58.8327 24.2905C58.8327 24.0313 58.783 23.8052 58.6836 23.6124C58.5843 23.4195 58.4486 23.2705 58.2766 23.1656C58.1046 23.0607 57.9089 23.0082 57.6894 23.0082C57.4699 23.0082 57.2742 23.0607 57.1022 23.1656C56.9302 23.2705 56.7945 23.4195 56.6952 23.6124C56.5959 23.8052 56.5462 24.0313 56.5462 24.2905C56.5462 24.5466 56.5959 24.7719 56.6952 24.9663C56.7945 25.1607 56.9309 25.3104 57.1044 25.4153C57.2779 25.5203 57.4729 25.5727 57.6894 25.5727ZM61.4127 25.906L60.6743 24.5867H60.1849V25.906H59.7801V22.6796H60.781C61.0153 22.6796 61.2133 22.7213 61.3749 22.8046C61.5365 22.8879 61.6574 23.0005 61.7374 23.1425C61.8175 23.2845 61.8575 23.4465 61.8575 23.6285C61.8575 23.8507 61.796 24.0467 61.6729 24.2164C61.5498 24.3861 61.3653 24.4988 61.1191 24.5543L61.8976 25.906H61.4127ZM60.1849 24.2488H60.781C61.0005 24.2488 61.1651 24.1925 61.2748 24.0799C61.3845 23.9672 61.4394 23.8168 61.4394 23.6285C61.4394 23.4372 61.3852 23.289 61.277 23.1841C61.1688 23.0792 61.0034 23.0268 60.781 23.0268H60.1849V24.2488ZM62.8895 23.0221V24.1007H64.0194V24.4479H62.8895V25.5588H64.1529V25.906H62.4847V22.675H64.1529V23.0221H62.8895Z" fill="#2B2A29"/>
<path d="M67.8634 22.6795V23.022H67.0182V25.9058H66.6134V23.022H65.7637V22.6795H67.8634ZM70.7504 22.6795V25.9058H70.3456V24.4431H68.7664V25.9058H68.3616V22.6795H68.7664V24.0959H70.3456V22.6795H70.7504ZM73.2726 25.1883H71.9203L71.6712 25.9058H71.2441L72.3651 22.698H72.8322L73.9488 25.9058H73.5217L73.2726 25.1883ZM73.1569 24.8458L72.5964 23.2164L72.0359 24.8458H73.1569ZM76.8758 25.9058H76.471L74.8429 23.3367V25.9058H74.4381V22.6748H74.8429L76.471 25.2392V22.6748H76.8758V25.9058Z" fill="#2B2A29"/>
<path d="M79.0722 24.8234C78.4661 27.2883 78.2659 27.7395 77.7933 27.7395C77.6043 27.7395 77.4764 27.6817 77.3484 27.5428C77.3095 27.5487 77.2595 27.6122 77.2539 27.6644C77.3819 27.8553 77.721 27.9999 78.0435 27.9999C78.4883 27.9999 78.7831 27.6528 79.1111 26.7443C79.2501 26.3567 79.5948 25.1936 79.8451 24.2737C79.9062 24.0365 80.023 23.7702 80.2621 23.3305C80.1176 23.2264 79.9952 23.1743 79.8896 23.1743C79.6004 23.1743 79.3502 23.6835 79.0722 24.8234ZM79.9786 22.7172C79.9786 22.7866 80.0564 22.8619 80.1453 22.8792C80.1954 22.7577 80.5957 22.2427 80.7736 22.075C80.6624 21.9014 80.2733 21.6699 80.1009 21.6699C80.0174 21.8898 79.9285 22.2832 79.9285 22.4221C79.9285 22.4973 79.9563 22.5783 79.9952 22.6188C79.9841 22.6651 79.9786 22.6999 79.9786 22.7172ZM81.7746 25.778C81.947 25.8996 82.2028 26.0037 82.3028 26.0037C82.3028 26.0037 82.3251 25.998 82.3251 25.9806C82.3251 25.9054 82.2027 25.778 82.2027 25.4483C82.2027 24.8407 82.6309 24.1926 82.9033 23.5157C82.8366 23.4289 82.5697 23.3305 82.3751 23.3305C82.1249 23.5794 82.0081 23.9149 81.9414 24.1059C81.819 24.4473 81.5466 24.8002 81.3965 25.0143C81.0907 25.4483 80.9406 25.6392 80.8293 25.6855C80.8182 25.6739 80.7904 25.6392 80.7904 25.5813C80.7904 25.3788 80.9516 24.8523 81.0239 24.6787C81.3576 23.8571 81.6634 23.4173 81.7301 23.3421C81.6189 23.209 81.3631 23.1627 81.2352 23.1627C80.7682 23.5157 80.3733 24.4936 80.2399 25.0779C80.2066 25.2399 80.1954 25.3556 80.1954 25.5697C80.2566 25.8417 80.568 26.0095 80.8015 26.0211C80.8516 26.0153 80.9461 25.9458 81.0406 25.8417C81.163 25.6913 81.5633 25.0953 81.6244 25.1011C81.6078 25.1532 81.5966 25.2226 81.5966 25.3094C81.5966 25.4425 81.6356 25.6566 81.7746 25.778ZM84.9273 23.6025C84.8829 23.4231 84.4547 22.9718 84.2879 22.9255C83.8987 23.0123 83.5539 23.4578 83.5539 23.8686C83.5539 24.1926 83.7263 24.5283 83.7263 24.9217C83.0813 24.968 82.5809 25.4656 82.5809 26.0558C82.642 26.2699 82.8978 26.4898 83.1091 26.5071C83.7041 26.4435 84.0655 26.0268 84.0655 25.3846C84.0655 25.292 84.0599 25.2342 84.0599 25.1763C84.0599 25.0895 84.0877 25.0779 84.4325 24.9969C84.4436 24.9854 84.4547 24.9507 84.4547 24.9217C84.4547 24.8928 84.4547 24.887 84.4492 24.8754C84.3324 24.8754 84.2156 24.8812 84.0599 24.887C84.0544 24.8754 84.0544 24.8638 84.0544 24.8175C84.0544 24.0769 84.2156 23.6777 84.5103 23.6777C84.5882 23.6777 84.6437 23.7587 84.6437 23.8686C84.6437 23.9612 84.5548 24.1348 84.5548 24.1811C84.5604 24.2332 84.5826 24.2621 84.6271 24.2679C84.7439 24.2679 84.9106 23.8976 84.9273 23.6025ZM83.0924 26.241C83.0201 26.1889 82.9812 26.1194 82.9812 26.0327C82.9812 25.7665 83.4594 25.2631 83.7485 25.2226C83.7485 25.6219 83.4483 26.0905 83.0924 26.241ZM85.5779 23.6892C85.2943 24.401 85.0886 25.1821 85.0886 25.5582C85.0886 25.8301 85.5112 26.16 85.8782 26.1715C86.0005 26.16 86.4009 25.8822 86.4842 25.7491C86.4787 25.726 86.462 25.6913 86.4453 25.6623C86.2896 25.7896 86.0839 25.8822 85.8614 25.9111C85.7447 25.8938 85.678 25.8012 85.678 25.6276C85.678 25.1532 85.9004 24.401 86.2674 23.6604C86.5232 23.6545 86.7511 23.6141 86.929 23.5447C86.929 23.481 86.9013 23.4173 86.8679 23.3826C86.7122 23.4 86.5565 23.4057 86.412 23.4057C86.5954 23.0817 86.7345 22.856 86.9569 22.5668C86.8846 22.4799 86.5287 22.3585 86.3786 22.3585C86.2563 22.4279 85.9338 22.9255 85.7113 23.3826C85.5612 23.3768 85.3833 23.3594 85.1887 23.3479C85.1887 23.452 85.2276 23.643 85.2609 23.6892H85.5779Z" fill="#931602"/>
<path d="M89.8103 25.9058L89.0719 24.5866H88.5825V25.9058H88.1777V22.6795H89.1786C89.4129 22.6795 89.6109 22.7211 89.7725 22.8044C89.9341 22.8877 90.055 23.0004 90.135 23.1423C90.2151 23.2843 90.2551 23.4463 90.2551 23.6284C90.2551 23.8506 90.1936 24.0466 90.0706 24.2162C89.9474 24.386 89.7629 24.4986 89.5167 24.5542L90.2952 25.9058H89.8103ZM88.5825 24.2487H89.1786C89.3981 24.2487 89.5627 24.1923 89.6724 24.0797C89.7821 23.9671 89.837 23.8167 89.837 23.6284C89.837 23.4371 89.7829 23.2889 89.6747 23.184C89.5664 23.079 89.401 23.0266 89.1786 23.0266H88.5825V24.2487ZM91.2871 23.022V24.1005H92.417V24.4477H91.2871V25.5587H92.5505V25.9058H90.8823V22.6748H92.5505V23.022H91.2871ZM94.9971 25.1883H93.6448L93.3957 25.9058H92.9686L94.0896 22.698H94.5567L95.6732 25.9058H95.2462L94.9971 25.1883ZM94.8814 24.8458L94.3209 23.2164L93.7604 24.8458H94.8814ZM96.5673 25.5633H97.6528V25.9058H96.1626V22.6795H96.5673V25.5633Z" fill="#2B2A29"/>
<path d="M99.6773 23.0219V24.1004H100.807V24.4477H99.6773V25.5586H100.941V25.9058H99.2725V22.6747H100.941V23.0219H99.6773ZM102.538 25.9381C102.333 25.9381 102.15 25.9004 101.988 25.8248C101.827 25.7491 101.7 25.6442 101.608 25.51C101.516 25.3757 101.468 25.2206 101.466 25.0448H101.897C101.912 25.196 101.972 25.3233 102.077 25.4266C102.182 25.53 102.336 25.5817 102.538 25.5817C102.73 25.5817 102.882 25.5316 102.994 25.4313C103.105 25.331 103.16 25.2021 103.16 25.0448C103.16 24.9213 103.128 24.8211 103.062 24.7439C102.997 24.6667 102.916 24.6081 102.818 24.568C102.72 24.5279 102.588 24.4846 102.422 24.4384C102.217 24.3829 102.053 24.3273 101.93 24.2717C101.807 24.2162 101.702 24.129 101.615 24.0102C101.527 23.8914 101.483 23.7317 101.483 23.5311C101.483 23.3552 101.526 23.1994 101.612 23.0636C101.698 22.9278 101.819 22.8229 101.975 22.7488C102.131 22.6747 102.309 22.6377 102.511 22.6377C102.802 22.6377 103.039 22.7133 103.225 22.8645C103.41 23.0158 103.515 23.2164 103.538 23.4663H103.094C103.079 23.3429 103.017 23.2341 102.907 23.1399C102.797 23.0458 102.652 22.9988 102.471 22.9988C102.302 22.9988 102.164 23.0443 102.057 23.1353C101.95 23.2263 101.897 23.3537 101.897 23.5172C101.897 23.6345 101.929 23.7302 101.993 23.8042C102.056 23.8783 102.135 23.9346 102.228 23.9731C102.322 24.0117 102.453 24.0558 102.622 24.1051C102.827 24.1637 102.991 24.2216 103.116 24.2787C103.24 24.3357 103.347 24.4238 103.436 24.5425C103.525 24.6613 103.57 24.8226 103.57 25.0263C103.57 25.1836 103.53 25.3318 103.449 25.4707C103.369 25.6095 103.251 25.7222 103.094 25.8086C102.936 25.895 102.751 25.9381 102.538 25.9381ZM106.074 22.6794V23.0219H105.229V25.9058H104.824V23.0219H103.974V22.6794H106.074ZM108.405 25.1883H107.053L106.804 25.9058H106.377L107.498 22.6979H107.965L109.081 25.9058H108.654L108.405 25.1883ZM108.289 24.8457L107.729 23.2164L107.168 24.8457H108.289ZM111.479 22.6794V23.0219H110.634V25.9058H110.229V23.0219H109.379V22.6794H111.479ZM112.382 23.0219V24.1004H113.512V24.4477H112.382V25.5586H113.645V25.9058H111.977V22.6747H113.645V23.0219H112.382Z" fill="#2B2A29"/>
<path fill-rule="evenodd" clip-rule="evenodd" d="M33.6577 24.2734H50.7008V24.4272H33.6577V24.2734Z" fill="#2B2A29"/>
<path fill-rule="evenodd" clip-rule="evenodd" d="M115.404 24.2734H132.447V24.4272H115.404V24.2734Z" fill="#2B2A29"/>
<path d="M5.06633 9.43385V25.8416H0.5V0.180664L13.8252 12.1141L11.685 15.1445L5.06633 9.43385Z" fill="#003E71"/>
<path fill-rule="evenodd" clip-rule="evenodd" d="M10.23 20.0068V25.8416H6.03418L10.23 20.0068Z" fill="#931602"/>
<path fill-rule="evenodd" clip-rule="evenodd" d="M17.0758 10.4609V25.8421H12.8623V16.3102L17.0758 10.4609Z" fill="#931602"/>
<path fill-rule="evenodd" clip-rule="evenodd" d="M24.3963 0.207031L20.3213 5.89604V25.8419H24.452L24.3963 0.207031Z" fill="#931602"/>
</svg>
