<svg width="241" height="55" viewBox="0 0 241 55" fill="none" xmlns="http://www.w3.org/2000/svg">
<path fill-rule="evenodd" clip-rule="evenodd" d="M27.0175 1L27.8489 1.38919L51.3484 12.3892C52.3488 12.8575 52.7801 14.0481 52.3119 15.0485C51.8436 16.0488 50.653 16.4802 49.6526 16.0119L26.9845 5.40112L3.82118 15.824C2.81389 16.2772 1.62989 15.8281 1.17663 14.8208C0.723379 13.8135 1.17252 12.6295 2.17981 12.1763L26.1803 1.3767L27.0175 1ZM27.0161 9.00229L27.8437 9.38656L41.8437 15.8866C42.8456 16.3517 43.2807 17.5409 42.8155 18.5428C42.3504 19.5447 41.1611 19.9797 40.1593 19.5146L26.9869 13.3989L13.3196 19.5256C12.3117 19.9774 11.1283 19.5266 10.6765 18.5187C10.2246 17.5108 10.6755 16.3274 11.6834 15.8756L26.1834 9.37556L27.0161 9.00229ZM27.2371 32.0602L48.501 23.6432V41.7006H28.501V37.7006C28.501 36.596 27.6056 35.7006 26.501 35.7006C25.3964 35.7006 24.501 36.596 24.501 37.7006V43.7006V45.7006H26.501H50.501H52.501V43.7006V21.4362C52.501 19.6714 50.7218 18.4622 49.0809 19.1117L26.5088 28.0465L4.43798 19.1242C2.79461 18.4599 1.00101 19.6694 1.00101 21.442V43.7006C1.00101 44.8051 1.89644 45.7006 3.00101 45.7006C4.10558 45.7006 5.00101 44.8051 5.00101 43.7006V23.6663L25.7514 32.0548L26.4932 32.3547L27.2371 32.0602Z" fill="url(#paint0_linear_45_28)"/>
<path fill-rule="evenodd" clip-rule="evenodd" d="M27.0175 1L27.8489 1.38919L51.3484 12.3892C52.3488 12.8575 52.7801 14.0481 52.3119 15.0485C51.8436 16.0488 50.653 16.4802 49.6526 16.0119L26.9845 5.40112L3.82118 15.824C2.81389 16.2772 1.62989 15.8281 1.17663 14.8208C0.723379 13.8135 1.17252 12.6295 2.17981 12.1763L26.1803 1.3767L27.0175 1ZM27.0161 9.00229L27.8437 9.38656L41.8437 15.8866C42.8456 16.3517 43.2807 17.5409 42.8155 18.5428C42.3504 19.5447 41.1611 19.9797 40.1593 19.5146L26.9869 13.3989L13.3196 19.5256C12.3117 19.9774 11.1283 19.5266 10.6765 18.5187C10.2246 17.5108 10.6755 16.3274 11.6834 15.8756L26.1834 9.37556L27.0161 9.00229ZM27.2371 32.0602L48.501 23.6432V41.7006H28.501V37.7006C28.501 36.596 27.6056 35.7006 26.501 35.7006C25.3964 35.7006 24.501 36.596 24.501 37.7006V43.7006V45.7006H26.501H50.501H52.501V43.7006V21.4362C52.501 19.6714 50.7218 18.4622 49.0809 19.1117L26.5088 28.0465L4.43798 19.1242C2.79461 18.4599 1.00101 19.6694 1.00101 21.442V43.7006C1.00101 44.8051 1.89644 45.7006 3.00101 45.7006C4.10558 45.7006 5.00101 44.8051 5.00101 43.7006V23.6663L25.7514 32.0548L26.4932 32.3547L27.2371 32.0602Z" fill="#F1F1F1"/>
<path d="M27.8489 1.38919L27.6369 1.84203L27.6369 1.84203L27.8489 1.38919ZM27.0175 1L27.2294 0.547157L27.0216 0.44986L26.8123 0.544034L27.0175 1ZM51.3484 12.3892L51.1364 12.842L51.1364 12.842L51.3484 12.3892ZM49.6526 16.0119L49.8646 15.5591L49.8646 15.5591L49.6526 16.0119ZM26.9845 5.40112L27.1965 4.94828L26.9886 4.85098L26.7793 4.94515L26.9845 5.40112ZM3.82118 15.824L4.02635 16.2799L4.02635 16.2799L3.82118 15.824ZM1.17663 14.8208L1.6326 14.6156L1.6326 14.6156L1.17663 14.8208ZM2.17981 12.1763L1.97463 11.7203L1.97463 11.7203L2.17981 12.1763ZM26.1803 1.3767L25.9751 0.920732L25.9751 0.920732L26.1803 1.3767ZM27.8437 9.38656L27.6332 9.84006L27.6332 9.84006L27.8437 9.38656ZM27.0161 9.00229L27.2266 8.54879L27.0197 8.45272L26.8115 8.54604L27.0161 9.00229ZM41.8437 15.8866L42.0543 15.4331L42.0543 15.4331L41.8437 15.8866ZM42.8155 18.5428L43.269 18.7534L43.269 18.7534L42.8155 18.5428ZM40.1593 19.5146L40.3698 19.0611L40.3698 19.0611L40.1593 19.5146ZM26.9869 13.3989L27.1975 12.9454L26.9906 12.8493L26.7824 12.9426L26.9869 13.3989ZM13.3196 19.5256L13.1151 19.0693L13.1151 19.0693L13.3196 19.5256ZM10.6765 18.5187L10.2202 18.7232L10.2202 18.7232L10.6765 18.5187ZM11.6834 15.8756L11.8879 16.3318L11.8879 16.3318L11.6834 15.8756ZM26.1834 9.37556L26.3879 9.83181L26.3879 9.83181L26.1834 9.37556ZM48.501 23.6432H49.001V22.9076L48.317 23.1783L48.501 23.6432ZM27.2371 32.0602L27.4211 32.5251L27.4211 32.5251L27.2371 32.0602ZM48.501 41.7006V42.2006H49.001V41.7006H48.501ZM28.501 41.7006H28.001V42.2006H28.501V41.7006ZM24.501 45.7006H24.001V46.2006H24.501V45.7006ZM52.501 45.7006V46.2006H53.001V45.7006H52.501ZM49.0809 19.1117L48.8969 18.6468L48.8969 18.6468L49.0809 19.1117ZM26.5088 28.0465L26.3214 28.5101L26.5069 28.585L26.6929 28.5114L26.5088 28.0465ZM4.43798 19.1242L4.62538 18.6607L4.62538 18.6607L4.43798 19.1242ZM5.00101 23.6663L5.1884 23.2028L4.50101 22.9249V23.6663H5.00101ZM25.7514 32.0548L25.564 32.5184L25.564 32.5184L25.7514 32.0548ZM26.4932 32.3547L26.3058 32.8182L26.4912 32.8932L26.6772 32.8196L26.4932 32.3547ZM28.0609 0.936343L27.2294 0.547157L26.8055 1.45284L27.6369 1.84203L28.0609 0.936343ZM51.5604 11.9363L28.0609 0.936342L27.6369 1.84203L51.1364 12.842L51.5604 11.9363ZM52.7647 15.2604C53.3501 14.0099 52.8109 12.5217 51.5604 11.9363L51.1364 12.842C51.8867 13.1932 52.2102 14.0862 51.859 14.8365L52.7647 15.2604ZM49.4406 16.4648C50.6911 17.0501 52.1794 16.5109 52.7647 15.2604L51.859 14.8365C51.5078 15.5868 50.6149 15.9103 49.8646 15.5591L49.4406 16.4648ZM26.7725 5.85396L49.4406 16.4648L49.8646 15.5591L27.1965 4.94828L26.7725 5.85396ZM4.02635 16.2799L27.1897 5.85708L26.7793 4.94515L3.61601 15.368L4.02635 16.2799ZM0.720667 15.026C1.28723 16.2851 2.76724 16.8465 4.02635 16.2799L3.61601 15.368C2.86054 15.708 1.97254 15.3711 1.6326 14.6156L0.720667 15.026ZM1.97463 11.7203C0.715521 12.2869 0.1541 13.7669 0.720667 15.026L1.6326 14.6156C1.29266 13.8602 1.62951 12.9722 2.38498 12.6322L1.97463 11.7203ZM25.9751 0.920732L1.97463 11.7203L2.38498 12.6322L26.3855 1.83266L25.9751 0.920732ZM26.8123 0.544034L25.9751 0.920732L26.3855 1.83266L27.2226 1.45597L26.8123 0.544034ZM28.0543 8.93306L27.2266 8.54879L26.8055 9.4558L27.6332 9.84006L28.0543 8.93306ZM42.0543 15.4331L28.0543 8.93306L27.6332 9.84006L41.6332 16.3401L42.0543 15.4331ZM43.269 18.7534C43.8505 17.501 43.3066 16.0145 42.0543 15.4331L41.6332 16.3401C42.3846 16.6889 42.7109 17.5809 42.362 18.3322L43.269 18.7534ZM39.9487 19.9681C41.201 20.5495 42.6876 20.0057 43.269 18.7534L42.362 18.3322C42.0132 19.0836 41.1212 19.41 40.3698 19.0611L39.9487 19.9681ZM26.7764 13.8524L39.9487 19.9681L40.3698 19.0611L27.1975 12.9454L26.7764 13.8524ZM13.5241 19.9819L27.1915 13.8551L26.7824 12.9426L13.1151 19.0693L13.5241 19.9819ZM10.2202 18.7232C10.785 19.9831 12.2642 20.5466 13.5241 19.9819L13.1151 19.0693C12.3591 19.4082 11.4716 19.0701 11.1327 18.3142L10.2202 18.7232ZM11.4789 15.4193C10.2189 15.9841 9.65544 17.4633 10.2202 18.7232L11.1327 18.3142C10.7939 17.5582 11.132 16.6707 11.8879 16.3318L11.4789 15.4193ZM25.9789 8.91931L11.4789 15.4193L11.8879 16.3318L26.3879 9.83181L25.9789 8.91931ZM26.8115 8.54604L25.9789 8.91931L26.3879 9.83181L27.2206 9.45855L26.8115 8.54604ZM48.317 23.1783L27.0531 31.5953L27.4211 32.5251L48.685 24.1081L48.317 23.1783ZM49.001 41.7006V23.6432H48.001V41.7006H49.001ZM28.501 42.2006H48.501V41.2006H28.501V42.2006ZM28.001 37.7006V41.7006H29.001V37.7006H28.001ZM26.501 36.2006C27.3294 36.2006 28.001 36.8722 28.001 37.7006H29.001C29.001 36.3199 27.8817 35.2006 26.501 35.2006V36.2006ZM25.001 37.7006C25.001 36.8722 25.6726 36.2006 26.501 36.2006V35.2006C25.1203 35.2006 24.001 36.3199 24.001 37.7006H25.001ZM25.001 43.7006V37.7006H24.001V43.7006H25.001ZM25.001 45.7006V43.7006H24.001V45.7006H25.001ZM26.501 45.2006H24.501V46.2006H26.501V45.2006ZM50.501 45.2006H26.501V46.2006H50.501V45.2006ZM52.501 45.2006H50.501V46.2006H52.501V45.2006ZM52.001 43.7006V45.7006H53.001V43.7006H52.001ZM52.001 21.4362V43.7006H53.001V21.4362H52.001ZM49.2649 19.5766C50.5777 19.057 52.001 20.0244 52.001 21.4362H53.001C53.001 19.3185 50.866 17.8674 48.8969 18.6468L49.2649 19.5766ZM26.6929 28.5114L49.2649 19.5766L48.8969 18.6468L26.3248 27.5816L26.6929 28.5114ZM4.25059 19.5878L26.3214 28.5101L26.6962 27.5829L4.62538 18.6607L4.25059 19.5878ZM1.50101 21.442C1.50101 20.024 2.93589 19.0563 4.25059 19.5878L4.62538 18.6607C2.65333 17.8635 0.50101 19.3149 0.50101 21.442H1.50101ZM1.50101 43.7006V21.442H0.50101V43.7006H1.50101ZM3.00101 45.2006C2.17258 45.2006 1.50101 44.529 1.50101 43.7006H0.50101C0.50101 45.0813 1.6203 46.2006 3.00101 46.2006V45.2006ZM4.50101 43.7006C4.50101 44.529 3.82944 45.2006 3.00101 45.2006V46.2006C4.38172 46.2006 5.50101 45.0813 5.50101 43.7006H4.50101ZM4.50101 23.6663V43.7006H5.50101V23.6663H4.50101ZM25.9388 31.5912L5.1884 23.2028L4.81362 24.1299L25.564 32.5184L25.9388 31.5912ZM26.6806 31.8911L25.9388 31.5912L25.564 32.5184L26.3058 32.8182L26.6806 31.8911ZM27.0531 31.5953L26.3092 31.8898L26.6772 32.8196L27.4211 32.5251L27.0531 31.5953Z" fill="url(#paint1_linear_45_28)"/>
<path d="M27.8489 1.38919L27.6369 1.84203L27.6369 1.84203L27.8489 1.38919ZM27.0175 1L27.2294 0.547157L27.0216 0.44986L26.8123 0.544034L27.0175 1ZM51.3484 12.3892L51.1364 12.842L51.1364 12.842L51.3484 12.3892ZM49.6526 16.0119L49.8646 15.5591L49.8646 15.5591L49.6526 16.0119ZM26.9845 5.40112L27.1965 4.94828L26.9886 4.85098L26.7793 4.94515L26.9845 5.40112ZM3.82118 15.824L4.02635 16.2799L4.02635 16.2799L3.82118 15.824ZM1.17663 14.8208L1.6326 14.6156L1.6326 14.6156L1.17663 14.8208ZM2.17981 12.1763L1.97463 11.7203L1.97463 11.7203L2.17981 12.1763ZM26.1803 1.3767L25.9751 0.920732L25.9751 0.920732L26.1803 1.3767ZM27.8437 9.38656L27.6332 9.84006L27.6332 9.84006L27.8437 9.38656ZM27.0161 9.00229L27.2266 8.54879L27.0197 8.45272L26.8115 8.54604L27.0161 9.00229ZM41.8437 15.8866L42.0543 15.4331L42.0543 15.4331L41.8437 15.8866ZM42.8155 18.5428L43.269 18.7534L43.269 18.7534L42.8155 18.5428ZM40.1593 19.5146L40.3698 19.0611L40.3698 19.0611L40.1593 19.5146ZM26.9869 13.3989L27.1975 12.9454L26.9906 12.8493L26.7824 12.9426L26.9869 13.3989ZM13.3196 19.5256L13.1151 19.0693L13.1151 19.0693L13.3196 19.5256ZM10.6765 18.5187L10.2202 18.7232L10.2202 18.7232L10.6765 18.5187ZM11.6834 15.8756L11.8879 16.3318L11.8879 16.3318L11.6834 15.8756ZM26.1834 9.37556L26.3879 9.83181L26.3879 9.83181L26.1834 9.37556ZM48.501 23.6432H49.001V22.9076L48.317 23.1783L48.501 23.6432ZM27.2371 32.0602L27.4211 32.5251L27.4211 32.5251L27.2371 32.0602ZM48.501 41.7006V42.2006H49.001V41.7006H48.501ZM28.501 41.7006H28.001V42.2006H28.501V41.7006ZM24.501 45.7006H24.001V46.2006H24.501V45.7006ZM52.501 45.7006V46.2006H53.001V45.7006H52.501ZM49.0809 19.1117L48.8969 18.6468L48.8969 18.6468L49.0809 19.1117ZM26.5088 28.0465L26.3214 28.5101L26.5069 28.585L26.6929 28.5114L26.5088 28.0465ZM4.43798 19.1242L4.62538 18.6607L4.62538 18.6607L4.43798 19.1242ZM5.00101 23.6663L5.1884 23.2028L4.50101 22.9249V23.6663H5.00101ZM25.7514 32.0548L25.564 32.5184L25.564 32.5184L25.7514 32.0548ZM26.4932 32.3547L26.3058 32.8182L26.4912 32.8932L26.6772 32.8196L26.4932 32.3547ZM28.0609 0.936343L27.2294 0.547157L26.8055 1.45284L27.6369 1.84203L28.0609 0.936343ZM51.5604 11.9363L28.0609 0.936342L27.6369 1.84203L51.1364 12.842L51.5604 11.9363ZM52.7647 15.2604C53.3501 14.0099 52.8109 12.5217 51.5604 11.9363L51.1364 12.842C51.8867 13.1932 52.2102 14.0862 51.859 14.8365L52.7647 15.2604ZM49.4406 16.4648C50.6911 17.0501 52.1794 16.5109 52.7647 15.2604L51.859 14.8365C51.5078 15.5868 50.6149 15.9103 49.8646 15.5591L49.4406 16.4648ZM26.7725 5.85396L49.4406 16.4648L49.8646 15.5591L27.1965 4.94828L26.7725 5.85396ZM4.02635 16.2799L27.1897 5.85708L26.7793 4.94515L3.61601 15.368L4.02635 16.2799ZM0.720667 15.026C1.28723 16.2851 2.76724 16.8465 4.02635 16.2799L3.61601 15.368C2.86054 15.708 1.97254 15.3711 1.6326 14.6156L0.720667 15.026ZM1.97463 11.7203C0.715521 12.2869 0.1541 13.7669 0.720667 15.026L1.6326 14.6156C1.29266 13.8602 1.62951 12.9722 2.38498 12.6322L1.97463 11.7203ZM25.9751 0.920732L1.97463 11.7203L2.38498 12.6322L26.3855 1.83266L25.9751 0.920732ZM26.8123 0.544034L25.9751 0.920732L26.3855 1.83266L27.2226 1.45597L26.8123 0.544034ZM28.0543 8.93306L27.2266 8.54879L26.8055 9.4558L27.6332 9.84006L28.0543 8.93306ZM42.0543 15.4331L28.0543 8.93306L27.6332 9.84006L41.6332 16.3401L42.0543 15.4331ZM43.269 18.7534C43.8505 17.501 43.3066 16.0145 42.0543 15.4331L41.6332 16.3401C42.3846 16.6889 42.7109 17.5809 42.362 18.3322L43.269 18.7534ZM39.9487 19.9681C41.201 20.5495 42.6876 20.0057 43.269 18.7534L42.362 18.3322C42.0132 19.0836 41.1212 19.41 40.3698 19.0611L39.9487 19.9681ZM26.7764 13.8524L39.9487 19.9681L40.3698 19.0611L27.1975 12.9454L26.7764 13.8524ZM13.5241 19.9819L27.1915 13.8551L26.7824 12.9426L13.1151 19.0693L13.5241 19.9819ZM10.2202 18.7232C10.785 19.9831 12.2642 20.5466 13.5241 19.9819L13.1151 19.0693C12.3591 19.4082 11.4716 19.0701 11.1327 18.3142L10.2202 18.7232ZM11.4789 15.4193C10.2189 15.9841 9.65544 17.4633 10.2202 18.7232L11.1327 18.3142C10.7939 17.5582 11.132 16.6707 11.8879 16.3318L11.4789 15.4193ZM25.9789 8.91931L11.4789 15.4193L11.8879 16.3318L26.3879 9.83181L25.9789 8.91931ZM26.8115 8.54604L25.9789 8.91931L26.3879 9.83181L27.2206 9.45855L26.8115 8.54604ZM48.317 23.1783L27.0531 31.5953L27.4211 32.5251L48.685 24.1081L48.317 23.1783ZM49.001 41.7006V23.6432H48.001V41.7006H49.001ZM28.501 42.2006H48.501V41.2006H28.501V42.2006ZM28.001 37.7006V41.7006H29.001V37.7006H28.001ZM26.501 36.2006C27.3294 36.2006 28.001 36.8722 28.001 37.7006H29.001C29.001 36.3199 27.8817 35.2006 26.501 35.2006V36.2006ZM25.001 37.7006C25.001 36.8722 25.6726 36.2006 26.501 36.2006V35.2006C25.1203 35.2006 24.001 36.3199 24.001 37.7006H25.001ZM25.001 43.7006V37.7006H24.001V43.7006H25.001ZM25.001 45.7006V43.7006H24.001V45.7006H25.001ZM26.501 45.2006H24.501V46.2006H26.501V45.2006ZM50.501 45.2006H26.501V46.2006H50.501V45.2006ZM52.501 45.2006H50.501V46.2006H52.501V45.2006ZM52.001 43.7006V45.7006H53.001V43.7006H52.001ZM52.001 21.4362V43.7006H53.001V21.4362H52.001ZM49.2649 19.5766C50.5777 19.057 52.001 20.0244 52.001 21.4362H53.001C53.001 19.3185 50.866 17.8674 48.8969 18.6468L49.2649 19.5766ZM26.6929 28.5114L49.2649 19.5766L48.8969 18.6468L26.3248 27.5816L26.6929 28.5114ZM4.25059 19.5878L26.3214 28.5101L26.6962 27.5829L4.62538 18.6607L4.25059 19.5878ZM1.50101 21.442C1.50101 20.024 2.93589 19.0563 4.25059 19.5878L4.62538 18.6607C2.65333 17.8635 0.50101 19.3149 0.50101 21.442H1.50101ZM1.50101 43.7006V21.442H0.50101V43.7006H1.50101ZM3.00101 45.2006C2.17258 45.2006 1.50101 44.529 1.50101 43.7006H0.50101C0.50101 45.0813 1.6203 46.2006 3.00101 46.2006V45.2006ZM4.50101 43.7006C4.50101 44.529 3.82944 45.2006 3.00101 45.2006V46.2006C4.38172 46.2006 5.50101 45.0813 5.50101 43.7006H4.50101ZM4.50101 23.6663V43.7006H5.50101V23.6663H4.50101ZM25.9388 31.5912L5.1884 23.2028L4.81362 24.1299L25.564 32.5184L25.9388 31.5912ZM26.6806 31.8911L25.9388 31.5912L25.564 32.5184L26.3058 32.8182L26.6806 31.8911ZM27.0531 31.5953L26.3092 31.8898L26.6772 32.8196L27.4211 32.5251L27.0531 31.5953Z" fill="#F1F1F1"/>
<path d="M72.132 30.158H85.356V34.224H72.132V30.158ZM72.512 41.558H87.522V45.7H67.572V19.0999H86.99V23.242H72.512V41.558ZM101.275 46.08C99.1977 46.08 97.209 45.7886 95.309 45.206C93.409 44.598 91.9017 43.8253 90.787 42.888L92.497 39.05C93.561 39.886 94.8784 40.5826 96.449 41.14C98.0197 41.6973 99.6284 41.976 101.275 41.976C102.668 41.976 103.796 41.824 104.657 41.52C105.518 41.216 106.152 40.8106 106.557 40.304C106.962 39.772 107.165 39.1766 107.165 38.518C107.165 37.7073 106.874 37.0613 106.291 36.58C105.708 36.0733 104.948 35.6806 104.011 35.402C103.099 35.098 102.073 34.8193 100.933 34.566C99.8184 34.3126 98.691 34.0213 97.551 33.692C96.4364 33.3373 95.4104 32.894 94.473 32.362C93.561 31.8046 92.8137 31.07 92.231 30.158C91.6484 29.246 91.357 28.0806 91.357 26.6619C91.357 25.2179 91.737 23.9006 92.497 22.71C93.2824 21.4939 94.4604 20.5313 96.031 19.8219C97.627 19.0873 99.641 18.7199 102.073 18.7199C103.669 18.7199 105.252 18.9226 106.823 19.328C108.394 19.7333 109.762 20.316 110.927 21.076L109.369 24.9139C108.178 24.2046 106.95 23.6853 105.683 23.356C104.416 23.0013 103.2 22.8239 102.035 22.8239C100.667 22.8239 99.5524 22.9886 98.691 23.3179C97.855 23.6473 97.2344 24.078 96.829 24.61C96.449 25.142 96.259 25.7499 96.259 26.434C96.259 27.2446 96.5377 27.9033 97.095 28.41C97.6777 28.8913 98.425 29.2713 99.337 29.55C100.274 29.8286 101.313 30.1073 102.453 30.386C103.593 30.6393 104.72 30.9306 105.835 31.26C106.975 31.5893 108.001 32.02 108.913 32.552C109.85 33.084 110.598 33.806 111.155 34.718C111.738 35.63 112.029 36.7826 112.029 38.176C112.029 39.5946 111.636 40.912 110.851 42.128C110.091 43.3186 108.913 44.2813 107.317 45.016C105.721 45.7253 103.707 46.08 101.275 46.08ZM121.952 45.7V23.2799H113.136V19.0999H135.708V23.2799H126.892V45.7H121.952ZM139.416 45.7V19.0999H150.36C152.716 19.0999 154.73 19.4799 156.402 20.24C158.099 20.9999 159.404 22.0893 160.316 23.5079C161.228 24.9266 161.684 26.6113 161.684 28.5619C161.684 30.5126 161.228 32.1973 160.316 33.616C159.404 35.0093 158.099 36.086 156.402 36.846C154.73 37.5806 152.716 37.948 150.36 37.948H142.152L144.356 35.706V45.7H139.416ZM156.82 45.7L150.094 36.048H155.376L162.14 45.7H156.82ZM144.356 36.238L142.152 33.882H150.132C152.31 33.882 153.944 33.4133 155.034 32.476C156.148 31.5386 156.706 30.234 156.706 28.5619C156.706 26.8646 156.148 25.56 155.034 24.648C153.944 23.736 152.31 23.2799 150.132 23.2799H142.152L144.356 20.8479V36.238ZM163.449 45.7L175.419 19.0999H180.283L192.291 45.7H187.123L176.825 21.7219H178.801L168.541 45.7H163.449ZM168.959 39.544L170.289 35.668H184.653L185.983 39.544H168.959ZM199.734 45.7V23.2799H190.918V19.0999H213.49V23.2799H204.674V45.7H199.734ZM212.099 45.7L224.069 19.0999H228.933L240.941 45.7H235.773L225.475 21.7219H227.451L217.191 45.7H212.099ZM217.609 39.544L218.939 35.668H233.303L234.633 39.544H217.609Z" fill="#F1F1F1"/>
<defs>
<linearGradient id="paint0_linear_45_28" x1="2.96243" y1="12.7004" x2="52.5663" y2="44.3289" gradientUnits="userSpaceOnUse">
<stop stop-color="#00FBAA"/>
<stop offset="1" stop-color="#2A58D9"/>
</linearGradient>
<linearGradient id="paint1_linear_45_28" x1="2.93132" y1="6.4304" x2="26.0483" y2="52.8383" gradientUnits="userSpaceOnUse">
<stop stop-color="#00FBAA"/>
<stop offset="1" stop-color="#0D4DFF"/>
</linearGradient>
</defs>
</svg>
