<svg
              xmlns="http://www.w3.org/2000/svg"
              width="25"
              height="25"
              viewBox="0 0 25 25"
              fill="none"
            >
              <path
                d="M16.3126 2.86605L23.0091 9.33926C23.0738 9.40179 23.1252 9.47671 23.1604 9.55954C23.1955 9.64237 23.2136 9.73143 23.2136 9.82141C23.2136 9.91138 23.1955 10.0004 23.1604 10.0833C23.1252 10.1661 23.0738 10.241 23.0091 10.3035L16.3126 16.7768C16.2514 16.8371 16.1789 16.8847 16.0992 16.9169C16.0195 16.9491 15.9343 16.9652 15.8484 16.9643C15.6708 16.9643 15.5004 16.8937 15.3748 16.7681C15.2493 16.6425 15.1787 16.4722 15.1787 16.2946V12.9553C9.19657 13.1964 6.67871 16.5446 6.57157 16.6875C6.48633 16.7997 6.36867 16.883 6.23452 16.9261C6.10037 16.9692 5.95622 16.9701 5.82157 16.9285C5.68726 16.8853 5.57005 16.8007 5.48667 16.6868C5.40329 16.573 5.35801 16.4357 5.35728 16.2946C5.35728 9.13391 11.2412 6.93748 15.1787 6.71426V3.34819C15.179 3.21649 15.2181 3.08781 15.2912 2.97823C15.3642 2.86865 15.468 2.78304 15.5894 2.73212C15.7097 2.68026 15.8426 2.6653 15.9714 2.68915C16.1002 2.71299 16.2189 2.77457 16.3126 2.86605ZM6.91978 3.57141C5.79498 3.57141 4.71625 4.01823 3.92089 4.81359C3.12554 5.60894 2.67871 6.68767 2.67871 7.81248V18.0803C2.67871 19.2051 3.12554 20.2839 3.92089 21.0792C4.71625 21.8746 5.79498 22.3214 6.91978 22.3214H17.1876C18.3124 22.3214 19.3912 21.8746 20.1865 21.0792C20.9819 20.2839 21.4287 19.2051 21.4287 18.0803V17.6339C21.4287 17.4563 21.3582 17.286 21.2326 17.1604C21.107 17.0348 20.9367 16.9643 20.7591 16.9643C20.5815 16.9643 20.4111 17.0348 20.2856 17.1604C20.16 17.286 20.0894 17.4563 20.0894 17.6339V18.0803C20.0894 18.8499 19.7837 19.588 19.2395 20.1322C18.6953 20.6764 17.9572 20.9821 17.1876 20.9821H6.91978C6.15018 20.9821 5.4121 20.6764 4.86791 20.1322C4.32372 19.588 4.018 18.8499 4.018 18.0803V7.81248C4.018 7.04288 4.32372 6.3048 4.86791 5.7606C5.4121 5.21641 6.15018 4.91069 6.91978 4.91069H10.9376C11.1152 4.91069 11.2856 4.84014 11.4111 4.71456C11.5367 4.58898 11.6073 4.41865 11.6073 4.24105C11.6073 4.06345 11.5367 3.89312 11.4111 3.76754C11.2856 3.64196 11.1152 3.57141 10.9376 3.57141H6.91978Z"
                fill="black"
              />
            </svg>