<svg width="20" height="14" viewBox="0 0 20 14" fill="none" xmlns="http://www.w3.org/2000/svg">
<path fill-rule="evenodd" clip-rule="evenodd" d="M1.19884 6.67852C1.20742 6.69231 1.21647 6.70679 1.22601 6.72193C1.3224 6.87506 1.4674 7.09573 1.65929 7.36141C2.0435 7.89341 2.61327 8.60253 3.35443 9.31064C4.84128 10.7312 6.98318 12.116 9.6791 12.116C12.375 12.116 14.5169 10.7312 16.0038 9.31064C16.7449 8.60253 17.3147 7.89341 17.6989 7.36141C17.8908 7.09573 18.0358 6.87506 18.1322 6.72193C18.1417 6.70679 18.1508 6.69231 18.1593 6.67852C18.1508 6.66472 18.1417 6.65025 18.1322 6.6351C18.0358 6.48198 17.8908 6.26131 17.6989 5.99562C17.3147 5.46363 16.7449 4.75451 16.0038 4.0464C14.5169 2.62584 12.375 1.24102 9.6791 1.24102C6.98318 1.24102 4.84128 2.62584 3.35443 4.0464C2.61327 4.75451 2.0435 5.46363 1.65929 5.99562C1.4674 6.26131 1.3224 6.48198 1.22601 6.6351C1.21647 6.65025 1.20742 6.66473 1.19884 6.67852ZM18.6121 6.67852C18.951 6.48875 18.9509 6.4886 18.9508 6.48844L18.9499 6.4867L18.9475 6.48254L18.9392 6.46803C18.9321 6.45564 18.9217 6.43789 18.9083 6.41512C18.8813 6.36961 18.8417 6.30403 18.7896 6.22127C18.6854 6.05579 18.5312 5.82131 18.3286 5.54082C17.9239 4.98046 17.3237 4.23311 16.5404 3.48475C14.9783 1.99236 12.6537 0.464233 9.6791 0.464233C6.70447 0.464233 4.37985 1.99236 2.81782 3.48475C2.03454 4.23311 1.43427 4.98046 1.02956 5.54082C0.826988 5.82131 0.672806 6.05579 0.568633 6.22127C0.516532 6.30403 0.476897 6.36961 0.44993 6.41512C0.436445 6.43789 0.426124 6.45564 0.418992 6.46803L0.410688 6.48254L0.408335 6.4867L0.407609 6.48799C0.407515 6.48816 0.407184 6.48875 0.746059 6.67852L0.407184 6.48875C0.34116 6.60665 0.34116 6.75039 0.407184 6.86829L0.746059 6.67852C0.407184 6.86829 0.40709 6.86812 0.407184 6.86829L0.407609 6.86905L0.408335 6.87034L0.410688 6.8745L0.418992 6.88901C0.426124 6.9014 0.436445 6.91915 0.44993 6.94191C0.476897 6.98743 0.516532 7.053 0.568633 7.13577C0.672806 7.30125 0.826988 7.53572 1.02956 7.81622C1.43427 8.37658 2.03454 9.12393 2.81782 9.87229C4.37985 11.3647 6.70447 12.8928 9.6791 12.8928C12.6537 12.8928 14.9783 11.3647 16.5404 9.87229C17.3237 9.12393 17.9239 8.37658 18.3286 7.81622C18.5312 7.53572 18.6854 7.30125 18.7896 7.13577C18.8417 7.053 18.8813 6.98743 18.9083 6.94191C18.9217 6.91915 18.9321 6.9014 18.9392 6.88901L18.9475 6.8745L18.9499 6.87034L18.9506 6.86905C18.9507 6.86888 18.951 6.86829 18.6121 6.67852ZM18.6121 6.67852L18.951 6.86829C19.017 6.75039 19.0169 6.60634 18.9508 6.48844L18.6121 6.67852Z" fill="black"/>
<path d="M18.6121 6.67852C18.951 6.48875 18.9509 6.4886 18.9508 6.48844M18.6121 6.67852C18.951 6.86829 18.9507 6.86888 18.9506 6.86905L18.9499 6.87034L18.9475 6.8745L18.9392 6.88901C18.9321 6.9014 18.9217 6.91915 18.9083 6.94191C18.8813 6.98743 18.8417 7.053 18.7896 7.13577C18.6854 7.30125 18.5312 7.53572 18.3286 7.81622C17.9239 8.37658 17.3237 9.12393 16.5404 9.87229C14.9783 11.3647 12.6537 12.8928 9.6791 12.8928C6.70447 12.8928 4.37985 11.3647 2.81782 9.87229C2.03454 9.12393 1.43427 8.37658 1.02956 7.81622C0.826988 7.53572 0.672806 7.30125 0.568633 7.13577C0.516532 7.053 0.476897 6.98743 0.44993 6.94191C0.436445 6.91915 0.426124 6.9014 0.418992 6.88901L0.410688 6.8745L0.408335 6.87034L0.407609 6.86905L0.407184 6.86829M18.6121 6.67852L18.951 6.86829C19.017 6.75039 19.0169 6.60634 18.9508 6.48844M18.6121 6.67852L18.9508 6.48844M18.9508 6.48844L18.9499 6.4867L18.9475 6.48254L18.9392 6.46803C18.9321 6.45564 18.9217 6.43789 18.9083 6.41512C18.8813 6.36961 18.8417 6.30403 18.7896 6.22127C18.6854 6.05579 18.5312 5.82131 18.3286 5.54082C17.9239 4.98046 17.3237 4.23311 16.5404 3.48475C14.9783 1.99236 12.6537 0.464233 9.6791 0.464233C6.70447 0.464233 4.37985 1.99236 2.81782 3.48475C2.03454 4.23311 1.43427 4.98046 1.02956 5.54082C0.826988 5.82131 0.672806 6.05579 0.568633 6.22127C0.516532 6.30403 0.476897 6.36961 0.44993 6.41512C0.436445 6.43789 0.426124 6.45564 0.418992 6.46803L0.410688 6.48254L0.408335 6.4867L0.407609 6.48799C0.407515 6.48816 0.407184 6.48875 0.746059 6.67852M0.746059 6.67852L0.407184 6.48875C0.34116 6.60665 0.34116 6.75039 0.407184 6.86829M0.746059 6.67852L0.407184 6.86829M0.746059 6.67852C0.407184 6.86829 0.40709 6.86812 0.407184 6.86829M1.22601 6.72193C1.21647 6.70679 1.20742 6.69231 1.19884 6.67852C1.20742 6.66473 1.21647 6.65025 1.22601 6.6351C1.3224 6.48198 1.4674 6.26131 1.65929 5.99562C2.0435 5.46363 2.61327 4.75451 3.35443 4.0464C4.84128 2.62584 6.98318 1.24102 9.6791 1.24102C12.375 1.24102 14.5169 2.62584 16.0038 4.0464C16.7449 4.75451 17.3147 5.46363 17.6989 5.99562C17.8908 6.26131 18.0358 6.48198 18.1322 6.6351C18.1417 6.65025 18.1508 6.66472 18.1594 6.67852C18.1508 6.69231 18.1417 6.70679 18.1322 6.72193C18.0358 6.87506 17.8908 7.09573 17.6989 7.36141C17.3147 7.89341 16.7449 8.60253 16.0038 9.31064C14.5169 10.7312 12.375 12.116 9.6791 12.116C6.98318 12.116 4.84128 10.7312 3.35443 9.31064C2.61327 8.60253 2.0435 7.89341 1.65929 7.36141C1.4674 7.09573 1.3224 6.87506 1.22601 6.72193Z" stroke="black" stroke-width="0.725" stroke-linecap="round" stroke-linejoin="round"/>
<path fill-rule="evenodd" clip-rule="evenodd" d="M9.67923 5.12493C8.82122 5.12493 8.12566 5.82049 8.12566 6.6785C8.12566 7.53652 8.82122 8.23207 9.67923 8.23207C10.5372 8.23207 11.2328 7.53652 11.2328 6.6785C11.2328 5.82049 10.5372 5.12493 9.67923 5.12493ZM7.34888 6.6785C7.34888 5.39148 8.39221 4.34814 9.67923 4.34814C10.9663 4.34814 12.0096 5.39148 12.0096 6.6785C12.0096 7.96552 10.9663 9.00886 9.67923 9.00886C8.39221 9.00886 7.34888 7.96552 7.34888 6.6785Z" fill="black"/>
</svg>