<svg width="19" height="19" viewBox="0 0 19 19" fill="none" xmlns="http://www.w3.org/2000/svg">
<path d="M9.67822 15.8642C10.0952 15.6333 11.8178 14.6407 13.5033 13.1646C15.4104 11.4944 17.0576 9.3895 17.0577 7.20419L9.67822 15.8642ZM9.67822 15.8642C9.26122 15.6333 7.53866 14.6407 5.85316 13.1646C3.94611 11.4945 2.29899 9.38973 2.29876 7.20455C2.29999 6.21336 2.69428 5.26311 3.39517 4.56222C4.09605 3.86133 5.0463 3.46704 6.03749 3.46581C7.3141 3.46594 8.39323 4.01108 9.05704 4.89519L9.67822 5.72251L10.2994 4.89519C10.9632 4.01108 12.0423 3.46594 13.319 3.46581C14.3101 3.46704 15.2604 3.86133 15.9613 4.56222C16.6621 5.263 17.0563 6.21307 17.0577 7.20409L9.67822 15.8642Z" stroke="black" stroke-width="1.55357"/>
</svg>
