<svg width="68" height="67" viewBox="0 0 68 67" fill="none" xmlns="http://www.w3.org/2000/svg">
<g id="object" clip-path="url(#clip0_372_2089)">
<path id="Vector" d="M60.7171 1.7202H6.66278C4.0315 1.7202 1.89844 3.85327 1.89844 6.48454V60.5389C1.89844 63.1702 4.0315 65.3032 6.66278 65.3032H60.7171C63.3484 65.3032 65.4815 63.1702 65.4815 60.5389V6.48454C65.4815 3.85327 63.3484 1.7202 60.7171 1.7202Z" fill="#F2F2F2"/>
<path id="Vector_2" d="M58.569 66.9666H8.8444C6.55068 66.9644 4.35153 66.0522 2.72963 64.4303C1.10772 62.8084 0.195572 60.6093 0.193359 58.3155V8.66612C0.195572 6.3724 1.10772 4.17326 2.72963 2.55136C4.35153 0.929453 6.55068 0.0172886 8.8444 0.0150757H58.569C60.8628 0.0172886 63.0619 0.929453 64.6838 2.55136C66.3057 4.17326 67.2178 6.3724 67.22 8.66612V58.349C67.209 60.6369 66.293 62.8275 64.672 64.4422C63.0511 66.0568 60.857 66.9644 58.569 66.9666ZM8.8444 3.44206C7.45292 3.44427 6.11907 3.99801 5.13514 4.98193C4.15122 5.96586 3.59748 7.29971 3.59527 8.69119V58.3741C3.59748 59.7648 4.15149 61.0978 5.13565 62.0804C6.11981 63.063 7.45369 63.6148 8.8444 63.6148H58.569C59.959 63.6148 61.292 63.0627 62.2748 62.0798C63.2576 61.097 63.8098 59.764 63.8098 58.3741V8.66612C63.8032 7.27976 63.2484 5.95232 62.2665 4.97357C61.2846 3.99482 59.9554 3.44425 58.569 3.44206H8.8444Z" fill="black"/>
<path id="Vector_3" d="M65.4727 40.8881V58.349C65.4727 60.1839 64.7466 61.9443 63.453 63.2457C62.1595 64.5472 60.4035 65.2838 58.5686 65.2949H8.84392C7.00098 65.2949 5.23339 64.5633 3.92945 63.261C2.62552 61.9586 1.89186 60.1919 1.88965 58.349V45.9951L20.061 33.5326L41.0659 54.5375L65.4727 40.8881Z" fill="#00B7EC"/>
<path id="Vector_4" d="M58.5692 66.9666H8.84451C6.55079 66.9644 4.35164 66.0522 2.72974 64.4303C1.10783 62.8084 0.195682 60.6092 0.193469 58.3155V45.9951C0.190298 45.7185 0.255843 45.4454 0.384219 45.2003C0.512594 44.9552 0.699791 44.7458 0.92902 44.5909L19.092 32.1033C19.4182 31.8708 19.817 31.7632 20.2159 31.8C20.6147 31.8369 20.9871 32.0157 21.2652 32.3039L41.3256 52.3643L64.6458 39.3836C64.9029 39.235 65.1949 39.1576 65.4918 39.1593C65.7887 39.1611 66.0798 39.2418 66.3351 39.3933C66.5905 39.5448 66.8009 39.7616 66.9447 40.0214C67.0885 40.2812 67.1605 40.5745 67.1533 40.8714V58.3323C67.1468 60.6115 66.2419 62.7964 64.6349 64.4128C63.0279 66.0292 60.8484 66.9468 58.5692 66.9666ZM3.59538 46.9062V58.3657C3.5976 59.7564 4.1516 61.0894 5.13576 62.072C6.11993 63.0546 7.4538 63.6065 8.84451 63.6065H58.5692C59.9591 63.6065 61.2921 63.0543 62.2749 62.0715C63.2578 61.0886 63.8099 59.7556 63.8099 58.3657V43.7885L41.9358 56.0002C41.6137 56.1852 41.2393 56.2577 40.8715 56.2062C40.5037 56.1547 40.1636 55.9823 39.9047 55.716L19.9028 35.7142L3.59538 46.9062Z" fill="black"/>
<path id="Vector_5" d="M42.7712 36.9178C47.7891 36.9178 51.8569 32.85 51.8569 27.8321C51.8569 22.8142 47.7891 18.7464 42.7712 18.7464C37.7533 18.7464 33.6855 22.8142 33.6855 27.8321C33.6855 32.85 37.7533 36.9178 42.7712 36.9178Z" fill="#FFD866"/>
<path id="Vector_6" d="M42.7718 38.6146C40.6369 38.6162 38.5494 37.9846 36.7736 36.7995C34.9978 35.6144 33.6134 33.9292 32.7957 31.9571C31.9779 29.985 31.7635 27.8146 32.1796 25.7206C32.5957 23.6266 33.6236 21.7031 35.1332 20.1935C36.6428 18.6839 38.5664 17.656 40.6603 17.2399C42.7543 16.8238 44.9247 17.0382 46.8968 17.856C48.8689 18.6737 50.5541 20.0581 51.7392 21.8339C52.9242 23.6098 53.5559 25.6972 53.5543 27.8321C53.5498 30.6904 52.4124 33.4304 50.3913 35.4516C48.3701 37.4727 45.6302 38.6102 42.7718 38.6146ZM42.7718 20.4516C41.3117 20.4499 39.884 20.8814 38.6691 21.6914C37.4543 22.5013 36.507 23.6534 35.9471 25.0019C35.3872 26.3504 35.2399 27.8346 35.5237 29.2669C35.8075 30.6991 36.5098 32.015 37.5417 33.048C38.5735 34.081 39.8886 34.7848 41.3205 35.0702C42.7524 35.3557 44.2368 35.21 45.5859 34.6517C46.935 34.0933 48.0882 33.1473 48.8996 31.9334C49.7109 30.7195 50.144 29.2922 50.144 27.8321C50.1418 25.8768 49.3647 24.0021 47.9828 22.6187C46.601 21.2353 44.7271 20.456 42.7718 20.4516Z" fill="black"/>
</g>
<defs>
<clipPath id="clip0_372_2089">
<rect width="66.9849" height="66.9849" fill="white" transform="translate(0.193359 0.0150757)"/>
</clipPath>
</defs>
</svg>
