<svg width="74" height="71" viewBox="0 0 74 71" fill="none" xmlns="http://www.w3.org/2000/svg">
<g id="Object" clip-path="url(#clip0_366_2044)">
<g id="Vector">
<mask id="path-1-inside-1_366_2044" fill="white">
<path d="M74 29H1V30H74V29Z"/>
</mask>
<path d="M74 29H1V30H74V29Z" fill="#49AAEE"/>
<path d="M1 29V28H0V29H1ZM74 29H75V28H74V29ZM74 30V31H75V30H74ZM1 30H0V31H1V30ZM1 30H74V28H1V30ZM73 29V30H75V29H73ZM74 29H1V31H74V29ZM2 30V29H0V30H2Z" fill="black" mask="url(#path-1-inside-1_366_2044)"/>
</g>
<path id="Vector_2" d="M34.8321 42.7519L32.5 41.1972V44V58V61.3403L34.9965 59.1211L43.9965 51.1211L45.4491 49.83L43.8321 48.7519L34.8321 42.7519ZM7.9937 69.5C6.32959 69.5 5.19568 69.497 4.35488 69.3876C3.53144 69.2803 3.2748 69.1011 3.15631 68.9746C3.01316 68.8218 2.80215 68.4567 2.66666 67.429C2.53314 66.4161 2.5 65.0117 2.5 63V31.5H72.5V63C72.5 65.0291 72.4986 66.4501 72.4069 67.4936C72.312 68.572 72.1377 68.9361 72.0324 69.0692C71.9863 69.1275 71.8515 69.287 71.1207 69.3896C70.3594 69.4965 69.2981 69.5 67.6694 69.5H7.9937Z" fill="#D0D7DF" stroke="black" stroke-width="3"/>
<path id="Vector_3" d="M37.5254 14.5187L42.5857 5.84394L50.7334 4.31346L45.6752 12.9872L37.5254 14.5187Z" fill="#D0D7DF" stroke="black"/>
<path id="Vector_4" d="M17.6678 18.2465L22.7271 9.57169L30.8748 8.04122L25.8155 16.7161L17.6678 18.2465Z" fill="#D0D7DF" stroke="black"/>
<path id="Vector_5" d="M62.4423 2.11392L70.5918 0.585072L65.5329 9.26051L57.3838 10.7901L62.4423 2.11392Z" fill="#D0D7DF" stroke="black"/>
<path id="Vector_6" d="M0.513035 15.6825L0.512996 15.6822C0.392932 14.6157 1.1123 13.6311 2.05763 13.454L2.0578 13.454L11.0186 11.7723L5.95819 20.4472L1.14693 21.3485L0.513035 15.6825Z" fill="#D0D7DF" stroke="black"/>
<path id="Vector_7" d="M7.25975 20.2008L12.3201 11.5271L21.4274 9.81596L16.3681 18.4907L7.25975 20.2008Z" fill="#49AAEE" stroke="black"/>
<path id="Vector_8" d="M27.1154 16.4721L32.1749 7.79708L41.2857 6.08789L36.2253 14.7629L27.1154 16.4721Z" fill="#49AAEE" stroke="black"/>
<path id="Vector_9" d="M46.9752 12.7432L52.0336 4.06926L61.1423 2.35807L56.0839 11.034L46.9752 12.7432Z" fill="#49AAEE" stroke="black"/>
<path id="Vector_10" d="M72.8092 2.03052L72.8094 2.03182L73.2967 6.38886C73.384 7.1692 72.8547 7.88481 72.083 8.02981L66.8328 9.01629L71.7412 0.598877C72.2959 0.800898 72.7315 1.319 72.8092 2.03052Z" fill="#49AAEE" stroke="black"/>
<path id="Vector_11" d="M5.53954 22.4391L1.5 27.7531V22.4391H5.53954Z" fill="#D0D7DF" stroke="black"/>
<path id="Vector_12" d="M12.6138 28.0374L16.8704 22.4391H25.0353L20.7786 28.0374H12.6138Z" fill="#D0D7DF" stroke="black"/>
<path id="Vector_13" d="M73.2698 28.0374H72.0117L73.2698 26.3839V28.0374Z" fill="#D0D7DF" stroke="black"/>
<path id="Vector_14" d="M52.2106 28.0374L56.4682 22.4391H64.633L60.3754 28.0374H52.2106Z" fill="#D0D7DF" stroke="black"/>
<path id="Vector_15" d="M32.4124 28.0374L36.671 22.4391H44.8359L40.5793 28.0374H32.4124Z" fill="#D0D7DF" stroke="black"/>
<path id="Vector_16" d="M15.6139 22.4391L11.3572 28.0374H2.23715L6.4928 22.4391H15.6139Z" fill="#49AAEE" stroke="black"/>
<path id="Vector_17" d="M22.0347 28.0374L26.2913 22.4391H35.4144L31.1558 28.0374H22.0347Z" fill="#49AAEE" stroke="black"/>
<path id="Vector_18" d="M41.8354 28.0374L46.0921 22.4391H55.2119L50.9543 28.0374H41.8354Z" fill="#49AAEE" stroke="black"/>
<path id="Vector_19" d="M61.632 28.0374L65.8896 22.4391H70.808C72.1135 22.4391 73.1816 23.455 73.2649 24.7394L70.7554 28.0374H61.632Z" fill="#49AAEE" stroke="black"/>
<path id="Vector_20" d="M49.278 50.3199C49.4241 50.4191 49.4241 50.6343 49.278 50.7335L32.1404 62.3713C31.9745 62.484 31.75 62.3651 31.75 62.1645V38.8879C31.75 38.6873 31.9745 38.5684 32.1405 38.6811L49.278 50.3199Z" fill="#49AAEE" stroke="black" stroke-width="1.5"/>
</g>
<defs>
<clipPath id="clip0_366_2044">
<rect width="74" height="71" fill="white"/>
</clipPath>
</defs>
</svg>
