<svg width="43" height="54" viewBox="0 0 43 54" fill="none" xmlns="http://www.w3.org/2000/svg">
<path d="M31.8178 3.77444L31.8178 3.77448L31.8223 3.7758L41.9683 6.77731L41.9732 6.85345C41.9829 7.00501 41.9969 7.22798 42.0146 7.51347C42.0498 8.08444 42.0994 8.90546 42.1565 9.90548C42.2707 11.9056 42.415 14.6214 42.5357 17.4844C42.6564 20.3478 42.7534 23.357 42.7729 25.9445C42.7925 28.5383 42.7339 30.69 42.5479 31.8493C42.1778 34.1571 40.5097 37.3642 38.2442 40.4717C35.9827 43.5735 33.1516 46.541 30.4911 48.3755C25.6209 51.7333 22.2847 52.7942 21.7478 52.9502C21.2095 52.7949 17.8767 51.7345 13.0048 48.3755L13.0048 48.3755C10.3361 46.5369 7.49994 43.5663 5.23806 40.4641C2.97193 37.356 1.30819 34.1513 0.948083 31.8502C0.767046 30.6933 0.709 28.5426 0.726484 25.9494C0.743926 23.3624 0.836214 20.3528 0.951601 17.4886C1.06698 14.6247 1.20538 11.9077 1.31496 9.90667C1.36974 8.90617 1.41731 8.0847 1.45118 7.51341C1.46812 7.22777 1.48163 7.00467 1.4909 6.85301L1.49524 6.78261L10.6784 4.38527L10.6785 4.38559L10.69 4.38191L10.622 4.16901C10.69 4.38191 10.6901 4.38189 10.6902 4.38186L10.6905 4.38174L10.692 4.38126L10.698 4.37937L10.7214 4.37188L10.8126 4.34266L11.1589 4.23152C11.4573 4.13562 11.8838 3.99828 12.3962 3.83248C13.421 3.5009 14.7897 3.05546 16.1646 2.6001C17.5393 2.14483 18.9215 1.67925 19.973 1.30751C20.4983 1.12176 20.9433 0.958686 21.2642 0.831652C21.4241 0.768323 21.5566 0.712638 21.6538 0.666698C21.702 0.643925 21.7457 0.621586 21.7812 0.600261C21.7892 0.595454 21.7976 0.590259 21.806 0.58469L31.8178 3.77444Z" fill="#018191" stroke="white" stroke-width="0.447026"/>
<g filter="url(#filter0_i_959_6407)">
<path d="M21.7306 49.6718C19.2653 48.6594 16.924 47.3685 14.752 45.8241C9.7095 42.3571 4.56571 34.8601 4.03918 31.3769C3.60986 28.639 3.99463 18.161 4.42396 10.3157H4.96263L11.2283 8.62274L21.7589 5.27319L32.897 8.62274L38.539 10.3157H39.0777C39.507 18.1529 39.8878 28.6309 39.4827 31.3769C38.936 34.8601 33.776 42.3571 28.7496 45.8241C26.566 47.3728 24.2107 48.664 21.7306 49.6718Z" fill="#D5FAFF"/>
</g>
<path d="M21.7115 0.379883C21.4766 0.752504 10.8245 3.96838 10.8245 3.96838L1.28214 6.60914C1.28214 6.60914 -0.00988394 27.1762 0.727258 31.8866C1.4644 36.597 7.48709 44.8474 12.8779 48.5614C17.9124 52.0325 21.3186 53.0653 21.7277 53.1787L21.7115 0.379883Z" fill="url(#paint0_linear_959_6407)"/>
<path d="M21.7306 49.6718C19.2653 48.6594 16.924 47.3685 14.752 45.8241C9.7095 42.3571 4.56571 34.8601 4.03918 31.3769C3.60986 28.639 3.99463 18.161 4.42396 10.3157L5.35549 10.0403L11.8359 8.21772L21.7589 5.27319L30.4669 7.8127L38.1623 10.0403L39.0777 10.3157C39.507 18.1529 39.8878 28.6309 39.4827 31.3769C38.936 34.8601 33.776 42.3571 28.7496 45.8241C26.566 47.3728 24.2107 48.664 21.7306 49.6718Z" stroke="url(#paint1_linear_959_6407)" stroke-width="0.96793" stroke-miterlimit="10"/>
<path d="M11.0725 27.5549C11.0725 27.7105 11.0628 27.8725 11.0434 28.0409H7.28182C7.30774 28.3779 7.41466 28.6371 7.60257 28.8185C7.79697 28.9935 8.03348 29.081 8.31212 29.081C8.72683 29.081 9.01518 28.906 9.17718 28.5561H10.9462C10.8555 28.9125 10.6902 29.2332 10.4505 29.5183C10.2172 29.8035 9.92237 30.027 9.56597 30.189C9.20958 30.351 8.81107 30.432 8.37044 30.432C7.83909 30.432 7.36606 30.3186 6.95135 30.0918C6.53664 29.865 6.21264 29.541 5.97937 29.1198C5.74609 28.6986 5.62945 28.2062 5.62945 27.6424C5.62945 27.0787 5.74285 26.5862 5.96965 26.165C6.20292 25.7438 6.52692 25.4198 6.94163 25.193C7.35634 24.9662 7.83261 24.8528 8.37044 24.8528C8.89531 24.8528 9.36186 24.963 9.77009 25.1833C10.1783 25.4036 10.4958 25.7179 10.7226 26.1261C10.9559 26.5344 11.0725 27.0106 11.0725 27.5549ZM9.37158 27.1176C9.37158 26.8324 9.27438 26.6056 9.07998 26.4372C8.88559 26.2687 8.64259 26.1845 8.351 26.1845C8.07236 26.1845 7.83585 26.2655 7.64145 26.4274C7.45354 26.5894 7.3369 26.8195 7.29154 27.1176H9.37158ZM16.1289 26.2525V27.6327H11.8522V26.2525H16.1289ZM21.5436 30.3542L19.2497 27.3411V30.3542H17.5876V23.5309H19.2497V26.5246L21.5241 23.5309H23.4778L20.834 26.8746L23.575 30.3542H21.5436ZM30.2162 23.5309L27.8543 28.0993V30.3542H26.1922V28.0993L23.8303 23.5309H25.7159L27.0378 26.3886L28.35 23.5309H30.2162ZM30.604 26.9329C30.604 26.259 30.7498 25.6596 31.0414 25.1347C31.333 24.6034 31.738 24.1919 32.2564 23.9003C32.7813 23.6022 33.3742 23.4532 34.0351 23.4532C34.8451 23.4532 35.5384 23.667 36.1151 24.0947C36.6919 24.5224 37.0774 25.1056 37.2718 25.8443H35.4445C35.3084 25.5591 35.114 25.3421 34.8613 25.193C34.6151 25.044 34.3332 24.9695 34.0157 24.9695C33.5038 24.9695 33.089 25.1477 32.7715 25.5041C32.454 25.8605 32.2953 26.3367 32.2953 26.9329C32.2953 27.529 32.454 28.0053 32.7715 28.3617C33.089 28.7181 33.5038 28.8963 34.0157 28.8963C34.3332 28.8963 34.6151 28.8218 34.8613 28.6727C35.114 28.5237 35.3084 28.3066 35.4445 28.0215H37.2718C37.0774 28.7602 36.6919 29.3434 36.1151 29.7711C35.5384 30.1923 34.8451 30.4028 34.0351 30.4028C33.3742 30.4028 32.7813 30.2571 32.2564 29.9655C31.738 29.6674 31.333 29.2559 31.0414 28.731C30.7498 28.2062 30.604 27.6068 30.604 26.9329Z" fill="#05515B"/>
<defs>
<filter id="filter0_i_959_6407" x="3.85168" y="5.27319" width="35.8033" height="44.3987" filterUnits="userSpaceOnUse" color-interpolation-filters="sRGB">
<feFlood flood-opacity="0" result="BackgroundImageFix"/>
<feBlend mode="normal" in="SourceGraphic" in2="BackgroundImageFix" result="shape"/>
<feColorMatrix in="SourceAlpha" type="matrix" values="0 0 0 0 0 0 0 0 0 0 0 0 0 0 0 0 0 0 127 0" result="hardAlpha"/>
<feOffset/>
<feGaussianBlur stdDeviation="2.83494"/>
<feComposite in2="hardAlpha" operator="arithmetic" k2="-1" k3="1"/>
<feColorMatrix type="matrix" values="0 0 0 0 0 0 0 0 0 0.339525 0 0 0 0 0.381966 0 0 0 0.2 0"/>
<feBlend mode="normal" in2="shape" result="effect1_innerShadow_959_6407"/>
</filter>
<linearGradient id="paint0_linear_959_6407" x1="11.1039" y1="-11.305" x2="11.1039" y2="58.7437" gradientUnits="userSpaceOnUse">
<stop stop-color="white"/>
<stop offset="0.19" stop-color="white" stop-opacity="0.75"/>
<stop offset="0.41" stop-color="white" stop-opacity="0.49"/>
<stop offset="0.61" stop-color="white" stop-opacity="0.28"/>
<stop offset="0.78" stop-color="white" stop-opacity="0.13"/>
<stop offset="0.92" stop-color="white" stop-opacity="0.03"/>
<stop offset="1" stop-color="white" stop-opacity="0"/>
</linearGradient>
<linearGradient id="paint1_linear_959_6407" x1="21.7306" y1="50.1903" x2="21.7306" y2="4.64541" gradientUnits="userSpaceOnUse">
<stop stop-color="#888F90"/>
<stop offset="0.11" stop-color="#C4C4C4"/>
<stop offset="0.16" stop-color="#BDBDBD"/>
<stop offset="0.19" stop-color="#B5B5B5"/>
<stop offset="1" stop-color="#004E58"/>
</linearGradient>
</defs>
</svg>
