<svg width="65" height="64" viewBox="0 0 65 64" fill="none" xmlns="http://www.w3.org/2000/svg">
<path d="M31.1836 0.0255831C31.4496 0.0151137 31.7158 0.00785305 31.9823 0.00380101C32.2485 -0.000231653 32.5148 -0.00105539 32.7812 0.00132931C33.0474 0.00371401 33.3136 0.00930715 33.5798 0.0181092C33.846 0.0269113 34.1121 0.0389318 34.3779 0.0541706C34.6439 0.0693901 34.9095 0.0878181 35.1747 0.109455C35.4402 0.131092 35.7053 0.155927 35.9701 0.183962C36.235 0.211996 36.4994 0.243221 36.7634 0.277634C37.0275 0.312067 37.291 0.349669 37.5541 0.390442C37.8171 0.431214 38.0796 0.475157 38.3415 0.522269C38.6035 0.569382 38.8649 0.619644 39.1256 0.673058C39.3863 0.726471 39.6463 0.783025 39.9056 0.84272C40.1649 0.902415 40.4234 0.965231 40.6812 1.03117C40.9389 1.09711 41.1957 1.16614 41.4517 1.23826C41.7078 1.3104 41.9629 1.38561 42.2169 1.46388C42.471 1.54216 42.7242 1.6235 42.9764 1.7079C43.2284 1.79229 43.4794 1.87972 43.7292 1.97019C43.9792 2.06063 44.228 2.15408 44.4754 2.25053C44.7231 2.34699 44.9695 2.44642 45.2146 2.54883C45.4597 2.65121 45.7034 2.75655 45.9457 2.86483C46.1883 2.97311 46.4293 3.08431 46.6689 3.19842C46.9086 3.31252 47.1468 3.42949 47.3834 3.54932C47.6203 3.66918 47.8555 3.79186 48.0891 3.91738C48.3228 4.04292 48.5549 4.17124 48.7854 4.30236C49.0159 4.43348 49.2447 4.56737 49.4718 4.70401C49.699 4.84066 49.9243 4.98002 50.1479 5.12212C50.3715 5.26419 50.5933 5.40895 50.8133 5.55639C51.0334 5.70384 51.2515 5.85391 51.4678 6.00661C51.6841 6.15931 51.8984 6.31459 52.1108 6.47247C52.3231 6.63034 52.5335 6.79076 52.7419 6.95371C52.9502 7.11667 53.1566 7.28211 53.3608 7.45005C53.5651 7.61797 53.7671 7.78833 53.967 7.96113C54.1671 8.13395 54.365 8.30915 54.5606 8.48672C54.7541 8.66189 54.9455 8.83936 55.1345 9.01912C55.3236 9.19888 55.5104 9.38089 55.6952 9.56513C55.8797 9.74937 56.0619 9.93579 56.2419 10.1244C56.4219 10.313 56.5995 10.5037 56.7747 10.6966C56.95 10.8895 57.1227 11.0844 57.293 11.2814C57.4633 11.4784 57.6313 11.6774 57.7968 11.8784C57.9622 12.0795 58.1251 12.2824 58.2856 12.4874C58.446 12.6923 58.6038 12.8991 58.7589 13.1079C58.9142 13.3166 59.0669 13.5271 59.2171 13.7395C59.3671 13.9519 59.5144 14.166 59.6591 14.3819C59.8039 14.5978 59.946 14.8154 60.0853 15.0347C60.2244 15.254 60.361 15.475 60.495 15.6976C60.6288 15.9202 60.7598 16.1443 60.8881 16.37C61.0164 16.5957 61.1418 16.823 61.2643 17.0517C61.3869 17.2804 61.5067 17.5106 61.6237 17.7422C61.7405 17.9738 61.8545 18.2068 61.9656 18.4411C62.0769 18.6754 62.1851 18.9111 62.2903 19.148C62.3955 19.3849 62.4978 19.6231 62.5973 19.8625C62.6965 20.1018 62.7929 20.3424 62.8865 20.5841C62.9798 20.8257 63.0702 21.0685 63.1576 21.3124C63.2448 21.5562 63.3291 21.8011 63.4104 22.047C63.4917 22.2929 63.57 22.5397 63.6451 22.7873C63.7203 23.035 63.7924 23.2837 63.8612 23.5332C63.9303 23.7827 63.9962 24.033 64.059 24.2841C64.1217 24.5352 64.1813 24.7869 64.2378 25.0393C64.2944 25.2918 64.3478 25.5449 64.3979 25.7987C64.4482 26.0525 64.4953 26.3068 64.5391 26.5618C64.5831 26.8165 64.6239 27.0719 64.6614 27.3278C64.6989 27.5837 64.7333 27.84 64.7647 28.0967C64.7958 28.3534 64.8238 28.6104 64.8484 28.8677C64.8733 29.1251 64.895 29.3828 64.9136 29.6406C64.9319 29.8985 64.9471 30.1566 64.9591 30.4148C64.9726 30.6761 64.9826 30.9375 64.9893 31.1988C64.9962 31.4604 64.9998 31.7219 65 31.9835C65.0002 32.2452 64.9971 32.5067 64.9908 32.7681C64.9845 33.0296 64.9748 33.2911 64.9618 33.5524C64.949 33.8136 64.9328 34.0746 64.9133 34.3356C64.8937 34.5965 64.8709 34.8571 64.8449 35.1173C64.8186 35.3777 64.7892 35.6377 64.7567 35.8973C64.7241 36.1569 64.6882 36.4161 64.6489 36.6749C64.6098 36.9336 64.5675 37.1918 64.5219 37.4497C64.4762 37.7073 64.4272 37.9644 64.3751 38.2209C64.323 38.4774 64.2677 38.7332 64.209 38.9884C64.1504 39.2435 64.0887 39.498 64.0237 39.7518C63.9586 40.0054 63.8904 40.2582 63.8192 40.5102C63.7478 40.7623 63.6732 41.0134 63.5954 41.2637C63.5179 41.5138 63.437 41.763 63.353 42.0111C63.2691 42.2595 63.1821 42.5067 63.0919 42.7527C63.0017 42.9989 62.9084 43.244 62.8119 43.4879C62.7156 43.7316 62.6162 43.9742 62.5138 44.2158C62.4114 44.4572 62.3059 44.6973 62.1974 44.9362C62.0888 45.175 61.9773 45.4125 61.8629 45.6487C61.7482 45.8848 61.6307 46.1196 61.5103 46.353C61.3899 46.5862 61.2666 46.818 61.1403 47.0484C61.014 47.2787 60.8848 47.5075 60.7528 47.7347C60.6208 47.9617 60.486 48.1872 60.3485 48.4111C60.2107 48.6351 60.0702 48.8572 59.9269 49.0777C59.7837 49.2981 59.6376 49.5168 59.4888 49.7338C59.34 49.9507 59.1885 50.1658 59.0342 50.3791C58.88 50.5923 58.7232 50.8037 58.5635 51.0131C58.4041 51.2224 58.2419 51.4299 58.0772 51.6354C57.9124 51.8409 57.745 52.0444 57.5751 52.2458C57.4052 52.4471 57.2328 52.6464 57.058 52.8438C56.883 53.0409 56.7055 53.236 56.5258 53.4289C56.3462 53.6233 56.1641 53.8157 55.9796 54.0059C55.7953 54.1959 55.6085 54.3836 55.4193 54.5692C55.23 54.7547 55.0385 54.9379 54.8447 55.1188C54.6509 55.2997 54.4549 55.4782 54.2565 55.6542C54.0584 55.8304 53.8579 56.0042 53.655 56.1754C53.4524 56.3465 53.2476 56.5152 53.0408 56.6814C52.8338 56.8475 52.6247 57.0113 52.4136 57.1726C52.2026 57.3337 51.9896 57.4922 51.7745 57.648C51.5594 57.8039 51.3424 57.9572 51.1236 58.1078C50.9045 58.2585 50.6837 58.4065 50.4611 58.5519C50.2383 58.6971 50.0138 58.8396 49.7877 58.9794C49.5613 59.1192 49.3333 59.2563 49.1036 59.3906C48.8739 59.5248 48.6425 59.6562 48.4094 59.785C48.1764 59.9135 47.9417 60.0392 47.7055 60.1622C47.4693 60.2851 47.2315 60.4051 46.9921 60.5222C46.7529 60.6393 46.5123 60.7535 46.2701 60.8648C46.028 60.9759 45.7845 61.0841 45.5396 61.1896C45.2947 61.2949 45.0485 61.3972 44.801 61.4964C44.5536 61.5957 44.3049 61.6919 44.0551 61.7852C43.8053 61.8785 43.5542 61.9687 43.302 62.056C43.0498 62.143 42.7966 62.2271 42.5425 62.3081C42.2881 62.3891 42.0327 62.467 41.7764 62.5416C41.5202 62.6165 41.2631 62.6881 41.005 62.7565C40.7471 62.825 40.4883 62.8903 40.2285 62.9525C39.9688 63.0148 39.7084 63.0738 39.4471 63.1297C39.186 63.1855 38.9241 63.2381 38.6615 63.2876C38.399 63.337 38.1359 63.3832 37.8723 63.4263C37.6084 63.4693 37.3442 63.5092 37.0796 63.5458C36.8149 63.5825 36.5498 63.6159 36.2842 63.6461C36.0188 63.6762 35.753 63.703 35.4867 63.7267C35.2205 63.7505 34.954 63.771 34.6872 63.7881C34.4204 63.8053 34.1535 63.8193 33.8865 63.8299C33.8445 63.8332 33.8024 63.8362 33.7604 63.839C25.6133 64.3595 17.0677 61.1035 10.9857 55.868C10.7875 55.6962 10.5914 55.522 10.3975 55.3454C10.2036 55.1689 10.012 54.9902 9.82253 54.8091C9.6331 54.628 9.44594 54.4447 9.26105 54.2592C9.07617 54.0734 8.89361 53.8856 8.7134 53.6956C8.53321 53.5056 8.3554 53.3135 8.17996 53.1194C8.00452 52.9252 7.83152 52.7288 7.66096 52.5303C7.49042 52.3319 7.32236 52.1315 7.1568 51.9291C6.99123 51.7267 6.8282 51.5223 6.66772 51.3158C6.50725 51.1095 6.34936 50.9013 6.19405 50.6911C6.03874 50.481 5.88607 50.2691 5.73603 50.0554C5.58599 49.8416 5.43863 49.626 5.29396 49.4086C5.14929 49.1913 5.00734 48.9722 4.86809 48.7514C4.72887 48.5307 4.59241 48.3084 4.45871 48.0842C4.32501 47.8603 4.19412 47.6347 4.06605 47.4075C3.93796 47.1803 3.8127 46.9516 3.69029 46.7215C3.5679 46.4913 3.44838 46.2598 3.33173 46.0267C3.2151 45.7937 3.10138 45.5593 2.99055 45.3235C2.87974 45.0878 2.77188 44.8507 2.66695 44.6125C2.56204 44.374 2.46011 44.1344 2.36114 43.8936C2.26219 43.6528 2.16625 43.4108 2.0733 43.1677C1.98035 42.9246 1.89044 42.6804 1.80357 42.4351C1.7167 42.1899 1.63289 41.9436 1.55214 41.6965C1.47139 41.4491 1.39373 41.2008 1.31915 40.9517C1.24457 40.7025 1.17311 40.4525 1.10475 40.2017C1.03639 39.9508 0.971159 39.6992 0.909056 39.447C0.846952 39.1946 0.788006 38.9414 0.732218 38.6874C0.67641 38.4336 0.62376 38.1791 0.574266 37.924C0.524793 37.669 0.478497 37.4134 0.435378 37.1571C0.392259 36.901 0.352326 36.6443 0.315581 36.387C0.278856 36.1299 0.245329 35.8724 0.214997 35.6143C0.184666 35.3563 0.157541 35.0979 0.133623 34.8393C0.109705 34.5808 0.0890146 34.322 0.0715499 34.0628C0.0538879 33.8017 0.0394916 33.5402 0.0283616 33.2785C0.0172316 33.0169 0.009377 32.7553 0.00479869 32.4936C0.000220376 32.2318 -0.00108174 31.97 0.000891675 31.7081C0.00286509 31.4463 0.00811429 31.1846 0.0166394 30.9229C0.0251646 30.6613 0.0369555 30.3998 0.0520126 30.1382C0.0670894 29.8769 0.0854328 29.6157 0.107042 29.3548C0.12865 29.0938 0.153525 28.8331 0.181666 28.5728C0.209806 28.3126 0.241194 28.0527 0.275827 27.7931C0.31048 27.5335 0.34837 27.2744 0.389496 27.0157C0.430622 26.7569 0.474974 26.4988 0.522553 26.2413C0.570151 25.9836 0.620957 25.7266 0.674969 25.4703C0.729001 25.2138 0.786231 24.9581 0.846656 24.7032C0.907082 24.4482 0.970685 24.194 1.03747 23.9406C1.10425 23.687 1.17419 23.4344 1.24731 23.1828C1.32042 22.9309 1.39668 22.68 1.47607 22.4301C1.55544 22.1802 1.63793 21.9313 1.72356 21.6833C1.80919 21.4354 1.8979 21.1886 1.98971 20.9428C2.08149 20.697 2.17634 20.4524 2.27426 20.2089C2.3722 19.9654 2.47316 19.7231 2.57714 19.482C2.68112 19.241 2.78811 19.0012 2.89811 18.7628C3.00808 18.5243 3.12104 18.2872 3.23698 18.0514C3.3529 17.8157 3.47175 17.5814 3.59353 17.3485C3.71532 17.1156 3.84002 16.8843 3.9676 16.6544C4.09518 16.4246 4.22561 16.1963 4.35889 15.9696C4.4922 15.7429 4.62831 15.5178 4.76724 15.2944C4.90617 15.071 5.04787 14.8493 5.19234 14.6293C5.33682 14.4093 5.48402 14.1911 5.63396 13.9746C5.7839 13.7582 5.93653 13.5436 6.09183 13.3308C6.24714 13.1181 6.40509 12.9072 6.56569 12.6983C6.72629 12.4894 6.88947 12.2824 7.05523 12.0774C7.221 11.8724 7.38931 11.6695 7.56017 11.4686C7.73101 11.2676 7.90434 11.0688 8.08017 10.8721C14.1006 4.16635 22.1576 0.566386 31.1836 0.0255831Z" fill="#FEFEFE"/>
<path d="M31.1336 2.63674C32.3301 2.56246 33.555 2.62967 34.7491 2.72317C35.143 2.75233 35.5361 2.78921 35.9284 2.83382C36.3209 2.87844 36.7122 2.93073 37.1024 2.99069C37.4927 3.05066 37.8816 3.11827 38.2689 3.19354C38.6565 3.26878 39.0424 3.3516 39.4266 3.44201C39.8107 3.5324 40.1928 3.63029 40.5731 3.73571C40.9532 3.84112 41.331 3.95394 41.7065 4.07419C42.0821 4.19445 42.455 4.32203 42.8254 4.45693C43.1959 4.59181 43.5633 4.73392 43.9278 4.88327C44.2925 5.03259 44.6539 5.18901 45.0121 5.35253C45.3703 5.51607 45.725 5.68656 46.0762 5.86402C46.4277 6.04148 46.7753 6.22576 47.1191 6.41686C47.4629 6.60797 47.8026 6.80574 48.1383 7.01019C48.4739 7.21465 48.8054 7.42562 49.1326 7.64309C49.4598 7.86054 49.7824 8.08435 50.1005 8.3145C50.4184 8.54463 50.7316 8.78092 51.0401 9.02337C51.3485 9.26581 51.6519 9.5142 51.9503 9.76855C52.1376 9.92687 52.3228 10.0875 52.5059 10.2503C52.6892 10.4131 52.8704 10.5781 53.0494 10.7454C53.2284 10.9126 53.4052 11.082 53.5798 11.2536C53.7547 11.4252 53.9273 11.5988 54.0976 11.7746C54.2681 11.9504 54.4362 12.1282 54.602 12.3081C54.7679 12.4879 54.9315 12.6698 55.0928 12.8536C55.254 13.0375 55.413 13.2232 55.5696 13.411C55.7261 13.5987 55.8803 13.7883 56.032 13.9798C56.184 14.1713 56.3334 14.3646 56.4802 14.5597C56.6272 14.7548 56.7716 14.9517 56.9135 15.1504C57.0554 15.349 57.1948 15.5494 57.3318 15.7514C57.4688 15.9535 57.603 16.1571 57.7347 16.3624C57.8665 16.5678 57.9957 16.7747 58.1222 16.9831C58.2486 17.1916 58.3725 17.4016 58.4936 17.6131C58.6148 17.8246 58.7333 18.0375 58.8492 18.2519C58.965 18.4662 59.0782 18.682 59.1887 18.8991C59.299 19.1162 59.4065 19.3347 59.5113 19.5545C59.6163 19.7742 59.7184 19.9952 59.8177 20.2175C59.917 20.4397 60.0135 20.6631 60.1072 20.8877C60.2007 21.1123 60.2915 21.338 60.3795 21.5648C60.4675 21.7916 60.5526 22.0195 60.6347 22.2484C60.717 22.4772 60.7963 22.707 60.8727 22.938C60.9491 23.1687 61.0225 23.4004 61.0929 23.633C61.1634 23.8657 61.231 24.0991 61.2957 24.3333C61.3604 24.5675 61.4221 24.8025 61.4807 25.0382C61.5395 25.274 61.5953 25.5104 61.6479 25.7475C61.7006 25.9846 61.7504 26.2224 61.7971 26.4609C61.8439 26.6992 61.8876 26.938 61.9283 27.1775C61.9689 27.4169 62.0066 27.6568 62.0413 27.897C62.0759 28.1374 62.1075 28.3781 62.1361 28.6191C62.1645 28.8602 62.1899 29.1016 62.2124 29.3432C62.2349 29.585 62.2544 29.8269 62.2708 30.0691C62.8228 38.075 60.1294 45.6356 54.7663 51.6622C54.4896 51.9684 54.2066 52.2687 53.9173 52.5632C53.628 52.8577 53.3326 53.1462 53.031 53.4286C52.7297 53.7111 52.4224 53.9874 52.1093 54.2575C51.7961 54.5273 51.4774 54.7908 51.1531 55.0479C50.8289 55.305 50.4994 55.5553 50.1645 55.7988C49.8298 56.0425 49.4901 56.2792 49.1453 56.509C48.8003 56.7387 48.4509 56.9614 48.0968 57.177C47.7426 57.3924 47.384 57.6006 47.0211 57.8017C46.658 58.0025 46.291 58.196 45.92 58.3821C45.5488 58.5681 45.1738 58.7464 44.7951 58.9172C44.4164 59.0878 44.0344 59.2508 43.649 59.4061C43.2634 59.5612 42.8747 59.7084 42.483 59.8478C42.0912 59.9872 41.6968 60.1186 41.2995 60.2419C40.9023 60.365 40.5025 60.4801 40.1004 60.5871C39.6982 60.6941 39.2939 60.793 38.8876 60.8837C38.4813 60.9743 38.0733 61.0565 37.6636 61.1303C36.2957 61.374 34.9145 61.4636 33.5298 61.5549C25.8267 61.7954 18.3015 59.3188 12.514 54.2642C12.3263 54.1027 12.1406 53.9388 11.957 53.7727C11.7735 53.6067 11.592 53.4385 11.4127 53.2681C11.2334 53.0975 11.0563 52.9248 10.8814 52.7499C10.7065 52.575 10.5338 52.3981 10.3634 52.2191C10.1929 52.04 10.0248 51.8588 9.85898 51.6756C9.69315 51.4926 9.52968 51.3074 9.36855 51.1201C9.20742 50.9329 9.04869 50.7437 8.89235 50.5528C8.73602 50.3616 8.58213 50.1686 8.43069 49.9737C8.27927 49.7789 8.13034 49.5822 7.98389 49.3837C7.83745 49.1853 7.69354 48.9852 7.55219 48.7831C7.41083 48.5809 7.27206 48.3772 7.13588 48.1718C6.99969 47.9663 6.86613 47.7593 6.7352 47.5507C6.60428 47.3418 6.47602 47.1316 6.35041 46.9199C6.22482 46.708 6.10194 46.4946 5.98176 46.2798C5.86158 46.065 5.74414 45.8487 5.62945 45.631C5.51477 45.4132 5.40287 45.1942 5.29374 44.9737C5.18461 44.7531 5.07829 44.5313 4.97479 44.3083C4.87128 44.0852 4.77063 43.8609 4.67283 43.6354C4.57502 43.4099 4.48009 43.1832 4.38803 42.9552C4.29599 42.7274 4.20685 42.4985 4.12062 42.2686C4.03436 42.0384 3.95105 41.8073 3.87069 41.5752C3.79032 41.3432 3.71289 41.1101 3.63841 40.8761C3.56396 40.6421 3.49248 40.4072 3.42398 40.1715C3.35548 39.9357 3.28999 39.6992 3.22749 39.4619C3.16499 39.2246 3.10551 38.9865 3.04905 38.7476C2.99259 38.5088 2.93918 38.2693 2.88882 38.0293C2.83844 37.7893 2.79112 37.5486 2.74685 37.3072C2.70259 37.066 2.66139 36.8243 2.62324 36.5819C2.58511 36.3396 2.55007 36.0968 2.5181 35.8537C2.48613 35.6106 2.45725 35.3672 2.43145 35.1235C2.40566 34.8796 2.38297 34.6354 2.36337 34.3909C2.34378 34.1466 2.32729 33.902 2.31391 33.6572C2.30082 33.4181 2.29072 33.1789 2.2836 32.9394C2.27645 32.7002 2.27229 32.4608 2.2711 32.2214C2.26992 31.982 2.27172 31.7425 2.27649 31.5031C2.28125 31.2637 2.28898 31.0244 2.2997 30.7854C2.31042 30.5461 2.3241 30.3071 2.34076 30.0682C2.35741 29.8293 2.37703 29.5907 2.3996 29.3522C2.42218 29.1137 2.44772 28.8757 2.47621 28.638C2.50471 28.4001 2.53616 28.1626 2.57058 27.9255C2.60498 27.6885 2.64231 27.452 2.68259 27.2159C2.72287 26.9797 2.76607 26.7441 2.81218 26.5089C2.85832 26.2737 2.90737 26.0392 2.95933 25.8054C3.01129 25.5714 3.06615 25.3381 3.12391 25.1054C3.18168 24.873 3.24231 24.6411 3.30581 24.4098C3.36934 24.1787 3.43572 23.9484 3.50497 23.7188C3.57422 23.4892 3.64631 23.2606 3.72124 23.0328C3.79615 22.8048 3.87389 22.5778 3.95446 22.352C4.03502 22.126 4.11838 21.901 4.20454 21.677C4.29069 21.453 4.37963 21.2301 4.47133 21.0082C4.56301 20.7864 4.65745 20.5657 4.75464 20.3461C4.85181 20.1265 4.9517 19.9081 5.0543 19.691C5.15691 19.4738 5.2622 19.2579 5.37017 19.0432C5.47815 18.8285 5.58878 18.6152 5.70206 18.4032C5.81533 18.1912 5.93122 17.9806 6.04972 17.7713C6.16823 17.5621 6.28932 17.3543 6.41299 17.148C6.53664 16.9417 6.66285 16.7369 6.79162 16.5336C6.92038 16.3303 7.05164 16.1286 7.1854 15.9284C7.31918 15.7283 7.45542 15.5298 7.59413 15.3329C7.73283 15.136 7.87396 14.9408 8.01752 14.7473C8.16107 14.5538 8.307 14.3621 8.45532 14.1721C8.60364 13.9821 8.7543 13.7939 8.9073 13.6075C9.0603 13.4212 9.21559 13.2367 9.37317 13.054C9.53074 12.8713 9.69057 12.6906 9.85264 12.5118C15.4255 6.36108 22.8047 3.10804 31.1336 2.63674Z" fill="#931602"/>
<path d="M30.497 15.7979C33.3074 15.6965 36.168 15.8186 38.9757 15.9566C40.4368 16.0284 41.9672 16.0329 43.4032 16.3116C43.5405 16.3385 43.677 16.3687 43.8125 16.4022C43.9483 16.4357 44.0832 16.4725 44.2172 16.5126C44.351 16.5526 44.4837 16.5959 44.6153 16.6424C44.7472 16.6889 44.8776 16.7386 45.0067 16.7915C45.1359 16.8443 45.2638 16.9003 45.3903 16.9593C45.5166 17.0184 45.6414 17.0805 45.7647 17.1456C45.8879 17.2107 46.0093 17.2787 46.1291 17.3498C46.2491 17.4208 46.3671 17.4947 46.4832 17.5714C46.5994 17.6482 46.7136 17.7277 46.8256 17.81C46.9377 17.8923 47.0477 17.9772 47.1554 18.0649C47.2633 18.1525 47.3689 18.2427 47.4721 18.3355C47.5755 18.4282 47.6765 18.5234 47.775 18.6211C47.8734 18.7187 47.9694 18.8187 48.063 18.921C48.1565 19.0234 48.2474 19.1279 48.3356 19.2346C48.4238 19.3414 48.5093 19.4502 48.5919 19.5611C48.6746 19.672 48.7546 19.7848 48.8317 19.8996C48.971 20.1021 49.0999 20.3109 49.2183 20.526C49.3367 20.741 49.4441 20.9612 49.5404 21.1866C49.6369 21.412 49.7218 21.6414 49.7952 21.875C49.8688 22.1086 49.9305 22.3451 49.9802 22.5846C50.5225 25.3004 50.5705 36.4646 50.0193 39.0619C49.1961 42.9414 45.5333 45.3813 41.6599 45.5637C40.4167 45.6221 37.8985 45.3947 36.8577 45.6931C35.7625 46.0072 32.8199 48.1211 31.6817 48.8551C30.9212 49.4016 28.5987 50.915 27.7927 51.2733C27.8463 49.3894 27.801 47.4912 27.8025 45.6055C23.9324 45.6594 20.041 46.0645 17.0063 43.2377C14.3202 40.7361 14.3606 37.7654 14.2691 34.3602C14.1906 31.4442 14.0916 24.2794 14.948 21.706C15.3204 20.587 16.0043 19.5529 16.8288 18.7047C19.1684 16.2979 21.9467 16.1396 25.1292 15.9777C26.9175 15.8909 28.7068 15.831 30.497 15.7979Z" fill="#FEFEFE"/>
<path d="M29.1813 21.3235C29.337 21.3164 29.4927 21.3116 29.6484 21.309C32.4441 21.263 35.2388 21.2986 38.0323 21.4156C39.3552 21.4612 40.7832 21.4245 42.0856 21.661C42.5533 21.7459 43.1057 21.8739 43.4529 22.2164C43.7451 22.5047 43.9851 22.9013 44.1062 23.2901C44.496 24.5429 44.4265 27.5922 44.4416 28.9954C44.4674 30.8228 44.4583 32.6502 44.414 34.4775C44.3859 35.3756 44.3912 36.3315 44.208 37.2127C44.1012 37.7248 43.9508 38.214 43.5648 38.5917C43.1963 38.9523 42.7309 39.1876 42.2298 39.315C40.872 39.6602 38.2016 39.4601 36.7275 39.4502C35.3611 40.2569 34.0365 41.1364 32.7151 42.0117C31.304 42.9205 29.3098 44.3924 27.8404 45.049C27.9064 43.2003 27.854 41.3301 27.8623 39.4787C26.4497 39.4944 23.7817 39.6721 22.5047 39.3787C22.0326 39.2702 21.6146 39.0803 21.26 38.752C20.1784 37.7504 20.2977 36.1701 20.2479 34.8169C20.1455 32.2399 20.1397 29.6627 20.2305 27.0853C20.2654 25.9354 20.2323 24.6721 20.5013 23.5521C20.6112 23.0956 20.8403 22.6556 21.1715 22.3157C21.4489 22.031 21.8141 21.8653 22.1975 21.765C23.8563 21.3308 27.3283 21.3862 29.1813 21.3235Z" fill="#931602"/>
<path d="M24.4085 27.9132C24.4405 27.9108 24.4725 27.9085 24.5045 27.9076L24.558 27.9065C25.4908 27.8815 26.5099 28.5125 27.4069 28.7682C29.0926 29.2486 30.9063 29.5403 32.6637 29.5127C34.2264 29.4882 36.0957 29.1817 37.5831 28.6847C38.2098 28.4753 38.8071 28.1447 39.4495 27.9876C39.6765 27.9321 39.9255 27.8983 40.157 27.9475C40.3938 27.9975 40.5823 28.1409 40.7078 28.3413C41.0166 28.8348 41.0154 32.2225 40.826 32.8632C40.7223 33.213 40.3349 33.3674 40.0326 33.5347C39.8114 33.6405 39.588 33.7417 39.3625 33.8383C39.1371 33.9348 38.9097 34.0267 38.6802 34.114C38.4507 34.2012 38.2195 34.2836 37.9866 34.3612C37.7535 34.4389 37.519 34.5117 37.283 34.5796C37.0468 34.6476 36.8093 34.7107 36.5705 34.7689C36.3317 34.8269 36.0917 34.88 35.8506 34.9283C35.6096 34.9765 35.3677 35.0198 35.1248 35.058C34.8818 35.0962 34.6382 35.1293 34.3939 35.1574C34.1494 35.1855 33.9045 35.2086 33.6592 35.2266C33.4139 35.2447 33.1683 35.2577 32.9224 35.2656C32.6765 35.2736 32.4306 35.2764 32.1845 35.274C31.9386 35.2717 31.6928 35.2643 31.4471 35.2519C31.2014 35.2395 30.956 35.222 30.7109 35.1993C30.466 35.1768 30.2217 35.1492 29.978 35.1164C29.7343 35.0836 29.4914 35.0459 29.2492 35.0033C29.0071 34.9606 28.7659 34.9129 28.5258 34.8602C27.477 34.6217 24.4506 33.8485 23.8991 32.9353C23.6416 32.5087 23.612 29.0677 23.7647 28.5626C23.8722 28.2075 24.0995 28.0813 24.4085 27.9132Z" fill="#FEFEFE"/>
</svg>
