<svg width="30" height="30" viewBox="0 0 30 30" fill="none" xmlns="http://www.w3.org/2000/svg">
<g clip-path="url(#clip0_2486_3731)">
<path d="M27.4499 21.1816C26.9184 20.9336 26.2569 20.625 25.0444 20.625C23.832 20.625 23.1704 20.9337 22.639 21.1816C22.183 21.3944 21.8229 21.5625 21.0263 21.5625C20.2297 21.5625 19.8697 21.3945 19.4138 21.1816C18.8823 20.9337 18.2209 20.625 17.0084 20.625C15.7959 20.625 15.1345 20.9337 14.6031 21.1816C14.1472 21.3944 13.7871 21.5625 12.9906 21.5625C12.1942 21.5625 11.8342 21.3945 11.3783 21.1816C10.8469 20.9337 10.1855 20.625 8.97305 20.625C7.76062 20.625 7.09916 20.9337 6.56771 21.1816C6.1118 21.3944 5.75174 21.5625 4.95527 21.5625C4.15881 21.5625 3.79875 21.3945 3.34283 21.1816C2.81139 20.9337 2.14992 20.625 0.9375 20.625V22.5C1.73396 22.5 2.09402 22.668 2.54994 22.8809C3.08139 23.1288 3.74285 23.4375 4.95527 23.4375C6.1677 23.4375 6.82916 23.1288 7.36061 22.8809C7.81652 22.6681 8.17658 22.5 8.97305 22.5C9.76951 22.5 10.1295 22.668 10.5854 22.8809C11.1168 23.1288 11.7782 23.4375 12.9906 23.4375C14.2031 23.4375 14.8645 23.1288 15.396 22.8809C15.8519 22.6681 16.212 22.5 17.0084 22.5C17.8048 22.5 18.165 22.668 18.6209 22.8809C19.1524 23.1288 19.8138 23.4375 21.0263 23.4375C22.2388 23.4375 22.9003 23.1288 23.4318 22.8809C23.8877 22.6681 24.2479 22.5 25.0444 22.5C25.841 22.5 26.2011 22.668 26.657 22.8809C27.1886 23.1289 27.85 23.4375 29.0625 23.4375V21.5625C28.266 21.5625 27.9058 21.3945 27.4499 21.1816Z" fill="#121212"/>
<path d="M25.0444 26.25C23.832 26.25 23.1704 26.5587 22.639 26.8066C22.183 27.0194 21.8229 27.1875 21.0263 27.1875C20.2297 27.1875 19.8697 27.0195 19.4138 26.8066C18.8823 26.5587 18.2209 26.25 17.0084 26.25C15.7959 26.25 15.1345 26.5587 14.6031 26.8066C14.1472 27.0194 13.7871 27.1875 12.9906 27.1875C12.1942 27.1875 11.8342 27.0195 11.3783 26.8066C10.8469 26.5587 10.1855 26.25 8.97305 26.25C7.76062 26.25 7.09916 26.5587 6.56771 26.8066C6.1118 27.0194 5.75174 27.1875 4.95527 27.1875C4.15881 27.1875 3.79875 27.0195 3.34283 26.8066C2.81139 26.5587 2.14992 26.25 0.9375 26.25V28.125C1.73396 28.125 2.09402 28.293 2.54994 28.5059C3.08139 28.7538 3.74285 29.0625 4.95527 29.0625C6.1677 29.0625 6.82916 28.7538 7.36061 28.5059C7.81652 28.2931 8.17658 28.125 8.97305 28.125C9.76951 28.125 10.1295 28.293 10.5854 28.5059C11.1168 28.7538 11.7782 29.0625 12.9906 29.0625C14.2031 29.0625 14.8645 28.7538 15.396 28.5059C15.8519 28.2931 16.212 28.125 17.0084 28.125C17.8048 28.125 18.165 28.293 18.6209 28.5059C19.1524 28.7538 19.8138 29.0625 21.0263 29.0625C22.2388 29.0625 22.9003 28.7538 23.4318 28.5059C23.8877 28.2931 24.2479 28.125 25.0444 28.125C25.841 28.125 26.2011 28.293 26.657 28.5059C27.1886 28.7539 27.85 29.0625 29.0625 29.0625V27.1875C28.266 27.1875 27.9058 27.0195 27.4499 26.8066C26.9184 26.5587 26.2569 26.25 25.0444 26.25Z" fill="#121212"/>
<path d="M14.5313 15.9375H22.9688V19.2188H24.8438V6.78973C24.843 6.22067 25.0156 5.66489 25.3386 5.19639L28.2666 0.9375H25.9912L23.7935 4.13414C23.2552 4.915 22.9675 5.8413 22.9688 6.78973V9.375H14.5313V6.78973C14.5305 6.22067 14.7031 5.66489 15.0261 5.19639L17.9541 0.9375H15.6787L13.481 4.13414C12.9427 4.915 12.655 5.8413 12.6563 6.78973V19.2188H14.5313V15.9375ZM14.5313 11.25H22.9688V14.0625H14.5313V11.25Z" fill="#121212"/>
</g>
<defs>
<clipPath id="clip0_2486_3731">
<rect width="30" height="30" fill="white"/>
</clipPath>
</defs>
</svg>
