<svg width="38" height="38" viewBox="0 0 38 38" fill="none" xmlns="http://www.w3.org/2000/svg">
<circle cx="18.7183" cy="18.7183" r="18.7183" fill="#018191" fill-opacity="0.27"/>
<path d="M9.49401 14.358V14.358H9.49224C9.3633 14.358 9.29011 14.3225 9.2218 14.2542C9.15359 14.186 9.11884 14.1138 9.11914 13.9867H9.11914V13.9849C9.11914 13.856 9.15462 13.7828 9.22293 13.7145C9.29114 13.6463 9.3634 13.6115 9.49047 13.6118V13.6118H9.49224C9.62118 13.6118 9.69437 13.6473 9.76268 13.7156C9.8309 13.7838 9.86564 13.8561 9.86534 13.9831H9.86534V13.9849C9.86534 14.1139 9.82987 14.187 9.76156 14.2554C9.69334 14.3236 9.62108 14.3583 9.49401 14.358ZM9.11914 18.4791V18.4773C9.11914 18.3484 9.15462 18.2752 9.22293 18.2069C9.29114 18.1386 9.3634 18.1039 9.49047 18.1042H9.49224C9.62118 18.1042 9.69437 18.1397 9.76268 18.208C9.8309 18.2762 9.86564 18.3485 9.86534 18.4755V18.4773C9.86534 18.6062 9.82987 18.6794 9.76156 18.7477C9.69334 18.816 9.62108 18.8507 9.49401 18.8504H9.49224C9.3633 18.8504 9.29011 18.8149 9.2218 18.7466C9.15359 18.6784 9.11884 18.6061 9.11914 18.4791ZM9.11914 22.9715V22.9697C9.11914 22.8407 9.15462 22.7676 9.22293 22.6993C9.29114 22.631 9.3634 22.5963 9.49047 22.5966H9.49224C9.62118 22.5966 9.69437 22.6321 9.76268 22.7004C9.8309 22.7686 9.86564 22.8408 9.86534 22.9679V22.9697C9.86534 23.0986 9.82987 23.1718 9.76156 23.2401L10.2815 23.7601L9.76155 23.2401C9.69334 23.3083 9.62108 23.3431 9.49401 23.3428H9.49224C9.3633 23.3428 9.29011 23.3073 9.2218 23.239L8.69277 23.768L9.2218 23.239C9.15359 23.1708 9.11884 23.0985 9.11914 22.9715ZM13.6115 13.6118H27.8349V14.358H13.6115V13.6118ZM13.6115 18.1042H27.8349V18.8504H13.6115V18.1042ZM13.6115 22.5966H27.8349V23.3428H13.6115V22.5966Z" stroke="#018191" stroke-width="1.5"/>
</svg>
