<svg width="185" height="186" viewBox="0 0 185 186" fill="none" xmlns="http://www.w3.org/2000/svg">
<path d="M31.8158 45.7319L45.7446 152.658L152.671 138.73L138.742 31.803L31.8158 45.7319Z" fill="white"/>
<path d="M32.9226 46.5964L137.866 32.9226L151.54 137.866L46.5963 151.54L32.9226 46.5964ZM30.685 44.869L30.9401 46.8515L44.6177 151.804L44.8728 153.787L46.8515 153.522L151.808 139.854L153.787 139.59L153.531 137.607L139.858 32.6637L139.593 30.685L137.611 30.9402L32.6675 44.6139L30.685 44.869Z" fill="#018191"/>
<path d="M120.608 56.7525C120.843 58.5648 120.535 60.406 119.724 62.0434C118.912 63.6808 117.633 65.0408 116.049 65.9514C114.465 66.862 112.646 67.2824 110.822 67.1594C108.999 67.0363 107.253 66.3754 105.806 65.2602C104.358 64.1449 103.273 62.6255 102.689 60.8939C102.105 59.1624 102.048 57.2965 102.524 55.5322C103 53.7679 103.989 52.1845 105.365 50.9821C106.741 49.7797 108.443 49.0124 110.255 48.7772C111.459 48.621 112.681 48.7034 113.853 49.0197C115.024 49.336 116.122 49.8799 117.084 50.6205C118.045 51.3611 118.851 52.2838 119.456 53.336C120.06 54.3881 120.452 55.5491 120.608 56.7525Z" fill="#CBE4FA"/>
<path d="M54.3487 140.122C54.3487 140.122 65.5498 88.9891 72.8727 87.9918C80.1956 86.9945 95.7619 107.953 95.7619 107.953C95.7619 107.953 103.573 93.5571 111.052 92.5712C118.531 91.5853 141.152 128.835 141.152 128.835L54.3487 140.122Z" fill="#CBE4FA"/>
<path d="M96.6947 70.5305L48.2242 77.3777C48.1837 77.3846 48.1421 77.3805 48.1037 77.3659C48.0654 77.3513 48.0317 77.3267 48.006 77.2946C47.9741 77.2677 47.9491 77.2335 47.9331 77.1949C47.9172 77.1562 47.9108 77.1143 47.9145 77.0727C47.9699 76.866 49.4129 71.9981 52.2048 70.8467C52.6064 70.6736 53.0409 70.5904 53.478 70.6029C54.9614 70.6683 56.4302 70.9241 57.8484 71.3642C58.8577 71.7605 59.9512 71.8939 61.0262 71.7518C61.5347 71.5421 61.9508 70.689 62.4268 69.6923C63.3553 67.7733 64.6402 65.1449 67.5523 63.9439C68.4572 63.5805 69.4166 63.3713 70.3907 63.325C75.1494 63.0607 77.3065 65.7732 78.7277 67.5668C79.4298 68.4563 79.9306 69.0935 80.388 68.9698L80.6838 68.8478C81.2927 68.5626 81.88 68.2336 82.4412 67.8634C83.3896 67.2393 84.3875 66.6939 85.4249 66.2327C86.5795 65.7046 87.861 65.5177 89.1184 65.6938C92.7016 66.3037 96.5921 69.9671 96.7516 70.1177C96.7904 70.1431 96.8207 70.1796 96.8384 70.2225C96.8561 70.2654 96.8604 70.3126 96.8507 70.358C96.842 70.3937 96.8245 70.4266 96.7999 70.4538C96.7752 70.481 96.7441 70.5016 96.7094 70.5137L96.6947 70.5305Z" fill="#CBE4FA"/>
<path d="M67.6959 64.1875C68.5724 63.8367 69.5007 63.6329 70.4435 63.5844C77.602 63.185 78.7152 69.7137 80.5033 69.171C80.6149 69.136 80.7231 69.0914 80.8269 69.0375C82.001 68.5533 83.6728 67.204 85.5864 66.4148C86.7001 65.9063 87.936 65.7269 89.1483 65.8977C92.6962 66.5006 96.6472 70.258 96.6472 70.258L48.1766 77.1052C48.1766 77.1052 49.6191 72.1835 52.3371 71.0626C52.7076 70.9049 53.1076 70.8285 53.5102 70.8384C56.993 70.9164 59.3235 72.4757 61.146 72.0161L61.2292 71.9818C62.6991 71.3756 63.2531 66.0306 67.6997 64.1968M67.5091 63.7345C64.5046 64.9736 63.2148 67.669 62.2532 69.6124C61.8152 70.5178 61.3991 71.3709 61.0385 71.5196C59.9981 71.6571 58.9397 71.5278 57.9629 71.1438C56.5267 70.6957 55.0381 70.4369 53.5349 70.3738C53.0636 70.3623 52.5953 70.4521 52.1617 70.6373C49.2588 71.8345 47.7701 76.7753 47.7246 77.032C47.7038 77.1123 47.7024 77.1964 47.7208 77.2773C47.7391 77.3582 47.7764 77.4335 47.8298 77.497C47.8842 77.5596 47.9537 77.6073 48.0316 77.6357C48.1096 77.6641 48.1934 77.6723 48.2754 77.6594L96.7459 70.8122L96.8569 70.7665C96.9248 70.7373 96.9859 70.6941 97.0362 70.6398C97.0864 70.5856 97.1248 70.5214 97.1488 70.4514C97.1759 70.361 97.1775 70.2649 97.1532 70.1736C97.129 70.0824 97.0799 69.9997 97.0114 69.9348C96.8482 69.7749 92.8977 66.0713 89.2438 65.4473C87.941 65.2594 86.6117 65.4509 85.4149 65.9988C84.3651 66.4647 83.3549 67.0152 82.3943 67.6448C81.8339 68.0164 81.2464 68.3454 80.6368 68.6291L80.3687 68.7397C80.0729 68.8617 79.5193 68.1489 78.9565 67.44C77.494 65.5985 75.3009 62.8251 70.403 63.0927C69.4018 63.1404 68.4159 63.3568 67.4868 63.7329L67.5091 63.7345Z" fill="white"/>
<path d="M132.325 82.6732L132.261 82.6999L94.3433 87.2284C94.2961 87.233 94.2485 87.2246 94.2057 87.2042C94.163 87.1837 94.1266 87.1518 94.1006 87.1122C94.0745 87.0722 94.0604 87.0257 94.0598 86.978C94.0593 86.9303 94.0725 86.8834 94.0978 86.8429C94.1891 86.6971 96.402 83.1451 98.9986 81.9661L99.1372 81.9089C100.931 81.1692 102.909 81.7703 104.506 82.2584C105.077 82.4694 105.673 82.609 106.278 82.6741C106.318 82.668 106.357 82.6523 106.389 82.6283C106.676 82.5101 106.923 81.9541 107.207 81.3066C107.531 80.3264 108.056 79.4241 108.746 78.657C109.437 77.8898 110.28 77.2744 111.221 76.8496C111.693 76.6568 112.183 76.5092 112.683 76.4088C116.539 75.6082 118.632 78.0335 120.009 79.64C120.588 80.3098 121.084 80.8839 121.443 80.8875C121.784 80.8795 122.12 80.8 122.428 80.6542C122.891 80.4499 123.34 80.2143 123.771 79.9491C124.451 79.54 125.157 79.1764 125.885 78.8606C126.225 78.7213 126.573 78.5998 126.925 78.4967C129.687 77.6928 132.362 82.1064 132.474 82.2984C132.497 82.3325 132.511 82.3725 132.512 82.4139C132.514 82.4552 132.504 82.4963 132.484 82.5322C132.471 82.5667 132.449 82.5975 132.422 82.622C132.394 82.6466 132.361 82.6641 132.325 82.6732Z" fill="#CBE4FA"/>
<path d="M111.32 77.0899C111.779 76.9008 112.255 76.7552 112.742 76.6551C118.217 75.5327 119.995 81.1276 121.442 81.1475C121.803 81.1372 122.159 81.0565 122.49 80.9097C123.415 80.5285 124.496 79.7147 125.948 79.1161C126.278 78.9806 126.616 78.863 126.96 78.7636C129.566 78.0023 132.23 82.442 132.23 82.442L94.3034 86.9744C94.3034 86.9744 96.5397 83.3479 99.0993 82.1841L99.2287 82.1307C101.762 81.0861 104.836 82.9011 106.27 82.9155C106.342 82.901 106.411 82.8725 106.473 82.8316C107.555 82.3855 107.57 78.5933 111.305 77.053M111.114 76.5907C110.142 77.0273 109.271 77.6606 108.557 78.4507C107.842 79.2408 107.298 80.1705 106.961 81.1811C106.734 81.7072 106.477 82.2893 106.283 82.3694C105.699 82.3141 105.124 82.188 104.57 81.9939C103.033 81.546 100.87 80.8913 99.0212 81.6538L98.8733 81.7148C96.2066 82.9336 93.9627 86.5416 93.8621 86.6912C93.8159 86.7737 93.7921 86.8668 93.7931 86.9613C93.7941 87.0557 93.8199 87.1483 93.8679 87.2297C93.9214 87.306 93.9941 87.3668 94.0786 87.406C94.1632 87.4452 94.2566 87.4614 94.3494 87.453L132.268 82.9022C132.315 82.8936 132.359 82.8754 132.398 82.8488C132.509 82.8023 132.601 82.7187 132.657 82.6121C132.693 82.5369 132.71 82.4539 132.706 82.3705C132.702 82.2872 132.677 82.2063 132.634 82.135C132.546 81.9224 129.738 77.3691 126.802 78.2231C126.439 78.329 126.083 78.4543 125.734 78.5984C124.993 78.9189 124.275 79.2876 123.582 79.7022C123.163 79.9618 122.727 80.1923 122.277 80.392C122.011 80.5162 121.722 80.5838 121.428 80.5905C121.178 80.5857 120.632 79.9453 120.181 79.4283C118.763 77.7739 116.621 75.2822 112.596 76.0661C112.08 76.1733 111.575 76.3272 111.088 76.526L111.114 76.5907Z" fill="white"/>
<path d="M63.7248 16.7648L26.7896 118.072L128.097 155.007L165.032 53.7L63.7248 16.7648Z" fill="white"/>
<path d="M64.3082 18.0423L163.738 54.2896L127.49 153.719L28.0609 117.472L64.3082 18.0423ZM63.119 15.4779L62.4314 17.3547L26.1832 116.794L25.4956 118.671L27.3733 119.349L126.812 155.607L128.69 156.284L129.377 154.408L165.624 54.9781L166.302 53.1003L164.425 52.4128L64.9958 16.1655L63.119 15.4779Z" fill="#018191"/>
<path d="M137.437 67.4796C136.81 69.1961 135.688 70.6881 134.213 71.767C132.738 72.8459 130.976 73.4632 129.151 73.5408C127.325 73.6185 125.517 73.153 123.956 72.2032C122.395 71.2535 121.15 69.8621 120.38 68.205C119.609 66.548 119.347 64.6997 119.627 62.8938C119.907 61.0879 120.716 59.4056 121.952 58.0596C123.188 56.7135 124.796 55.7642 126.571 55.3317C128.347 54.8992 130.21 55.0028 131.927 55.6296C133.067 56.0458 134.114 56.6825 135.008 57.5033C135.902 58.3241 136.625 59.3129 137.137 60.4133C137.648 61.5137 137.938 62.7041 137.99 63.9166C138.041 65.129 137.853 66.3398 137.437 67.4796Z" fill="#CBE4FA"/>
<path d="M40.2041 110.913C40.2041 110.913 73.7171 70.7028 80.6752 73.1939C87.6332 75.6849 91.7844 101.459 91.7844 101.459C91.7844 101.459 105.353 92.2862 112.444 94.8593C119.536 97.4324 122.436 140.915 122.436 140.915L40.2041 110.913Z" fill="#CBE4FA"/>
<path d="M109.865 68.6816L63.6957 52.4118C63.6566 52.3992 63.6216 52.3764 63.5943 52.3457C63.567 52.3151 63.5484 52.2777 63.5405 52.2374C63.5245 52.1988 63.5181 52.1569 63.5218 52.1153C63.5254 52.0737 63.5391 52.0336 63.5616 51.9984C63.706 51.8404 67.2307 48.186 70.2391 48.4514C70.6752 48.4829 71.0992 48.6094 71.4813 48.822C72.7675 49.5639 73.953 50.4681 75.0085 51.5124C75.7215 52.3294 76.6303 52.9519 77.6498 53.3214C78.1977 53.3698 78.9603 52.8046 79.8421 52.1395C81.5507 50.8647 83.9028 49.1247 87.0406 49.4015C88.0111 49.4962 88.9589 49.7528 89.8447 50.1608C94.1893 52.1202 94.853 55.5216 95.2872 57.7685C95.5003 58.8815 95.6509 59.6778 96.1138 59.7789L96.4325 59.807C97.1043 59.8346 97.7772 59.8135 98.4459 59.7437C99.5752 59.6271 100.712 59.6032 101.845 59.6721C103.113 59.7359 104.337 60.1607 105.371 60.8967C108.27 63.0899 110.033 68.1344 110.105 68.3415C110.128 68.3819 110.138 68.4283 110.134 68.4745C110.13 68.5208 110.112 68.5647 110.083 68.6005C110.058 68.6281 110.028 68.6493 109.993 68.662C109.959 68.6748 109.922 68.6787 109.885 68.6734L109.865 68.6816Z" fill="#CBE4FA"/>
<path d="M87.0558 49.6837C87.9953 49.7765 88.913 50.0236 89.772 50.4152C96.3085 53.361 94.2864 59.6677 96.1234 60.0105C96.2385 60.0309 96.3552 60.0412 96.4721 60.0412C97.7372 60.1528 99.8428 59.7262 101.905 59.9081C103.127 59.9703 104.307 60.3809 105.304 61.0913C108.174 63.262 109.948 68.4178 109.948 68.4178L63.7792 52.1479C63.7792 52.1479 67.3283 48.4454 70.2569 48.7038C70.6584 48.7347 71.0486 48.8513 71.4013 49.0457C74.4559 50.7206 75.8052 53.1786 77.6343 53.611L77.7239 53.6189C79.3078 53.7586 82.2635 49.271 87.0549 49.6937M87.0988 49.1956C83.8614 48.91 81.4743 50.7072 79.7249 51.9885C78.919 52.59 78.1563 53.1551 77.7678 53.1209C76.7811 52.7632 75.9016 52.1605 75.2118 51.3695C74.1439 50.3097 72.9423 49.3938 71.6374 48.6448C71.2245 48.4173 70.7675 48.2811 70.2974 48.2455C67.1695 47.9696 63.5706 51.6677 63.4118 51.8745C63.3563 51.9362 63.3164 52.0102 63.2954 52.0904C63.2743 52.1707 63.2727 52.2547 63.2908 52.3357C63.3103 52.4163 63.3499 52.4907 63.406 52.5518C63.4621 52.6129 63.5327 52.6588 63.6113 52.6852L109.78 68.9551L109.9 68.9656C109.974 68.971 110.048 68.9609 110.117 68.9359C110.187 68.9109 110.251 68.8717 110.304 68.8206C110.37 68.7529 110.416 68.6683 110.436 68.5762C110.457 68.4841 110.451 68.388 110.42 68.2988C110.349 68.0817 108.551 62.974 105.596 60.7357C104.527 59.9683 103.259 59.5254 101.944 59.4598C100.798 59.3893 99.6477 59.4121 98.5051 59.5279C97.8365 59.5993 97.1635 59.6205 96.4917 59.5912L96.2028 59.5657C95.8841 59.5376 95.7214 58.6499 95.5489 57.7613C95.1 55.4529 94.4325 51.9808 89.9627 49.9602C89.0523 49.541 88.0776 49.2785 87.0798 49.1839L87.0988 49.1956Z" fill="white"/>
<path d="M135.885 95.8833L135.815 95.8772L100.08 82.4149C100.036 82.3973 99.9975 82.3679 99.969 82.33C99.9405 82.2921 99.9229 82.2471 99.9181 82.1999C99.9134 82.1524 99.9223 82.1046 99.9438 82.062C99.9653 82.0195 99.9986 81.9839 100.04 81.9597C100.188 81.8723 103.789 79.7406 106.637 79.8914L106.786 79.9046C108.719 80.075 110.198 81.5206 111.389 82.6898C111.799 83.1405 112.263 83.5388 112.771 83.8758C112.809 83.8889 112.85 83.8926 112.89 83.8863C113.199 83.9136 113.674 83.5338 114.225 83.0905C114.965 82.3702 115.846 81.8112 116.813 81.4489C117.78 81.0866 118.811 80.929 119.842 80.986C120.35 81.0326 120.853 81.1274 121.343 81.2689C125.134 82.3362 125.873 85.4532 126.353 87.5134C126.559 88.3747 126.734 89.113 127.051 89.2815C127.357 89.4317 127.692 89.5159 128.033 89.5288C128.538 89.5609 129.045 89.5587 129.549 89.522C130.341 89.4726 131.136 89.4756 131.928 89.531C132.294 89.5642 132.658 89.6164 133.018 89.6874C135.84 90.2476 136.179 95.3973 136.189 95.619C136.194 95.6601 136.188 95.7018 136.17 95.7394C136.153 95.7769 136.125 95.8087 136.09 95.8312C136.063 95.8557 136.03 95.8732 135.994 95.8823C135.958 95.8914 135.921 95.8917 135.885 95.8833Z" fill="#CBE4FA"/>
<path d="M119.819 81.245C120.314 81.2888 120.803 81.379 121.281 81.5145C126.658 83.0428 125.656 88.8271 126.93 89.5118C127.256 89.6694 127.609 89.762 127.97 89.7842C128.967 89.8721 130.301 89.6485 131.865 89.7865C132.221 89.8188 132.575 89.8701 132.926 89.9403C135.59 90.4664 135.907 95.6343 135.907 95.6343L100.162 82.1712C100.162 82.1712 103.818 79.984 106.626 80.1313L106.766 80.1436C109.495 80.3844 111.386 83.4123 112.652 84.0861C112.723 84.1068 112.797 84.1133 112.871 84.1055C114.036 84.2083 115.798 80.8501 119.823 81.2051M119.867 80.707C118.803 80.6464 117.738 80.8069 116.739 81.1784C115.741 81.5499 114.83 82.1244 114.065 82.8655C113.621 83.228 113.124 83.6259 112.915 83.6074C112.422 83.2891 111.97 82.9121 111.568 82.4847C110.411 81.3788 108.794 79.8005 106.801 79.6248L106.642 79.6107C103.714 79.4628 100.059 81.6301 99.9008 81.7165C99.8217 81.7683 99.7577 81.8399 99.715 81.9243C99.6723 82.0086 99.6525 82.1026 99.6576 82.197C99.6699 82.2893 99.7064 82.3768 99.7634 82.4506C99.8203 82.5243 99.8957 82.5818 99.9819 82.6171L135.729 96.0603C135.774 96.074 135.822 96.0782 135.868 96.0726C135.989 96.0827 136.108 96.0507 136.208 95.982C136.274 95.932 136.328 95.8661 136.362 95.7902C136.397 95.7144 136.412 95.6311 136.407 95.5478C136.427 95.3187 136.034 89.9836 133.035 89.3877C132.665 89.3147 132.291 89.2616 131.914 89.2287C131.11 89.1716 130.302 89.1674 129.496 89.2161C129.005 89.2534 128.511 89.2568 128.02 89.2264C127.726 89.214 127.439 89.1407 127.175 89.0114C126.955 88.8916 126.766 88.0718 126.604 87.405C126.109 85.2832 125.357 82.0848 121.424 80.9247C120.916 80.782 120.397 80.6858 119.873 80.6373L119.867 80.707Z" fill="white"/>
<path d="M20.628 178.981H18.576L12.402 169.639V178.981H10.35V166.453H12.402L18.576 175.777V166.453H20.628V178.981ZM27.6247 179.143C26.6887 179.143 25.8427 178.933 25.0867 178.513C24.3307 178.081 23.7367 177.481 23.3047 176.713C22.8727 175.933 22.6567 175.033 22.6567 174.013C22.6567 173.005 22.8787 172.111 23.3227 171.331C23.7667 170.551 24.3727 169.951 25.1407 169.531C25.9087 169.111 26.7667 168.901 27.7147 168.901C28.6627 168.901 29.5207 169.111 30.2887 169.531C31.0567 169.951 31.6627 170.551 32.1067 171.331C32.5507 172.111 32.7727 173.005 32.7727 174.013C32.7727 175.021 32.5447 175.915 32.0887 176.695C31.6327 177.475 31.0087 178.081 30.2167 178.513C29.4367 178.933 28.5727 179.143 27.6247 179.143ZM27.6247 177.361C28.1527 177.361 28.6447 177.235 29.1007 176.983C29.5687 176.731 29.9467 176.353 30.2347 175.849C30.5227 175.345 30.6667 174.733 30.6667 174.013C30.6667 173.293 30.5287 172.687 30.2527 172.195C29.9767 171.691 29.6107 171.313 29.1547 171.061C28.6987 170.809 28.2067 170.683 27.6787 170.683C27.1507 170.683 26.6587 170.809 26.2027 171.061C25.7587 171.313 25.4047 171.691 25.1407 172.195C24.8767 172.687 24.7447 173.293 24.7447 174.013C24.7447 175.081 25.0147 175.909 25.5547 176.497C26.1067 177.073 26.7967 177.361 27.6247 177.361ZM41.529 166.471V178.981H39.477V166.471H41.529ZM56.229 168.901C57.009 168.901 57.705 169.063 58.317 169.387C58.941 169.711 59.427 170.191 59.775 170.827C60.135 171.463 60.315 172.231 60.315 173.131V178.981H58.281V173.437C58.281 172.549 58.059 171.871 57.615 171.403C57.171 170.923 56.565 170.683 55.797 170.683C55.029 170.683 54.417 170.923 53.961 171.403C53.517 171.871 53.295 172.549 53.295 173.437V178.981H51.261V173.437C51.261 172.549 51.039 171.871 50.595 171.403C50.151 170.923 49.545 170.683 48.777 170.683C48.009 170.683 47.397 170.923 46.941 171.403C46.497 171.871 46.275 172.549 46.275 173.437V178.981H44.223V169.063H46.275V170.197C46.611 169.789 47.037 169.471 47.553 169.243C48.069 169.015 48.621 168.901 49.209 168.901C50.001 168.901 50.709 169.069 51.333 169.405C51.957 169.741 52.437 170.227 52.773 170.863C53.073 170.263 53.541 169.789 54.177 169.441C54.813 169.081 55.497 168.901 56.229 168.901ZM62.2422 173.977C62.2422 172.981 62.4462 172.099 62.8542 171.331C63.2742 170.563 63.8382 169.969 64.5462 169.549C65.2662 169.117 66.0582 168.901 66.9222 168.901C67.7022 168.901 68.3802 169.057 68.9562 169.369C69.5442 169.669 70.0122 170.047 70.3602 170.503V169.063H72.4302V178.981H70.3602V177.505C70.0122 177.973 69.5382 178.363 68.9382 178.675C68.3382 178.987 67.6542 179.143 66.8862 179.143C66.0342 179.143 65.2542 178.927 64.5462 178.495C63.8382 178.051 63.2742 177.439 62.8542 176.659C62.4462 175.867 62.2422 174.973 62.2422 173.977ZM70.3602 174.013C70.3602 173.329 70.2162 172.735 69.9282 172.231C69.6522 171.727 69.2862 171.343 68.8302 171.079C68.3742 170.815 67.8822 170.683 67.3542 170.683C66.8262 170.683 66.3342 170.815 65.8782 171.079C65.4222 171.331 65.0502 171.709 64.7622 172.213C64.4862 172.705 64.3482 173.293 64.3482 173.977C64.3482 174.661 64.4862 175.261 64.7622 175.777C65.0502 176.293 65.4222 176.689 65.8782 176.965C66.3462 177.229 66.8382 177.361 67.3542 177.361C67.8822 177.361 68.3742 177.229 68.8302 176.965C69.2862 176.701 69.6522 176.317 69.9282 175.813C70.2162 175.297 70.3602 174.697 70.3602 174.013ZM79.1214 168.901C79.8894 168.901 80.5674 169.057 81.1554 169.369C81.7554 169.669 82.2234 170.047 82.5594 170.503V169.063H84.6294V179.143C84.6294 180.055 84.4374 180.865 84.0534 181.573C83.6694 182.293 83.1114 182.857 82.3794 183.265C81.6594 183.673 80.7954 183.877 79.7874 183.877C78.4434 183.877 77.3274 183.559 76.4394 182.923C75.5514 182.299 75.0474 181.447 74.9274 180.367H76.9614C77.1174 180.883 77.4474 181.297 77.9514 181.609C78.4674 181.933 79.0794 182.095 79.7874 182.095C80.6154 182.095 81.2814 181.843 81.7854 181.339C82.3014 180.835 82.5594 180.103 82.5594 179.143V177.487C82.2114 177.955 81.7374 178.351 81.1374 178.675C80.5494 178.987 79.8774 179.143 79.1214 179.143C78.2574 179.143 77.4654 178.927 76.7454 178.495C76.0374 178.051 75.4734 177.439 75.0534 176.659C74.6454 175.867 74.4414 174.973 74.4414 173.977C74.4414 172.981 74.6454 172.099 75.0534 171.331C75.4734 170.563 76.0374 169.969 76.7454 169.549C77.4654 169.117 78.2574 168.901 79.1214 168.901ZM82.5594 174.013C82.5594 173.329 82.4154 172.735 82.1274 172.231C81.8514 171.727 81.4854 171.343 81.0294 171.079C80.5734 170.815 80.0814 170.683 79.5534 170.683C79.0254 170.683 78.5334 170.815 78.0774 171.079C77.6214 171.331 77.2494 171.709 76.9614 172.213C76.6854 172.705 76.5474 173.293 76.5474 173.977C76.5474 174.661 76.6854 175.261 76.9614 175.777C77.2494 176.293 77.6214 176.689 78.0774 176.965C78.5454 177.229 79.0374 177.361 79.5534 177.361C80.0814 177.361 80.5734 177.229 81.0294 176.965C81.4854 176.701 81.8514 176.317 82.1274 175.813C82.4154 175.297 82.5594 174.697 82.5594 174.013ZM96.4146 173.779C96.4146 174.151 96.3906 174.487 96.3426 174.787H88.7646C88.8246 175.579 89.1186 176.215 89.6466 176.695C90.1746 177.175 90.8226 177.415 91.5906 177.415C92.6946 177.415 93.4746 176.953 93.9306 176.029H96.1446C95.8446 176.941 95.2986 177.691 94.5066 178.279C93.7266 178.855 92.7546 179.143 91.5906 179.143C90.6426 179.143 89.7906 178.933 89.0346 178.513C88.2906 178.081 87.7026 177.481 87.2706 176.713C86.8506 175.933 86.6406 175.033 86.6406 174.013C86.6406 172.993 86.8446 172.099 87.2526 171.331C87.6726 170.551 88.2546 169.951 88.9986 169.531C89.7546 169.111 90.6186 168.901 91.5906 168.901C92.5266 168.901 93.3606 169.105 94.0926 169.513C94.8246 169.921 95.3946 170.497 95.8026 171.241C96.2106 171.973 96.4146 172.819 96.4146 173.779ZM94.2726 173.131C94.2606 172.375 93.9906 171.769 93.4626 171.313C92.9346 170.857 92.2806 170.629 91.5006 170.629C90.7926 170.629 90.1866 170.857 89.6826 171.313C89.1786 171.757 88.8786 172.363 88.7826 173.131H94.2726ZM110.652 176.425H105.414L104.514 178.981H102.372L106.854 166.453H109.23L113.712 178.981H111.552L110.652 176.425ZM110.076 174.751L108.042 168.937L105.99 174.751H110.076ZM119.495 177.145L122.303 169.063H124.481L120.701 178.981H118.253L114.491 169.063H116.687L119.495 177.145ZM125.348 173.977C125.348 172.981 125.552 172.099 125.96 171.331C126.38 170.563 126.944 169.969 127.652 169.549C128.372 169.117 129.164 168.901 130.028 168.901C130.808 168.901 131.486 169.057 132.062 169.369C132.65 169.669 133.118 170.047 133.466 170.503V169.063H135.536V178.981H133.466V177.505C133.118 177.973 132.644 178.363 132.044 178.675C131.444 178.987 130.76 179.143 129.992 179.143C129.14 179.143 128.36 178.927 127.652 178.495C126.944 178.051 126.38 177.439 125.96 176.659C125.552 175.867 125.348 174.973 125.348 173.977ZM133.466 174.013C133.466 173.329 133.322 172.735 133.034 172.231C132.758 171.727 132.392 171.343 131.936 171.079C131.48 170.815 130.988 170.683 130.46 170.683C129.932 170.683 129.44 170.815 128.984 171.079C128.528 171.331 128.156 171.709 127.868 172.213C127.592 172.705 127.454 173.293 127.454 173.977C127.454 174.661 127.592 175.261 127.868 175.777C128.156 176.293 128.528 176.689 128.984 176.965C129.452 177.229 129.944 177.361 130.46 177.361C130.988 177.361 131.48 177.229 131.936 176.965C132.392 176.701 132.758 176.317 133.034 175.813C133.322 175.297 133.466 174.697 133.466 174.013ZM139.275 167.749C138.903 167.749 138.591 167.623 138.339 167.371C138.087 167.119 137.961 166.807 137.961 166.435C137.961 166.063 138.087 165.751 138.339 165.499C138.591 165.247 138.903 165.121 139.275 165.121C139.635 165.121 139.941 165.247 140.193 165.499C140.445 165.751 140.571 166.063 140.571 166.435C140.571 166.807 140.445 167.119 140.193 167.371C139.941 167.623 139.635 167.749 139.275 167.749ZM140.283 169.063V178.981H138.231V169.063H140.283ZM142.293 173.977C142.293 172.981 142.497 172.099 142.905 171.331C143.325 170.563 143.889 169.969 144.597 169.549C145.317 169.117 146.109 168.901 146.973 168.901C147.753 168.901 148.431 169.057 149.007 169.369C149.595 169.669 150.063 170.047 150.411 170.503V169.063H152.481V178.981H150.411V177.505C150.063 177.973 149.589 178.363 148.989 178.675C148.389 178.987 147.705 179.143 146.937 179.143C146.085 179.143 145.305 178.927 144.597 178.495C143.889 178.051 143.325 177.439 142.905 176.659C142.497 175.867 142.293 174.973 142.293 173.977ZM150.411 174.013C150.411 173.329 150.267 172.735 149.979 172.231C149.703 171.727 149.337 171.343 148.881 171.079C148.425 170.815 147.933 170.683 147.405 170.683C146.877 170.683 146.385 170.815 145.929 171.079C145.473 171.331 145.101 171.709 144.813 172.213C144.537 172.705 144.399 173.293 144.399 173.977C144.399 174.661 144.537 175.261 144.813 175.777C145.101 176.293 145.473 176.689 145.929 176.965C146.397 177.229 146.889 177.361 147.405 177.361C147.933 177.361 148.425 177.229 148.881 176.965C149.337 176.701 149.703 176.317 149.979 175.813C150.267 175.297 150.411 174.697 150.411 174.013ZM157.228 170.539C157.576 170.059 158.05 169.669 158.65 169.369C159.262 169.057 159.94 168.901 160.684 168.901C161.56 168.901 162.352 169.111 163.06 169.531C163.768 169.951 164.326 170.551 164.734 171.331C165.142 172.099 165.346 172.981 165.346 173.977C165.346 174.973 165.142 175.867 164.734 176.659C164.326 177.439 163.762 178.051 163.042 178.495C162.334 178.927 161.548 179.143 160.684 179.143C159.916 179.143 159.232 178.993 158.632 178.693C158.044 178.393 157.576 178.009 157.228 177.541V178.981H155.176V165.661H157.228V170.539ZM163.258 173.977C163.258 173.293 163.114 172.705 162.826 172.213C162.55 171.709 162.178 171.331 161.71 171.079C161.254 170.815 160.762 170.683 160.234 170.683C159.718 170.683 159.226 170.815 158.758 171.079C158.302 171.343 157.93 171.727 157.642 172.231C157.366 172.735 157.228 173.329 157.228 174.013C157.228 174.697 157.366 175.297 157.642 175.813C157.93 176.317 158.302 176.701 158.758 176.965C159.226 177.229 159.718 177.361 160.234 177.361C160.762 177.361 161.254 177.229 161.71 176.965C162.178 176.689 162.55 176.293 162.826 175.777C163.114 175.261 163.258 174.661 163.258 173.977ZM169.427 165.661V178.981H167.375V165.661H169.427ZM181.211 173.779C181.211 174.151 181.187 174.487 181.139 174.787H173.561C173.621 175.579 173.915 176.215 174.443 176.695C174.971 177.175 175.619 177.415 176.387 177.415C177.491 177.415 178.271 176.953 178.727 176.029H180.941C180.641 176.941 180.095 177.691 179.303 178.279C178.523 178.855 177.551 179.143 176.387 179.143C175.439 179.143 174.587 178.933 173.831 178.513C173.087 178.081 172.499 177.481 172.067 176.713C171.647 175.933 171.437 175.033 171.437 174.013C171.437 172.993 171.641 172.099 172.049 171.331C172.469 170.551 173.051 169.951 173.795 169.531C174.551 169.111 175.415 168.901 176.387 168.901C177.323 168.901 178.157 169.105 178.889 169.513C179.621 169.921 180.191 170.497 180.599 171.241C181.007 171.973 181.211 172.819 181.211 173.779ZM179.069 173.131C179.057 172.375 178.787 171.769 178.259 171.313C177.731 170.857 177.077 170.629 176.297 170.629C175.589 170.629 174.983 170.857 174.479 171.313C173.975 171.757 173.675 172.363 173.579 173.131H179.069Z" fill="#018191"/>
</svg>
