<svg width="76" height="86" viewBox="0 0 76 86" fill="none" xmlns="http://www.w3.org/2000/svg">
<rect x="17.252" y="1.5" width="57.2189" height="67.5421" fill="url(#paint0_linear_678_4102)" stroke="#018191" stroke-width="3"/>
<rect x="1.5" y="11.3286" width="62.5238" height="73.1714" fill="url(#paint1_linear_678_4102)" stroke="#018191" stroke-width="3"/>
<path d="M14.2031 27.3636C14.2031 26.1642 15.1754 25.1919 16.3748 25.1919H46.7789C47.9783 25.1919 48.9506 26.1642 48.9506 27.3636C48.9506 28.563 47.9783 29.5353 46.7789 29.5353H16.3748C15.1754 29.5353 14.2031 28.563 14.2031 27.3636Z" fill="#396B76"/>
<path d="M14.2031 58.6363C14.2031 57.4369 15.1754 56.4646 16.3748 56.4646H46.7789C47.9783 56.4646 48.9506 57.4369 48.9506 58.6363C48.9506 59.8357 47.9783 60.808 46.7789 60.808H16.3748C15.1754 60.808 14.2031 59.8357 14.2031 58.6363Z" fill="#396B76"/>
<rect x="14.2031" y="35.6162" width="26.0606" height="4.34343" rx="2.17172" fill="#396B76"/>
<rect x="14.2031" y="66.8889" width="26.0606" height="4.34343" rx="2.17172" fill="#396B76"/>
<rect x="14.2031" y="46.0405" width="33.0101" height="4.34343" rx="2.17172" fill="#396B76"/>
<defs>
<linearGradient id="paint0_linear_678_4102" x1="75.8795" y1="-2.19517e-07" x2="45.4755" y2="41.697" gradientUnits="userSpaceOnUse">
<stop stop-color="#67BACC"/>
<stop offset="1" stop-color="white"/>
</linearGradient>
<linearGradient id="paint1_linear_678_4102" x1="19.1608" y1="92.3153" x2="53.9017" y2="5.01751" gradientUnits="userSpaceOnUse">
<stop stop-color="#D2EBF2"/>
<stop offset="1" stop-color="#F3FAFC"/>
</linearGradient>
</defs>
</svg>
