<svg width="77" height="92" viewBox="0 0 77 92" fill="none" xmlns="http://www.w3.org/2000/svg">
<g clip-path="url(#clip0_800_3944)">
<g opacity="0.3">
<path opacity="0.3" d="M53.7242 18.8669C51.6299 18.8649 49.6218 18.0319 48.1408 16.551C46.6598 15.07 45.827 13.062 45.825 10.9677V0H10.5275C7.79347 0 5.17141 1.08613 3.23814 3.01941C1.30486 4.95267 0.21875 7.57469 0.21875 10.3088V72.4528C0.22281 75.1842 1.3107 77.8022 3.24354 79.7322C5.17639 81.6621 7.79612 82.7463 10.5275 82.7463H52.9006C55.632 82.7463 58.2515 81.6621 60.1846 79.7322C62.1172 77.8022 63.2052 75.1842 63.2094 72.4528V18.8669H53.7242Z" fill="#018191"/>
</g>
<path d="M63.2086 18.8672H53.7234C51.6291 18.8651 49.621 18.0322 48.14 16.5513C46.659 15.0703 45.8261 13.0623 45.8242 10.9679V0.000244141L63.2086 18.8672Z" fill="#018191"/>
<path d="M50.25 57.7843H10.7002C10.3192 57.7843 9.95384 57.633 9.68441 57.3637C9.41503 57.094 9.26367 56.7289 9.26367 56.3478C9.26471 55.9674 9.41648 55.6031 9.68579 55.3345C9.9551 55.066 10.3199 54.915 10.7002 54.915H50.25C50.63 54.915 50.9943 55.066 51.2628 55.3345C51.5318 55.6034 51.6827 55.9678 51.6827 56.3478C51.6831 56.5362 51.6463 56.7232 51.5747 56.8971C51.503 57.0714 51.3973 57.23 51.2644 57.3633C51.1314 57.4966 50.9732 57.6028 50.7989 57.6748C50.625 57.7472 50.4384 57.7843 50.25 57.7843Z" fill="#018191"/>
<path d="M50.25 41.6032H10.7002C10.3199 41.6032 9.9551 41.4523 9.68579 41.1837C9.41648 40.9152 9.26471 40.5509 9.26367 40.1705C9.26367 39.7897 9.41503 39.4242 9.68441 39.1545C9.95384 38.8852 10.3192 38.7339 10.7002 38.7339H50.25C50.4384 38.7339 50.625 38.771 50.7989 38.8435C50.9732 38.9155 51.1314 39.0216 51.2644 39.1549C51.3973 39.2882 51.503 39.4468 51.5747 39.6211C51.6463 39.7954 51.6831 39.982 51.6827 40.1705C51.6827 40.5505 51.5318 40.9148 51.2628 41.1837C50.9943 41.4523 50.63 41.6032 50.25 41.6032Z" fill="#018191"/>
<path d="M50.25 49.6938H10.7002C10.3192 49.6938 9.95384 49.5424 9.68441 49.2731C9.41503 49.0034 9.26367 48.6384 9.26367 48.2572C9.26471 47.8768 9.41648 47.5125 9.68579 47.2439C9.9551 46.9754 10.3199 46.8245 10.7002 46.8245H50.25C50.63 46.8245 50.9943 46.9754 51.2628 47.2439C51.5318 47.5129 51.6827 47.8772 51.6827 48.2572C51.6831 48.4457 51.6463 48.6322 51.5747 48.8065C51.503 48.9808 51.3973 49.1394 51.2644 49.2728C51.1314 49.4061 50.9732 49.5122 50.7989 49.5842C50.625 49.6566 50.4384 49.6938 50.25 49.6938Z" fill="#018191"/>
<path d="M34.6507 33.5124H10.7002C10.3199 33.5124 9.9551 33.3616 9.68579 33.093C9.41648 32.8244 9.26471 32.46 9.26367 32.0796C9.26367 31.6986 9.41503 31.3332 9.68441 31.0638C9.95384 30.7944 10.3192 30.6431 10.7002 30.6431H34.6507C35.0311 30.6441 35.3954 30.7958 35.664 31.0651C35.9326 31.3345 36.0834 31.6993 36.0834 32.0796C36.0824 32.4593 35.9311 32.8231 35.6627 33.0916C35.3942 33.3601 35.0304 33.5113 34.6507 33.5124Z" fill="#018191"/>
<path d="M34.6507 25.4218H10.7002C10.3199 25.4218 9.9551 25.2709 9.68579 25.0023C9.41648 24.7337 9.26471 24.3694 9.26367 23.9891C9.26367 23.6081 9.41503 23.2426 9.68441 22.9732C9.95384 22.7038 10.3192 22.5525 10.7002 22.5525H34.6507C35.0311 22.5535 35.3954 22.7053 35.664 22.9746C35.9326 23.2439 36.0834 23.6087 36.0834 23.9891C36.0824 24.3687 35.9311 24.7326 35.6627 25.001C35.3942 25.2695 35.0304 25.4208 34.6507 25.4218Z" fill="#018191"/>
<path d="M70.6841 65.3584H22.7832C19.3854 65.3584 16.6309 68.1128 16.6309 71.5107V85.7921C16.6309 89.1901 19.3854 91.9445 22.7832 91.9445H70.6841C74.0821 91.9445 76.8365 89.1901 76.8365 85.7921V71.5107C76.8365 68.1128 74.0821 65.3584 70.6841 65.3584Z" fill="#018191"/>
<path d="M32.3437 81.7424V84.5275H29.4629V81.7424H32.3437Z" fill="white"/>
<path d="M36.5819 80.4864V84.5279H33.7969V73.0085H38.3096C39.6773 73.0085 40.7231 73.3495 41.4395 74.0276C41.8019 74.3838 42.085 74.8125 42.2696 75.286C42.4547 75.7595 42.537 76.2667 42.5121 76.7743C42.5259 77.4439 42.3608 78.1051 42.0333 78.6897C41.6988 79.2609 41.2031 79.721 40.6082 80.0113C39.8907 80.3504 39.1031 80.5147 38.3096 80.4902L36.5819 80.4864ZM39.6773 76.7743C39.6773 75.7526 39.118 75.2419 37.9993 75.2419H36.5819V78.2415H37.9993C39.118 78.2518 39.6773 77.7626 39.6773 76.7743Z" fill="white"/>
<path d="M53.5154 81.7505C53.0358 82.6216 52.311 83.3326 51.4315 83.7962C50.4416 84.303 49.3406 84.5543 48.2289 84.5278H43.8809V73.0085H48.2289C49.3413 72.9805 50.4439 73.2265 51.4391 73.7249C52.3164 74.1784 53.0393 74.8822 53.5154 75.7475C54.0138 76.6662 54.2648 77.6986 54.2433 78.7433C54.264 79.7918 54.0134 80.8276 53.5154 81.7505ZM50.5197 81.172C50.8312 80.8525 51.0725 80.4714 51.228 80.053C51.3836 79.6347 51.4502 79.1888 51.4238 78.7433C51.4506 78.2985 51.384 77.8526 51.228 77.435C51.0725 77.0175 50.8312 76.6371 50.5197 76.3183C49.8229 75.7069 48.9127 75.3959 47.9875 75.4526H46.6659V82.034H47.9875C48.9119 82.0903 49.8214 81.7804 50.5197 81.172Z" fill="white"/>
<path d="M63.3346 73.0085V75.2266H58.6111V77.7511H62.2581V79.8696H58.6111V84.5279H55.8223V73.0085H63.3346Z" fill="white"/>
<path d="M49.5473 22.5525H42.7743C41.5937 22.5525 40.6367 23.5096 40.6367 24.6901V31.463C40.6367 32.6436 41.5937 33.6006 42.7743 33.6006H49.5473C50.7279 33.6006 51.6849 32.6436 51.6849 31.463V24.6901C51.6849 23.5096 50.7279 22.5525 49.5473 22.5525Z" fill="#018191"/>
</g>
<defs>
<clipPath id="clip0_800_3944">
<rect width="77" height="91.9403" fill="white"/>
</clipPath>
</defs>
</svg>
