<svg width="92" height="87" viewBox="0 0 92 87" fill="none" xmlns="http://www.w3.org/2000/svg">
<g clip-path="url(#clip0_366_2080)">
<path d="M72.41 2.03999H7.74004C4.59202 2.03999 2.04004 4.59197 2.04004 7.73999V72.41C2.04004 75.558 4.59202 78.11 7.74004 78.11H72.41C75.5581 78.11 78.11 75.558 78.11 72.41V7.73999C78.11 4.59197 75.5581 2.03999 72.41 2.03999Z" fill="#F2F2F2"/>
<path d="M69.84 80.1H10.35C7.60583 80.0974 4.97479 79.0061 3.03436 77.0656C1.09393 75.1252 0.00264754 72.4942 0 69.75V10.35C0.00264754 7.60583 1.09393 4.97481 3.03436 3.03438C4.97479 1.09395 7.60583 0.00264754 10.35 0H69.84C72.5842 0.00264754 75.2152 1.09395 77.1556 3.03438C79.096 4.97481 80.1873 7.60583 80.19 10.35V69.79C80.1768 72.5272 79.0809 75.148 77.1416 77.0798C75.2023 79.0116 72.5773 80.0974 69.84 80.1ZM10.35 4.10001C8.68526 4.10265 7.08945 4.76514 5.91229 5.94229C4.73514 7.11945 4.07265 8.71526 4.07001 10.38V69.82C4.07266 71.4838 4.73546 73.0786 5.9129 74.2542C7.09034 75.4297 8.68618 76.09 10.35 76.09H69.84C71.5029 76.09 73.0977 75.4294 74.2735 74.2536C75.4494 73.0777 76.11 71.4829 76.11 69.82V10.35C76.1021 8.69138 75.4383 7.10324 74.2636 5.93228C73.0889 4.76132 71.4986 4.10263 69.84 4.10001H10.35Z" fill="black"/>
<path d="M78.0998 48.9V69.79C78.0998 71.9853 77.2312 74.0915 75.6835 75.6485C74.1359 77.2055 72.0351 78.0868 69.8398 78.1H10.3498C8.14492 78.1 6.0302 77.2248 4.47018 75.6667C2.91017 74.1085 2.03244 71.9949 2.02979 69.79V55.01L23.7698 40.1L48.8998 65.23L78.0998 48.9Z" fill="#FFD866"/>
<path d="M69.8401 80.1H10.3501C7.60596 80.0974 4.97492 79.0061 3.03449 77.0656C1.09407 75.1252 0.00277897 72.4942 0.000131423 69.75V55.01C-0.00366285 54.679 0.0747546 54.3523 0.228342 54.0591C0.381929 53.7659 0.605889 53.5153 0.880136 53.33L22.6101 38.39C23.0004 38.1119 23.4775 37.9831 23.9547 38.0272C24.4319 38.0712 24.8774 38.2851 25.2101 38.63L49.2101 62.63L77.1101 47.1C77.4177 46.9223 77.7671 46.8297 78.1223 46.8318C78.4775 46.8338 78.8258 46.9304 79.1313 47.1117C79.4368 47.293 79.6885 47.5523 79.8605 47.8631C80.0325 48.1739 80.1187 48.5249 80.1101 48.88V69.77C80.1023 72.4969 79.0197 75.1108 77.0971 77.0447C75.1745 78.9785 72.567 80.0763 69.8401 80.1ZM4.07014 56.1V69.81C4.07279 71.4738 4.73559 73.0686 5.91303 74.2442C7.09048 75.4197 8.68631 76.08 10.3501 76.08H69.8401C71.503 76.08 73.0978 75.4194 74.2737 74.2436C75.4495 73.0677 76.1101 71.4729 76.1101 69.81V52.37L49.9401 66.98C49.5549 67.2013 49.1069 67.288 48.6668 67.2264C48.2268 67.1649 47.8199 66.9585 47.5101 66.64L23.5801 42.71L4.07014 56.1Z" fill="black"/>
<path d="M50.9398 44.15C56.9432 44.15 61.8098 39.2833 61.8098 33.28C61.8098 27.2767 56.9432 22.41 50.9398 22.41C44.9365 22.41 40.0698 27.2767 40.0698 33.28C40.0698 39.2833 44.9365 44.15 50.9398 44.15Z" fill="#FFD866"/>
<path d="M50.94 46.18C48.3858 46.182 45.8884 45.4263 43.7638 44.0084C41.6393 42.5906 39.983 40.5745 39.0047 38.2151C38.0263 35.8557 37.7698 33.2591 38.2676 30.7538C38.7654 28.2486 39.9952 25.9474 41.8013 24.1413C43.6074 22.3352 45.9086 21.1054 48.4139 20.6076C50.9191 20.1098 53.5157 20.3663 55.8751 21.3446C58.2345 22.323 60.2506 23.9793 61.6684 26.1038C63.0863 28.2284 63.842 30.7258 63.84 33.28C63.8347 36.6997 62.4739 39.9778 60.0558 42.3958C57.6378 44.8139 54.3597 46.1747 50.94 46.18ZM50.94 24.45C49.1932 24.448 47.485 24.9642 46.0316 25.9333C44.5782 26.9023 43.4449 28.2807 42.775 29.894C42.1052 31.5073 41.9289 33.283 42.2685 34.9965C42.608 36.71 43.4482 38.2843 44.6827 39.5202C45.9172 40.7561 47.4906 41.5981 49.2037 41.9396C50.9168 42.2811 52.6927 42.1068 54.3068 41.4388C55.9208 40.7708 57.3005 39.639 58.2712 38.1867C59.2419 36.7344 59.76 35.0268 59.76 33.28C59.7574 30.9407 58.8276 28.6978 57.1744 27.0427C55.5212 25.3876 53.2793 24.4553 50.94 24.45Z" fill="black"/>
</g>
<g clip-path="url(#clip1_366_2080)">
<path d="M83.41 8.03999H18.74C15.592 8.03999 13.04 10.592 13.04 13.74V78.41C13.04 81.558 15.592 84.11 18.74 84.11H83.41C86.5581 84.11 89.11 81.558 89.11 78.41V13.74C89.11 10.592 86.5581 8.03999 83.41 8.03999Z" fill="#F2F2F2"/>
<path d="M80.84 86.1H21.35C18.6058 86.0974 15.9748 85.0061 14.0344 83.0656C12.0939 81.1252 11.0026 78.4942 11 75.75V16.35C11.0026 13.6058 12.0939 10.9748 14.0344 9.03438C15.9748 7.09395 18.6058 6.00265 21.35 6H80.84C83.5842 6.00265 86.2152 7.09395 88.1556 9.03438C90.096 10.9748 91.1873 13.6058 91.19 16.35V75.79C91.1768 78.5272 90.0809 81.148 88.1416 83.0798C86.2023 85.0116 83.5773 86.0974 80.84 86.1ZM21.35 10.1C19.6853 10.1027 18.0894 10.7651 16.9123 11.9423C15.7351 13.1194 15.0727 14.7153 15.07 16.38V75.82C15.0727 77.4838 15.7355 79.0786 16.9129 80.2542C18.0903 81.4297 19.6862 82.09 21.35 82.09H80.84C82.5029 82.09 84.0977 81.4294 85.2735 80.2536C86.4494 79.0777 87.11 77.4829 87.11 75.82V16.35C87.1021 14.6914 86.4383 13.1032 85.2636 11.9323C84.0889 10.7613 82.4986 10.1026 80.84 10.1H21.35Z" fill="black"/>
<path d="M89.0998 54.9V75.79C89.0998 77.9853 88.2312 80.0915 86.6835 81.6485C85.1359 83.2055 83.0351 84.0868 80.8398 84.1H21.3498C19.1449 84.1 17.0302 83.2248 15.4702 81.6667C13.9102 80.1085 13.0324 77.9949 13.0298 75.79V61.01L34.7698 46.1L59.8998 71.23L89.0998 54.9Z" fill="#00B7EC"/>
<path d="M80.8401 86.1H21.3501C18.606 86.0974 15.9749 85.0061 14.0345 83.0656C12.0941 81.1252 11.0028 78.4942 11.0001 75.75V61.01C10.9963 60.679 11.0748 60.3523 11.2283 60.0591C11.3819 59.7659 11.6059 59.5153 11.8801 59.33L33.6101 44.39C34.0004 44.1119 34.4775 43.9831 34.9547 44.0272C35.4319 44.0712 35.8774 44.2851 36.2101 44.63L60.2101 68.63L88.1101 53.1C88.4177 52.9223 88.7671 52.8297 89.1223 52.8318C89.4775 52.8338 89.8258 52.9304 90.1313 53.1117C90.4368 53.293 90.6885 53.5523 90.8605 53.8631C91.0325 54.1739 91.1187 54.5249 91.1101 54.88V75.77C91.1023 78.4969 90.0197 81.1108 88.0971 83.0447C86.1745 84.9785 83.567 86.0763 80.8401 86.1ZM15.0701 62.1V75.81C15.0728 77.4738 15.7356 79.0686 16.913 80.2442C18.0905 81.4197 19.6863 82.08 21.3501 82.08H80.8401C82.503 82.08 84.0978 81.4194 85.2737 80.2436C86.4495 79.0677 87.1101 77.4729 87.1101 75.81V58.37L60.9401 72.98C60.5549 73.2013 60.1069 73.288 59.6668 73.2264C59.2268 73.1649 58.8199 72.9585 58.5101 72.64L34.5801 48.71L15.0701 62.1Z" fill="black"/>
<path d="M61.9398 50.15C67.9432 50.15 72.8098 45.2833 72.8098 39.28C72.8098 33.2767 67.9432 28.41 61.9398 28.41C55.9365 28.41 51.0698 33.2767 51.0698 39.28C51.0698 45.2833 55.9365 50.15 61.9398 50.15Z" fill="#FFD866"/>
<path d="M61.94 52.18C59.3858 52.182 56.8884 51.4263 54.7638 50.0084C52.6393 48.5906 50.983 46.5745 50.0047 44.2151C49.0263 41.8557 48.7698 39.2591 49.2676 36.7538C49.7654 34.2486 50.9952 31.9474 52.8013 30.1413C54.6074 28.3352 56.9086 27.1054 59.4139 26.6076C61.9191 26.1098 64.5157 26.3663 66.8751 27.3446C69.2345 28.323 71.2506 29.9793 72.6684 32.1038C74.0863 34.2284 74.842 36.7258 74.84 39.28C74.8347 42.6997 73.4739 45.9778 71.0558 48.3958C68.6378 50.8139 65.3597 52.1747 61.94 52.18ZM61.94 30.45C60.1932 30.448 58.485 30.9642 57.0316 31.9333C55.5782 32.9023 54.4449 34.2807 53.775 35.894C53.1052 37.5073 52.9289 39.283 53.2685 40.9965C53.608 42.71 54.4482 44.2843 55.6827 45.5202C56.9172 46.7561 58.4906 47.5981 60.2037 47.9396C61.9168 48.2811 63.6927 48.1068 65.3068 47.4388C66.9208 46.7708 68.3005 45.639 69.2712 44.1867C70.2419 42.7344 70.76 41.0268 70.76 39.28C70.7574 36.9407 69.8276 34.6978 68.1744 33.0427C66.5212 31.3876 64.2793 30.4553 61.94 30.45Z" fill="black"/>
</g>
<defs>
<clipPath id="clip0_366_2080">
<rect width="80.14" height="80.14" fill="white"/>
</clipPath>
<clipPath id="clip1_366_2080">
<rect width="80.14" height="80.14" fill="white" transform="translate(11 6)"/>
</clipPath>
</defs>
</svg>
