<svg width="66" height="73" viewBox="0 0 66 73" fill="none" xmlns="http://www.w3.org/2000/svg">
<path d="M3.77148 33.6865H62.3947C63.3612 33.6865 64.1447 34.47 64.1447 35.4365V45.3837H3.77148V33.6865Z" fill="#49AAEE" stroke="black" stroke-width="2.5"/>
<path d="M3.77148 45.8557H64.1447V67.0001C64.1447 69.6234 62.0181 71.7501 59.3947 71.7501H8.52148C5.89813 71.7501 3.77148 69.6234 3.77148 67.0001V45.8557Z" fill="#F2F2F2" stroke="black" stroke-width="2.5"/>
<path d="M40.8309 58.8031L29.123 66.608V50.9976L40.8309 58.8031Z" fill="#FA5C66" stroke="black" stroke-width="2.5"/>
<line y1="-1.25" x2="15.4793" y2="-1.25" transform="matrix(-0.524097 0.851658 -0.883349 -0.468716 57.2812 32.4365)" stroke="black" stroke-width="2.5"/>
<line y1="-1.25" x2="15.4793" y2="-1.25" transform="matrix(-0.524097 0.851658 -0.883349 -0.468716 44.0977 32.4365)" stroke="black" stroke-width="2.5"/>
<line y1="-1.25" x2="15.4793" y2="-1.25" transform="matrix(-0.524097 0.851658 -0.883349 -0.468716 30.9141 32.4365)" stroke="black" stroke-width="2.5"/>
<line y1="-1.25" x2="15.4793" y2="-1.25" transform="matrix(-0.524097 0.851658 -0.883349 -0.468716 17.7324 32.4365)" stroke="black" stroke-width="2.5"/>
<path d="M3.31784 31.7851L3.64265 32.9922L4.83808 32.6269L60.7065 15.5556C61.8949 15.1924 62.5965 13.9253 62.2736 12.7254L61.099 8.35987C59.7715 3.42671 54.7348 0.637812 49.8492 2.13069L8.32599 14.8187C3.44035 16.3115 0.555863 21.5209 1.88331 26.454L3.31784 31.7851Z" fill="#49AAEE" stroke="black" stroke-width="2.5"/>
<line y1="-1.25" x2="16.4665" y2="-1.25" transform="matrix(0.649511 0.760352 -0.717783 0.696267 9.8125 15.8599)" stroke="black" stroke-width="2.5"/>
<line y1="-1.25" x2="18.0788" y2="-1.25" transform="matrix(0.684296 0.729204 -0.684296 0.729204 20.5078 11.8799)" stroke="black" stroke-width="2.5"/>
<line y1="-1.25" x2="16.6881" y2="-1.25" transform="matrix(0.684296 0.729204 -0.684296 0.729204 32.8789 8.63403)" stroke="black" stroke-width="2.5"/>
<line y1="-1.25" x2="16.6881" y2="-1.25" transform="matrix(0.684296 0.729204 -0.684296 0.729204 44.2988 5.14502)" stroke="black" stroke-width="2.5"/>
</svg>
