<svg width="74" height="71" viewBox="0 0 74 71" fill="none" xmlns="http://www.w3.org/2000/svg">
<g id="Object" clip-path="url(#clip0_366_2044)">
<path id="Vector" d="M0.938965 29.9671V28.7967H73.5093V29.9671H0.938965Z" fill="#49AAEE" stroke="black" stroke-width="0.5"/>
<path id="Vector_2" d="M30.8297 37.1878L30.4393 36.9226V37.3946V64.4469V64.9188L30.8297 64.6537L50.7473 51.1281L51.0518 50.9213L50.7473 50.7145L30.8297 37.1878ZM2.89766 70.7512C1.83941 70.7512 0.943848 69.8033 0.943848 68.5847V30.4671H73.5096V68.5847C73.5096 69.8032 72.613 70.7512 71.5558 70.7512H2.89766Z" fill="white" stroke="black" stroke-width="0.5"/>
<path id="Vector_3" d="M37.0337 14.8654L42.4273 5.61933L51.225 3.96674L45.8336 13.2118L37.0337 14.8654Z" fill="white" stroke="black" stroke-width="0.5"/>
<path id="Vector_4" d="M17.1762 18.5932L22.5687 9.34708L31.3664 7.6945L25.9739 16.9407L17.1762 18.5932Z" fill="white" stroke="black" stroke-width="0.5"/>
<path id="Vector_5" d="M71.0743 0.253837L65.6913 9.48514L56.8924 11.1367L62.2839 1.88928L70.8756 0.277444C70.876 0.277373 70.8764 0.277302 70.8768 0.27723C70.9423 0.265688 71.0082 0.257889 71.0743 0.253837Z" fill="white" stroke="black" stroke-width="0.5"/>
<path id="Vector_6" d="M0.264585 15.7103L0.264565 15.7102C0.131111 14.5247 0.926703 13.4115 2.0116 13.2083L2.01169 13.2083L11.5102 11.4256L6.11655 20.6718L0.928408 21.6438L0.264585 15.7103Z" fill="white" stroke="black" stroke-width="0.5"/>
<path id="Vector_7" d="M6.76806 20.5475L12.1617 11.3025L21.919 9.46921L16.5265 18.7154L6.76806 20.5475Z" fill="#49AAEE" stroke="black" stroke-width="0.5"/>
<path id="Vector_8" d="M26.6239 16.8187L32.0165 7.57244L41.7773 5.7413L36.3837 14.9876L26.6239 16.8187Z" fill="#49AAEE" stroke="black" stroke-width="0.5"/>
<path id="Vector_9" d="M46.4837 13.0898L51.8752 3.84465L61.6338 2.01136L56.2423 11.2587L46.4837 13.0898Z" fill="#49AAEE" stroke="black" stroke-width="0.5"/>
<path id="Vector_10" d="M73.0577 2.00338L73.0578 2.00403L73.7258 7.97552L66.3412 9.36303L71.6241 0.303399C72.3661 0.477929 72.9609 1.11703 73.0577 2.00338Z" fill="#49AAEE" stroke="black" stroke-width="0.5"/>
<path id="Vector_11" d="M5.74088 22.1891L1.10515 28.2874H0.947266V22.1891H5.74088Z" fill="white" stroke="black" stroke-width="0.5"/>
<path id="Vector_12" d="M12.1096 28.2874L16.7464 22.1891H25.5394L20.9026 28.2874H12.1096Z" fill="white" stroke="black" stroke-width="0.5"/>
<path id="Vector_13" d="M73.5198 28.2874H71.5073L73.5198 25.6425V28.2874Z" fill="white" stroke="black" stroke-width="0.5"/>
<path id="Vector_14" d="M51.7064 28.2874L56.3442 22.1891H65.1372L60.4993 28.2874H51.7064Z" fill="white" stroke="black" stroke-width="0.5"/>
<path id="Vector_15" d="M31.9081 28.2874L36.547 22.1891H45.3401L40.7033 28.2874H31.9081Z" fill="white" stroke="black" stroke-width="0.5"/>
<path id="Vector_16" d="M16.118 22.1891L11.4812 28.2874H1.73308L6.36881 22.1891H16.118Z" fill="#49AAEE" stroke="black" stroke-width="0.5"/>
<path id="Vector_17" d="M21.5305 28.2874L26.1673 22.1891H35.9187L31.2798 28.2874H21.5305Z" fill="#49AAEE" stroke="black" stroke-width="0.5"/>
<path id="Vector_18" d="M41.3313 28.2874L45.9681 22.1891H55.7161L51.0782 28.2874H41.3313Z" fill="#49AAEE" stroke="black" stroke-width="0.5"/>
<path id="Vector_19" d="M65.7656 22.1891H73.5201V24.8168L70.8793 28.2874H61.1277L65.7656 22.1891Z" fill="#49AAEE" stroke="black" stroke-width="0.5"/>
<path id="Vector_20" d="M30.939 63.9749V37.8666L50.1615 50.9213L30.939 63.9749Z" fill="#49AAEE" stroke="black" stroke-width="0.5"/>
</g>
<defs>
<clipPath id="clip0_366_2044">
<rect width="74" height="71" fill="white"/>
</clipPath>
</defs>
</svg>
