<svg width="66" height="73" viewBox="0 0 66 73" fill="none" xmlns="http://www.w3.org/2000/svg">
<g id="Group 1171278393">
<path id="Rectangle 34626784" d="M3.77148 33.6866H62.3947C63.3612 33.6866 64.1447 34.4701 64.1447 35.4366V45.3838H3.77148V33.6866Z" fill="#49AAEE" stroke="black" stroke-width="2.5"/>
<path id="Rectangle 34626785" d="M3.77148 45.8556H64.1447V67C64.1447 69.6233 62.0181 71.75 59.3947 71.75H8.52148C5.89813 71.75 3.77148 69.6233 3.77148 67V45.8556Z" fill="#F2F2F2" stroke="black" stroke-width="2.5"/>
<path id="Vector" d="M29.123 66.6081V50.9977L40.8308 58.8032L29.123 66.6081Z" fill="#FA5C66" stroke="black" stroke-width="2.5"/>
<line id="Line 54" y1="-1.25" x2="15.4793" y2="-1.25" transform="matrix(-0.524097 0.851658 -0.883349 -0.468716 57.2812 32.4366)" stroke="black" stroke-width="2.5"/>
<line id="Line 55" y1="-1.25" x2="15.4793" y2="-1.25" transform="matrix(-0.524097 0.851658 -0.883349 -0.468716 44.0986 32.4366)" stroke="black" stroke-width="2.5"/>
<line id="Line 56" y1="-1.25" x2="15.4793" y2="-1.25" transform="matrix(-0.524097 0.851658 -0.883349 -0.468716 30.915 32.4366)" stroke="black" stroke-width="2.5"/>
<line id="Line 57" y1="-1.25" x2="15.4793" y2="-1.25" transform="matrix(-0.524097 0.851658 -0.883349 -0.468716 17.7324 32.4366)" stroke="black" stroke-width="2.5"/>
<g id="Group 1171278394">
<path id="Rectangle 34626783" d="M3.31784 31.7852L3.64265 32.9923L4.83808 32.627L60.7065 15.5557C61.8949 15.1925 62.5965 13.9254 62.2736 12.7254L61.099 8.35996C59.7715 3.42681 54.7348 0.637904 49.8492 2.13078L8.32599 14.8187C3.44035 16.3116 0.555863 21.5209 1.88331 26.4541L3.31784 31.7852Z" fill="#49AAEE" stroke="black" stroke-width="2.5"/>
<line id="Line 58" y1="-1.25" x2="16.4665" y2="-1.25" transform="matrix(0.649511 0.760352 -0.717783 0.696267 9.8125 15.86)" stroke="black" stroke-width="2.5"/>
<line id="Line 59" y1="-1.25" x2="18.0788" y2="-1.25" transform="matrix(0.684296 0.729204 -0.684296 0.729204 20.5078 11.8799)" stroke="black" stroke-width="2.5"/>
<line id="Line 60" y1="-1.25" x2="16.6881" y2="-1.25" transform="matrix(0.684296 0.729204 -0.684296 0.729204 32.8789 8.63416)" stroke="black" stroke-width="2.5"/>
<line id="Line 61" y1="-1.25" x2="16.6881" y2="-1.25" transform="matrix(0.684296 0.729204 -0.684296 0.729204 44.2998 5.14517)" stroke="black" stroke-width="2.5"/>
</g>
</g>
</svg>
