<svg width="44" height="45" viewBox="0 0 44 45" fill="none" xmlns="http://www.w3.org/2000/svg">
<path fill-rule="evenodd" clip-rule="evenodd" d="M41.6586 14.2967V14.3053C42.7386 16.9059 43.2878 19.6693 43.2878 22.5217C43.2878 34.4284 33.5953 44.121 21.6885 44.121C9.78182 44.121 0.0892334 34.4284 0.0892334 22.5217C0.0892334 10.6149 9.78182 0.922363 21.6885 0.922363C23.9385 0.922363 26.1616 1.2729 28.2781 1.95789C28.2868 1.95789 28.2868 1.96652 28.2868 1.96652H28.3139C28.3442 1.97686 28.3687 1.99529 28.394 2.01425L28.4179 2.03183L28.4281 2.03891L28.4396 2.04626L28.4458 2.04988L28.4584 2.05665C28.5039 2.08381 28.5583 2.09244 28.6028 2.12824C28.6028 2.12824 28.6028 2.13117 28.6045 2.13362C28.6056 2.13537 28.6077 2.13687 28.6113 2.13687C28.6599 2.18635 28.6949 2.23589 28.7345 2.29197L28.746 2.30843C28.7513 2.31541 28.7569 2.32202 28.7626 2.32851L28.7752 2.34247C28.7865 2.35488 28.7978 2.36729 28.8076 2.38109C28.8152 2.39163 28.822 2.40303 28.8274 2.41582C28.8419 2.44112 28.8512 2.46871 28.8583 2.49753L28.8619 2.51361L28.8659 2.53327L28.8719 2.56885L28.8802 2.59159L28.8892 2.61508L28.8898 2.61684C28.9047 2.65572 28.9201 2.69594 28.9262 2.74042C28.9262 2.75512 28.9243 2.77008 28.9224 2.78558V2.79272C28.9201 2.81291 28.9175 2.83427 28.9175 2.85765C28.9175 2.9391 28.909 3.01068 28.8904 3.09218V3.10081C28.88 3.13112 28.8617 3.15871 28.844 3.18492C28.8301 3.20569 28.8169 3.22556 28.8088 3.24521C28.7818 3.29954 28.7632 3.35382 28.7274 3.39824C27.5746 4.80285 26.9452 6.55794 26.9452 8.35746C26.9452 12.6674 30.4541 16.1777 34.7654 16.1777C36.7995 16.1777 38.7249 15.3951 40.1923 13.9733C40.2044 13.9632 40.2166 13.9546 40.2287 13.9469C40.2462 13.9358 40.2637 13.9265 40.2811 13.9172C40.2965 13.9091 40.3118 13.901 40.3269 13.8918C40.3813 13.856 40.4171 13.8202 40.4714 13.7931H40.4897C40.5528 13.7671 40.6256 13.7573 40.6972 13.7487C40.7416 13.7487 40.7874 13.7215 40.8317 13.7301C40.886 13.7301 40.9305 13.7487 40.9847 13.7573C41.0477 13.7659 41.1106 13.7745 41.1649 13.7931C41.1883 13.8044 41.2082 13.82 41.229 13.8371L41.2405 13.8466L41.2638 13.8647C41.3354 13.9005 41.3982 13.9363 41.4611 13.9906C41.4611 13.9958 41.4611 13.9978 41.463 13.9987C41.4643 13.9992 41.4664 13.9992 41.4698 13.9992C41.5056 14.0436 41.5326 14.0979 41.5599 14.1522C41.587 14.1967 41.6315 14.2238 41.65 14.2781C41.65 14.2835 41.65 14.286 41.6515 14.2886L41.6541 14.292L41.6586 14.2967ZM6.38882 25.2209C6.38882 27.2106 8.00084 28.8213 9.98913 28.8213C11.9774 28.8213 13.5894 27.2106 13.5894 25.2209C13.5894 23.2314 11.9774 21.6207 9.98913 21.6207C7.99956 21.6207 6.38882 23.2326 6.38882 25.2209ZM15.3877 9.92128C13.9029 9.92128 12.6884 11.137 12.6884 12.6218C12.6884 14.1066 13.9041 15.3223 15.3877 15.3211C16.8738 15.3211 18.0882 14.1066 18.0882 12.6218C18.0882 11.1357 16.8725 9.92128 15.3877 9.92128ZM20.7888 34.2211C20.7888 35.7071 22.0032 36.9216 23.4881 36.9216C24.9729 36.9216 26.1886 35.7059 26.1886 34.2211C26.1886 32.7363 24.9729 31.5218 23.4881 31.5218C22.0032 31.5218 20.7888 32.7363 20.7888 34.2211ZM21.6885 22.0712C21.6885 24.0608 23.3006 25.6715 25.2889 25.6715C27.2771 25.6715 28.8879 24.0608 28.8892 22.0712C28.8892 20.0816 27.2771 18.4709 25.2889 18.4709C23.2993 18.4709 21.6885 20.0828 21.6885 22.0712Z" fill="#A0A3BD"/>
</svg>
