<svg width="14" height="15" viewBox="0 0 14 15" fill="none" xmlns="http://www.w3.org/2000/svg">
<path fill-rule="evenodd" clip-rule="evenodd" d="M13.4755 5.05264V5.05542C13.8234 5.89319 14.0003 6.78343 14.0003 7.70231C14.0003 11.538 10.8779 14.6605 7.04215 14.6605C3.20643 14.6605 0.0839844 11.538 0.0839844 7.70231C0.0839844 3.86657 3.20643 0.744141 7.04215 0.744141C7.76696 0.744141 8.48312 0.857066 9.16497 1.07773C9.16778 1.07773 9.16778 1.08051 9.16778 1.08051H9.1765C9.18624 1.08384 9.19414 1.08978 9.2023 1.09589L9.20999 1.10155L9.21329 1.10383L9.21699 1.1062L9.21898 1.10737L9.22303 1.10955C9.23772 1.1183 9.25522 1.12108 9.26957 1.13261C9.26957 1.13261 9.26957 1.13355 9.27012 1.13434C9.27046 1.13491 9.27115 1.13539 9.27231 1.13539C9.28796 1.15133 9.29922 1.16729 9.31199 1.18536L9.31569 1.19066C9.31741 1.19291 9.31919 1.19504 9.32105 1.19713L9.3251 1.20162C9.32873 1.20562 9.33237 1.20962 9.33553 1.21407C9.338 1.21746 9.3402 1.22114 9.34191 1.22525C9.34658 1.2334 9.3496 1.24229 9.35186 1.25158L9.35303 1.25676L9.35434 1.26309L9.35626 1.27455L9.35893 1.28188L9.36182 1.28945L9.36202 1.29001C9.36683 1.30254 9.37177 1.31549 9.37376 1.32982C9.37376 1.33456 9.37314 1.33938 9.37252 1.34437V1.34667C9.37177 1.35318 9.37095 1.36006 9.37095 1.36759C9.37095 1.39383 9.3682 1.41689 9.36223 1.44314V1.44592C9.35887 1.45569 9.35296 1.46457 9.34727 1.47302C9.3428 1.47971 9.33855 1.48611 9.33594 1.49244C9.32722 1.50994 9.32125 1.52743 9.30972 1.54174C8.93832 1.99423 8.73557 2.55963 8.73557 3.13934C8.73557 4.52779 9.86596 5.6586 11.2548 5.6586C11.9101 5.6586 12.5304 5.40651 13.0031 4.94846C13.007 4.94522 13.0109 4.94246 13.0148 4.93997C13.0205 4.9364 13.0261 4.9334 13.0317 4.93041C13.0367 4.9278 13.0416 4.9252 13.0465 4.92223C13.064 4.9107 13.0755 4.89916 13.093 4.89041H13.0989C13.1192 4.88206 13.1427 4.87888 13.1658 4.8761C13.18 4.8761 13.1948 4.86735 13.2091 4.87013C13.2266 4.87013 13.2409 4.8761 13.2584 4.87888C13.2787 4.88166 13.2989 4.88444 13.3164 4.89041C13.324 4.89407 13.3304 4.8991 13.3371 4.90459L13.3408 4.90764L13.3483 4.91348C13.3713 4.92501 13.3916 4.93654 13.4118 4.95404C13.4118 4.9557 13.4118 4.95637 13.4124 4.95665C13.4129 4.95682 13.4135 4.95682 13.4146 4.95682C13.4262 4.97113 13.4349 4.98862 13.4437 5.00612C13.4524 5.02043 13.4667 5.02918 13.4727 5.04667C13.4727 5.04842 13.4727 5.04921 13.4732 5.05003L13.474 5.05113L13.4755 5.05264ZM2.11338 8.57187C2.11338 9.21283 2.63269 9.73171 3.27321 9.73171C3.91374 9.73171 4.43305 9.21283 4.43305 8.57187C4.43305 7.93094 3.91374 7.41206 3.27321 7.41206C2.63228 7.41206 2.11338 7.93133 2.11338 8.57187ZM5.01234 3.64312C4.53401 3.64312 4.14278 4.03476 4.14278 4.51308C4.14278 4.99141 4.53442 5.38306 5.01234 5.38266C5.49109 5.38266 5.88232 4.99141 5.88232 4.51308C5.88232 4.03435 5.49068 3.64312 5.01234 3.64312ZM6.7523 11.4712C6.7523 11.95 7.14353 12.3412 7.62186 12.3412C8.1002 12.3412 8.49184 11.9496 8.49184 11.4712C8.49184 10.9929 8.1002 10.6017 7.62186 10.6017C7.14353 10.6017 6.7523 10.9929 6.7523 11.4712ZM7.04215 7.55718C7.04215 8.19813 7.56146 8.71701 8.20199 8.71701C8.84251 8.71701 9.36141 8.19813 9.36182 7.55718C9.36182 6.91624 8.84251 6.39736 8.20199 6.39736C7.56105 6.39736 7.04215 6.91664 7.04215 7.55718Z" fill="white"/>
</svg>
