<svg width="200" height="200" viewBox="0 0 200 200" fill="none" xmlns="http://www.w3.org/2000/svg">
<path d="M96.875 25H65.625C63.9 25 62.5 23.6 62.5 21.875C62.5 20.15 63.9 18.75 65.625 18.75H96.875C98.6 18.75 100 20.15 100 21.875C100 23.6 98.6 25 96.875 25Z" fill="#931602"/>
<path d="M84.375 181.25H78.125C76.4 181.25 75 179.85 75 178.125C75 176.4 76.4 175 78.125 175H84.375C86.1 175 87.5 176.4 87.5 178.125C87.5 179.85 86.1 181.25 84.375 181.25Z" fill="#931602"/>
<path d="M115.625 193.75H46.875C38.2563 193.75 31.25 186.744 31.25 178.125V21.875C31.25 13.2563 38.2563 6.25 46.875 6.25H115.625C124.244 6.25 131.25 13.2563 131.25 21.875V53.125C131.25 54.85 129.85 56.25 128.125 56.25C126.4 56.25 125 54.85 125 53.125V21.875C125 16.7063 120.794 12.5 115.625 12.5H46.875C41.7063 12.5 37.5 16.7063 37.5 21.875V178.125C37.5 183.294 41.7063 187.5 46.875 187.5H115.625C120.794 187.5 125 183.294 125 178.125V115.625C125 113.9 126.4 112.5 128.125 112.5C129.85 112.5 131.25 113.9 131.25 115.625V178.125C131.25 186.744 124.244 193.75 115.625 193.75Z" fill="#931602"/>
<path d="M178.125 106.25H59.375C57.65 106.25 56.25 104.85 56.25 103.125V65.625C56.25 63.9 57.65 62.5 59.375 62.5H178.125C179.85 62.5 181.25 63.9 181.25 65.625V103.125C181.25 104.85 179.85 106.25 178.125 106.25ZM62.5 100H175V68.75H62.5V100Z" fill="#931602"/>
<path d="M163.794 88.7938C163.794 89.5938 163.488 90.3938 162.881 91.0063C161.663 92.225 159.681 92.225 158.462 91.0063L149.625 82.1688C148.406 80.95 148.406 78.9688 149.625 77.75C150.844 76.5312 152.825 76.5312 154.044 77.75L162.881 86.5875C163.488 87.1938 163.794 87.9938 163.794 88.7938Z" fill="#931602"/>
<path d="M151.831 91.9188C151.031 91.9188 150.231 91.6125 149.618 91.0063C148.399 89.7875 148.399 87.8063 149.618 86.5875L158.456 77.75C159.674 76.5312 161.656 76.5312 162.874 77.75C164.093 78.9688 164.093 80.95 162.874 82.1688L154.037 91.0063C153.431 91.6125 152.631 91.9188 151.831 91.9188Z" fill="#931602"/>
<path d="M138.794 88.7938C138.794 89.5938 138.488 90.3938 137.881 91.0063C136.663 92.225 134.681 92.225 133.462 91.0063L124.625 82.1688C123.406 80.95 123.406 78.9688 124.625 77.75C125.844 76.5312 127.825 76.5312 129.044 77.75L137.881 86.5875C138.488 87.1938 138.794 87.9938 138.794 88.7938Z" fill="#931602"/>
<path d="M126.831 91.9188C126.031 91.9188 125.231 91.6125 124.618 91.0063C123.399 89.7875 123.399 87.8063 124.618 86.5875L133.456 77.75C134.674 76.5312 136.656 76.5312 137.874 77.75C139.093 78.9688 139.093 80.95 137.874 82.1688L129.037 91.0063C128.431 91.6125 127.631 91.9188 126.831 91.9188Z" fill="#931602"/>
<path d="M113.794 88.7938C113.794 89.5938 113.488 90.3938 112.881 91.0063C111.663 92.225 109.681 92.225 108.463 91.0063L99.625 82.1688C98.4062 80.95 98.4062 78.9688 99.625 77.75C100.844 76.5312 102.825 76.5312 104.044 77.75L112.881 86.5875C113.488 87.1938 113.794 87.9938 113.794 88.7938Z" fill="#931602"/>
<path d="M101.831 91.9188C101.031 91.9188 100.231 91.6125 99.6182 91.0063C98.3994 89.7875 98.3994 87.8063 99.6182 86.5875L108.456 77.75C109.674 76.5312 111.656 76.5312 112.874 77.75C114.093 78.9688 114.093 80.95 112.874 82.1688L104.037 91.0063C103.431 91.6125 102.631 91.9188 101.831 91.9188Z" fill="#931602"/>
<path d="M88.7938 88.7938C88.7938 89.5938 88.4875 90.3938 87.8813 91.0063C86.6625 92.225 84.6813 92.225 83.4625 91.0063L74.625 82.1688C73.4062 80.95 73.4062 78.9688 74.625 77.75C75.8438 76.5312 77.825 76.5312 79.0438 77.75L87.8813 86.5875C88.4875 87.1938 88.7938 87.9938 88.7938 88.7938Z" fill="#931602"/>
<path d="M76.8307 91.9188C76.0307 91.9188 75.2307 91.6125 74.6182 91.0063C73.3994 89.7875 73.3994 87.8063 74.6182 86.5875L83.4557 77.75C84.6744 76.5312 86.6557 76.5312 87.8744 77.75C89.0932 78.9688 89.0932 80.95 87.8744 82.1688L79.0369 91.0063C78.4307 91.6125 77.6307 91.9188 76.8307 91.9188Z" fill="#931602"/>
</svg>
