<svg width="214" height="205" viewBox="0 0 214 205" fill="none" xmlns="http://www.w3.org/2000/svg">
<path d="M105.966 181.027C149.041 181.027 183.961 145.671 183.961 102.057C183.961 58.443 149.041 23.0869 105.966 23.0869C62.8903 23.0869 27.9707 58.443 27.9707 102.057C27.9707 145.671 62.8903 181.027 105.966 181.027Z" fill="#69D5DD"/>
<path d="M105.966 181.027C149.041 181.027 183.961 145.671 183.961 102.057C183.961 58.443 149.041 23.0869 105.966 23.0869C62.8903 23.0869 27.9707 58.443 27.9707 102.057C27.9707 145.671 62.8903 181.027 105.966 181.027Z" fill="white" fill-opacity="0.7"/>
<path d="M39.166 145.397C43.0525 145.397 46.2031 142.207 46.2031 138.272C46.2031 134.336 43.0525 131.146 39.166 131.146C35.2795 131.146 32.1289 134.336 32.1289 138.272C32.1289 142.207 35.2795 145.397 39.166 145.397Z" fill="#A4E5EA"/>
<path d="M36.4766 177.025C38.8778 177.025 40.8243 175.054 40.8243 172.623C40.8243 170.192 38.8778 168.221 36.4766 168.221C34.0754 168.221 32.1289 170.192 32.1289 172.623C32.1289 175.054 34.0754 177.025 36.4766 177.025Z" fill="#69D5DD"/>
<path d="M36.4766 177.025C38.8778 177.025 40.8243 175.054 40.8243 172.623C40.8243 170.192 38.8778 168.221 36.4766 168.221C34.0754 168.221 32.1289 170.192 32.1289 172.623C32.1289 175.054 34.0754 177.025 36.4766 177.025Z" fill="white" fill-opacity="0.7"/>
<path d="M164.813 68.0728C171.1 68.0728 176.197 62.9119 176.197 56.5457C176.197 50.1794 171.1 45.0186 164.813 45.0186C158.525 45.0186 153.428 50.1794 153.428 56.5457C153.428 62.9119 158.525 68.0728 164.813 68.0728Z" fill="#A4E5EA"/>
<path d="M179.254 30.9396C180.846 30.9396 182.136 29.6329 182.136 28.021C182.136 26.4092 180.846 25.1025 179.254 25.1025C177.662 25.1025 176.371 26.4092 176.371 28.021C176.371 29.6329 177.662 30.9396 179.254 30.9396Z" fill="#69D5DD"/>
<path d="M179.254 30.9396C180.846 30.9396 182.136 29.6329 182.136 28.021C182.136 26.4092 180.846 25.1025 179.254 25.1025C177.662 25.1025 176.371 26.4092 176.371 28.021C176.371 29.6329 177.662 30.9396 179.254 30.9396Z" fill="white" fill-opacity="0.7"/>
<path d="M141.608 54.7912C140.848 54.4063 137.236 52.5778 136.38 52.1929C135.62 51.8079 134.574 51.9042 133.339 52.4816L61.5779 91.3608C59.2017 92.6119 57.3008 95.499 57.3008 97.9048V149.68C57.3008 150.738 57.681 151.508 58.3463 151.989C59.1067 152.47 62.9086 154.203 63.4789 154.588C64.2393 155.069 65.3798 155.069 66.7105 154.395L138.566 115.612C140.943 114.361 142.844 111.474 142.844 109.068V57.1971C142.844 56.0423 142.368 55.1762 141.608 54.7912Z" fill="#69D5DD"/>
<path d="M136.381 52.1929C135.621 51.8079 134.575 51.9042 133.34 52.4816L61.5786 91.3608C59.3925 92.5156 57.5866 95.2102 57.3965 97.5199C57.4915 98.386 57.8717 99.0597 58.442 99.4446C59.2024 99.9258 63.0043 101.658 63.5746 102.043C64.335 102.524 65.4755 102.524 66.8062 101.851L138.662 63.0675C140.848 61.9127 142.654 59.2181 142.844 56.9084C142.749 55.9461 142.369 55.1762 141.609 54.8875C140.848 54.5025 137.141 52.5778 136.381 52.1929Z" fill="#70E5E8"/>
<path d="M138.567 115.708L66.7107 154.491C64.3345 155.742 62.4336 154.78 62.4336 152.47V100.695C62.4336 98.2892 64.3345 95.4022 66.7107 94.1511L138.567 55.3681C140.943 54.1171 142.844 55.0794 142.844 57.3891V109.164C142.844 111.57 140.943 114.457 138.567 115.708Z" fill="#56BFC1"/>
<path d="M94.9397 116.958L75.2649 127.352C74.1243 127.929 73.1738 127.544 73.1738 126.293V102.812C73.1738 101.657 74.1243 100.117 75.2649 99.5397L94.8447 89.1463C95.9853 88.5689 96.9357 88.9538 96.9357 90.2049V113.686C97.0308 114.937 96.0803 116.381 94.9397 116.958Z" fill="white"/>
<path d="M97.0308 114.457C95.0348 109.549 90.3775 107.817 84.9597 110.704C79.8272 113.495 75.3599 119.654 73.1738 126.294V127.16C73.1738 127.93 73.8392 128.219 74.5995 127.834L95.7001 116.574C96.4605 116.189 97.0308 115.227 97.0308 114.457Z" fill="#635C99"/>
<path d="M84.9608 115.997C83.5351 116.767 82.3945 116.19 82.3945 114.746V111.281C82.3945 109.838 83.5351 108.009 84.9608 107.24C86.3865 106.47 87.5271 107.047 87.5271 108.491V111.955C87.5271 113.399 86.3865 115.227 84.9608 115.997Z" fill="#E5B641"/>
<path d="M89.4908 107.236C91.5161 102.973 91.1254 98.5269 88.6181 97.3058C86.1108 96.0846 82.4365 98.5505 80.4112 102.813C78.3859 107.076 78.7767 111.522 81.284 112.743C83.7912 113.964 87.4656 111.499 89.4908 107.236Z" fill="#FFCE47"/>
<path d="M84.9607 97.6156C82.6796 98.7704 80.7786 101.369 79.8281 104.256C80.1133 104.352 80.3984 104.352 80.6836 104.256C83.0597 103.871 84.8656 100.31 86.7666 100.214C88.0973 100.118 87.622 101.85 89.3329 102.331C89.7131 102.427 90.2834 102.427 90.8536 102.427C90.8536 102.235 90.8536 102.139 90.8536 101.946C90.8536 97.808 88.1923 95.8833 84.9607 97.6156Z" fill="#635C99"/>
<path d="M142.845 106.468L62.5293 149.775V141.883L142.845 98.5771V106.468Z" fill="#635C99"/>
<path d="M131.628 69.611L107.391 83.084C106.44 83.5652 105.68 84.8162 105.68 85.7786C105.68 86.7409 106.44 87.1259 107.391 86.6447L131.628 73.1717C132.578 72.6905 133.339 71.4395 133.339 70.4771C133.339 69.4185 132.578 69.0336 131.628 69.611Z" fill="#635C99"/>
<path d="M131.628 77.6954L107.391 91.1684C106.44 91.6496 105.68 92.9007 105.68 93.863C105.68 94.8254 106.44 95.2103 107.391 94.7292L131.628 81.2562C132.578 80.775 133.339 79.5239 133.339 78.5616C133.339 77.5992 132.578 77.2143 131.628 77.6954Z" fill="#635C99"/>
<path d="M131.628 85.8751L107.391 99.3481C106.44 99.8293 105.68 101.08 105.68 102.043C105.68 103.005 106.44 103.39 107.391 102.909L131.628 89.4358C132.578 88.9547 133.339 87.7036 133.339 86.7412C133.339 85.7789 132.578 85.3939 131.628 85.8751Z" fill="#635C99"/>
<path d="M131.628 94.0558L107.391 107.529C106.44 108.01 105.68 109.261 105.68 110.223C105.68 111.186 106.44 111.571 107.391 111.09L131.628 97.6165C132.578 97.1353 133.339 95.8843 133.339 94.9219C133.339 93.9595 132.578 93.5746 131.628 94.0558Z" fill="#635C99"/>
<path d="M165.625 44.1847C165.625 48.7012 165.425 55.3086 165.024 64.0071C164.623 72.371 164.423 78.7694 164.423 83.2022C164.423 84.3732 164.49 86.7987 164.623 90.4788C164.557 91.9007 164.156 92.988 163.421 93.7407C162.687 94.4099 161.819 94.7444 160.817 94.7444C159.748 94.7444 158.78 94.4099 157.912 93.7407C157.044 93.0716 156.509 92.1934 156.309 91.1061C155.508 84.2477 155.107 76.0511 155.107 66.5163L155.207 46.9448C155.207 43.8501 155.508 41.3409 156.109 39.4173C156.776 37.4099 158.179 36.4062 160.316 36.4062C162.119 36.4062 163.455 37.159 164.323 38.6645C165.191 40.0864 165.625 41.9264 165.625 44.1847ZM160.316 101.268C164.857 101.268 167.128 103.401 167.128 107.667C167.128 109.841 166.56 111.849 165.425 113.689C164.356 115.445 162.987 116.323 161.318 116.323C159.314 116.323 157.678 115.571 156.409 114.065C155.14 112.476 154.506 110.636 154.506 108.545C154.506 106.705 155.04 105.032 156.109 103.526C157.244 102.021 158.646 101.268 160.316 101.268Z" fill="#931602"/>
<path d="M168.099 44.1847C168.099 48.7012 167.898 55.3086 167.498 64.0071C167.097 72.371 166.897 78.7694 166.897 83.2022C166.897 84.3732 166.963 86.7987 167.097 90.4788C167.03 91.9007 166.629 92.988 165.895 93.7407C165.16 94.4099 164.292 94.7444 163.29 94.7444C162.222 94.7444 161.253 94.4099 160.385 93.7407C159.517 93.0716 158.983 92.1934 158.782 91.1061C157.981 84.2477 157.58 76.0511 157.58 66.5163L157.681 46.9448C157.681 43.8501 157.981 41.3409 158.582 39.4173C159.25 37.4099 160.652 36.4062 162.789 36.4062C164.593 36.4062 165.928 37.159 166.796 38.6645C167.665 40.0864 168.099 41.9264 168.099 44.1847ZM162.789 101.268C167.331 101.268 169.601 103.401 169.601 107.667C169.601 109.841 169.034 111.849 167.898 113.689C166.83 115.445 165.461 116.323 163.791 116.323C161.788 116.323 160.151 115.571 158.883 114.065C157.614 112.476 156.979 110.636 156.979 108.545C156.979 106.705 157.514 105.032 158.582 103.526C159.717 102.021 161.12 101.268 162.789 101.268Z" fill="#CD4731"/>
</svg>
