<svg width="111" height="22" viewBox="0 0 111 22" fill="none" xmlns="http://www.w3.org/2000/svg">
<rect x="1.06238" y="0.75" width="108.673" height="20.5" rx="10.25" fill="#FCFCFC"/>
<rect x="1.06238" y="0.75" width="108.673" height="20.5" rx="10.25" stroke="#018191" stroke-width="1.5"/>
<path d="M26.5007 10.614C26.5007 9.662 26.7153 8.808 27.1447 8.052C27.574 7.28667 28.1573 6.68933 28.8947 6.26C29.6413 5.83067 30.4673 5.616 31.3727 5.616C32.4367 5.616 33.3653 5.87267 34.1587 6.386C34.952 6.89933 35.5307 7.62733 35.8947 8.57H34.3687C34.098 7.982 33.706 7.52933 33.1927 7.212C32.6887 6.89467 32.082 6.736 31.3727 6.736C30.6913 6.736 30.08 6.89467 29.5387 7.212C28.9973 7.52933 28.5727 7.982 28.2647 8.57C27.9567 9.14867 27.8027 9.83 27.8027 10.614C27.8027 11.3887 27.9567 12.07 28.2647 12.658C28.5727 13.2367 28.9973 13.6847 29.5387 14.002C30.08 14.3193 30.6913 14.478 31.3727 14.478C32.082 14.478 32.6887 14.324 33.1927 14.016C33.706 13.6987 34.098 13.246 34.3687 12.658H35.8947C35.5307 13.5913 34.952 14.3147 34.1587 14.828C33.3653 15.332 32.4367 15.584 31.3727 15.584C30.4673 15.584 29.6413 15.374 28.8947 14.954C28.1573 14.5247 27.574 13.932 27.1447 13.176C26.7153 12.42 26.5007 11.566 26.5007 10.614ZM40.9971 15.626C40.2785 15.626 39.6251 15.4627 39.0371 15.136C38.4585 14.8093 38.0011 14.3473 37.6651 13.75C37.3385 13.1433 37.1751 12.4433 37.1751 11.65C37.1751 10.866 37.3431 10.1753 37.6791 9.578C38.0245 8.97133 38.4911 8.50933 39.0791 8.192C39.6671 7.86533 40.3251 7.702 41.0531 7.702C41.7811 7.702 42.4391 7.86533 43.0271 8.192C43.6151 8.50933 44.0771 8.96667 44.4131 9.564C44.7585 10.1613 44.9311 10.8567 44.9311 11.65C44.9311 12.4433 44.7538 13.1433 44.3991 13.75C44.0538 14.3473 43.5825 14.8093 42.9851 15.136C42.3878 15.4627 41.7251 15.626 40.9971 15.626ZM40.9971 14.506C41.4545 14.506 41.8838 14.3987 42.2851 14.184C42.6865 13.9693 43.0085 13.6473 43.2511 13.218C43.5031 12.7887 43.6291 12.266 43.6291 11.65C43.6291 11.034 43.5078 10.5113 43.2651 10.082C43.0225 9.65267 42.7051 9.33533 42.3131 9.13C41.9211 8.91533 41.4965 8.808 41.0391 8.808C40.5725 8.808 40.1431 8.91533 39.7511 9.13C39.3685 9.33533 39.0605 9.65267 38.8271 10.082C38.5938 10.5113 38.4771 11.034 38.4771 11.65C38.4771 12.2753 38.5891 12.8027 38.8131 13.232C39.0465 13.6613 39.3545 13.9833 39.7371 14.198C40.1198 14.4033 40.5398 14.506 40.9971 14.506ZM55.6922 7.688C56.2895 7.688 56.8215 7.814 57.2882 8.066C57.7549 8.30867 58.1235 8.67733 58.3942 9.172C58.6649 9.66667 58.8002 10.2687 58.8002 10.978V15.5H57.5402V11.16C57.5402 10.3947 57.3489 9.81133 56.9662 9.41C56.5929 8.99933 56.0842 8.794 55.4402 8.794C54.7775 8.794 54.2502 9.00867 53.8582 9.438C53.4662 9.858 53.2702 10.4693 53.2702 11.272V15.5H52.0102V11.16C52.0102 10.3947 51.8189 9.81133 51.4362 9.41C51.0629 8.99933 50.5542 8.794 49.9102 8.794C49.2475 8.794 48.7202 9.00867 48.3282 9.438C47.9362 9.858 47.7402 10.4693 47.7402 11.272V15.5H46.4662V7.828H47.7402V8.934C47.9922 8.53267 48.3282 8.22467 48.7482 8.01C49.1775 7.79533 49.6489 7.688 50.1622 7.688C50.8062 7.688 51.3755 7.83267 51.8702 8.122C52.3649 8.41133 52.7335 8.836 52.9762 9.396C53.1909 8.85467 53.5455 8.43467 54.0402 8.136C54.5349 7.83733 55.0855 7.688 55.6922 7.688ZM62.024 9.242C62.276 8.80333 62.6494 8.43933 63.144 8.15C63.648 7.85133 64.2314 7.702 64.894 7.702C65.5754 7.702 66.1914 7.86533 66.742 8.192C67.302 8.51867 67.7407 8.98067 68.058 9.578C68.3754 10.166 68.534 10.852 68.534 11.636C68.534 12.4107 68.3754 13.1013 68.058 13.708C67.7407 14.3147 67.302 14.786 66.742 15.122C66.1914 15.458 65.5754 15.626 64.894 15.626C64.2407 15.626 63.662 15.4813 63.158 15.192C62.6634 14.8933 62.2854 14.5247 62.024 14.086V19.14H60.75V7.828H62.024V9.242ZM67.232 11.636C67.232 11.0573 67.1154 10.5533 66.882 10.124C66.6487 9.69467 66.3314 9.368 65.93 9.144C65.538 8.92 65.104 8.808 64.628 8.808C64.1614 8.808 63.7274 8.92467 63.326 9.158C62.934 9.382 62.6167 9.71333 62.374 10.152C62.1407 10.5813 62.024 11.0807 62.024 11.65C62.024 12.2287 62.1407 12.7373 62.374 13.176C62.6167 13.6053 62.934 13.9367 63.326 14.17C63.7274 14.394 64.1614 14.506 64.628 14.506C65.104 14.506 65.538 14.394 65.93 14.17C66.3314 13.9367 66.6487 13.6053 66.882 13.176C67.1154 12.7373 67.232 12.224 67.232 11.636ZM71.345 5.14V15.5H70.071V5.14H71.345ZM80.3763 11.37C80.3763 11.6127 80.3623 11.8693 80.3343 12.14H74.2023C74.249 12.896 74.5056 13.4887 74.9723 13.918C75.4483 14.338 76.0223 14.548 76.6943 14.548C77.245 14.548 77.7023 14.422 78.0663 14.17C78.4396 13.9087 78.701 13.5633 78.8503 13.134H80.2223C80.017 13.8713 79.6063 14.4733 78.9903 14.94C78.3743 15.3973 77.609 15.626 76.6943 15.626C75.9663 15.626 75.313 15.4627 74.7343 15.136C74.165 14.8093 73.717 14.3473 73.3903 13.75C73.0636 13.1433 72.9003 12.4433 72.9003 11.65C72.9003 10.8567 73.059 10.1613 73.3763 9.564C73.6936 8.96667 74.137 8.50933 74.7063 8.192C75.285 7.86533 75.9476 7.702 76.6943 7.702C77.4223 7.702 78.0663 7.86067 78.6263 8.178C79.1863 8.49533 79.6156 8.934 79.9143 9.494C80.2223 10.0447 80.3763 10.67 80.3763 11.37ZM79.0603 11.104C79.0603 10.6187 78.953 10.2033 78.7383 9.858C78.5236 9.50333 78.2296 9.23733 77.8563 9.06C77.4923 8.87333 77.0863 8.78 76.6383 8.78C75.9943 8.78 75.4436 8.98533 74.9863 9.396C74.5383 9.80667 74.2816 10.376 74.2163 11.104H79.0603ZM83.4719 8.878V13.4C83.4719 13.7733 83.5513 14.0393 83.7099 14.198C83.8686 14.3473 84.1439 14.422 84.5359 14.422H85.4739V15.5H84.3259C83.6166 15.5 83.0846 15.3367 82.7299 15.01C82.3753 14.6833 82.1979 14.1467 82.1979 13.4V8.878H81.2039V7.828H82.1979V5.896H83.4719V7.828H85.4739V8.878H83.4719ZM93.8775 11.37C93.8775 11.6127 93.8635 11.8693 93.8355 12.14H87.7035C87.7502 12.896 88.0069 13.4887 88.4735 13.918C88.9495 14.338 89.5235 14.548 90.1955 14.548C90.7462 14.548 91.2035 14.422 91.5675 14.17C91.9409 13.9087 92.2022 13.5633 92.3515 13.134H93.7235C93.5182 13.8713 93.1075 14.4733 92.4915 14.94C91.8755 15.3973 91.1102 15.626 90.1955 15.626C89.4675 15.626 88.8142 15.4627 88.2355 15.136C87.6662 14.8093 87.2182 14.3473 86.8915 13.75C86.5649 13.1433 86.4015 12.4433 86.4015 11.65C86.4015 10.8567 86.5602 10.1613 86.8775 9.564C87.1949 8.96667 87.6382 8.50933 88.2075 8.192C88.7862 7.86533 89.4489 7.702 90.1955 7.702C90.9235 7.702 91.5675 7.86067 92.1275 8.178C92.6875 8.49533 93.1169 8.934 93.4155 9.494C93.7235 10.0447 93.8775 10.67 93.8775 11.37ZM92.5615 11.104C92.5615 10.6187 92.4542 10.2033 92.2395 9.858C92.0249 9.50333 91.7309 9.23733 91.3575 9.06C90.9935 8.87333 90.5875 8.78 90.1395 8.78C89.4955 8.78 88.9449 8.98533 88.4875 9.396C88.0395 9.80667 87.7829 10.376 87.7175 11.104H92.5615ZM94.9432 11.636C94.9432 10.852 95.1018 10.166 95.4192 9.578C95.7365 8.98067 96.1705 8.51867 96.7212 8.192C97.2812 7.86533 97.9065 7.702 98.5972 7.702C99.1945 7.702 99.7498 7.842 100.263 8.122C100.777 8.39267 101.169 8.752 101.439 9.2V5.14H102.727V15.5H101.439V14.058C101.187 14.5153 100.814 14.8933 100.319 15.192C99.8245 15.4813 99.2458 15.626 98.5832 15.626C97.9018 15.626 97.2812 15.458 96.7212 15.122C96.1705 14.786 95.7365 14.3147 95.4192 13.708C95.1018 13.1013 94.9432 12.4107 94.9432 11.636ZM101.439 11.65C101.439 11.0713 101.323 10.5673 101.089 10.138C100.856 9.70867 100.539 9.382 100.137 9.158C99.7452 8.92467 99.3112 8.808 98.8352 8.808C98.3592 8.808 97.9252 8.92 97.5332 9.144C97.1412 9.368 96.8285 9.69467 96.5952 10.124C96.3618 10.5533 96.2452 11.0573 96.2452 11.636C96.2452 12.224 96.3618 12.7373 96.5952 13.176C96.8285 13.6053 97.1412 13.9367 97.5332 14.17C97.9252 14.394 98.3592 14.506 98.8352 14.506C99.3112 14.506 99.7452 14.394 100.137 14.17C100.539 13.9367 100.856 13.6053 101.089 13.176C101.323 12.7373 101.439 12.2287 101.439 11.65Z" fill="#018191"/>
<circle cx="14.8987" cy="11.5" r="6" stroke="#018191"/>
<path d="M12.232 11.5L14.232 13.5L17.5653 9.5" stroke="#018191"/>
</svg>
