<svg width="261" height="193" viewBox="0 0 261 193" fill="none" xmlns="http://www.w3.org/2000/svg">
<circle cx="96.5" cy="96.5" r="96.5" fill="#931602" fill-opacity="0.1"/>
<path d="M65.2999 90.6701C72.769 90.6701 78.8239 84.6152 78.8239 77.1461C78.8239 69.677 72.769 63.6221 65.2999 63.6221C57.8308 63.6221 51.7759 69.677 51.7759 77.1461C51.7759 84.6152 57.8308 90.6701 65.2999 90.6701Z" stroke="#931602" stroke-width="2.11842" stroke-miterlimit="10" stroke-linecap="round" stroke-linejoin="round"/>
<path d="M94.28 127.378C95.246 124.48 95.89 120.938 95.89 117.718C95.89 100.974 82.366 97.4316 65.3 97.4316C48.556 97.4316 34.71 100.974 34.71 117.718C34.71 120.938 35.354 124.48 36.32 127.378H94.28Z" stroke="#931602" stroke-width="2.11842" stroke-miterlimit="10" stroke-linecap="round" stroke-linejoin="round"/>
<path d="M162.866 143.156H32.4559C26.9819 143.156 22.7959 138.97 22.7959 133.496V57.5037C22.7959 52.0297 26.9819 47.8438 32.4559 47.8438H162.866C168.34 47.8438 172.526 52.0297 172.526 57.5037V133.496C172.526 138.97 168.018 143.156 162.866 143.156Z" stroke="#931602" stroke-width="2.11842" stroke-miterlimit="10" stroke-linecap="round" stroke-linejoin="round"/>
<path d="M111.346 65.2314H157.07" stroke="#931602" stroke-width="2.11842" stroke-miterlimit="10" stroke-linecap="round" stroke-linejoin="round"/>
<path d="M111.346 80.3662H145.156" stroke="#931602" stroke-width="2.11842" stroke-miterlimit="10" stroke-linecap="round" stroke-linejoin="round"/>
<path d="M147.088 95.5H157.07" stroke="#931602" stroke-width="2.11842" stroke-miterlimit="10" stroke-linecap="round" stroke-linejoin="round"/>
<path d="M111.346 95.5H136.784" stroke="#931602" stroke-width="2.11842" stroke-miterlimit="10" stroke-linecap="round" stroke-linejoin="round"/>
<path d="M126.802 110.634H157.07" stroke="#931602" stroke-width="2.11842" stroke-miterlimit="10" stroke-linecap="round" stroke-linejoin="round"/>
<path d="M111.346 110.634H116.176" stroke="#931602" stroke-width="2.11842" stroke-miterlimit="10" stroke-linecap="round" stroke-linejoin="round"/>
<path d="M111.346 125.769H141.936" stroke="#931602" stroke-width="2.11842" stroke-miterlimit="10" stroke-linecap="round" stroke-linejoin="round"/>
<circle cx="220" cy="52" r="41" fill="#931602" fill-opacity="0.1"/>
<path d="M224.384 24.0423C223.541 22.3677 221.866 21.333 220 21.333C218.133 21.333 216.458 22.3677 215.626 24.0423L193.845 67.5837C193.077 69.109 193.162 70.8903 194.058 72.3517C194.965 73.8023 196.522 74.6663 198.229 74.6663H241.77C243.477 74.6663 245.034 73.8023 245.93 72.341C246.826 70.8903 246.912 69.109 246.144 67.573L224.384 24.0423ZM244.117 71.221C243.605 72.0423 242.73 72.533 241.77 72.533H198.229C197.269 72.533 196.384 72.0423 195.882 71.221C195.37 70.3997 195.328 69.397 195.754 68.533L217.525 24.9917C218.005 24.0423 218.933 23.4663 220 23.4663C221.066 23.4663 221.994 24.0423 222.474 24.9917L244.245 68.533C244.672 69.397 244.629 70.3997 244.117 71.221Z" fill="#931602"/>
<path d="M223.669 34.5059H216.331C216.043 34.5059 215.755 34.6232 215.552 34.8365C215.349 35.0499 215.243 35.3379 215.264 35.6259L216.469 58.4845C216.501 59.0499 216.971 59.4979 217.536 59.4979H222.453C223.019 59.4979 223.488 59.0499 223.52 58.4845L224.725 35.6259C224.736 35.3379 224.64 35.0499 224.437 34.8365C224.235 34.6232 223.968 34.5059 223.669 34.5059ZM221.451 57.3752H218.549L217.451 36.6499H222.539L221.451 57.3752Z" fill="#931602"/>
<path d="M222.464 62.5381H217.547C216.96 62.5381 216.48 63.0181 216.48 63.6048V68.5328C216.48 69.1194 216.96 69.5994 217.547 69.5994H222.464C223.051 69.5994 223.531 69.1194 223.531 68.5328V63.6048C223.531 63.0181 223.051 62.5381 222.464 62.5381ZM221.397 67.4661H218.613V64.6714H221.397V67.4661Z" fill="#931602"/>
</svg>
