<svg width="134" height="23" viewBox="0 0 134 23" fill="none" xmlns="http://www.w3.org/2000/svg">
<rect x="0.75" y="0.75" width="131.591" height="21.5" rx="10.75" fill="#FCFCFC"/>
<rect x="0.75" y="0.75" width="131.591" height="21.5" rx="10.75" stroke="#0168A2" stroke-width="1.5"/>
<path d="M8.34821 10.7671V6.62971L14.5455 3.87538L20.7427 6.62971V10.7671C20.7427 14.6274 18.0874 18.2253 14.5455 19.1354C11.0035 18.2253 8.34821 14.6274 8.34821 10.7671Z" fill="#0168A2" fill-opacity="0.15" stroke="#0168A2" stroke-width="0.696429"/>
<path d="M14.4634 6.15903C14.9916 6.1528 15.4162 6.25124 15.9229 6.39823C15.5823 6.81427 15.2008 7.20198 14.8417 7.59944L12.7353 9.92515C12.3459 10.3549 11.9466 10.7781 11.5702 11.2215C11.9763 11.5307 12.3368 11.7001 12.834 11.5089C12.9817 11.4521 13.1234 11.3301 13.2414 11.2181C13.5697 10.9066 13.8693 10.5317 14.1759 10.1931L15.9809 8.20078C16.2072 7.94945 16.5133 7.54729 16.7709 7.36137C16.8456 7.30749 16.9279 7.27938 17.0173 7.27797C17.1942 7.27523 17.3343 7.3847 17.4541 7.51808C18.1753 8.3209 18.5454 9.45259 18.5458 10.5699C18.5461 11.6742 18.2024 12.6713 17.5463 13.5049C17.2511 13.8799 16.9105 14.2231 16.5919 14.5746L14.956 16.3813C14.8192 16.5316 14.6806 16.6804 14.5499 16.8373C14.4612 16.6994 14.3532 16.5766 14.2654 16.4373C14.027 16.0593 13.8961 15.5774 13.8826 15.1194C13.8682 14.6321 13.9698 14.1587 14.1934 13.7374C14.4693 13.2175 14.9365 12.7987 15.3198 12.3744L16.688 10.8625C16.9699 10.5518 17.2585 10.2456 17.5308 9.92483C17.1597 9.61758 16.7662 9.43799 16.3013 9.61957C16.1614 9.67427 16.0263 9.77322 15.9128 9.87733C15.5737 10.1884 15.258 10.5847 14.9441 10.9314L13.0874 12.9803C12.8768 13.2121 12.6603 13.5141 12.4151 13.6994C12.3227 13.7692 12.2216 13.8131 12.1091 13.8192C11.9344 13.8286 11.7817 13.7449 11.6561 13.6167C10.989 12.9359 10.5857 11.7517 10.556 10.7642C10.5199 9.56378 10.8854 8.42049 11.6356 7.54123C12.3839 6.66419 13.3771 6.19361 14.4634 6.15903Z" fill="url(#paint0_linear_2683_12848)"/>
<path d="M30.3814 16.6541C29.629 16.6541 28.981 16.4934 28.4375 16.1719C27.8972 15.8471 27.4796 15.3913 27.1846 14.8047C26.893 14.2147 26.7471 13.5237 26.7471 12.7315C26.7471 11.9493 26.893 11.2599 27.1846 10.6634C27.4796 10.0668 27.8906 9.60109 28.4176 9.26633C28.9479 8.93158 29.5677 8.7642 30.277 8.7642C30.7078 8.7642 31.1254 8.83546 31.5298 8.97798C31.9342 9.1205 32.2971 9.34422 32.6186 9.64915C32.9401 9.95407 33.1936 10.3501 33.3792 10.8374C33.5648 11.3213 33.6576 11.9096 33.6576 12.6023V13.1293H27.5873V12.0156H32.201C32.201 11.6245 32.1214 11.2782 31.9623 10.9766C31.8032 10.6716 31.5795 10.4313 31.2912 10.2557C31.0061 10.08 30.6714 9.99219 30.2869 9.99219C29.8693 9.99219 29.5047 10.0949 29.1932 10.3004C28.8849 10.5026 28.6463 10.7678 28.4772 11.0959C28.3115 11.4207 28.2287 11.7737 28.2287 12.1548V13.0249C28.2287 13.5353 28.3182 13.9695 28.4971 14.3274C28.6794 14.6854 28.933 14.9588 29.2578 15.1477C29.5826 15.3333 29.9621 15.4261 30.3963 15.4261C30.678 15.4261 30.9349 15.3864 31.1669 15.3068C31.3989 15.224 31.5994 15.1013 31.7684 14.9389C31.9375 14.7765 32.0667 14.576 32.1562 14.3374L33.5632 14.5909C33.4505 15.0052 33.2483 15.3681 32.9566 15.6797C32.6683 15.9879 32.3054 16.2282 31.8679 16.4006C31.4337 16.5696 30.9382 16.6541 30.3814 16.6541ZM39.8063 11.5533V12.8409H35.2921V11.5533H39.8063ZM41.9068 16.5V6.31818H43.443V11.1804H43.5673L47.8379 6.31818H49.7718L45.6653 10.902L49.7867 16.5H47.9373L44.6461 11.951L43.443 13.3331V16.5H41.9068ZM50.4181 6.31818H52.1631L54.8229 10.9467H54.9323L57.5921 6.31818H59.3372L55.6433 12.5028V16.5H54.112V12.5028L50.4181 6.31818ZM68.7248 9.62926H67.1736C67.114 9.29782 67.0029 9.00615 66.8405 8.75426C66.6781 8.50237 66.4793 8.28859 66.2439 8.11293C66.0086 7.93726 65.7451 7.80469 65.4535 7.7152C65.1651 7.62571 64.8585 7.58097 64.5337 7.58097C63.9471 7.58097 63.4217 7.72846 62.9577 8.02344C62.497 8.31842 62.1324 8.75095 61.864 9.32102C61.5988 9.8911 61.4662 10.5871 61.4662 11.4091C61.4662 12.2377 61.5988 12.937 61.864 13.5071C62.1324 14.0772 62.4987 14.508 62.9627 14.7997C63.4267 15.0914 63.9487 15.2372 64.5287 15.2372C64.8502 15.2372 65.1552 15.1941 65.4435 15.108C65.7352 15.0185 65.9987 14.8875 66.234 14.7152C66.4693 14.5429 66.6682 14.3324 66.8306 14.0838C66.9963 13.8319 67.1106 13.5436 67.1736 13.2188L68.7248 13.2237C68.6419 13.7242 68.4812 14.1849 68.2425 14.6058C68.0072 15.0234 67.7039 15.3847 67.3327 15.6896C66.9648 15.9912 66.5439 16.2249 66.0699 16.3906C65.596 16.5563 65.0789 16.6392 64.5188 16.6392C63.6372 16.6392 62.8517 16.4304 62.1623 16.0128C61.4729 15.5919 60.9293 14.9903 60.5316 14.2081C60.1372 13.4259 59.94 12.4929 59.94 11.4091C59.94 10.322 60.1388 9.38897 60.5365 8.61008C60.9343 7.82789 61.4778 7.22798 62.1672 6.81037C62.8566 6.38944 63.6405 6.17898 64.5188 6.17898C65.059 6.17898 65.5628 6.25687 66.0302 6.41264C66.5008 6.5651 66.9234 6.79048 67.2979 7.08878C67.6724 7.38376 67.9823 7.74503 68.2276 8.17258C68.4729 8.59683 68.6386 9.08239 68.7248 9.62926ZM75.158 6.31818L77.9918 14.6108H78.1062L80.94 6.31818H82.6005L78.9364 16.5H77.1615L73.4975 6.31818H75.158ZM86.4771 16.6541C85.7247 16.6541 85.0767 16.4934 84.5332 16.1719C83.9929 15.8471 83.5753 15.3913 83.2803 14.8047C82.9887 14.2147 82.8428 13.5237 82.8428 12.7315C82.8428 11.9493 82.9887 11.2599 83.2803 10.6634C83.5753 10.0668 83.9863 9.60109 84.5133 9.26633C85.0436 8.93158 85.6634 8.7642 86.3727 8.7642C86.8035 8.7642 87.2211 8.83546 87.6255 8.97798C88.0299 9.1205 88.3928 9.34422 88.7143 9.64915C89.0358 9.95407 89.2893 10.3501 89.4749 10.8374C89.6605 11.3213 89.7533 11.9096 89.7533 12.6023V13.1293H83.683V12.0156H88.2967C88.2967 11.6245 88.2171 11.2782 88.058 10.9766C87.8989 10.6716 87.6752 10.4313 87.3869 10.2557C87.1018 10.08 86.7671 9.99219 86.3826 9.99219C85.965 9.99219 85.6004 10.0949 85.2889 10.3004C84.9806 10.5026 84.742 10.7678 84.5729 11.0959C84.4072 11.4207 84.3244 11.7737 84.3244 12.1548V13.0249C84.3244 13.5353 84.4139 13.9695 84.5928 14.3274C84.7751 14.6854 85.0287 14.9588 85.3535 15.1477C85.6783 15.3333 86.0578 15.4261 86.492 15.4261C86.7737 15.4261 87.0306 15.3864 87.2626 15.3068C87.4946 15.224 87.6951 15.1013 87.8641 14.9389C88.0332 14.7765 88.1624 14.576 88.2519 14.3374L89.6589 14.5909C89.5462 15.0052 89.344 15.3681 89.0524 15.6797C88.764 15.9879 88.4011 16.2282 87.9636 16.4006C87.5294 16.5696 87.0339 16.6541 86.4771 16.6541ZM91.4027 16.5V8.86364H92.8395V10.0767H92.919C93.0582 9.66572 93.3035 9.34257 93.6548 9.10724C94.0094 8.86861 94.4105 8.74929 94.8579 8.74929C94.9507 8.74929 95.0601 8.7526 95.1861 8.75923C95.3153 8.76586 95.4164 8.77415 95.4893 8.78409V10.206C95.4297 10.1894 95.3236 10.1712 95.1711 10.1513C95.0187 10.1281 94.8662 10.1165 94.7138 10.1165C94.3624 10.1165 94.0492 10.1911 93.7741 10.3402C93.5023 10.486 93.2869 10.6899 93.1278 10.9517C92.9687 11.2102 92.8892 11.5052 92.8892 11.8366V16.5H91.4027ZM96.7757 16.5V8.86364H98.2622V16.5H96.7757ZM97.5264 7.68537C97.2679 7.68537 97.0458 7.59919 96.8602 7.42685C96.6779 7.25118 96.5868 7.04238 96.5868 6.80043C96.5868 6.55516 96.6779 6.34635 96.8602 6.17401C97.0458 5.99834 97.2679 5.91051 97.5264 5.91051C97.785 5.91051 98.0054 5.99834 98.1876 6.17401C98.3733 6.34635 98.4661 6.55516 98.4661 6.80043C98.4661 7.04238 98.3733 7.25118 98.1876 7.42685C98.0054 7.59919 97.785 7.68537 97.5264 7.68537ZM103.896 8.86364V10.0568H99.5809V8.86364H103.896ZM100.764 16.5V7.97869C100.764 7.50142 100.869 7.10535 101.077 6.79048C101.286 6.4723 101.563 6.23532 101.908 6.07955C102.252 5.92045 102.627 5.84091 103.031 5.84091C103.33 5.84091 103.585 5.86577 103.797 5.91548C104.009 5.96188 104.166 6.00497 104.269 6.04474L103.921 7.24787C103.852 7.22798 103.762 7.20478 103.653 7.17827C103.543 7.14844 103.411 7.13352 103.255 7.13352C102.894 7.13352 102.635 7.22301 102.479 7.40199C102.327 7.58097 102.251 7.83949 102.251 8.17756V16.5H100.764ZM105.43 16.5V8.86364H106.917V16.5H105.43ZM106.181 7.68537C105.922 7.68537 105.7 7.59919 105.515 7.42685C105.332 7.25118 105.241 7.04238 105.241 6.80043C105.241 6.55516 105.332 6.34635 105.515 6.17401C105.7 5.99834 105.922 5.91051 106.181 5.91051C106.439 5.91051 106.66 5.99834 106.842 6.17401C107.028 6.34635 107.12 6.55516 107.12 6.80043C107.12 7.04238 107.028 7.25118 106.842 7.42685C106.66 7.59919 106.439 7.68537 106.181 7.68537ZM112.208 16.6541C111.455 16.6541 110.807 16.4934 110.264 16.1719C109.723 15.8471 109.306 15.3913 109.011 14.8047C108.719 14.2147 108.573 13.5237 108.573 12.7315C108.573 11.9493 108.719 11.2599 109.011 10.6634C109.306 10.0668 109.717 9.60109 110.244 9.26633C110.774 8.93158 111.394 8.7642 112.103 8.7642C112.534 8.7642 112.952 8.83546 113.356 8.97798C113.76 9.1205 114.123 9.34422 114.445 9.64915C114.766 9.95407 115.02 10.3501 115.205 10.8374C115.391 11.3213 115.484 11.9096 115.484 12.6023V13.1293H109.414V12.0156H114.027C114.027 11.6245 113.948 11.2782 113.789 10.9766C113.629 10.6716 113.406 10.4313 113.117 10.2557C112.832 10.08 112.498 9.99219 112.113 9.99219C111.695 9.99219 111.331 10.0949 111.019 10.3004C110.711 10.5026 110.472 10.7678 110.303 11.0959C110.138 11.4207 110.055 11.7737 110.055 12.1548V13.0249C110.055 13.5353 110.144 13.9695 110.323 14.3274C110.506 14.6854 110.759 14.9588 111.084 15.1477C111.409 15.3333 111.788 15.4261 112.222 15.4261C112.504 15.4261 112.761 15.3864 112.993 15.3068C113.225 15.224 113.426 15.1013 113.595 14.9389C113.764 14.7765 113.893 14.576 113.982 14.3374L115.389 14.5909C115.277 15.0052 115.074 15.3681 114.783 15.6797C114.494 15.9879 114.132 16.2282 113.694 16.4006C113.26 16.5696 112.764 16.6541 112.208 16.6541ZM119.992 16.6491C119.375 16.6491 118.825 16.4917 118.341 16.1768C117.861 15.8587 117.483 15.4062 117.208 14.8196C116.936 14.2296 116.8 13.522 116.8 12.6967C116.8 11.8714 116.938 11.1655 117.213 10.5788C117.491 9.99219 117.872 9.54309 118.356 9.23153C118.84 8.91998 119.389 8.7642 120.002 8.7642C120.476 8.7642 120.857 8.84375 121.145 9.00284C121.437 9.15862 121.662 9.34091 121.821 9.54972C121.984 9.75852 122.11 9.94247 122.199 10.1016H122.289V6.31818H123.775V16.5H122.323V15.3118H122.199C122.11 15.4742 121.98 15.6598 121.811 15.8686C121.646 16.0774 121.417 16.2597 121.125 16.4155C120.834 16.5713 120.456 16.6491 119.992 16.6491ZM120.32 15.3814C120.747 15.3814 121.109 15.2687 121.404 15.0433C121.702 14.8146 121.927 14.4981 122.08 14.0938C122.236 13.6894 122.314 13.2187 122.314 12.6818C122.314 12.1515 122.237 11.6875 122.085 11.2898C121.932 10.892 121.709 10.5821 121.414 10.3601C121.119 10.138 120.754 10.027 120.32 10.027C119.872 10.027 119.5 10.143 119.201 10.375C118.903 10.607 118.678 10.9235 118.525 11.3246C118.376 11.7256 118.301 12.178 118.301 12.6818C118.301 13.1922 118.378 13.6513 118.53 14.0589C118.683 14.4666 118.908 14.7898 119.206 15.0284C119.508 15.2637 119.879 15.3814 120.32 15.3814Z" fill="#0168A2"/>
<defs>
<linearGradient id="paint0_linear_2683_12848" x1="14.5497" y1="6.15875" x2="14.5497" y2="16.8373" gradientUnits="userSpaceOnUse">
<stop offset="0.473512" stop-color="#0179BD"/>
<stop offset="1" stop-color="#003757"/>
</linearGradient>
</defs>
</svg>
