<svg width="102" height="18" viewBox="0 0 102 18" fill="none" xmlns="http://www.w3.org/2000/svg">
<rect x="0.591434" y="0.591434" width="100.817" height="16.8171" rx="8.40857" fill="#FCFCFC"/>
<rect x="0.591434" y="0.591434" width="100.817" height="16.8171" rx="8.40857" stroke="#C88E20" stroke-width="1.18287"/>
<path d="M14.377 5.46609C13.467 5.84333 12.7159 6.52444 12.2517 7.39338C11.7876 8.26231 11.6391 9.2653 11.8315 10.2315C12.024 11.1976 12.5455 12.0671 13.3072 12.6919C14.0688 13.3167 15.0236 13.658 16.0087 13.6577C16.9939 13.6575 17.9484 13.3156 18.7098 12.6904C19.4711 12.0653 19.9922 11.1955 20.1841 10.2292C20.376 9.26295 20.227 8.26004 19.7623 7.39135C19.2977 6.52267 18.5463 5.84196 17.636 5.46521" stroke="#C88E20" stroke-width="1.18287" stroke-linecap="round"/>
<path d="M16.0074 9.39933L13.3408 6.56836" stroke="#C88E20" stroke-width="1.18448" stroke-linecap="round"/>
<path d="M18.1926 4.18031C18.2688 4.14658 18.3974 4.14842 18.5584 4.18556C18.7195 4.2227 18.9039 4.29305 19.0832 4.38571C19.2624 4.47837 19.4265 4.58816 19.5499 4.69805C19.6733 4.80794 19.7492 4.91178 19.7657 4.99348" stroke="#C88E20" stroke-width="0.789234" stroke-linecap="round"/>
<path d="M12.0148 5.23908C12.0191 5.15583 12.0787 5.04189 12.1845 4.91493C12.2903 4.78798 12.4362 4.6551 12.5998 4.53691C12.7634 4.41872 12.9353 4.32182 13.0891 4.26124C13.2428 4.20066 13.3697 4.17978 13.4501 4.20185" stroke="#C88E20" stroke-width="0.789582" stroke-linecap="round"/>
<path d="M27.4346 12.0977C27.0439 12.0977 26.6908 12.0342 26.375 11.9072C26.0625 11.777 25.7956 11.5964 25.5742 11.3652C25.3561 11.1341 25.1885 10.8623 25.0713 10.5498C24.9541 10.2373 24.8955 9.90039 24.8955 9.53906V9.34375C24.8955 8.93034 24.9557 8.55599 25.0762 8.2207C25.1966 7.88542 25.3643 7.59896 25.5791 7.36133C25.7939 7.12044 26.0479 6.93652 26.3408 6.80957C26.6338 6.68262 26.9512 6.61914 27.293 6.61914C27.6706 6.61914 28.001 6.68262 28.2842 6.80957C28.5674 6.93652 28.8018 7.11556 28.9873 7.34668C29.1761 7.57454 29.3161 7.84635 29.4072 8.16211C29.5016 8.47786 29.5488 8.82617 29.5488 9.20703V9.70996H25.4668V8.86523H28.3867V8.77246C28.3802 8.56087 28.3379 8.3623 28.2598 8.17676C28.1849 7.99121 28.0693 7.84147 27.9131 7.72754C27.7568 7.61361 27.5485 7.55664 27.2881 7.55664C27.0928 7.55664 26.9186 7.59896 26.7656 7.68359C26.6159 7.76497 26.4906 7.88379 26.3896 8.04004C26.2887 8.19629 26.2106 8.38509 26.1553 8.60645C26.1032 8.82454 26.0771 9.07031 26.0771 9.34375V9.53906C26.0771 9.77018 26.1081 9.98503 26.1699 10.1836C26.235 10.3789 26.3294 10.5498 26.4531 10.6963C26.5768 10.8428 26.7266 10.9583 26.9023 11.043C27.0781 11.1243 27.2783 11.165 27.5029 11.165C27.7861 11.165 28.0384 11.1081 28.2598 10.9941C28.4811 10.8802 28.6732 10.7191 28.8359 10.5107L29.4561 11.1113C29.3421 11.2773 29.194 11.4368 29.0117 11.5898C28.8294 11.7396 28.6064 11.8617 28.3428 11.9561C28.0824 12.0505 27.7796 12.0977 27.4346 12.0977ZM32.835 8.49414V9.43164H30.252V8.49414H32.835ZM35.208 4.89062V12H33.9824V4.89062H35.208ZM39.4805 4.89062L36.5996 8.31348L34.959 10.0518L34.7441 8.83594L35.916 7.39062L37.9863 4.89062H39.4805ZM38.1621 12L35.8232 8.63086L36.668 7.7959L39.6172 12H38.1621ZM40.9795 4.89062L42.6299 8.28418L44.2803 4.89062H45.6377L43.2451 9.38281V12H42.0098V9.38281L39.6172 4.89062H40.9795ZM50.4668 9.68555H51.6875C51.6484 10.151 51.5182 10.5661 51.2969 10.9307C51.0755 11.292 50.7646 11.5768 50.3643 11.7852C49.9639 11.9935 49.4772 12.0977 48.9043 12.0977C48.4648 12.0977 48.0693 12.0195 47.7178 11.8633C47.3662 11.7038 47.0651 11.4792 46.8145 11.1895C46.5638 10.8965 46.3717 10.5433 46.2383 10.1299C46.1081 9.71647 46.043 9.25423 46.043 8.74316V8.15234C46.043 7.64128 46.1097 7.17904 46.2432 6.76562C46.3799 6.35221 46.5752 5.99902 46.8291 5.70605C47.083 5.40983 47.3874 5.18359 47.7422 5.02734C48.1003 4.87109 48.5023 4.79297 48.9482 4.79297C49.5146 4.79297 49.9932 4.89714 50.3838 5.10547C50.7744 5.3138 51.0771 5.60189 51.292 5.96973C51.5101 6.33757 51.6436 6.75911 51.6924 7.23438H50.4717C50.4391 6.92839 50.3675 6.66634 50.2568 6.44824C50.1494 6.23014 49.9899 6.06413 49.7783 5.9502C49.5667 5.83301 49.29 5.77441 48.9482 5.77441C48.6683 5.77441 48.4242 5.8265 48.2158 5.93066C48.0075 6.03483 47.8333 6.18783 47.6934 6.38965C47.5534 6.59147 47.4476 6.84049 47.376 7.13672C47.3076 7.42969 47.2734 7.76497 47.2734 8.14258V8.74316C47.2734 9.10124 47.3044 9.42676 47.3662 9.71973C47.4313 10.0094 47.529 10.2585 47.6592 10.4668C47.7926 10.6751 47.9619 10.8363 48.167 10.9502C48.3721 11.0641 48.6178 11.1211 48.9043 11.1211C49.2526 11.1211 49.5342 11.0658 49.749 10.9551C49.9671 10.8444 50.1315 10.6833 50.2422 10.4717C50.3561 10.2568 50.431 9.99479 50.4668 9.68555ZM57.9912 9.34863H56.1406V8.37695H57.9912C58.3135 8.37695 58.5739 8.32487 58.7725 8.2207C58.971 8.11654 59.1159 7.97331 59.207 7.79102C59.3014 7.60547 59.3486 7.39388 59.3486 7.15625C59.3486 6.93164 59.3014 6.72168 59.207 6.52637C59.1159 6.3278 58.971 6.16829 58.7725 6.04785C58.5739 5.92741 58.3135 5.86719 57.9912 5.86719H56.5166V12H55.291V4.89062H57.9912C58.5413 4.89062 59.0085 4.98828 59.3926 5.18359C59.7799 5.37565 60.0745 5.64258 60.2764 5.98438C60.4782 6.32292 60.5791 6.71029 60.5791 7.14648C60.5791 7.60547 60.4782 7.99935 60.2764 8.32812C60.0745 8.6569 59.7799 8.90918 59.3926 9.08496C59.0085 9.26074 58.5413 9.34863 57.9912 9.34863ZM63.8213 12.0977C63.4307 12.0977 63.0775 12.0342 62.7617 11.9072C62.4492 11.777 62.1823 11.5964 61.9609 11.3652C61.7428 11.1341 61.5752 10.8623 61.458 10.5498C61.3408 10.2373 61.2822 9.90039 61.2822 9.53906V9.34375C61.2822 8.93034 61.3424 8.55599 61.4629 8.2207C61.5833 7.88542 61.751 7.59896 61.9658 7.36133C62.1807 7.12044 62.4346 6.93652 62.7275 6.80957C63.0205 6.68262 63.3379 6.61914 63.6797 6.61914C64.0573 6.61914 64.3877 6.68262 64.6709 6.80957C64.9541 6.93652 65.1885 7.11556 65.374 7.34668C65.5628 7.57454 65.7028 7.84635 65.7939 8.16211C65.8883 8.47786 65.9355 8.82617 65.9355 9.20703V9.70996H61.8535V8.86523H64.7734V8.77246C64.7669 8.56087 64.7246 8.3623 64.6465 8.17676C64.5716 7.99121 64.4561 7.84147 64.2998 7.72754C64.1436 7.61361 63.9352 7.55664 63.6748 7.55664C63.4795 7.55664 63.3053 7.59896 63.1523 7.68359C63.0026 7.76497 62.8773 7.88379 62.7764 8.04004C62.6755 8.19629 62.5973 8.38509 62.542 8.60645C62.4899 8.82454 62.4639 9.07031 62.4639 9.34375V9.53906C62.4639 9.77018 62.4948 9.98503 62.5566 10.1836C62.6217 10.3789 62.7161 10.5498 62.8398 10.6963C62.9635 10.8428 63.1133 10.9583 63.2891 11.043C63.4648 11.1243 63.665 11.165 63.8896 11.165C64.1729 11.165 64.4251 11.1081 64.6465 10.9941C64.8678 10.8802 65.0599 10.7191 65.2227 10.5107L65.8428 11.1113C65.7288 11.2773 65.5807 11.4368 65.3984 11.5898C65.2161 11.7396 64.9932 11.8617 64.7295 11.9561C64.4691 12.0505 64.1663 12.0977 63.8213 12.0977ZM68.0205 7.84473V12H66.8438V6.7168H67.9521L68.0205 7.84473ZM67.8105 9.16309L67.4297 9.1582C67.4329 8.78385 67.485 8.44043 67.5859 8.12793C67.6901 7.81543 67.8333 7.54688 68.0156 7.32227C68.2012 7.09766 68.4225 6.92513 68.6797 6.80469C68.9368 6.68099 69.2233 6.61914 69.5391 6.61914C69.793 6.61914 70.0225 6.65495 70.2275 6.72656C70.4359 6.79492 70.6133 6.90723 70.7598 7.06348C70.9095 7.21973 71.0234 7.42318 71.1016 7.67383C71.1797 7.92122 71.2188 8.22559 71.2188 8.58691V12H70.0371V8.58203C70.0371 8.32812 69.9997 8.12793 69.9248 7.98145C69.8532 7.83171 69.7474 7.72591 69.6074 7.66406C69.4707 7.59896 69.2998 7.56641 69.0947 7.56641C68.8929 7.56641 68.7122 7.60872 68.5527 7.69336C68.3932 7.77799 68.2581 7.89355 68.1475 8.04004C68.04 8.18652 67.957 8.35579 67.8984 8.54785C67.8398 8.73991 67.8105 8.94499 67.8105 9.16309ZM75.6426 10.9062V4.5H76.8242V12H75.7549L75.6426 10.9062ZM72.2051 9.41699V9.31445C72.2051 8.91406 72.2523 8.54948 72.3467 8.2207C72.4411 7.88867 72.5778 7.60384 72.7568 7.36621C72.9359 7.12533 73.154 6.94141 73.4111 6.81445C73.6683 6.68424 73.958 6.61914 74.2803 6.61914C74.5993 6.61914 74.8792 6.68099 75.1201 6.80469C75.361 6.92839 75.5661 7.10579 75.7354 7.33691C75.9046 7.56478 76.0397 7.83822 76.1406 8.15723C76.2415 8.47298 76.3132 8.82454 76.3555 9.21191V9.53906C76.3132 9.91667 76.2415 10.2617 76.1406 10.5742C76.0397 10.8867 75.9046 11.1569 75.7354 11.3848C75.5661 11.6126 75.3594 11.7884 75.1152 11.9121C74.8743 12.0358 74.5928 12.0977 74.2705 12.0977C73.9515 12.0977 73.6634 12.0309 73.4062 11.8975C73.1523 11.764 72.9359 11.5768 72.7568 11.3359C72.5778 11.0951 72.4411 10.8118 72.3467 10.4863C72.2523 10.1576 72.2051 9.80111 72.2051 9.41699ZM73.3818 9.31445V9.41699C73.3818 9.65788 73.403 9.88249 73.4453 10.0908C73.4909 10.2992 73.5609 10.4831 73.6553 10.6426C73.7497 10.7988 73.8717 10.9225 74.0215 11.0137C74.1745 11.1016 74.3568 11.1455 74.5684 11.1455C74.8353 11.1455 75.055 11.0869 75.2275 10.9697C75.4001 10.8525 75.5352 10.6947 75.6328 10.4961C75.7337 10.2943 75.8021 10.0697 75.8379 9.82227V8.93848C75.8184 8.74642 75.7777 8.56738 75.7158 8.40137C75.6572 8.23535 75.5775 8.09049 75.4766 7.9668C75.3757 7.83984 75.2503 7.74219 75.1006 7.67383C74.9541 7.60221 74.7799 7.56641 74.5781 7.56641C74.3633 7.56641 74.181 7.61198 74.0312 7.70312C73.8815 7.79427 73.7578 7.9196 73.6602 8.0791C73.5658 8.23861 73.4958 8.42415 73.4502 8.63574C73.4046 8.84733 73.3818 9.07357 73.3818 9.31445ZM79.3145 6.7168V12H78.1328V6.7168H79.3145ZM78.0547 5.33008C78.0547 5.15104 78.1133 5.00293 78.2305 4.88574C78.3509 4.7653 78.5169 4.70508 78.7285 4.70508C78.9368 4.70508 79.1012 4.7653 79.2217 4.88574C79.3421 5.00293 79.4023 5.15104 79.4023 5.33008C79.4023 5.50586 79.3421 5.65234 79.2217 5.76953C79.1012 5.88672 78.9368 5.94531 78.7285 5.94531C78.5169 5.94531 78.3509 5.88672 78.2305 5.76953C78.1133 5.65234 78.0547 5.50586 78.0547 5.33008ZM81.7705 7.84473V12H80.5938V6.7168H81.7021L81.7705 7.84473ZM81.5605 9.16309L81.1797 9.1582C81.1829 8.78385 81.235 8.44043 81.3359 8.12793C81.4401 7.81543 81.5833 7.54688 81.7656 7.32227C81.9512 7.09766 82.1725 6.92513 82.4297 6.80469C82.6868 6.68099 82.9733 6.61914 83.2891 6.61914C83.543 6.61914 83.7725 6.65495 83.9775 6.72656C84.1859 6.79492 84.3633 6.90723 84.5098 7.06348C84.6595 7.21973 84.7734 7.42318 84.8516 7.67383C84.9297 7.92122 84.9688 8.22559 84.9688 8.58691V12H83.7871V8.58203C83.7871 8.32812 83.7497 8.12793 83.6748 7.98145C83.6032 7.83171 83.4974 7.72591 83.3574 7.66406C83.2207 7.59896 83.0498 7.56641 82.8447 7.56641C82.6429 7.56641 82.4622 7.60872 82.3027 7.69336C82.1432 7.77799 82.0081 7.89355 81.8975 8.04004C81.79 8.18652 81.707 8.35579 81.6484 8.54785C81.5898 8.73991 81.5605 8.94499 81.5605 9.16309ZM89.5537 6.7168H90.623V11.8535C90.623 12.3288 90.5221 12.7324 90.3203 13.0645C90.1185 13.3965 89.8369 13.6488 89.4756 13.8213C89.1143 13.9971 88.696 14.085 88.2207 14.085C88.0189 14.085 87.7943 14.0557 87.5469 13.9971C87.3027 13.9385 87.0651 13.8441 86.834 13.7139C86.6061 13.5869 86.4157 13.4193 86.2627 13.2109L86.8145 12.5176C87.0033 12.7422 87.2116 12.9066 87.4395 13.0107C87.6673 13.1149 87.9066 13.167 88.1572 13.167C88.4274 13.167 88.6569 13.1165 88.8457 13.0156C89.0378 12.918 89.1859 12.7731 89.29 12.5811C89.3942 12.389 89.4463 12.1546 89.4463 11.8779V7.91309L89.5537 6.7168ZM85.9648 9.41699V9.31445C85.9648 8.91406 86.0137 8.54948 86.1113 8.2207C86.209 7.88867 86.349 7.60384 86.5312 7.36621C86.7135 7.12533 86.9349 6.94141 87.1953 6.81445C87.4557 6.68424 87.7503 6.61914 88.0791 6.61914C88.4209 6.61914 88.7122 6.68099 88.9531 6.80469C89.1973 6.92839 89.4007 7.10579 89.5635 7.33691C89.7262 7.56478 89.8532 7.83822 89.9443 8.15723C90.0387 8.47298 90.1087 8.82454 90.1543 9.21191V9.53906C90.112 9.91667 90.0404 10.2617 89.9395 10.5742C89.8385 10.8867 89.7051 11.1569 89.5391 11.3848C89.373 11.6126 89.168 11.7884 88.9238 11.9121C88.6829 12.0358 88.3981 12.0977 88.0693 12.0977C87.7471 12.0977 87.4557 12.0309 87.1953 11.8975C86.9382 11.764 86.7168 11.5768 86.5312 11.3359C86.349 11.0951 86.209 10.8118 86.1113 10.4863C86.0137 10.1576 85.9648 9.80111 85.9648 9.41699ZM87.1416 9.31445V9.41699C87.1416 9.65788 87.1644 9.88249 87.21 10.0908C87.2588 10.2992 87.332 10.4831 87.4297 10.6426C87.5306 10.7988 87.6576 10.9225 87.8105 11.0137C87.9668 11.1016 88.1507 11.1455 88.3623 11.1455C88.639 11.1455 88.8652 11.0869 89.041 10.9697C89.2201 10.8525 89.3568 10.6947 89.4512 10.4961C89.5488 10.2943 89.6172 10.0697 89.6562 9.82227V8.93848C89.6367 8.74642 89.596 8.56738 89.5342 8.40137C89.4756 8.23535 89.3958 8.09049 89.2949 7.9668C89.194 7.83984 89.0671 7.74219 88.9141 7.67383C88.7611 7.60221 88.5804 7.56641 88.3721 7.56641C88.1605 7.56641 87.9766 7.61198 87.8203 7.70312C87.6641 7.79427 87.5355 7.9196 87.4346 8.0791C87.3369 8.23861 87.2637 8.42415 87.2148 8.63574C87.166 8.84733 87.1416 9.07357 87.1416 9.31445Z" fill="#C88E20"/>
</svg>
