<svg width="102" height="18" viewBox="0 0 102 18" fill="none" xmlns="http://www.w3.org/2000/svg">
<rect x="0.571285" y="0.571285" width="100.857" height="16.8574" rx="8.42871" fill="#FCFCFC"/>
<rect x="0.571285" y="0.571285" width="100.857" height="16.8574" rx="8.42871" stroke="#931602" stroke-width="1.14257"/>
<path d="M6.08261 8.40528V5.05825L11.096 2.83007L16.1094 5.05825V8.40528C16.1094 11.5284 13.9613 14.4391 11.096 15.1756C8.23071 14.4391 6.08261 11.5284 6.08261 8.40528Z" fill="#E8D9D7" stroke="#931602" stroke-width="0.567554"/>
<path fill-rule="evenodd" clip-rule="evenodd" d="M13.5105 7.59526C13.5142 7.59776 13.5151 7.60255 13.5124 7.60608L12.9613 8.31114C12.9586 8.31468 12.9534 8.3153 12.9498 8.3128C12.946 8.31031 12.9452 8.30552 12.9479 8.30198L13.4989 7.59693C13.5016 7.59339 13.5069 7.59276 13.5105 7.59526Z" fill="#0F0F0F" stroke="#0F0F0F" stroke-width="0.147346" stroke-miterlimit="10" stroke-linecap="square"/>
<path fill-rule="evenodd" clip-rule="evenodd" d="M13.322 7.38042C13.3258 7.38292 13.3266 7.3877 13.3239 7.39124L12.7729 8.0963C12.7701 8.09983 12.7649 8.10046 12.7613 8.09796C12.7575 8.09546 12.7567 8.09068 12.7594 8.08714L13.3104 7.38208C13.3132 7.37855 13.3184 7.37792 13.322 7.38042Z" fill="#0F0F0F" stroke="#0F0F0F" stroke-width="0.147346" stroke-miterlimit="10" stroke-linecap="square"/>
<path fill-rule="evenodd" clip-rule="evenodd" d="M12.6259 5.20443C12.4189 5.07956 12.2021 4.98321 11.9799 4.91558C10.9437 4.59947 9.79186 4.90455 8.97922 5.8302C8.66021 6.19354 8.42527 6.61641 8.27417 7.06758L9.0492 7.95036L10.2676 9.3382C10.6499 9.77356 11.2173 9.87012 11.6815 9.62768L10.0134 7.72769L9.37072 6.99558C9.44974 6.85802 9.54242 6.72754 9.64854 6.60663C9.75467 6.48572 9.8692 6.38042 9.98982 6.29031C10.6619 5.78899 11.5281 5.76464 12.2193 6.21685C12.379 6.32132 12.5293 6.45139 12.6656 6.60663L14.276 8.44086C14.2987 7.61281 14.0675 6.77728 13.5823 6.09907C13.5159 6.00625 13.4447 5.91635 13.3688 5.82999C13.2929 5.74362 13.2139 5.66246 13.1326 5.58692C12.9948 5.46993 12.7419 5.27441 12.6259 5.20443ZM8.07117 8.2467C8.05435 9.0658 8.28573 9.8903 8.76571 10.5608C8.83211 10.6536 8.90903 10.7435 8.98489 10.8299C9.24527 11.1267 9.41128 11.3114 9.62542 11.566L10.0751 12.0783L11.174 13.3298L13.3688 10.8299C13.683 10.472 13.9156 10.0564 14.0669 9.61311L13.2652 8.69995L12.0465 7.3121C11.6643 6.87675 11.0969 6.78019 10.6327 7.02263L12.3008 8.92262L12.9435 9.65452C12.8644 9.79208 12.7718 9.92256 12.6656 10.0435C12.5595 10.1644 12.445 10.2697 12.3244 10.3598C11.497 10.9768 10.3754 10.8713 9.64854 10.0435L8.07117 8.2467Z" fill="#931602" stroke="#0F0F0F" stroke-width="0.199285" stroke-miterlimit="10"/>
<path fill-rule="evenodd" clip-rule="evenodd" d="M12.7178 8.22749L13.4279 7.31641L13.5958 7.40527L12.834 8.37961L12.7178 8.22749Z" fill="#931602"/>
<path d="M23.4703 12.6174C22.8972 12.6174 22.4036 12.495 21.9896 12.2501C21.5781 12.0026 21.26 11.6555 21.0353 11.2087C20.8131 10.7593 20.702 10.2329 20.702 9.62951C20.702 9.0337 20.8131 8.50858 21.0353 8.05415C21.26 7.59971 21.573 7.245 21.9744 6.99002C22.3784 6.73503 22.8505 6.60754 23.3907 6.60754C23.7189 6.60754 24.037 6.66182 24.345 6.77038C24.6531 6.87893 24.9295 7.04935 25.1744 7.28161C25.4193 7.51388 25.6124 7.81557 25.7538 8.18669C25.8952 8.55528 25.9659 9.0034 25.9659 9.53105V9.93246H21.342V9.08419H24.8563C24.8563 8.78629 24.7957 8.52246 24.6745 8.29272C24.5533 8.06046 24.3829 7.87742 24.1633 7.74362C23.9462 7.60981 23.6912 7.54291 23.3983 7.54291C23.0802 7.54291 22.8025 7.62117 22.5652 7.7777C22.3304 7.9317 22.1486 8.13367 22.0199 8.38361C21.8936 8.63102 21.8305 8.89989 21.8305 9.19022V9.85294C21.8305 10.2417 21.8987 10.5725 22.035 10.8451C22.1739 11.1178 22.367 11.3261 22.6144 11.47C22.8618 11.6113 23.1509 11.682 23.4816 11.682C23.6962 11.682 23.8919 11.6517 24.0686 11.5911C24.2453 11.528 24.3981 11.4346 24.5268 11.3109C24.6556 11.1872 24.754 11.0345 24.8222 10.8527L25.8939 11.0458C25.8081 11.3614 25.6541 11.6378 25.4319 11.8752C25.2123 12.1099 24.9358 12.293 24.6026 12.4243C24.2718 12.553 23.8944 12.6174 23.4703 12.6174ZM30.6493 8.73201V9.71282H27.2108V8.73201H30.6493ZM32.2493 12.5V4.74437H33.4195V8.44799H33.5142L36.7671 4.74437H38.2402L35.1122 8.23592L38.2516 12.5H36.8429L34.3359 9.03496L33.4195 10.0877V12.5H32.2493ZM38.7325 4.74437H40.0617L42.0878 8.27H42.1711L44.1971 4.74437H45.5263L42.7126 9.45531V12.5H41.5462V9.45531L38.7325 4.74437ZM52.677 7.26646H51.4954C51.45 7.014 51.3654 6.79184 51.2417 6.59996C51.118 6.40809 50.9665 6.24526 50.7873 6.11145C50.608 5.97765 50.4073 5.87666 50.1852 5.8085C49.9655 5.74033 49.732 5.70625 49.4846 5.70625C49.0377 5.70625 48.6376 5.81859 48.2841 6.04329C47.9332 6.26798 47.6555 6.59744 47.451 7.03167C47.249 7.46591 47.148 7.99608 47.148 8.62218C47.148 9.25334 47.249 9.78603 47.451 10.2203C47.6555 10.6545 47.9345 10.9827 48.2879 11.2049C48.6414 11.427 49.039 11.5381 49.4808 11.5381C49.7257 11.5381 49.9579 11.5053 50.1776 11.4397C50.3997 11.3715 50.6005 11.2718 50.7797 11.1405C50.959 11.0092 51.1104 10.8489 51.2341 10.6596C51.3604 10.4677 51.4475 10.248 51.4954 10.0006L52.677 10.0044C52.6138 10.3856 52.4914 10.7366 52.3096 11.0572C52.1304 11.3753 51.8994 11.6505 51.6166 11.8827C51.3364 12.1125 51.0158 12.2905 50.6547 12.4167C50.2937 12.5429 49.8999 12.606 49.4732 12.606C48.8017 12.606 48.2033 12.447 47.6782 12.1289C47.1531 11.8083 46.7391 11.35 46.4361 10.7542C46.1357 10.1584 45.9855 9.44774 45.9855 8.62218C45.9855 7.79411 46.1369 7.08343 46.4399 6.49014C46.7428 5.89433 47.1569 5.43738 47.682 5.11928C48.2071 4.79865 48.8042 4.63834 49.4732 4.63834C49.8847 4.63834 50.2685 4.69766 50.6244 4.81632C50.9829 4.93245 51.3048 5.10413 51.5901 5.33134C51.8754 5.55603 52.1114 5.83122 52.2983 6.15689C52.4851 6.48005 52.6113 6.8499 52.677 7.26646ZM57.5772 4.74437L59.7358 11.061H59.8229L61.9814 4.74437H63.2463L60.4553 12.5H59.1034L56.3124 4.74437H57.5772ZM66.1991 12.6174C65.626 12.6174 65.1325 12.495 64.7184 12.2501C64.3069 12.0026 63.9888 11.6555 63.7641 11.2087C63.542 10.7593 63.4309 10.2329 63.4309 9.62951C63.4309 9.0337 63.542 8.50858 63.7641 8.05415C63.9888 7.59971 64.3019 7.245 64.7033 6.99002C65.1072 6.73503 65.5793 6.60754 66.1196 6.60754C66.4478 6.60754 66.7659 6.66182 67.0739 6.77038C67.3819 6.87893 67.6584 7.04935 67.9033 7.28161C68.1481 7.51388 68.3413 7.81557 68.4827 8.18669C68.624 8.55528 68.6947 9.0034 68.6947 9.53105V9.93246H64.0709V9.08419H67.5852C67.5852 8.78629 67.5246 8.52246 67.4034 8.29272C67.2822 8.06046 67.1118 7.87742 66.8921 7.74362C66.675 7.60981 66.42 7.54291 66.1272 7.54291C65.8091 7.54291 65.5314 7.62117 65.2941 7.7777C65.0593 7.9317 64.8775 8.13367 64.7487 8.38361C64.6225 8.63102 64.5594 8.89989 64.5594 9.19022V9.85294C64.5594 10.2417 64.6276 10.5725 64.7639 10.8451C64.9027 11.1178 65.0959 11.3261 65.3433 11.47C65.5907 11.6113 65.8798 11.682 66.2105 11.682C66.4251 11.682 66.6207 11.6517 66.7975 11.5911C66.9742 11.528 67.1269 11.4346 67.2557 11.3109C67.3844 11.1872 67.4829 11.0345 67.5511 10.8527L68.6228 11.0458C68.5369 11.3614 68.3829 11.6378 68.1608 11.8752C67.9411 12.1099 67.6647 12.293 67.3314 12.4243C67.0007 12.553 66.6233 12.6174 66.1991 12.6174ZM69.951 12.5V6.68328H71.0455V7.60729H71.106C71.2121 7.29423 71.3989 7.04808 71.6665 6.86884C71.9366 6.68706 72.2421 6.59618 72.5829 6.59618C72.6536 6.59618 72.737 6.5987 72.8329 6.60375C72.9313 6.6088 73.0083 6.61511 73.0639 6.62269V7.70575C73.0184 7.69312 72.9377 7.67924 72.8215 7.66409C72.7054 7.64642 72.5893 7.63758 72.4731 7.63758C72.2055 7.63758 71.9669 7.69439 71.7574 7.80799C71.5504 7.91908 71.3863 8.07434 71.2651 8.27379C71.1439 8.47071 71.0833 8.6954 71.0833 8.94786V12.5H69.951ZM74.0438 12.5V6.68328H75.176V12.5H74.0438ZM74.6156 5.78577C74.4187 5.78577 74.2495 5.72013 74.1081 5.58885C73.9693 5.45505 73.8999 5.296 73.8999 5.1117C73.8999 4.92488 73.9693 4.76583 74.1081 4.63455C74.2495 4.50074 74.4187 4.43384 74.6156 4.43384C74.8125 4.43384 74.9804 4.50074 75.1192 4.63455C75.2606 4.76583 75.3313 4.92488 75.3313 5.1117C75.3313 5.296 75.2606 5.45505 75.1192 5.58885C74.9804 5.72013 74.8125 5.78577 74.6156 5.78577ZM79.4676 6.68328V7.59214H76.1805V6.68328H79.4676ZM77.0818 12.5V6.0092C77.0818 5.64566 77.1613 5.34397 77.3204 5.10413C77.4794 4.86176 77.6903 4.68125 77.9528 4.5626C78.2154 4.44141 78.5007 4.38082 78.8087 4.38082C79.0359 4.38082 79.2303 4.39976 79.3918 4.43763C79.5534 4.47297 79.6733 4.50579 79.7516 4.53609L79.4865 5.45252C79.4335 5.43738 79.3653 5.4197 79.282 5.39951C79.1987 5.37679 79.0977 5.36543 78.9791 5.36543C78.7039 5.36543 78.507 5.43359 78.3883 5.56992C78.2722 5.70625 78.2141 5.90317 78.2141 6.16068V12.5H77.0818ZM80.6359 12.5V6.68328H81.7681V12.5H80.6359ZM81.2077 5.78577C81.0108 5.78577 80.8416 5.72013 80.7002 5.58885C80.5614 5.45505 80.4919 5.296 80.4919 5.1117C80.4919 4.92488 80.5614 4.76583 80.7002 4.63455C80.8416 4.50074 81.0108 4.43384 81.2077 4.43384C81.4046 4.43384 81.5725 4.50074 81.7113 4.63455C81.8527 4.76583 81.9234 4.92488 81.9234 5.1117C81.9234 5.296 81.8527 5.45505 81.7113 5.58885C81.5725 5.72013 81.4046 5.78577 81.2077 5.78577ZM85.7984 12.6174C85.2253 12.6174 84.7317 12.495 84.3177 12.2501C83.9062 12.0026 83.5881 11.6555 83.3634 11.2087C83.1412 10.7593 83.0301 10.2329 83.0301 9.62951C83.0301 9.0337 83.1412 8.50858 83.3634 8.05415C83.5881 7.59971 83.9011 7.245 84.3025 6.99002C84.7065 6.73503 85.1786 6.60754 85.7189 6.60754C86.0471 6.60754 86.3652 6.66182 86.6732 6.77038C86.9812 6.87893 87.2576 7.04935 87.5025 7.28161C87.7474 7.51388 87.9405 7.81557 88.0819 8.18669C88.2233 8.55528 88.294 9.0034 88.294 9.53105V9.93246H83.6701V9.08419H87.1844C87.1844 8.78629 87.1238 8.52246 87.0026 8.29272C86.8814 8.06046 86.711 7.87742 86.4914 7.74362C86.2743 7.60981 86.0193 7.54291 85.7264 7.54291C85.4083 7.54291 85.1306 7.62117 84.8933 7.7777C84.6585 7.9317 84.4767 8.13367 84.348 8.38361C84.2218 8.63102 84.1586 8.89989 84.1586 9.19022V9.85294C84.1586 10.2417 84.2268 10.5725 84.3631 10.8451C84.502 11.1178 84.6951 11.3261 84.9425 11.47C85.19 11.6113 85.479 11.682 85.8097 11.682C86.0243 11.682 86.22 11.6517 86.3967 11.5911C86.5734 11.528 86.7262 11.4346 86.8549 11.3109C86.9837 11.1872 87.0822 11.0345 87.1503 10.8527L88.222 11.0458C88.1362 11.3614 87.9822 11.6378 87.76 11.8752C87.5404 12.1099 87.2639 12.293 86.9307 12.4243C86.6 12.553 86.2225 12.6174 85.7984 12.6174ZM91.7278 12.6136C91.2582 12.6136 90.8391 12.4937 90.4705 12.2538C90.1044 12.0115 89.8166 11.6669 89.6071 11.22C89.4001 10.7706 89.2966 10.2316 89.2966 9.603C89.2966 8.97437 89.4013 8.43663 89.6109 7.98977C89.8229 7.54291 90.1133 7.20082 90.4819 6.96351C90.8505 6.7262 91.2683 6.60754 91.7353 6.60754C92.0964 6.60754 92.3867 6.66813 92.6063 6.78931C92.8285 6.90797 93.0002 7.04682 93.1214 7.20587C93.2451 7.36492 93.341 7.50504 93.4092 7.62622H93.4773V4.74437H94.6096V12.5H93.5038V11.5949H93.4092C93.341 11.7186 93.2425 11.86 93.1138 12.0191C92.9876 12.1781 92.8134 12.317 92.5912 12.4356C92.369 12.5543 92.0812 12.6136 91.7278 12.6136ZM91.9777 11.6479C92.3034 11.6479 92.5786 11.5621 92.8033 11.3904C93.0305 11.2162 93.2021 10.9751 93.3183 10.6671C93.4369 10.3591 93.4963 10.0006 93.4963 9.59164C93.4963 9.1877 93.4382 8.83425 93.3221 8.5313C93.2059 8.22834 93.0355 7.99229 92.8108 7.82314C92.5861 7.65399 92.3084 7.56942 91.9777 7.56942C91.6369 7.56942 91.3529 7.65778 91.1256 7.8345C90.8984 8.01123 90.7268 8.25233 90.6106 8.55781C90.497 8.86329 90.4402 9.2079 90.4402 9.59164C90.4402 9.98043 90.4983 10.3301 90.6144 10.6406C90.7305 10.9511 90.9022 11.1973 91.1294 11.3791C91.3592 11.5583 91.6419 11.6479 91.9777 11.6479Z" fill="#931602"/>
</svg>
