<svg width="85" height="22" viewBox="0 0 85 22" fill="none" xmlns="http://www.w3.org/2000/svg">
<rect x="0.75" y="0.75" width="83.5" height="20.5" rx="10.25" fill="#FCFCFC"/>
<rect x="0.75" y="0.75" width="83.5" height="20.5" rx="10.25" stroke="black" stroke-width="1.5"/>
<path d="M42.094 5.742V6.778H37.852V10.068H41.296V11.104H37.852V15.5H36.578V5.742H42.094ZM46.8387 15.626C46.12 15.626 45.4667 15.4627 44.8787 15.136C44.3 14.8093 43.8427 14.3473 43.5067 13.75C43.18 13.1433 43.0167 12.4433 43.0167 11.65C43.0167 10.866 43.1847 10.1753 43.5207 9.578C43.866 8.97133 44.3327 8.50933 44.9207 8.192C45.5087 7.86533 46.1667 7.702 46.8947 7.702C47.6227 7.702 48.2807 7.86533 48.8687 8.192C49.4567 8.50933 49.9187 8.96667 50.2547 9.564C50.6 10.1613 50.7727 10.8567 50.7727 11.65C50.7727 12.4433 50.5954 13.1433 50.2407 13.75C49.8954 14.3473 49.424 14.8093 48.8267 15.136C48.2294 15.4627 47.5667 15.626 46.8387 15.626ZM46.8387 14.506C47.296 14.506 47.7254 14.3987 48.1267 14.184C48.528 13.9693 48.85 13.6473 49.0927 13.218C49.3447 12.7887 49.4707 12.266 49.4707 11.65C49.4707 11.034 49.3494 10.5113 49.1067 10.082C48.864 9.65267 48.5467 9.33533 48.1547 9.13C47.7627 8.91533 47.338 8.808 46.8807 8.808C46.414 8.808 45.9847 8.91533 45.5927 9.13C45.21 9.33533 44.902 9.65267 44.6687 10.082C44.4354 10.5113 44.3187 11.034 44.3187 11.65C44.3187 12.2753 44.4307 12.8027 44.6547 13.232C44.888 13.6613 45.196 13.9833 45.5787 14.198C45.9614 14.4033 46.3814 14.506 46.8387 14.506ZM53.5818 9.074C53.8058 8.63533 54.1231 8.29467 54.5338 8.052C54.9538 7.80933 55.4624 7.688 56.0598 7.688V9.004H55.7238C54.2958 9.004 53.5818 9.77867 53.5818 11.328V15.5H52.3078V7.828H53.5818V9.074ZM66.6164 7.688C67.2138 7.688 67.7458 7.814 68.2124 8.066C68.6791 8.30867 69.0478 8.67733 69.3184 9.172C69.5891 9.66667 69.7244 10.2687 69.7244 10.978V15.5H68.4644V11.16C68.4644 10.3947 68.2731 9.81133 67.8904 9.41C67.5171 8.99933 67.0084 8.794 66.3644 8.794C65.7018 8.794 65.1744 9.00867 64.7824 9.438C64.3904 9.858 64.1944 10.4693 64.1944 11.272V15.5H62.9344V11.16C62.9344 10.3947 62.7431 9.81133 62.3604 9.41C61.9871 8.99933 61.4784 8.794 60.8344 8.794C60.1718 8.794 59.6444 9.00867 59.2524 9.438C58.8604 9.858 58.6644 10.4693 58.6644 11.272V15.5H57.3904V7.828H58.6644V8.934C58.9164 8.53267 59.2524 8.22467 59.6724 8.01C60.1018 7.79533 60.5731 7.688 61.0864 7.688C61.7304 7.688 62.2998 7.83267 62.7944 8.122C63.2891 8.41133 63.6578 8.836 63.9004 9.396C64.1151 8.85467 64.4698 8.43467 64.9644 8.136C65.4591 7.83733 66.0098 7.688 66.6164 7.688Z" fill="black"/>
<rect x="17.25" y="5" width="10.5" height="12.75" rx="2" stroke="black"/>
<path d="M20.25 8.75H24.75" stroke="black" stroke-linecap="round"/>
<path d="M20.25 11.75H24.75" stroke="black" stroke-linecap="round"/>
<path d="M20.25 14.75H23.25" stroke="black" stroke-linecap="round"/>
</svg>
