<svg width="90" height="22" viewBox="0 0 90 22" fill="none" xmlns="http://www.w3.org/2000/svg">
<rect x="0.75" y="0.75" width="88.5" height="20.5" rx="10.25" fill="#FCFCFC"/>
<rect x="0.75" y="0.75" width="88.5" height="20.5" rx="10.25" stroke="#018191" stroke-width="1.5"/>
<path d="M32.8303 5.81818L35.853 14.3892H35.9723L38.995 5.81818H40.2876L36.549 16H35.2763L31.5376 5.81818H32.8303ZM44.2053 16.1591C43.4695 16.1591 42.8348 15.9967 42.3011 15.6719C41.7708 15.3438 41.3615 14.8864 41.0732 14.2997C40.7881 13.7098 40.6456 13.0237 40.6456 12.2415C40.6456 11.4593 40.7881 10.7699 41.0732 10.1733C41.3615 9.57339 41.7625 9.10606 42.2763 8.77131C42.7933 8.43324 43.3965 8.2642 44.0859 8.2642C44.4837 8.2642 44.8764 8.33049 45.2642 8.46307C45.652 8.59564 46.005 8.81108 46.3232 9.10938C46.6413 9.40436 46.8949 9.79545 47.0838 10.2827C47.2727 10.7699 47.3672 11.3698 47.3672 12.0824V12.5795H41.4808V11.5653H46.174C46.174 11.1345 46.0878 10.75 45.9155 10.4119C45.7464 10.0739 45.5045 9.80705 45.1896 9.61151C44.8781 9.41596 44.5102 9.31818 44.0859 9.31818C43.6186 9.31818 43.2143 9.43419 42.8729 9.66619C42.5348 9.89489 42.2746 10.1932 42.0923 10.5611C41.91 10.929 41.8189 11.3234 41.8189 11.7443V12.4205C41.8189 12.9972 41.9183 13.486 42.1172 13.8871C42.3194 14.2848 42.5994 14.5881 42.9574 14.7969C43.3153 15.0024 43.7313 15.1051 44.2053 15.1051C44.5135 15.1051 44.7919 15.062 45.0405 14.9759C45.2924 14.8864 45.5095 14.7538 45.6918 14.5781C45.8741 14.3991 46.0149 14.1771 46.1143 13.9119L47.2479 14.2301C47.1286 14.6146 46.928 14.9527 46.6463 15.2443C46.3646 15.5327 46.0166 15.758 45.6023 15.9205C45.188 16.0795 44.7223 16.1591 44.2053 16.1591ZM49.152 16V8.36364H50.2855V9.51705H50.3651C50.5043 9.1392 50.7562 8.83262 51.1207 8.5973C51.4853 8.36198 51.8963 8.24432 52.3537 8.24432C52.4399 8.24432 52.5476 8.24597 52.6768 8.24929C52.8061 8.2526 52.9039 8.25758 52.9702 8.2642V9.45739C52.9304 9.44744 52.8393 9.43253 52.6967 9.41264C52.5575 9.38944 52.41 9.37784 52.2543 9.37784C51.883 9.37784 51.5516 9.45573 51.2599 9.61151C50.9716 9.76397 50.7429 9.97609 50.5739 10.2479C50.4081 10.5163 50.3253 10.8229 50.3253 11.1676V16H49.152ZM54.361 16V8.36364H55.5343V16H54.361ZM54.9576 7.09091C54.7289 7.09091 54.5317 7.01302 54.3659 6.85724C54.2035 6.70147 54.1223 6.5142 54.1223 6.29545C54.1223 6.0767 54.2035 5.88944 54.3659 5.73366C54.5317 5.57789 54.7289 5.5 54.9576 5.5C55.1863 5.5 55.3818 5.57789 55.5442 5.73366C55.7099 5.88944 55.7928 6.0767 55.7928 6.29545C55.7928 6.5142 55.7099 6.70147 55.5442 6.85724C55.3818 7.01302 55.1863 7.09091 54.9576 7.09091ZM61.0838 8.36364V9.35795H56.9673V8.36364H61.0838ZM58.2003 16V7.30966C58.2003 6.87216 58.303 6.50758 58.5085 6.21591C58.714 5.92424 58.9808 5.70549 59.3089 5.55966C59.6371 5.41383 59.9834 5.34091 60.348 5.34091C60.6364 5.34091 60.8717 5.36411 61.054 5.41051C61.2363 5.45691 61.3722 5.5 61.4616 5.53977L61.1236 6.55398C61.0639 6.53409 60.9811 6.50923 60.875 6.4794C60.7723 6.44957 60.6364 6.43466 60.4673 6.43466C60.0795 6.43466 59.7995 6.53243 59.6271 6.72798C59.4581 6.92353 59.3736 7.21023 59.3736 7.58807V16H58.2003ZM62.7282 16V8.36364H63.9015V16H62.7282ZM63.3248 7.09091C63.0961 7.09091 62.8989 7.01302 62.7331 6.85724C62.5707 6.70147 62.4895 6.5142 62.4895 6.29545C62.4895 6.0767 62.5707 5.88944 62.7331 5.73366C62.8989 5.57789 63.0961 5.5 63.3248 5.5C63.5534 5.5 63.749 5.57789 63.9114 5.73366C64.0771 5.88944 64.16 6.0767 64.16 6.29545C64.16 6.5142 64.0771 6.70147 63.9114 6.85724C63.749 7.01302 63.5534 7.09091 63.3248 7.09091ZM69.2521 16.1591C68.5163 16.1591 67.8816 15.9967 67.348 15.6719C66.8177 15.3438 66.4084 14.8864 66.12 14.2997C65.835 13.7098 65.6925 13.0237 65.6925 12.2415C65.6925 11.4593 65.835 10.7699 66.12 10.1733C66.4084 9.57339 66.8094 9.10606 67.3232 8.77131C67.8402 8.43324 68.4434 8.2642 69.1328 8.2642C69.5305 8.2642 69.9233 8.33049 70.3111 8.46307C70.6989 8.59564 71.0518 8.81108 71.37 9.10938C71.6882 9.40436 71.9418 9.79545 72.1307 10.2827C72.3196 10.7699 72.4141 11.3698 72.4141 12.0824V12.5795H66.5277V11.5653H71.2209C71.2209 11.1345 71.1347 10.75 70.9624 10.4119C70.7933 10.0739 70.5514 9.80705 70.2365 9.61151C69.925 9.41596 69.5571 9.31818 69.1328 9.31818C68.6655 9.31818 68.2611 9.43419 67.9197 9.66619C67.5817 9.89489 67.3215 10.1932 67.1392 10.5611C66.9569 10.929 66.8658 11.3234 66.8658 11.7443V12.4205C66.8658 12.9972 66.9652 13.486 67.1641 13.8871C67.3662 14.2848 67.6463 14.5881 68.0043 14.7969C68.3622 15.0024 68.7782 15.1051 69.2521 15.1051C69.5604 15.1051 69.8388 15.062 70.0874 14.9759C70.3393 14.8864 70.5563 14.7538 70.7386 14.5781C70.9209 14.3991 71.0618 14.1771 71.1612 13.9119L72.2947 14.2301C72.1754 14.6146 71.9749 14.9527 71.6932 15.2443C71.4115 15.5327 71.0634 15.758 70.6491 15.9205C70.2348 16.0795 69.7692 16.1591 69.2521 16.1591ZM77.0824 16.1591C76.446 16.1591 75.8842 15.9983 75.397 15.6768C74.9098 15.352 74.5286 14.8946 74.2536 14.3047C73.9785 13.7114 73.8409 13.0104 73.8409 12.2017C73.8409 11.3996 73.9785 10.7036 74.2536 10.1136C74.5286 9.52367 74.9115 9.06794 75.402 8.74645C75.8925 8.42495 76.4593 8.2642 77.1023 8.2642C77.5994 8.2642 77.9922 8.34706 78.2805 8.51278C78.5722 8.67519 78.7943 8.8608 78.9467 9.0696C79.1025 9.27509 79.2235 9.44413 79.3097 9.5767H79.4091V5.81818H80.5824V16H79.4489V14.8267H79.3097C79.2235 14.9659 79.1009 15.1416 78.9418 15.3537C78.7827 15.5625 78.5556 15.7498 78.2607 15.9155C77.9657 16.0779 77.5729 16.1591 77.0824 16.1591ZM77.2415 15.1051C77.7121 15.1051 78.1098 14.9825 78.4347 14.7372C78.7595 14.4886 79.0064 14.1456 79.1754 13.7081C79.3445 13.2673 79.429 12.7585 79.429 12.1818C79.429 11.6117 79.3461 11.1129 79.1804 10.6854C79.0147 10.2545 78.7694 9.91974 78.4446 9.68111C78.1198 9.43916 77.7188 9.31818 77.2415 9.31818C76.7443 9.31818 76.33 9.44579 75.9986 9.70099C75.6705 9.95289 75.4235 10.2959 75.2578 10.7301C75.0954 11.161 75.0142 11.6449 75.0142 12.1818C75.0142 12.7254 75.0971 13.2192 75.2628 13.6634C75.4318 14.1042 75.6804 14.4555 76.0085 14.7173C76.34 14.9759 76.7509 15.1051 77.2415 15.1051Z" fill="#018191"/>
<circle cx="15.5717" cy="11" r="6" stroke="#018191" stroke-width="1.2"/>
<path d="M13 11L14.875 13L18 9" stroke="#018191" stroke-width="1.2"/>
</svg>
