<svg width="277" height="290" viewBox="0 0 277 290" fill="none" xmlns="http://www.w3.org/2000/svg">
<path fill-rule="evenodd" clip-rule="evenodd" d="M138.5 264.585C201.04 264.585 251.738 213.786 251.738 151.121C251.738 88.4567 201.04 37.6571 138.5 37.6571C75.961 37.6571 25.2627 88.4567 25.2627 151.121C25.2627 213.786 75.961 264.585 138.5 264.585Z" stroke="#3AD29F" stroke-width="0.305962" stroke-dasharray="1.84 1.84"/>
<path fill-rule="evenodd" clip-rule="evenodd" d="M138.5 288.653C214.305 288.653 275.758 227.078 275.758 151.121C275.758 75.1642 214.305 13.589 138.5 13.589C62.6946 13.589 1.24219 75.1642 1.24219 151.121C1.24219 227.078 62.6946 288.653 138.5 288.653Z" stroke="#3AD29F" stroke-width="0.305962" stroke-dasharray="1.84 1.84"/>
<path d="M230.364 194.937C230.368 178.924 218.21 165.539 202.3 164.04C186.389 162.541 171.954 173.42 168.979 189.153L73.8174 186.566L74.8621 202.948C74.8621 202.948 61.2926 234.32 132.609 242.679V274.388H215.056V221.668C224.529 216.109 230.355 205.937 230.364 194.937Z" fill="url(#paint0_linear_35_53854)"/>
<path d="M78.1294 203.636C78.1294 203.636 65.1357 233.679 133.433 241.694V272.073H212.39V191.621L77.1152 187.945L78.1294 203.636Z" fill="#FFCBB4"/>
<path d="M117.591 78.2635C113.305 85.0401 104.362 87.0764 97.5744 82.8212L55.1808 54.8295C48.4177 50.5351 46.3855 41.5741 50.6322 34.7728C54.9175 28.0055 63.8492 25.9702 70.6337 30.2151L113.027 58.2067C119.796 62.4961 121.835 71.4582 117.591 78.2635Z" fill="url(#paint1_linear_35_53854)"/>
<path d="M115.242 76.7354C111.259 83.0343 102.946 84.9272 96.6364 80.9721L57.2167 54.9327C50.9303 50.9409 49.0412 42.6115 52.9884 36.2894C56.9722 29.9905 65.285 28.0976 71.5944 32.0527L111.007 58.0768C117.305 62.0667 119.199 70.4081 115.242 76.7354Z" fill="#FFCBB4"/>
<path d="M197.402 225.671C213.779 225.671 227.054 212.369 227.054 195.96C227.054 179.552 213.779 166.25 197.402 166.25C181.026 166.25 167.751 179.552 167.751 195.96C167.751 212.369 181.026 225.671 197.402 225.671Z" fill="#FFCBB4"/>
<path d="M192.065 3.05176e-05H78.4762C75.8968 3.05176e-05 73.8057 2.0953 73.8057 4.67995V217.649C73.8057 220.233 75.8968 222.328 78.4762 222.328H192.065C194.644 222.328 196.735 220.233 196.735 217.649V4.67995C196.735 2.0953 194.644 3.05176e-05 192.065 3.05176e-05Z" fill="url(#paint2_linear_35_53854)"/>
<path d="M189.869 3.00662H80.6654C77.7932 3.00662 75.4648 5.33964 75.4648 8.21756V214.119C75.4648 216.996 77.7932 219.329 80.6654 219.329H189.869C192.741 219.329 195.07 216.996 195.07 214.119V8.21756C195.07 5.33964 192.741 3.00662 189.869 3.00662Z" fill="white"/>
<path d="M165.315 8.43152C164.6 13.1718 160.541 16.6809 155.756 16.6949H114.449C109.666 16.679 105.609 13.1704 104.895 8.43152H83.0096C81.8046 8.43152 80.6486 8.90944 79.7962 9.76284C78.9438 10.6162 78.4648 11.7741 78.4648 12.9815V209.347C78.4648 210.554 78.9418 211.713 79.7935 212.567C80.6452 213.421 81.8008 213.901 83.0058 213.901H187.528C188.733 213.901 189.889 213.423 190.741 212.569C191.593 211.716 192.072 210.558 192.072 209.351V12.9854C192.072 11.778 191.595 10.6197 190.744 9.76554C189.892 8.91142 188.736 8.43152 187.531 8.43152H165.315Z" fill="#E9ECFF"/>
<path d="M148.002 11.0179H122.872C122.451 11.0179 122.109 11.36 122.109 11.782V11.9233C122.109 12.3453 122.451 12.6874 122.872 12.6874H148.002C148.423 12.6874 148.764 12.3453 148.764 11.9233V11.782C148.764 11.36 148.423 11.0179 148.002 11.0179Z" fill="#DBDBDB"/>
<path d="M154.426 12.9311C155.112 12.9311 155.668 12.3738 155.668 11.6864C155.668 10.999 155.112 10.4418 154.426 10.4418C153.74 10.4418 153.184 10.999 153.184 11.6864C153.184 12.3738 153.74 12.9311 154.426 12.9311Z" fill="#DBDBDB"/>
<path d="M216.57 201.202C207.964 203.196 202.059 197.573 200.068 188.954L180.296 115.386C178.328 106.734 183.702 98.1132 192.325 96.0892C200.96 94.1179 209.563 99.5024 211.583 108.142L227.718 183.609C229.708 192.232 225.171 199.208 216.57 201.202Z" fill="url(#paint3_linear_35_53854)"/>
<path d="M209.364 109.943C207.686 102.668 200.44 98.1328 193.179 99.8138C185.918 101.495 181.392 108.755 183.07 116.031L201.252 194.88C202.929 202.155 210.175 206.69 217.436 205.009C224.697 203.328 229.223 196.068 227.545 188.792L209.364 109.943Z" fill="#FFCBB4"/>
<path d="M226.929 262.133H114.072V288.493H226.929V262.133Z" fill="url(#paint4_linear_35_53854)"/>
<path d="M223.878 265.189H117.122V285.819H223.878V265.189Z" fill="#4D8AF0"/>
<path d="M101.136 157.184C96.902 163.88 88.0658 165.893 81.3593 161.688L52.9279 143.255C46.2452 139.013 44.2367 130.159 48.4327 123.439C52.6665 116.743 61.5027 114.73 68.2092 118.935L96.6407 137.368C103.323 141.61 105.332 150.464 101.136 157.184Z" fill="url(#paint5_linear_35_53854)"/>
<path d="M93.9977 196.201C89.7261 202.959 80.8095 204.99 74.0419 200.747L56.431 187.88C49.687 183.6 47.6597 174.666 51.8938 167.885C56.1654 161.127 65.0821 159.096 71.8496 163.339L89.4605 176.209C96.2022 180.489 98.2292 189.421 93.9977 196.201Z" fill="url(#paint6_linear_35_53854)"/>
<g opacity="0.5">
<path d="M135.267 145.528C154.206 145.528 169.559 130.145 169.559 111.168C169.559 92.1915 154.206 76.8079 135.267 76.8079C116.328 76.8079 100.976 92.1915 100.976 111.168C100.976 130.145 116.328 145.528 135.267 145.528Z" fill="url(#paint7_linear_35_53854)"/>
</g>
<path d="M135.267 143.507C153.092 143.507 167.542 129.028 167.542 111.168C167.542 93.3076 153.092 78.8289 135.267 78.8289C117.442 78.8289 102.992 93.3076 102.992 111.168C102.992 129.028 117.442 143.507 135.267 143.507Z" fill="#018191"/>
<path d="M121.259 106.851L133.361 117.968L150.506 92.7043L156.561 97.7587L133.361 128.077L116.215 108.876L121.259 106.851Z" fill="white"/>
<path d="M92.5761 195.242C88.5922 201.541 80.2795 203.434 73.97 199.479L57.5448 187.498C51.2584 183.507 49.3693 175.177 53.3165 168.855C57.3003 162.556 65.6131 160.663 71.9226 164.618L88.3439 176.622C94.6178 180.612 96.5071 188.924 92.5761 195.242Z" fill="#FFCBB4"/>
<path d="M99.5718 156.172C95.588 162.471 87.2752 164.363 80.9657 160.408L54.2157 143.064C47.9293 139.072 46.0402 130.743 49.9874 124.421C53.9712 118.122 62.284 116.229 68.5935 120.184L95.3435 137.528C101.63 141.52 103.519 149.85 99.5718 156.172Z" fill="#FFCBB4"/>
<path d="M108.486 118.35C104.231 125.076 95.3551 127.096 88.6178 122.874L52.5876 99.3671C45.8756 95.1039 43.8589 86.21 48.0734 79.4593C52.3281 72.7339 61.2041 70.7131 67.9414 74.936L103.972 98.4425C110.684 102.706 112.7 111.6 108.486 118.35Z" fill="url(#paint8_linear_35_53854)"/>
<path d="M106.572 117.128C102.588 123.427 94.2754 125.32 87.966 121.365L54.2196 99.3479C47.9332 95.3561 46.0441 87.0267 49.9913 80.7047C53.9751 74.4057 62.2879 72.5128 68.5974 76.4679L102.34 98.4845C108.628 102.475 110.519 110.805 106.572 117.128Z" fill="#FFCBB4"/>
<defs>
<linearGradient id="paint0_linear_35_53854" x1="152.096" y1="274.407" x2="152.096" y2="163.908" gradientUnits="userSpaceOnUse">
<stop stop-color="#808080" stop-opacity="0.25"/>
<stop offset="0.54" stop-color="#808080" stop-opacity="0.12"/>
<stop offset="1" stop-color="#808080" stop-opacity="0.1"/>
</linearGradient>
<linearGradient id="paint1_linear_35_53854" x1="84.1079" y1="85.0484" x2="84.1079" y2="27.9955" gradientUnits="userSpaceOnUse">
<stop stop-color="#808080" stop-opacity="0.25"/>
<stop offset="0.54" stop-color="#808080" stop-opacity="0.12"/>
<stop offset="1" stop-color="#808080" stop-opacity="0.1"/>
</linearGradient>
<linearGradient id="paint2_linear_35_53854" x1="135.27" y1="222.325" x2="135.27" y2="-0.003786" gradientUnits="userSpaceOnUse">
<stop stop-color="#808080" stop-opacity="0.25"/>
<stop offset="0.54" stop-color="#808080" stop-opacity="0.12"/>
<stop offset="1" stop-color="#808080" stop-opacity="0.1"/>
</linearGradient>
<linearGradient id="paint3_linear_35_53854" x1="204.033" y1="201.599" x2="204.033" y2="95.6766" gradientUnits="userSpaceOnUse">
<stop stop-color="#808080" stop-opacity="0.25"/>
<stop offset="0.54" stop-color="#808080" stop-opacity="0.12"/>
<stop offset="1" stop-color="#808080" stop-opacity="0.1"/>
</linearGradient>
<linearGradient id="paint4_linear_35_53854" x1="170.508" y1="288.485" x2="170.508" y2="262.125" gradientUnits="userSpaceOnUse">
<stop stop-color="#808080" stop-opacity="0.25"/>
<stop offset="0.54" stop-color="#808080" stop-opacity="0.12"/>
<stop offset="1" stop-color="#808080" stop-opacity="0.1"/>
</linearGradient>
<linearGradient id="paint5_linear_35_53854" x1="74.7785" y1="163.885" x2="74.7785" y2="116.742" gradientUnits="userSpaceOnUse">
<stop stop-color="#808080" stop-opacity="0.25"/>
<stop offset="0.54" stop-color="#808080" stop-opacity="0.12"/>
<stop offset="1" stop-color="#808080" stop-opacity="0.1"/>
</linearGradient>
<linearGradient id="paint6_linear_35_53854" x1="72.9477" y1="202.963" x2="72.9477" y2="161.119" gradientUnits="userSpaceOnUse">
<stop stop-color="#808080" stop-opacity="0.25"/>
<stop offset="0.54" stop-color="#808080" stop-opacity="0.12"/>
<stop offset="1" stop-color="#808080" stop-opacity="0.1"/>
</linearGradient>
<linearGradient id="paint7_linear_35_53854" x1="135.267" y1="145.528" x2="135.267" y2="76.8041" gradientUnits="userSpaceOnUse">
<stop stop-color="#808080" stop-opacity="0.25"/>
<stop offset="0.54" stop-color="#808080" stop-opacity="0.12"/>
<stop offset="1" stop-color="#808080" stop-opacity="0.1"/>
</linearGradient>
<linearGradient id="paint8_linear_35_53854" x1="78.2777" y1="125.093" x2="78.2777" y2="72.7431" gradientUnits="userSpaceOnUse">
<stop stop-color="#808080" stop-opacity="0.25"/>
<stop offset="0.54" stop-color="#808080" stop-opacity="0.12"/>
<stop offset="1" stop-color="#808080" stop-opacity="0.1"/>
</linearGradient>
</defs>
</svg>
