<svg width="85" height="22" viewBox="0 0 85 22" fill="none" xmlns="http://www.w3.org/2000/svg">
<rect x="0.75" y="0.75" width="83.5" height="20.5" rx="10.25" fill="#FCFCFC"/>
<rect x="0.75" y="0.75" width="83.5" height="20.5" rx="10.25" stroke="black" stroke-width="1.5"/>
<path d="M36.716 15.5L34.392 11.51H32.852V15.5H31.578V5.742H34.728C35.4653 5.742 36.086 5.868 36.59 6.12C37.1033 6.372 37.486 6.71267 37.738 7.142C37.99 7.57133 38.116 8.06133 38.116 8.612C38.116 9.284 37.92 9.87667 37.528 10.39C37.1453 10.9033 36.5667 11.244 35.792 11.412L38.242 15.5H36.716ZM32.852 10.488H34.728C35.4187 10.488 35.9367 10.32 36.282 9.984C36.6273 9.63867 36.8 9.18133 36.8 8.612C36.8 8.03333 36.6273 7.58533 36.282 7.268C35.946 6.95067 35.428 6.792 34.728 6.792H32.852V10.488ZM46.9556 11.37C46.9556 11.6127 46.9416 11.8693 46.9136 12.14H40.7816C40.8282 12.896 41.0849 13.4887 41.5516 13.918C42.0276 14.338 42.6016 14.548 43.2736 14.548C43.8242 14.548 44.2816 14.422 44.6456 14.17C45.0189 13.9087 45.2802 13.5633 45.4296 13.134H46.8016C46.5962 13.8713 46.1856 14.4733 45.5696 14.94C44.9536 15.3973 44.1882 15.626 43.2736 15.626C42.5456 15.626 41.8922 15.4627 41.3136 15.136C40.7442 14.8093 40.2962 14.3473 39.9696 13.75C39.6429 13.1433 39.4796 12.4433 39.4796 11.65C39.4796 10.8567 39.6382 10.1613 39.9556 9.564C40.2729 8.96667 40.7162 8.50933 41.2856 8.192C41.8642 7.86533 42.5269 7.702 43.2736 7.702C44.0016 7.702 44.6456 7.86067 45.2056 8.178C45.7656 8.49533 46.1949 8.934 46.4936 9.494C46.8016 10.0447 46.9556 10.67 46.9556 11.37ZM45.6396 11.104C45.6396 10.6187 45.5322 10.2033 45.3176 9.858C45.1029 9.50333 44.8089 9.23733 44.4356 9.06C44.0716 8.87333 43.6656 8.78 43.2176 8.78C42.5736 8.78 42.0229 8.98533 41.5656 9.396C41.1176 9.80667 40.8609 10.376 40.7956 11.104H45.6396ZM49.7712 9.242C50.0232 8.80333 50.3966 8.43933 50.8912 8.15C51.3952 7.85133 51.9786 7.702 52.6412 7.702C53.3226 7.702 53.9386 7.86533 54.4892 8.192C55.0492 8.51867 55.4879 8.98067 55.8052 9.578C56.1226 10.166 56.2812 10.852 56.2812 11.636C56.2812 12.4107 56.1226 13.1013 55.8052 13.708C55.4879 14.3147 55.0492 14.786 54.4892 15.122C53.9386 15.458 53.3226 15.626 52.6412 15.626C51.9879 15.626 51.4092 15.4813 50.9052 15.192C50.4106 14.8933 50.0326 14.5247 49.7712 14.086V19.14H48.4972V7.828H49.7712V9.242ZM54.9792 11.636C54.9792 11.0573 54.8626 10.5533 54.6292 10.124C54.3959 9.69467 54.0786 9.368 53.6772 9.144C53.2852 8.92 52.8512 8.808 52.3752 8.808C51.9086 8.808 51.4746 8.92467 51.0732 9.158C50.6812 9.382 50.3639 9.71333 50.1212 10.152C49.8879 10.5813 49.7712 11.0807 49.7712 11.65C49.7712 12.2287 49.8879 12.7373 50.1212 13.176C50.3639 13.6053 50.6812 13.9367 51.0732 14.17C51.4746 14.394 51.9086 14.506 52.3752 14.506C52.8512 14.506 53.2852 14.394 53.6772 14.17C54.0786 13.9367 54.3959 13.6053 54.6292 13.176C54.8626 12.7373 54.9792 12.224 54.9792 11.636ZM61.1642 15.626C60.4455 15.626 59.7922 15.4627 59.2042 15.136C58.6255 14.8093 58.1682 14.3473 57.8322 13.75C57.5055 13.1433 57.3422 12.4433 57.3422 11.65C57.3422 10.866 57.5102 10.1753 57.8462 9.578C58.1915 8.97133 58.6582 8.50933 59.2462 8.192C59.8342 7.86533 60.4922 7.702 61.2202 7.702C61.9482 7.702 62.6062 7.86533 63.1942 8.192C63.7822 8.50933 64.2442 8.96667 64.5802 9.564C64.9255 10.1613 65.0982 10.8567 65.0982 11.65C65.0982 12.4433 64.9208 13.1433 64.5662 13.75C64.2208 14.3473 63.7495 14.8093 63.1522 15.136C62.5548 15.4627 61.8922 15.626 61.1642 15.626ZM61.1642 14.506C61.6215 14.506 62.0508 14.3987 62.4522 14.184C62.8535 13.9693 63.1755 13.6473 63.4182 13.218C63.6702 12.7887 63.7962 12.266 63.7962 11.65C63.7962 11.034 63.6748 10.5113 63.4322 10.082C63.1895 9.65267 62.8722 9.33533 62.4802 9.13C62.0882 8.91533 61.6635 8.808 61.2062 8.808C60.7395 8.808 60.3102 8.91533 59.9182 9.13C59.5355 9.33533 59.2275 9.65267 58.9942 10.082C58.7608 10.5113 58.6442 11.034 58.6442 11.65C58.6442 12.2753 58.7562 12.8027 58.9802 13.232C59.2135 13.6613 59.5215 13.9833 59.9042 14.198C60.2868 14.4033 60.7068 14.506 61.1642 14.506ZM67.9072 9.074C68.1312 8.63533 68.4486 8.29467 68.8592 8.052C69.2792 7.80933 69.7879 7.688 70.3852 7.688V9.004H70.0492C68.6212 9.004 67.9072 9.77867 67.9072 11.328V15.5H66.6332V7.828H67.9072V9.074ZM73.2699 8.878V13.4C73.2699 13.7733 73.3492 14.0393 73.5079 14.198C73.6666 14.3473 73.9419 14.422 74.3339 14.422H75.2719V15.5H74.1239C73.4146 15.5 72.8826 15.3367 72.5279 15.01C72.1732 14.6833 71.9959 14.1467 71.9959 13.4V8.878H71.0019V7.828H71.9959V5.896H73.2699V7.828H75.2719V8.878H73.2699Z" fill="black"/>
<rect x="12.25" y="5" width="10.5" height="12.75" rx="2" stroke="black"/>
<path d="M15.25 8.75H19.75" stroke="black" stroke-linecap="round"/>
<path d="M15.25 11.75H19.75" stroke="black" stroke-linecap="round"/>
<path d="M15.25 14.75H18.25" stroke="black" stroke-linecap="round"/>
</svg>
