<svg width="433" height="323" viewBox="0 0 433 323" fill="none" xmlns="http://www.w3.org/2000/svg">
<path d="M291.684 15.96H129.188V231.616H291.684V15.96Z" fill="#00E3FF"/>
<path d="M288.196 20.5918H132.676V30.5518H288.196V20.5918Z" fill="#1E1E1E"/>
<path d="M140.052 25.568C140.052 25.9525 139.938 26.3284 139.724 26.6481C139.511 26.9677 139.207 27.2169 138.852 27.364C138.497 27.5112 138.106 27.5497 137.729 27.4747C137.352 27.3997 137.005 27.2145 136.733 26.9426C136.462 26.6708 136.276 26.3244 136.201 25.9473C136.126 25.5702 136.165 25.1793 136.312 24.8241C136.459 24.4689 136.708 24.1653 137.028 23.9516C137.348 23.738 137.724 23.624 138.108 23.624C138.363 23.624 138.616 23.6743 138.852 23.772C139.088 23.8697 139.302 24.0129 139.483 24.1934C139.663 24.3739 139.806 24.5882 139.904 24.8241C140.002 25.0599 140.052 25.3127 140.052 25.568Z" fill="#C88E20"/>
<path d="M146.716 25.568C146.716 25.9525 146.602 26.3284 146.389 26.6481C146.175 26.9677 145.871 27.2169 145.516 27.364C145.161 27.5112 144.77 27.5497 144.393 27.4747C144.016 27.3997 143.669 27.2145 143.398 26.9426C143.126 26.6708 142.94 26.3244 142.865 25.9473C142.79 25.5702 142.829 25.1793 142.976 24.8241C143.123 24.4689 143.372 24.1653 143.692 23.9516C144.012 23.738 144.388 23.624 144.772 23.624C145.288 23.624 145.782 23.8288 146.147 24.1934C146.511 24.558 146.716 25.0524 146.716 25.568Z" fill="white"/>
<path d="M153.388 25.568C153.389 25.9544 153.276 26.3326 153.063 26.6547C152.849 26.9767 152.545 27.2282 152.188 27.3771C151.832 27.5261 151.439 27.5659 151.06 27.4915C150.681 27.4171 150.332 27.2318 150.058 26.9591C149.785 26.6865 149.598 26.3387 149.522 25.9598C149.446 25.5809 149.484 25.188 149.632 24.8309C149.779 24.4737 150.029 24.1684 150.351 23.9536C150.672 23.7387 151.049 23.624 151.436 23.624C151.952 23.624 152.447 23.8286 152.813 24.1929C153.179 24.5573 153.386 25.0517 153.388 25.568Z" fill="white"/>
<path d="M286.444 0.224609H134.444C132.38 0.230949 130.403 1.05418 128.944 2.51432C127.486 3.97446 126.664 5.95272 126.66 8.01661V239.601C126.664 241.665 127.485 243.644 128.944 245.106C130.402 246.567 132.38 247.392 134.444 247.401H286.444C288.509 247.392 290.486 246.567 291.945 245.106C293.403 243.644 294.224 241.665 294.228 239.601V8.01661C294.224 5.95272 293.403 3.97446 291.944 2.51432C290.485 1.05418 288.508 0.230949 286.444 0.224609ZM288.196 226.993H132.676V20.5926H288.196V226.993Z" fill="#018191"/>
<path d="M215.3 12.088H198.412C197.989 12.0587 197.594 11.8702 197.305 11.5606C197.016 11.251 196.855 10.8434 196.855 10.42C196.855 9.99652 197.016 9.58886 197.305 9.27927C197.594 8.96968 197.989 8.78123 198.412 8.75195H215.3C215.722 8.78123 216.118 8.96968 216.407 9.27927C216.696 9.58886 216.856 9.99652 216.856 10.42C216.856 10.8434 216.696 11.251 216.407 11.5606C216.118 11.8702 215.722 12.0587 215.3 12.088ZM198.444 9.15195C198.125 9.1773 197.827 9.32188 197.61 9.55688C197.393 9.79188 197.273 10.1 197.273 10.42C197.273 10.7399 197.393 11.048 197.61 11.283C197.827 11.518 198.125 11.6626 198.444 11.688H215.3C215.619 11.6626 215.916 11.518 216.133 11.283C216.351 11.048 216.471 10.7399 216.471 10.42C216.471 10.1 216.351 9.79188 216.133 9.55688C215.916 9.32188 215.619 9.1773 215.3 9.15195H198.444Z" fill="#A088B5"/>
<path d="M222.5 12.0881C222.168 12.0897 221.844 11.9928 221.568 11.8097C221.292 11.6266 221.076 11.3655 220.949 11.0597C220.821 10.7538 220.787 10.417 220.852 10.0919C220.916 9.76683 221.075 9.46817 221.31 9.23386C221.544 8.99954 221.843 8.84014 222.168 8.77588C222.493 8.71162 222.83 8.7454 223.135 8.87294C223.441 9.00049 223.702 9.21603 223.885 9.49221C224.068 9.7684 224.165 10.0928 224.164 10.4241C224.162 10.8648 223.986 11.2868 223.674 11.5984C223.363 11.91 222.94 12.086 222.5 12.0881ZM222.5 9.15213C222.248 9.15054 222.001 9.22379 221.791 9.36259C221.581 9.5014 221.416 9.6995 221.319 9.93178C221.221 10.1641 221.195 10.4201 221.243 10.6673C221.291 10.9146 221.412 11.142 221.59 11.3207C221.767 11.4994 221.994 11.6213 222.241 11.6711C222.488 11.7208 222.744 11.6961 222.977 11.6C223.21 11.504 223.409 11.341 223.549 11.1316C223.689 10.9223 223.764 10.676 223.764 10.4241C223.764 10.0881 223.631 9.76582 223.394 9.5275C223.157 9.28918 222.836 9.15424 222.5 9.15213Z" fill="#A088B5"/>
<path d="M328.948 81.7446H339.084L339.204 93.3446L348.476 81.7446H423.004C424.534 81.7403 426 81.1302 427.081 80.0477C428.162 78.9651 428.77 77.4984 428.772 75.9686V59.1686C428.77 57.6387 428.162 56.172 427.081 55.0895C426 54.007 424.534 53.3968 423.004 53.3926H328.948C327.418 53.3968 325.952 54.007 324.871 55.0895C323.79 56.172 323.182 57.6387 323.18 59.1686V75.9686C323.182 77.4984 323.79 78.9651 324.871 80.0477C325.952 81.1302 327.418 81.7403 328.948 81.7446Z" fill="white"/>
<path d="M375.452 59.6885L373.74 64.9845H368.18L372.676 68.2485L370.956 73.5445L375.452 70.2725L379.948 73.5445L378.228 68.2485L382.724 64.9845H377.172L375.452 59.6885Z" fill="#C88E20"/>
<path d="M355.98 59.6885L354.268 64.9845H348.708L353.204 68.2485L351.492 73.5445L355.98 70.2725L360.476 73.5445L358.756 68.2485L363.252 64.9845H357.7L355.98 59.6885Z" fill="#C88E20"/>
<path d="M336.508 59.6885L334.796 64.9845H329.236L333.732 68.2485L332.02 73.5445L336.508 70.2725L341.004 73.5445L339.284 68.2485L343.78 64.9845H338.228L336.508 59.6885Z" fill="#C88E20"/>
<path d="M414.396 59.6885L412.684 64.9845H407.124L411.62 68.2485L409.9 73.5445L414.396 70.2725L418.892 73.5445L417.172 68.2485L421.668 64.9845H416.116L414.396 59.6885Z" fill="#C88E20"/>
<path d="M394.924 59.6885L393.212 64.9845H387.652L392.148 68.2485L390.428 73.5445L394.924 70.2725L399.42 73.5445L397.7 68.2485L402.196 64.9845H396.644L394.924 59.6885Z" fill="#C88E20"/>
<path d="M421.668 64.9845H416.116L414.396 59.6885V70.2725L418.892 73.5445L417.172 68.2485L421.668 64.9845Z" fill="#FFEED4"/>
<path d="M345.492 101.225H332.212V131.785H345.492V101.225Z" fill="#95F3FF"/>
<path d="M345.492 107.296L332.212 108.288V105.136H345.492V107.296Z" fill="#00444D"/>
<path d="M361.492 156.264H132.94V226.992H361.492V156.264Z" fill="#95F3FF"/>
<path d="M355.3 156.448H361.516V156.264H132.94V160.912L355.076 157.712C354.927 157.663 354.801 157.563 354.72 157.429C354.64 157.295 354.61 157.136 354.638 156.982C354.665 156.828 354.747 156.689 354.869 156.591C354.99 156.493 355.144 156.442 355.3 156.448Z" fill="#00444D"/>
<path d="M251.7 156.264H242.532V226.992H251.7V156.264Z" fill="#00444D"/>
<path d="M361.5 226.991H243.7V156.263L302.596 78.2793L361.5 156.263V226.991Z" fill="#95F3FF"/>
<path d="M363.348 159.391L302.596 78.2793L299.884 81.8713L358.532 161.767L363.348 159.391Z" fill="#00444D"/>
<path d="M281.108 107.296H129.188V156.264H244.396L281.108 107.296Z" fill="#018191"/>
<path d="M316.356 169.152H288.844V222.008H316.356V169.152Z" fill="white"/>
<path d="M316.356 170.704L288.844 172.912V169.152H316.356V170.704Z" fill="#EFBFD3"/>
<path d="M316.5 134.568V119.664C316.5 116.067 315.075 112.616 312.537 110.068C309.998 107.519 306.554 106.079 302.956 106.064H302.236C298.639 106.079 295.194 107.519 292.656 110.068C290.118 112.616 288.692 116.067 288.692 119.664V134.568H316.5Z" fill="white"/>
<path d="M303.724 108.568V119.176H314.228C314.058 116.436 312.9 113.85 310.968 111.899C309.037 109.948 306.462 108.765 303.724 108.568Z" fill="#018191"/>
<path d="M314.26 121.296H303.724V132.24H314.26V121.296Z" fill="#018191"/>
<path d="M290.972 119.177H301.612V108.561C298.856 108.749 296.261 109.927 294.305 111.878C292.35 113.829 291.166 116.421 290.972 119.177Z" fill="#018191"/>
<path d="M301.62 121.296H290.94V132.24H301.62V121.296Z" fill="#018191"/>
<path d="M137.972 164.271H132.94V171.263H137.972V164.271Z" fill="#00444D"/>
<path d="M137.972 178.136H132.94V185.128H137.972V178.136Z" fill="#00444D"/>
<path d="M137.972 192.057H132.94V199.049H137.972V192.057Z" fill="#00444D"/>
<path d="M137.972 205.92H132.94V212.912H137.972V205.92Z" fill="#00444D"/>
<path d="M137.972 219.896H132.94V226.888H137.972V219.896Z" fill="#00444D"/>
<path d="M361.5 164.271H355.788V171.263H361.5V164.271Z" fill="#00444D"/>
<path d="M361.5 178.136H355.788V185.128H361.5V178.136Z" fill="#00444D"/>
<path d="M361.5 192.057H355.788V199.049H361.5V192.057Z" fill="#00444D"/>
<path d="M361.5 205.92H355.788V212.912H361.5V205.92Z" fill="#00444D"/>
<path d="M361.5 219.896H355.788V226.888H361.5V219.896Z" fill="#00444D"/>
<path d="M249.412 164.271H243.7V171.263H249.412V164.271Z" fill="#00444D"/>
<path d="M249.412 178.136H243.7V185.128H249.412V178.136Z" fill="#00444D"/>
<path d="M249.412 192.057H243.7V199.049H249.412V192.057Z" fill="#00444D"/>
<path d="M249.412 205.92H243.7V212.912H249.412V205.92Z" fill="#00444D"/>
<path d="M249.412 219.896H243.7V226.888H249.412V219.896Z" fill="#00444D"/>
<path d="M363.332 161.968L302.596 82.016L241.868 161.968L238.276 159.232L302.596 74.5439L366.924 159.232L363.332 161.968Z" fill="#018191"/>
<path d="M240.652 156.384L240.332 156.144L277.364 107.176L277.684 107.416L240.652 156.384Z" fill="#725F9B"/>
<path d="M282.564 169.152H276.804V222.008H282.564V169.152Z" fill="white"/>
<path d="M283.94 217.336H275.436V222.008H283.94V217.336Z" fill="white"/>
<path d="M283.94 169.368H275.436V172.904H283.94V169.368Z" fill="white"/>
<path d="M328.388 169.152H322.628V222.008H328.388V169.152Z" fill="white"/>
<path d="M329.764 217.336H321.26V222.008H329.764V217.336Z" fill="white"/>
<path d="M329.764 169.368H321.26V172.904H329.764V169.368Z" fill="white"/>
<path d="M282.572 173.232L276.804 173.688V172.912H282.572V173.232Z" fill="#EFBFD3"/>
<path d="M328.388 173.232L322.628 173.688V172.912H328.388V173.232Z" fill="#EFBFD3"/>
<path d="M282.564 216.976H276.804V217.344H282.564V216.976Z" fill="#EFBFD3"/>
<path d="M328.388 216.976H322.628V217.344H328.388V216.976Z" fill="#EFBFD3"/>
<path d="M333.172 169.368L302.596 147.864L272.028 169.368H333.172Z" fill="#018191"/>
<path d="M312.148 198.48V176.248H308.852C308.088 175.214 307.092 174.374 305.945 173.795C304.797 173.216 303.529 172.914 302.244 172.914C300.959 172.914 299.691 173.216 298.543 173.795C297.396 174.374 296.4 175.214 295.636 176.248H292.332V198.48H312.148Z" fill="#018191"/>
<path d="M312.148 201.088H292.332V217.944H312.148V201.088Z" fill="#018191"/>
<path d="M198.948 129.119H179.652V109.783L189.3 101.943L198.948 109.783V129.119Z" fill="#95F3FF"/>
<path d="M196.036 112.744H182.564V126.24H196.036V112.744Z" fill="white"/>
<path d="M194.276 114.504H184.316V124.488H194.276V114.504Z" fill="#018191"/>
<path d="M178.06 111.624L176.604 109.824L189.3 99.5039L201.996 109.824L200.532 111.624L189.3 102.496L178.06 111.624Z" fill="#714B8C"/>
<path d="M335.66 223.592H269.54V226.992H335.66V223.592Z" fill="#00444D"/>
<path d="M331.58 222.008H273.62V223.592H331.58V222.008Z" fill="#018191"/>
<path d="M319.748 134.568H284.732V137.448H319.748V134.568Z" fill="#018191"/>
<path d="M319.748 137.456H284.732V139.488L319.748 137.968V137.456Z" fill="#00444D"/>
<path d="M181.292 211.6V182.24C181.284 177.982 179.59 173.901 176.581 170.888C173.573 167.875 169.494 166.175 165.236 166.16H164.388C160.13 166.175 156.051 167.875 153.043 170.888C150.034 173.901 148.34 177.982 148.332 182.24V211.6H181.292Z" fill="#00444D"/>
<path d="M178.212 211.464V182.664C178.206 179.202 176.829 175.883 174.382 173.433C171.935 170.984 168.618 169.602 165.156 169.592H164.468C161.006 169.602 157.689 170.984 155.242 173.433C152.796 175.883 151.418 179.202 151.412 182.664V211.464H178.212Z" fill="white"/>
<path d="M230.844 211.6V182.24C230.835 177.982 229.142 173.901 226.133 170.888C223.125 167.875 219.046 166.175 214.788 166.16H213.94C209.682 166.175 205.603 167.875 202.594 170.888C199.586 173.901 197.892 177.982 197.884 182.24V211.6H230.844Z" fill="#00444D"/>
<path d="M227.764 211.464V182.664C227.758 179.202 226.38 175.883 223.934 173.433C221.487 170.984 218.17 169.602 214.708 169.592H214.02C210.558 169.602 207.241 170.984 204.794 173.433C202.347 175.883 200.97 179.202 200.964 182.664V211.464H227.764Z" fill="white"/>
<path d="M225.58 184.264H215.468V194.776H225.58V184.264Z" fill="#018191"/>
<path d="M225.58 196.856H215.468V209.096H225.58V196.856Z" fill="#018191"/>
<path d="M215.468 172.008V182.192H225.548C225.381 179.563 224.268 177.084 222.415 175.212C220.563 173.34 218.095 172.202 215.468 172.008Z" fill="#018191"/>
<path d="M203.18 182.192H213.396V172C210.752 172.186 208.263 173.318 206.387 175.19C204.51 177.062 203.372 179.548 203.18 182.192Z" fill="#018191"/>
<path d="M213.396 196.856H203.148V209.096H213.396V196.856Z" fill="#018191"/>
<path d="M213.396 184.264H203.148V194.776H213.396V184.264Z" fill="#018191"/>
<path d="M176.028 184.264H165.916V194.776H176.028V184.264Z" fill="#018191"/>
<path d="M176.028 196.856H165.916V209.096H176.028V196.856Z" fill="#018191"/>
<path d="M165.916 172.008V182.192H175.996C175.829 179.563 174.717 177.084 172.864 175.212C171.011 173.34 168.543 172.202 165.916 172.008Z" fill="#018191"/>
<path d="M153.628 182.192H163.844V172C161.2 172.186 158.711 173.318 156.835 175.19C154.958 177.062 153.82 179.548 153.628 182.192Z" fill="#018191"/>
<path d="M163.844 196.856H153.596V209.096H163.844V196.856Z" fill="#018191"/>
<path d="M163.844 184.264H153.596V194.776H163.844V184.264Z" fill="#018191"/>
<path d="M347.06 103.568H330.652V106.696H347.06V103.568Z" fill="#018191"/>
<path d="M181.948 211.24H147.668V212.824H181.948V211.24Z" fill="#018191"/>
<path d="M231.452 211.24H197.284V212.824H231.452V211.24Z" fill="#018191"/>
<path d="M250.956 224.528C249.46 219.728 243.332 218.928 241.308 223.608C238.78 222.904 236.748 223.816 235.084 225.68C234.555 225.121 233.853 224.758 233.092 224.649C232.331 224.54 231.556 224.692 230.892 225.08C229.732 221.36 224.988 220.768 223.42 224.368C221.02 223.704 219.236 224.88 217.82 226.992H258.732C256.348 224.944 253.828 223.696 250.956 224.528Z" fill="#00E3FF"/>
<path d="M244.164 225.896C243.443 224.906 242.426 224.169 241.26 223.792L241.364 223.408C242.626 223.805 243.726 224.599 244.5 225.672L244.164 225.896Z" fill="#5265C6"/>
<path d="M225.164 225.896C224.713 225.282 224.081 224.826 223.356 224.592L223.468 224.208C224.284 224.463 224.995 224.977 225.492 225.672L225.164 225.896Z" fill="#5265C6"/>
<path d="M249.46 225.616L249.18 225.336C249.67 224.88 250.255 224.539 250.892 224.336L251.02 224.712C250.444 224.905 249.914 225.212 249.46 225.616Z" fill="#5265C6"/>
<path d="M229.564 226.337L229.244 226.089C229.683 225.577 230.23 225.167 230.844 224.889L231.012 225.249C230.457 225.503 229.963 225.874 229.564 226.337Z" fill="#5265C6"/>
<path d="M132.94 196.136C135.428 196.68 139.612 199.792 140.14 204.896C144.676 203.704 149.412 205.8 151.7 210.88C158.852 208.816 165.364 210.88 171.092 218.08C180.948 213.968 187.004 218.032 190.788 227.016H132.94V196.136Z" fill="#00E3FF"/>
<path d="M144.964 215.368L144.668 215.104C146.602 213.074 149.01 211.556 151.676 210.688L151.788 211.08C149.193 211.921 146.847 213.395 144.964 215.368Z" fill="#5265C6"/>
<path d="M164.788 224.808L164.42 224.648C165.811 221.714 168.142 219.329 171.044 217.872L171.204 218.24C168.392 219.652 166.134 221.964 164.788 224.808Z" fill="#5265C6"/>
<path d="M156.916 216.6H156.516V226.992H156.916V216.6Z" fill="#5265C6"/>
<path d="M156.716 220.904C156.073 220.931 155.431 220.819 154.835 220.576C154.238 220.333 153.701 219.965 153.26 219.496C152.337 218.27 151.909 216.743 152.06 215.216L152.46 215.256C152.46 215.256 152.212 217.704 153.564 219.256C153.973 219.687 154.471 220.025 155.024 220.244C155.577 220.464 156.17 220.561 156.764 220.528L156.716 220.904Z" fill="#5265C6"/>
<path d="M156.9 224.72V224.32C157.012 224.32 159.804 224.16 159.836 221.792H160.236C160.204 224.552 156.948 224.72 156.9 224.72Z" fill="#5265C6"/>
<path d="M136.508 211.24H136.108V226.992H136.508V211.24Z" fill="#5265C6"/>
<path d="M136.316 217.328V216.928C136.942 216.907 137.558 216.762 138.128 216.501C138.697 216.24 139.209 215.868 139.634 215.407C140.058 214.946 140.387 214.406 140.6 213.816C140.813 213.227 140.907 212.601 140.876 211.976H141.276C141.324 213.342 140.829 214.672 139.899 215.674C138.97 216.677 137.682 217.271 136.316 217.328Z" fill="#5265C6"/>
<path d="M136.476 207.6L136.148 207.36C137.192 206.095 138.582 205.161 140.148 204.672L140.26 205.056C138.784 205.531 137.473 206.413 136.476 207.6Z" fill="#5265C6"/>
<path d="M384.66 194.424C385.651 192.397 385.901 190.087 385.366 187.895C384.831 185.703 383.545 183.767 381.732 182.424C382.269 181.444 382.545 180.342 382.532 179.224C382.563 178.342 382.416 177.462 382.099 176.638C381.783 175.814 381.304 175.062 380.69 174.427C380.077 173.792 379.342 173.287 378.529 172.942C377.717 172.597 376.843 172.419 375.96 172.419C375.077 172.419 374.203 172.597 373.391 172.942C372.578 173.287 371.843 173.792 371.23 174.427C370.616 175.062 370.137 175.814 369.821 176.638C369.504 177.462 369.357 178.342 369.388 179.224C369.375 180.342 369.651 181.444 370.188 182.424C368.375 183.767 367.089 185.703 366.554 187.895C366.019 190.087 366.269 192.397 367.26 194.424C365.368 196.171 364.047 198.448 363.47 200.957C362.893 203.467 363.085 206.092 364.023 208.49C364.961 210.888 366.601 212.948 368.727 214.399C370.854 215.851 373.369 216.628 375.944 216.628C378.519 216.628 381.034 215.851 383.161 214.399C385.287 212.948 386.927 210.888 387.865 208.49C388.803 206.092 388.996 203.467 388.418 200.957C387.841 198.448 386.52 196.171 384.628 194.424H384.66Z" fill="#00E3FF"/>
<path d="M376.172 177.447H375.772V226.791H376.172V177.447Z" fill="#5265C6"/>
<path d="M375.876 205.096C374.969 205.148 374.063 205.004 373.217 204.673C372.372 204.341 371.609 203.831 370.98 203.176C368.772 200.712 369.188 196.824 369.212 196.664L369.612 196.704C369.612 196.744 369.188 200.584 371.284 202.904C371.889 203.524 372.622 204.004 373.431 204.314C374.241 204.623 375.107 204.754 375.972 204.696V205.096H375.876Z" fill="#5265C6"/>
<path d="M376.052 210.48H375.972V210.072H376.044C376.669 210.111 377.296 210.014 377.88 209.787C378.464 209.561 378.992 209.21 379.428 208.76C380.964 207.04 380.66 204.216 380.652 204.184L381.052 204.144C381.052 204.264 381.38 207.176 379.724 209.032C379.252 209.524 378.68 209.908 378.046 210.158C377.412 210.408 376.732 210.518 376.052 210.48Z" fill="#5265C6"/>
<path d="M376.052 191.792H375.972V191.392H376.044C376.669 191.43 377.295 191.332 377.879 191.106C378.463 190.879 378.991 190.529 379.428 190.08C380.964 188.36 380.66 185.536 380.652 185.504L381.052 185.456C381.052 185.584 381.38 188.496 379.724 190.344C379.252 190.836 378.68 191.22 378.046 191.47C377.412 191.72 376.732 191.83 376.052 191.792Z" fill="#5265C6"/>
<path d="M396.82 215.792H340.036V217.544H396.82V215.792Z" fill="#E8E4F9"/>
<path d="M396.82 222.904H340.036V224.656H396.82V222.904Z" fill="#E8E4F9"/>
<path d="M345.332 227.152H341.948C341.855 227.159 341.763 227.13 341.691 227.07C341.62 227.01 341.574 226.925 341.564 226.832V213.712C341.566 213.638 341.594 213.567 341.644 213.512L343.34 211.664C343.379 211.625 343.426 211.594 343.478 211.572C343.529 211.551 343.584 211.54 343.64 211.54C343.696 211.54 343.751 211.551 343.802 211.572C343.854 211.594 343.901 211.625 343.94 211.664L345.636 213.512C345.686 213.567 345.714 213.638 345.716 213.712V226.8C345.715 226.849 345.704 226.897 345.684 226.941C345.664 226.986 345.635 227.026 345.599 227.059C345.563 227.092 345.521 227.117 345.475 227.133C345.429 227.149 345.381 227.156 345.332 227.152Z" fill="white"/>
<path d="M352.42 227.152H349.028C348.936 227.159 348.845 227.129 348.774 227.069C348.704 227.009 348.66 226.924 348.652 226.832V213.712C348.651 213.675 348.658 213.639 348.672 213.604C348.686 213.57 348.706 213.539 348.732 213.512L350.428 211.664C350.466 211.624 350.512 211.592 350.563 211.57C350.614 211.548 350.668 211.537 350.724 211.537C350.779 211.537 350.834 211.548 350.885 211.57C350.936 211.592 350.982 211.624 351.02 211.664L352.716 213.512C352.765 213.567 352.794 213.638 352.796 213.712V226.8C352.796 226.849 352.786 226.896 352.767 226.941C352.748 226.985 352.72 227.025 352.684 227.058C352.649 227.091 352.607 227.117 352.562 227.133C352.516 227.149 352.468 227.156 352.42 227.152Z" fill="white"/>
<path d="M359.5 227.152H356.1C356.008 227.159 355.916 227.129 355.846 227.069C355.776 227.01 355.732 226.924 355.724 226.832V213.712C355.726 213.638 355.754 213.567 355.804 213.512L357.5 211.664C357.539 211.625 357.586 211.594 357.637 211.572C357.689 211.551 357.744 211.54 357.8 211.54C357.855 211.54 357.911 211.551 357.962 211.572C358.013 211.594 358.06 211.625 358.1 211.664L359.788 213.512C359.814 213.539 359.834 213.57 359.848 213.604C359.861 213.639 359.868 213.675 359.868 213.712V226.8C359.868 226.848 359.858 226.895 359.839 226.939C359.821 226.983 359.793 227.022 359.759 227.055C359.725 227.088 359.684 227.114 359.639 227.13C359.595 227.147 359.547 227.155 359.5 227.152Z" fill="white"/>
<path d="M366.58 227.152H363.196C363.103 227.159 363.011 227.13 362.939 227.07C362.868 227.01 362.822 226.925 362.812 226.832V213.712C362.814 213.638 362.842 213.567 362.892 213.512L364.588 211.664C364.627 211.625 364.674 211.594 364.726 211.572C364.777 211.551 364.832 211.54 364.888 211.54C364.944 211.54 364.999 211.551 365.05 211.572C365.102 211.594 365.149 211.625 365.188 211.664L366.884 213.512C366.934 213.567 366.962 213.638 366.964 213.712V226.8C366.964 226.849 366.954 226.898 366.934 226.943C366.915 226.988 366.886 227.028 366.85 227.061C366.814 227.094 366.771 227.12 366.725 227.135C366.678 227.151 366.629 227.157 366.58 227.152Z" fill="white"/>
<path d="M373.7 227.152H370.308C370.216 227.159 370.125 227.129 370.055 227.069C369.984 227.009 369.94 226.924 369.932 226.832V213.712C369.932 213.675 369.938 213.639 369.952 213.604C369.966 213.57 369.986 213.539 370.012 213.512L371.708 211.664C371.746 211.624 371.792 211.592 371.843 211.57C371.894 211.548 371.949 211.537 372.004 211.537C372.06 211.537 372.114 211.548 372.165 211.57C372.216 211.592 372.262 211.624 372.3 211.664L373.996 213.512C374.022 213.539 374.042 213.57 374.056 213.604C374.07 213.639 374.077 213.675 374.076 213.712V226.8C374.076 226.849 374.066 226.896 374.047 226.941C374.028 226.985 374 227.025 373.965 227.058C373.929 227.091 373.888 227.117 373.842 227.133C373.797 227.149 373.748 227.156 373.7 227.152Z" fill="white"/>
<path d="M380.748 227.152H377.356C377.264 227.159 377.173 227.129 377.102 227.069C377.032 227.01 376.988 226.924 376.98 226.832V213.712C376.982 213.638 377.01 213.567 377.06 213.512L378.756 211.664C378.795 211.625 378.842 211.594 378.894 211.572C378.945 211.551 379 211.54 379.056 211.54C379.112 211.54 379.167 211.551 379.218 211.572C379.27 211.594 379.317 211.625 379.356 211.664L381.044 213.512C381.07 213.539 381.09 213.57 381.104 213.604C381.118 213.639 381.125 213.675 381.124 213.712V226.8C381.124 226.849 381.114 226.897 381.095 226.941C381.076 226.985 381.048 227.025 381.013 227.058C380.977 227.091 380.936 227.117 380.89 227.133C380.845 227.149 380.796 227.156 380.748 227.152Z" fill="white"/>
<path d="M387.828 227.152H384.444C384.351 227.159 384.259 227.13 384.187 227.07C384.116 227.01 384.07 226.925 384.06 226.832V213.712C384.062 213.638 384.09 213.567 384.14 213.512L385.836 211.664C385.875 211.625 385.922 211.594 385.974 211.572C386.025 211.551 386.08 211.54 386.136 211.54C386.192 211.54 386.247 211.551 386.298 211.572C386.35 211.594 386.397 211.625 386.436 211.664L388.132 213.512C388.182 213.567 388.21 213.638 388.212 213.712V226.8C388.212 226.849 388.202 226.898 388.183 226.943C388.163 226.988 388.134 227.028 388.098 227.061C388.062 227.094 388.019 227.12 387.973 227.135C387.926 227.151 387.877 227.157 387.828 227.152Z" fill="white"/>
<path d="M394.916 227.152H391.524C391.432 227.159 391.341 227.129 391.27 227.069C391.2 227.009 391.156 226.924 391.148 226.832V213.712C391.147 213.675 391.154 213.639 391.168 213.604C391.182 213.57 391.202 213.539 391.228 213.512L392.924 211.664C392.962 211.624 393.008 211.592 393.059 211.57C393.11 211.548 393.165 211.537 393.22 211.537C393.275 211.537 393.33 211.548 393.381 211.57C393.432 211.592 393.478 211.624 393.516 211.664L395.212 213.512C395.238 213.539 395.258 213.57 395.272 213.604C395.286 213.639 395.293 213.675 395.292 213.712V226.8C395.292 226.849 395.282 226.896 395.263 226.941C395.244 226.985 395.216 227.025 395.181 227.058C395.145 227.091 395.104 227.117 395.058 227.133C395.013 227.149 394.964 227.156 394.916 227.152Z" fill="white"/>
<path d="M405.78 226.928H287.26V227.424H405.78V226.928Z" fill="#018191"/>
<path d="M106.204 271.328L63.916 244.296C63.916 244.296 77.324 226.368 78.684 211.424C79.788 203.816 75.484 162 78.724 156.056C81.964 150.112 116.612 131.504 119.94 130.384C122.099 129.693 124.346 129.313 126.612 129.256L126.66 158.576L150.1 137.512C162.212 125.92 175.116 137.872 161.852 150.976C161.852 150.976 142.86 169.816 140.148 175.512C137.436 181.208 136.22 191.472 134.876 196.92C133.532 202.368 126.652 214.192 126.652 214.192V235.736C121.364 252.632 112.292 251.456 106.204 271.328Z" fill="#F9AC9A"/>
<path d="M114.14 167.344C108.428 167.344 97.6681 157.304 97.2041 156.864L97.6121 156.424C97.7321 156.536 109.372 167.392 114.62 166.712C119.868 166.032 126.364 158.464 126.428 158.384L126.884 158.776C126.62 159.096 120.212 166.6 114.692 167.312C114.509 167.335 114.325 167.346 114.14 167.344Z" fill="#C66D58"/>
<path d="M120.348 164.631C116.228 163.399 114.94 157.783 114.82 157.207C112.828 153.159 107.46 150.007 107.404 149.959L107.708 149.439C107.94 149.575 113.308 152.743 115.372 156.983V157.055C115.372 157.111 116.588 162.887 120.5 164.055L120.348 164.631Z" fill="#C66D58"/>
<path d="M115.412 156.856L115.044 156.376L126.46 147.704L126.82 148.176L115.412 156.856Z" fill="#C66D58"/>
<path d="M114.268 167.328C110.42 166.6 106.444 160.88 106.268 160.64L106.764 160.296C106.764 160.352 110.764 166.056 114.372 166.736L114.268 167.328Z" fill="#C66D58"/>
<path d="M126.23 214.381L116.651 226.806L117.127 227.172L126.705 214.748L126.23 214.381Z" fill="#C66D58"/>
<path d="M150.66 155.977L143.3 149.001L143.716 148.561L151.076 155.537L150.66 155.977Z" fill="#C66D58"/>
<path d="M150.14 152.441L146.748 148.985L147.18 148.561L150.564 152.025L150.14 152.441Z" fill="#C66D58"/>
<path d="M146.684 155.912L143.3 152.456L143.724 152.032L147.116 155.488L146.684 155.912Z" fill="#C66D58"/>
<path d="M159.748 147.6C157.348 147.6 153.076 143.2 152.228 140.856C151.38 138.512 157.5 134.392 158.204 133.936L158.532 134.44C156.036 136.04 152.268 139.192 152.796 140.648C153.596 142.808 157.596 147 159.748 147C161.492 147 164.884 142.84 166.044 141.24L166.532 141.592C166.084 142.208 162.116 147.6 159.748 147.6Z" fill="#C66D58"/>
<path d="M105.668 276.864L56.6201 245.808L70.4521 225.688L118.756 256.856L105.668 276.864Z" fill="white"/>
<path d="M81.4139 323L109 275.781L56.324 243L54.6786 244.975L18.059 296.586L0 323H54.6786H81.4139Z" fill="#C88E20"/>
<path d="M103.076 264.087H102.844C102.047 264.04 101.282 263.757 100.646 263.275C100.01 262.794 99.5305 262.134 99.2686 261.38C99.0067 260.626 98.974 259.811 99.1747 259.039C99.3753 258.266 99.8003 257.571 100.396 257.039C100.885 256.627 101.465 256.338 102.088 256.196C102.711 256.055 103.36 256.064 103.979 256.225C104.597 256.385 105.169 256.691 105.645 257.118C106.121 257.544 106.488 258.079 106.715 258.676C106.942 259.274 107.022 259.917 106.949 260.552C106.877 261.187 106.653 261.796 106.296 262.327C105.94 262.857 105.461 263.295 104.901 263.603C104.341 263.91 103.715 264.079 103.076 264.095V264.087ZM103.076 256.415C102.376 256.419 101.692 256.624 101.106 257.007C100.52 257.389 100.056 257.932 99.7708 258.571C99.4855 259.21 99.3904 259.918 99.4971 260.61C99.6037 261.302 99.9075 261.948 100.372 262.471C100.85 263.007 101.476 263.389 102.171 263.569C102.866 263.749 103.599 263.719 104.277 263.483C104.955 263.247 105.548 262.815 105.981 262.242C106.413 261.669 106.666 260.98 106.708 260.263C106.741 259.785 106.678 259.306 106.524 258.852C106.37 258.398 106.127 257.98 105.81 257.62C105.493 257.261 105.108 256.968 104.677 256.758C104.247 256.549 103.778 256.427 103.3 256.399L103.076 256.415Z" fill="#018191"/>
<path d="M126.324 135.28C125.64 134.103 124.675 133.114 123.516 132.4L123.78 131.864C125.042 132.618 126.091 133.68 126.828 134.952L126.324 135.28Z" fill="#C66D58"/>
<path d="M343.282 217.867L335.698 223.491L325.57 209.811L333.154 204.179L343.282 217.867Z" fill="#C88E20"/>
<path d="M333.826 220.643C333.506 220.883 333.514 221.443 333.826 221.907L358.018 256.363C358.93 257.595 360.362 258.083 361.218 257.451L368.282 252.211C369.13 251.579 369.082 250.067 368.17 248.835L342.306 215.619C341.954 215.171 341.418 214.995 341.106 215.235L333.826 220.643Z" fill="#018191"/>
<path d="M276.058 134.946C268.776 140.333 263.255 147.758 260.194 156.283C257.133 164.807 256.669 174.049 258.861 182.837C261.054 191.625 265.803 199.566 272.51 205.654C279.216 211.743 287.578 215.705 296.537 217.04C305.496 218.375 314.649 217.022 322.839 213.153C331.029 209.285 337.887 203.074 342.547 195.306C347.206 187.539 349.456 178.564 349.013 169.517C348.57 160.47 345.454 151.758 340.058 144.482C332.819 134.753 322.021 128.288 310.027 126.501C298.033 124.714 285.819 127.75 276.058 134.946ZM324.234 200.058C318.64 204.198 311.944 206.587 304.993 206.923C298.042 207.259 291.147 205.527 285.179 201.945C279.212 198.364 274.441 193.094 271.468 186.801C268.495 180.509 267.454 173.476 268.476 166.592C269.499 159.708 272.539 153.282 277.213 148.125C281.886 142.969 287.984 139.313 294.734 137.621C301.485 135.928 308.585 136.275 315.139 138.617C321.693 140.959 327.405 145.191 331.554 150.778C334.32 154.491 336.325 158.713 337.455 163.202C338.584 167.692 338.815 172.36 338.135 176.939C337.455 181.519 335.877 185.918 333.491 189.886C331.106 193.853 327.96 197.31 324.234 200.058Z" fill="#018191"/>
<path d="M344.514 287.098C350.703 299.845 358.349 311.832 367.298 322.818H427.706L426.146 320.202C422.37 313.53 422.002 306.77 423.282 298.154C425.682 274.154 423.874 252.09 407.402 236.554C406.728 236.066 405.947 235.747 405.123 235.626C404.3 235.505 403.46 235.585 402.674 235.858C402.674 235.858 399.074 228.57 395.242 227.858C391.242 227.106 386.978 230.666 386.978 230.666C386.978 230.666 383.658 221.266 379.322 220.322C371.242 218.722 368.266 224.258 368.266 224.258C368.266 224.258 363.162 215.202 354.746 214.298C349.41 213.81 345.018 219.098 345.018 219.098L347.626 222.45C347.626 222.45 350.282 229.346 350.506 230.45C350.73 231.554 351.506 239.25 351.506 239.25C351.506 239.25 349.394 232.434 343.506 230.746C340.074 229.738 338.938 232.482 338.938 232.482C338.938 232.482 338.778 241.042 338.61 243.314C338.442 245.586 334.85 255.602 335.218 257.954C335.586 260.306 341.17 280.482 344.514 287.098Z" fill="#F9AC9A"/>
<path d="M375.858 251.186C373.234 249.098 372.586 244.858 371.762 239.49C371.058 234.874 370.25 229.634 367.994 224.402L368.546 224.162C370.834 229.466 371.642 234.746 372.354 239.402C373.154 244.642 373.794 248.778 376.234 250.714L375.858 251.186Z" fill="#C66D58"/>
<path d="M393.066 246.395C391.042 245.027 390.13 241.771 389.066 238.003C388.433 235.55 387.631 233.144 386.666 230.803L387.218 230.562C388.188 232.927 388.99 235.357 389.618 237.834C390.642 241.49 391.522 244.643 393.362 245.891L393.066 246.395Z" fill="#C66D58"/>
<path d="M406.746 246.691C405.906 245.739 405.346 243.995 404.706 241.979C404.116 239.921 403.348 237.919 402.41 235.995L402.938 235.723C403.895 237.674 404.68 239.706 405.282 241.795C405.898 243.747 406.434 245.435 407.194 246.291L406.746 246.691Z" fill="#C66D58"/>
<path d="M339.026 244.186L338.89 243.602C339.902 243.36 340.938 243.231 341.978 243.218C342.189 243.233 342.401 243.206 342.601 243.139C342.802 243.072 342.987 242.965 343.146 242.826C343.417 242.533 343.627 242.189 343.764 241.814C343.901 241.439 343.963 241.041 343.946 240.642C344.002 239.122 343.946 235.41 342.146 233.746C341.79 233.42 341.365 233.178 340.902 233.04C340.439 232.901 339.951 232.869 339.474 232.946L339.41 232.346C339.974 232.264 340.549 232.307 341.094 232.473C341.639 232.639 342.14 232.924 342.562 233.306C344.522 235.138 344.602 239.058 344.546 240.658C344.566 241.137 344.49 241.615 344.322 242.065C344.154 242.514 343.899 242.925 343.57 243.274C343.355 243.47 343.102 243.619 342.827 243.712C342.551 243.806 342.26 243.842 341.97 243.818C340.979 243.836 339.992 243.959 339.026 244.186Z" fill="#C66D58"/>
<path d="M336.002 258.37L335.65 257.882C336.791 257.107 338.079 256.576 339.434 256.322L339.538 256.914C338.275 257.16 337.073 257.655 336.002 258.37Z" fill="#C66D58"/>
<path d="M336.114 256.707L335.77 256.211C336.775 255.576 337.904 255.164 339.082 255.003L339.17 255.603C338.085 255.75 337.043 256.127 336.114 256.707Z" fill="#C66D58"/>
<path d="M336.61 260.171L336.25 259.691C337.353 258.905 338.593 258.332 339.906 258.003L340.05 258.587C338.819 258.907 337.654 259.443 336.61 260.171Z" fill="#C66D58"/>
<path d="M353.01 285.938L352.41 285.85C354.01 274.802 351.234 239.634 351.21 239.282L351.81 239.234C351.834 239.618 354.634 274.818 353.01 285.938Z" fill="#C66D58"/>
<path d="M352.538 256.346C351.242 256.122 349.923 256.055 348.61 256.146L348.57 255.546C349.939 255.45 351.315 255.522 352.666 255.762L352.538 256.346Z" fill="#C66D58"/>
<path d="M356.226 224.85L355.906 224.346C356.066 224.242 359.85 221.906 366.026 222.434L365.97 223.034C362.614 222.652 359.22 223.284 356.226 224.85Z" fill="#C66D58"/>
<path d="M357.826 222.019L357.594 221.467C359.677 220.64 361.922 220.306 364.154 220.491L364.082 221.091C361.954 220.923 359.815 221.24 357.826 222.019Z" fill="#C66D58"/>
<path d="M359.514 225.666L359.354 225.09C359.506 225.042 363.226 224.026 365.394 224.226L365.338 224.826C363.282 224.65 359.546 225.658 359.514 225.666Z" fill="#C66D58"/>
<path d="M373.514 222.995L373.306 222.435C375.815 221.659 378.47 221.487 381.058 221.931L380.962 222.531C378.477 222.114 375.929 222.273 373.514 222.995Z" fill="#C66D58"/>
<path d="M432.506 322.818L425.082 307.794L392.082 322.818H432.506Z" fill="white"/>
<path d="M325.428 18.9766C330.597 18.9766 334.788 14.7788 334.788 9.60061C334.788 4.42239 330.597 0.224609 325.428 0.224609C320.258 0.224609 316.068 4.42239 316.068 9.60061C316.068 14.7788 320.258 18.9766 325.428 18.9766Z" fill="#C88E20"/>
<path d="M72.8999 81.072C73.0789 78.8402 74.0923 76.7577 75.7379 75.2395C77.3836 73.7214 79.5409 72.8789 81.7799 72.88C82.2569 72.8769 82.7333 72.9144 83.2039 72.992C85.2119 73.296 86.8439 72.632 87.5559 70.768C88.4151 68.5036 89.8212 66.487 91.6489 64.8979C93.4766 63.3087 95.6691 62.1965 98.031 61.6603C100.393 61.1241 102.851 61.1806 105.185 61.8247C107.52 62.4688 109.659 63.6806 111.412 65.352C111.637 65.6048 111.919 65.7996 112.235 65.9199C112.552 66.0403 112.892 66.0826 113.228 66.0434C113.564 66.0041 113.886 65.8844 114.166 65.6945C114.445 65.5045 114.675 65.2498 114.836 64.952C116.405 61.7729 118.886 59.134 121.963 57.373C125.04 55.612 128.572 54.809 132.108 55.0667C135.644 55.3244 139.022 56.6311 141.811 58.8196C144.6 61.0082 146.673 63.979 147.764 67.352C147.871 67.6689 148.045 67.959 148.274 68.2023C148.503 68.4457 148.783 68.6366 149.093 68.762C149.403 68.8873 149.736 68.9442 150.07 68.9287C150.404 68.9132 150.731 68.8256 151.028 68.672C153.352 67.7066 155.93 67.5378 158.36 68.1919C160.79 68.8461 162.935 70.2864 164.46 72.288C164.631 72.5102 164.849 72.6909 165.1 72.8165C165.35 72.9421 165.626 73.0093 165.906 73.0131C166.186 73.017 166.464 72.9573 166.718 72.8387C166.971 72.72 167.195 72.5455 167.372 72.328C168.676 70.7971 170.372 69.6494 172.278 69.0078C174.184 68.3661 176.229 68.2546 178.194 68.6851C180.158 69.1157 181.969 70.0721 183.432 71.4522C184.895 72.8322 185.955 74.5839 186.5 76.52C186.565 76.7185 186.677 76.8987 186.825 77.0458C186.974 77.1928 187.155 77.3024 187.354 77.3657C187.553 77.4289 187.765 77.444 187.971 77.4097C188.177 77.3753 188.372 77.2925 188.54 77.168C189.483 76.5626 190.552 76.1816 191.665 76.0543C192.778 75.9271 193.905 76.0571 194.96 76.4342C196.015 76.8114 196.969 77.4256 197.749 78.2297C198.53 79.0338 199.115 80.0062 199.46 81.072H72.8999Z" fill="#B8FBFF"/>
<path d="M89.6277 77.6484C88.318 75.4932 86.2348 73.9194 83.8037 73.2484L83.8757 72.8564C84.0197 72.8564 87.3717 73.5124 89.9637 77.4244L89.6277 77.6484Z" fill="#DED6F2"/>
<path d="M144.42 74.9192L144.06 74.7272C145.443 71.9691 147.771 69.7999 150.62 68.6152L150.772 68.9832C148.003 70.1224 145.744 72.2331 144.42 74.9192Z" fill="#DED6F2"/>
<path d="M116.9 72.1524C115.607 69.6297 113.774 67.4227 111.532 65.6884L111.756 65.3604C114.057 67.1239 115.934 69.3787 117.252 71.9604L116.9 72.1524Z" fill="#DED6F2"/>
<path d="M186.3 79.3922L185.98 79.1441C186.755 78.176 187.705 77.3619 188.78 76.7441L188.972 77.0961C187.943 77.6835 187.036 78.463 186.3 79.3922Z" fill="#DED6F2"/>
<path d="M123.868 75.84C123.135 74.6596 122.106 73.6907 120.884 73.0285C119.663 72.3664 118.289 72.034 116.9 72.064C115.657 72.1108 114.448 72.4826 113.394 73.1423C112.34 73.8021 111.477 74.7267 110.892 75.824L110.54 75.632C111.154 74.468 112.064 73.4857 113.177 72.7837C114.291 72.0817 115.569 71.6845 116.884 71.632C118.344 71.5919 119.789 71.9377 121.073 72.6343C122.357 73.331 123.434 74.354 124.196 75.6L123.868 75.84Z" fill="#DED6F2"/>
<path d="M167.348 78.8004C166.903 78.0828 166.279 77.4936 165.537 77.091C164.795 76.6883 163.96 76.4861 163.116 76.5044C162.361 76.5334 161.627 76.76 160.987 77.1614C160.347 77.5629 159.823 78.1253 159.468 78.7924L159.116 78.6004C159.506 77.8702 160.08 77.2552 160.782 76.8172C161.484 76.3791 162.289 76.1333 163.116 76.1044C164.029 76.0801 164.933 76.2964 165.736 76.7317C166.539 77.167 167.214 77.806 167.692 78.5844L167.348 78.8004Z" fill="#DED6F2"/>
<path d="M164.204 76.4715L163.876 76.2315C164.959 74.8413 166.127 73.5188 167.372 72.2715L167.652 72.5595C166.418 73.7867 165.267 75.0935 164.204 76.4715Z" fill="#DED6F2"/>
<path d="M260.732 25.8312C260.674 25.4607 260.645 25.0863 260.644 24.7112C260.643 23.7955 260.822 22.8886 261.172 22.0422C261.522 21.1959 262.035 20.4268 262.682 19.7789C263.329 19.1311 264.098 18.6171 264.944 18.2664C265.79 17.9157 266.696 17.7352 267.612 17.7352C268.747 17.7296 269.865 18.0045 270.868 18.5352C271.716 18.9832 273.14 19.1512 273.724 17.8072C274.293 16.4081 275.171 15.1556 276.292 14.1428C277.413 13.1301 278.748 12.3833 280.197 11.9581C281.646 11.5329 283.173 11.4402 284.663 11.6869C286.154 11.9337 287.569 12.5135 288.804 13.3832C289.058 13.5871 289.357 13.7271 289.677 13.7916C289.996 13.856 290.326 13.8431 290.64 13.7538C290.953 13.6645 291.24 13.5015 291.478 13.2783C291.715 13.0552 291.896 12.7784 292.004 12.4712C293.018 9.45744 294.992 6.85881 297.623 5.07277C300.254 3.28674 303.397 2.41163 306.572 2.58128C309.748 2.75094 312.78 3.95602 315.206 6.01221C317.631 8.06841 319.317 10.8625 320.004 13.9672C320.268 15.2632 321.236 16.1192 323.108 15.8152C325.043 15.423 327.054 15.7599 328.755 16.7612C330.457 17.7624 331.728 19.3574 332.324 21.2392C332.379 21.4368 332.482 21.6176 332.624 21.7652C332.767 21.9129 332.944 22.0226 333.139 22.0846C333.334 22.1466 333.542 22.1588 333.744 22.1201C333.945 22.0815 334.133 21.9932 334.292 21.8632C335.17 21.2671 336.207 20.9493 337.268 20.9512C338.603 20.9537 339.89 21.4545 340.875 22.3556C341.861 23.2568 342.474 24.4934 342.596 25.8232L260.732 25.8312Z" fill="#B8FBFF"/>
<path d="M294.188 19.528C292.838 16.9546 290.806 14.8016 288.316 13.304L288.524 12.96C291.079 14.5002 293.161 16.7145 294.54 19.36L294.188 19.528Z" fill="#DED6F2"/>
<path d="M316.236 20.6242L315.9 20.4083C316.654 19.1692 317.664 18.1047 318.861 17.2854C320.058 16.4661 321.416 15.9108 322.844 15.6562L322.884 16.0563C321.52 16.3152 320.224 16.8551 319.08 17.6414C317.935 18.4278 316.967 19.4436 316.236 20.6242Z" fill="#DED6F2"/>
<path d="M311.172 22.6086L310.892 22.3206C311.552 21.6246 312.355 21.0798 313.246 20.7235C314.137 20.3673 315.094 20.208 316.052 20.2566C316.814 20.2988 317.556 20.5076 318.228 20.8684C318.9 21.2292 319.484 21.7331 319.94 22.3446L319.62 22.5846C319.2 22.0193 318.66 21.5535 318.039 21.2203C317.418 20.8871 316.732 20.6946 316.028 20.6566C315.126 20.6152 314.226 20.7681 313.388 21.1048C312.55 21.4416 311.794 21.9544 311.172 22.6086Z" fill="#DED6F2"/>
<path d="M267.964 21.2002L267.676 20.9202C268.339 20.2247 269.143 19.6798 270.035 19.3223C270.927 18.9648 271.885 18.8031 272.844 18.8482C273.605 18.892 274.348 19.1015 275.019 19.4622C275.691 19.8229 276.275 20.3259 276.732 20.9362L276.412 21.1762C275.991 20.6124 275.451 20.1481 274.83 19.8163C274.209 19.4845 273.523 19.2933 272.82 19.2562C271.919 19.2106 271.018 19.3608 270.179 19.6963C269.341 20.0319 268.585 20.5449 267.964 21.2002Z" fill="#DED6F2"/>
<path d="M222.5 89.5922C223.572 89.5922 225.62 89.7602 226.78 87.9522C227.8 86.5314 229.126 85.3572 230.659 84.5157C232.192 83.6743 233.895 83.1869 235.641 83.0895C237.387 82.992 239.133 83.287 240.751 83.9526C242.368 84.6183 243.816 85.6377 244.988 86.9362C245.592 87.5347 246.361 87.939 247.196 88.0973C248.031 88.2555 248.895 88.1604 249.676 87.8242C251.442 87.0401 253.439 86.9549 255.266 87.5859C257.092 88.217 258.611 89.5171 259.516 91.2242C259.814 91.687 260.262 92.0334 260.785 92.2052C261.307 92.3771 261.874 92.364 262.388 92.1682C263.115 91.8849 263.888 91.741 264.668 91.7442C265.773 91.7438 266.859 92.0295 267.821 92.5735C268.782 93.1174 269.587 93.9011 270.156 94.8482H217.276C217.273 94.1598 217.406 93.4775 217.667 92.8405C217.928 92.2034 218.312 91.6242 218.797 91.1359C219.282 90.6476 219.859 90.2599 220.495 89.995C221.13 89.7301 221.812 89.5932 222.5 89.5922Z" fill="white"/>
<path d="M138.724 58.5209C139.796 58.5209 141.844 58.6889 143.004 56.8809C144.024 55.4601 145.35 54.2859 146.883 53.4444C148.416 52.603 150.119 52.1156 151.865 52.0182C153.611 51.9207 155.357 52.2157 156.975 52.8813C158.592 53.547 160.04 54.5665 161.212 55.8649C161.816 56.4634 162.585 56.8678 163.42 57.026C164.256 57.1842 165.119 57.0891 165.9 56.7529C167.666 55.9688 169.664 55.8836 171.49 56.5147C173.316 57.1457 174.835 58.4459 175.74 60.1529C176.038 60.6157 176.486 60.9621 177.009 61.1339C177.532 61.3058 178.098 61.2927 178.612 61.0969C179.339 60.8136 180.112 60.6698 180.892 60.6729C181.997 60.6725 183.083 60.9583 184.045 61.5022C185.007 62.0461 185.811 62.8298 186.38 63.7769H133.5C133.497 63.0885 133.63 62.4062 133.891 61.7692C134.152 61.1322 134.536 60.5529 135.021 60.0646C135.506 59.5764 136.083 59.1886 136.719 58.9237C137.354 58.6588 138.036 58.5219 138.724 58.5209Z" fill="white"/>
<path d="M244.26 91.3917L243.956 91.1277C245.332 89.7284 246.99 88.6377 248.82 87.9277L248.964 88.2957C247.2 88.9934 245.599 90.0474 244.26 91.3917Z" fill="#DED6F2"/>
<path d="M227.58 92.1526C227.58 92.1526 226.668 90.1926 223.252 89.7926L223.292 89.3926C226.956 89.8166 227.908 91.9046 227.948 91.9926L227.58 92.1526Z" fill="#DED6F2"/>
</svg>
