<svg width="218" height="272" viewBox="0 0 218 272" fill="none" xmlns="http://www.w3.org/2000/svg">
<g clip-path="url(#clip0_35_54290)">
<path d="M213.969 32.2654L161.122 16.6316L108.919 -6.10352e-05V0.249404C107.9 1.87099 51.976 19.7501 51.976 19.7501L4.03518 32.2654C4.03518 32.2654 -2.5967 137.835 1.18701 162.013C4.97072 186.192 35.8849 228.54 63.5559 247.604C89.3974 265.421 106.881 270.722 108.981 271.305H109.189C111.268 270.722 128.773 265.421 154.614 247.604C182.202 228.582 213.096 186.254 216.983 162.013C220.871 137.773 213.969 32.2654 213.969 32.2654Z" fill="#018191"/>
<g filter="url(#filter0_i_35_54290)">
<path d="M109 253.323C96.3461 248.126 84.3279 241.5 73.1795 233.572C47.2964 215.776 20.8936 177.295 18.1909 159.416C15.9872 145.362 17.9623 91.5792 20.166 51.3097H22.9309L55.0924 42.6197L109.146 25.4266L166.317 42.6197L195.277 51.3097H198.042C200.246 91.5377 202.2 145.32 200.121 159.416C197.314 177.295 170.828 215.776 145.028 233.572C133.82 241.522 121.73 248.149 109 253.323Z" fill="#D5FAFF"/>
</g>
<path d="M108.898 0.290665C107.692 2.20331 53.0155 18.7102 53.0155 18.7102L4.03518 32.2651C4.03518 32.2651 -2.5967 137.835 1.18701 162.013C4.97072 186.192 35.8849 228.54 63.5559 247.604C89.3974 265.421 106.881 270.722 108.981 271.304L108.898 0.290665Z" fill="url(#paint0_linear_35_54290)"/>
<path d="M109 253.323C96.3461 248.126 84.3279 241.5 73.1795 233.572C47.2964 215.776 20.8936 177.295 18.1909 159.416C15.9872 145.362 17.9623 91.5792 20.166 51.3097L24.9475 49.8961L58.2109 40.5407L109.146 25.4266L153.843 38.4618L193.343 49.8961L198.042 51.3097C200.246 91.5377 202.2 145.32 200.121 159.416C197.314 177.295 170.828 215.776 145.028 233.572C133.82 241.522 121.73 248.149 109 253.323Z" stroke="url(#paint1_linear_35_54290)" stroke-width="4.96872" stroke-miterlimit="10"/>
<path d="M54.2856 138.341C54.2856 139.14 54.2357 139.971 54.1359 140.836H34.8265C34.9595 142.566 35.5084 143.896 36.473 144.828C37.4709 145.726 38.685 146.175 40.1154 146.175C42.2442 146.175 43.7245 145.277 44.556 143.48H53.6369C53.1713 145.31 52.323 146.956 51.0923 148.42C49.8948 149.884 48.3813 151.031 46.5518 151.863C44.7224 152.694 42.6767 153.11 40.4147 153.11C37.6871 153.11 35.2589 152.528 33.1301 151.364C31.0012 150.2 29.338 148.536 28.1406 146.374C26.9431 144.212 26.3443 141.684 26.3443 138.79C26.3443 135.896 26.9264 133.368 28.0907 131.206C29.2881 129.044 30.9513 127.381 33.0802 126.217C35.209 125.052 37.6539 124.47 40.4147 124.47C43.1091 124.47 45.504 125.036 47.5996 126.167C49.6952 127.298 51.3251 128.911 52.4894 131.007C53.6868 133.102 54.2856 135.547 54.2856 138.341ZM45.5539 136.096C45.5539 134.632 45.055 133.468 44.0571 132.603C43.0592 131.738 41.8118 131.306 40.315 131.306C38.8846 131.306 37.6705 131.722 36.6726 132.553C35.708 133.385 35.1092 134.566 34.8764 136.096H45.5539ZM80.2416 131.655V138.74H58.2877V131.655H80.2416ZM108.037 152.711L96.2618 137.244V152.711H87.7297V117.685H96.2618V133.052L107.937 117.685H117.966L104.395 134.849L118.465 152.711H108.037ZM152.557 117.685L140.432 141.135V152.711H131.9V141.135L119.776 117.685H129.455L136.241 132.354L142.977 117.685H152.557ZM154.547 135.148C154.547 131.689 155.296 128.612 156.793 125.917C158.29 123.19 160.369 121.078 163.03 119.581C165.724 118.051 168.768 117.285 172.16 117.285C176.318 117.285 179.878 118.383 182.838 120.579C185.798 122.774 187.778 125.768 188.775 129.56H179.395C178.697 128.096 177.699 126.982 176.401 126.217C175.137 125.452 173.691 125.069 172.061 125.069C169.433 125.069 167.304 125.984 165.674 127.813C164.044 129.643 163.229 132.088 163.229 135.148C163.229 138.208 164.044 140.653 165.674 142.483C167.304 144.312 169.433 145.227 172.061 145.227C173.691 145.227 175.137 144.844 176.401 144.079C177.699 143.314 178.697 142.2 179.395 140.736H188.775C187.778 144.528 185.798 147.522 182.838 149.717C179.878 151.879 176.318 152.96 172.16 152.96C168.768 152.96 165.724 152.212 163.03 150.715C160.369 149.185 158.29 147.073 156.793 144.379C155.296 141.684 154.547 138.607 154.547 135.148Z" fill="#05515B"/>
</g>
<defs>
<filter id="filter0_i_35_54290" x="17.2285" y="25.4266" width="183.776" height="227.896" filterUnits="userSpaceOnUse" color-interpolation-filters="sRGB">
<feFlood flood-opacity="0" result="BackgroundImageFix"/>
<feBlend mode="normal" in="SourceGraphic" in2="BackgroundImageFix" result="shape"/>
<feColorMatrix in="SourceAlpha" type="matrix" values="0 0 0 0 0 0 0 0 0 0 0 0 0 0 0 0 0 0 127 0" result="hardAlpha"/>
<feOffset/>
<feGaussianBlur stdDeviation="14.5527"/>
<feComposite in2="hardAlpha" operator="arithmetic" k2="-1" k3="1"/>
<feColorMatrix type="matrix" values="0 0 0 0 0 0 0 0 0 0.339525 0 0 0 0 0.381966 0 0 0 0.2 0"/>
<feBlend mode="normal" in2="shape" result="effect1_innerShadow_35_54290"/>
</filter>
<linearGradient id="paint0_linear_35_54290" x1="54.45" y1="-59.6874" x2="54.45" y2="299.869" gradientUnits="userSpaceOnUse">
<stop stop-color="white"/>
<stop offset="0.19" stop-color="white" stop-opacity="0.75"/>
<stop offset="0.41" stop-color="white" stop-opacity="0.49"/>
<stop offset="0.61" stop-color="white" stop-opacity="0.28"/>
<stop offset="0.78" stop-color="white" stop-opacity="0.13"/>
<stop offset="0.92" stop-color="white" stop-opacity="0.03"/>
<stop offset="1" stop-color="white" stop-opacity="0"/>
</linearGradient>
<linearGradient id="paint1_linear_35_54290" x1="109" y1="255.984" x2="109" y2="22.2042" gradientUnits="userSpaceOnUse">
<stop stop-color="#888F90"/>
<stop offset="0.11" stop-color="#C4C4C4"/>
<stop offset="0.16" stop-color="#BDBDBD"/>
<stop offset="0.19" stop-color="#B5B5B5"/>
<stop offset="1" stop-color="#004E58"/>
</linearGradient>
<clipPath id="clip0_35_54290">
<rect width="218" height="271.429" fill="white"/>
</clipPath>
</defs>
</svg>
