<svg width="13" height="16" viewBox="0 0 13 16" fill="none" xmlns="http://www.w3.org/2000/svg">
<path d="M9.48028 1.04532L9.48028 1.04533L9.48163 1.04573L12.553 1.95432L12.5544 1.97736L12.567 2.17716C12.5776 2.35 12.5926 2.59853 12.6099 2.90125C12.6445 3.50671 12.6882 4.3288 12.7247 5.19549C12.7612 6.06227 12.7906 6.9732 12.7965 7.75645C12.8024 8.54162 12.7847 9.19298 12.7284 9.54392C12.6164 10.2425 12.1114 11.2133 11.4256 12.154C10.741 13.093 9.88402 13.9913 9.07866 14.5466C7.60438 15.5631 6.5945 15.8842 6.43196 15.9314C6.26902 15.8844 5.26015 15.5634 3.78536 14.5466L3.78534 14.5466C2.97752 13.99 2.11897 13.0908 1.43427 12.1517C0.748287 11.2109 0.244654 10.2408 0.135645 9.54417C0.0808432 9.19398 0.063272 8.54293 0.0685646 7.75795C0.0738446 6.97483 0.101781 6.06377 0.13671 5.19675C0.171636 4.32981 0.213533 3.50736 0.246702 2.90161C0.263286 2.59875 0.277686 2.35008 0.287939 2.17714L0.299964 1.97723L0.301275 1.95593L3.08113 1.23022L3.08116 1.23032L3.08465 1.2292L3.06404 1.16475L3.08469 1.22919L3.0848 1.22915L3.08525 1.22901L3.08705 1.22843L3.09413 1.22617L3.12175 1.21732L3.22658 1.18368C3.31691 1.15465 3.44602 1.11307 3.60114 1.06288C3.91135 0.962513 4.32565 0.827672 4.74187 0.689828C5.15799 0.552014 5.5764 0.411077 5.8947 0.298546C6.05374 0.242318 6.18845 0.192953 6.28557 0.154498C6.33399 0.135327 6.37408 0.118471 6.4035 0.104564C6.41809 0.0976706 6.43133 0.090908 6.44209 0.0844527C6.44452 0.082998 6.44704 0.0814257 6.44959 0.0797405L9.48028 1.04532Z" fill="#931602" stroke="#FDFDFD" stroke-width="0.135331"/>
<g filter="url(#filter0_i_40000012_16868)">
<path d="M6.42696 14.9394C5.6807 14.6329 4.97194 14.2421 4.31447 13.7746C2.78803 12.7251 1.23094 10.4557 1.07156 9.40128C0.941596 8.57246 1.05807 5.40066 1.18803 3.0258H1.3511L3.2478 2.51331L6.43554 1.49936L9.80719 2.51331L11.5151 3.0258H11.6781C11.8081 5.39821 11.9234 8.57001 11.8008 9.40128C11.6352 10.4557 10.0732 12.7251 8.55171 13.7746C7.8907 14.2434 7.17772 14.6343 6.42696 14.9394Z" fill="#FFDDD8"/>
</g>
<path d="M6.42104 0.0169373C6.34993 0.129734 3.12541 1.10322 3.12541 1.10322L0.236823 1.90261C0.236823 1.90261 -0.154287 8.12851 0.0688548 9.55441C0.291997 10.9803 2.11514 13.4778 3.74702 14.6021C5.271 15.6528 6.30211 15.9654 6.42594 15.9998L6.42104 0.0169373Z" fill="url(#paint0_linear_40000012_16868)"/>
<path d="M6.42696 14.9394C5.6807 14.6329 4.97194 14.2421 4.31447 13.7746C2.78803 12.7251 1.23094 10.4557 1.07156 9.40128C0.941596 8.57246 1.05807 5.40066 1.18803 3.0258L1.47002 2.94243L3.43171 2.3907L6.43554 1.49936L9.07155 2.2681L11.4011 2.94243L11.6781 3.0258C11.8081 5.39821 11.9234 8.57001 11.8008 9.40128C11.6352 10.4557 10.0732 12.7251 8.55171 13.7746C7.8907 14.2434 7.17772 14.6343 6.42696 14.9394Z" stroke="url(#paint1_linear_40000012_16868)" stroke-width="0.293027" stroke-miterlimit="10"/>
<path d="M3.20033 7.91491C3.20033 7.96199 3.19739 8.01103 3.1915 8.06204H2.05274C2.06059 8.16405 2.09296 8.24251 2.14985 8.29744C2.2087 8.35041 2.2803 8.37689 2.36465 8.37689C2.4902 8.37689 2.57749 8.32392 2.62654 8.21799H3.16208C3.13461 8.32588 3.08459 8.42299 3.01201 8.5093C2.94139 8.59562 2.85213 8.66329 2.74424 8.71234C2.63635 8.76138 2.5157 8.7859 2.38231 8.7859C2.22145 8.7859 2.07825 8.75157 1.9527 8.68291C1.82715 8.61425 1.72907 8.51617 1.65845 8.38866C1.58782 8.26115 1.55251 8.11206 1.55251 7.94139C1.55251 7.77073 1.58684 7.62164 1.6555 7.49413C1.72612 7.36662 1.82421 7.26854 1.94976 7.19988C2.0753 7.13122 2.21949 7.09689 2.38231 7.09689C2.5412 7.09689 2.68245 7.13024 2.80603 7.19693C2.92962 7.26363 3.02574 7.35877 3.0944 7.48236C3.16502 7.60595 3.20033 7.75013 3.20033 7.91491ZM2.68539 7.7825C2.68539 7.69618 2.65596 7.62752 2.59711 7.57652C2.53826 7.52552 2.4647 7.50001 2.37642 7.50001C2.29207 7.50001 2.22047 7.52454 2.16162 7.57358C2.10473 7.62262 2.06942 7.69226 2.05569 7.7825H2.68539ZM4.73107 7.52061V7.93845H3.43635V7.52061H4.73107ZM6.37028 8.76236L5.67585 7.85018V8.76236H5.17267V6.6967H5.67585V7.603L6.3644 6.6967H6.95585L6.15548 7.70893L6.98527 8.76236H6.37028ZM8.9958 6.6967L8.28077 8.07969V8.76236H7.77759V8.07969L7.06256 6.6967H7.63341L8.03359 7.56181L8.43084 6.6967H8.9958ZM9.1132 7.72659C9.1132 7.52257 9.15734 7.34112 9.24562 7.18222C9.33389 7.02136 9.4565 6.8968 9.61343 6.80852C9.77233 6.71828 9.95182 6.67316 10.1519 6.67316C10.3971 6.67316 10.607 6.7379 10.7816 6.86737C10.9562 6.99684 11.0729 7.17339 11.1318 7.39703H10.5786C10.5374 7.31071 10.4785 7.245 10.402 7.19988C10.3275 7.15476 10.2422 7.1322 10.146 7.1322C9.99106 7.1322 9.86551 7.18615 9.76939 7.29404C9.67326 7.40193 9.6252 7.54611 9.6252 7.72659C9.6252 7.90706 9.67326 8.05125 9.76939 8.15914C9.86551 8.26703 9.99106 8.32098 10.146 8.32098C10.2422 8.32098 10.3275 8.29842 10.402 8.2533C10.4785 8.20818 10.5374 8.14247 10.5786 8.05615H11.1318C11.0729 8.27978 10.9562 8.45634 10.7816 8.58581C10.607 8.71332 10.3971 8.77707 10.1519 8.77707C9.95182 8.77707 9.77233 8.73293 9.61343 8.64466C9.4565 8.55442 9.33389 8.42985 9.24562 8.27096C9.15734 8.11206 9.1132 7.9306 9.1132 7.72659Z" fill="#931602"/>
<defs>
<filter id="filter0_i_40000012_16868" x="1.0148" y="1.49936" width="10.8381" height="13.44" filterUnits="userSpaceOnUse" color-interpolation-filters="sRGB">
<feFlood flood-opacity="0" result="BackgroundImageFix"/>
<feBlend mode="normal" in="SourceGraphic" in2="BackgroundImageFix" result="shape"/>
<feColorMatrix in="SourceAlpha" type="matrix" values="0 0 0 0 0 0 0 0 0 0 0 0 0 0 0 0 0 0 127 0" result="hardAlpha"/>
<feOffset/>
<feGaussianBlur stdDeviation="0.858238"/>
<feComposite in2="hardAlpha" operator="arithmetic" k2="-1" k3="1"/>
<feColorMatrix type="matrix" values="0 0 0 0 0 0 0 0 0 0.339525 0 0 0 0 0.381966 0 0 0 0.2 0"/>
<feBlend mode="normal" in2="shape" result="effect1_innerShadow_40000012_16868"/>
</filter>
<linearGradient id="paint0_linear_40000012_16868" x1="3.21" y1="-3.52023" x2="3.21" y2="17.6844" gradientUnits="userSpaceOnUse">
<stop stop-color="white"/>
<stop offset="0.19" stop-color="white" stop-opacity="0.75"/>
<stop offset="0.41" stop-color="white" stop-opacity="0.49"/>
<stop offset="0.61" stop-color="white" stop-opacity="0.28"/>
<stop offset="0.78" stop-color="white" stop-opacity="0.13"/>
<stop offset="0.92" stop-color="white" stop-opacity="0.03"/>
<stop offset="1" stop-color="white" stop-opacity="0"/>
</linearGradient>
<linearGradient id="paint1_linear_40000012_16868" x1="6.42696" y1="15.0963" x2="6.42696" y2="1.30932" gradientUnits="userSpaceOnUse">
<stop stop-color="#888F90"/>
<stop offset="0.11" stop-color="#C4C4C4"/>
<stop offset="0.16" stop-color="#BDBDBD"/>
<stop offset="0.19" stop-color="#B5B5B5"/>
<stop offset="1" stop-color="#931602"/>
</linearGradient>
</defs>
</svg>
