<svg width="309" height="295" viewBox="0 0 309 295" fill="none" xmlns="http://www.w3.org/2000/svg">
<path d="M153.007 261.39C215.205 261.39 265.626 210.338 265.626 147.363C265.626 84.3876 215.205 33.3361 153.007 33.3361C90.8094 33.3361 40.3882 84.3876 40.3882 147.363C40.3882 210.338 90.8094 261.39 153.007 261.39Z" fill="#69D5DD"/>
<path d="M153.007 261.39C215.205 261.39 265.626 210.338 265.626 147.363C265.626 84.3876 215.205 33.3361 153.007 33.3361C90.8094 33.3361 40.3882 84.3876 40.3882 147.363C40.3882 210.338 90.8094 261.39 153.007 261.39Z" fill="white" fill-opacity="0.7"/>
<path d="M56.5536 209.942C62.1654 209.942 66.7147 205.336 66.7147 199.654C66.7147 193.972 62.1654 189.366 56.5536 189.366C50.9418 189.366 46.3926 193.972 46.3926 199.654C46.3926 205.336 50.9418 209.942 56.5536 209.942Z" fill="#A4E5EA"/>
<path d="M52.6703 255.612C56.1374 255.612 58.9481 252.766 58.9481 249.255C58.9481 245.745 56.1374 242.899 52.6703 242.899C49.2032 242.899 46.3926 245.745 46.3926 249.255C46.3926 252.766 49.2032 255.612 52.6703 255.612Z" fill="#69D5DD"/>
<path d="M52.6703 255.612C56.1374 255.612 58.9481 252.766 58.9481 249.255C58.9481 245.745 56.1374 242.899 52.6703 242.899C49.2032 242.899 46.3926 245.745 46.3926 249.255C46.3926 252.766 49.2032 255.612 52.6703 255.612Z" fill="white" fill-opacity="0.7"/>
<path d="M237.977 98.2922C247.056 98.2922 254.416 90.8403 254.416 81.648C254.416 72.4556 247.056 65.0037 237.977 65.0037C228.898 65.0037 221.539 72.4556 221.539 81.648C221.539 90.8403 228.898 98.2922 237.977 98.2922Z" fill="#A4E5EA"/>
<path d="M258.829 44.6744C261.127 44.6744 262.991 42.7877 262.991 40.4603C262.991 38.1329 261.127 36.2462 258.829 36.2462C256.53 36.2462 254.667 38.1329 254.667 40.4603C254.667 42.7877 256.53 44.6744 258.829 44.6744Z" fill="#69D5DD"/>
<path d="M258.829 44.6744C261.127 44.6744 262.991 42.7877 262.991 40.4603C262.991 38.1329 261.127 36.2462 258.829 36.2462C256.53 36.2462 254.667 38.1329 254.667 40.4603C254.667 42.7877 256.53 44.6744 258.829 44.6744Z" fill="white" fill-opacity="0.7"/>
<path d="M204.474 79.1127C203.376 78.5569 198.16 75.9167 196.925 75.3609C195.827 74.8051 194.318 74.944 192.534 75.7778L88.9161 131.916C85.4851 133.723 82.7402 137.892 82.7402 141.366V216.124C82.7402 217.653 83.2892 218.765 84.2499 219.459C85.3478 220.154 90.8375 222.655 91.6609 223.211C92.7589 223.906 94.4058 223.906 96.3272 222.933L200.082 166.934C203.513 165.127 206.258 160.959 206.258 157.485V82.5867C206.258 80.9192 205.572 79.6686 204.474 79.1127Z" fill="#69D5DD"/>
<path d="M196.927 75.3609C195.829 74.8051 194.32 74.944 192.535 75.7778L88.918 131.916C85.7615 133.584 83.1539 137.475 82.8794 140.81C83.0166 142.06 83.5656 143.033 84.3891 143.589C85.487 144.284 90.9767 146.785 91.8001 147.341C92.898 148.035 94.5449 148.035 96.4663 147.063L200.221 91.0631C203.378 89.3956 205.985 85.5048 206.26 82.1698C206.122 80.7802 205.573 79.6686 204.475 79.2517C203.378 78.6959 198.025 75.9167 196.927 75.3609Z" fill="#70E5E8"/>
<path d="M200.081 167.073L96.3268 223.072C92.8957 224.879 90.1509 223.489 90.1509 220.154V145.395C90.1509 141.921 92.8957 137.753 96.3268 135.946L200.081 79.9464C203.512 78.1399 206.257 79.5295 206.257 82.8645V157.623C206.257 161.097 203.512 165.266 200.081 167.073Z" fill="#56BFC1"/>
<path d="M137.088 168.879L108.679 183.887C107.032 184.72 105.66 184.164 105.66 182.358V148.452C105.66 146.785 107.032 144.562 108.679 143.728L136.951 128.72C138.598 127.887 139.97 128.443 139.97 130.249V164.155C140.107 165.961 138.735 168.045 137.088 168.879Z" fill="white"/>
<path d="M140.107 165.266C137.225 158.18 130.5 155.678 122.678 159.847C115.267 163.877 108.816 172.77 105.66 182.358V183.609C105.66 184.72 106.62 185.137 107.718 184.581L138.186 168.324C139.284 167.768 140.107 166.378 140.107 165.266Z" fill="#635C99"/>
<path d="M122.678 167.489C120.619 168.601 118.972 167.767 118.972 165.683V160.68C118.972 158.596 120.619 155.956 122.678 154.844C124.736 153.732 126.383 154.566 126.383 156.65V161.653C126.383 163.737 124.736 166.377 122.678 167.489Z" fill="#E5B641"/>
<path d="M129.22 154.839C132.144 148.683 131.58 142.264 127.96 140.501C124.339 138.738 119.034 142.298 116.109 148.453C113.185 154.609 113.749 161.028 117.37 162.791C120.99 164.555 126.295 160.994 129.22 154.839Z" fill="#FFCE47"/>
<path d="M122.678 140.948C119.384 142.616 116.639 146.368 115.267 150.536C115.678 150.675 116.09 150.675 116.502 150.536C119.933 149.981 122.54 144.839 125.285 144.7C127.207 144.561 126.52 147.063 128.991 147.757C129.54 147.896 130.363 147.896 131.187 147.896C131.187 147.618 131.187 147.479 131.187 147.202C131.187 141.226 127.344 138.447 122.678 140.948Z" fill="#635C99"/>
<path d="M206.258 153.732L90.2886 216.263V204.869L206.258 142.338V153.732Z" fill="#635C99"/>
<path d="M190.063 100.512L155.067 119.966C153.694 120.661 152.596 122.467 152.596 123.857C152.596 125.246 153.694 125.802 155.067 125.107L190.063 105.653C191.436 104.959 192.534 103.152 192.534 101.763C192.534 100.234 191.436 99.6782 190.063 100.512Z" fill="#635C99"/>
<path d="M190.063 112.185L155.067 131.639C153.694 132.334 152.596 134.14 152.596 135.53C152.596 136.919 153.694 137.475 155.067 136.78L190.063 117.326C191.436 116.631 192.534 114.825 192.534 113.435C192.534 112.046 191.436 111.49 190.063 112.185Z" fill="#635C99"/>
<path d="M190.063 123.996L155.067 143.45C153.694 144.145 152.596 145.951 152.596 147.341C152.596 148.731 153.694 149.286 155.067 148.592L190.063 129.138C191.436 128.443 192.534 126.636 192.534 125.247C192.534 123.857 191.436 123.301 190.063 123.996Z" fill="#635C99"/>
<path d="M190.063 135.808L155.067 155.262C153.694 155.956 152.596 157.763 152.596 159.152C152.596 160.542 153.694 161.098 155.067 160.403L190.063 140.949C191.436 140.254 192.534 138.448 192.534 137.058C192.534 135.669 191.436 135.113 190.063 135.808Z" fill="#635C99"/>
<path d="M239.151 63.7999C239.151 70.3214 238.861 79.8621 238.283 92.422C237.704 104.499 237.415 113.738 237.415 120.138C237.415 121.829 237.511 125.331 237.704 130.645C237.608 132.698 237.029 134.268 235.969 135.355C234.908 136.321 233.654 136.804 232.208 136.804C230.665 136.804 229.267 136.321 228.013 135.355C226.76 134.389 225.988 133.121 225.699 131.551C224.542 121.648 223.963 109.813 223.963 96.0451L224.108 67.7853C224.108 63.3169 224.542 59.6938 225.41 56.9161C226.374 54.0177 228.399 52.5685 231.485 52.5685C234.088 52.5685 236.017 53.6554 237.27 55.8292C238.524 57.8823 239.151 60.5392 239.151 63.7999ZM231.485 146.224C238.042 146.224 241.32 149.304 241.32 155.463C241.32 158.603 240.501 161.502 238.861 164.158C237.319 166.695 235.342 167.963 232.931 167.963C230.038 167.963 227.676 166.876 225.843 164.702C224.011 162.407 223.095 159.75 223.095 156.731C223.095 154.074 223.867 151.659 225.41 149.485C227.049 147.311 229.074 146.224 231.485 146.224Z" fill="#931602"/>
<path d="M242.722 63.7999C242.722 70.3214 242.433 79.8621 241.854 92.422C241.276 104.499 240.986 113.738 240.986 120.138C240.986 121.829 241.083 125.331 241.276 130.645C241.179 132.698 240.601 134.268 239.54 135.355C238.479 136.321 237.226 136.804 235.779 136.804C234.236 136.804 232.838 136.321 231.585 135.355C230.331 134.389 229.56 133.121 229.27 131.551C228.113 121.648 227.535 109.813 227.535 96.0451L227.679 67.7853C227.679 63.3169 228.113 59.6938 228.981 56.9161C229.945 54.0177 231.97 52.5685 235.056 52.5685C237.66 52.5685 239.588 53.6554 240.842 55.8292C242.095 57.8823 242.722 60.5392 242.722 63.7999ZM235.056 146.224C241.613 146.224 244.892 149.304 244.892 155.463C244.892 158.603 244.072 161.502 242.433 164.158C240.89 166.695 238.913 167.963 236.503 167.963C233.61 167.963 231.247 166.876 229.415 164.702C227.583 162.407 226.667 159.75 226.667 156.731C226.667 154.074 227.438 151.659 228.981 149.485C230.62 147.311 232.645 146.224 235.056 146.224Z" fill="#CD4731"/>
</svg>
