<svg width="119" height="23" viewBox="0 0 119 23" fill="none" xmlns="http://www.w3.org/2000/svg">
<ellipse cx="7.8518" cy="11.4" rx="6.70476" ry="6.23377" fill="#003E71"/>
<path d="M8 1.42603L0 5.06239V10.5169C0 15.5624 3.41333 20.2806 8 21.426C12.5867 20.2806 16 15.5624 16 10.5169V5.06239L8 1.42603Z" fill="#003E71"/>
<path fill-rule="evenodd" clip-rule="evenodd" d="M8.07395 6L8.25207 6.08338L13.2866 8.44C13.5009 8.54033 13.5933 8.7954 13.493 9.00972C13.3927 9.22405 13.1376 9.31646 12.9233 9.21614L8.06689 6.94289L3.10441 9.17587C2.88861 9.27298 2.63495 9.17675 2.53784 8.96095C2.44074 8.74515 2.53696 8.49149 2.75276 8.39439L7.89459 6.0807L8.07395 6ZM8.07369 7.71428L8.251 7.79661L11.2503 9.18916C11.465 9.28881 11.5582 9.54359 11.4585 9.75823C11.3589 9.97287 11.1041 10.0661 10.8895 9.96643L8.06745 8.6562L5.13938 9.96878C4.92344 10.0656 4.66991 9.969 4.57312 9.75306C4.47632 9.53713 4.5729 9.2836 4.78883 9.1868L7.89529 7.79425L8.07369 7.71428ZM8.12104 12.6543L12.6766 10.8511V14.7197H8.39182V13.8627C8.39182 13.6261 8.19998 13.4342 7.96334 13.4342C7.7267 13.4342 7.53486 13.6261 7.53486 13.8627V15.1481V15.5766H7.96334H13.1051H13.5335V15.1481V10.3783C13.5335 10.0002 13.1524 9.7411 12.8008 9.88025L7.96501 11.7944L3.23658 9.88293C2.88451 9.74061 2.50025 9.99974 2.50025 10.3795V15.1481C2.50025 15.3848 2.69209 15.5766 2.92873 15.5766C3.16537 15.5766 3.35721 15.3848 3.35721 15.1481V10.856L7.80275 12.6532L7.96166 12.7174L8.12104 12.6543Z" fill="url(#paint0_linear_51_50)"/>
<path fill-rule="evenodd" clip-rule="evenodd" d="M8.07395 6L8.25207 6.08338L13.2866 8.44C13.5009 8.54033 13.5933 8.7954 13.493 9.00972C13.3927 9.22405 13.1376 9.31646 12.9233 9.21614L8.06689 6.94289L3.10441 9.17587C2.88861 9.27298 2.63495 9.17675 2.53784 8.96095C2.44074 8.74515 2.53696 8.49149 2.75276 8.39439L7.89459 6.0807L8.07395 6ZM8.07369 7.71428L8.251 7.79661L11.2503 9.18916C11.465 9.28881 11.5582 9.54359 11.4585 9.75823C11.3589 9.97287 11.1041 10.0661 10.8895 9.96643L8.06745 8.6562L5.13938 9.96878C4.92344 10.0656 4.66991 9.969 4.57312 9.75306C4.47632 9.53713 4.5729 9.2836 4.78883 9.1868L7.89529 7.79425L8.07369 7.71428ZM8.12104 12.6543L12.6766 10.8511V14.7197H8.39182V13.8627C8.39182 13.6261 8.19998 13.4342 7.96334 13.4342C7.7267 13.4342 7.53486 13.6261 7.53486 13.8627V15.1481V15.5766H7.96334H13.1051H13.5335V15.1481V10.3783C13.5335 10.0002 13.1524 9.7411 12.8008 9.88025L7.96501 11.7944L3.23658 9.88293C2.88451 9.74061 2.50025 9.99974 2.50025 10.3795V15.1481C2.50025 15.3848 2.69209 15.5766 2.92873 15.5766C3.16537 15.5766 3.35721 15.3848 3.35721 15.1481V10.856L7.80275 12.6532L7.96166 12.7174L8.12104 12.6543Z" fill="#F1F1F1"/>
<path d="M8.25207 6.08338L8.29748 5.98636L8.29748 5.98636L8.25207 6.08338ZM8.07395 6L8.11936 5.90298L8.07483 5.88214L8.02999 5.90231L8.07395 6ZM13.2866 8.44L13.2412 8.53702L13.2412 8.53702L13.2866 8.44ZM13.493 9.00972L13.396 8.96431L13.396 8.96431L13.493 9.00972ZM12.9233 9.21614L12.8779 9.31315L12.8779 9.31315L12.9233 9.21614ZM8.06689 6.94289L8.1123 6.84587L8.06777 6.82503L8.02293 6.8452L8.06689 6.94289ZM3.10441 9.17587L3.14836 9.27356L3.14836 9.27356L3.10441 9.17587ZM2.75276 8.39439L2.79672 8.49207L2.79672 8.49207L2.75276 8.39439ZM7.89459 6.0807L7.93855 6.17839L7.93855 6.17839L7.89459 6.0807ZM8.251 7.79661L8.20589 7.89377L8.20589 7.89377L8.251 7.79661ZM8.07369 7.71428L8.1188 7.61713L8.07447 7.59654L8.02987 7.61654L8.07369 7.71428ZM11.2503 9.18916L11.2052 9.28632L11.2052 9.28632L11.2503 9.18916ZM11.4585 9.75823L11.3614 9.71312L11.3614 9.71312L11.4585 9.75823ZM10.8895 9.96643L10.9346 9.86927L10.9346 9.86927L10.8895 9.96643ZM8.06745 8.6562L8.11255 8.55904L8.06823 8.53846L8.02363 8.55845L8.06745 8.6562ZM5.13938 9.96878L5.18319 10.0665L5.18319 10.0665L5.13938 9.96878ZM4.57312 9.75306L4.67086 9.70925L4.67086 9.70925L4.57312 9.75306ZM4.78883 9.1868L4.74502 9.08906L4.74502 9.08906L4.78883 9.1868ZM7.89529 7.79425L7.85148 7.6965L7.85148 7.6965L7.89529 7.79425ZM12.6766 10.8511H12.7837V10.6935L12.6372 10.7515L12.6766 10.8511ZM8.12104 12.6543L8.08161 12.5547L8.08161 12.5547L8.12104 12.6543ZM12.6766 14.7197V14.8268H12.7837V14.7197H12.6766ZM8.39182 14.7197H8.2847V14.8268H8.39182V14.7197ZM7.53486 15.5766H7.42774V15.6837H7.53486V15.5766ZM13.5335 15.5766V15.6837H13.6407V15.5766H13.5335ZM12.8008 9.88025L12.7614 9.78065L12.7614 9.78065L12.8008 9.88025ZM7.96501 11.7944L7.92487 11.8937L7.9646 11.9098L8.00444 11.894L7.96501 11.7944ZM3.23658 9.88293L3.27673 9.78362L3.27673 9.78362L3.23658 9.88293ZM3.35721 10.856L3.39735 10.7567L3.25009 10.6972V10.856H3.35721ZM7.80275 12.6532L7.7626 12.7525L7.7626 12.7525L7.80275 12.6532ZM7.96166 12.7174L7.92152 12.8167L7.96125 12.8328L8.00109 12.817L7.96166 12.7174ZM8.29748 5.98636L8.11936 5.90298L8.02853 6.09702L8.20666 6.1804L8.29748 5.98636ZM13.332 8.34299L8.29748 5.98636L8.20666 6.1804L13.2412 8.53702L13.332 8.34299ZM13.59 9.05514C13.7154 8.78723 13.5999 8.46839 13.332 8.34299L13.2412 8.53702C13.4019 8.61226 13.4712 8.80357 13.396 8.96431L13.59 9.05514ZM12.8779 9.31315C13.1458 9.43856 13.4646 9.32304 13.59 9.05514L13.396 8.96431C13.3207 9.12505 13.1294 9.19436 12.9687 9.11912L12.8779 9.31315ZM8.02148 7.03991L12.8779 9.31315L12.9687 9.11912L8.1123 6.84587L8.02148 7.03991ZM3.14836 9.27356L8.11084 7.04058L8.02293 6.8452L3.06045 9.07819L3.14836 9.27356ZM2.44016 9.00491C2.56154 9.27466 2.87861 9.39494 3.14836 9.27356L3.06045 9.07819C2.8986 9.15101 2.70836 9.07885 2.63553 8.917L2.44016 9.00491ZM2.7088 8.2967C2.43905 8.41808 2.31878 8.73516 2.44016 9.00491L2.63553 8.917C2.5627 8.75515 2.63487 8.5649 2.79672 8.49207L2.7088 8.2967ZM7.85064 5.98302L2.7088 8.2967L2.79672 8.49207L7.93855 6.17839L7.85064 5.98302ZM8.02999 5.90231L7.85064 5.98302L7.93855 6.17839L8.1179 6.09769L8.02999 5.90231ZM8.29611 7.69945L8.1188 7.61713L8.02858 7.81144L8.20589 7.89377L8.29611 7.69945ZM11.2955 9.092L8.29611 7.69945L8.20589 7.89377L11.2052 9.28632L11.2955 9.092ZM11.5557 9.80334C11.6803 9.53504 11.5637 9.21657 11.2955 9.092L11.2052 9.28632C11.3662 9.36106 11.4361 9.55214 11.3614 9.71312L11.5557 9.80334ZM10.8444 10.0636C11.1127 10.1882 11.4311 10.0716 11.5557 9.80334L11.3614 9.71312C11.2866 9.8741 11.0956 9.94401 10.9346 9.86927L10.8444 10.0636ZM8.02234 8.75336L10.8444 10.0636L10.9346 9.86927L8.11255 8.55904L8.02234 8.75336ZM5.18319 10.0665L8.11126 8.75395L8.02363 8.55845L5.09556 9.87104L5.18319 10.0665ZM4.47537 9.79688C4.59637 10.0668 4.91327 10.1875 5.18319 10.0665L5.09556 9.87104C4.9336 9.94364 4.74346 9.8712 4.67086 9.70925L4.47537 9.79688ZM4.74502 9.08906C4.47509 9.21006 4.35437 9.52696 4.47537 9.79688L4.67086 9.70925C4.59826 9.54729 4.6707 9.35715 4.83265 9.28455L4.74502 9.08906ZM7.85148 7.6965L4.74502 9.08906L4.83265 9.28455L7.93911 7.892L7.85148 7.6965ZM8.02987 7.61654L7.85148 7.6965L7.93911 7.892L8.1175 7.81203L8.02987 7.61654ZM12.6372 10.7515L8.08161 12.5547L8.16046 12.7539L12.716 10.9507L12.6372 10.7515ZM12.7837 14.7197V10.8511H12.5695V14.7197H12.7837ZM8.39182 14.8268H12.6766V14.6125H8.39182V14.8268ZM8.2847 13.8627V14.7197H8.49894V13.8627H8.2847ZM7.96334 13.5413C8.14082 13.5413 8.2847 13.6852 8.2847 13.8627H8.49894C8.49894 13.5669 8.25914 13.3271 7.96334 13.3271V13.5413ZM7.64198 13.8627C7.64198 13.6852 7.78586 13.5413 7.96334 13.5413V13.3271C7.66754 13.3271 7.42774 13.5669 7.42774 13.8627H7.64198ZM7.64198 15.1481V13.8627H7.42774V15.1481H7.64198ZM7.64198 15.5766V15.1481H7.42774V15.5766H7.64198ZM7.96334 15.4695H7.53486V15.6837H7.96334V15.4695ZM13.1051 15.4695H7.96334V15.6837H13.1051V15.4695ZM13.5335 15.4695H13.1051V15.6837H13.5335V15.4695ZM13.4264 15.1481V15.5766H13.6407V15.1481H13.4264ZM13.4264 10.3783V15.1481H13.6407V10.3783H13.4264ZM12.8402 9.97985C13.1215 9.86853 13.4264 10.0758 13.4264 10.3783H13.6407C13.6407 9.92454 13.1833 9.61366 12.7614 9.78065L12.8402 9.97985ZM8.00444 11.894L12.8402 9.97985L12.7614 9.78065L7.92559 11.6948L8.00444 11.894ZM3.19644 9.98225L7.92487 11.8937L8.00516 11.6951L3.27673 9.78362L3.19644 9.98225ZM2.60737 10.3795C2.60737 10.0757 2.91478 9.86838 3.19644 9.98225L3.27673 9.78362C2.85424 9.61283 2.39313 9.92379 2.39313 10.3795H2.60737ZM2.60737 15.1481V10.3795H2.39313V15.1481H2.60737ZM2.92873 15.4695C2.75125 15.4695 2.60737 15.3256 2.60737 15.1481H2.39313C2.39313 15.4439 2.63293 15.6837 2.92873 15.6837V15.4695ZM3.25009 15.1481C3.25009 15.3256 3.10621 15.4695 2.92873 15.4695V15.6837C3.22453 15.6837 3.46433 15.4439 3.46433 15.1481H3.25009ZM3.25009 10.856V15.1481H3.46433V10.856H3.25009ZM7.8429 12.5538L3.39735 10.7567L3.31706 10.9553L7.7626 12.7525L7.8429 12.5538ZM8.00181 12.6181L7.8429 12.5538L7.7626 12.7525L7.92152 12.8167L8.00181 12.6181ZM8.08161 12.5547L7.92224 12.6178L8.00109 12.817L8.16046 12.7539L8.08161 12.5547Z" fill="url(#paint1_linear_51_50)"/>
<path d="M8.25207 6.08338L8.29748 5.98636L8.29748 5.98636L8.25207 6.08338ZM8.07395 6L8.11936 5.90298L8.07483 5.88214L8.02999 5.90231L8.07395 6ZM13.2866 8.44L13.2412 8.53702L13.2412 8.53702L13.2866 8.44ZM13.493 9.00972L13.396 8.96431L13.396 8.96431L13.493 9.00972ZM12.9233 9.21614L12.8779 9.31315L12.8779 9.31315L12.9233 9.21614ZM8.06689 6.94289L8.1123 6.84587L8.06777 6.82503L8.02293 6.8452L8.06689 6.94289ZM3.10441 9.17587L3.14836 9.27356L3.14836 9.27356L3.10441 9.17587ZM2.75276 8.39439L2.79672 8.49207L2.79672 8.49207L2.75276 8.39439ZM7.89459 6.0807L7.93855 6.17839L7.93855 6.17839L7.89459 6.0807ZM8.251 7.79661L8.20589 7.89377L8.20589 7.89377L8.251 7.79661ZM8.07369 7.71428L8.1188 7.61713L8.07447 7.59654L8.02987 7.61654L8.07369 7.71428ZM11.2503 9.18916L11.2052 9.28632L11.2052 9.28632L11.2503 9.18916ZM11.4585 9.75823L11.3614 9.71312L11.3614 9.71312L11.4585 9.75823ZM10.8895 9.96643L10.9346 9.86927L10.9346 9.86927L10.8895 9.96643ZM8.06745 8.6562L8.11255 8.55904L8.06823 8.53846L8.02363 8.55845L8.06745 8.6562ZM5.13938 9.96878L5.18319 10.0665L5.18319 10.0665L5.13938 9.96878ZM4.57312 9.75306L4.67086 9.70925L4.67086 9.70925L4.57312 9.75306ZM4.78883 9.1868L4.74502 9.08906L4.74502 9.08906L4.78883 9.1868ZM7.89529 7.79425L7.85148 7.6965L7.85148 7.6965L7.89529 7.79425ZM12.6766 10.8511H12.7837V10.6935L12.6372 10.7515L12.6766 10.8511ZM8.12104 12.6543L8.08161 12.5547L8.08161 12.5547L8.12104 12.6543ZM12.6766 14.7197V14.8268H12.7837V14.7197H12.6766ZM8.39182 14.7197H8.2847V14.8268H8.39182V14.7197ZM7.53486 15.5766H7.42774V15.6837H7.53486V15.5766ZM13.5335 15.5766V15.6837H13.6407V15.5766H13.5335ZM12.8008 9.88025L12.7614 9.78065L12.7614 9.78065L12.8008 9.88025ZM7.96501 11.7944L7.92487 11.8937L7.9646 11.9098L8.00444 11.894L7.96501 11.7944ZM3.23658 9.88293L3.27673 9.78362L3.27673 9.78362L3.23658 9.88293ZM3.35721 10.856L3.39735 10.7567L3.25009 10.6972V10.856H3.35721ZM7.80275 12.6532L7.7626 12.7525L7.7626 12.7525L7.80275 12.6532ZM7.96166 12.7174L7.92152 12.8167L7.96125 12.8328L8.00109 12.817L7.96166 12.7174ZM8.29748 5.98636L8.11936 5.90298L8.02853 6.09702L8.20666 6.1804L8.29748 5.98636ZM13.332 8.34299L8.29748 5.98636L8.20666 6.1804L13.2412 8.53702L13.332 8.34299ZM13.59 9.05514C13.7154 8.78723 13.5999 8.46839 13.332 8.34299L13.2412 8.53702C13.4019 8.61226 13.4712 8.80357 13.396 8.96431L13.59 9.05514ZM12.8779 9.31315C13.1458 9.43856 13.4646 9.32304 13.59 9.05514L13.396 8.96431C13.3207 9.12505 13.1294 9.19436 12.9687 9.11912L12.8779 9.31315ZM8.02148 7.03991L12.8779 9.31315L12.9687 9.11912L8.1123 6.84587L8.02148 7.03991ZM3.14836 9.27356L8.11084 7.04058L8.02293 6.8452L3.06045 9.07819L3.14836 9.27356ZM2.44016 9.00491C2.56154 9.27466 2.87861 9.39494 3.14836 9.27356L3.06045 9.07819C2.8986 9.15101 2.70836 9.07885 2.63553 8.917L2.44016 9.00491ZM2.7088 8.2967C2.43905 8.41808 2.31878 8.73516 2.44016 9.00491L2.63553 8.917C2.5627 8.75515 2.63487 8.5649 2.79672 8.49207L2.7088 8.2967ZM7.85064 5.98302L2.7088 8.2967L2.79672 8.49207L7.93855 6.17839L7.85064 5.98302ZM8.02999 5.90231L7.85064 5.98302L7.93855 6.17839L8.1179 6.09769L8.02999 5.90231ZM8.29611 7.69945L8.1188 7.61713L8.02858 7.81144L8.20589 7.89377L8.29611 7.69945ZM11.2955 9.092L8.29611 7.69945L8.20589 7.89377L11.2052 9.28632L11.2955 9.092ZM11.5557 9.80334C11.6803 9.53504 11.5637 9.21657 11.2955 9.092L11.2052 9.28632C11.3662 9.36106 11.4361 9.55214 11.3614 9.71312L11.5557 9.80334ZM10.8444 10.0636C11.1127 10.1882 11.4311 10.0716 11.5557 9.80334L11.3614 9.71312C11.2866 9.8741 11.0956 9.94401 10.9346 9.86927L10.8444 10.0636ZM8.02234 8.75336L10.8444 10.0636L10.9346 9.86927L8.11255 8.55904L8.02234 8.75336ZM5.18319 10.0665L8.11126 8.75395L8.02363 8.55845L5.09556 9.87104L5.18319 10.0665ZM4.47537 9.79688C4.59637 10.0668 4.91327 10.1875 5.18319 10.0665L5.09556 9.87104C4.9336 9.94364 4.74346 9.8712 4.67086 9.70925L4.47537 9.79688ZM4.74502 9.08906C4.47509 9.21006 4.35437 9.52696 4.47537 9.79688L4.67086 9.70925C4.59826 9.54729 4.6707 9.35715 4.83265 9.28455L4.74502 9.08906ZM7.85148 7.6965L4.74502 9.08906L4.83265 9.28455L7.93911 7.892L7.85148 7.6965ZM8.02987 7.61654L7.85148 7.6965L7.93911 7.892L8.1175 7.81203L8.02987 7.61654ZM12.6372 10.7515L8.08161 12.5547L8.16046 12.7539L12.716 10.9507L12.6372 10.7515ZM12.7837 14.7197V10.8511H12.5695V14.7197H12.7837ZM8.39182 14.8268H12.6766V14.6125H8.39182V14.8268ZM8.2847 13.8627V14.7197H8.49894V13.8627H8.2847ZM7.96334 13.5413C8.14082 13.5413 8.2847 13.6852 8.2847 13.8627H8.49894C8.49894 13.5669 8.25914 13.3271 7.96334 13.3271V13.5413ZM7.64198 13.8627C7.64198 13.6852 7.78586 13.5413 7.96334 13.5413V13.3271C7.66754 13.3271 7.42774 13.5669 7.42774 13.8627H7.64198ZM7.64198 15.1481V13.8627H7.42774V15.1481H7.64198ZM7.64198 15.5766V15.1481H7.42774V15.5766H7.64198ZM7.96334 15.4695H7.53486V15.6837H7.96334V15.4695ZM13.1051 15.4695H7.96334V15.6837H13.1051V15.4695ZM13.5335 15.4695H13.1051V15.6837H13.5335V15.4695ZM13.4264 15.1481V15.5766H13.6407V15.1481H13.4264ZM13.4264 10.3783V15.1481H13.6407V10.3783H13.4264ZM12.8402 9.97985C13.1215 9.86853 13.4264 10.0758 13.4264 10.3783H13.6407C13.6407 9.92454 13.1833 9.61366 12.7614 9.78065L12.8402 9.97985ZM8.00444 11.894L12.8402 9.97985L12.7614 9.78065L7.92559 11.6948L8.00444 11.894ZM3.19644 9.98225L7.92487 11.8937L8.00516 11.6951L3.27673 9.78362L3.19644 9.98225ZM2.60737 10.3795C2.60737 10.0757 2.91478 9.86838 3.19644 9.98225L3.27673 9.78362C2.85424 9.61283 2.39313 9.92379 2.39313 10.3795H2.60737ZM2.60737 15.1481V10.3795H2.39313V15.1481H2.60737ZM2.92873 15.4695C2.75125 15.4695 2.60737 15.3256 2.60737 15.1481H2.39313C2.39313 15.4439 2.63293 15.6837 2.92873 15.6837V15.4695ZM3.25009 15.1481C3.25009 15.3256 3.10621 15.4695 2.92873 15.4695V15.6837C3.22453 15.6837 3.46433 15.4439 3.46433 15.1481H3.25009ZM3.25009 10.856V15.1481H3.46433V10.856H3.25009ZM7.8429 12.5538L3.39735 10.7567L3.31706 10.9553L7.7626 12.7525L7.8429 12.5538ZM8.00181 12.6181L7.8429 12.5538L7.7626 12.7525L7.92152 12.8167L8.00181 12.6181ZM8.08161 12.5547L7.92224 12.6178L8.00109 12.817L8.16046 12.7539L8.08161 12.5547Z" fill="#F1F1F1"/>
<path d="M25.8396 10.94V12.476H19.2636V10.94H25.8396ZM38.015 6.38L33.839 17.5H31.727L27.535 6.38H29.487L32.783 15.628L36.095 6.38H38.015ZM47.6204 12.876C47.6204 13.2067 47.5991 13.5053 47.5564 13.772H40.8204C40.8737 14.476 41.1351 15.0413 41.6044 15.468C42.0737 15.8947 42.6497 16.108 43.3324 16.108C44.3137 16.108 45.0071 15.6973 45.4124 14.876H47.3804C47.1137 15.6867 46.6284 16.3533 45.9244 16.876C45.2311 17.388 44.3671 17.644 43.3324 17.644C42.4897 17.644 41.7324 17.4573 41.0604 17.084C40.3991 16.7 39.8764 16.1667 39.4924 15.484C39.1191 14.7907 38.9324 13.9907 38.9324 13.084C38.9324 12.1773 39.1137 11.3827 39.4764 10.7C39.8497 10.0067 40.3671 9.47333 41.0284 9.1C41.7004 8.72667 42.4684 8.54 43.3324 8.54C44.1644 8.54 44.9057 8.72133 45.5564 9.084C46.2071 9.44667 46.7137 9.95867 47.0764 10.62C47.4391 11.2707 47.6204 12.0227 47.6204 12.876ZM45.7164 12.3C45.7057 11.628 45.4657 11.0893 44.9964 10.684C44.5271 10.2787 43.9457 10.076 43.2524 10.076C42.6231 10.076 42.0844 10.2787 41.6364 10.684C41.1884 11.0787 40.9217 11.6173 40.8364 12.3H45.7164ZM51.2394 9.964C51.5061 9.516 51.8581 9.16933 52.2954 8.924C52.7434 8.668 53.2714 8.54 53.8794 8.54V10.428H53.4154C52.7007 10.428 52.1567 10.6093 51.7834 10.972C51.4207 11.3347 51.2394 11.964 51.2394 12.86V17.5H49.4154V8.684H51.2394V9.964ZM56.484 7.516C56.1534 7.516 55.876 7.404 55.652 7.18C55.428 6.956 55.316 6.67867 55.316 6.348C55.316 6.01733 55.428 5.74 55.652 5.516C55.876 5.292 56.1534 5.18 56.484 5.18C56.804 5.18 57.076 5.292 57.3 5.516C57.524 5.74 57.636 6.01733 57.636 6.348C57.636 6.67867 57.524 6.956 57.3 7.18C57.076 7.404 56.804 7.516 56.484 7.516ZM57.38 8.684V17.5H55.556V8.684H57.38ZM63.4708 10.172H61.8388V17.5H59.9988V10.172H58.9588V8.684H59.9988V8.06C59.9988 7.04667 60.2654 6.31067 60.7988 5.852C61.3428 5.38267 62.1908 5.148 63.3428 5.148V6.668C62.7881 6.668 62.3988 6.77467 62.1748 6.988C61.9508 7.19067 61.8388 7.548 61.8388 8.06V8.684H63.4708V10.172ZM66.0153 7.516C65.6846 7.516 65.4073 7.404 65.1833 7.18C64.9593 6.956 64.8473 6.67867 64.8473 6.348C64.8473 6.01733 64.9593 5.74 65.1833 5.516C65.4073 5.292 65.6846 5.18 66.0153 5.18C66.3353 5.18 66.6073 5.292 66.8313 5.516C67.0553 5.74 67.1673 6.01733 67.1673 6.348C67.1673 6.67867 67.0553 6.956 66.8313 7.18C66.6073 7.404 66.3353 7.516 66.0153 7.516ZM66.9113 8.684V17.5H65.0873V8.684H66.9113ZM68.698 13.084C68.698 12.1773 68.8794 11.3827 69.242 10.7C69.6154 10.0067 70.1274 9.47333 70.778 9.1C71.4287 8.72667 72.1754 8.54 73.018 8.54C74.0847 8.54 74.9647 8.796 75.658 9.308C76.362 9.80933 76.8367 10.5293 77.082 11.468H75.114C74.954 11.0307 74.698 10.6893 74.346 10.444C73.994 10.1987 73.5514 10.076 73.018 10.076C72.2714 10.076 71.674 10.3427 71.226 10.876C70.7887 11.3987 70.57 12.1347 70.57 13.084C70.57 14.0333 70.7887 14.7747 71.226 15.308C71.674 15.8413 72.2714 16.108 73.018 16.108C74.074 16.108 74.7727 15.644 75.114 14.716H77.082C76.826 15.612 76.346 16.3267 75.642 16.86C74.938 17.3827 74.0634 17.644 73.018 17.644C72.1754 17.644 71.4287 17.4573 70.778 17.084C70.1274 16.7 69.6154 16.1667 69.242 15.484C68.8794 14.7907 68.698 13.9907 68.698 13.084ZM78.2918 13.052C78.2918 12.1667 78.4731 11.3827 78.8358 10.7C79.2091 10.0173 79.7104 9.48933 80.3398 9.116C80.9798 8.732 81.6838 8.54 82.4518 8.54C83.1451 8.54 83.7478 8.67867 84.2598 8.956C84.7824 9.22267 85.1984 9.55867 85.5078 9.964V8.684H87.3478V17.5H85.5078V16.188C85.1984 16.604 84.7771 16.9507 84.2438 17.228C83.7104 17.5053 83.1024 17.644 82.4198 17.644C81.6624 17.644 80.9691 17.452 80.3398 17.068C79.7104 16.6733 79.2091 16.1293 78.8358 15.436C78.4731 14.732 78.2918 13.9373 78.2918 13.052ZM85.5078 13.084C85.5078 12.476 85.3798 11.948 85.1238 11.5C84.8784 11.052 84.5531 10.7107 84.1478 10.476C83.7424 10.2413 83.3051 10.124 82.8358 10.124C82.3664 10.124 81.9291 10.2413 81.5238 10.476C81.1184 10.7 80.7878 11.036 80.5318 11.484C80.2864 11.9213 80.1638 12.444 80.1638 13.052C80.1638 13.66 80.2864 14.1933 80.5318 14.652C80.7878 15.1107 81.1184 15.4627 81.5238 15.708C81.9398 15.9427 82.3771 16.06 82.8358 16.06C83.3051 16.06 83.7424 15.9427 84.1478 15.708C84.5531 15.4733 84.8784 15.132 85.1238 14.684C85.3798 14.2253 85.5078 13.692 85.5078 13.084ZM91.8715 10.172V15.052C91.8715 15.3827 91.9462 15.6227 92.0955 15.772C92.2555 15.9107 92.5222 15.98 92.8955 15.98H94.0155V17.5H92.5755C91.7542 17.5 91.1249 17.308 90.6875 16.924C90.2502 16.54 90.0315 15.916 90.0315 15.052V10.172H88.9915V8.684H90.0315V6.492H91.8715V8.684H94.0155V10.172H91.8715ZM96.6246 7.516C96.294 7.516 96.0166 7.404 95.7926 7.18C95.5686 6.956 95.4566 6.67867 95.4566 6.348C95.4566 6.01733 95.5686 5.74 95.7926 5.516C96.0166 5.292 96.294 5.18 96.6246 5.18C96.9446 5.18 97.2166 5.292 97.4406 5.516C97.6646 5.74 97.7766 6.01733 97.7766 6.348C97.7766 6.67867 97.6646 6.956 97.4406 7.18C97.2166 7.404 96.9446 7.516 96.6246 7.516ZM97.5206 8.684V17.5H95.6966V8.684H97.5206ZM103.739 17.644C102.907 17.644 102.155 17.4573 101.483 17.084C100.811 16.7 100.283 16.1667 99.8994 15.484C99.5154 14.7907 99.3234 13.9907 99.3234 13.084C99.3234 12.188 99.5207 11.3933 99.9154 10.7C100.31 10.0067 100.849 9.47333 101.531 9.1C102.214 8.72667 102.977 8.54 103.819 8.54C104.662 8.54 105.425 8.72667 106.107 9.1C106.79 9.47333 107.329 10.0067 107.723 10.7C108.118 11.3933 108.315 12.188 108.315 13.084C108.315 13.98 108.113 14.7747 107.707 15.468C107.302 16.1613 106.747 16.7 106.043 17.084C105.35 17.4573 104.582 17.644 103.739 17.644ZM103.739 16.06C104.209 16.06 104.646 15.948 105.051 15.724C105.467 15.5 105.803 15.164 106.059 14.716C106.315 14.268 106.443 13.724 106.443 13.084C106.443 12.444 106.321 11.9053 106.075 11.468C105.83 11.02 105.505 10.684 105.099 10.46C104.694 10.236 104.257 10.124 103.787 10.124C103.318 10.124 102.881 10.236 102.475 10.46C102.081 10.684 101.766 11.02 101.531 11.468C101.297 11.9053 101.179 12.444 101.179 13.084C101.179 14.0333 101.419 14.7693 101.899 15.292C102.39 15.804 103.003 16.06 103.739 16.06ZM114.567 8.54C115.26 8.54 115.879 8.684 116.423 8.972C116.977 9.26 117.409 9.68667 117.719 10.252C118.028 10.8173 118.183 11.5 118.183 12.3V17.5H116.375V12.572C116.375 11.7827 116.177 11.18 115.783 10.764C115.388 10.3373 114.849 10.124 114.167 10.124C113.484 10.124 112.94 10.3373 112.535 10.764C112.14 11.18 111.943 11.7827 111.943 12.572V17.5H110.119V8.684H111.943V9.692C112.241 9.32933 112.62 9.04667 113.079 8.844C113.548 8.64133 114.044 8.54 114.567 8.54Z" fill="black"/>
<defs>
<linearGradient id="paint0_linear_51_50" x1="2.92043" y1="8.50667" x2="13.5475" y2="15.2827" gradientUnits="userSpaceOnUse">
<stop stop-color="#00FBAA"/>
<stop offset="1" stop-color="#2A58D9"/>
</linearGradient>
<linearGradient id="paint1_linear_51_50" x1="2.91376" y1="7.1634" x2="7.86631" y2="17.1058" gradientUnits="userSpaceOnUse">
<stop stop-color="#00FBAA"/>
<stop offset="1" stop-color="#0D4DFF"/>
</linearGradient>
</defs>
</svg>
