<svg width="12" height="12" viewBox="0 0 12 12" fill="none" xmlns="http://www.w3.org/2000/svg">
<path d="M11.4237 3.43359C10.9339 2.39547 10.1583 1.52374 9.18105 0.912116C7.82186 0.063813 6.21193 -0.205675 4.65121 0.155205C3.09049 0.513741 1.76176 1.46047 0.913444 2.81962C0.0627809 4.17878 -0.206713 5.78634 0.154174 7.34937C0.515062 8.91006 1.46181 10.2388 2.81865 11.0871C3.77477 11.6846 4.87149 12.001 5.99399 12.001H6.06664C7.18445 11.9869 8.2718 11.6635 9.21386 11.0683C9.48804 10.8949 9.56771 10.534 9.3943 10.2598C9.22089 9.98567 8.86 9.906 8.58582 10.0794C7.82889 10.5598 6.95245 10.8199 6.05258 10.8316C5.12927 10.8433 4.22705 10.5879 3.43966 10.0982C2.34528 9.41389 1.58366 8.34531 1.29542 7.08926C1.00718 5.83321 1.22278 4.53966 1.90706 3.44531C3.3178 1.18863 6.30332 0.499681 8.56004 1.91039C9.34743 2.4025 9.97078 3.10317 10.3645 3.93742C10.7488 4.75057 10.8988 5.65277 10.798 6.54325C10.7629 6.86429 10.9925 7.15487 11.3159 7.19002C11.637 7.22517 11.9275 6.99552 11.9627 6.67214C12.0869 5.56372 11.8994 4.44358 11.4237 3.43359Z" fill="#931602"/>
<path d="M7.93505 3.96535L5.10981 6.79053L4.06264 5.74338C3.83306 5.51381 3.46292 5.51381 3.23334 5.74338C3.00376 5.97296 3.00376 6.34309 3.23334 6.57267L4.69516 8.03445C4.80995 8.14924 4.95988 8.20546 5.10981 8.20546C5.25974 8.20546 5.40967 8.14924 5.52446 8.03445L8.762 4.79463C8.99158 4.56505 8.99158 4.19492 8.762 3.96535C8.53242 3.73811 8.16228 3.73811 7.93505 3.96535Z" fill="#931602"/>
</svg>
