<svg width="40" height="40" viewBox="0 0 20 20" fill="none" xmlns="http://www.w3.org/2000/svg">
<path d="M19.0322 1.89796C19.3389 1.5912 19.3389 1.09385 19.0322 0.787097C18.7254 0.480342 18.2281 0.480342 17.9213 0.787097L0.788075 17.9203C0.481319 18.2271 0.481319 18.7244 0.788074 19.0312C1.09483 19.3379 1.59218 19.3379 1.89894 19.0312L19.0322 1.89796Z" fill="black" stroke="black" stroke-width="0.8" stroke-linecap="round" stroke-linejoin="round"/>
<path d="M0.787657 0.787099L1.0705 1.06994L0.787659 0.787097C1.09442 0.480342 1.59176 0.480342 1.89852 0.787097L19.0317 17.9203C19.3385 18.2271 19.3385 18.7244 19.0318 19.0312L18.7489 18.7483L19.0317 19.0312C18.725 19.3379 18.2276 19.3379 17.9209 19.0312L18.2037 18.7483L17.9209 19.0312L0.787659 1.89796L1.0705 1.61512L0.787657 1.89796C0.480904 1.5912 0.480904 1.09385 0.787657 0.787099Z" fill="black" stroke="black" stroke-width="0.8" stroke-linecap="round" stroke-linejoin="round"/>
</svg>
