<svg width="24" height="24" viewBox="0 0 24 24" fill="none" xmlns="http://www.w3.org/2000/svg">
<path d="M15.7771 17.2008C15.9104 17.0675 15.7771 17.2008 15.3772 16.001C14.8713 14.4835 13.7775 13.6016 10.9781 13.6016C9.25956 13.6016 8.37309 13.9941 7.81271 14.4176C7.5165 14.6415 7.37891 15.0099 7.37891 15.3812V19.791C7.37891 20.3936 7.76226 20.933 8.34201 21.0974C10.1095 21.5985 12.8609 22.1301 15.7771 21.5998C19.2963 20.96 20.4618 19.2004 20.976 18.0006C22.1757 15.2012 20.5761 14.1614 19.7762 14.8013C17.7767 16.401 17.7767 17.2008 15.7771 17.2008ZM15.7771 17.2008H12.1779" stroke="#931602" stroke-width="1.5" stroke-linecap="round"/>
<path d="M2.58008 14.0015C2.58008 13.118 3.29627 12.4019 4.17973 12.4019H5.77939C6.66286 12.4019 7.37905 13.118 7.37905 14.0015V20.4001C7.37905 21.2836 6.66286 21.9998 5.77939 21.9998H4.17974C3.29627 21.9998 2.58008 21.2836 2.58008 20.4001V14.0015Z" stroke="#931602" stroke-width="1.5"/>
<g clip-path="url(#clip0_4079_51584)">
<path d="M15.5833 1C14.3247 1 13.2917 2.03321 13.2917 3.2912C13.2917 3.9699 13.5927 4.58285 14.0673 5.00376C12.2756 5.66712 11 7.46959 11 9.55572C11 9.71775 11.0644 9.87314 11.1791 9.98771C11.2937 10.1023 11.4492 10.1667 11.6113 10.1667H14.5519C14.6721 9.72266 14.8645 9.30959 15.1182 8.94481H12.271C12.5413 7.22856 13.9312 5.95329 15.5833 5.95329C15.8123 5.95329 16.036 5.97861 16.2526 6.02537C16.327 5.27888 16.8562 4.65982 17.5565 4.45032C17.7585 4.10957 17.875 3.71312 17.875 3.2912C17.875 2.03321 16.8419 1 15.5833 1ZM15.5833 2.22185C16.1808 2.22185 16.6524 2.69317 16.6524 3.2912C16.6524 3.88923 16.1808 4.36062 15.5833 4.36062C14.9858 4.36062 14.5142 3.88923 14.5142 3.2912C14.5142 2.69317 14.9858 2.22185 15.5833 2.22185Z" fill="#931602"/>
<path d="M18.3327 8.00413C18.2936 8.00413 18.2547 8.00484 18.216 8.00624L18.1775 7.97214C18.2285 7.97735 18.2802 7.98001 18.3327 7.98001C18.3851 7.98001 18.4369 7.97734 18.4879 7.97214L18.4494 8.00624C18.4107 8.00484 18.3718 8.00413 18.3327 8.00413Z" fill="#931602" stroke="#931602" stroke-width="1.25"/>
</g>
<defs>
<clipPath id="clip0_4079_51584">
<rect width="11" height="11" fill="white" transform="translate(11 1)"/>
</clipPath>
</defs>
</svg>
