<svg width="15" height="17" viewBox="0 0 15 17" fill="none" xmlns="http://www.w3.org/2000/svg">
<path d="M7.28571 0.75C9.01909 0.75 10.6815 1.43858 11.9072 2.66427C13.1328 3.88995 13.8214 5.55234 13.8214 7.28571C13.8214 9.9182 11.796 12.8821 7.32143 16.2381C7.31113 16.2458 7.29859 16.25 7.28571 16.25C7.27283 16.25 7.2603 16.2458 7.25 16.2381C2.77539 12.8821 0.75 9.9182 0.75 7.28571C0.75 5.55233 1.43858 3.88995 2.66427 2.66427C3.88995 1.43858 5.55234 0.75 7.28571 0.75ZM7.28571 4.10714C6.4427 4.10714 5.63422 4.44203 5.03812 5.03813C4.44203 5.63422 4.10714 6.4427 4.10714 7.28571C4.10714 8.12872 4.44203 8.93721 5.03812 9.5333C5.63422 10.1294 6.44271 10.4643 7.28571 10.4643C8.12872 10.4643 8.93721 10.1294 9.5333 9.5333C10.1294 8.93721 10.4643 8.12872 10.4643 7.28571C10.4643 6.4427 10.1294 5.63422 9.5333 5.03813C8.93721 4.44203 8.12872 4.10714 7.28571 4.10714Z" stroke="#931602" stroke-width="1.5"/>
</svg>
