<svg width="18" height="18" viewBox="0 0 18 18" fill="none" xmlns="http://www.w3.org/2000/svg">
<path d="M6.23 3.84455C4.8059 4.4854 3.64807 5.60022 2.95378 6.99904C2.25949 8.39787 2.07171 9.99415 2.42242 11.5159C2.77314 13.0377 3.64065 14.3907 4.87715 15.3446C6.11365 16.2984 7.64263 16.794 9.20357 16.7469C10.7645 16.6998 12.2608 16.113 13.4376 15.0863C14.6143 14.0596 15.3987 12.6567 15.657 11.1166C15.9153 9.57647 15.6317 7.99441 14.8543 6.63998C14.0769 5.28556 12.854 4.24258 11.3939 3.68874" stroke="#C88E20" stroke-width="1.5" stroke-linecap="round"/>
<path d="M9 10L4.5 5.5" stroke="#C88E20" stroke-width="1.5" stroke-linecap="round"/>
<path d="M12.4756 0.939473C12.6073 0.904144 12.8148 0.939537 13.0658 1.04017C13.3168 1.14079 13.5972 1.30103 13.8637 1.49603C14.1302 1.69102 14.3678 1.90988 14.5396 2.11866C14.7114 2.32743 14.8079 2.51446 14.8141 2.65072" stroke="#C88E20" stroke-linecap="round"/>
<path d="M2.26644 2.89168C2.26937 2.7553 2.36136 2.56602 2.52815 2.35319C2.69495 2.14037 2.92723 1.91589 3.18896 1.71457C3.45069 1.51325 3.72725 1.34635 3.97575 1.23974C4.22425 1.13314 4.4308 1.09279 4.56336 1.12496" stroke="#C88E20" stroke-linecap="round"/>
</svg>
