<svg width="15" height="16" viewBox="0 0 15 16" fill="none" xmlns="http://www.w3.org/2000/svg">
<g clip-path="url(#clip0_5385_5572)">
<path d="M4.64565 10.8544L4.64575 10.8544C5.74426 11.9525 6.97053 12.8075 8.32378 13.4122C9.67817 14.0175 11.0616 14.325 12.4688 14.325C12.8294 14.325 13.1676 14.1973 13.4325 13.9325C13.6973 13.6676 13.825 13.3294 13.825 12.9688V10.4375C13.825 10.1237 13.7105 9.84259 13.5163 9.61557C13.3284 9.39601 13.0881 9.24805 12.8173 9.17068L12.791 9.16317L12.7642 9.15773L10.6079 8.72023L10.589 8.71639L10.57 8.71361C10.313 8.67606 10.059 8.7009 9.81569 8.77664C9.57715 8.85089 9.34942 8.97313 9.16128 9.16128L8.08368 10.2389C7.88007 10.105 7.68321 9.96389 7.49302 9.81555C7.16186 9.55724 6.84481 9.27674 6.54185 8.97378L6.54191 8.97372L6.53419 8.96623C6.21051 8.65235 5.91552 8.32793 5.64866 7.9931C5.49918 7.80553 5.36196 7.61487 5.23678 7.42112L6.37145 6.27475C6.54083 6.10486 6.65935 5.89904 6.72221 5.66856L6.04688 5.48438L6.72221 5.66856C6.78528 5.4373 6.78492 5.1983 6.75709 4.97568L6.75452 4.95509L6.75073 4.93469L6.34605 2.75563C6.29476 2.44397 6.13367 2.18698 5.91121 1.99445C5.67484 1.78988 5.38363 1.675 5.0625 1.675H2.53125C2.1706 1.675 1.83238 1.80267 1.56753 2.06753C1.30267 2.33238 1.175 2.6706 1.175 3.03125L1.175 3.03147C1.17545 4.4385 1.48294 5.82176 2.08771 7.17605C2.69207 8.52944 3.5471 9.7558 4.64565 10.8544Z" stroke="#931602" stroke-width="1.4"/>
</g>
<defs>
<clipPath id="clip0_5385_5572">
<rect width="15" height="15" fill="white" transform="translate(0 0.5)"/>
</clipPath>
</defs>
</svg>
