<svg xmlns="http://www.w3.org/2000/svg" width="9" height="16" viewBox="0 0 9 16" fill="none">
<path d="M0.223592 1.3416C0.152169 1.26602 0.0963334 1.17711 0.0592711 1.07995C0.0222088 0.982788 0.00464609 0.879279 0.00758661 0.775331C0.0105271 0.671384 0.033913 0.569034 0.0764087 0.474124C0.118904 0.379214 0.179678 0.293604 0.255259 0.222182C0.33084 0.150759 0.419749 0.0949224 0.51691 0.0578602C0.61407 0.0207979 0.717578 0.00323552 0.821525 0.00617604C0.925473 0.00911657 1.02782 0.0325023 1.12273 0.0749979C1.21764 0.117494 1.30325 0.178267 1.37468 0.253848L8.10384 7.37885C8.24281 7.52584 8.32024 7.72044 8.32024 7.92272C8.32024 8.125 8.24281 8.31961 8.10384 8.4666L1.37468 15.5924C1.30372 15.6696 1.21813 15.732 1.12287 15.7759C1.02762 15.8197 0.924588 15.8443 0.819776 15.848C0.714964 15.8517 0.610456 15.8346 0.512324 15.7976C0.414191 15.7606 0.32439 15.7044 0.248136 15.6324C0.171882 15.5604 0.110696 15.474 0.0681309 15.3781C0.025566 15.2823 0.00247123 15.1789 0.000187691 15.0741C-0.00209585 14.9692 0.0164772 14.8649 0.0548287 14.7673C0.0931802 14.6697 0.150545 14.5807 0.223592 14.5054L6.43976 7.92272L0.223592 1.3416Z" fill="black"/>
</svg>