<svg width="16" height="16" viewBox="0 0 16 16" fill="none" xmlns="http://www.w3.org/2000/svg">
<path d="M1.75 14.1V14.25H1.9H14.1H14.25V14.1V13C14.25 12.8629 14.1695 12.7345 14.071 12.6255C13.9682 12.5116 13.8233 12.3943 13.6478 12.2771C13.296 12.0423 12.8012 11.7951 12.2177 11.57C11.0507 11.1199 9.50724 10.75 8 10.75C6.49276 10.75 4.94932 11.1199 3.78227 11.57C3.19879 11.7951 2.704 12.0423 2.35218 12.2771C2.17672 12.3943 2.03179 12.5116 1.92898 12.6255C1.83052 12.7345 1.75 12.8629 1.75 13V14.1ZM8 0.15C9.02108 0.15 10.0003 0.555624 10.7224 1.27764C11.4444 1.99965 11.85 2.97892 11.85 4C11.85 5.02108 11.4444 6.00035 10.7224 6.72236C10.0003 7.44438 9.02108 7.85 8 7.85C6.97892 7.85 5.99965 7.44438 5.27764 6.72236C4.55562 6.00035 4.15 5.02108 4.15 4C4.15 2.97892 4.55562 1.99965 5.27764 1.27764C5.99965 0.555624 6.97892 0.15 8 0.15ZM8 1.85C7.42978 1.85 6.88292 2.07652 6.47972 2.47972C6.07652 2.88292 5.85 3.42978 5.85 4C5.85 4.57022 6.07652 5.11708 6.47972 5.52028C6.88292 5.92348 7.42978 6.15 8 6.15C8.57022 6.15 9.11708 5.92348 9.52028 5.52028C9.92348 5.11708 10.15 4.57022 10.15 4C10.15 3.42978 9.92348 2.88292 9.52028 2.47972C9.11708 2.07652 8.57022 1.85 8 1.85ZM8 9.15C9.31639 9.15 11.2975 9.47903 12.9456 10.138C13.7695 10.4675 14.5008 10.8757 15.0237 11.3588C15.5455 11.8408 15.85 12.3874 15.85 13V15C15.85 15.4694 15.4694 15.85 15 15.85H1C0.530558 15.85 0.15 15.4694 0.15 15V13C0.15 12.3874 0.454495 11.8408 0.976317 11.3588C1.49922 10.8757 2.2305 10.4675 3.05444 10.138C4.70255 9.47903 6.68361 9.15 8 9.15Z" fill="#931602" stroke="#FDFDFD" stroke-width="0.3"/>
</svg>
