<svg width="339" height="41" viewBox="0 0 339 41" fill="none" xmlns="http://www.w3.org/2000/svg">
<rect x="0.864849" y="1.02198" width="336.733" height="39.3004" rx="19.6502" fill="white"/>
<rect x="0.864849" y="1.02198" width="336.733" height="39.3004" rx="19.6502" fill="#931602" fill-opacity="0.15"/>
<rect x="0.864849" y="1.02198" width="336.733" height="39.3004" rx="19.6502" stroke="#931602" stroke-width="1.35519"/>
<path d="M38.2847 4.99521C31.9432 4.99521 26.7982 9.627 26.7982 15.3317C26.7982 21.8957 34.4559 32.2978 37.2677 35.8907C37.3844 36.0423 37.5374 36.1657 37.7141 36.2508C37.8909 36.3359 38.0864 36.3803 38.2847 36.3803C38.483 36.3803 38.6785 36.3359 38.8553 36.2508C39.032 36.1657 39.185 36.0423 39.3017 35.8907C42.1135 32.2993 49.7712 21.901 49.7712 15.3317C49.7712 9.627 44.6262 4.99521 38.2847 4.99521Z" fill="#E8D9D7" stroke="#931602" stroke-width="1.19451" stroke-linecap="round" stroke-linejoin="round"/>
<path fill-rule="evenodd" clip-rule="evenodd" d="M44.3408 15.0367C44.3505 15.0431 44.3527 15.0555 44.3457 15.0646L42.9246 16.883C42.9175 16.8921 42.904 16.8937 42.8948 16.8873C42.885 16.8808 42.8828 16.8685 42.8899 16.8594L44.311 15.041C44.318 15.0318 44.3316 15.0302 44.3408 15.0367Z" fill="#0F0F0F" stroke="#0F0F0F" stroke-width="0.311615" stroke-miterlimit="10" stroke-linecap="square"/>
<path fill-rule="evenodd" clip-rule="evenodd" d="M43.8557 14.4852C43.8654 14.4916 43.8676 14.504 43.8606 14.5131L42.4395 16.3315C42.4324 16.3406 42.4189 16.3422 42.4096 16.3358C42.3999 16.3293 42.3977 16.317 42.4048 16.3079L43.8259 14.4895C43.8329 14.4804 43.8465 14.4788 43.8557 14.4852Z" fill="#0F0F0F" stroke="#0F0F0F" stroke-width="0.311615" stroke-miterlimit="10" stroke-linecap="square"/>
<path fill-rule="evenodd" clip-rule="evenodd" d="M42.0645 8.8753C41.5306 8.55327 40.9713 8.30477 40.3984 8.13033C37.7258 7.31506 34.7552 8.10189 32.6593 10.4892C31.8366 11.4263 31.2306 12.5169 30.8409 13.6805L32.8398 15.9573L35.9823 19.5366C36.9681 20.6594 38.4315 20.9085 39.6288 20.2832L35.3265 15.383L33.669 13.4948C33.8728 13.14 34.1119 12.8035 34.3856 12.4917C34.6593 12.1799 34.9546 11.9083 35.2658 11.6759C36.999 10.3829 39.2331 10.3201 41.0157 11.4864C41.4276 11.7559 41.8151 12.0913 42.1669 12.4917L46.3202 17.2223C46.3787 15.0867 45.7825 12.9318 44.5311 11.1826C44.3598 10.9433 44.1761 10.7114 43.9804 10.4887C43.7847 10.2659 43.5809 10.0566 43.3712 9.86178C43.0158 9.56004 42.3637 9.05579 42.0645 8.8753ZM30.3174 16.7216C30.274 18.8341 30.8708 20.9605 32.1087 22.6898C32.2799 22.9292 32.4783 23.1611 32.674 23.3838C33.3455 24.1492 33.7737 24.6258 34.3259 25.2822L35.4858 26.6036L38.3199 29.8314L43.9804 23.3838C44.7907 22.4607 45.3906 21.3888 45.7809 20.2456L43.7132 17.8905L40.5702 14.3112C39.5843 13.1883 38.1209 12.9393 36.9237 13.5646L41.226 18.4648L42.8834 20.3524C42.6796 20.7072 42.4406 21.0437 42.1669 21.3556C41.8932 21.6674 41.5978 21.939 41.2867 22.1714C39.1529 23.7627 36.2603 23.4906 34.3856 21.3556L30.3174 16.7216Z" fill="#931602" stroke="#0F0F0F" stroke-width="0.42146" stroke-miterlimit="10"/>
<path fill-rule="evenodd" clip-rule="evenodd" d="M42.301 16.6744L44.1324 14.3246L44.5655 14.5538L42.6007 17.0667L42.301 16.6744Z" fill="#931602"/>
<path d="M61.6295 28.3988C60.7677 28.3988 59.9935 28.2587 59.3069 27.9784C58.6203 27.6982 58.0353 27.3093 57.5518 26.8118C57.0754 26.3074 56.7075 25.7224 56.4483 25.0568C56.1961 24.3841 56.07 23.6625 56.07 22.8918V22.4714C56.07 21.5956 56.1961 20.8004 56.4483 20.0857C56.7005 19.3641 57.0579 18.744 57.5203 18.2255C57.9827 17.7071 58.5362 17.3077 59.1808 17.0275C59.8254 16.7472 60.5365 16.6071 61.3142 16.6071C62.12 16.6071 62.8311 16.7437 63.4477 17.017C64.0642 17.2832 64.5792 17.6615 64.9926 18.152C65.4059 18.6424 65.7177 19.231 65.9279 19.9176C66.1381 20.5972 66.2432 21.3504 66.2432 22.1771V23.3437H57.3311V21.431H63.5107V21.2208C63.4967 20.7794 63.4126 20.3765 63.2585 20.0122C63.1044 19.6408 62.8661 19.3466 62.5438 19.1294C62.2216 18.9052 61.8047 18.7931 61.2932 18.7931C60.8798 18.7931 60.519 18.8841 60.2107 19.0663C59.9095 19.2415 59.6572 19.4937 59.454 19.823C59.2579 20.1453 59.1107 20.5306 59.0126 20.9791C58.9145 21.4275 58.8655 21.9249 58.8655 22.4714V22.8918C58.8655 23.3682 58.9286 23.8096 59.0547 24.216C59.1878 24.6224 59.3805 24.9762 59.6327 25.2775C59.8919 25.5717 60.2002 25.8029 60.5575 25.9711C60.9219 26.1322 61.3352 26.2128 61.7977 26.2128C62.3792 26.2128 62.9047 26.1007 63.3741 25.8765C63.8505 25.6453 64.2639 25.3055 64.6142 24.8571L66.012 26.3074C65.7738 26.6577 65.4515 26.994 65.0451 27.3163C64.6458 27.6386 64.1623 27.9013 63.5948 28.1045C63.0273 28.3007 62.3722 28.3988 61.6295 28.3988ZM76.3219 24.216C76.3219 23.9217 76.2763 23.659 76.1852 23.4278C76.1012 23.1896 75.9435 22.9759 75.7123 22.7867C75.4881 22.5905 75.1693 22.4013 74.7559 22.2192C74.3496 22.03 73.8241 21.8338 73.1795 21.6306C72.4649 21.4064 71.7993 21.1542 71.1827 20.874C70.5661 20.5937 70.0231 20.2679 69.5537 19.8966C69.0913 19.5252 68.7305 19.0978 68.4712 18.6144C68.212 18.124 68.0824 17.5564 68.0824 16.9119C68.0824 16.2813 68.2155 15.7068 68.4817 15.1883C68.755 14.6698 69.1403 14.2249 69.6378 13.8536C70.1352 13.4752 70.7203 13.1845 71.3929 12.9813C72.0725 12.7781 72.8222 12.6765 73.6419 12.6765C74.777 12.6765 75.7578 12.8832 76.5846 13.2966C77.4184 13.7099 78.0629 14.2705 78.5184 14.9781C78.9738 15.6857 79.2015 16.481 79.2015 17.3638H76.3219C76.3219 16.8873 76.2203 16.467 76.0171 16.1026C75.8209 15.7383 75.5196 15.451 75.1133 15.2408C74.7139 15.0306 74.2094 14.9256 73.5999 14.9256C73.0114 14.9256 72.5209 15.0131 72.1286 15.1883C71.7432 15.3634 71.4524 15.6017 71.2563 15.9029C71.0671 16.2042 70.9725 16.5405 70.9725 16.9119C70.9725 17.1921 71.0391 17.4443 71.1722 17.6685C71.3053 17.8857 71.505 18.0924 71.7712 18.2886C72.0375 18.4778 72.3668 18.6564 72.7591 18.8246C73.1585 18.9857 73.6209 19.1469 74.1464 19.308C74.9871 19.5603 75.7228 19.8405 76.3534 20.1488C76.991 20.4571 77.5199 20.8074 77.9403 21.1998C78.3677 21.5921 78.6865 22.0335 78.8967 22.524C79.1139 23.0144 79.2225 23.5714 79.2225 24.195C79.2225 24.8536 79.0929 25.4421 78.8336 25.9606C78.5744 26.479 78.2031 26.9204 77.7196 27.2848C77.2362 27.6491 76.6547 27.9259 75.975 28.115C75.3024 28.3042 74.5493 28.3988 73.7155 28.3988C72.9728 28.3988 72.2372 28.3007 71.5085 28.1045C70.7868 27.9013 70.1317 27.6001 69.5432 27.2007C68.9547 26.7943 68.4852 26.2829 68.1349 25.6663C67.7846 25.0427 67.6094 24.3141 67.6094 23.4803H70.5101C70.5101 23.9638 70.5872 24.3771 70.7413 24.7204C70.9024 25.0568 71.1266 25.3335 71.4139 25.5507C71.7082 25.7609 72.0515 25.915 72.4438 26.0131C72.8362 26.1112 73.2601 26.1603 73.7155 26.1603C74.304 26.1603 74.7875 26.0797 75.1658 25.9185C75.5512 25.7504 75.8384 25.5192 76.0276 25.2249C76.2238 24.9306 76.3219 24.5943 76.3219 24.216ZM86.6212 16.8173V18.8141H80.1053V16.8173H86.6212ZM81.8499 14.0217H84.6349V24.9096C84.6349 25.2459 84.6805 25.5052 84.7715 25.6873C84.8626 25.8695 84.9992 25.9921 85.1814 26.0552C85.3636 26.1182 85.5808 26.1497 85.833 26.1497C86.0152 26.1497 86.1833 26.1392 86.3375 26.1182C86.4916 26.0972 86.6212 26.0762 86.7263 26.0552L86.7368 28.1361C86.5056 28.2131 86.2429 28.2762 85.9486 28.3252C85.6613 28.3743 85.3355 28.3988 84.9712 28.3988C84.3477 28.3988 83.8012 28.2937 83.3317 28.0835C82.8623 27.8663 82.498 27.5195 82.2387 27.0431C81.9795 26.5596 81.8499 25.922 81.8499 25.1303V14.0217ZM91.4136 16.8173V28.1886H88.6285V16.8173H91.4136ZM88.4394 13.8431C88.4394 13.4297 88.5795 13.0864 88.8597 12.8131C89.147 12.5399 89.5324 12.4033 90.0158 12.4033C90.4992 12.4033 90.8811 12.5399 91.1613 12.8131C91.4486 13.0864 91.5922 13.4297 91.5922 13.8431C91.5922 14.2494 91.4486 14.5892 91.1613 14.8625C90.8811 15.1357 90.4992 15.2724 90.0158 15.2724C89.5324 15.2724 89.147 15.1357 88.8597 14.8625C88.5795 14.5892 88.4394 14.2494 88.4394 13.8431ZM96.826 19.1504V28.1886H94.0515V16.8173H96.6683L96.826 19.1504ZM96.4161 22.0931H95.5648C95.5648 21.3013 95.6594 20.5727 95.8486 19.9071C96.0448 19.2415 96.332 18.6634 96.7104 18.173C97.0887 17.6755 97.5546 17.2902 98.1081 17.017C98.6687 16.7437 99.3167 16.6071 100.052 16.6071C100.564 16.6071 101.033 16.6841 101.461 16.8383C101.888 16.9854 102.256 17.2201 102.564 17.5424C102.879 17.8577 103.121 18.2711 103.289 18.7826C103.458 19.287 103.542 19.8931 103.542 20.6007V28.1886H100.767V20.8845C100.767 20.352 100.69 19.9351 100.536 19.6338C100.389 19.3326 100.175 19.1224 99.8948 19.0033C99.6145 18.8771 99.2782 18.8141 98.8859 18.8141C98.4515 18.8141 98.0766 18.9017 97.7613 19.0768C97.4531 19.245 97.1973 19.4797 96.9941 19.781C96.798 20.0822 96.6508 20.4291 96.5527 20.8214C96.4617 21.2138 96.4161 21.6376 96.4161 22.0931ZM103.331 21.5781L102.186 21.7883C102.193 21.0736 102.291 20.4045 102.48 19.781C102.669 19.1504 102.946 18.6004 103.31 18.131C103.682 17.6545 104.141 17.2832 104.687 17.017C105.241 16.7437 105.878 16.6071 106.6 16.6071C107.16 16.6071 107.665 16.6877 108.113 16.8488C108.569 17.0029 108.958 17.2517 109.28 17.595C109.602 17.9313 109.847 18.3692 110.015 18.9087C110.191 19.4482 110.278 20.1068 110.278 20.8845V28.1886H107.483V20.874C107.483 20.3205 107.406 19.8966 107.251 19.6023C107.104 19.308 106.891 19.1048 106.61 18.9927C106.33 18.8736 106.001 18.8141 105.622 18.8141C105.237 18.8141 104.901 18.8877 104.614 19.0348C104.333 19.1749 104.095 19.3711 103.899 19.6233C103.71 19.8755 103.566 20.1698 103.468 20.5061C103.377 20.8354 103.331 21.1927 103.331 21.5781ZM119.033 25.7714V20.5271C119.033 20.1418 118.966 19.809 118.833 19.5287C118.7 19.2485 118.497 19.0313 118.223 18.8771C117.95 18.723 117.603 18.6459 117.183 18.6459C116.812 18.6459 116.486 18.709 116.206 18.8351C115.932 18.9612 115.722 19.1399 115.575 19.3711C115.428 19.5953 115.354 19.8545 115.354 20.1488H112.569C112.569 19.6794 112.681 19.2345 112.906 18.8141C113.13 18.3867 113.449 18.0084 113.862 17.6791C114.282 17.3427 114.783 17.08 115.365 16.8908C115.953 16.7017 116.612 16.6071 117.341 16.6071C118.202 16.6071 118.97 16.7542 119.642 17.0485C120.322 17.3357 120.854 17.7701 121.24 18.3517C121.632 18.9332 121.828 19.6654 121.828 20.5482V25.5087C121.828 26.0762 121.863 26.5631 121.933 26.9695C122.01 27.3689 122.122 27.7157 122.27 28.0099V28.1886H119.443C119.309 27.9013 119.208 27.537 119.138 27.0956C119.068 26.6472 119.033 26.2058 119.033 25.7714ZM119.422 21.2628L119.443 22.9128H117.687C117.253 22.9128 116.871 22.9583 116.542 23.0494C116.213 23.1335 115.943 23.2596 115.733 23.4278C115.522 23.5889 115.365 23.7851 115.26 24.0163C115.155 24.2405 115.102 24.4962 115.102 24.7835C115.102 25.0638 115.165 25.316 115.291 25.5402C115.424 25.7644 115.614 25.9431 115.859 26.0762C116.111 26.2023 116.405 26.2654 116.742 26.2654C117.232 26.2654 117.659 26.1673 118.024 25.9711C118.388 25.7679 118.672 25.5227 118.875 25.2354C119.078 24.9482 119.187 24.6749 119.201 24.4157L120 25.6138C119.901 25.901 119.754 26.2058 119.558 26.5281C119.362 26.8504 119.11 27.1517 118.801 27.4319C118.493 27.7122 118.122 27.9434 117.687 28.1255C117.253 28.3077 116.749 28.3988 116.174 28.3988C115.438 28.3988 114.78 28.2517 114.198 27.9574C113.617 27.6631 113.158 27.2603 112.822 26.7488C112.485 26.2373 112.317 25.6558 112.317 25.0042C112.317 24.4017 112.429 23.8692 112.653 23.4068C112.878 22.9443 113.21 22.5555 113.652 22.2402C114.093 21.9179 114.64 21.6762 115.291 21.515C115.95 21.3469 116.703 21.2628 117.551 21.2628H119.422ZM129.71 16.8173V18.8141H123.194V16.8173H129.71ZM124.939 14.0217H127.724V24.9096C127.724 25.2459 127.77 25.5052 127.861 25.6873C127.952 25.8695 128.088 25.9921 128.271 26.0552C128.453 26.1182 128.67 26.1497 128.922 26.1497C129.104 26.1497 129.272 26.1392 129.427 26.1182C129.581 26.0972 129.71 26.0762 129.815 26.0552L129.826 28.1361C129.595 28.2131 129.332 28.2762 129.038 28.3252C128.75 28.3743 128.425 28.3988 128.06 28.3988C127.437 28.3988 126.89 28.2937 126.421 28.0835C125.951 27.8663 125.587 27.5195 125.328 27.0431C125.069 26.5596 124.939 25.922 124.939 25.1303V14.0217ZM136.668 28.3988C135.806 28.3988 135.032 28.2587 134.345 27.9784C133.658 27.6982 133.073 27.3093 132.59 26.8118C132.114 26.3074 131.746 25.7224 131.486 25.0568C131.234 24.3841 131.108 23.6625 131.108 22.8918V22.4714C131.108 21.5956 131.234 20.8004 131.486 20.0857C131.739 19.3641 132.096 18.744 132.558 18.2255C133.021 17.7071 133.574 17.3077 134.219 17.0275C134.864 16.7472 135.575 16.6071 136.352 16.6071C137.158 16.6071 137.869 16.7437 138.486 17.017C139.102 17.2832 139.617 17.6615 140.031 18.152C140.444 18.6424 140.756 19.231 140.966 19.9176C141.176 20.5972 141.281 21.3504 141.281 22.1771V23.3437H132.369V21.431H138.549V21.2208C138.535 20.7794 138.451 20.3765 138.297 20.0122C138.143 19.6408 137.904 19.3466 137.582 19.1294C137.26 18.9052 136.843 18.7931 136.331 18.7931C135.918 18.7931 135.557 18.8841 135.249 19.0663C134.948 19.2415 134.695 19.4937 134.492 19.823C134.296 20.1453 134.149 20.5306 134.051 20.9791C133.953 21.4275 133.904 21.9249 133.904 22.4714V22.8918C133.904 23.3682 133.967 23.8096 134.093 24.216C134.226 24.6224 134.419 24.9762 134.671 25.2775C134.93 25.5717 135.238 25.8029 135.596 25.9711C135.96 26.1322 136.373 26.2128 136.836 26.2128C137.417 26.2128 137.943 26.1007 138.412 25.8765C138.889 25.6453 139.302 25.3055 139.652 24.8571L141.05 26.3074C140.812 26.6577 140.49 26.994 140.083 27.3163C139.684 27.6386 139.2 27.9013 138.633 28.1045C138.065 28.3007 137.41 28.3988 136.668 28.3988Z" fill="#931602"/>
<path d="M164.704 15.9254L164.12 18.0857H153.143L153.739 15.9254H164.704ZM159.239 28.6886L153.482 21.8925L153.47 20.0241H156.25C156.927 20.0241 157.483 19.8995 157.919 19.6504C158.363 19.3935 158.694 19.0471 158.912 18.6111C159.138 18.1752 159.251 17.6847 159.251 17.1398C159.251 16.5715 159.149 16.0694 158.947 15.6334C158.745 15.1897 158.422 14.8433 157.978 14.5942C157.534 14.345 156.946 14.2205 156.215 14.2205H153.155L153.821 11.6865H156.215C157.6 11.6865 158.752 11.8967 159.671 12.3171C160.597 12.7297 161.29 13.333 161.75 14.1271C162.217 14.9133 162.45 15.8631 162.45 16.9763C162.45 17.9494 162.287 18.8097 161.96 19.557C161.641 20.2966 161.123 20.8999 160.407 21.367C159.69 21.8341 158.749 22.1455 157.581 22.3012L162.801 28.5251V28.6886H159.239ZM164.716 11.6865L164.12 13.8468H155.094L155.689 11.6865H164.716ZM168.756 26.2948H168.978C169.982 26.2948 170.831 26.1663 171.523 25.9094C172.224 25.6525 172.789 25.2905 173.217 24.8235C173.653 24.3486 173.968 23.7842 174.163 23.1302C174.365 22.4685 174.466 21.7368 174.466 20.9349V17.8521C174.466 17.1982 174.4 16.626 174.268 16.1356C174.135 15.6373 173.948 15.2208 173.707 14.8861C173.474 14.5513 173.197 14.3022 172.878 14.1387C172.559 13.9675 172.216 13.8818 171.85 13.8818C171.446 13.8818 171.088 13.9753 170.776 14.1621C170.465 14.3489 170.2 14.6058 169.982 14.9328C169.772 15.252 169.608 15.6218 169.492 16.0421C169.383 16.4625 169.328 16.9063 169.328 17.3734C169.328 17.8249 169.379 18.2569 169.48 18.6695C169.589 19.0821 169.749 19.448 169.959 19.7672C170.177 20.0864 170.449 20.3394 170.776 20.5262C171.103 20.7053 171.485 20.7948 171.92 20.7948C172.333 20.7948 172.707 20.7169 173.042 20.5612C173.384 20.3978 173.68 20.1837 173.929 19.919C174.178 19.6465 174.369 19.3468 174.501 19.0198C174.641 18.6851 174.719 18.3465 174.735 18.0039L175.821 18.471C175.821 19.0393 175.7 19.5998 175.459 20.1525C175.225 20.7053 174.894 21.2074 174.466 21.6589C174.046 22.1026 173.555 22.4607 172.995 22.7332C172.434 22.9979 171.831 23.1302 171.185 23.1302C170.383 23.1302 169.675 22.9823 169.06 22.6865C168.445 22.3907 167.927 21.982 167.506 21.4604C167.094 20.931 166.782 20.3238 166.572 19.6387C166.362 18.9459 166.257 18.2063 166.257 17.4201C166.257 16.6027 166.385 15.8358 166.642 15.1196C166.899 14.3956 167.269 13.7612 167.752 13.2162C168.242 12.6635 168.834 12.2315 169.527 11.9201C170.22 11.6009 170.998 11.4413 171.862 11.4413C172.757 11.4413 173.555 11.6165 174.256 11.9668C174.957 12.3171 175.552 12.8036 176.043 13.4264C176.533 14.0414 176.907 14.7693 177.164 15.6101C177.428 16.4508 177.561 17.3695 177.561 18.3659V19.4519C177.561 20.5029 177.456 21.4993 177.245 22.4413C177.035 23.3833 176.712 24.2435 176.276 25.022C175.84 25.8004 175.284 26.4738 174.606 27.0421C173.937 27.6104 173.135 28.0503 172.201 28.3617C171.274 28.6653 170.216 28.8171 169.025 28.8171H168.756V26.2948ZM191.351 18.7279V21.5888C191.351 22.8967 191.219 24.0138 190.954 24.9402C190.69 25.8666 190.308 26.6256 189.81 27.2173C189.312 27.8012 188.716 28.2332 188.023 28.5135C187.331 28.7859 186.56 28.9222 185.711 28.9222C185.034 28.9222 184.404 28.8365 183.82 28.6653C183.236 28.4862 182.71 28.2138 182.243 27.8479C181.784 27.4742 181.387 26.9993 181.052 26.4232C180.725 25.8472 180.472 25.1582 180.293 24.3564C180.122 23.5545 180.036 22.632 180.036 21.5888V18.7279C180.036 17.4201 180.169 16.3068 180.433 15.3882C180.706 14.4696 181.091 13.7184 181.589 13.1345C182.088 12.5506 182.683 12.1264 183.376 11.8617C184.069 11.5892 184.839 11.453 185.688 11.453C186.373 11.453 187.004 11.5386 187.58 11.7099C188.164 11.8811 188.685 12.1497 189.144 12.5156C189.612 12.8737 190.009 13.3408 190.336 13.9169C190.663 14.4852 190.912 15.1702 191.083 15.9721C191.262 16.7661 191.351 17.6847 191.351 18.7279ZM188.269 22.0092V18.2959C188.269 17.6419 188.23 17.0736 188.152 16.591C188.082 16.1005 187.977 15.684 187.837 15.3415C187.696 14.999 187.521 14.7226 187.311 14.5124C187.101 14.2944 186.86 14.1349 186.587 14.0336C186.315 13.9324 186.015 13.8818 185.688 13.8818C185.283 13.8818 184.921 13.9636 184.602 14.1271C184.283 14.2828 184.014 14.5319 183.796 14.8744C183.578 15.2169 183.411 15.6724 183.294 16.2407C183.185 16.8012 183.131 17.4862 183.131 18.2959V22.0092C183.131 22.6632 183.166 23.2353 183.236 23.7258C183.314 24.2162 183.423 24.6366 183.563 24.9869C183.711 25.3373 183.886 25.6253 184.088 25.8511C184.298 26.069 184.54 26.2325 184.812 26.3415C185.085 26.4427 185.384 26.4933 185.711 26.4933C186.124 26.4933 186.486 26.4116 186.797 26.2481C187.117 26.0846 187.385 25.8277 187.603 25.4774C187.821 25.1193 187.985 24.6561 188.094 24.0878C188.21 23.5117 188.269 22.8189 188.269 22.0092ZM204.944 26.1663V28.6886H196.396V26.1663H204.944ZM197.365 11.6865V28.6886H194.154V11.6865H197.365ZM218.957 20.1876V22.6281H212.569V20.1876H218.957ZM238.201 15.9254L237.617 18.0857H226.64L227.236 15.9254H238.201ZM232.736 28.6886L226.979 21.8925L226.967 20.0241H229.746C230.424 20.0241 230.98 19.8995 231.416 19.6504C231.86 19.3935 232.191 19.0471 232.409 18.6111C232.635 18.1752 232.747 17.6847 232.747 17.1398C232.747 16.5715 232.646 16.0694 232.444 15.6334C232.241 15.1897 231.918 14.8433 231.475 14.5942C231.031 14.345 230.443 14.2205 229.711 14.2205H226.652L227.317 11.6865H229.711C231.097 11.6865 232.249 11.8967 233.168 12.3171C234.094 12.7297 234.787 13.333 235.246 14.1271C235.713 14.9133 235.947 15.8631 235.947 16.9763C235.947 17.9494 235.784 18.8097 235.457 19.557C235.137 20.2966 234.62 20.8999 233.903 21.367C233.187 21.8341 232.245 22.1455 231.078 22.3012L236.297 28.5251V28.6886H232.736ZM238.212 11.6865L237.617 13.8468H228.59L229.186 11.6865H238.212ZM247.869 11.6398V28.6886H244.775V15.2481L240.676 16.6027V14.1037L247.519 11.6398H247.869ZM253.883 27.1823C253.883 26.7152 254.043 26.322 254.362 26.0029C254.681 25.6837 255.113 25.5241 255.658 25.5241C256.203 25.5241 256.635 25.6837 256.954 26.0029C257.274 26.322 257.433 26.7152 257.433 27.1823C257.433 27.6416 257.274 28.0308 256.954 28.35C256.635 28.6614 256.203 28.8171 255.658 28.8171C255.113 28.8171 254.681 28.6614 254.362 28.35C254.043 28.0308 253.883 27.6416 253.883 27.1823ZM271.644 18.7279V21.5888C271.644 22.8967 271.512 24.0138 271.247 24.9402C270.983 25.8666 270.601 26.6256 270.103 27.2173C269.605 27.8012 269.009 28.2332 268.316 28.5135C267.624 28.7859 266.853 28.9222 266.004 28.9222C265.327 28.9222 264.696 28.8365 264.113 28.6653C263.529 28.4862 263.003 28.2138 262.536 27.8479C262.077 27.4742 261.68 26.9993 261.345 26.4232C261.018 25.8472 260.765 25.1582 260.586 24.3564C260.415 23.5545 260.329 22.632 260.329 21.5888V18.7279C260.329 17.4201 260.461 16.3068 260.726 15.3882C260.999 14.4696 261.384 13.7184 261.882 13.1345C262.38 12.5506 262.976 12.1264 263.669 11.8617C264.362 11.5892 265.132 11.453 265.981 11.453C266.666 11.453 267.297 11.5386 267.873 11.7099C268.457 11.8811 268.978 12.1497 269.437 12.5156C269.905 12.8737 270.302 13.3408 270.628 13.9169C270.955 14.4852 271.205 15.1702 271.376 15.9721C271.555 16.7661 271.644 17.6847 271.644 18.7279ZM268.562 22.0092V18.2959C268.562 17.6419 268.523 17.0736 268.445 16.591C268.375 16.1005 268.27 15.684 268.13 15.3415C267.989 14.999 267.814 14.7226 267.604 14.5124C267.394 14.2944 267.153 14.1349 266.88 14.0336C266.608 13.9324 266.308 13.8818 265.981 13.8818C265.576 13.8818 265.214 13.9636 264.895 14.1271C264.576 14.2828 264.307 14.5319 264.089 14.8744C263.871 15.2169 263.704 15.6724 263.587 16.2407C263.478 16.8012 263.424 17.4862 263.424 18.2959V22.0092C263.424 22.6632 263.459 23.2353 263.529 23.7258C263.607 24.2162 263.716 24.6366 263.856 24.9869C264.004 25.3373 264.179 25.6253 264.381 25.8511C264.591 26.069 264.833 26.2325 265.105 26.3415C265.378 26.4427 265.677 26.4933 266.004 26.4933C266.417 26.4933 266.779 26.4116 267.09 26.2481C267.409 26.0846 267.678 25.8277 267.896 25.4774C268.114 25.1193 268.277 24.6561 268.386 24.0878C268.503 23.5117 268.562 22.8189 268.562 22.0092ZM277.109 20.8649L274.645 20.2693L275.591 11.6865H284.945V14.2438H278.149L277.705 18.2141C277.946 18.0662 278.297 17.9183 278.756 17.7704C279.223 17.6147 279.748 17.5368 280.332 17.5368C281.142 17.5368 281.866 17.6692 282.504 17.9339C283.143 18.1908 283.684 18.5644 284.127 19.0549C284.579 19.5453 284.918 20.1448 285.143 20.8532C285.377 21.5538 285.494 22.3479 285.494 23.2353C285.494 24.0138 285.377 24.7456 285.143 25.4307C284.918 26.108 284.571 26.7113 284.104 27.2406C283.637 27.7622 283.049 28.1748 282.341 28.4784C281.632 28.7743 280.799 28.9222 279.842 28.9222C279.118 28.9222 278.421 28.8171 277.752 28.6069C277.09 28.3889 276.494 28.0736 275.965 27.661C275.436 27.2406 275.011 26.7268 274.692 26.1196C274.381 25.5124 274.21 24.8157 274.178 24.0294H277.226C277.281 24.551 277.421 24.9947 277.647 25.3606C277.872 25.7265 278.168 26.0067 278.534 26.2014C278.908 26.396 279.34 26.4933 279.83 26.4933C280.274 26.4933 280.655 26.4116 280.975 26.2481C281.302 26.0768 281.57 25.8394 281.78 25.5358C281.99 25.2322 282.146 24.8741 282.247 24.4615C282.349 24.0489 282.399 23.5973 282.399 23.1069C282.399 22.632 282.341 22.2 282.224 21.8107C282.107 21.4137 281.928 21.0712 281.687 20.7831C281.446 20.4951 281.142 20.2732 280.776 20.1175C280.418 19.9618 279.998 19.884 279.515 19.884C278.869 19.884 278.371 19.9813 278.02 20.1759C277.678 20.3705 277.374 20.6002 277.109 20.8649ZM298.058 23.0952H301.27C301.184 24.2318 300.869 25.2399 300.324 26.1196C299.779 26.9915 299.02 27.6766 298.047 28.1748C297.074 28.6731 295.894 28.9222 294.509 28.9222C293.442 28.9222 292.481 28.7353 291.624 28.3617C290.776 27.9802 290.048 27.4392 289.441 26.7385C288.841 26.0301 288.382 25.1816 288.063 24.1929C287.743 23.1964 287.584 22.0793 287.584 20.8415V19.5453C287.584 18.3075 287.747 17.1904 288.074 16.1939C288.401 15.1975 288.868 14.3489 289.476 13.6483C290.091 12.9399 290.826 12.3949 291.683 12.0135C292.547 11.632 293.512 11.4413 294.579 11.4413C295.964 11.4413 297.136 11.6982 298.093 12.212C299.051 12.718 299.794 13.4148 300.324 14.3022C300.853 15.1897 301.172 16.2095 301.281 17.3617H298.07C298.008 16.6455 297.852 16.0382 297.603 15.54C297.362 15.0418 296.996 14.6642 296.505 14.4073C296.023 14.1426 295.38 14.0103 294.579 14.0103C293.956 14.0103 293.407 14.1271 292.932 14.3606C292.465 14.5942 292.076 14.9445 291.764 15.4116C291.453 15.8709 291.219 16.447 291.064 17.1398C290.908 17.8249 290.83 18.6189 290.83 19.522V20.8415C290.83 21.7056 290.9 22.4802 291.04 23.1653C291.181 23.8503 291.398 24.4303 291.694 24.9052C291.99 25.3801 292.372 25.7421 292.839 25.9912C293.306 26.2403 293.862 26.3649 294.509 26.3649C295.295 26.3649 295.933 26.2403 296.424 25.9912C296.922 25.7421 297.299 25.3762 297.556 24.8935C297.821 24.4109 297.988 23.8114 298.058 23.0952ZM306.606 18.6345V28.6886H303.523V16.0538H306.443L306.606 18.6345ZM310.448 15.9721L310.401 18.8447C310.23 18.8135 310.035 18.7902 309.817 18.7746C309.607 18.7591 309.409 18.7513 309.222 18.7513C308.747 18.7513 308.331 18.8174 307.972 18.9498C307.614 19.0743 307.315 19.2573 307.073 19.4986C306.84 19.7399 306.661 20.0358 306.536 20.3861C306.412 20.7286 306.342 21.1179 306.326 21.5538L305.66 21.4721C305.66 20.6702 305.742 19.9268 305.906 19.2417C306.069 18.5566 306.306 17.9572 306.618 17.4434C306.929 16.9296 307.318 16.5326 307.786 16.2523C308.26 15.9643 308.805 15.8203 309.42 15.8203C309.592 15.8203 309.775 15.8358 309.969 15.867C310.172 15.8903 310.331 15.9254 310.448 15.9721Z" fill="#931602"/>
</svg>
