<svg width="64" height="64" viewBox="0 0 64 64" fill="none" xmlns="http://www.w3.org/2000/svg">
<circle cx="32" cy="32" r="31.5" fill="#F1F1F1" stroke="#FFD1CC"/>
<circle cx="32" cy="32" r="28" fill="#931602"/>
<g clip-path="url(#clip0_40001828_22751)">
<path fill-rule="evenodd" clip-rule="evenodd" d="M18.666 31.9993H21.6289V42.3697C21.6289 43.1555 21.9411 43.9092 22.4967 44.4649C23.0524 45.0205 23.806 45.3327 24.5919 45.3327H39.4067C40.1925 45.3327 40.9462 45.0205 41.5018 44.4649C42.0575 43.9092 42.3696 43.1555 42.3696 42.3697V31.9993H42.3697H45.3327L31.9993 18.666L18.666 31.9993Z" fill="#F1F1F1"/>
<path d="M21.6289 31.9993H22.6289C22.6289 31.4471 22.1812 30.9993 21.6289 30.9993V31.9993ZM18.666 31.9993L17.9589 31.2922C17.6729 31.5782 17.5874 32.0084 17.7421 32.382C17.8969 32.7557 18.2616 32.9993 18.666 32.9993V31.9993ZM22.4967 44.4649L23.2038 43.7577L22.4967 44.4649ZM41.5018 44.4649L40.7947 43.7577L40.7947 43.7577L41.5018 44.4649ZM42.3696 31.9993V30.9993C41.8174 30.9993 41.3696 31.4471 41.3696 31.9993H42.3696ZM45.3327 31.9993V32.9993C45.7371 32.9993 46.1018 32.7557 46.2566 32.382C46.4113 32.0084 46.3258 31.5782 46.0398 31.2922L45.3327 31.9993ZM31.9993 18.666L32.7065 17.9589C32.3159 17.5684 31.6828 17.5684 31.2922 17.9589L31.9993 18.666ZM21.6289 30.9993H18.666V32.9993H21.6289V30.9993ZM20.6289 31.9993V42.3697H22.6289V31.9993H20.6289ZM20.6289 42.3697C20.6289 43.4208 21.0464 44.4288 21.7896 45.172L23.2038 43.7577C22.8357 43.3896 22.6289 42.8903 22.6289 42.3697H20.6289ZM21.7896 45.172C22.5328 45.9152 23.5408 46.3327 24.5919 46.3327V44.3327C24.0713 44.3327 23.572 44.1259 23.2038 43.7577L21.7896 45.172ZM24.5919 46.3327H39.4067V44.3327H24.5919V46.3327ZM39.4067 46.3327C40.4577 46.3327 41.4657 45.9152 42.2089 45.172L40.7947 43.7577C40.4266 44.1259 39.9273 44.3327 39.4067 44.3327V46.3327ZM42.2089 45.172C42.9521 44.4288 43.3696 43.4208 43.3696 42.3697H41.3696C41.3696 42.8903 41.1628 43.3896 40.7947 43.7577L42.2089 45.172ZM43.3696 42.3697V31.9993H41.3696V42.3697H43.3696ZM42.3697 30.9993H42.3696V32.9993H42.3697V30.9993ZM45.3327 30.9993H42.3697V32.9993H45.3327V30.9993ZM31.2922 19.3731L44.6256 32.7065L46.0398 31.2922L32.7065 17.9589L31.2922 19.3731ZM19.3731 32.7065L32.7065 19.3731L31.2922 17.9589L17.9589 31.2922L19.3731 32.7065Z" fill="#F1F1F1"/>
<path d="M28 34.0007L30.6667 36.6673L36 31.334" stroke="#931602" stroke-width="2" stroke-linecap="round" stroke-linejoin="round"/>
</g>
<defs>
<clipPath id="clip0_40001828_22751">
<rect width="32" height="32" fill="white" transform="translate(16 16)"/>
</clipPath>
</defs>
</svg>
