<svg width="64" height="65" viewBox="0 0 64 65" fill="none" xmlns="http://www.w3.org/2000/svg">
<circle cx="32" cy="32.5742" r="31.5" fill="#F1F1F1" stroke="#FFD1CC"/>
<circle cx="32" cy="32.5742" r="28" fill="#931602"/>
<g clip-path="url(#clip0_40001924_21802)">
<g filter="url(#filter0_d_40001924_21802)">
<path d="M21.334 27.2415V24.5749C21.334 23.8676 21.6149 23.1893 22.115 22.6893C22.6151 22.1892 23.2934 21.9082 24.0007 21.9082H26.6673" stroke="#F1F1F1" stroke-width="2" stroke-linecap="round" stroke-linejoin="round" shape-rendering="crispEdges"/>
</g>
<g filter="url(#filter1_d_40001924_21802)">
<path d="M21.334 37.9082V40.5749C21.334 41.2821 21.6149 41.9604 22.115 42.4605C22.6151 42.9606 23.2934 43.2415 24.0007 43.2415H26.6673" stroke="#F1F1F1" stroke-width="2" stroke-linecap="round" stroke-linejoin="round" shape-rendering="crispEdges"/>
</g>
<path d="M37.334 21.9082H40.0007C40.7079 21.9082 41.3862 22.1892 41.8863 22.6893C42.3864 23.1893 42.6673 23.8676 42.6673 24.5749V27.2415" stroke="#F1F1F1" stroke-width="2" stroke-linecap="round" stroke-linejoin="round"/>
<path d="M37.334 43.2415H40.0007C40.7079 43.2415 41.3862 42.9606 41.8863 42.4605C42.3864 41.9604 42.6673 41.2821 42.6673 40.5749V37.9082" stroke="#F1F1F1" stroke-width="2" stroke-linecap="round" stroke-linejoin="round"/>
<path d="M31.9993 40.5742L27.3327 33.9075C26.8834 33.0956 26.6538 32.1804 26.6665 31.2526C26.6792 30.3247 26.9338 29.4162 27.4051 28.6168C27.8763 27.8175 28.548 27.1549 29.3538 26.6946C30.1595 26.2343 31.0714 25.9922 31.9993 25.9922C32.9273 25.9922 33.8392 26.2343 34.6449 26.6946C35.4507 27.1549 36.1224 27.8175 36.5936 28.6168C37.0649 29.4162 37.3195 30.3247 37.3322 31.2526C37.3449 32.1804 37.1153 33.0956 36.666 33.9075L31.9993 40.5742Z" fill="#F1F1F1" stroke="#F1F1F1" stroke-width="2" stroke-linecap="round" stroke-linejoin="round"/>
<path d="M32 31.2402V31.2536" stroke="#931602" stroke-width="6" stroke-linecap="round" stroke-linejoin="round"/>
</g>
<defs>
<filter id="filter0_d_40001924_21802" x="18.334" y="18.9082" width="15.334" height="15.334" filterUnits="userSpaceOnUse" color-interpolation-filters="sRGB">
<feFlood flood-opacity="0" result="BackgroundImageFix"/>
<feColorMatrix in="SourceAlpha" type="matrix" values="0 0 0 0 0 0 0 0 0 0 0 0 0 0 0 0 0 0 127 0" result="hardAlpha"/>
<feOffset dx="2" dy="2"/>
<feGaussianBlur stdDeviation="2"/>
<feComposite in2="hardAlpha" operator="out"/>
<feColorMatrix type="matrix" values="0 0 0 0 0.439216 0 0 0 0 0.396078 0 0 0 0 0.941176 0 0 0 0.1 0"/>
<feBlend mode="normal" in2="BackgroundImageFix" result="effect1_dropShadow_40001924_21802"/>
<feBlend mode="normal" in="SourceGraphic" in2="effect1_dropShadow_40001924_21802" result="shape"/>
</filter>
<filter id="filter1_d_40001924_21802" x="18.334" y="34.9082" width="15.334" height="15.334" filterUnits="userSpaceOnUse" color-interpolation-filters="sRGB">
<feFlood flood-opacity="0" result="BackgroundImageFix"/>
<feColorMatrix in="SourceAlpha" type="matrix" values="0 0 0 0 0 0 0 0 0 0 0 0 0 0 0 0 0 0 127 0" result="hardAlpha"/>
<feOffset dx="2" dy="2"/>
<feGaussianBlur stdDeviation="2"/>
<feComposite in2="hardAlpha" operator="out"/>
<feColorMatrix type="matrix" values="0 0 0 0 0.439216 0 0 0 0 0.396078 0 0 0 0 0.941176 0 0 0 0.1 0"/>
<feBlend mode="normal" in2="BackgroundImageFix" result="effect1_dropShadow_40001924_21802"/>
<feBlend mode="normal" in="SourceGraphic" in2="effect1_dropShadow_40001924_21802" result="shape"/>
</filter>
<clipPath id="clip0_40001924_21802">
<rect width="32" height="32" fill="white" transform="translate(16 16.5742)"/>
</clipPath>
</defs>
</svg>
