<svg width="596" height="420" viewBox="0 0 596 420" fill="none" xmlns="http://www.w3.org/2000/svg">
<rect width="595.677" height="420" rx="10" fill="#FFFCFC"/>
<rect x="377.282" y="168.768" width="143.473" height="68.1423" rx="34.0712" fill="#E8D9D7" stroke="#931602" stroke-width="3.91289"/>
<path fill-rule="evenodd" clip-rule="evenodd" d="M429.772 195.822C429.791 195.835 429.795 195.859 429.782 195.877L427.003 199.432C426.989 199.45 426.963 199.453 426.945 199.441C426.925 199.428 426.921 199.404 426.935 199.386L429.714 195.831C429.727 195.813 429.754 195.81 429.772 195.822Z" fill="#0F0F0F" stroke="#0F0F0F" stroke-width="0.743068" stroke-miterlimit="10" stroke-linecap="square"/>
<path fill-rule="evenodd" clip-rule="evenodd" d="M428.825 194.743C428.844 194.756 428.848 194.78 428.834 194.798L426.056 198.353C426.042 198.371 426.015 198.374 425.997 198.362C425.978 198.349 425.974 198.325 425.988 198.307L428.766 194.752C428.78 194.734 428.807 194.731 428.825 194.743Z" fill="#0F0F0F" stroke="#0F0F0F" stroke-width="0.743068" stroke-miterlimit="10" stroke-linecap="square"/>
<path fill-rule="evenodd" clip-rule="evenodd" d="M425.318 183.776C424.274 183.146 423.18 182.66 422.06 182.319C416.834 180.725 411.025 182.263 406.927 186.931C405.318 188.764 404.134 190.896 403.372 193.172L407.28 197.623L413.425 204.622C415.352 206.818 418.214 207.305 420.555 206.082L412.142 196.5L408.902 192.808C409.3 192.115 409.767 191.457 410.303 190.847C410.838 190.237 411.415 189.706 412.024 189.252C415.413 186.724 419.781 186.601 423.267 188.881C424.072 189.408 424.83 190.064 425.518 190.847L433.639 200.097C433.753 195.921 432.588 191.708 430.141 188.287C429.806 187.819 429.446 187.366 429.064 186.93C428.681 186.495 428.283 186.086 427.873 185.705C427.178 185.115 425.903 184.129 425.318 183.776ZM402.348 199.118C402.263 203.249 403.43 207.407 405.85 210.788C406.185 211.256 406.573 211.709 406.956 212.145C408.269 213.642 409.106 214.573 410.186 215.857L412.454 218.441L417.996 224.752L429.064 212.145C430.648 210.34 431.821 208.244 432.584 206.009L428.541 201.404L422.396 194.405C420.468 192.209 417.607 191.722 415.266 192.945L423.678 202.527L426.919 206.218C426.52 206.911 426.053 207.569 425.518 208.179C424.983 208.789 424.405 209.32 423.797 209.774C419.624 212.886 413.968 212.354 410.303 208.179L402.348 199.118Z" fill="#931602" stroke="#0F0F0F" stroke-width="1.005" stroke-miterlimit="10"/>
<path fill-rule="evenodd" clip-rule="evenodd" d="M425.778 199.026L429.359 194.432L430.206 194.88L426.364 199.793L425.778 199.026Z" fill="#931602"/>
<path d="M455.927 209.303C456.146 210.509 456.64 211.441 457.407 212.099C458.202 212.729 459.258 213.045 460.573 213.045C462.273 213.045 463.507 212.346 464.274 210.948C465.042 209.522 465.425 207.137 465.425 203.793C464.795 204.67 463.904 205.355 462.753 205.849C461.629 206.342 460.409 206.589 459.093 206.589C457.339 206.589 455.749 206.233 454.323 205.52C452.925 204.78 451.815 203.697 450.993 202.271C450.17 200.818 449.759 199.064 449.759 197.008C449.759 193.965 450.664 191.553 452.473 189.771C454.282 187.962 456.749 187.057 459.874 187.057C463.767 187.057 466.508 188.304 468.098 190.799C469.716 193.294 470.524 197.049 470.524 202.066C470.524 205.629 470.209 208.549 469.579 210.824C468.975 213.099 467.92 214.826 466.412 216.005C464.932 217.184 462.903 217.773 460.327 217.773C458.298 217.773 456.571 217.39 455.146 216.622C453.72 215.827 452.624 214.799 451.856 213.538C451.116 212.25 450.691 210.838 450.581 209.303H455.927ZM460.286 201.901C461.711 201.901 462.835 201.463 463.657 200.585C464.48 199.708 464.891 198.529 464.891 197.049C464.891 195.432 464.452 194.185 463.575 193.307C462.725 192.403 461.56 191.95 460.08 191.95C458.6 191.95 457.421 192.416 456.544 193.348C455.694 194.253 455.269 195.459 455.269 196.967C455.269 198.42 455.68 199.612 456.503 200.544C457.352 201.449 458.613 201.901 460.286 201.901ZM475.005 202.354C475.005 197.611 475.855 193.897 477.555 191.21C479.282 188.524 482.133 187.181 486.108 187.181C490.082 187.181 492.92 188.524 494.619 191.21C496.346 193.897 497.21 197.611 497.21 202.354C497.21 207.123 496.346 210.865 494.619 213.579C492.92 216.293 490.082 217.65 486.108 217.65C482.133 217.65 479.282 216.293 477.555 213.579C475.855 210.865 475.005 207.123 475.005 202.354ZM491.535 202.354C491.535 200.325 491.398 198.625 491.124 197.255C490.877 195.857 490.357 194.719 489.562 193.842C488.794 192.965 487.643 192.526 486.108 192.526C484.572 192.526 483.407 192.965 482.612 193.842C481.845 194.719 481.324 195.857 481.05 197.255C480.803 198.625 480.68 200.325 480.68 202.354C480.68 204.437 480.803 206.191 481.05 207.617C481.297 209.015 481.817 210.153 482.612 211.03C483.407 211.88 484.572 212.304 486.108 212.304C487.643 212.304 488.808 211.88 489.603 211.03C490.398 210.153 490.918 209.015 491.165 207.617C491.412 206.191 491.535 204.437 491.535 202.354Z" fill="#931602"/>
<path d="M552.494 184.654C551.738 183.898 550.512 183.898 549.756 184.654L537.44 196.971C536.684 197.727 536.684 198.952 537.44 199.708C538.196 200.464 539.421 200.464 540.177 199.708L551.125 188.76L562.073 199.708C562.829 200.464 564.054 200.464 564.81 199.708C565.566 198.952 565.566 197.727 564.81 196.971L552.494 184.654ZM549.19 224.73C549.19 225.799 550.056 226.665 551.125 226.665C552.194 226.665 553.06 225.799 553.06 224.73L549.19 224.73ZM549.19 186.023L549.19 224.73L553.06 224.73L553.06 186.023L549.19 186.023Z" fill="#931602"/>
<path d="M559.697 247.388C560.452 248.144 561.678 248.144 562.434 247.388L574.75 235.071C575.506 234.315 575.506 233.09 574.75 232.334C573.994 231.578 572.769 231.578 572.013 232.334L561.065 243.282L550.117 232.334C549.361 231.578 548.136 231.578 547.38 232.334C546.624 233.09 546.624 234.315 547.38 235.071L559.697 247.388ZM563.001 207.312C563.001 206.243 562.134 205.377 561.065 205.377C559.996 205.377 559.13 206.243 559.13 207.312L563.001 207.312ZM563.001 246.019L563.001 207.312L559.13 207.312L559.13 246.019L563.001 246.019Z" fill="#931602"/>
<path d="M447.772 154.803C448.433 155.464 449.505 155.464 450.167 154.803L460.944 144.026C461.605 143.365 461.605 142.293 460.944 141.631C460.282 140.97 459.21 140.97 458.549 141.631L448.969 151.211L439.39 141.631C438.728 140.97 437.656 140.97 436.995 141.631C436.334 142.293 436.334 143.365 436.995 144.026L447.772 154.803ZM259.818 72.8215H284.571V69.4347H259.818V72.8215ZM319.148 107.399H427.555V104.012H319.148V107.399ZM447.276 127.12V153.606H450.663V127.12H447.276ZM427.555 107.399C438.447 107.399 447.276 116.228 447.276 127.12H450.663C450.663 114.358 440.317 104.012 427.555 104.012V107.399ZM300.166 88.4168C300.166 98.9004 308.665 107.399 319.148 107.399V104.012C310.535 104.012 303.553 97.0299 303.553 88.4168H300.166ZM284.571 72.8215C293.184 72.8215 300.166 79.8038 300.166 88.4168H303.553C303.553 77.9333 295.054 69.4347 284.571 69.4347V72.8215Z" fill="#448847"/>
<path d="M184.268 66.9848C183.835 74.9349 186.636 82.7229 192.058 88.6403C197.479 94.5578 205.078 98.1216 213.188 98.5499C219.815 98.9018 226.381 97.1129 231.879 93.4575C231.879 93.4575 233.023 92.6965 233.189 92.5711L262.135 71.0074L235.737 46.5738C235.597 46.4462 234.547 45.5691 234.547 45.5691L234.539 45.5659C229.481 41.3672 223.154 38.9133 216.529 38.5804C208.418 38.1708 200.467 40.9312 194.419 46.2562C188.371 51.5811 184.72 59.0357 184.268 66.9848ZM225.982 69.1398C225.862 71.2963 225.092 73.3707 223.77 75.1006C222.448 76.8306 220.633 78.1384 218.554 78.8586C216.476 79.5789 214.227 79.6793 212.093 79.1471C209.958 78.6149 208.034 77.474 206.563 75.8688C205.092 74.2635 204.141 72.2659 203.83 70.1287C203.518 67.9914 203.861 65.8105 204.814 63.8616C205.767 61.9127 207.287 60.2835 209.183 59.1799C211.079 58.0763 213.266 57.5479 215.466 57.6616C218.415 57.8175 221.178 59.1135 223.149 61.2653C225.121 63.417 226.14 66.2489 225.982 69.1398Z" fill="#448847"/>
<ellipse cx="215.157" cy="68.3053" rx="25.7426" ry="24.3542" fill="white"/>
<path d="M222.345 82.006V83.0767H223.416H231.317C231.392 83.0767 231.458 83.106 231.502 83.1487C231.545 83.1904 231.564 83.2404 231.564 83.2859C231.564 83.3313 231.545 83.3813 231.502 83.423C231.458 83.4658 231.392 83.495 231.317 83.495H199.712C199.637 83.495 199.571 83.4658 199.527 83.423C199.484 83.3813 199.466 83.3313 199.466 83.2859C199.466 83.2404 199.484 83.1904 199.527 83.1487C199.571 83.106 199.637 83.0767 199.712 83.0767H203.663H204.734V82.006V76.8867V75.8159H203.663H199.712C199.637 75.8159 199.571 75.7867 199.527 75.744C199.484 75.7022 199.466 75.6523 199.466 75.6068C199.466 75.5614 199.484 75.5114 199.527 75.4696C199.571 75.4269 199.637 75.3977 199.712 75.3977H210.247C210.322 75.3977 210.388 75.4269 210.432 75.4696C210.475 75.5114 210.494 75.5614 210.494 75.6068C210.494 75.6523 210.475 75.7022 210.432 75.744C210.388 75.7867 210.322 75.8159 210.247 75.8159H206.297H205.226V76.8867V82.006V83.0767H206.297H220.782H221.853V82.006V71.7673V70.6966H220.782H212.881C212.83 70.6966 212.782 70.6828 212.742 70.6593C212.703 70.6359 212.674 70.6048 212.657 70.5728C212.64 70.541 212.634 70.5076 212.636 70.4757C212.638 70.4436 212.649 70.4102 212.672 70.3791L212.672 70.3783L218.596 62.1543L219.818 60.4578H217.727H215.516C215.463 60.4578 215.413 60.4429 215.372 60.4178C215.332 60.3928 215.304 60.36 215.288 60.3266C215.272 60.2936 215.267 60.2589 215.271 60.2258C215.276 60.1925 215.29 60.1577 215.317 60.1263L221.884 52.4679C221.908 52.4444 221.937 52.4239 221.972 52.4088C222.011 52.3918 222.054 52.3826 222.099 52.3826C222.144 52.3826 222.188 52.3918 222.227 52.4088C222.261 52.4239 222.291 52.4444 222.315 52.4679L228.882 60.1263C228.908 60.1578 228.923 60.1925 228.927 60.2258L229.972 60.0871L228.927 60.2258C228.932 60.2589 228.927 60.2936 228.911 60.3266C228.895 60.36 228.867 60.3928 228.827 60.4178C228.786 60.4429 228.736 60.4578 228.683 60.4578H226.471H224.381L225.603 62.1543L231.526 70.3783L231.527 70.3791C231.549 70.4102 231.561 70.4436 231.563 70.4757C231.565 70.5076 231.558 70.541 231.541 70.5728C231.524 70.6048 231.496 70.6359 231.456 70.6593C231.417 70.6828 231.368 70.6966 231.317 70.6966H223.416H222.345V71.7673V82.006Z" stroke="#448847" stroke-width="2.14141"/>
<path d="M139.246 67.1462H135.434V64.9509H139.246C139.869 64.9509 140.374 64.8492 140.76 64.646C141.153 64.4359 141.441 64.1513 141.624 63.7922C141.807 63.4263 141.899 63.0096 141.899 62.5421C141.899 62.0881 141.807 61.6646 141.624 61.2716C141.441 60.8786 141.153 60.5602 140.76 60.3162C140.374 60.0723 139.869 59.9503 139.246 59.9503H136.349V72.5432H133.554V57.7448H139.246C140.398 57.7448 141.38 57.9515 142.193 58.3648C143.013 58.7713 143.637 59.3371 144.063 60.0621C144.497 60.7804 144.714 61.6002 144.714 62.5218C144.714 63.4771 144.497 64.3004 144.063 64.9915C143.637 65.6827 143.013 66.2146 142.193 66.5872C141.38 66.9599 140.398 67.1462 139.246 67.1462ZM152.642 70.2055V65.1338C152.642 64.7612 152.577 64.4393 152.449 64.1683C152.32 63.8972 152.123 63.6872 151.859 63.5381C151.595 63.3891 151.259 63.3145 150.853 63.3145C150.494 63.3145 150.179 63.3755 149.908 63.4975C149.643 63.6194 149.44 63.7922 149.298 64.0158C149.156 64.2326 149.084 64.4834 149.084 64.7679H146.391C146.391 64.314 146.499 63.8837 146.716 63.4771C146.933 63.0638 147.241 62.6979 147.641 62.3795C148.048 62.0542 148.532 61.8001 149.095 61.6172C149.664 61.4342 150.301 61.3428 151.005 61.3428C151.839 61.3428 152.581 61.485 153.231 61.7696C153.888 62.0474 154.403 62.4675 154.776 63.0299C155.156 63.5923 155.345 64.3004 155.345 65.1542V69.9514C155.345 70.5003 155.379 70.9712 155.447 71.3642C155.521 71.7504 155.63 72.0858 155.772 72.3704V72.5432H153.038C152.909 72.2654 152.811 71.913 152.743 71.4862C152.676 71.0525 152.642 70.6256 152.642 70.2055ZM153.018 65.8453L153.038 67.441H151.341C150.921 67.441 150.551 67.485 150.233 67.5731C149.914 67.6544 149.654 67.7764 149.45 67.939C149.247 68.0949 149.095 68.2846 148.993 68.5082C148.891 68.725 148.84 68.9723 148.84 69.2501C148.84 69.5212 148.901 69.7651 149.023 69.9819C149.152 70.1988 149.335 70.3715 149.572 70.5003C149.816 70.6222 150.101 70.6832 150.426 70.6832C150.9 70.6832 151.314 70.5884 151.666 70.3986C152.018 70.2021 152.293 69.965 152.489 69.6872C152.686 69.4094 152.791 69.1451 152.804 68.8944L153.577 70.0531C153.482 70.3309 153.34 70.6256 153.15 70.9373C152.96 71.249 152.716 71.5404 152.418 71.8114C152.12 72.0824 151.761 72.306 151.341 72.4822C150.921 72.6584 150.433 72.7465 149.877 72.7465C149.166 72.7465 148.529 72.6042 147.966 72.3196C147.404 72.035 146.96 71.6454 146.635 71.1508C146.31 70.6561 146.147 70.0937 146.147 69.4636C146.147 68.8809 146.255 68.3659 146.472 67.9187C146.689 67.4715 147.011 67.0954 147.438 66.7905C147.865 66.4788 148.393 66.2451 149.023 66.0892C149.66 65.9266 150.389 65.8453 151.209 65.8453H153.018ZM160.447 63.7922V72.5432H157.764V61.546H160.305L160.447 63.7922ZM163.791 61.4749L163.751 63.9752C163.602 63.9481 163.432 63.9277 163.242 63.9142C163.06 63.9006 162.887 63.8939 162.724 63.8939C162.311 63.8939 161.948 63.9514 161.637 64.0666C161.325 64.1751 161.064 64.3343 160.854 64.5443C160.651 64.7544 160.495 65.0119 160.386 65.3168C160.278 65.6149 160.217 65.9537 160.204 66.3331L159.624 66.262C159.624 65.5641 159.695 64.917 159.838 64.3207C159.98 63.7245 160.187 63.2027 160.458 62.7555C160.729 62.3083 161.067 61.9627 161.474 61.7188C161.887 61.4681 162.362 61.3428 162.897 61.3428C163.046 61.3428 163.205 61.3563 163.375 61.3834C163.551 61.4037 163.69 61.4342 163.791 61.4749ZM167.948 56.9215V72.5432H165.265V56.9215H167.948ZM174.839 61.546L170.052 66.9226L167.46 69.5551L166.607 67.4715L168.609 64.9509L171.597 61.546H174.839ZM172.095 72.5432L168.69 67.4207L170.479 65.6827L175.205 72.5432H172.095Z" fill="#448847"/>
<path d="M87.6992 119.827C87.2659 127.777 90.0673 135.565 95.489 141.482C100.911 147.4 108.51 150.963 116.619 151.392C123.247 151.744 129.813 149.955 135.31 146.299C135.31 146.299 136.454 145.538 136.62 145.413L165.566 123.849L139.169 99.4156C139.028 99.288 137.978 98.4109 137.978 98.4109L137.97 98.4078C132.912 94.2091 126.585 91.7551 119.96 91.4222C111.849 91.0126 103.898 93.773 97.8501 99.098C91.8022 104.423 88.1516 111.878 87.6992 119.827ZM129.414 121.982C129.294 124.138 128.524 126.213 127.202 127.942C125.879 129.672 124.064 130.98 121.986 131.7C119.907 132.421 117.658 132.521 115.524 131.989C113.39 131.457 111.465 130.316 109.995 128.711C108.524 127.105 107.573 125.108 107.261 122.971C106.95 120.833 107.292 118.652 108.245 116.703C109.198 114.755 110.719 113.125 112.615 112.022C114.511 110.918 116.697 110.39 118.897 110.503C121.846 110.659 124.609 111.955 126.581 114.107C128.552 116.259 129.571 119.091 129.414 121.982Z" fill="#734DA3"/>
<ellipse cx="118.59" cy="121.149" rx="25.7426" ry="24.3542" fill="white"/>
<path d="M133.194 116.216L117.93 108.05L102.666 116.216L107.754 118.938M133.194 116.216L128.106 118.938M133.194 116.216C134.233 116.717 134.89 117.74 134.89 118.859V127.648M107.754 118.938L117.93 124.382L128.106 118.938M107.754 118.938V128.737L117.93 134.181L128.106 128.737V118.938" stroke="#734DA3" stroke-width="2.42364" stroke-linecap="round" stroke-linejoin="round"/>
<path d="M368.409 174.35C369.07 173.688 369.07 172.616 368.409 171.955L357.632 161.178C356.97 160.516 355.898 160.516 355.237 161.178C354.576 161.839 354.576 162.911 355.237 163.573L364.816 173.152L355.237 182.732C354.576 183.393 354.576 184.465 355.237 185.127C355.898 185.788 356.97 185.788 357.632 185.127L368.409 174.35ZM248.868 149.593L247.183 149.424L248.868 149.593ZM148.535 125.785H227.757V122.398H148.535V125.785ZM247.379 147.481L247.183 149.424L250.553 149.763L250.749 147.82L247.379 147.481ZM270.175 174.846H367.211V171.459H270.175V174.846ZM247.183 149.424C245.814 163.032 256.498 174.846 270.175 174.846V171.459C258.502 171.459 249.384 161.377 250.553 149.763L247.183 149.424ZM227.757 125.785C239.43 125.785 248.548 135.867 247.379 147.481L250.749 147.82C252.119 134.212 241.434 122.398 227.757 122.398V125.785Z" fill="#734DA3"/>
<path d="M19.5706 123.862C19.5706 123.577 19.5266 123.323 19.4385 123.099C19.3572 122.869 19.2047 122.662 18.9811 122.479C18.7643 122.29 18.456 122.107 18.0562 121.93C17.6632 121.748 17.155 121.558 16.5317 121.361C15.8405 121.144 15.1968 120.901 14.6006 120.63C14.0043 120.358 13.4792 120.043 13.0252 119.684C12.578 119.325 12.229 118.912 11.9783 118.444C11.7276 117.97 11.6023 117.421 11.6023 116.798C11.6023 116.188 11.731 115.632 11.9885 115.131C12.2527 114.63 12.6254 114.199 13.1065 113.84C13.5876 113.474 14.1534 113.193 14.8038 112.997C15.4611 112.8 16.1861 112.702 16.9789 112.702C18.0766 112.702 19.0252 112.902 19.8247 113.301C20.631 113.701 21.2544 114.243 21.6948 114.928C22.1353 115.612 22.3555 116.381 22.3555 117.235H19.5706C19.5706 116.774 19.4724 116.368 19.2759 116.015C19.0861 115.663 18.7948 115.385 18.4018 115.182C18.0156 114.978 17.5277 114.877 16.9382 114.877C16.369 114.877 15.8947 114.962 15.5153 115.131C15.1426 115.3 14.8614 115.531 14.6717 115.822C14.4888 116.113 14.3973 116.439 14.3973 116.798C14.3973 117.069 14.4617 117.313 14.5904 117.53C14.7191 117.74 14.9122 117.94 15.1697 118.129C15.4272 118.312 15.7457 118.485 16.1251 118.648C16.5113 118.803 16.9585 118.959 17.4667 119.115C18.2798 119.359 18.9913 119.63 19.6011 119.928C20.2177 120.226 20.7293 120.565 21.1358 120.945C21.5492 121.324 21.8575 121.751 22.0607 122.225C22.2708 122.7 22.3758 123.238 22.3758 123.841C22.3758 124.478 22.2505 125.047 21.9998 125.549C21.749 126.05 21.3899 126.477 20.9224 126.829C20.4549 127.182 19.8925 127.449 19.2352 127.632C18.5847 127.815 17.8563 127.907 17.05 127.907C16.3318 127.907 15.6203 127.812 14.9156 127.622C14.2177 127.426 13.5842 127.134 13.015 126.748C12.4458 126.355 11.9919 125.86 11.6531 125.264C11.3143 124.661 11.1449 123.956 11.1449 123.15H13.9501C13.9501 123.618 14.0246 124.017 14.1737 124.349C14.3295 124.675 14.5463 124.942 14.8242 125.152C15.1087 125.356 15.4408 125.505 15.8202 125.6C16.1996 125.694 16.6096 125.742 17.05 125.742C17.6192 125.742 18.0867 125.664 18.4526 125.508C18.8253 125.345 19.1031 125.122 19.286 124.837C19.4758 124.553 19.5706 124.227 19.5706 123.862ZM28.8399 125.793C29.2194 125.793 29.5582 125.718 29.8563 125.569C30.1545 125.42 30.3916 125.21 30.5678 124.939C30.7507 124.668 30.849 124.353 30.8625 123.994H33.3933C33.3797 124.739 33.1697 125.406 32.7631 125.996C32.3566 126.585 31.8145 127.053 31.1369 127.399C30.4661 127.737 29.714 127.907 28.8806 127.907C28.0336 127.907 27.2951 127.764 26.6649 127.48C26.0348 127.195 25.5096 126.799 25.0895 126.291C24.6762 125.783 24.3645 125.193 24.1545 124.522C23.9512 123.851 23.8496 123.133 23.8496 122.368V122.042C23.8496 121.277 23.9512 120.558 24.1545 119.888C24.3645 119.217 24.6762 118.627 25.0895 118.119C25.5096 117.611 26.0348 117.215 26.6649 116.93C27.2951 116.645 28.0302 116.503 28.8704 116.503C29.7581 116.503 30.5373 116.676 31.2081 117.021C31.8857 117.367 32.4142 117.855 32.7936 118.485C33.1799 119.115 33.3797 119.857 33.3933 120.711H30.8625C30.849 120.318 30.7609 119.965 30.5983 119.654C30.4356 119.342 30.2053 119.091 29.9071 118.902C29.609 118.712 29.2465 118.617 28.8196 118.617C28.3656 118.617 27.9862 118.712 27.6813 118.902C27.3831 119.091 27.1494 119.352 26.98 119.684C26.8174 120.01 26.7022 120.375 26.6344 120.782C26.5734 121.182 26.5429 121.602 26.5429 122.042V122.368C26.5429 122.815 26.5734 123.242 26.6344 123.648C26.7022 124.055 26.8174 124.421 26.98 124.746C27.1494 125.064 27.3831 125.318 27.6813 125.508C27.9862 125.698 28.3724 125.793 28.8399 125.793ZM37.8145 112.092V127.703H35.1211V112.092H37.8145ZM37.3876 121.809H36.5949C36.5949 121.043 36.6965 120.338 36.8998 119.694C37.1031 119.051 37.391 118.492 37.7637 118.017C38.1364 117.536 38.5802 117.164 39.0952 116.899C39.6169 116.635 40.1928 116.503 40.823 116.503C41.3651 116.503 41.8563 116.581 42.2967 116.737C42.7439 116.886 43.1268 117.126 43.4452 117.458C43.7637 117.79 44.0076 118.224 44.177 118.759C44.3532 119.288 44.4413 119.932 44.4413 120.691V127.703H41.7377V120.67C41.7377 120.162 41.6632 119.762 41.5141 119.471C41.3651 119.173 41.1516 118.959 40.8738 118.831C40.6028 118.702 40.2674 118.637 39.8676 118.637C39.4339 118.637 39.0613 118.722 38.7496 118.892C38.4379 119.054 38.1804 119.281 37.9771 119.572C37.7806 119.864 37.6316 120.199 37.5299 120.579C37.4351 120.958 37.3876 121.368 37.3876 121.809ZM46.3317 122.317V122.103C46.3317 121.297 46.4469 120.555 46.6773 119.877C46.9077 119.193 47.2431 118.6 47.6835 118.099C48.1239 117.597 48.6626 117.208 49.2995 116.93C49.9365 116.645 50.6615 116.503 51.4746 116.503C52.3012 116.503 53.033 116.645 53.6699 116.93C54.3136 117.208 54.8557 117.597 55.2961 118.099C55.7366 118.6 56.072 119.193 56.3023 119.877C56.5327 120.555 56.6479 121.297 56.6479 122.103V122.317C56.6479 123.116 56.5327 123.858 56.3023 124.543C56.072 125.22 55.7366 125.813 55.2961 126.321C54.8557 126.823 54.317 127.212 53.6801 127.49C53.0432 127.768 52.3148 127.907 51.4949 127.907C50.6818 127.907 49.9534 127.768 49.3097 127.49C48.666 127.212 48.1239 126.823 47.6835 126.321C47.2431 125.813 46.9077 125.22 46.6773 124.543C46.4469 123.858 46.3317 123.116 46.3317 122.317ZM49.015 122.103V122.317C49.015 122.798 49.0624 123.248 49.1572 123.668C49.2521 124.089 49.3978 124.458 49.5943 124.776C49.7908 125.095 50.0449 125.345 50.3566 125.528C50.675 125.705 51.0545 125.793 51.4949 125.793C51.9286 125.793 52.3012 125.705 52.6129 125.528C52.9246 125.345 53.1787 125.095 53.3752 124.776C53.5785 124.458 53.7275 124.089 53.8224 123.668C53.9173 123.248 53.9647 122.798 53.9647 122.317V122.103C53.9647 121.629 53.9173 121.185 53.8224 120.772C53.7275 120.352 53.5785 119.982 53.3752 119.664C53.1787 119.339 52.9212 119.085 52.6027 118.902C52.2911 118.712 51.915 118.617 51.4746 118.617C51.0409 118.617 50.6683 118.712 50.3566 118.902C50.0449 119.085 49.7908 119.339 49.5943 119.664C49.3978 119.982 49.2521 120.352 49.1572 120.772C49.0624 121.185 49.015 121.629 49.015 122.103ZM58.1217 122.317V122.103C58.1217 121.297 58.2368 120.555 58.4672 119.877C58.6976 119.193 59.033 118.6 59.4734 118.099C59.9139 117.597 60.4525 117.208 61.0895 116.93C61.7264 116.645 62.4514 116.503 63.2645 116.503C64.0912 116.503 64.8229 116.645 65.4599 116.93C66.1036 117.208 66.6456 117.597 67.0861 118.099C67.5265 118.6 67.8619 119.193 68.0923 119.877C68.3227 120.555 68.4378 121.297 68.4378 122.103V122.317C68.4378 123.116 68.3227 123.858 68.0923 124.543C67.8619 125.22 67.5265 125.813 67.0861 126.321C66.6456 126.823 66.107 127.212 65.47 127.49C64.8331 127.768 64.1047 127.907 63.2848 127.907C62.4717 127.907 61.7433 127.768 61.0996 127.49C60.4559 127.212 59.9139 126.823 59.4734 126.321C59.033 125.813 58.6976 125.22 58.4672 124.543C58.2368 123.858 58.1217 123.116 58.1217 122.317ZM60.8049 122.103V122.317C60.8049 122.798 60.8523 123.248 60.9472 123.668C61.042 124.089 61.1877 124.458 61.3842 124.776C61.5807 125.095 61.8348 125.345 62.1465 125.528C62.465 125.705 62.8444 125.793 63.2848 125.793C63.7185 125.793 64.0912 125.705 64.4028 125.528C64.7145 125.345 64.9686 125.095 65.1651 124.776C65.3684 124.458 65.5175 124.089 65.6123 123.668C65.7072 123.248 65.7546 122.798 65.7546 122.317V122.103C65.7546 121.629 65.7072 121.185 65.6123 120.772C65.5175 120.352 65.3684 119.982 65.1651 119.664C64.9686 119.339 64.7111 119.085 64.3927 118.902C64.081 118.712 63.7049 118.617 63.2645 118.617C62.8309 118.617 62.4582 118.712 62.1465 118.902C61.8348 119.085 61.5807 119.339 61.3842 119.664C61.1877 119.982 61.042 120.352 60.9472 120.772C60.8523 121.185 60.8049 121.629 60.8049 122.103ZM73.2351 112.092V127.703H70.5417V112.092H73.2351Z" fill="#734DA3"/>
<path d="M127.723 211.898C127.733 220.381 131.098 228.514 137.079 234.512C143.059 240.51 151.168 243.884 159.626 243.894C166.539 243.905 173.263 241.64 178.768 237.449C178.768 237.449 179.914 236.576 180.079 236.433L208.931 211.898L180.065 187.352C179.911 187.224 178.768 186.348 178.768 186.348L178.76 186.345C173.257 182.156 166.535 179.892 159.626 179.902C151.168 179.912 143.059 183.286 137.079 189.285C131.098 195.283 127.733 203.415 127.723 211.898ZM171.228 211.898C171.228 214.199 170.547 216.449 169.272 218.362C167.998 220.276 166.186 221.767 164.066 222.648C161.946 223.528 159.614 223.759 157.363 223.31C155.113 222.861 153.046 221.753 151.423 220.125C149.801 218.498 148.696 216.425 148.248 214.168C147.801 211.911 148.03 209.572 148.908 207.446C149.787 205.32 151.273 203.503 153.181 202.224C155.089 200.946 157.332 200.263 159.626 200.263C162.702 200.267 165.651 201.494 167.825 203.675C170 205.857 171.224 208.814 171.228 211.898Z" fill="#931602"/>
<ellipse cx="160.651" cy="211.902" rx="25.5969" ry="26.3377" transform="rotate(-90 160.651 211.902)" fill="white"/>
<path d="M146.53 212.106L172.967 212.106" stroke="#931602" stroke-width="4.67339" stroke-linecap="round" stroke-linejoin="round"/>
<path d="M159.751 225.325L159.751 198.888" stroke="#931602" stroke-width="4.67339" stroke-linecap="round" stroke-linejoin="round"/>
<path d="M349.732 211.995C350.393 211.333 350.393 210.261 349.732 209.6L338.955 198.823C338.294 198.162 337.221 198.162 336.56 198.823C335.899 199.484 335.899 200.556 336.56 201.218L346.14 210.797L336.56 220.377C335.899 221.038 335.899 222.11 336.56 222.772C337.221 223.433 338.294 223.433 338.955 222.772L349.732 211.995ZM196.918 212.491H348.534V209.104H196.918V212.491Z" fill="#931602"/>
<path d="M43.2473 210.558V212.754H35.4619V210.558H43.2473ZM36.2242 204.45V219.248H33.4291V204.45H36.2242ZM45.3207 204.45V219.248H42.5257V204.45H45.3207ZM47.4856 213.862V213.648C47.4856 212.842 47.6008 212.1 47.8312 211.422C48.0615 210.738 48.3969 210.145 48.8374 209.644C49.2778 209.142 49.8165 208.753 50.4534 208.475C51.0903 208.19 51.8153 208.048 52.6284 208.048C53.4551 208.048 54.1869 208.19 54.8238 208.475C55.4675 208.753 56.0096 209.142 56.45 209.644C56.8904 210.145 57.2258 210.738 57.4562 211.422C57.6866 212.1 57.8018 212.842 57.8018 213.648V213.862C57.8018 214.661 57.6866 215.403 57.4562 216.088C57.2258 216.765 56.8904 217.358 56.45 217.866C56.0096 218.368 55.4709 218.757 54.834 219.035C54.197 219.313 53.4686 219.452 52.6488 219.452C51.8357 219.452 51.1073 219.313 50.4636 219.035C49.8199 218.757 49.2778 218.368 48.8374 217.866C48.3969 217.358 48.0615 216.765 47.8312 216.088C47.6008 215.403 47.4856 214.661 47.4856 213.862ZM50.1688 213.648V213.862C50.1688 214.343 50.2162 214.793 50.3111 215.213C50.406 215.634 50.5516 216.003 50.7481 216.321C50.9446 216.64 51.1987 216.89 51.5104 217.073C51.8289 217.25 52.2083 217.338 52.6488 217.338C53.0824 217.338 53.4551 217.25 53.7668 217.073C54.0785 216.89 54.3326 216.64 54.5291 216.321C54.7323 216.003 54.8814 215.634 54.9763 215.213C55.0711 214.793 55.1185 214.343 55.1185 213.862V213.648C55.1185 213.174 55.0711 212.73 54.9763 212.317C54.8814 211.897 54.7323 211.527 54.5291 211.209C54.3326 210.884 54.0751 210.63 53.7566 210.447C53.4449 210.257 53.0689 210.162 52.6284 210.162C52.1948 210.162 51.8221 210.257 51.5104 210.447C51.1987 210.63 50.9446 210.884 50.7481 211.209C50.5516 211.527 50.406 211.897 50.3111 212.317C50.2162 212.73 50.1688 213.174 50.1688 213.648ZM65.8006 216.24C65.8006 216.01 65.7396 215.803 65.6177 215.62C65.4957 215.437 65.2653 215.271 64.9265 215.122C64.5945 214.966 64.1067 214.82 63.463 214.685C62.8938 214.563 62.3687 214.411 61.8876 214.228C61.4065 214.045 60.9932 213.824 60.6476 213.567C60.302 213.303 60.031 212.994 59.8345 212.642C59.6448 212.283 59.5499 211.87 59.5499 211.402C59.5499 210.948 59.6482 210.521 59.8447 210.121C60.0412 209.715 60.3258 209.359 60.6984 209.054C61.0711 208.743 61.5251 208.499 62.0604 208.322C62.5957 208.139 63.1987 208.048 63.8695 208.048C64.8046 208.048 65.6075 208.2 66.2783 208.505C66.9559 208.81 67.4743 209.23 67.8334 209.766C68.1925 210.294 68.3721 210.89 68.3721 211.554H65.6888C65.6888 211.263 65.6211 210.999 65.4856 210.762C65.3568 210.525 65.1569 210.335 64.8859 210.193C64.6149 210.043 64.2727 209.969 63.8594 209.969C63.4867 209.969 63.1716 210.03 62.9141 210.152C62.6634 210.274 62.4737 210.433 62.345 210.63C62.2162 210.826 62.1518 211.043 62.1518 211.28C62.1518 211.456 62.1857 211.615 62.2535 211.758C62.328 211.893 62.4466 212.019 62.6092 212.134C62.7718 212.249 62.9921 212.354 63.2699 212.449C63.5544 212.544 63.9034 212.635 64.3167 212.723C65.1366 212.886 65.8514 213.103 66.4613 213.374C67.0779 213.638 67.559 213.99 67.9045 214.431C68.2501 214.871 68.4229 215.434 68.4229 216.118C68.4229 216.606 68.3178 217.053 68.1078 217.46C67.8977 217.859 67.5928 218.208 67.1931 218.506C66.7933 218.805 66.3156 219.038 65.76 219.208C65.2044 219.37 64.5776 219.452 63.8797 219.452C62.8701 219.452 62.0163 219.272 61.3184 218.913C60.6205 218.547 60.092 218.086 59.7329 217.531C59.3738 216.968 59.1942 216.386 59.1942 215.783H61.7656C61.786 216.209 61.9011 216.552 62.1112 216.809C62.3212 217.067 62.5855 217.253 62.904 217.368C63.2292 217.477 63.5714 217.531 63.9305 217.531C64.3371 217.531 64.6792 217.477 64.957 217.368C65.2348 217.253 65.4449 217.101 65.5872 216.911C65.7295 216.714 65.8006 216.491 65.8006 216.24ZM73.149 210.365V223.477H70.4556V208.251H72.9457L73.149 210.365ZM80.2128 213.638V213.852C80.2128 214.651 80.1179 215.393 79.9282 216.077C79.7453 216.755 79.4742 217.348 79.1151 217.856C78.756 218.357 78.3088 218.75 77.7735 219.035C77.245 219.313 76.6352 219.452 75.944 219.452C75.2665 219.452 74.677 219.323 74.1755 219.065C73.6741 218.801 73.2506 218.429 72.9051 217.947C72.5595 217.466 72.2817 216.907 72.0717 216.27C71.8684 215.627 71.7159 214.925 71.6143 214.167V213.486C71.7159 212.679 71.8684 211.947 72.0717 211.29C72.2817 210.626 72.5595 210.054 72.9051 209.573C73.2506 209.085 73.6707 208.709 74.1654 208.444C74.6668 208.18 75.2529 208.048 75.9237 208.048C76.6216 208.048 77.2348 208.18 77.7633 208.444C78.2986 208.709 78.7492 209.088 79.1151 209.583C79.481 210.077 79.7554 210.667 79.9384 211.351C80.1213 212.036 80.2128 212.798 80.2128 213.638ZM77.5194 213.852V213.638C77.5194 213.15 77.4754 212.7 77.3873 212.286C77.2992 211.866 77.1637 211.5 76.9807 211.189C76.7978 210.87 76.5606 210.623 76.2693 210.447C75.9779 210.27 75.6256 210.182 75.2122 210.182C74.7989 210.182 74.4432 210.25 74.1451 210.386C73.8469 210.521 73.603 210.714 73.4133 210.965C73.2235 211.216 73.0745 211.514 72.9661 211.859C72.8644 212.198 72.7967 212.574 72.7628 212.988V214.675C72.8238 215.176 72.9423 215.627 73.1185 216.027C73.2947 216.426 73.5522 216.745 73.891 216.982C74.2365 217.219 74.6837 217.338 75.2326 217.338C75.6459 217.338 75.9982 217.246 76.2896 217.063C76.581 216.88 76.8181 216.63 77.0011 216.311C77.184 215.986 77.3161 215.613 77.3974 215.193C77.4788 214.773 77.5194 214.326 77.5194 213.852ZM85.0202 208.251V219.248H82.3269V208.251H85.0202ZM82.1439 205.375C82.1439 204.975 82.2794 204.643 82.5505 204.379C82.8283 204.115 83.2009 203.983 83.6685 203.983C84.136 203.983 84.5053 204.115 84.7763 204.379C85.0541 204.643 85.193 204.975 85.193 205.375C85.193 205.768 85.0541 206.097 84.7763 206.361C84.5053 206.625 84.136 206.757 83.6685 206.757C83.2009 206.757 82.8283 206.625 82.5505 206.361C82.2794 206.097 82.1439 205.768 82.1439 205.375ZM92.7853 208.251V210.182H86.4838V208.251H92.7853ZM88.171 205.548H90.8644V216.077C90.8644 216.403 90.9084 216.653 90.9965 216.829C91.0846 217.006 91.2167 217.124 91.3929 217.185C91.5691 217.246 91.7791 217.277 92.0231 217.277C92.1992 217.277 92.3618 217.267 92.5109 217.246C92.66 217.226 92.7853 217.206 92.887 217.185L92.8971 219.198C92.6735 219.272 92.4194 219.333 92.1349 219.381C91.857 219.428 91.542 219.452 91.1896 219.452C90.5866 219.452 90.0581 219.35 89.6041 219.147C89.1501 218.937 88.7978 218.601 88.5471 218.141C88.2964 217.673 88.171 217.056 88.171 216.291V205.548ZM100.632 216.911V211.839C100.632 211.466 100.567 211.145 100.439 210.874C100.31 210.602 100.113 210.392 99.8491 210.243C99.5849 210.094 99.2495 210.02 98.8429 210.02C98.4838 210.02 98.1687 210.081 97.8977 210.203C97.6334 210.325 97.4302 210.497 97.2879 210.721C97.1456 210.938 97.0744 211.189 97.0744 211.473H94.381C94.381 211.019 94.4895 210.589 94.7063 210.182C94.9231 209.769 95.2314 209.403 95.6312 209.085C96.0377 208.759 96.5222 208.505 97.0846 208.322C97.6538 208.139 98.2907 208.048 98.9954 208.048C99.8288 208.048 100.571 208.19 101.221 208.475C101.878 208.753 102.393 209.173 102.766 209.735C103.146 210.298 103.335 211.006 103.335 211.859V216.657C103.335 217.206 103.369 217.676 103.437 218.069C103.511 218.456 103.62 218.791 103.762 219.076V219.248H101.028C100.899 218.971 100.801 218.618 100.733 218.191C100.666 217.758 100.632 217.331 100.632 216.911ZM101.008 212.551L101.028 214.146H99.3308C98.9107 214.146 98.5414 214.19 98.2229 214.278C97.9045 214.36 97.6436 214.482 97.4403 214.644C97.2371 214.8 97.0846 214.99 96.983 215.213C96.8813 215.43 96.8305 215.678 96.8305 215.955C96.8305 216.226 96.8915 216.47 97.0134 216.687C97.1422 216.904 97.3251 217.077 97.5623 217.206C97.8062 217.327 98.0908 217.388 98.416 217.388C98.8904 217.388 99.3037 217.294 99.656 217.104C100.008 216.907 100.283 216.67 100.479 216.392C100.676 216.115 100.781 215.85 100.794 215.6L101.567 216.758C101.472 217.036 101.33 217.331 101.14 217.643C100.95 217.954 100.706 218.246 100.408 218.517C100.11 218.788 99.7509 219.011 99.3308 219.187C98.9107 219.364 98.4228 219.452 97.8672 219.452C97.1557 219.452 96.5188 219.309 95.9564 219.025C95.394 218.74 94.9502 218.351 94.625 217.856C94.2997 217.361 94.1371 216.799 94.1371 216.169C94.1371 215.586 94.2455 215.071 94.4624 214.624C94.6792 214.177 95.001 213.801 95.4279 213.496C95.8548 213.184 96.3833 212.95 97.0134 212.794C97.6504 212.632 98.3788 212.551 99.1987 212.551H101.008ZM108.6 203.637V219.248H105.907V203.637H108.6Z" fill="#931602"/>
<path d="M111.272 295.801C111.282 304.284 114.647 312.417 120.627 318.415C126.608 324.413 134.717 327.788 143.175 327.798C150.087 327.808 156.812 325.543 162.317 321.352C162.317 321.352 163.463 320.479 163.628 320.337L192.48 295.801L163.614 271.255C163.46 271.127 162.317 270.251 162.317 270.251L162.308 270.248C156.805 266.059 150.084 263.795 143.175 263.805C134.717 263.815 126.608 267.19 120.627 273.188C114.647 279.186 111.282 287.319 111.272 295.801ZM154.776 295.801C154.776 298.103 154.096 300.352 152.821 302.265C151.546 304.179 149.735 305.67 147.615 306.551C145.495 307.431 143.162 307.662 140.912 307.213C138.662 306.764 136.594 305.656 134.972 304.029C133.35 302.401 132.245 300.328 131.797 298.071C131.349 295.814 131.579 293.475 132.457 291.349C133.335 289.223 134.822 287.406 136.73 286.127C138.638 284.849 140.881 284.167 143.175 284.167C146.251 284.17 149.199 285.397 151.374 287.579C153.549 289.76 154.773 292.717 154.776 295.801Z" fill="#EAB600"/>
<ellipse cx="144.334" cy="295.798" rx="25.5969" ry="25.6969" transform="rotate(-90 144.334 295.798)" fill="white"/>
<g clip-path="url(#clip0_40002557_25537)">
<path d="M157.128 302.842H155.077V296.415C155.077 290.492 150.26 285.674 144.34 285.674C138.419 285.674 133.603 290.492 133.603 296.415V302.842H131.551C130.919 302.842 130.406 303.355 130.406 303.988V308.785C130.406 309.418 130.919 309.931 131.551 309.931H157.128C157.761 309.931 158.274 309.418 158.274 308.785V303.988C158.274 303.355 157.761 302.842 157.128 302.842ZM135.894 296.415C135.894 291.756 139.683 287.966 144.34 287.966C148.996 287.966 152.785 291.756 152.785 296.415V302.842H135.894V296.415ZM155.982 307.639H132.697V305.133H155.982V307.639Z" fill="#EAB600"/>
<path d="M132.696 296.419C132.696 295.786 132.183 295.273 131.55 295.273H128.353C127.72 295.273 127.207 295.786 127.207 296.419C127.207 297.052 127.72 297.565 128.353 297.565H131.55C132.183 297.565 132.696 297.052 132.696 296.419Z" fill="#EAB600"/>
<path d="M133.933 287.64C134.157 287.864 134.45 287.976 134.744 287.976C135.037 287.976 135.33 287.864 135.554 287.64C136.001 287.193 136.001 286.467 135.554 286.02L133.955 284.421C133.508 283.973 132.782 283.973 132.335 284.421C131.887 284.868 131.887 285.594 132.335 286.041L133.933 287.64Z" fill="#EAB600"/>
<path d="M153.928 287.976C154.221 287.976 154.514 287.864 154.738 287.64L156.336 286.041C156.784 285.594 156.784 284.868 156.336 284.421C155.889 283.973 155.163 283.973 154.716 284.421L153.117 286.02C152.67 286.467 152.67 287.193 153.117 287.64C153.341 287.864 153.634 287.976 153.928 287.976Z" fill="#EAB600"/>
<path d="M160.32 295.273H157.123C156.49 295.273 155.977 295.786 155.977 296.419C155.977 297.052 156.49 297.565 157.123 297.565H160.32C160.953 297.565 161.466 297.052 161.466 296.419C161.466 295.786 160.953 295.273 160.32 295.273Z" fill="#EAB600"/>
<path d="M144.337 284.77C144.97 284.77 145.483 284.257 145.483 283.624V280.426C145.483 279.793 144.97 279.28 144.337 279.28C143.705 279.28 143.191 279.793 143.191 280.426V283.624C143.191 284.257 143.705 284.77 144.337 284.77Z" fill="#EAB600"/>
</g>
<path d="M368.956 245.548C369.618 246.209 369.618 247.281 368.956 247.942L358.179 258.719C357.518 259.381 356.446 259.381 355.785 258.719C355.123 258.058 355.123 256.986 355.785 256.325L365.364 246.745L355.785 237.165C355.123 236.504 355.123 235.432 355.785 234.771C356.446 234.109 357.518 234.109 358.179 234.771L368.956 245.548ZM263.58 272.498L261.893 272.648L263.58 272.498ZM261.893 272.648L261.676 270.202L265.05 269.903L265.267 272.348L261.893 272.648ZM284.693 245.052H367.759V248.438H284.693V245.052ZM177.08 294.112H208.061V297.499H177.08V294.112ZM208.061 294.112H242.25V297.499H208.061V294.112ZM261.676 270.202C260.476 256.687 271.125 245.052 284.693 245.052V248.438C273.113 248.438 264.026 258.369 265.05 269.903L261.676 270.202ZM265.267 272.348C266.467 285.864 255.818 297.499 242.25 297.499V294.112C253.829 294.112 262.917 284.182 261.893 272.648L265.267 272.348Z" fill="#EAB600"/>
<path d="M45.8538 297.155H42.0425V294.96H45.8538C46.4772 294.96 46.982 294.858 47.3682 294.655C47.7612 294.445 48.0492 294.16 48.2322 293.801C48.4151 293.435 48.5066 293.018 48.5066 292.551C48.5066 292.097 48.4151 291.673 48.2322 291.28C48.0492 290.887 47.7612 290.569 47.3682 290.325C46.982 290.081 46.4772 289.959 45.8538 289.959H42.9572V302.552H40.1622V287.753H45.8538C47.0057 287.753 47.9882 287.96 48.8013 288.373C49.6212 288.78 50.2446 289.346 50.6715 290.071C51.1051 290.789 51.3219 291.609 51.3219 292.53C51.3219 293.486 51.1051 294.309 50.6715 295C50.2446 295.691 49.6212 296.223 48.8013 296.596C47.9882 296.969 47.0057 297.155 45.8538 297.155ZM52.694 297.165V296.952C52.694 296.145 52.8092 295.403 53.0396 294.726C53.27 294.041 53.6054 293.449 54.0458 292.947C54.4862 292.446 55.0249 292.056 55.6619 291.778C56.2988 291.494 57.0238 291.351 57.8369 291.351C58.6635 291.351 59.3953 291.494 60.0323 291.778C60.676 292.056 61.218 292.446 61.6585 292.947C62.0989 293.449 62.4343 294.041 62.6647 294.726C62.895 295.403 63.0102 296.145 63.0102 296.952V297.165C63.0102 297.965 62.895 298.707 62.6647 299.391C62.4343 300.069 62.0989 300.661 61.6585 301.17C61.218 301.671 60.6793 302.061 60.0424 302.338C59.4055 302.616 58.6771 302.755 57.8572 302.755C57.0441 302.755 56.3157 302.616 55.672 302.338C55.0283 302.061 54.4862 301.671 54.0458 301.17C53.6054 300.661 53.27 300.069 53.0396 299.391C52.8092 298.707 52.694 297.965 52.694 297.165ZM55.3773 296.952V297.165C55.3773 297.646 55.4247 298.097 55.5196 298.517C55.6144 298.937 55.7601 299.306 55.9566 299.625C56.1531 299.943 56.4072 300.194 56.7189 300.377C57.0373 300.553 57.4168 300.641 57.8572 300.641C58.2909 300.641 58.6635 300.553 58.9752 300.377C59.2869 300.194 59.541 299.943 59.7375 299.625C59.9408 299.306 60.0899 298.937 60.1847 298.517C60.2796 298.097 60.327 297.646 60.327 297.165V296.952C60.327 296.477 60.2796 296.034 60.1847 295.62C60.0899 295.2 59.9408 294.831 59.7375 294.512C59.541 294.187 59.2835 293.933 58.9651 293.75C58.6534 293.56 58.2773 293.466 57.8369 293.466C57.4032 293.466 57.0306 293.56 56.7189 293.75C56.4072 293.933 56.1531 294.187 55.9566 294.512C55.7601 294.831 55.6144 295.2 55.5196 295.62C55.4247 296.034 55.3773 296.477 55.3773 296.952ZM67.8075 286.94V302.552H65.1141V286.94H67.8075ZM73.2146 291.555V302.552H70.5212V291.555H73.2146ZM70.3383 288.678C70.3383 288.279 70.4738 287.947 70.7448 287.682C71.0226 287.418 71.3953 287.286 71.8628 287.286C72.3304 287.286 72.6997 287.418 72.9707 287.682C73.2485 287.947 73.3874 288.279 73.3874 288.678C73.3874 289.071 73.2485 289.4 72.9707 289.664C72.6997 289.929 72.3304 290.061 71.8628 290.061C71.3953 290.061 71.0226 289.929 70.7448 289.664C70.4738 289.4 70.3383 289.071 70.3383 288.678ZM80.2886 300.641C80.668 300.641 81.0068 300.567 81.3049 300.417C81.6031 300.268 81.8402 300.058 82.0164 299.787C82.1994 299.516 82.2976 299.201 82.3112 298.842H84.8419C84.8284 299.587 84.6183 300.255 84.2118 300.844C83.8052 301.434 83.2632 301.901 82.5856 302.247C81.9148 302.586 81.1627 302.755 80.3292 302.755C79.4823 302.755 78.7437 302.613 78.1135 302.328C77.4834 302.044 76.9583 301.647 76.5382 301.139C76.1248 300.631 75.8131 300.041 75.6031 299.371C75.3998 298.7 75.2982 297.982 75.2982 297.216V296.891C75.2982 296.125 75.3998 295.407 75.6031 294.736C75.8131 294.065 76.1248 293.476 76.5382 292.967C76.9583 292.459 77.4834 292.063 78.1135 291.778C78.7437 291.494 79.4789 291.351 80.3191 291.351C81.2067 291.351 81.9859 291.524 82.6567 291.87C83.3343 292.215 83.8628 292.703 84.2423 293.333C84.6285 293.964 84.8284 294.705 84.8419 295.559H82.3112C82.2976 295.166 82.2095 294.814 82.0469 294.502C81.8843 294.191 81.6539 293.94 81.3558 293.75C81.0576 293.56 80.6951 293.466 80.2682 293.466C79.8143 293.466 79.4348 293.56 79.1299 293.75C78.8318 293.94 78.598 294.201 78.4286 294.533C78.266 294.858 78.1508 295.224 78.083 295.63C78.0221 296.03 77.9916 296.45 77.9916 296.891V297.216C77.9916 297.663 78.0221 298.09 78.083 298.497C78.1508 298.903 78.266 299.269 78.4286 299.594C78.598 299.913 78.8318 300.167 79.1299 300.357C79.4348 300.546 79.821 300.641 80.2886 300.641ZM91.5703 302.755C90.7369 302.755 89.9882 302.62 89.3241 302.349C88.6601 302.078 88.0943 301.702 87.6268 301.22C87.166 300.733 86.8103 300.167 86.5596 299.523C86.3157 298.873 86.1937 298.175 86.1937 297.429V297.023C86.1937 296.176 86.3157 295.407 86.5596 294.716C86.8035 294.018 87.1491 293.418 87.5963 292.917C88.0435 292.415 88.5788 292.029 89.2022 291.758C89.8255 291.487 90.5133 291.351 91.2654 291.351C92.0446 291.351 92.7324 291.484 93.3286 291.748C93.9249 292.005 94.4229 292.371 94.8227 292.846C95.2225 293.32 95.524 293.889 95.7273 294.553C95.9306 295.21 96.0322 295.939 96.0322 296.738V297.866H87.4134V296.017H93.3896V295.813C93.3761 295.386 93.2948 294.997 93.1457 294.644C92.9966 294.285 92.7663 294.001 92.4546 293.791C92.1429 293.574 91.7397 293.466 91.2451 293.466C90.8453 293.466 90.4964 293.554 90.1982 293.73C89.9069 293.899 89.6629 294.143 89.4664 294.462C89.2767 294.773 89.1344 295.146 89.0395 295.58C88.9447 296.013 88.8973 296.494 88.8973 297.023V297.429C88.8973 297.89 88.9582 298.317 89.0802 298.71C89.2089 299.103 89.3953 299.445 89.6392 299.737C89.8899 300.021 90.1881 300.245 90.5336 300.407C90.886 300.563 91.2857 300.641 91.7329 300.641C92.2953 300.641 92.8035 300.533 93.2575 300.316C93.7183 300.092 94.118 299.764 94.4568 299.33L95.8086 300.733C95.5782 301.071 95.2665 301.397 94.8735 301.708C94.4873 302.02 94.0198 302.274 93.4709 302.471C92.9221 302.66 92.2886 302.755 91.5703 302.755Z" fill="#EAB600"/>
<path d="M183.694 350.005C183.704 358.488 187.068 366.621 193.049 372.619C199.03 378.617 207.139 381.991 215.597 382.001C222.509 382.012 229.234 379.747 234.739 375.556C234.739 375.556 235.885 374.683 236.05 374.541L264.902 350.005L236.035 325.459C235.882 325.331 234.739 324.455 234.739 324.455L234.73 324.452C229.227 320.263 222.506 317.999 215.597 318.009C207.139 318.019 199.03 321.394 193.049 327.392C187.068 333.39 183.704 341.523 183.694 350.005ZM227.198 350.005C227.198 352.307 226.518 354.556 225.243 356.469C223.968 358.383 222.156 359.874 220.037 360.755C217.917 361.635 215.584 361.866 213.334 361.417C211.083 360.968 209.016 359.86 207.394 358.233C205.771 356.605 204.667 354.532 204.219 352.275C203.771 350.018 204.001 347.679 204.879 345.553C205.757 343.427 207.244 341.61 209.152 340.331C211.06 339.053 213.303 338.37 215.597 338.37C218.673 338.374 221.621 339.601 223.796 341.783C225.971 343.964 227.194 346.921 227.198 350.005Z" fill="#455A79"/>
<ellipse cx="216.756" cy="350.003" rx="25.5969" ry="25.6969" transform="rotate(-90 216.756 350.003)" fill="white"/>
<path d="M210.688 352.91V354.427M222.822 352.91V354.427M206.137 348.36H216.755M216.755 348.36H227.373M216.755 348.36V340.776M207.654 363.528L210.688 358.978M222.822 358.978L225.856 363.528M216.755 340.776H206.137M216.755 340.776H227.373M206.137 340.776V355.944C206.137 357.619 207.495 358.978 209.171 358.978H224.339C226.015 358.978 227.373 357.619 227.373 355.944V340.776M206.137 340.776C206.137 338.262 208.174 336.225 210.688 336.225H222.822C225.336 336.225 227.373 338.262 227.373 340.776" stroke="#455A79" stroke-width="2.14141" stroke-linecap="round" stroke-linejoin="round"/>
<path d="M447.773 261.755C448.434 261.094 449.506 261.094 450.167 261.755L460.944 272.532C461.606 273.194 461.606 274.266 460.944 274.927C460.283 275.589 459.211 275.589 458.549 274.927L448.97 265.348L439.39 274.927C438.729 275.589 437.657 275.589 436.996 274.927C436.334 274.266 436.334 273.194 436.996 272.532L447.773 261.755ZM447.277 285.568V262.953H450.663V285.568H447.277ZM252.561 347.804H267.761V351.191H252.561V347.804ZM310.276 305.289H427.556V308.676H310.276V305.289ZM287.325 328.24C287.325 315.564 297.6 305.289 310.276 305.289V308.676C299.471 308.676 290.712 317.435 290.712 328.24H287.325ZM267.761 347.804C278.566 347.804 287.325 339.045 287.325 328.24H290.712C290.712 340.915 280.436 351.191 267.761 351.191V347.804ZM450.663 285.568C450.663 298.33 440.318 308.676 427.556 308.676V305.289C438.447 305.289 447.277 296.459 447.277 285.568H450.663Z" fill="#455A79"/>
<path d="M115.796 342.173H118.215L122.26 353.313L126.295 342.173H128.724L123.226 356.972H121.285L115.796 342.173ZM114.577 342.173H116.945L117.372 352.408V356.972H114.577V342.173ZM127.566 342.173H129.944V356.972H127.149V352.408L127.566 342.173ZM137.526 357.175C136.693 357.175 135.944 357.039 135.28 356.768C134.616 356.497 134.05 356.121 133.583 355.64C133.122 355.152 132.766 354.587 132.516 353.943C132.272 353.292 132.15 352.595 132.15 351.849V351.443C132.15 350.596 132.272 349.827 132.516 349.136C132.759 348.438 133.105 347.838 133.552 347.337C133.999 346.835 134.535 346.449 135.158 346.178C135.782 345.907 136.469 345.771 137.221 345.771C138.001 345.771 138.688 345.903 139.285 346.168C139.881 346.425 140.379 346.791 140.779 347.265C141.178 347.74 141.48 348.309 141.683 348.973C141.887 349.63 141.988 350.359 141.988 351.158V352.286H133.369V350.436H139.346V350.233C139.332 349.806 139.251 349.417 139.102 349.064C138.953 348.705 138.722 348.421 138.411 348.211C138.099 347.994 137.696 347.885 137.201 347.885C136.801 347.885 136.452 347.973 136.154 348.15C135.863 348.319 135.619 348.563 135.422 348.881C135.233 349.193 135.09 349.566 134.996 349.999C134.901 350.433 134.853 350.914 134.853 351.443V351.849C134.853 352.31 134.914 352.737 135.036 353.13C135.165 353.523 135.351 353.865 135.595 354.156C135.846 354.441 136.144 354.665 136.49 354.827C136.842 354.983 137.242 355.061 137.689 355.061C138.251 355.061 138.759 354.953 139.213 354.736C139.674 354.512 140.074 354.183 140.413 353.75L141.765 355.152C141.534 355.491 141.222 355.816 140.829 356.128C140.443 356.44 139.976 356.694 139.427 356.89C138.878 357.08 138.245 357.175 137.526 357.175ZM148.991 345.975V347.906H142.689V345.975H148.991ZM144.377 343.271H147.07V353.801C147.07 354.126 147.114 354.377 147.202 354.553C147.29 354.729 147.422 354.848 147.599 354.909C147.775 354.969 147.985 355 148.229 355C148.405 355 148.567 354.99 148.717 354.969C148.866 354.949 148.991 354.929 149.093 354.909L149.103 356.921C148.879 356.995 148.625 357.056 148.34 357.104C148.063 357.151 147.748 357.175 147.395 357.175C146.792 357.175 146.264 357.073 145.81 356.87C145.356 356.66 145.003 356.325 144.753 355.864C144.502 355.396 144.377 354.78 144.377 354.014V343.271ZM153.463 348.221V356.972H150.78V345.975H153.321L153.463 348.221ZM156.807 345.903L156.766 348.404C156.617 348.377 156.448 348.356 156.258 348.343C156.075 348.329 155.902 348.322 155.74 348.322C155.326 348.322 154.964 348.38 154.652 348.495C154.34 348.604 154.08 348.763 153.87 348.973C153.666 349.183 153.51 349.44 153.402 349.745C153.294 350.043 153.233 350.382 153.219 350.762L152.64 350.691C152.64 349.993 152.711 349.346 152.853 348.749C152.995 348.153 153.202 347.631 153.473 347.184C153.744 346.737 154.083 346.391 154.49 346.147C154.903 345.897 155.377 345.771 155.912 345.771C156.062 345.771 156.221 345.785 156.39 345.812C156.566 345.832 156.705 345.863 156.807 345.903ZM157.518 351.585V351.372C157.518 350.565 157.634 349.823 157.864 349.146C158.094 348.461 158.43 347.868 158.87 347.367C159.311 346.866 159.849 346.476 160.486 346.198C161.123 345.914 161.848 345.771 162.661 345.771C163.488 345.771 164.22 345.914 164.857 346.198C165.5 346.476 166.042 346.866 166.483 347.367C166.923 347.868 167.259 348.461 167.489 349.146C167.719 349.823 167.835 350.565 167.835 351.372V351.585C167.835 352.385 167.719 353.126 167.489 353.811C167.259 354.488 166.923 355.081 166.483 355.589C166.042 356.091 165.504 356.48 164.867 356.758C164.23 357.036 163.501 357.175 162.682 357.175C161.868 357.175 161.14 357.036 160.496 356.758C159.853 356.48 159.311 356.091 158.87 355.589C158.43 355.081 158.094 354.488 157.864 353.811C157.634 353.126 157.518 352.385 157.518 351.585ZM160.202 351.372V351.585C160.202 352.066 160.249 352.517 160.344 352.937C160.439 353.357 160.584 353.726 160.781 354.045C160.977 354.363 161.231 354.614 161.543 354.797C161.862 354.973 162.241 355.061 162.682 355.061C163.115 355.061 163.488 354.973 163.8 354.797C164.111 354.614 164.365 354.363 164.562 354.045C164.765 353.726 164.914 353.357 165.009 352.937C165.104 352.517 165.151 352.066 165.151 351.585V351.372C165.151 350.897 165.104 350.453 165.009 350.04C164.914 349.62 164.765 349.251 164.562 348.932C164.365 348.607 164.108 348.353 163.789 348.17C163.478 347.98 163.102 347.885 162.661 347.885C162.228 347.885 161.855 347.98 161.543 348.17C161.231 348.353 160.977 348.607 160.781 348.932C160.584 349.251 160.439 349.62 160.344 350.04C160.249 350.453 160.202 350.897 160.202 351.372Z" fill="#455A79"/>
<defs>
<clipPath id="clip0_40002557_25537">
<rect width="34.2625" height="34.2625" fill="white" transform="translate(127.204 277.47)"/>
</clipPath>
</defs>
</svg>
