<svg width="16" height="16" viewBox="0 0 16 16" fill="none" xmlns="http://www.w3.org/2000/svg">
<g id="double-bed" clip-path="url(#clip0_421_639)">
<path id="XMLID 874" d="M15.2189 8.02076V7.71605C15.2189 7.1547 14.9283 6.66023 14.4898 6.3743V3.0503C14.4898 2.17573 13.7783 1.46423 12.9038 1.46423H3.09622C2.22166 1.46423 1.51013 2.17573 1.51013 3.0503V6.37426C1.07169 6.6602 0.781062 7.15467 0.781062 7.71601V8.02073C0.332125 8.13895 0 8.54833 0 9.03389V12.5994C0 13.1603 0.443188 13.6196 0.997781 13.6457V14.0677C0.997781 14.326 1.20725 14.5355 1.46563 14.5355C1.724 14.5355 1.93347 14.326 1.93347 14.0677V13.647H14.0665V14.0677C14.0665 14.326 14.276 14.5355 14.5343 14.5355C14.7927 14.5355 15.0022 14.326 15.0022 14.0677V13.6457C15.5568 13.6196 16 13.1603 16 12.5994V9.03389C16 8.5483 15.6679 8.13895 15.2189 8.02076ZM2.44584 3.0503C2.44584 2.69167 2.73759 2.39992 3.09622 2.39992H12.9038C13.2624 2.39992 13.5542 2.69167 13.5542 3.0503V6.11489H12.9303V5.29026C12.9303 4.71308 12.4608 4.24348 11.8836 4.24348H9.36613C8.78894 4.24348 8.31934 4.71308 8.31934 5.29026V6.11489H7.68066V5.29026C7.68066 4.71308 7.21106 4.24348 6.63387 4.24348H4.11644C3.53922 4.24348 3.06966 4.71308 3.06966 5.29026V6.11489H2.44584V3.0503ZM11.9946 5.29023V6.0038C11.9946 6.06505 11.9448 6.11486 11.8836 6.11486H9.36613C9.30488 6.11486 9.25506 6.06501 9.25506 6.0038V5.29023C9.25506 5.22898 9.30491 5.17917 9.36613 5.17917H11.8836C11.9448 5.17917 11.9946 5.22898 11.9946 5.29023ZM6.74494 5.29023V6.0038C6.74494 6.06505 6.69509 6.11486 6.63387 6.11486H4.11644C4.05519 6.11486 4.00537 6.06501 4.00537 6.0038V5.29023C4.00537 5.22898 4.05522 5.17917 4.11644 5.17917H6.63387C6.69509 5.17917 6.74494 5.22898 6.74494 5.29023ZM1.71678 7.71601C1.71678 7.34908 2.01531 7.05058 2.38225 7.05058H13.6178C13.9847 7.05058 14.2832 7.34911 14.2832 7.71601V7.98626H1.71678V7.71601ZM15.0643 12.5994C15.0643 12.661 15.0141 12.7112 14.9524 12.7112H1.04759C0.985906 12.7112 0.935687 12.661 0.935687 12.5994V9.03389C0.935687 8.9722 0.985875 8.92201 1.04759 8.92201H14.9524C15.0141 8.92201 15.0643 8.9722 15.0643 9.03389V12.5994H15.0643Z" fill="#434E58"/>
</g>
<defs>
<clipPath id="clip0_421_639">
<rect width="16" height="16" fill="white"/>
</clipPath>
</defs>
</svg>
