<svg width="171" height="103" viewBox="0 0 171 103" fill="none" xmlns="http://www.w3.org/2000/svg">
<path d="M0 55C0 24.6243 24.6243 0 55 0H171V73C171 89.5685 157.569 103 141 103H0V55Z" fill="#018191" fill-opacity="0.07"/>
<path d="M109.25 33.4409L85.5 9.69092L49.875 45.3159H57.7917V73.0243C57.7917 75.1239 58.6257 77.1375 60.1104 78.6222C61.5951 80.1068 63.6087 80.9409 65.7083 80.9409H79.5625" stroke="#018191" stroke-width="6" stroke-linecap="round" stroke-linejoin="round"/>
<path d="M73.625 80.9409V57.1909C73.625 55.0913 74.4591 53.0777 75.9437 51.593C77.4284 50.1083 79.442 49.2743 81.5417 49.2743H89.4583M101.333 67.0868L99.0177 64.7988C97.9229 63.838 96.516 63.3082 95.0594 63.3082C93.6027 63.3082 92.1958 63.838 91.101 64.7988C89.2129 66.5128 88.92 69.2005 90.4004 71.2193L97.375 80.9409C98.8396 82.9438 102.644 84.8993 105.292 84.8993H117.167C121.161 84.8993 123.092 82.1957 123.587 78.5936C124.585 74.8807 125.083 71.7061 125.083 69.0659C125.083 65.1076 121.366 61.7707 117.167 61.1493H113.208V50.7151C113.208 47.7305 110.548 45.3159 107.271 45.3159C103.993 45.3159 101.333 47.7305 101.333 50.7151V67.0868Z" stroke="#018191" stroke-width="6" stroke-linecap="round" stroke-linejoin="round"/>
</svg>
