<svg width="171" height="103" viewBox="0 0 171 103" fill="none" xmlns="http://www.w3.org/2000/svg">
<path d="M0 55C0 24.6243 24.6243 0 55 0H171V73C171 89.5685 157.569 103 141 103H0V55Z" fill="#018191" fill-opacity="0.07"/>
<path d="M76.6667 17.3335V24.4902L83 28.7018V23.6668H114.667V71.1668H98.8333V77.5002H121V17.3335H76.6667ZM68.75 26.8335L45 42.6668V77.5002H92.5V42.6668L68.75 26.8335ZM89.3333 30.0002V32.9452L94.4317 36.3335H95.6667V30.0002H89.3333ZM102 30.0002V36.3335H108.333V30.0002H102ZM68.75 34.7502L86.1667 45.8335V71.1668H76.6667V52.1668H60.8333V71.1668H51.3333V45.8335L68.75 34.7502ZM102 42.6668V49.0002H108.333V42.6668H102ZM102 55.3335V61.6668H108.333V55.3335H102Z" fill="#018191"/>
</svg>
