<svg width="27" height="27" viewBox="0 0 27 27" fill="none" xmlns="http://www.w3.org/2000/svg">
<g id="ri:youtube-fill">
<path id="Vector" d="M24.2359 7.31025C24.75 9.315 24.75 13.5 24.75 13.5C24.75 13.5 24.75 17.685 24.2359 19.6898C23.9501 20.7979 23.1143 21.6698 22.0556 21.9645C20.133 22.5 13.5 22.5 13.5 22.5C13.5 22.5 6.87038 22.5 4.94438 21.9645C3.88125 21.6653 3.0465 20.7945 2.76412 19.6898C2.25 17.685 2.25 13.5 2.25 13.5C2.25 13.5 2.25 9.315 2.76412 7.31025C3.04988 6.20213 3.88575 5.33025 4.94438 5.0355C6.87038 4.5 13.5 4.5 13.5 4.5C13.5 4.5 20.133 4.5 22.0556 5.0355C23.1187 5.33475 23.9535 6.2055 24.2359 7.31025ZM11.25 17.4375L18 13.5L11.25 9.5625V17.4375Z" fill="white"/>
</g>
</svg>
