<svg width="259" height="238" viewBox="0 0 259 238" fill="none" xmlns="http://www.w3.org/2000/svg">
<rect x="2" y="2" width="255" height="234" rx="14.9743" stroke="#AAADAE" stroke-width="3.74358" stroke-dasharray="7.49 7.49"/>
<path d="M138.096 79.5452C138.42 79.4992 138.746 79.4682 139.072 79.4522C139.4 79.4355 139.727 79.4338 140.053 79.4472C140.381 79.4598 140.707 79.4875 141.031 79.5302C141.356 79.5728 141.678 79.6302 141.997 79.7022C142.317 79.7735 142.632 79.8592 142.943 79.9592C143.255 80.0598 143.561 80.1742 143.862 80.3022C144.164 80.4295 144.459 80.5705 144.747 80.7252C145.036 80.8799 145.317 81.0472 145.59 81.2272C148.044 82.8772 149.701 85.6142 150.239 88.5022C150.309 88.8635 150.362 89.2275 150.396 89.5942C150.43 89.9609 150.446 90.3282 150.444 90.6962C150.442 91.0642 150.422 91.4312 150.383 91.7972C150.345 92.1639 150.288 92.5275 150.214 92.8882C150.14 93.2482 150.047 93.6039 149.937 93.9552C149.828 94.3072 149.701 94.6525 149.557 94.9912C149.413 95.3299 149.253 95.6608 149.076 95.9842C148.9 96.3068 148.707 96.6202 148.499 96.9242C146.787 99.3982 144.512 100.653 141.608 101.213C138.188 101.4 135.06 101.336 132.188 99.1932C130.007 97.5662 128.682 95.1572 128.313 92.4762C127.898 89.4572 128.383 85.7712 130.299 83.3032C132.27 80.7662 135.055 79.9672 138.096 79.5452Z" fill="#AAADAE"/>
<path d="M165.975 27.0403C170.734 27.004 175.492 26.9922 180.251 27.005C180.287 34.4912 180.435 42.0094 180.271 49.4926C187.665 49.1114 195.234 49.2515 202.632 49.4875C203.195 54.2125 202.824 59.3572 202.815 64.1322C195.234 64.0802 187.653 64.0965 180.072 64.1812C180.175 64.8752 180.25 65.5722 180.295 66.2722C180.431 68.5482 180.696 85.8842 180.414 86.4212C180.316 86.6072 180.135 86.7362 179.996 86.8932C175.147 86.5002 170.151 86.7382 165.285 86.7532C165.328 82.6112 165.311 78.4692 165.235 74.3272C165.191 71.0192 164.963 67.5112 165.5 64.2352C157.988 64.0462 150.466 64.3492 142.955 64.0692C143.25 59.3642 143.146 54.5419 143.047 49.8276C148.408 49.0935 159.934 48.9188 165.374 49.509C165.159 46.4521 164.737 28.5297 165.975 27.0403Z" fill="#AAADAE"/>
<path d="M67.0742 165.474C66.0952 164.649 65.1352 163.813 64.3122 162.828C62.8242 161.049 61.7742 158.904 61.4982 156.589C60.8072 150.786 61.1282 144.709 61.1542 138.863L61.2772 109.635L61.1382 78.8612C61.1142 73.4392 60.7572 67.7212 61.2952 62.3302C61.6732 58.5362 63.8382 55.0767 66.7782 52.7101C68.6622 51.1931 71.0432 50.1928 73.4292 49.8263C77.2582 49.2383 81.2912 49.4174 85.1592 49.4154L101.793 49.4089L118.563 49.3711C121.772 49.3657 125.108 49.1797 128.296 49.5182C128.482 54.3806 128.435 59.2462 128.558 64.1102L95.8402 64.1752C89.1422 64.1852 82.4202 64.3412 75.7252 64.2302C76.3312 71.8802 75.8442 79.8882 75.8372 87.5752C75.8302 95.3042 76.2602 103.464 75.7632 111.134L76.0192 110.947C79.8372 108.119 83.7922 102.761 86.9262 99.0822C88.8112 96.8712 90.8322 94.7641 92.8232 92.6471C94.1222 91.2661 95.4402 89.6012 96.9752 88.4982C97.6312 88.0272 97.9912 87.9032 98.7902 87.8872C102.224 89.7802 106.786 96.3472 109.57 99.4682C114.136 104.588 118.841 109.569 123.425 114.669C127.007 118.654 130.604 123.028 134.459 126.724C138.723 122.034 142.834 116.816 149.706 116.522C154.112 116.334 157.794 118.103 160.966 121.061C162.529 122.518 163.931 124.175 165.333 125.785C165.037 117.716 165.542 109.591 165.418 101.51C170.347 101.21 175.483 101.009 180.412 101.322C180.541 114.761 180.528 128.199 180.374 141.637C180.338 146.289 180.961 152.667 180.142 157.025C179.692 159.417 178.34 161.683 176.66 163.415C171.818 168.409 166.25 168.373 159.812 168.409L123.177 168.426C116.848 168.426 110.46 168.254 104.138 168.53C97.5582 168.311 90.9302 168.481 84.3442 168.487C80.7422 168.49 76.9332 168.747 73.3822 168.081C70.9842 167.631 69.1022 166.808 67.0742 165.474Z" fill="#AAADAE"/>
<path d="M64.5897 193.733L60.1317 207H57.0057L62.8495 191.359H64.8475L64.5897 193.733ZM68.3172 207L63.8377 193.733L63.5692 191.359H65.578L71.4539 207H68.3172ZM68.1131 201.188V203.52H59.7235V201.188H68.1131ZM80.7021 204.529V190.5H83.5595V207H80.9814L80.7021 204.529ZM73.2363 201.328V201.103C73.2363 200.215 73.3366 199.409 73.5371 198.686C73.7448 197.955 74.0455 197.328 74.4394 196.806C74.8333 196.283 75.3095 195.878 75.8681 195.592C76.4339 195.305 77.0748 195.162 77.791 195.162C78.4856 195.162 79.0908 195.302 79.6064 195.581C80.1292 195.86 80.5732 196.258 80.9384 196.773C81.3108 197.289 81.608 197.901 81.83 198.61C82.052 199.312 82.2132 200.086 82.3134 200.931V201.543C82.2132 202.367 82.052 203.122 81.83 203.81C81.608 204.497 81.3108 205.099 80.9384 205.614C80.5732 206.123 80.1292 206.517 79.6064 206.796C79.0836 207.075 78.4713 207.215 77.7695 207.215C77.0605 207.215 76.4231 207.068 75.8574 206.774C75.2988 206.481 74.8226 206.069 74.4287 205.539C74.042 205.009 73.7448 204.386 73.5371 203.67C73.3366 202.954 73.2363 202.173 73.2363 201.328ZM76.083 201.103V201.328C76.083 201.829 76.1259 202.299 76.2119 202.735C76.2978 203.172 76.4375 203.559 76.6308 203.896C76.8242 204.225 77.0713 204.483 77.372 204.669C77.68 204.855 78.0524 204.948 78.4892 204.948C79.0478 204.948 79.5062 204.826 79.8642 204.583C80.2295 204.332 80.5123 203.992 80.7129 203.562C80.9134 203.126 81.0423 202.635 81.0996 202.091V200.404C81.0709 199.975 80.9957 199.577 80.874 199.212C80.7594 198.847 80.5947 198.532 80.3798 198.267C80.1722 198.002 79.9144 197.794 79.6064 197.644C79.2985 197.493 78.9332 197.418 78.5107 197.418C78.0739 197.418 77.7015 197.515 77.3935 197.708C77.0856 197.894 76.8349 198.156 76.6416 198.492C76.4482 198.829 76.305 199.219 76.2119 199.663C76.1259 200.107 76.083 200.587 76.083 201.103ZM93.9786 204.529V190.5H96.836V207H94.2579L93.9786 204.529ZM86.5128 201.328V201.103C86.5128 200.215 86.613 199.409 86.8136 198.686C87.0212 197.955 87.322 197.328 87.7159 196.806C88.1098 196.283 88.586 195.878 89.1446 195.592C89.7104 195.305 90.3513 195.162 91.0675 195.162C91.7621 195.162 92.3673 195.302 92.8829 195.581C93.4057 195.86 93.8497 196.258 94.2149 196.773C94.5873 197.289 94.8845 197.901 95.1065 198.61C95.3285 199.312 95.4897 200.086 95.5899 200.931V201.543C95.4897 202.367 95.3285 203.122 95.1065 203.81C94.8845 204.497 94.5873 205.099 94.2149 205.614C93.8497 206.123 93.4057 206.517 92.8829 206.796C92.3601 207.075 91.7478 207.215 91.046 207.215C90.337 207.215 89.6996 207.068 89.1339 206.774C88.5753 206.481 88.099 206.069 87.7052 205.539C87.3184 205.009 87.0212 204.386 86.8136 203.67C86.613 202.954 86.5128 202.173 86.5128 201.328ZM89.3595 201.103V201.328C89.3595 201.829 89.4024 202.299 89.4884 202.735C89.5743 203.172 89.7139 203.559 89.9073 203.896C90.1007 204.225 90.3477 204.483 90.6485 204.669C90.9565 204.855 91.3289 204.948 91.7657 204.948C92.3243 204.948 92.7826 204.826 93.1407 204.583C93.5059 204.332 93.7888 203.992 93.9893 203.562C94.1899 203.126 94.3188 202.635 94.3761 202.091V200.404C94.3474 199.975 94.2722 199.577 94.1505 199.212C94.0359 198.847 93.8712 198.532 93.6563 198.267C93.4486 198.002 93.1908 197.794 92.8829 197.644C92.575 197.493 92.2097 197.418 91.7872 197.418C91.3503 197.418 90.9779 197.515 90.67 197.708C90.3621 197.894 90.1114 198.156 89.9181 198.492C89.7247 198.829 89.5815 199.219 89.4884 199.663C89.4024 200.107 89.3595 200.587 89.3595 201.103ZM113.044 204.529V199.169C113.044 198.775 112.976 198.435 112.84 198.148C112.704 197.862 112.496 197.64 112.217 197.482C111.938 197.325 111.583 197.246 111.154 197.246C110.774 197.246 110.441 197.311 110.155 197.439C109.875 197.568 109.66 197.751 109.51 197.987C109.36 198.216 109.284 198.481 109.284 198.782H106.438C106.438 198.302 106.552 197.848 106.782 197.418C107.011 196.981 107.337 196.594 107.759 196.258C108.189 195.914 108.701 195.646 109.295 195.452C109.897 195.259 110.57 195.162 111.315 195.162C112.196 195.162 112.98 195.312 113.667 195.613C114.362 195.907 114.906 196.351 115.3 196.945C115.701 197.54 115.902 198.288 115.902 199.19V204.261C115.902 204.841 115.937 205.339 116.009 205.754C116.088 206.162 116.202 206.517 116.353 206.817V207H113.463C113.327 206.706 113.223 206.334 113.152 205.883C113.08 205.424 113.044 204.973 113.044 204.529ZM113.442 199.921L113.463 201.607H111.669C111.225 201.607 110.835 201.654 110.498 201.747C110.162 201.833 109.886 201.962 109.671 202.134C109.456 202.299 109.295 202.499 109.188 202.735C109.08 202.965 109.027 203.226 109.027 203.52C109.027 203.806 109.091 204.064 109.22 204.293C109.356 204.522 109.549 204.705 109.8 204.841C110.058 204.97 110.359 205.034 110.702 205.034C111.204 205.034 111.641 204.934 112.013 204.733C112.385 204.526 112.675 204.275 112.883 203.981C113.091 203.688 113.202 203.409 113.216 203.144L114.033 204.368C113.932 204.662 113.782 204.973 113.581 205.303C113.381 205.632 113.123 205.94 112.808 206.227C112.493 206.513 112.113 206.749 111.669 206.936C111.225 207.122 110.71 207.215 110.122 207.215C109.37 207.215 108.697 207.064 108.103 206.764C107.508 206.463 107.039 206.051 106.696 205.528C106.352 205.006 106.18 204.411 106.18 203.745C106.18 203.129 106.295 202.585 106.524 202.112C106.753 201.64 107.093 201.242 107.544 200.92C107.995 200.59 108.554 200.343 109.22 200.179C109.893 200.007 110.663 199.921 111.53 199.921H113.442ZM122.121 197.858V207H119.285V195.377H121.949L122.121 197.858ZM121.669 200.77H120.831C120.839 199.924 120.953 199.158 121.175 198.471C121.397 197.783 121.709 197.192 122.11 196.698C122.518 196.204 123.001 195.825 123.56 195.56C124.119 195.295 124.742 195.162 125.429 195.162C125.988 195.162 126.493 195.241 126.944 195.398C127.395 195.556 127.782 195.807 128.104 196.15C128.433 196.494 128.684 196.945 128.856 197.504C129.035 198.055 129.124 198.736 129.124 199.545V207H126.267V199.523C126.267 198.993 126.188 198.575 126.031 198.267C125.88 197.959 125.658 197.74 125.365 197.611C125.078 197.482 124.724 197.418 124.301 197.418C123.864 197.418 123.481 197.507 123.152 197.687C122.83 197.858 122.557 198.098 122.335 198.406C122.121 198.714 121.956 199.069 121.841 199.47C121.727 199.871 121.669 200.304 121.669 200.77ZM141.874 195.377V207H139.027V195.377H141.874ZM138.834 192.337C138.834 191.914 138.977 191.563 139.263 191.284C139.557 191.005 139.951 190.865 140.445 190.865C140.939 190.865 141.329 191.005 141.616 191.284C141.91 191.563 142.056 191.914 142.056 192.337C142.056 192.752 141.91 193.1 141.616 193.379C141.329 193.658 140.939 193.798 140.445 193.798C139.951 193.798 139.557 193.658 139.263 193.379C138.977 193.1 138.834 192.752 138.834 192.337ZM148.286 197.762V207H145.45V195.377H148.125L148.286 197.762ZM147.867 200.77H146.997C146.997 199.96 147.094 199.215 147.287 198.535C147.487 197.855 147.781 197.264 148.168 196.763C148.554 196.254 149.031 195.86 149.596 195.581C150.169 195.302 150.832 195.162 151.584 195.162C152.107 195.162 152.586 195.241 153.023 195.398C153.46 195.549 153.836 195.789 154.151 196.118C154.473 196.44 154.721 196.863 154.892 197.386C155.064 197.901 155.15 198.521 155.15 199.244V207H152.314V199.534C152.314 198.99 152.235 198.564 152.078 198.256C151.928 197.948 151.709 197.733 151.423 197.611C151.136 197.482 150.792 197.418 150.391 197.418C149.947 197.418 149.564 197.507 149.242 197.687C148.927 197.858 148.665 198.098 148.458 198.406C148.257 198.714 148.107 199.069 148.007 199.47C147.914 199.871 147.867 200.304 147.867 200.77ZM154.935 200.243L153.764 200.458C153.772 199.728 153.872 199.044 154.065 198.406C154.259 197.762 154.541 197.2 154.914 196.72C155.293 196.233 155.763 195.853 156.321 195.581C156.887 195.302 157.539 195.162 158.276 195.162C158.849 195.162 159.365 195.244 159.823 195.409C160.289 195.567 160.686 195.821 161.015 196.172C161.345 196.516 161.596 196.963 161.767 197.515C161.946 198.066 162.036 198.739 162.036 199.534V207H159.179V199.523C159.179 198.958 159.1 198.524 158.942 198.224C158.792 197.923 158.573 197.715 158.287 197.601C158 197.479 157.664 197.418 157.277 197.418C156.883 197.418 156.54 197.493 156.246 197.644C155.959 197.787 155.716 197.987 155.515 198.245C155.322 198.503 155.175 198.804 155.075 199.147C154.982 199.484 154.935 199.849 154.935 200.243ZM171.864 204.529V199.169C171.864 198.775 171.796 198.435 171.66 198.148C171.524 197.862 171.316 197.64 171.037 197.482C170.758 197.325 170.403 197.246 169.974 197.246C169.594 197.246 169.261 197.311 168.975 197.439C168.695 197.568 168.48 197.751 168.33 197.987C168.18 198.216 168.104 198.481 168.104 198.782H165.258C165.258 198.302 165.372 197.848 165.601 197.418C165.831 196.981 166.156 196.594 166.579 196.258C167.009 195.914 167.521 195.646 168.115 195.452C168.717 195.259 169.39 195.162 170.135 195.162C171.016 195.162 171.8 195.312 172.487 195.613C173.182 195.907 173.726 196.351 174.12 196.945C174.521 197.54 174.722 198.288 174.722 199.19V204.261C174.722 204.841 174.757 205.339 174.829 205.754C174.908 206.162 175.022 206.517 175.173 206.817V207H172.283C172.147 206.706 172.043 206.334 171.972 205.883C171.9 205.424 171.864 204.973 171.864 204.529ZM172.262 199.921L172.283 201.607H170.489C170.045 201.607 169.655 201.654 169.318 201.747C168.982 201.833 168.706 201.962 168.491 202.134C168.276 202.299 168.115 202.499 168.008 202.735C167.9 202.965 167.847 203.226 167.847 203.52C167.847 203.806 167.911 204.064 168.04 204.293C168.176 204.522 168.369 204.705 168.62 204.841C168.878 204.97 169.179 205.034 169.522 205.034C170.024 205.034 170.461 204.934 170.833 204.733C171.205 204.526 171.495 204.275 171.703 203.981C171.911 203.688 172.022 203.409 172.036 203.144L172.852 204.368C172.752 204.662 172.602 204.973 172.401 205.303C172.201 205.632 171.943 205.94 171.628 206.227C171.313 206.513 170.933 206.749 170.489 206.936C170.045 207.122 169.53 207.215 168.942 207.215C168.19 207.215 167.517 207.064 166.923 206.764C166.328 206.463 165.859 206.051 165.516 205.528C165.172 205.006 165 204.411 165 203.745C165 203.129 165.115 202.585 165.344 202.112C165.573 201.64 165.913 201.242 166.364 200.92C166.815 200.59 167.374 200.343 168.04 200.179C168.713 200.007 169.483 199.921 170.35 199.921H172.262ZM185.549 195.377H188.127V206.646C188.127 207.698 187.898 208.59 187.439 209.32C186.988 210.058 186.355 210.617 185.538 210.996C184.722 211.383 183.773 211.576 182.691 211.576C182.226 211.576 181.721 211.512 181.177 211.383C180.64 211.254 180.12 211.05 179.619 210.771C179.125 210.498 178.713 210.144 178.384 209.707L179.662 208.031C180.049 208.482 180.486 208.823 180.973 209.052C181.46 209.288 181.986 209.406 182.552 209.406C183.125 209.406 183.612 209.299 184.013 209.084C184.421 208.876 184.732 208.568 184.947 208.16C185.169 207.759 185.28 207.265 185.28 206.678V198.03L185.549 195.377ZM177.696 201.328V201.103C177.696 200.215 177.804 199.409 178.019 198.686C178.233 197.955 178.541 197.328 178.942 196.806C179.351 196.283 179.841 195.878 180.414 195.592C180.994 195.305 181.646 195.162 182.369 195.162C183.135 195.162 183.78 195.302 184.303 195.581C184.833 195.86 185.27 196.258 185.613 196.773C185.964 197.289 186.236 197.901 186.43 198.61C186.63 199.312 186.784 200.086 186.892 200.931V201.543C186.791 202.367 186.63 203.122 186.408 203.81C186.193 204.497 185.907 205.099 185.549 205.614C185.191 206.123 184.747 206.517 184.217 206.796C183.687 207.075 183.064 207.215 182.348 207.215C181.632 207.215 180.987 207.068 180.414 206.774C179.841 206.481 179.351 206.069 178.942 205.539C178.541 205.009 178.233 204.386 178.019 203.67C177.804 202.954 177.696 202.173 177.696 201.328ZM180.532 201.103V201.328C180.532 201.829 180.582 202.299 180.683 202.735C180.783 203.172 180.937 203.559 181.145 203.896C181.352 204.225 181.614 204.483 181.929 204.669C182.244 204.855 182.62 204.948 183.057 204.948C183.644 204.948 184.124 204.826 184.496 204.583C184.876 204.332 185.162 203.992 185.356 203.562C185.556 203.126 185.685 202.635 185.742 202.091V200.404C185.706 199.975 185.628 199.577 185.506 199.212C185.391 198.847 185.23 198.532 185.023 198.267C184.815 198.002 184.55 197.794 184.228 197.644C183.905 197.493 183.522 197.418 183.078 197.418C182.648 197.418 182.273 197.515 181.95 197.708C181.628 197.894 181.363 198.156 181.155 198.492C180.948 198.829 180.79 199.219 180.683 199.663C180.582 200.107 180.532 200.587 180.532 201.103ZM196.784 207.215C195.903 207.215 195.112 207.072 194.41 206.785C193.708 206.499 193.111 206.101 192.616 205.593C192.129 205.077 191.753 204.479 191.488 203.799C191.231 203.111 191.102 202.374 191.102 201.586V201.156C191.102 200.261 191.231 199.448 191.488 198.718C191.746 197.98 192.111 197.346 192.584 196.816C193.057 196.286 193.623 195.878 194.281 195.592C194.94 195.305 195.667 195.162 196.462 195.162C197.286 195.162 198.013 195.302 198.643 195.581C199.273 195.853 199.799 196.24 200.222 196.741C200.644 197.243 200.963 197.844 201.178 198.546C201.393 199.241 201.5 200.01 201.5 200.855V202.048H192.391V200.093H198.707V199.878C198.693 199.427 198.607 199.015 198.449 198.643C198.292 198.263 198.048 197.962 197.719 197.74C197.389 197.511 196.963 197.396 196.441 197.396C196.018 197.396 195.649 197.49 195.334 197.676C195.026 197.855 194.768 198.113 194.561 198.449C194.36 198.779 194.21 199.173 194.11 199.631C194.009 200.089 193.959 200.598 193.959 201.156V201.586C193.959 202.073 194.024 202.524 194.152 202.939C194.289 203.355 194.486 203.716 194.743 204.024C195.008 204.325 195.323 204.562 195.689 204.733C196.061 204.898 196.484 204.98 196.956 204.98C197.551 204.98 198.088 204.866 198.568 204.637C199.055 204.4 199.477 204.053 199.835 203.595L201.264 205.077C201.02 205.435 200.691 205.779 200.276 206.108C199.867 206.438 199.373 206.706 198.793 206.914C198.213 207.115 197.543 207.215 196.784 207.215Z" fill="#AAADAE"/>
</svg>
