<svg xmlns="http://www.w3.org/2000/svg" width="23" height="22" viewBox="0 0 23 22" fill="none">
<path fill-rule="evenodd" clip-rule="evenodd" d="M15.625 1.90625V3.66667L17.7083 5.33333V1.90625H15.625ZM19.2708 6.58333V1.64583C19.2708 0.927083 18.6875 0.34375 17.9688 0.34375H15.3646C14.6458 0.34375 14.0625 0.927083 14.0625 1.64583V2.41667L13.6385 2.07708C12.9458 1.52277 12.0851 1.22077 11.1979 1.22077C10.3107 1.22077 9.44999 1.52277 8.75729 2.07708L0.29375 8.84792C0.131857 8.97735 0.0280119 9.16579 0.0050582 9.37179C-0.0178955 9.57778 0.041923 9.78446 0.171354 9.94635C0.300785 10.1082 0.489227 10.2121 0.695224 10.235C0.901221 10.258 1.1079 10.1982 1.26979 10.0688L2.08333 9.41667V20.1354H0.78125C0.57405 20.1354 0.375336 20.2177 0.228823 20.3642C0.0823101 20.5108 0 20.7095 0 20.9167C0 21.1239 0.0823101 21.3226 0.228823 21.4691C0.375336 21.6156 0.57405 21.6979 0.78125 21.6979H21.6146C21.8218 21.6979 22.0205 21.6156 22.167 21.4691C22.3135 21.3226 22.3958 21.1239 22.3958 20.9167C22.3958 20.7095 22.3135 20.5108 22.167 20.3642C22.0205 20.2177 21.8218 20.1354 21.6146 20.1354H20.3125V9.41667L21.1271 10.0688C21.2892 10.1951 21.4947 10.2525 21.6989 10.2284C21.903 10.2043 22.0895 10.1007 22.2178 9.94005C22.3461 9.77941 22.4059 9.57467 22.3842 9.37023C22.3626 9.16579 22.2612 8.97812 22.1021 8.84792L19.2708 6.58333ZM18.75 8.16667L12.6625 3.29688C12.2469 2.96418 11.7303 2.78292 11.1979 2.78292C10.6655 2.78292 10.149 2.96418 9.73333 3.29688L3.64583 8.16667V20.1354H7.29167V15.6562C7.29167 14.9646 7.29167 14.3677 7.35625 13.8896C7.425 13.3771 7.58021 12.8865 7.97813 12.4885C8.37604 12.0906 8.86771 11.9354 9.37917 11.8667C9.85729 11.8021 10.4542 11.8021 11.1469 11.8021H11.249C11.9417 11.8021 12.5385 11.8021 13.0167 11.8667C13.5292 11.9354 14.0198 12.0906 14.4177 12.4885C14.8156 12.8865 14.9708 13.3771 15.0396 13.8896C15.1042 14.3677 15.1042 14.9646 15.1042 15.6573V20.1354H18.75V8.16667ZM13.5417 20.1354V15.7083C13.5417 14.95 13.5396 14.4583 13.4917 14.0979C13.4458 13.7594 13.3729 13.6531 13.3125 13.5938C13.2531 13.5344 13.1469 13.4604 12.8083 13.4146C12.4469 13.3667 11.9563 13.3646 11.1979 13.3646C10.4396 13.3646 9.94792 13.3667 9.5875 13.4146C9.24896 13.4604 9.14271 13.5344 9.08333 13.5938C9.02396 13.6531 8.95 13.7594 8.90417 14.0979C8.85625 14.4594 8.85417 14.95 8.85417 15.7083V20.1354H13.5417ZM11.1979 6.59375C11.0269 6.59375 10.8576 6.62743 10.6996 6.69287C10.5417 6.7583 10.3981 6.85421 10.2772 6.97512C10.1563 7.09603 10.0604 7.23957 9.99495 7.39755C9.92951 7.55552 9.89583 7.72484 9.89583 7.89583C9.89583 8.06682 9.92951 8.23614 9.99495 8.39412C10.0604 8.55209 10.1563 8.69564 10.2772 8.81654C10.3981 8.93745 10.5417 9.03337 10.6996 9.0988C10.8576 9.16424 11.0269 9.19792 11.1979 9.19792C11.5433 9.19792 11.8744 9.06073 12.1186 8.81654C12.3628 8.57236 12.5 8.24117 12.5 7.89583C12.5 7.5505 12.3628 7.21931 12.1186 6.97512C11.8744 6.73093 11.5433 6.59375 11.1979 6.59375ZM8.33333 7.89583C8.33333 7.1361 8.63514 6.40748 9.17235 5.87027C9.70956 5.33305 10.4382 5.03125 11.1979 5.03125C11.9577 5.03125 12.6863 5.33305 13.2235 5.87027C13.7607 6.40748 14.0625 7.1361 14.0625 7.89583C14.0625 8.65557 13.7607 9.38419 13.2235 9.9214C12.6863 10.4586 11.9577 10.7604 11.1979 10.7604C10.4382 10.7604 9.70956 10.4586 9.17235 9.9214C8.63514 9.38419 8.33333 8.65557 8.33333 7.89583Z" fill="#018191" />
</svg>