<svg width="25" height="25" viewBox="0 0 25 25" fill="none" xmlns="http://www.w3.org/2000/svg">
<path d="M11.4583 15.2778C11.1821 15.2778 10.9171 15.168 10.7218 14.9727C10.5264 14.7773 10.4167 14.5124 10.4167 14.2361C10.4167 13.9598 10.5264 13.6949 10.7218 13.4995C10.9171 13.3042 11.1821 13.1944 11.4583 13.1944C11.7346 13.1944 11.9995 13.3042 12.1949 13.4995C12.3902 13.6949 12.5 13.9598 12.5 14.2361C12.5 14.5124 12.3902 14.7773 12.1949 14.9727C11.9995 15.168 11.7346 15.2778 11.4583 15.2778Z" fill="#018191"/>
<path fill-rule="evenodd" clip-rule="evenodd" d="M2.38125 9.72222C2.51597 9.72222 2.64861 9.71111 2.77778 9.68889V15.2778H1.04167C0.949578 15.2778 0.86126 15.3144 0.796144 15.3795C0.731027 15.4446 0.694444 15.5329 0.694444 15.625V16.3194C0.694444 16.4115 0.731027 16.4999 0.796144 16.565C0.86126 16.6301 0.949578 16.6667 1.04167 16.6667H23.9583C24.0504 16.6667 24.1387 16.6301 24.2039 16.565C24.269 16.4999 24.3056 16.4115 24.3056 16.3194V15.625C24.3056 15.5329 24.269 15.4446 24.2039 15.3795C24.1387 15.3144 24.0504 15.2778 23.9583 15.2778H22.2222V9.68889C22.3514 9.71111 22.484 9.72222 22.6187 9.72222C23.9396 9.72222 25 8.64444 25 7.32708V5.66736C25.0001 5.44714 24.9618 5.2286 24.8868 5.02153L23.3729 0.847917C23.2831 0.599507 23.1189 0.384817 22.9027 0.233089C22.6865 0.0813611 22.4287 -3.03954e-05 22.1646 8.51497e-09H2.83472C2.57073 0.000306628 2.31324 0.0819321 2.09728 0.233772C1.88133 0.385612 1.71739 0.600294 1.62778 0.848611L0.113889 5.02153C0.03867 5.22855 0.0001297 5.4471 0 5.66736V7.32708C0 8.64444 1.06042 9.72222 2.38125 9.72222ZM1.41944 5.49514L2.90903 1.38889H22.0903L23.5799 5.49514C23.6007 5.55069 23.6104 5.60833 23.6104 5.66736V7.32708C23.6121 7.59206 23.5085 7.84687 23.3224 8.03554C23.1364 8.22421 22.883 8.33131 22.6181 8.33333C22.0764 8.33333 21.6264 7.88889 21.6264 7.32708C21.6264 7.14291 21.5532 6.96627 21.423 6.83604C21.2928 6.7058 21.1161 6.63264 20.9319 6.63264C20.7478 6.63264 20.5711 6.7058 20.4409 6.83604C20.3107 6.96627 20.2375 7.14291 20.2375 7.32708C20.2392 7.59206 20.1356 7.84687 19.9495 8.03554C19.7635 8.22421 19.5101 8.33131 19.2451 8.33333C18.7035 8.33333 18.2535 7.88889 18.2535 7.32778C18.2535 7.1436 18.1803 6.96696 18.0501 6.83673C17.9198 6.7065 17.7432 6.63333 17.559 6.63333C17.3748 6.63333 17.1982 6.7065 17.068 6.83673C16.9377 6.96696 16.8646 7.1436 16.8646 7.32778C16.8646 7.88889 16.4146 8.33333 15.8722 8.33333C15.3299 8.33333 14.8806 7.88889 14.8806 7.32708C14.8806 7.14291 14.8074 6.96627 14.6772 6.83604C14.5469 6.7058 14.3703 6.63264 14.1861 6.63264C14.0019 6.63264 13.8253 6.7058 13.6951 6.83604C13.5648 6.96627 13.4917 7.14291 13.4917 7.32708C13.4935 7.592 13.3901 7.84681 13.2041 8.0355C13.0182 8.22419 12.7649 8.33131 12.5 8.33333C12.2351 8.33131 11.9819 8.2243 11.7959 8.03578C11.6098 7.84726 11.5062 7.59264 11.5076 7.32778C11.5076 7.1436 11.4345 6.96696 11.3042 6.83673C11.174 6.7065 10.9974 6.63333 10.8132 6.63333C10.629 6.63333 10.4524 6.7065 10.3221 6.83673C10.1919 6.96696 10.1187 7.1436 10.1187 7.32778C10.1187 7.88889 9.66944 8.33333 9.12708 8.33333C8.58472 8.33333 8.13472 7.88889 8.13472 7.32708C8.13472 7.14291 8.06156 6.96627 7.93132 6.83604C7.80109 6.7058 7.62446 6.63264 7.44028 6.63264C7.2561 6.63264 7.07946 6.7058 6.94923 6.83604C6.819 6.96627 6.74583 7.14291 6.74583 7.32708C6.74583 7.88819 6.29653 8.33333 5.75417 8.33333C5.21181 8.33333 4.76181 7.88889 4.76181 7.32708C4.76181 7.14291 4.68864 6.96627 4.55841 6.83604C4.42817 6.7058 4.25154 6.63264 4.06736 6.63264C3.88318 6.63264 3.70655 6.7058 3.57631 6.83604C3.44608 6.96627 3.37292 7.14291 3.37292 7.32708C3.37292 7.88819 2.92361 8.33333 2.38125 8.33333C1.83819 8.33333 1.38889 7.88889 1.38889 7.32708V5.66736C1.38888 5.6086 1.39922 5.5503 1.41944 5.49514ZM20.8333 9.1125C20.3982 9.50581 19.8324 9.72315 19.2458 9.72222C18.9321 9.7226 18.6215 9.66054 18.332 9.53964C18.0425 9.41875 17.78 9.24144 17.5597 9.01806C17.3394 9.24152 17.0767 9.41888 16.7871 9.53977C16.4975 9.66067 16.1867 9.7227 15.8729 9.72222C15.5592 9.7226 15.2486 9.66054 14.9591 9.53964C14.6696 9.41875 14.4071 9.24144 14.1868 9.01806C13.9665 9.24152 13.7038 9.41888 13.4142 9.53977C13.1246 9.66067 12.8138 9.7227 12.5 9.72222C12.1862 9.7227 11.8754 9.66067 11.5858 9.53977C11.2962 9.41888 11.0335 9.24152 10.8132 9.01806C10.5929 9.24144 10.3304 9.41875 10.0409 9.53964C9.75145 9.66054 9.44079 9.7226 9.12708 9.72222C8.46667 9.72222 7.87014 9.45208 7.44028 9.01806C7.22002 9.24144 6.95749 9.41875 6.66801 9.53964C6.37853 9.66054 6.06788 9.7226 5.75417 9.72222C5.14306 9.72222 4.5875 9.49097 4.16667 9.1125V15.2778H5.90278C5.81069 15.2778 5.72237 15.2412 5.65725 15.1761C5.59214 15.111 5.55556 15.0226 5.55556 14.9306V13.5417C5.55556 13.4496 5.59214 13.3613 5.65725 13.2961C5.72237 13.231 5.81069 13.1944 5.90278 13.1944H7.98611C8.0782 13.1944 8.16652 13.231 8.23163 13.2961C8.29675 13.3613 8.33333 13.4496 8.33333 13.5417V13.8889H9.375C9.46709 13.8889 9.55541 13.9255 9.62052 13.9906C9.68564 14.0557 9.72222 14.144 9.72222 14.2361V14.9306C9.72222 15.0226 9.68564 15.111 9.62052 15.1761C9.55541 15.2412 9.46709 15.2778 9.375 15.2778H20.8333V9.1125ZM1.38889 18.75C1.38889 18.5658 1.46205 18.3892 1.59229 18.259C1.72252 18.1287 1.89916 18.0556 2.08333 18.0556H22.9167C23.1008 18.0556 23.2775 18.1287 23.4077 18.259C23.5379 18.3892 23.6111 18.5658 23.6111 18.75V24.3056C23.6111 24.4897 23.5379 24.6664 23.4077 24.7966C23.2775 24.9268 23.1008 25 22.9167 25H2.08333C1.89916 25 1.72252 24.9268 1.59229 24.7966C1.46205 24.6664 1.38889 24.4897 1.38889 24.3056V18.75ZM2.77778 23.6111V19.4444H22.2222V23.6111H2.77778Z" fill="#018191"/>
</svg>
