<svg width="22" height="22" viewBox="0 0 22 22" fill="none" xmlns="http://www.w3.org/2000/svg">
<path d="M10.9845 0.439719C10.8914 0.443038 10.8017 0.475838 10.7284 0.533391L0.608447 8.45339C0.56295 8.48905 0.524923 8.53332 0.496537 8.58367C0.468152 8.63403 0.449964 8.68948 0.443013 8.74687C0.436062 8.80425 0.440484 8.86244 0.456025 8.91812C0.471567 8.97379 0.497925 9.02586 0.533593 9.07135C0.569261 9.11684 0.61354 9.15486 0.663902 9.18323C0.714265 9.2116 0.769723 9.22977 0.827109 9.23671C0.884496 9.24365 0.942687 9.23921 0.998359 9.22365C1.05403 9.2081 1.10609 9.18173 1.15157 9.14605L1.93102 8.53589H2.64001V7.98074L11 1.43831L19.36 7.98074V8.53589H20.069L20.8484 9.14605C20.8939 9.18173 20.946 9.20809 21.0017 9.22365C21.0573 9.2392 21.1155 9.24364 21.1729 9.2367C21.2303 9.22976 21.2857 9.21159 21.3361 9.18322C21.3865 9.15484 21.4307 9.11683 21.4664 9.07134C21.5021 9.02586 21.5284 8.97379 21.544 8.91811C21.5595 8.86244 21.5639 8.80425 21.557 8.74686C21.55 8.68948 21.5319 8.63403 21.5035 8.58367C21.4751 8.53332 21.4371 8.48905 21.3916 8.45339L11.2716 0.533391C11.1899 0.469293 11.0883 0.436115 10.9845 0.439719ZM4.84001 9.23972V19.7997H3.9136V20.6797H5.58079V20.2397H5.72001V19.3597H16.28V20.2397H16.4192V20.6797H18.0864V19.7997H17.16V18.9197V18.4797V13.6397V13.1997V12.7597V9.23972H16.28V10.7995C15.8119 10.3786 15.1956 10.1197 14.52 10.1197H11V12.7597H9.50899C9.87968 12.4362 10.12 11.9665 10.12 11.4397C10.12 10.4729 9.32682 9.67972 8.36001 9.67972C7.3932 9.67972 6.60001 10.4729 6.60001 11.4397C6.60001 11.9665 6.84034 12.4362 7.21103 12.7597H5.72001V9.23972H4.84001ZM1.76001 9.36863V11.0341H2.64001V9.36863H1.76001ZM19.36 9.36863V11.0332H20.24V9.36863H19.36ZM8.36001 10.5597C8.85123 10.5597 9.24001 10.9485 9.24001 11.4397C9.24001 11.9309 8.85123 12.3197 8.36001 12.3197C7.86879 12.3197 7.48001 11.9309 7.48001 11.4397C7.48001 10.9485 7.86879 10.5597 8.36001 10.5597ZM11.88 10.9997H14.52C15.497 10.9997 16.28 11.7828 16.28 12.7597H11.88V10.9997ZM1.76001 11.866V13.5314H2.64001V11.866H1.76001ZM19.36 11.866V13.5314H20.24V11.866H19.36ZM5.72001 13.6397H16.28V16.5195C15.8119 16.0986 15.1956 15.8397 14.52 15.8397H11V18.4797H9.50899C9.87968 18.1563 10.12 17.6865 10.12 17.1597C10.12 16.1929 9.32682 15.3997 8.36001 15.3997C7.3932 15.3997 6.60001 16.1929 6.60001 17.1597C6.60001 17.6865 6.84034 18.1563 7.21103 18.4797H5.72001V13.6397ZM1.76001 14.3642V16.0296H2.64001V14.3642H1.76001ZM19.36 14.3642V16.0288H20.24V14.3642H19.36ZM8.36001 16.2797C8.85123 16.2797 9.24001 16.6685 9.24001 17.1597C9.24001 17.6509 8.85123 18.0397 8.36001 18.0397C7.86879 18.0397 7.48001 17.6509 7.48001 17.1597C7.48001 16.6685 7.86879 16.2797 8.36001 16.2797ZM11.88 16.7197H14.52C15.497 16.7197 16.28 17.5028 16.28 18.4797H11.88V16.7197ZM19.36 16.8615V18.527H20.24V16.8615H19.36ZM1.76001 16.8624V18.527H2.64001V16.8624H1.76001ZM1.76001 19.3597V20.2397C1.76002 20.3564 1.80638 20.4683 1.8889 20.5508C1.97141 20.6333 2.08332 20.6797 2.20001 20.6797H3.08001V19.7997H2.64001V19.3597H1.76001ZM19.36 19.3597V19.7997H18.92V20.6797H19.8C19.9167 20.6797 20.0286 20.6333 20.1111 20.5508C20.1936 20.4683 20.24 20.3564 20.24 20.2397V19.3597H19.36ZM6.41438 19.7997V20.6797H8.08243V19.7997H6.41438ZM8.91603 19.7997V20.6797H10.5832V19.7997H8.91603ZM11.4168 19.7997V20.6797H13.084V19.7997H11.4168ZM13.9176 19.7997V20.6797H15.5848V19.7997H13.9176Z" fill="#018191"/>
</svg>
