<svg xmlns="http://www.w3.org/2000/svg" width="22" height="22" viewBox="0 0 22 22" fill="none">
  <path d="M15.5833 16.5C15.5833 16.7431 15.6799 16.9763 15.8518 17.1482C16.0237 17.3201 16.2569 17.4166 16.5 17.4166C16.7431 17.4166 16.9763 17.3201 17.1482 17.1482C17.3201 16.9763 17.4167 16.7431 17.4167 16.5C17.4167 16.2569 17.3201 16.0237 17.1482 15.8518C16.9763 15.6799 16.7431 15.5833 16.5 15.5833C16.2569 15.5833 16.0237 15.6799 15.8518 15.8518C15.6799 16.0237 15.5833 16.2569 15.5833 16.5ZM10.0833 16.5C10.0833 16.7431 10.1799 16.9763 10.3518 17.1482C10.5237 17.3201 10.7569 17.4166 11 17.4166C11.2431 17.4166 11.4763 17.3201 11.6482 17.1482C11.8201 16.9763 11.9167 16.7431 11.9167 16.5C11.9167 16.2569 11.8201 16.0237 11.6482 15.8518C11.4763 15.6799 11.2431 15.5833 11 15.5833C10.7569 15.5833 10.5237 15.6799 10.3518 15.8518C10.1799 16.0237 10.0833 16.2569 10.0833 16.5ZM4.58334 16.5C4.58334 16.7431 4.67992 16.9763 4.85183 17.1482C5.02374 17.3201 5.2569 17.4166 5.50001 17.4166C5.74313 17.4166 5.97628 17.3201 6.14819 17.1482C6.3201 16.9763 6.41668 16.7431 6.41668 16.5C6.41668 16.2569 6.3201 16.0237 6.14819 15.8518C5.97628 15.6799 5.74313 15.5833 5.50001 15.5833C5.2569 15.5833 5.02374 15.6799 4.85183 15.8518C4.67992 16.0237 4.58334 16.2569 4.58334 16.5ZM15.5833 11C15.5833 11.2431 15.6799 11.4763 15.8518 11.6482C16.0237 11.8201 16.2569 11.9166 16.5 11.9166C16.7431 11.9166 16.9763 11.8201 17.1482 11.6482C17.3201 11.4763 17.4167 11.2431 17.4167 11C17.4167 10.7569 17.3201 10.5237 17.1482 10.3518C16.9763 10.1799 16.7431 10.0833 16.5 10.0833C16.2569 10.0833 16.0237 10.1799 15.8518 10.3518C15.6799 10.5237 15.5833 10.7569 15.5833 11ZM10.0833 11C10.0833 11.2431 10.1799 11.4763 10.3518 11.6482C10.5237 11.8201 10.7569 11.9166 11 11.9166C11.2431 11.9166 11.4763 11.8201 11.6482 11.6482C11.8201 11.4763 11.9167 11.2431 11.9167 11C11.9167 10.7569 11.8201 10.5237 11.6482 10.3518C11.4763 10.1799 11.2431 10.0833 11 10.0833C10.7569 10.0833 10.5237 10.1799 10.3518 10.3518C10.1799 10.5237 10.0833 10.7569 10.0833 11ZM4.58334 11C4.58334 11.2431 4.67992 11.4763 4.85183 11.6482C5.02374 11.8201 5.2569 11.9166 5.50001 11.9166C5.74313 11.9166 5.97628 11.8201 6.14819 11.6482C6.3201 11.4763 6.41668 11.2431 6.41668 11C6.41668 10.7569 6.3201 10.5237 6.14819 10.3518C5.97628 10.1799 5.74313 10.0833 5.50001 10.0833C5.2569 10.0833 5.02374 10.1799 4.85183 10.3518C4.67992 10.5237 4.58334 10.7569 4.58334 11ZM15.5833 5.49998C15.5833 5.74309 15.6799 5.97625 15.8518 6.14816C16.0237 6.32007 16.2569 6.41665 16.5 6.41665C16.7431 6.41665 16.9763 6.32007 17.1482 6.14816C17.3201 5.97625 17.4167 5.74309 17.4167 5.49998C17.4167 5.25686 17.3201 5.02371 17.1482 4.8518C16.9763 4.67989 16.7431 4.58331 16.5 4.58331C16.2569 4.58331 16.0237 4.67989 15.8518 4.8518C15.6799 5.02371 15.5833 5.25686 15.5833 5.49998ZM10.0833 5.49998C10.0833 5.74309 10.1799 5.97625 10.3518 6.14816C10.5237 6.32007 10.7569 6.41665 11 6.41665C11.2431 6.41665 11.4763 6.32007 11.6482 6.14816C11.8201 5.97625 11.9167 5.74309 11.9167 5.49998C11.9167 5.25686 11.8201 5.02371 11.6482 4.8518C11.4763 4.67989 11.2431 4.58331 11 4.58331C10.7569 4.58331 10.5237 4.67989 10.3518 4.8518C10.1799 5.02371 10.0833 5.25686 10.0833 5.49998ZM4.58334 5.49998C4.58334 5.74309 4.67992 5.97625 4.85183 6.14816C5.02374 6.32007 5.2569 6.41665 5.50001 6.41665C5.74313 6.41665 5.97628 6.32007 6.14819 6.14816C6.3201 5.97625 6.41668 5.74309 6.41668 5.49998C6.41668 5.25686 6.3201 5.02371 6.14819 4.8518C5.97628 4.67989 5.74313 4.58331 5.50001 4.58331C5.2569 4.58331 5.02374 4.67989 4.85183 4.8518C4.67992 5.02371 4.58334 5.25686 4.58334 5.49998Z" stroke="#018191" stroke-width="2" stroke-linecap="round" stroke-linejoin="round"/>
</svg>