<svg width="25" height="25" viewBox="0 0 25 25" fill="none" xmlns="http://www.w3.org/2000/svg">
<path d="M12.5 0C14.6483 0 16.7125 0.672116 18.5108 1.92211L18.8625 2.17692L18.9175 2.21923L19.1525 2.40961L19.2808 2.51923L19.605 2.81154C19.7208 2.91923 19.8417 3.03558 19.9683 3.15962C20.3742 3.55769 20.8792 3.79519 21.4075 3.83942L21.5842 3.84615H24.1667C24.5942 3.84615 24.9467 4.21731 24.9942 4.69519L25 4.80769V24.0385C25 24.5317 24.6783 24.9385 24.2642 24.9933L24.1667 25H0.833333C0.405834 25 0.0533334 24.6288 0.00583331 24.151L0 24.0385V4.80769C0 4.31442 0.321666 3.90769 0.735834 3.85288L0.833333 3.84615H3.415C4.0075 3.84615 4.58083 3.60385 5.03167 3.1625C5.51667 2.68846 5.93167 2.32404 6.2825 2.06923C8.12917 0.724039 10.2692 0 12.5 0ZM5 19.2308H1.66667V23.0769H5V19.2308ZM20.752 19.2308H16.6667V23.0769H20.752V19.2308ZM12.5 12.5C11.1683 12.5 10.08 13.701 10.0042 15.2154L10 15.3846V23.0769H15V15.3846C15 13.9058 14.035 12.6856 12.7917 12.5192L12.6467 12.5048L12.5 12.5ZM8.33333 19.2308H6V23.0769H8.33333V19.2308ZM23.3333 19.2308H21.6667V23.0769H23.3333V19.2308ZM18.9175 13.4625H16.32C16.5108 13.9663 16.6292 14.5163 16.6592 15.0933L16.6667 15.3846V17.3077H18.9175V13.4625ZM3.33333 13.4615H1.66667V17.3077H3.33333V13.4615ZM8.68 13.4625L4.5 13.5V17.3077H8.33333V15.3846C8.33333 14.701 8.45667 14.051 8.68 13.4625ZM23.3333 13.4615H20V17.3077H23.3333V13.4615ZM20 8.65385H13.3333L13.3342 10.6731C13.8733 10.8 14.3742 11.0462 14.8158 11.3875L15 11.5385H20V8.65385ZM11.6667 8.65385H5.83333V11.5385H10C10.4842 11.1183 11.0508 10.8173 11.6667 10.6731V8.65385ZM23.3333 8.65385H21V11.5385H23.3333V8.65385ZM4.70935 8.65385H1.66667V11.5385H4.70935V8.65385ZM12.5 1.92308C10.5867 1.92308 8.75417 2.54327 7.1725 3.69519C6.89667 3.89615 6.54083 4.20769 6.10917 4.62981C5.41 5.3125 4.5375 5.70962 3.62667 5.76346L3.41583 5.76923L1.66667 5.76827V6.73077H23.3333V5.76827L21.5833 5.76923C20.7425 5.76827 19.925 5.47404 19.2367 4.93077L19.0517 4.77692L18.8875 4.62404L18.5692 4.31827L18.2667 4.04615C18.1333 3.92981 18.0125 3.83173 17.9058 3.75288C16.3067 2.56442 14.4458 1.92308 12.5 1.92308Z" fill="#018191"/>
</svg>
