<svg xmlns="http://www.w3.org/2000/svg" width="22" height="22" viewBox="0 0 22 22" fill="none">
<path d="M11 15.7457V17.3329M11 7.87287V9.35001M11 21.1986C16.5 21.1986 20.4286 19.25 20.4286 14.9129C20.4286 10.1986 18.0714 7.05573 13.3571 4.69859L15.2114 2.31001C15.3056 2.1533 15.3567 1.97446 15.3595 1.79163C15.3623 1.6088 15.3168 1.42848 15.2274 1.26894C15.1381 1.1094 15.0082 0.976317 14.8508 0.883179C14.6935 0.79004 14.5143 0.740158 14.3314 0.738586H7.66857C7.48573 0.740158 7.30655 0.79004 7.14919 0.883179C6.99184 0.976317 6.86191 1.1094 6.77257 1.26894C6.68323 1.42848 6.63765 1.6088 6.64046 1.79163C6.64327 1.97446 6.69437 2.1533 6.78857 2.31001L8.64286 4.7143C3.92857 7.08716 1.57143 10.23 1.57143 14.9443C1.57143 19.25 5.5 21.1986 11 21.1986Z" stroke="#018191" stroke-linecap="round" stroke-linejoin="round"/>
<path d="M9.42857 15.0229C9.62031 15.2505 9.86164 15.4311 10.134 15.551C10.4064 15.6709 10.7027 15.7267 11 15.7143C11.4545 15.7453 11.9032 15.5989 12.252 15.3058C12.6007 15.0128 12.8222 14.5959 12.87 14.1429C12.8222 13.6899 12.6007 13.273 12.252 12.98C11.9032 12.6869 11.4545 12.5405 11 12.5715C10.5455 12.6024 10.0968 12.456 9.74802 12.163C9.39928 11.8699 9.17775 11.453 9.13 11C9.17391 10.5454 9.39438 10.1262 9.74403 9.83236C10.0937 9.53854 10.5446 9.39357 11 9.4286C11.2921 9.41073 11.5845 9.45784 11.8563 9.56653C12.128 9.67521 12.3722 9.84278 12.5714 10.0572" stroke="#018191" stroke-linecap="round" stroke-linejoin="round"/>
</svg>