<svg xmlns="http://www.w3.org/2000/svg" width="17" height="17" viewBox="0 0 17 17" fill="none">
<g clip-path="url(#clip0_1173_509)">
<path d="M12.2188 12.2188V13.8125H4.51562C3.88159 13.8125 3.27353 13.5606 2.8252 13.1123C2.37687 12.664 2.125 12.0559 2.125 11.4219C2.125 10.7878 2.37687 10.1798 2.8252 9.73145C3.27353 9.28312 3.88159 9.03125 4.51562 9.03125H4.78125V7.96875H4.51562C3.5998 7.96875 2.72148 8.33256 2.0739 8.98015C1.42631 9.62773 1.0625 10.506 1.0625 11.4219C1.0625 12.3377 1.42631 13.216 2.0739 13.8636C2.72148 14.5112 3.5998 14.875 4.51562 14.875H12.2188V16.4688H16.4688V12.2188H12.2188ZM15.4062 15.4062H13.2812V13.2812H15.4062V15.4062Z" fill="#018191"/>
<path d="M11.1562 11.6875H10.0938V10.0938H6.90625V11.6875H5.84375V10.0938C5.84403 9.81204 5.95606 9.54196 6.15526 9.34276C6.35446 9.14356 6.62454 9.03153 6.90625 9.03125H10.0938C10.3755 9.03153 10.6455 9.14356 10.8447 9.34276C11.0439 9.54196 11.156 9.81204 11.1562 10.0938V11.6875ZM8.5 8.5C8.18479 8.5 7.87665 8.40653 7.61456 8.23141C7.35247 8.05628 7.14819 7.80737 7.02757 7.51615C6.90694 7.22493 6.87538 6.90448 6.93687 6.59533C6.99837 6.28617 7.15016 6.00219 7.37305 5.7793C7.59594 5.55641 7.87992 5.40462 8.18907 5.34312C8.49823 5.28163 8.81868 5.31319 9.1099 5.43382C9.40112 5.55444 9.65003 5.75872 9.82516 6.02081C10.0003 6.2829 10.0938 6.59104 10.0938 6.90625C10.0933 7.32881 9.92528 7.73394 9.62649 8.03274C9.32769 8.33153 8.92256 8.49958 8.5 8.5ZM8.5 6.375C8.39493 6.375 8.29222 6.40616 8.20485 6.46453C8.11749 6.52291 8.0494 6.60588 8.00919 6.70295C7.96898 6.80002 7.95846 6.90684 7.97896 7.00989C7.99946 7.11294 8.05005 7.2076 8.12435 7.2819C8.19865 7.3562 8.29331 7.40679 8.39636 7.42729C8.49941 7.44779 8.60623 7.43727 8.7033 7.39706C8.80037 7.35685 8.88334 7.28876 8.94172 7.2014C9.00009 7.11403 9.03125 7.01132 9.03125 6.90625C9.03111 6.7654 8.97509 6.63035 8.87549 6.53076C8.7759 6.43116 8.64085 6.37514 8.5 6.375Z" fill="#018191"/>
<path d="M12.4844 2.125H4.78125V0.53125H0.53125V4.78125H4.78125V3.1875H12.4844C13.1184 3.1875 13.7265 3.43937 14.1748 3.8877C14.6231 4.33603 14.875 4.94409 14.875 5.57812C14.875 6.21216 14.6231 6.82022 14.1748 7.26855C13.7265 7.71688 13.1184 7.96875 12.4844 7.96875H12.2188V9.03125H12.4844C13.4002 9.03125 14.2785 8.66744 14.9261 8.01985C15.5737 7.37227 15.9375 6.49395 15.9375 5.57812C15.9375 4.6623 15.5737 3.78398 14.9261 3.1364C14.2785 2.48881 13.4002 2.125 12.4844 2.125ZM3.71875 3.71875H1.59375V1.59375H3.71875V3.71875Z" fill="#018191"/>
</g>
<defs>
<clipPath id="clip0_1173_509">
<rect width="17" height="17" fill="white"/>
</clipPath>
</defs>
</svg>