<svg width="23" height="23" viewBox="0 0 23 23" fill="none" xmlns="http://www.w3.org/2000/svg">
<path d="M19.3317 20.2918L19.5859 20.2371L19.8402 20.2918C20.2145 20.3723 20.5166 20.6461 20.6771 21.0625H18.4946C18.6548 20.6461 18.957 20.3724 19.3317 20.2918ZM14.9855 4.83253L15.2734 4.79097L15.5614 4.83253C16.0412 4.90178 16.48 5.14164 16.7973 5.50814C17.1146 5.87464 17.2892 6.34322 17.2891 6.828V6.82812V8.84375H13.2578L13.2578 6.82812L13.2578 6.828C13.2577 6.34322 13.4323 5.87464 13.7496 5.50814C14.0669 5.14164 14.5057 4.90178 14.9855 4.83253Z" stroke="#018191"/>
<path d="M17.25 14.4958V12.9375C17.25 12.5563 17.0985 12.1906 16.829 11.921C16.5594 11.6515 16.1937 11.5 15.8125 11.5H10.4219C10.1695 11.4997 9.92152 11.5661 9.70312 11.6926L17.25 14.4958ZM17.25 14.4958C17.6748 14.6977 17.9688 15.1311 17.9688 15.6328V20.125C17.9688 20.3156 17.893 20.4984 17.7582 20.6332C17.6234 20.768 17.4406 20.8438 17.25 20.8438M17.25 14.4958V20.8438M17.25 20.8438V21.3438V21.3828C17.25 21.4305 17.2311 21.4762 17.1974 21.5099C17.1637 21.5436 17.118 21.5625 17.0703 21.5625H15.9922C15.9445 21.5625 15.8988 21.5436 15.8651 21.5099C15.8314 21.4762 15.8125 21.4305 15.8125 21.3828V21.3438V20.8438H15.3125H4.09375H3.59375V21.3438M17.25 20.8438L3.59375 21.3438M3.59375 21.3438V21.3828C3.59375 21.4305 3.57482 21.4762 3.54112 21.5099C3.50742 21.5436 3.46172 21.5625 3.41406 21.5625H2.33594C2.28828 21.5625 2.24258 21.5436 2.20888 21.5099C2.17518 21.4762 2.15625 21.4305 2.15625 21.3828V21.3438V20.8438L3.59375 21.3438ZM9.45174 12.1248L9.7026 12.2707L9.95373 12.1253C10.0958 12.043 10.2571 11.9998 10.4212 12H10.4219H15.8125C16.0611 12 16.2996 12.0988 16.4754 12.2746C16.6512 12.4504 16.75 12.6889 16.75 12.9375V14.4958V14.8117L17.0353 14.9473C17.2925 15.0696 17.4688 15.3313 17.4688 15.6328V20.125C17.4688 20.183 17.4457 20.2387 17.4047 20.2797C17.3637 20.3207 17.308 20.3438 17.25 20.3438H16.75V20.8438V21.0625H16.3125V20.8438V20.3438H15.8125H3.59375H3.09375V20.8438V21.0625H2.65625V20.8438V20.3438H2.15625C2.09823 20.3438 2.04259 20.3207 2.00157 20.2797C1.96055 20.2387 1.9375 20.183 1.9375 20.125V15.6328C1.9375 15.3318 2.11343 15.0702 2.37157 14.947L2.65625 14.8112V14.4958V12.9375C2.65625 12.6889 2.75502 12.4504 2.93084 12.2746C3.10665 12.0988 3.34511 12 3.59375 12H8.98438C9.15621 12 9.31547 12.0456 9.45174 12.1248ZM16.3125 12.9375V12.4375H15.8125H10.0625H9.84375H9.5625H9.34375H3.59375H3.09375V12.9375V14.7523V14.9567L3.23682 15.1025C3.37133 15.2396 3.45312 15.4257 3.45312 15.6328V16.5313V17.0313H3.95312H9.34375H9.5625H9.84375H10.0625H15.4531H15.9531V16.5313V15.6328C15.9531 15.4252 16.0352 15.2389 16.1689 15.1031L16.3125 14.9571V14.7523V12.9375ZM3.95312 17.4688H3.45312V17.9688V19.4063V19.9063H3.95312H15.4531H15.9531V19.4063V17.9688V17.4688H15.4531H3.95312Z" stroke="#018191"/>
</svg>
