<svg width="24" height="24" viewBox="0 0 24 24" fill="none" xmlns="http://www.w3.org/2000/svg">
<path d="M22.8666 8.38156H16.3042V8.13696H16.8331C16.9558 8.13696 17.0639 8.05096 17.0983 7.92583C17.1327 7.8007 17.0854 7.66641 16.982 7.59617L12.179 4.3324C12.0882 4.27071 11.9721 4.27071 11.8813 4.3324L7.07828 7.59617C6.97491 7.66641 6.92753 7.8007 6.96198 7.92583C6.99642 8.05096 7.10444 8.13696 7.22715 8.13696H7.75648V8.38156H1.13339C0.980839 8.38156 0.857117 8.513 0.857117 8.67507V21.0026C0.857117 21.1647 0.980839 21.2961 1.13339 21.2961H22.8666C23.0191 21.2961 23.1428 21.1647 23.1428 21.0026V8.67507C23.1428 8.513 23.0191 8.38156 22.8666 8.38156ZM16.6966 20.7091H7.3034V20.2199H16.6966V20.7091ZM15.2001 18.0186H14.6476V9.60453H15.2001V18.0186ZM13.036 19.6329V18.3121C13.036 18.1754 12.9479 18.0608 12.8288 18.0282V16.7956H14.095V18.0282C13.9759 18.0608 13.8878 18.1754 13.8878 18.3121V19.6329H13.036ZM9.90493 10.8275H11.1712V12.0505H9.90493V10.8275ZM9.90493 12.6375H11.1712V13.4202H9.90493V12.6375ZM9.90493 14.0072H11.1712V14.2029H9.90493V14.0072ZM9.90493 14.7899H11.1712V16.2086H9.90493V14.7899ZM9.90493 18.0282V16.7956H11.1712V18.0282C11.0521 18.0608 10.964 18.1754 10.964 18.3121V19.6329H10.1121V18.3121C10.1121 18.1754 10.024 18.0608 9.90493 18.0282ZM11.5165 18.6056H12.4834V19.6329H11.5165V18.6056ZM12.8288 10.8275H14.095V12.0505H12.8288V10.8275ZM12.8288 12.6375H14.095V13.4202H12.8288V12.6375ZM12.8288 14.0072H14.095V14.2029H12.8288V14.0072ZM12.8288 14.7899H14.095V16.2086H12.8288V14.7899ZM14.095 10.2405H12.8288V9.60453H14.095V10.2405ZM12.2762 18.0186H11.7237V9.60453H12.2762V18.0186ZM11.1712 10.2405H9.90493V9.60453H11.1712V10.2405ZM9.35239 18.0186H8.79986V9.60453H9.35239V18.0186ZM8.24732 18.0282C8.12825 18.0608 8.04012 18.1754 8.04012 18.3121V18.6056H1.40966V10.3383H8.24732V18.0282ZM8.59265 18.6056H9.5596V19.6329H8.59265V18.6056ZM14.4404 19.6329V18.6056H15.4073V19.6329H14.4404ZM15.7526 18.0282V10.3383H22.5903V18.6056H15.9598V18.3121C15.9598 18.1754 15.8717 18.0608 15.7526 18.0282ZM22.5903 8.96858V9.75128H15.7526V9.60453H16.028C16.1805 9.60453 16.3042 9.47308 16.3042 9.31102V8.96858H22.5903ZM12.0301 4.92813L15.8885 7.54999H8.1718L12.0301 4.92813ZM15.7517 8.13696V9.0175H15.2001H14.6476H14.095H12.8288H12.2762H11.7237H11.1712H9.90493H9.35239H8.79986H8.30902V8.13696H15.7517ZM7.75648 8.96858V9.31102C7.75648 9.47308 7.8802 9.60453 8.03275 9.60453H8.24732V9.75128H1.40966V8.96858H7.75648ZM1.40966 19.1926H8.04012V19.6329H7.02713C6.87458 19.6329 6.75086 19.7643 6.75086 19.9264V20.7091H1.40966V19.1926ZM17.2491 20.7091V19.9264C17.2491 19.7643 17.1254 19.6329 16.9728 19.6329H15.9598V19.1926H22.5903V20.7091H17.2491Z" fill="#018191"/>
<path d="M2.89022 13.6158H4.4097C4.56225 13.6158 4.68597 13.4843 4.68597 13.3223V10.9742C4.68597 10.8121 4.56225 10.6807 4.4097 10.6807H2.89022C2.73768 10.6807 2.61395 10.8121 2.61395 10.9742V13.3223C2.61395 13.4844 2.73768 13.6158 2.89022 13.6158ZM3.16649 13.0288V12.0504H4.13343V13.0288H3.16649ZM4.13343 11.2677V11.4634H3.16649V11.2677H4.13343Z" fill="#018191"/>
<path d="M5.65292 13.6158H7.1724C7.32494 13.6158 7.44867 13.4843 7.44867 13.3223V10.9742C7.44867 10.8121 7.32494 10.6807 7.1724 10.6807H5.65292C5.50037 10.6807 5.37665 10.8121 5.37665 10.9742V13.3223C5.37665 13.4844 5.50037 13.6158 5.65292 13.6158ZM5.92919 13.0288V12.0504H6.89613V13.0288H5.92919ZM6.89613 11.2677V11.4634H5.92919V11.2677H6.89613Z" fill="#018191"/>
<path d="M2.89022 18.0679H4.4097C4.56225 18.0679 4.68597 17.9365 4.68597 17.7744V15.4263C4.68597 15.2643 4.56225 15.1328 4.4097 15.1328H2.89022C2.73768 15.1328 2.61395 15.2643 2.61395 15.4263V17.7744C2.61395 17.9365 2.73768 18.0679 2.89022 18.0679ZM3.16649 17.4809V16.5025H4.13343V17.4809H3.16649ZM4.13343 15.7198V15.9155H3.16649V15.7198H4.13343Z" fill="#018191"/>
<path d="M5.65292 18.0679H7.1724C7.32494 18.0679 7.44867 17.9365 7.44867 17.7744V15.4263C7.44867 15.2643 7.32494 15.1328 7.1724 15.1328H5.65292C5.50037 15.1328 5.37665 15.2643 5.37665 15.4263V17.7744C5.37665 17.9365 5.50037 18.0679 5.65292 18.0679ZM5.92919 17.4809V16.5025H6.89613V17.4809H5.92919ZM6.89613 15.7198V15.9155H5.92919V15.7198H6.89613Z" fill="#018191"/>
<path d="M16.8878 13.6158H18.4073C18.5599 13.6158 18.6836 13.4843 18.6836 13.3223V10.9742C18.6836 10.8121 18.5599 10.6807 18.4073 10.6807H16.8878C16.7353 10.6807 16.6116 10.8121 16.6116 10.9742V13.3223C16.6116 13.4844 16.7353 13.6158 16.8878 13.6158ZM17.1641 13.0288V12.0504H18.1311V13.0288H17.1641ZM18.1311 11.2677V11.4634H17.1641V11.2677H18.1311Z" fill="#018191"/>
<path d="M19.6505 13.6158H21.17C21.3226 13.6158 21.4463 13.4843 21.4463 13.3223V10.9742C21.4463 10.8121 21.3226 10.6807 21.17 10.6807H19.6505C19.498 10.6807 19.3743 10.8121 19.3743 10.9742V13.3223C19.3743 13.4844 19.498 13.6158 19.6505 13.6158ZM19.9268 13.0288V12.0504H20.8937V13.0288H19.9268ZM20.8937 11.2677V11.4634H19.9268V11.2677H20.8937Z" fill="#018191"/>
<path d="M16.8878 18.0679H18.4073C18.5599 18.0679 18.6836 17.9365 18.6836 17.7744V15.4263C18.6836 15.2643 18.5599 15.1328 18.4073 15.1328H16.8878C16.7353 15.1328 16.6116 15.2643 16.6116 15.4263V17.7744C16.6116 17.9365 16.7353 18.0679 16.8878 18.0679ZM17.1641 17.4809V16.5025H18.1311V17.4809H17.1641ZM18.1311 15.7198V15.9155H17.1641V15.7198H18.1311Z" fill="#018191"/>
<path d="M19.6505 18.0679H21.17C21.3226 18.0679 21.4463 17.9365 21.4463 17.7744V15.4263C21.4463 15.2643 21.3226 15.1328 21.17 15.1328H19.6505C19.498 15.1328 19.3743 15.2643 19.3743 15.4263V17.7744C19.3743 17.9365 19.498 18.0679 19.6505 18.0679ZM19.9268 17.4809V16.5025H20.8937V17.4809H19.9268ZM20.8937 15.7198V15.9155H19.9268V15.7198H20.8937Z" fill="#018191"/>
</svg>
