<svg width="869" height="623" viewBox="0 0 869 623" fill="none" xmlns="http://www.w3.org/2000/svg">
<rect x="3" y="3" width="862.606" height="617" rx="41.9279" fill="white" stroke="#931602" stroke-width="6"/>
<rect y="2.99518" width="865.611" height="617.01" rx="44.4631" fill="#931602" fill-opacity="0.2"/>
<path d="M308.815 268.652H320.88C320.559 272.923 319.374 276.711 317.327 280.016C315.279 283.292 312.427 285.866 308.771 287.738C305.115 289.61 300.683 290.546 295.477 290.546C291.47 290.546 287.857 289.844 284.64 288.44C281.452 287.007 278.717 284.974 276.435 282.341C274.183 279.679 272.457 276.491 271.258 272.776C270.059 269.032 269.459 264.835 269.459 260.184V255.314C269.459 250.664 270.073 246.466 271.302 242.722C272.53 238.978 274.285 235.79 276.567 233.157C278.878 230.496 281.642 228.448 284.859 227.015C288.106 225.582 291.733 224.865 295.74 224.865C300.947 224.865 305.349 225.83 308.946 227.761C312.544 229.662 315.338 232.28 317.327 235.614C319.316 238.949 320.515 242.781 320.924 247.11H308.859C308.625 244.419 308.04 242.137 307.104 240.265C306.197 238.393 304.822 236.975 302.98 236.009C301.166 235.015 298.753 234.518 295.74 234.518C293.4 234.518 291.338 234.956 289.554 235.834C287.799 236.711 286.336 238.028 285.166 239.783C283.996 241.508 283.119 243.673 282.534 246.276C281.949 248.85 281.656 251.833 281.656 255.226V260.184C281.656 263.431 281.92 266.341 282.446 268.915C282.973 271.489 283.792 273.669 284.903 275.453C286.015 277.237 287.448 278.597 289.203 279.533C290.958 280.469 293.049 280.937 295.477 280.937C298.431 280.937 300.83 280.469 302.672 279.533C304.544 278.597 305.963 277.222 306.928 275.409C307.923 273.595 308.552 271.343 308.815 268.652ZM331.779 266.415V265.493C331.779 262.012 332.276 258.81 333.271 255.885C334.265 252.93 335.713 250.371 337.614 248.207C339.516 246.042 341.841 244.36 344.59 243.161C347.34 241.932 350.47 241.318 353.98 241.318C357.548 241.318 360.707 241.932 363.457 243.161C366.235 244.36 368.575 246.042 370.477 248.207C372.378 250.371 373.826 252.93 374.82 255.885C375.815 258.81 376.312 262.012 376.312 265.493V266.415C376.312 269.866 375.815 273.069 374.82 276.023C373.826 278.948 372.378 281.508 370.477 283.701C368.575 285.866 366.25 287.548 363.501 288.747C360.751 289.946 357.607 290.546 354.067 290.546C350.557 290.546 347.413 289.946 344.634 288.747C341.856 287.548 339.516 285.866 337.614 283.701C335.713 281.508 334.265 278.948 333.271 276.023C332.276 273.069 331.779 269.866 331.779 266.415ZM343.362 265.493V266.415C343.362 268.491 343.567 270.436 343.976 272.25C344.386 274.063 345.015 275.658 345.863 277.032C346.711 278.407 347.808 279.489 349.153 280.279C350.528 281.04 352.166 281.42 354.067 281.42C355.939 281.42 357.548 281.04 358.894 280.279C360.239 279.489 361.336 278.407 362.184 277.032C363.062 275.658 363.705 274.063 364.115 272.25C364.524 270.436 364.729 268.491 364.729 266.415V265.493C364.729 263.446 364.524 261.53 364.115 259.746C363.705 257.932 363.062 256.338 362.184 254.963C361.336 253.559 360.225 252.462 358.85 251.673C357.504 250.854 355.881 250.444 353.98 250.444C352.108 250.444 350.499 250.854 349.153 251.673C347.808 252.462 346.711 253.559 345.863 254.963C345.015 256.338 344.386 257.932 343.976 259.746C343.567 261.53 343.362 263.446 343.362 265.493ZM400.768 251.936V289.668H389.185V242.196H400.11L400.768 251.936ZM399.057 264.221H395.503C395.503 260.916 395.898 257.874 396.687 255.095C397.506 252.316 398.706 249.903 400.285 247.856C401.865 245.779 403.81 244.17 406.121 243.029C408.461 241.889 411.166 241.318 414.237 241.318C416.373 241.318 418.332 241.64 420.117 242.283C421.901 242.898 423.437 243.878 424.724 245.223C426.04 246.539 427.049 248.265 427.751 250.4C428.453 252.506 428.804 255.036 428.804 257.991V289.668H417.221V259.175C417.221 256.952 416.899 255.212 416.256 253.954C415.641 252.696 414.749 251.819 413.579 251.322C412.409 250.795 411.005 250.532 409.367 250.532C407.554 250.532 405.989 250.897 404.673 251.629C403.386 252.331 402.318 253.311 401.47 254.568C400.651 255.826 400.037 257.274 399.627 258.912C399.247 260.55 399.057 262.32 399.057 264.221ZM427.926 262.071L423.144 262.948C423.173 259.965 423.583 257.172 424.373 254.568C425.162 251.936 426.318 249.64 427.839 247.68C429.389 245.691 431.305 244.141 433.586 243.029C435.897 241.889 438.559 241.318 441.571 241.318C443.911 241.318 446.017 241.655 447.889 242.327C449.791 242.971 451.414 244.009 452.76 245.442C454.105 246.846 455.129 248.675 455.831 250.927C456.562 253.179 456.928 255.928 456.928 259.175V289.668H445.257V259.131C445.257 256.821 444.935 255.051 444.292 253.822C443.677 252.594 442.785 251.746 441.615 251.278C440.445 250.781 439.071 250.532 437.491 250.532C435.882 250.532 434.478 250.839 433.279 251.453C432.109 252.038 431.115 252.857 430.296 253.91C429.506 254.963 428.906 256.192 428.497 257.596C428.117 258.97 427.926 260.462 427.926 262.071ZM484.104 242.196V289.668H472.477V242.196H484.104ZM471.687 229.779C471.687 228.053 472.272 226.62 473.442 225.479C474.641 224.339 476.25 223.768 478.268 223.768C480.287 223.768 481.881 224.339 483.051 225.479C484.25 226.62 484.85 228.053 484.85 229.779C484.85 231.476 484.25 232.894 483.051 234.035C481.881 235.176 480.287 235.746 478.268 235.746C476.25 235.746 474.641 235.176 473.442 234.035C472.272 232.894 471.687 231.476 471.687 229.779ZM511.017 252.331V289.668H499.434V242.196H510.315L511.017 252.331ZM509.174 264.221H505.752C505.781 260.769 506.249 257.64 507.156 254.832C508.062 252.024 509.335 249.611 510.973 247.592C512.64 245.574 514.614 244.024 516.896 242.942C519.177 241.859 521.722 241.318 524.53 241.318C526.812 241.318 528.874 241.64 530.716 242.283C532.559 242.927 534.139 243.951 535.455 245.355C536.8 246.759 537.824 248.601 538.526 250.883C539.257 253.135 539.623 255.914 539.623 259.219V289.668H527.952V259.131C527.952 256.967 527.631 255.256 526.987 253.998C526.373 252.74 525.466 251.848 524.267 251.322C523.097 250.795 521.649 250.532 519.923 250.532C518.139 250.532 516.574 250.897 515.229 251.629C513.912 252.331 512.801 253.311 511.894 254.568C511.017 255.826 510.344 257.274 509.876 258.912C509.408 260.55 509.174 262.32 509.174 264.221ZM584.525 242.196H595.055V288.22C595.055 292.52 594.119 296.162 592.247 299.145C590.404 302.158 587.815 304.439 584.481 305.99C581.146 307.569 577.271 308.359 572.854 308.359C570.953 308.359 568.891 308.096 566.668 307.569C564.474 307.043 562.353 306.209 560.306 305.068C558.287 303.957 556.606 302.509 555.26 300.725L560.481 293.88C562.061 295.723 563.845 297.112 565.834 298.048C567.823 299.014 569.973 299.496 572.284 299.496C574.624 299.496 576.613 299.057 578.251 298.18C579.918 297.332 581.19 296.074 582.068 294.407C582.974 292.769 583.428 290.751 583.428 288.352V253.033L584.525 242.196ZM552.452 266.502V265.581C552.452 261.954 552.891 258.663 553.768 255.709C554.646 252.726 555.904 250.166 557.542 248.031C559.209 245.896 561.212 244.243 563.552 243.073C565.922 241.903 568.583 241.318 571.538 241.318C574.667 241.318 577.3 241.889 579.435 243.029C581.6 244.17 583.384 245.793 584.788 247.899C586.221 250.005 587.333 252.506 588.122 255.402C588.941 258.268 589.57 261.427 590.009 264.879V267.38C589.6 270.744 588.941 273.829 588.035 276.637C587.157 279.445 585.987 281.902 584.525 284.008C583.062 286.085 581.249 287.694 579.084 288.835C576.92 289.975 574.375 290.546 571.45 290.546C568.525 290.546 565.892 289.946 563.552 288.747C561.212 287.548 559.209 285.866 557.542 283.701C555.904 281.537 554.646 278.992 553.768 276.067C552.891 273.142 552.452 269.954 552.452 266.502ZM564.035 265.581V266.502C564.035 268.55 564.24 270.466 564.649 272.25C565.059 274.034 565.688 275.614 566.536 276.988C567.384 278.334 568.452 279.387 569.739 280.147C571.026 280.908 572.561 281.288 574.346 281.288C576.744 281.288 578.704 280.791 580.225 279.796C581.775 278.773 582.945 277.383 583.735 275.628C584.554 273.844 585.08 271.84 585.314 269.617V262.729C585.168 260.974 584.846 259.351 584.349 257.859C583.881 256.367 583.223 255.08 582.375 253.998C581.527 252.916 580.444 252.067 579.128 251.453C577.812 250.839 576.247 250.532 574.433 250.532C572.678 250.532 571.143 250.927 569.827 251.716C568.51 252.477 567.428 253.545 566.58 254.919C565.732 256.294 565.088 257.888 564.649 259.702C564.24 261.515 564.035 263.475 564.035 265.581ZM362.184 378.084C362.184 376.855 361.994 375.758 361.614 374.793C361.263 373.798 360.605 372.906 359.64 372.117C358.704 371.298 357.373 370.508 355.647 369.747C353.95 368.958 351.757 368.139 349.066 367.29C346.082 366.354 343.303 365.301 340.729 364.131C338.155 362.961 335.889 361.601 333.929 360.051C331.998 358.501 330.492 356.716 329.41 354.698C328.327 352.651 327.786 350.282 327.786 347.591C327.786 344.958 328.342 342.56 329.454 340.395C330.594 338.231 332.203 336.373 334.28 334.823C336.357 333.243 338.799 332.03 341.607 331.181C344.444 330.333 347.574 329.909 350.996 329.909C355.735 329.909 359.83 330.772 363.281 332.498C366.762 334.223 369.453 336.563 371.354 339.518C373.255 342.472 374.206 345.792 374.206 349.477H362.184C362.184 347.488 361.76 345.733 360.912 344.212C360.093 342.691 358.835 341.492 357.139 340.614C355.471 339.737 353.365 339.298 350.821 339.298C348.364 339.298 346.316 339.664 344.678 340.395C343.069 341.126 341.856 342.121 341.037 343.379C340.247 344.636 339.852 346.04 339.852 347.591C339.852 348.761 340.13 349.814 340.686 350.75C341.241 351.656 342.075 352.519 343.186 353.338C344.298 354.128 345.673 354.874 347.311 355.576C348.978 356.248 350.908 356.921 353.102 357.594C356.612 358.647 359.683 359.817 362.316 361.104C364.978 362.391 367.186 363.853 368.941 365.491C370.725 367.129 372.056 368.972 372.934 371.02C373.84 373.067 374.294 375.393 374.294 377.996C374.294 380.745 373.753 383.202 372.67 385.367C371.588 387.531 370.038 389.374 368.02 390.895C366.001 392.416 363.574 393.571 360.736 394.361C357.928 395.151 354.784 395.546 351.303 395.546C348.203 395.546 345.132 395.136 342.09 394.317C339.077 393.469 336.342 392.211 333.885 390.544C331.428 388.848 329.468 386.712 328.006 384.138C326.543 381.535 325.812 378.493 325.812 375.012H337.921C337.921 377.031 338.243 378.756 338.887 380.19C339.559 381.594 340.495 382.749 341.695 383.656C342.923 384.533 344.356 385.177 345.994 385.586C347.632 385.996 349.402 386.2 351.303 386.2C353.76 386.2 355.779 385.864 357.358 385.191C358.967 384.489 360.166 383.524 360.956 382.296C361.775 381.067 362.184 379.663 362.184 378.084ZM385.148 371.415V370.493C385.148 367.012 385.646 363.81 386.64 360.885C387.635 357.93 389.083 355.371 390.984 353.207C392.885 351.042 395.21 349.36 397.96 348.161C400.709 346.932 403.839 346.318 407.349 346.318C410.918 346.318 414.077 346.932 416.826 348.161C419.605 349.36 421.945 351.042 423.846 353.207C425.747 355.371 427.195 357.93 428.19 360.885C429.184 363.81 429.681 367.012 429.681 370.493V371.415C429.681 374.866 429.184 378.069 428.19 381.023C427.195 383.948 425.747 386.508 423.846 388.701C421.945 390.866 419.619 392.548 416.87 393.747C414.12 394.946 410.976 395.546 407.437 395.546C403.927 395.546 400.782 394.946 398.004 393.747C395.225 392.548 392.885 390.866 390.984 388.701C389.083 386.508 387.635 383.948 386.64 381.023C385.646 378.069 385.148 374.866 385.148 371.415ZM396.731 370.493V371.415C396.731 373.491 396.936 375.436 397.346 377.25C397.755 379.063 398.384 380.658 399.232 382.032C400.08 383.407 401.177 384.489 402.523 385.279C403.898 386.04 405.536 386.42 407.437 386.42C409.309 386.42 410.918 386.04 412.263 385.279C413.609 384.489 414.705 383.407 415.554 382.032C416.431 380.658 417.075 379.063 417.484 377.25C417.894 375.436 418.098 373.491 418.098 371.415V370.493C418.098 368.446 417.894 366.53 417.484 364.746C417.075 362.932 416.431 361.338 415.554 359.963C414.705 358.559 413.594 357.462 412.219 356.673C410.874 355.854 409.25 355.444 407.349 355.444C405.477 355.444 403.868 355.854 402.523 356.673C401.177 357.462 400.08 358.559 399.232 359.963C398.384 361.338 397.755 362.932 397.346 364.746C396.936 366.53 396.731 368.446 396.731 370.493ZM440.536 371.415V370.493C440.536 367.012 441.033 363.81 442.028 360.885C443.022 357.93 444.47 355.371 446.371 353.207C448.273 351.042 450.598 349.36 453.348 348.161C456.097 346.932 459.227 346.318 462.737 346.318C466.305 346.318 469.464 346.932 472.214 348.161C474.992 349.36 477.332 351.042 479.234 353.207C481.135 355.371 482.583 357.93 483.577 360.885C484.572 363.81 485.069 367.012 485.069 370.493V371.415C485.069 374.866 484.572 378.069 483.577 381.023C482.583 383.948 481.135 386.508 479.234 388.701C477.332 390.866 475.007 392.548 472.258 393.747C469.508 394.946 466.364 395.546 462.824 395.546C459.315 395.546 456.17 394.946 453.391 393.747C450.613 392.548 448.273 390.866 446.371 388.701C444.47 386.508 443.022 383.948 442.028 381.023C441.033 378.069 440.536 374.866 440.536 371.415ZM452.119 370.493V371.415C452.119 373.491 452.324 375.436 452.733 377.25C453.143 379.063 453.772 380.658 454.62 382.032C455.468 383.407 456.565 384.489 457.911 385.279C459.285 386.04 460.923 386.42 462.824 386.42C464.696 386.42 466.305 386.04 467.651 385.279C468.996 384.489 470.093 383.407 470.941 382.032C471.819 380.658 472.462 379.063 472.872 377.25C473.281 375.436 473.486 373.491 473.486 371.415V370.493C473.486 368.446 473.281 366.53 472.872 364.746C472.462 362.932 471.819 361.338 470.941 359.963C470.093 358.559 468.982 357.462 467.607 356.673C466.261 355.854 464.638 355.444 462.737 355.444C460.865 355.444 459.256 355.854 457.911 356.673C456.565 357.462 455.468 358.559 454.62 359.963C453.772 361.338 453.143 362.932 452.733 364.746C452.324 366.53 452.119 368.446 452.119 370.493ZM509.349 357.331V394.668H497.766V347.196H508.647L509.349 357.331ZM507.507 369.221H504.084C504.114 365.769 504.582 362.64 505.488 359.832C506.395 357.024 507.668 354.611 509.306 352.592C510.973 350.574 512.947 349.024 515.229 347.942C517.51 346.859 520.055 346.318 522.863 346.318C525.144 346.318 527.206 346.64 529.049 347.283C530.892 347.927 532.471 348.951 533.788 350.355C535.133 351.759 536.157 353.601 536.859 355.883C537.59 358.135 537.956 360.914 537.956 364.219V394.668H526.285V364.131C526.285 361.967 525.963 360.256 525.32 358.998C524.706 357.74 523.799 356.848 522.6 356.322C521.43 355.795 519.982 355.532 518.256 355.532C516.472 355.532 514.907 355.897 513.561 356.629C512.245 357.331 511.134 358.311 510.227 359.568C509.349 360.826 508.677 362.274 508.209 363.912C507.741 365.55 507.507 367.32 507.507 369.221Z" fill="#931602"/>
</svg>
