<svg width="26" height="26" viewBox="0 0 26 26" fill="none" xmlns="http://www.w3.org/2000/svg">
<path d="M19.7506 8.65393L12.2504 1.18945L1 12.3862H3.50009V21.0947C3.50009 21.7546 3.76349 22.3875 4.23234 22.8541C4.7012 23.3207 5.33711 23.5829 6.00017 23.5829H10.3753" stroke="#931602" stroke-width="1.90664" stroke-linecap="round" stroke-linejoin="round"/>
<path d="M8.50031 23.5829V16.1185C8.50031 15.4586 8.76371 14.8257 9.23256 14.3591C9.70142 13.8925 10.3373 13.6303 11.0004 13.6303H13.5005M17.2506 19.2287L16.5193 18.5096C16.1736 18.2076 15.7293 18.0411 15.2693 18.0411C14.8093 18.0411 14.365 18.2076 14.0192 18.5096C13.423 19.0483 13.3305 19.893 13.798 20.5275L16.0006 23.5829C16.4631 24.2124 17.6644 24.827 18.5006 24.827H22.2508C23.5121 24.827 24.1221 23.9773 24.2783 22.8452C24.5934 21.6783 24.7509 20.6805 24.7509 19.8507C24.7509 18.6066 23.5771 17.5579 22.2508 17.3625H21.0007V14.0832C21.0007 13.1451 20.1607 12.3862 19.1257 12.3862C18.0906 12.3862 17.2506 13.1451 17.2506 14.0832V19.2287Z" stroke="#931602" stroke-width="1.90664" stroke-linecap="round" stroke-linejoin="round"/>
</svg>
