<svg width="30" height="28" viewBox="0 0 30 28" fill="none" xmlns="http://www.w3.org/2000/svg">
<path d="M19.7086 11.1437C20.5927 11.1437 21.4405 11.4949 22.0656 12.12C22.6907 12.7451 23.0419 13.593 23.0419 14.477C23.0419 15.3611 22.6907 16.2089 22.0656 16.8341C21.4405 17.4592 20.5927 17.8104 19.7086 17.8104C18.8245 17.8104 17.9767 17.4592 17.3516 16.8341C16.7265 16.2089 16.3753 15.3611 16.3753 14.477C16.3753 13.593 16.7265 12.7451 17.3516 12.12C17.9767 11.4949 18.8245 11.1437 19.7086 11.1437ZM19.7086 12.8104C19.2666 12.8104 18.8426 12.986 18.5301 13.2985C18.2175 13.6111 18.0419 14.035 18.0419 14.477C18.0419 14.9191 18.2175 15.343 18.5301 15.6556C18.8426 15.9681 19.2666 16.1437 19.7086 16.1437C20.1506 16.1437 20.5745 15.9681 20.8871 15.6556C21.1997 15.343 21.3753 14.9191 21.3753 14.477C21.3753 14.035 21.1997 13.6111 20.8871 13.2985C20.5745 12.986 20.1506 12.8104 19.7086 12.8104ZM19.7086 18.6437C21.9336 18.6437 26.3753 19.752 26.3753 21.977V23.0376C26.3753 23.8326 25.7308 24.477 24.9359 24.477H14.4813C13.6864 24.477 13.0419 23.8326 13.0419 23.0376V21.977C13.0419 19.752 17.4836 18.6437 19.7086 18.6437ZM19.7086 20.227C17.2336 20.227 14.6253 21.4437 14.6253 21.977V22.8937H24.7919V21.977C24.7919 21.4437 22.1836 20.227 19.7086 20.227Z" fill="#931602"/>
<path d="M19.7509 8.46447L12.2506 1L1.00024 12.1967H3.50033V20.9053C3.50033 21.5652 3.76373 22.198 4.23259 22.6647C4.70144 23.1313 5.33735 23.3934 6.00041 23.3934H10.3756" stroke="#931602" stroke-width="1.90664" stroke-linecap="round" stroke-linejoin="round"/>
<path d="M8.50055 23.3935V15.929C8.50055 15.2691 8.76395 14.6362 9.23281 14.1696C9.70166 13.703 10.3376 13.4409 11.0006 13.4409H13.5007" stroke="#931602" stroke-width="1.90664" stroke-linecap="round" stroke-linejoin="round"/>
</svg>
