<svg width="27" height="25" viewBox="0 0 27 25" fill="none" xmlns="http://www.w3.org/2000/svg">
<path d="M19.7084 11.1437C20.5924 11.1437 21.4403 11.4949 22.0654 12.12C22.6905 12.7451 23.0417 13.593 23.0417 14.477C23.0417 15.3611 22.6905 16.2089 22.0654 16.8341C21.4403 17.4592 20.5924 17.8104 19.7084 17.8104C18.8243 17.8104 17.9765 17.4592 17.3513 16.8341C16.7262 16.2089 16.375 15.3611 16.375 14.477C16.375 13.593 16.7262 12.7451 17.3513 12.12C17.9765 11.4949 18.8243 11.1437 19.7084 11.1437ZM19.7084 12.8104C19.2663 12.8104 18.8424 12.986 18.5298 13.2985C18.2173 13.6111 18.0417 14.035 18.0417 14.477C18.0417 14.9191 18.2173 15.343 18.5298 15.6556C18.8424 15.9681 19.2663 16.1437 19.7084 16.1437C20.1504 16.1437 20.5743 15.9681 20.8869 15.6556C21.1994 15.343 21.375 14.9191 21.375 14.477C21.375 14.035 21.1994 13.6111 20.8869 13.2985C20.5743 12.986 20.1504 12.8104 19.7084 12.8104ZM19.7084 18.6437C21.9334 18.6437 26.375 19.752 26.375 21.977V23.0376C26.375 23.8326 25.7306 24.477 24.9356 24.477H14.4811C13.6861 24.477 13.0417 23.8326 13.0417 23.0376V21.977C13.0417 19.752 17.4834 18.6437 19.7084 18.6437ZM19.7084 20.227C17.2334 20.227 14.625 21.4437 14.625 21.977V22.8937H24.7917V21.977C24.7917 21.4437 22.1834 20.227 19.7084 20.227Z" fill="#931602"/>
<path d="M19.7506 8.46447L12.2504 1L1 12.1967H3.50009V20.9053C3.50009 21.5652 3.76349 22.198 4.23234 22.6647C4.7012 23.1313 5.33711 23.3934 6.00017 23.3934H10.3753" stroke="#931602" stroke-width="1.90664" stroke-linecap="round" stroke-linejoin="round"/>
<path d="M8.50031 23.3935V15.929C8.50031 15.2691 8.76371 14.6362 9.23256 14.1696C9.70142 13.703 10.3373 13.4409 11.0004 13.4409H13.5005" stroke="#931602" stroke-width="1.90664" stroke-linecap="round" stroke-linejoin="round"/>
</svg>
