<svg width="50" height="50" viewBox="0 0 50 50" fill="none" xmlns="http://www.w3.org/2000/svg">
<g id="la:hands-helping">
<path id="Vector" d="M32.8125 5.21924L31.7875 6.32021C29.4922 8.79624 27.6 9.90333 26.025 10.6276C24.45 11.3504 23.1266 11.5663 21.8266 12.5417C20.4406 13.5829 18.4266 15.5797 17.5781 19.1444C15.7594 19.5334 14.4281 20.2163 13.3781 21.106C12.3406 21.9849 11.5594 22.9848 10.5969 24.0735C10.5891 24.0858 10.6016 24.1087 10.5969 24.121C9.21563 25.6767 8.00781 27.3519 5.66406 28.237L4.6875 28.6198V44.9843H34.4734C36.1812 44.8939 37.3656 43.7348 38.0859 42.5909C38.8047 41.4486 39.2031 40.2114 39.4047 39.1946C39.9234 36.6037 40.8688 29.145 40.8688 29.145L40.9188 29.0026V28.8587C40.8687 27.8236 40.4344 26.9446 39.8922 26.13L41.65 21.011L44.4344 16.895L45.2156 15.7941L44.1891 14.886L33.9359 6.17627L32.8125 5.21924ZM32.9109 9.43018L41.0641 16.3698L38.9156 19.4782L38.7703 19.6237L38.7203 19.8626L37.3047 23.9771C36.5656 23.6785 35.8047 23.4687 34.9609 23.4993H34.8625L25 23.5468H23.4375V29.4804C23.2188 31.1494 22.2719 31.7956 21.0938 32.2565C20.7031 32.4112 20.6547 32.327 20.3125 32.3989V23.5008C20.0562 17.8245 22.1187 16.1906 23.7312 14.9825C24.1766 14.6471 25.4813 14.2597 27.3438 13.4038C28.9 12.6856 30.8344 11.3994 32.9109 9.43171V9.43018ZM17.2859 22.5897C17.2797 22.9373 17.1687 23.1823 17.1875 23.5468V35.7968H18.75C18.75 35.7968 20.4219 35.7784 22.2172 35.0786C24.0109 34.3788 26.1781 32.7404 26.5625 29.8632V26.6093L34.9609 26.5618H35.0094C35.6953 26.525 36.3681 26.756 36.8806 27.2043C37.3931 27.6526 37.7034 28.2816 37.7438 28.9536C37.7375 28.9781 37.6656 29.5462 37.6469 29.6718H31.25V32.7343H37.2562C37.0906 33.9179 36.9391 34.6606 36.7672 35.7968H31.25V38.8593H36.2797C36.095 39.6001 35.7985 40.3097 35.4 40.9647C34.9734 41.6461 34.6062 41.9034 34.2781 41.9218H7.8125V30.4849C10.3453 29.168 11.9203 27.2738 12.9391 26.1315C13.9953 24.9463 14.7203 24.049 15.4297 23.4518C15.8938 23.0629 16.6203 22.8409 17.2859 22.5897Z" fill="white"/>
</g>
</svg>
