<svg width="47" height="48" viewBox="0 0 47 48" fill="none" xmlns="http://www.w3.org/2000/svg">
<g id="mdi:account-secure-outline">
<path id="Vector" d="M19.5833 24.078C23.9112 24.078 27.4167 20.5726 27.4167 16.2447C27.4167 11.9168 23.9112 8.41138 19.5833 8.41138C15.2554 8.41138 11.75 11.9168 11.75 16.2447C11.75 20.5726 15.2554 24.078 19.5833 24.078ZM19.5833 12.328C20.6221 12.328 21.6183 12.7407 22.3528 13.4752C23.0873 14.2097 23.5 15.2059 23.5 16.2447C23.5 17.2835 23.0873 18.2797 22.3528 19.0142C21.6183 19.7487 20.6221 20.1614 19.5833 20.1614C17.4096 20.1614 15.6667 18.4185 15.6667 16.2447C15.6667 14.071 17.4292 12.328 19.5833 12.328ZM23.5 39.7447H3.91666V33.8697C3.91666 28.641 14.3546 26.0364 19.5833 26.0364C21.5417 26.0364 24.2442 26.4085 26.8487 27.133C26.2612 28.2297 25.9087 29.4439 25.8696 30.7168C23.9504 30.1489 21.7571 29.7572 19.5833 29.7572C13.7671 29.7572 7.6375 32.6164 7.6375 33.8697V36.0239H23.5V39.7447ZM40.7333 33.8697V30.9322C40.7333 28.1905 37.9917 26.0364 35.25 26.0364C32.5083 26.0364 29.7667 28.1905 29.7667 30.9322V33.8697C28.5917 33.8697 27.4167 35.0447 27.4167 36.2197V43.0739C27.4167 44.4447 28.5917 45.6197 29.7667 45.6197H40.5375C41.9083 45.6197 43.0833 44.4447 43.0833 43.2697V36.4155C43.0833 35.0447 41.9083 33.8697 40.7333 33.8697ZM38.1875 33.8697H32.3125V30.9322C32.3125 29.3655 33.6833 28.3864 35.25 28.3864C36.8167 28.3864 38.1875 29.3655 38.1875 30.9322V33.8697Z" fill="white"/>
</g>
</svg>
