<svg width="24" height="24" viewBox="0 0 24 24" fill="none" xmlns="http://www.w3.org/2000/svg">
<path d="M4 21C4 20.4477 4.44772 20 5 20H19C19.5523 20 20 20.4477 20 21C20 21.5523 19.5523 22 19 22H5C4.44772 22 4 21.5523 4 21Z" fill="#F1F1F1"/>
<path fill-rule="evenodd" clip-rule="evenodd" d="M16.6543 4.58838C15.8733 3.80733 14.6069 3.80733 13.8259 4.58838L6.91979 11.4944L6.00198 15.9981L10.5056 15.0802L17.4117 8.17417C18.1927 7.39312 18.1927 6.12678 17.4117 5.34573L16.6543 4.58838ZM12.4117 3.17416C13.9738 1.61207 16.5064 1.61207 18.0685 3.17417L18.8259 3.93152C20.388 5.49362 20.388 8.02629 18.8259 9.58838L11.9198 16.4944C11.6423 16.7719 11.2894 16.9616 10.905 17.0399L6.40141 17.9578C4.99686 18.2441 3.75603 17.0033 4.04226 15.5988L4.96007 11.0951C5.03842 10.7106 5.22813 10.3577 5.50558 10.0802L12.4117 3.17416Z" fill="#F1F1F1"/>
</svg>
