<svg width="17" height="20" viewBox="0 0 17 20" fill="none" xmlns="http://www.w3.org/2000/svg">
<g id="Group 3">
<path id="Vector" d="M15.9043 8.35469C15.9043 14.1136 8.50002 19.0497 8.50002 19.0497C8.50002 19.0497 1.09576 14.1136 1.09576 8.35469C1.09576 6.39096 1.87585 4.50766 3.26442 3.1191C4.65299 1.73053 6.53629 0.950439 8.50002 0.950439C10.4637 0.950439 12.3471 1.73053 13.7356 3.1191C15.1242 4.50766 15.9043 6.39096 15.9043 8.35469Z" stroke="#121212" stroke-width="1.5" stroke-linecap="round" stroke-linejoin="round"/>
<path id="Vector_2" d="M8.49995 10.8229C9.86303 10.8229 10.968 9.71789 10.968 8.3548C10.968 6.99172 9.86303 5.88672 8.49995 5.88672C7.13686 5.88672 6.03186 6.99172 6.03186 8.3548C6.03186 9.71789 7.13686 10.8229 8.49995 10.8229Z" stroke="#121212" stroke-width="1.5" stroke-linecap="round" stroke-linejoin="round"/>
</g>
</svg>
