<svg width="30" height="29" viewBox="0 0 30 29" fill="none" xmlns="http://www.w3.org/2000/svg">
<g id="Group">
<path id="Vector" fill-rule="evenodd" clip-rule="evenodd" d="M15.0001 2.41666C21.6737 2.41666 27.0834 7.82637 27.0834 14.5C27.0877 17.2887 26.1233 19.9923 24.355 22.1487L24.3792 22.1753L24.2197 22.3107C23.0865 23.651 21.6744 24.7277 20.082 25.4657C18.4896 26.2037 16.7552 26.5851 15.0001 26.5833C11.4355 26.5833 8.23343 25.0403 6.02218 22.5874L5.78051 22.3094L5.62101 22.1765L5.64518 22.1475C3.87709 19.9915 2.91268 17.2883 2.91676 14.5C2.91676 7.82637 8.32647 2.41666 15.0001 2.41666ZM15.0001 20.5417C12.7526 20.5417 10.7214 21.257 9.20855 22.2394C10.8788 23.4932 12.9116 24.1696 15.0001 24.1667C17.0886 24.1696 19.1214 23.4932 20.7916 22.2394C19.0628 21.1321 17.0531 20.5429 15.0001 20.5417ZM15.0001 4.83332C13.181 4.83327 11.3988 5.34652 9.8583 6.31408C8.31784 7.28163 7.08165 8.66422 6.29183 10.3029C5.50201 11.9416 5.19061 13.77 5.39342 15.5777C5.59624 17.3855 6.30503 19.0994 7.43834 20.5223C9.39705 19.117 12.0699 18.125 15.0001 18.125C17.9303 18.125 20.6031 19.117 22.5618 20.5223C23.6952 19.0994 24.404 17.3855 24.6068 15.5777C24.8096 13.77 24.4982 11.9416 23.7084 10.3029C22.9185 8.66422 21.6824 7.28163 20.1419 6.31408C18.6014 5.34652 16.8192 4.83327 15.0001 4.83332ZM15.0001 7.24999C16.282 7.24999 17.5114 7.75921 18.4178 8.66564C19.3242 9.57207 19.8334 10.8014 19.8334 12.0833C19.8334 13.3652 19.3242 14.5946 18.4178 15.501C17.5114 16.4074 16.282 16.9167 15.0001 16.9167C13.7182 16.9167 12.4888 16.4074 11.5824 15.501C10.676 14.5946 10.1668 13.3652 10.1668 12.0833C10.1668 10.8014 10.676 9.57207 11.5824 8.66564C12.4888 7.75921 13.7182 7.24999 15.0001 7.24999ZM15.0001 9.66666C14.3592 9.66666 13.7445 9.92127 13.2913 10.3745C12.838 10.8277 12.5834 11.4424 12.5834 12.0833C12.5834 12.7243 12.838 13.339 13.2913 13.7922C13.7445 14.2454 14.3592 14.5 15.0001 14.5C15.641 14.5 16.2557 14.2454 16.7089 13.7922C17.1621 13.339 17.4168 12.7243 17.4168 12.0833C17.4168 11.4424 17.1621 10.8277 16.7089 10.3745C16.2557 9.92127 15.641 9.66666 15.0001 9.66666Z" fill="black" fill-opacity="0.76"/>
</g>
</svg>
