<svg width="27" height="27" viewBox="0 0 27 27" fill="none" xmlns="http://www.w3.org/2000/svg">
<g id="solar:heart-linear">
<path id="Vector" d="M13.5 6.18752L12.8925 6.77251C12.9712 6.85418 13.0656 6.91913 13.17 6.96349C13.2743 7.00786 13.3866 7.03072 13.5 7.03072C13.6134 7.03072 13.7257 7.00786 13.83 6.96349C13.9344 6.91913 14.0288 6.85418 14.1075 6.77251L13.5 6.18752ZM10.6042 20.6123C8.89875 19.2679 7.03463 17.955 5.55525 16.29C4.10625 14.6565 3.09375 12.7508 3.09375 10.2791H1.40625C1.40625 13.2784 2.655 15.5666 4.29412 17.4105C5.90287 19.2218 7.95487 20.673 9.55912 21.9375L10.6054 20.6123H10.6042ZM3.09375 10.2791C3.09375 7.86039 4.46062 5.83089 6.327 4.97701C8.1405 4.14789 10.5772 4.36726 12.8925 6.77251L14.1075 5.60364C11.3625 2.74951 8.172 2.27814 5.625 3.44251C3.13425 4.58214 1.40625 7.22814 1.40625 10.2791H3.09375ZM9.55912 21.9375C10.1362 22.392 10.755 22.8758 11.3816 23.2425C12.0082 23.6081 12.7238 23.9063 13.5 23.9063V22.2188C13.1512 22.2188 12.7417 22.0838 12.2332 21.7856C11.7236 21.4886 11.196 21.0791 10.6042 20.6123L9.55912 21.9375ZM17.4409 21.9375C19.0451 20.6719 21.0971 19.2229 22.7059 17.4105C24.345 15.5655 25.5938 13.2784 25.5938 10.2791H23.9062C23.9062 12.7508 22.8938 14.6565 21.4447 16.29C19.9654 17.955 18.1012 19.2679 16.3958 20.6123L17.4409 21.9375ZM25.5938 10.2791C25.5938 7.22814 23.8669 4.58214 21.375 3.44251C18.828 2.27814 15.6397 2.74951 12.8925 5.60251L14.1075 6.77251C16.4228 4.36839 18.8595 4.14789 20.673 4.97701C22.5394 5.83089 23.9062 7.85926 23.9062 10.2791H25.5938ZM16.3958 20.6123C15.804 21.0791 15.2764 21.4886 14.7668 21.7856C14.2583 22.0826 13.8488 22.2188 13.5 22.2188V23.9063C14.2762 23.9063 14.9918 23.6081 15.6184 23.2425C16.2461 22.8758 16.8638 22.392 17.4409 21.9375L16.3958 20.6123Z" fill="black"/>
</g>
</svg>
