<svg width="24" height="24" viewBox="0 0 24 24" fill="none" xmlns="http://www.w3.org/2000/svg">
<g clip-path="url(#clip0_4199_12133)">
<path d="M14 11V16" stroke="#121212" stroke-width="1.5" stroke-linecap="round"/>
<path d="M10 11V16" stroke="#121212" stroke-width="1.5" stroke-linecap="round"/>
<path d="M21.25 11.9512V13.4425C21.25 15.4842 21.2478 16.9275 21.076 18.0211C20.9097 19.0796 20.5989 19.7054 20.0479 20.177C19.48 20.6629 18.6982 20.949 17.4006 21.0983C16.092 21.2488 14.3752 21.25 12 21.25C9.62477 21.25 7.90802 21.2488 6.59936 21.0983C5.30184 20.949 4.51999 20.6629 3.9521 20.177C3.40107 19.7054 3.09027 19.0796 2.92397 18.0211C2.75216 16.9275 2.75 15.4842 2.75 13.4425L2.75 11.9512C2.75 9.9579 2.77014 9.22379 3.11165 8.58197C3.27772 8.26988 3.52908 7.97044 3.97165 7.58187C4.42254 7.18601 5.02796 6.73438 5.88276 6.09771C7.46192 4.92152 8.59405 4.07985 9.56227 3.52469C10.5111 2.98066 11.2398 2.75 12 2.75C12.7602 2.75 13.489 2.98066 14.4377 3.52469C15.4059 4.07985 16.5381 4.92152 18.1172 6.09771C18.972 6.73439 19.5775 7.18601 20.0284 7.58187C20.4709 7.97044 20.7223 8.26988 20.8883 8.58197C21.2299 9.22379 21.25 9.9579 21.25 11.9512Z" stroke="#121212" stroke-width="1.5"/>
</g>
<defs>
<clipPath id="clip0_4199_12133">
<rect width="24" height="24" fill="white"/>
</clipPath>
</defs>
</svg>
