<svg width="31" height="22" viewBox="0 0 31 22" fill="none" xmlns="http://www.w3.org/2000/svg">
<path d="M5.36581 1.88441C6.11799 0.976728 6.89909 0.469496 7.70913 0.362708C8.57702 0.255924 9.30026 0.416102 9.87886 0.843243C10.5153 1.217 10.8625 1.80432 10.9203 2.60521C11.036 3.35271 10.6889 4.1803 9.87886 5.08798C9.12668 5.94227 8.51916 6.79655 8.05628 7.65084C7.65127 8.45173 7.36197 9.25263 7.18839 10.0535C9.0399 10.2137 10.5153 10.8277 11.6146 11.8956C12.714 12.91 13.2636 14.2716 13.2636 15.9801C13.2636 17.6887 12.685 19.1036 11.5279 20.2249C10.3707 21.2927 8.80846 21.8267 6.84123 21.8267C4.81615 21.8267 3.22501 21.1859 2.06782 19.9045C0.910627 18.6231 0.332031 16.8344 0.332031 14.5385C0.332031 12.6164 0.650259 10.6141 1.28671 8.53182C1.98103 6.39611 3.34073 4.1803 5.36581 1.88441ZM22.2897 1.88441C23.0419 0.976728 23.823 0.469496 24.633 0.362708C25.5009 0.255924 26.2242 0.416102 26.8028 0.843243C27.4392 1.217 27.7864 1.80432 27.8443 2.60521C27.96 3.35271 27.6128 4.1803 26.8028 5.08798C26.0506 5.94227 25.4431 6.79655 24.9802 7.65084C24.5752 8.45173 24.2859 9.25263 24.1123 10.0535C25.9638 10.2137 27.4392 10.8277 28.5386 11.8956C29.6379 12.91 30.1876 14.2716 30.1876 15.9801C30.1876 17.6887 29.609 19.1036 28.4518 20.2249C27.2946 21.2927 25.7324 21.8267 23.7652 21.8267C21.7401 21.8267 20.1489 21.1859 18.9917 19.9045C17.8345 18.6231 17.256 16.8344 17.256 14.5385C17.256 12.6164 17.5742 10.6141 18.2106 8.53182C18.9049 6.39611 20.2647 4.1803 22.2897 1.88441Z" fill="#931602"/>
</svg>
