<svg width="77" height="16" viewBox="0 0 77 16" fill="none" xmlns="http://www.w3.org/2000/svg">
<path d="M6.83963 2.66109C7.01838 2.11096 7.79666 2.11096 7.9754 2.66109L8.88217 5.45184C8.96211 5.69787 9.19138 5.86444 9.45006 5.86444H12.3844C12.9629 5.86444 13.2034 6.60462 12.7354 6.94462L10.3614 8.6694C10.1522 8.82145 10.0646 9.09097 10.1445 9.33699L11.0513 12.1277C11.2301 12.6779 10.6004 13.1353 10.1324 12.7953L7.75849 11.0706C7.54921 10.9185 7.26582 10.9185 7.05654 11.0706L4.68259 12.7953C4.21462 13.1353 3.58498 12.6779 3.76373 12.1277L4.6705 9.33699C4.75044 9.09097 4.66287 8.82145 4.45359 8.6694L2.07963 6.94462C1.61166 6.60462 1.85217 5.86444 2.4306 5.86444H5.36497C5.62366 5.86444 5.85292 5.69787 5.93286 5.45184L6.83963 2.66109Z" fill="#FF7F22"/>
<path d="M22.3631 2.66109C22.5418 2.11096 23.3201 2.11096 23.4988 2.66109L24.4056 5.45184C24.4855 5.69787 24.7148 5.86444 24.9735 5.86444H27.9079C28.4863 5.86444 28.7268 6.60462 28.2588 6.94462L25.8849 8.6694C25.6756 8.82145 25.588 9.09097 25.668 9.33699L26.5747 12.1277C26.7535 12.6779 26.1238 13.1353 25.6559 12.7953L23.2819 11.0706C23.0726 10.9185 22.7893 10.9185 22.58 11.0706L20.206 12.7953C19.7381 13.1353 19.1084 12.6779 19.2872 12.1277L20.1939 9.33699C20.2739 9.09097 20.1863 8.82145 19.977 8.6694L17.6031 6.94462C17.1351 6.60462 17.3756 5.86444 17.954 5.86444H20.8884C21.1471 5.86444 21.3764 5.69787 21.4563 5.45184L22.3631 2.66109Z" fill="#FF7F22"/>
<path d="M37.8904 2.66109C38.0692 2.11096 38.8474 2.11096 39.0262 2.66109L39.933 5.45184C40.0129 5.69787 40.2422 5.86444 40.5008 5.86444H43.4352C44.0136 5.86444 44.2542 6.60462 43.7862 6.94462L41.4122 8.6694C41.2029 8.82145 41.1154 9.09097 41.1953 9.33699L42.1021 12.1277C42.2808 12.6779 41.6512 13.1353 41.1832 12.7953L38.8093 11.0706C38.6 10.9185 38.3166 10.9185 38.1073 11.0706L35.7334 12.7953C35.2654 13.1353 34.6358 12.6779 34.8145 12.1277L35.7213 9.33699C35.8012 9.09097 35.7136 8.82145 35.5044 8.6694L33.1304 6.94462C32.6624 6.60462 32.9029 5.86444 33.4814 5.86444H36.4158C36.6744 5.86444 36.9037 5.69787 36.9836 5.45184L37.8904 2.66109Z" fill="#FF7F22"/>
<path d="M53.4138 2.66109C53.5926 2.11096 54.3709 2.11096 54.5496 2.66109L55.4564 5.45184C55.5363 5.69787 55.7656 5.86444 56.0243 5.86444H58.9587C59.5371 5.86444 59.7776 6.60462 59.3096 6.94462L56.9357 8.6694C56.7264 8.82145 56.6388 9.09097 56.7188 9.33699L57.6255 12.1277C57.8043 12.6779 57.1746 13.1353 56.7067 12.7953L54.3327 11.0706C54.1234 10.9185 53.84 10.9185 53.6308 11.0706L51.2568 12.7953C50.7888 13.1353 50.1592 12.6779 50.3379 12.1277L51.2447 9.33699C51.3247 9.09097 51.2371 8.82145 51.0278 8.6694L48.6538 6.94462C48.1859 6.60462 48.4264 5.86444 49.0048 5.86444H51.9392C52.1979 5.86444 52.4271 5.69787 52.5071 5.45184L53.4138 2.66109Z" fill="#FF7F22"/>
<path d="M68.9373 2.66109C69.116 2.11096 69.8943 2.11096 70.0731 2.66109L70.9798 5.45184C71.0598 5.69787 71.289 5.86444 71.5477 5.86444H74.4821C75.0605 5.86444 75.301 6.60462 74.8331 6.94462L72.4591 8.6694C72.2498 8.82145 72.1623 9.09097 72.2422 9.33699L73.149 12.1277C73.3277 12.6779 72.6981 13.1353 72.2301 12.7953L69.8561 11.0706C69.6469 10.9185 69.3635 10.9185 69.1542 11.0706L66.7802 12.7953C66.3123 13.1353 65.6826 12.6779 65.8614 12.1277L66.7682 9.33699C66.8481 9.09097 66.7605 8.82145 66.5512 8.6694L64.1773 6.94462C63.7093 6.60462 63.9498 5.86444 64.5283 5.86444H67.4626C67.7213 5.86444 67.9506 5.69787 68.0305 5.45184L68.9373 2.66109Z" fill="#FF7F22"/>
</svg>
